G04 #@! TF.FileFunction,Soldermask,Bot*
%FSLAX46Y46*%
G04 Gerber Fmt 4.6, Leading zero omitted, Abs format (unit mm)*
G04 Created by KiCad (PCBNEW 0.201504221001+5618~22~ubuntu14.04.1-product) date Fri 24 Apr 2015 02:03:34 PM EDT*
%MOMM*%
G01*
G04 APERTURE LIST*
%ADD10C,0.100000*%
%ADD11C,0.228600*%
%ADD12C,4.210000*%
%ADD13C,8.274000*%
G04 APERTURE END LIST*
D10*
D11*
X49326800Y-151968200D02*
G75*
G03X60706000Y-151968200I5689600J0D01*
G01*
X60706000Y-125476000D02*
X60706000Y-151968200D01*
X49326800Y-125476000D02*
X49326800Y-151968200D01*
X63500000Y-122682000D02*
G75*
G03X60706000Y-125476000I0J-2794000D01*
G01*
X49326800Y-125476000D02*
G75*
G03X46558200Y-122707400I-2768600J0D01*
G01*
X63500000Y-122707400D02*
X81864200Y-122707400D01*
X28194000Y-122707400D02*
X46532800Y-122707400D01*
X28194000Y-25400000D02*
G75*
G03X25400000Y-28194000I0J-2794000D01*
G01*
X81864200Y-122707400D02*
G75*
G03X84658200Y-119913400I0J2794000D01*
G01*
X84658200Y-28194000D02*
X84658200Y-119913400D01*
X25400000Y-119913400D02*
G75*
G03X28194000Y-122707400I2794000J0D01*
G01*
X25400000Y-28194000D02*
X25400000Y-119913400D01*
X84658200Y-28194000D02*
G75*
G03X81864200Y-25400000I-2794000J0D01*
G01*
X28194000Y-25400000D02*
X81864200Y-25400000D01*
D12*
X28194000Y-28194000D03*
X81864200Y-28194000D03*
X28194000Y-65735200D03*
X81864200Y-65735200D03*
X28194000Y-119913400D03*
X81864200Y-119913400D03*
D13*
X31089600Y-36499800D03*
X78943200Y-36499800D03*
X31089600Y-74041000D03*
X78943200Y-74041000D03*
X31089600Y-111607600D03*
X78943200Y-111607600D03*
X55016400Y-151968200D03*
M02*
