G04 #@! TF.FileFunction,Copper,L1,Top,Signal*
%FSLAX46Y46*%
G04 Gerber Fmt 4.6, Leading zero omitted, Abs format (unit mm)*
G04 Created by KiCad (PCBNEW 0.201505120158+5650~23~ubuntu14.04.1-product) date Thu 14 May 2015 12:47:03 PM EDT*
%MOMM*%
G01*
G04 APERTURE LIST*
%ADD10C,0.100000*%
%ADD11C,0.228600*%
%ADD12C,2.336800*%
%ADD13R,4.495800X1.016000*%
%ADD14C,2.946400*%
%ADD15R,0.619760X0.619760*%
%ADD16R,1.193800X1.193800*%
%ADD17C,0.889000*%
%ADD18C,0.812800*%
%ADD19C,0.406400*%
%ADD20C,0.203200*%
G04 APERTURE END LIST*
D10*
D11*
X25400000Y-84836000D02*
X49364900Y-84836000D01*
X49364900Y-25400000D02*
X49364900Y-84836000D01*
X25400000Y-25400000D02*
X25400000Y-84836000D01*
X25400000Y-25400000D02*
X49364900Y-25400000D01*
D12*
X47586900Y-27178000D03*
X47586900Y-29718000D03*
X47586900Y-34798000D03*
X47586900Y-37338000D03*
X47586900Y-42418000D03*
X47586900Y-44958000D03*
X47586900Y-50038000D03*
X47586900Y-52578000D03*
X47586900Y-57658000D03*
X47586900Y-60198000D03*
X47586900Y-65278000D03*
X47586900Y-67818000D03*
X47586900Y-72898000D03*
X47586900Y-75438000D03*
X47586900Y-80518000D03*
X47586900Y-83058000D03*
D13*
X34747200Y-47498000D03*
X28752800Y-47498000D03*
X34747200Y-62738000D03*
X28752800Y-62738000D03*
X28752800Y-50038000D03*
X34747200Y-50038000D03*
X28752800Y-52578000D03*
X34747200Y-52578000D03*
X28752800Y-55118000D03*
X34747200Y-55118000D03*
X28752800Y-57658000D03*
X34747200Y-57658000D03*
X28752800Y-60198000D03*
X34747200Y-60198000D03*
D14*
X36334700Y-74168000D03*
X36334700Y-36068000D03*
D15*
X40557400Y-32072580D03*
X40557400Y-31173420D03*
X40557400Y-39692580D03*
X40557400Y-38793420D03*
X40557400Y-47312580D03*
X40557400Y-46413420D03*
X40557400Y-54932580D03*
X40557400Y-54033420D03*
X40557400Y-62552580D03*
X40557400Y-61653420D03*
X40557400Y-70172580D03*
X40557400Y-69273420D03*
X40557400Y-77792580D03*
X40557400Y-76893420D03*
X38202820Y-81788000D03*
X39101980Y-81788000D03*
D16*
X40557400Y-29502100D03*
X40557400Y-27393900D03*
X40557400Y-37122100D03*
X40557400Y-35013900D03*
X40557400Y-44742100D03*
X40557400Y-42633900D03*
X40557400Y-52362100D03*
X40557400Y-50253900D03*
X40557400Y-59982100D03*
X40557400Y-57873900D03*
X40557400Y-67602100D03*
X40557400Y-65493900D03*
X40557400Y-75222100D03*
X40557400Y-73113900D03*
X40557400Y-82842100D03*
X40557400Y-80733900D03*
D17*
X29044200Y-29187300D03*
X28752800Y-48768000D03*
X39189300Y-34475900D03*
X28592000Y-74732300D03*
X28621400Y-36882700D03*
X37817900Y-27559200D03*
X28586200Y-44269600D03*
X38184900Y-79884000D03*
X29869400Y-80753900D03*
X39199000Y-66344100D03*
X30972100Y-45502500D03*
X40778500Y-79056500D03*
X39248400Y-42486000D03*
X39219200Y-50253900D03*
X42565200Y-69323400D03*
X39161600Y-58012100D03*
X39209700Y-28246100D03*
X42456300Y-31296100D03*
X39003300Y-56479200D03*
X44329400Y-56032000D03*
X41801700Y-62481000D03*
X29676400Y-69505400D03*
X29805400Y-83980100D03*
X43741200Y-79368500D03*
X28586200Y-80129700D03*
X28666700Y-71474800D03*
X29101700Y-27043300D03*
X29569600Y-35538900D03*
X30953200Y-42018400D03*
X38913700Y-47775900D03*
X28551300Y-56394400D03*
X30956100Y-64339600D03*
D18*
X28752800Y-48768000D02*
X28752800Y-50038000D01*
X28461800Y-36723100D02*
X28621400Y-36882700D01*
X28461800Y-29769700D02*
X28461800Y-36723100D01*
X29044200Y-29187300D02*
X28461800Y-29769700D01*
X36074700Y-31361300D02*
X36074700Y-29302400D01*
X39189300Y-34475900D02*
X36074700Y-31361300D01*
X35959600Y-29187300D02*
X29044200Y-29187300D01*
X36074700Y-29302400D02*
X35959600Y-29187300D01*
X28752800Y-47498000D02*
X28752800Y-48768000D01*
X28621400Y-44269600D02*
X28621400Y-36882700D01*
X28752800Y-44401000D02*
X28621400Y-44269600D01*
X28752800Y-47498000D02*
X28752800Y-44401000D01*
X28621400Y-44269600D02*
X28586200Y-44269600D01*
X37817900Y-27559200D02*
X36074700Y-29302400D01*
X29869400Y-79884000D02*
X38184900Y-79884000D01*
X29869400Y-76009700D02*
X29869400Y-79884000D01*
X28592000Y-74732300D02*
X29869400Y-76009700D01*
X29869400Y-79884000D02*
X29869400Y-80753900D01*
X34747200Y-50038000D02*
X34747200Y-52578000D01*
X39299800Y-66243300D02*
X39199000Y-66344100D01*
X39299800Y-65493900D02*
X39299800Y-66243300D01*
X40557400Y-65493900D02*
X39299800Y-65493900D01*
X34747200Y-47498000D02*
X34747200Y-48768000D01*
X34747200Y-48768000D02*
X34747200Y-50038000D01*
X31481700Y-45502500D02*
X30972100Y-45502500D01*
X34747200Y-48768000D02*
X31481700Y-45502500D01*
X40557400Y-27393900D02*
X39299800Y-27393900D01*
X40557400Y-35013900D02*
X40557400Y-33756300D01*
X40557400Y-65493900D02*
X41815000Y-65493900D01*
X40557400Y-57873900D02*
X41815000Y-57873900D01*
X40557400Y-80733900D02*
X40557400Y-79476300D01*
X43783700Y-54892200D02*
X45434500Y-54892200D01*
X41815000Y-56860900D02*
X43783700Y-54892200D01*
X41815000Y-57873900D02*
X41815000Y-56860900D01*
X47586900Y-52739800D02*
X47586900Y-52578000D01*
X45434500Y-54892200D02*
X47586900Y-52739800D01*
X40778500Y-79255200D02*
X40778500Y-79056500D01*
X40557400Y-79476300D02*
X40778500Y-79255200D01*
X40557400Y-42633900D02*
X39566600Y-42633900D01*
X39396300Y-42633900D02*
X39248400Y-42486000D01*
X39566600Y-42633900D02*
X39396300Y-42633900D01*
X45614700Y-58304800D02*
X47507900Y-60198000D01*
X45614700Y-55072400D02*
X45614700Y-58304800D01*
X45434500Y-54892200D02*
X45614700Y-55072400D01*
X47507900Y-60198000D02*
X47586900Y-60198000D01*
X40557400Y-73113900D02*
X41815000Y-73113900D01*
X40557400Y-42633900D02*
X41815000Y-42633900D01*
X42565200Y-65493900D02*
X41815000Y-65493900D01*
X42565200Y-65140700D02*
X42565200Y-65493900D01*
X47507900Y-60198000D02*
X42565200Y-65140700D01*
X40557400Y-35013900D02*
X41815000Y-35013900D01*
X47586900Y-29718000D02*
X42291000Y-35013900D01*
X42291000Y-35013900D02*
X41815000Y-35013900D01*
X40557400Y-57873900D02*
X39299800Y-57873900D01*
X39161600Y-58012100D02*
X39299800Y-57873900D01*
X39219200Y-50253900D02*
X40557400Y-50253900D01*
X40557400Y-50253900D02*
X40557400Y-48996300D01*
X41815000Y-47738700D02*
X41815000Y-42633900D01*
X40557400Y-48996300D02*
X41815000Y-47738700D01*
X42291000Y-35013900D02*
X44615100Y-37338000D01*
X44615100Y-37338000D02*
X47586900Y-37338000D01*
X41815000Y-42633900D02*
X43515500Y-40933400D01*
X44615100Y-39833800D02*
X43515500Y-40933400D01*
X44615100Y-37338000D02*
X44615100Y-39833800D01*
X47540100Y-44958000D02*
X47586900Y-44958000D01*
X43515500Y-40933400D02*
X47540100Y-44958000D01*
X42565200Y-65493900D02*
X42565200Y-69323400D01*
X39299800Y-32498700D02*
X39299800Y-28246100D01*
X40557400Y-33756300D02*
X39299800Y-32498700D01*
X39299800Y-28246100D02*
X39299800Y-27393900D01*
X39299800Y-28246100D02*
X39209700Y-28246100D01*
X41815000Y-73113900D02*
X45082000Y-73113900D01*
X45082000Y-70322900D02*
X47586900Y-67818000D01*
X45082000Y-73113900D02*
X45082000Y-70322900D01*
X44604400Y-78239700D02*
X47406100Y-75438000D01*
X43195200Y-78239700D02*
X44604400Y-78239700D01*
X42378400Y-79056500D02*
X43195200Y-78239700D01*
X40778500Y-79056500D02*
X42378400Y-79056500D01*
X47479700Y-83058000D02*
X47586900Y-83058000D01*
X45082000Y-80660300D02*
X47479700Y-83058000D01*
X45082000Y-78717300D02*
X45082000Y-80660300D01*
X44604400Y-78239700D02*
X45082000Y-78717300D01*
X45082000Y-73113900D02*
X47406100Y-75438000D01*
X47406100Y-75438000D02*
X47586900Y-75438000D01*
X46574400Y-27178000D02*
X42456300Y-31296100D01*
X47586900Y-27178000D02*
X46574400Y-27178000D01*
X40564900Y-56479200D02*
X39003300Y-56479200D01*
X47006100Y-50038000D02*
X40564900Y-56479200D01*
X47586900Y-50038000D02*
X47006100Y-50038000D01*
X44329400Y-59953300D02*
X41801700Y-62481000D01*
X44329400Y-56032000D02*
X44329400Y-59953300D01*
X31342200Y-71171200D02*
X29676400Y-69505400D01*
X42311400Y-71171200D02*
X31342200Y-71171200D01*
X44534800Y-68947800D02*
X42311400Y-71171200D01*
X44534800Y-68283000D02*
X44534800Y-68947800D01*
X47539800Y-65278000D02*
X44534800Y-68283000D01*
X47586900Y-65278000D02*
X47539800Y-65278000D01*
X43741200Y-81792700D02*
X43741200Y-79368500D01*
X41401400Y-84132500D02*
X43741200Y-81792700D01*
X29957800Y-84132500D02*
X41401400Y-84132500D01*
X29805400Y-83980100D02*
X29957800Y-84132500D01*
D19*
X32041800Y-62617200D02*
X32041800Y-62738000D01*
X31197100Y-61772500D02*
X32041800Y-62617200D01*
X26285300Y-61772500D02*
X31197100Y-61772500D01*
X26047300Y-62010500D02*
X26285300Y-61772500D01*
X26047300Y-77590800D02*
X26047300Y-62010500D01*
X28586200Y-80129700D02*
X26047300Y-77590800D01*
X34747200Y-62738000D02*
X32041800Y-62738000D01*
X29600900Y-81788000D02*
X38202800Y-81788000D01*
X28586200Y-80773300D02*
X29600900Y-81788000D01*
X28586200Y-80129700D02*
X28586200Y-80773300D01*
X34984500Y-77792600D02*
X28666700Y-71474800D01*
X40557400Y-77792600D02*
X34984500Y-77792600D01*
X28666700Y-62824100D02*
X28752800Y-62738000D01*
X28666700Y-71474800D02*
X28666700Y-62824100D01*
X40557400Y-32072600D02*
X41324800Y-32072600D01*
X28752800Y-55118000D02*
X26047400Y-55118000D01*
X41324800Y-30757400D02*
X41324800Y-32072600D01*
X41646200Y-30436000D02*
X41324800Y-30757400D01*
X41646200Y-26633400D02*
X41646200Y-30436000D01*
X41352000Y-26339200D02*
X41646200Y-26633400D01*
X29805800Y-26339200D02*
X41352000Y-26339200D01*
X29101700Y-27043300D02*
X29805800Y-26339200D01*
X26047400Y-30097600D02*
X26047400Y-55118000D01*
X29101700Y-27043300D02*
X26047400Y-30097600D01*
X40557400Y-39692600D02*
X39790000Y-39692600D01*
X34747200Y-55118000D02*
X32041800Y-55118000D01*
X32041800Y-47359900D02*
X32041800Y-55118000D01*
X31086500Y-46404600D02*
X32041800Y-47359900D01*
X30558500Y-46404600D02*
X31086500Y-46404600D01*
X29989300Y-45835400D02*
X30558500Y-46404600D01*
X29989300Y-41684100D02*
X29989300Y-45835400D01*
X32852100Y-38821300D02*
X29989300Y-41684100D01*
X33723300Y-39692600D02*
X32852100Y-38821300D01*
X39790000Y-39692600D02*
X33723300Y-39692600D01*
X32852100Y-38821300D02*
X29569600Y-35538900D01*
X28752800Y-57658000D02*
X31458200Y-57658000D01*
X39287400Y-46873900D02*
X37473200Y-46873900D01*
X39726100Y-47312600D02*
X39287400Y-46873900D01*
X40557400Y-47312600D02*
X39726100Y-47312600D01*
X37473200Y-46816700D02*
X37473200Y-46873900D01*
X32674900Y-42018400D02*
X37473200Y-46816700D01*
X30953200Y-42018400D02*
X32674900Y-42018400D01*
X31458200Y-57537200D02*
X31458200Y-57658000D01*
X32302900Y-56692500D02*
X31458200Y-57537200D01*
X36579900Y-56692500D02*
X32302900Y-56692500D01*
X37473200Y-55799200D02*
X36579900Y-56692500D01*
X37473200Y-46873900D02*
X37473200Y-55799200D01*
X34747200Y-57658000D02*
X37452600Y-57658000D01*
X40557400Y-54932600D02*
X39790000Y-54932600D01*
X38317100Y-48372500D02*
X38913700Y-47775900D01*
X38317100Y-54045600D02*
X38317100Y-48372500D01*
X39204100Y-54932600D02*
X38317100Y-54045600D01*
X39790000Y-54932600D02*
X39204100Y-54932600D01*
X37452600Y-56754200D02*
X37452600Y-57658000D01*
X39204100Y-55002700D02*
X37452600Y-56754200D01*
X39204100Y-54932600D02*
X39204100Y-55002700D01*
X26553200Y-56394400D02*
X28551300Y-56394400D01*
X26047400Y-56900200D02*
X26553200Y-56394400D01*
X26047400Y-60198000D02*
X26047400Y-56900200D01*
X28752800Y-60198000D02*
X26047400Y-60198000D01*
X31458200Y-60077200D02*
X31458200Y-60198000D01*
X32302900Y-59232500D02*
X31458200Y-60077200D01*
X37193800Y-59232500D02*
X32302900Y-59232500D01*
X39790000Y-61828700D02*
X37193800Y-59232500D01*
X39790000Y-62552600D02*
X39790000Y-61828700D01*
X40557400Y-62552600D02*
X39790000Y-62552600D01*
X28752800Y-60198000D02*
X31458200Y-60198000D01*
X40557400Y-70172600D02*
X39790000Y-70172600D01*
X37452700Y-67835300D02*
X37452700Y-64339600D01*
X39790000Y-70172600D02*
X37452700Y-67835300D01*
X35613200Y-60198000D02*
X34747200Y-60198000D01*
X37452700Y-62037500D02*
X35613200Y-60198000D01*
X37452700Y-64339600D02*
X37452700Y-62037500D01*
X37452700Y-64339600D02*
X30956100Y-64339600D01*
X40557400Y-29502100D02*
X40557400Y-31173400D01*
X40557400Y-37122100D02*
X40557400Y-38793400D01*
X40557400Y-46413400D02*
X40557400Y-44742100D01*
X40557400Y-52362100D02*
X40557400Y-54033400D01*
X40557400Y-59982100D02*
X40557400Y-61653400D01*
X40557400Y-67602100D02*
X40557400Y-69273400D01*
X40557400Y-75222100D02*
X40557400Y-76893400D01*
X39216300Y-82555400D02*
X39102000Y-82555400D01*
X39503000Y-82842100D02*
X39216300Y-82555400D01*
X40557400Y-82842100D02*
X39503000Y-82842100D01*
X39102000Y-81788000D02*
X39102000Y-82555400D01*
D20*
G36*
X36914400Y-54247433D02*
X32600600Y-54247433D01*
X32600600Y-53695600D01*
X32620557Y-53695600D01*
X34442400Y-53695600D01*
X34594800Y-53543200D01*
X34594800Y-52730400D01*
X34574800Y-52730400D01*
X34574800Y-52425600D01*
X34594800Y-52425600D01*
X34594800Y-51612800D01*
X34442400Y-51460400D01*
X32620557Y-51460400D01*
X32600600Y-51460400D01*
X32600600Y-51155600D01*
X32620557Y-51155600D01*
X34442400Y-51155600D01*
X34594800Y-51003200D01*
X34594800Y-50190400D01*
X34574800Y-50190400D01*
X34574800Y-49885600D01*
X34594800Y-49885600D01*
X34594800Y-49072800D01*
X34442400Y-48920400D01*
X32620557Y-48920400D01*
X32600600Y-48920400D01*
X32600600Y-48615600D01*
X32620557Y-48615600D01*
X34442400Y-48615600D01*
X34594800Y-48463200D01*
X34594800Y-47650400D01*
X34574800Y-47650400D01*
X34574800Y-47345600D01*
X34594800Y-47345600D01*
X34594800Y-46532800D01*
X34442400Y-46380400D01*
X32620557Y-46380400D01*
X32378043Y-46380400D01*
X32153989Y-46473206D01*
X32049678Y-46577516D01*
X31481631Y-46009469D01*
X31300344Y-45888336D01*
X31086500Y-45845800D01*
X30789962Y-45845800D01*
X30548100Y-45603937D01*
X30548100Y-42716523D01*
X30793352Y-42818361D01*
X31111652Y-42818639D01*
X31405828Y-42697087D01*
X31525924Y-42577200D01*
X32443438Y-42577200D01*
X36246638Y-46380400D01*
X35052000Y-46380400D01*
X34899600Y-46532800D01*
X34899600Y-47345600D01*
X34919600Y-47345600D01*
X34919600Y-47650400D01*
X34899600Y-47650400D01*
X34899600Y-48463200D01*
X35052000Y-48615600D01*
X36873843Y-48615600D01*
X36914400Y-48615600D01*
X36914400Y-48920400D01*
X36873843Y-48920400D01*
X35052000Y-48920400D01*
X34899600Y-49072800D01*
X34899600Y-49885600D01*
X34919600Y-49885600D01*
X34919600Y-50190400D01*
X34899600Y-50190400D01*
X34899600Y-51003200D01*
X35052000Y-51155600D01*
X36873843Y-51155600D01*
X36914400Y-51155600D01*
X36914400Y-51460400D01*
X36873843Y-51460400D01*
X35052000Y-51460400D01*
X34899600Y-51612800D01*
X34899600Y-52425600D01*
X34919600Y-52425600D01*
X34919600Y-52730400D01*
X34899600Y-52730400D01*
X34899600Y-53543200D01*
X35052000Y-53695600D01*
X36873843Y-53695600D01*
X36914400Y-53695600D01*
X36914400Y-54247433D01*
X36914400Y-54247433D01*
G37*
X36914400Y-54247433D02*
X32600600Y-54247433D01*
X32600600Y-53695600D01*
X32620557Y-53695600D01*
X34442400Y-53695600D01*
X34594800Y-53543200D01*
X34594800Y-52730400D01*
X34574800Y-52730400D01*
X34574800Y-52425600D01*
X34594800Y-52425600D01*
X34594800Y-51612800D01*
X34442400Y-51460400D01*
X32620557Y-51460400D01*
X32600600Y-51460400D01*
X32600600Y-51155600D01*
X32620557Y-51155600D01*
X34442400Y-51155600D01*
X34594800Y-51003200D01*
X34594800Y-50190400D01*
X34574800Y-50190400D01*
X34574800Y-49885600D01*
X34594800Y-49885600D01*
X34594800Y-49072800D01*
X34442400Y-48920400D01*
X32620557Y-48920400D01*
X32600600Y-48920400D01*
X32600600Y-48615600D01*
X32620557Y-48615600D01*
X34442400Y-48615600D01*
X34594800Y-48463200D01*
X34594800Y-47650400D01*
X34574800Y-47650400D01*
X34574800Y-47345600D01*
X34594800Y-47345600D01*
X34594800Y-46532800D01*
X34442400Y-46380400D01*
X32620557Y-46380400D01*
X32378043Y-46380400D01*
X32153989Y-46473206D01*
X32049678Y-46577516D01*
X31481631Y-46009469D01*
X31300344Y-45888336D01*
X31086500Y-45845800D01*
X30789962Y-45845800D01*
X30548100Y-45603937D01*
X30548100Y-42716523D01*
X30793352Y-42818361D01*
X31111652Y-42818639D01*
X31405828Y-42697087D01*
X31525924Y-42577200D01*
X32443438Y-42577200D01*
X36246638Y-46380400D01*
X35052000Y-46380400D01*
X34899600Y-46532800D01*
X34899600Y-47345600D01*
X34919600Y-47345600D01*
X34919600Y-47650400D01*
X34899600Y-47650400D01*
X34899600Y-48463200D01*
X35052000Y-48615600D01*
X36873843Y-48615600D01*
X36914400Y-48615600D01*
X36914400Y-48920400D01*
X36873843Y-48920400D01*
X35052000Y-48920400D01*
X34899600Y-49072800D01*
X34899600Y-49885600D01*
X34919600Y-49885600D01*
X34919600Y-50190400D01*
X34899600Y-50190400D01*
X34899600Y-51003200D01*
X35052000Y-51155600D01*
X36873843Y-51155600D01*
X36914400Y-51155600D01*
X36914400Y-51460400D01*
X36873843Y-51460400D01*
X35052000Y-51460400D01*
X34899600Y-51612800D01*
X34899600Y-52425600D01*
X34919600Y-52425600D01*
X34919600Y-52730400D01*
X34899600Y-52730400D01*
X34899600Y-53543200D01*
X35052000Y-53695600D01*
X36873843Y-53695600D01*
X36914400Y-53695600D01*
X36914400Y-54247433D01*
G36*
X48945800Y-49469002D02*
X48836547Y-49204589D01*
X48648284Y-49015997D01*
X48648284Y-46234910D01*
X47586900Y-45173526D01*
X47371374Y-45389052D01*
X47371374Y-44958000D01*
X46309990Y-43896616D01*
X46035901Y-44019509D01*
X45794818Y-44684490D01*
X45826565Y-45391110D01*
X46035901Y-45896491D01*
X46309990Y-46019384D01*
X47371374Y-44958000D01*
X47371374Y-45389052D01*
X46525516Y-46234910D01*
X46648409Y-46508999D01*
X47313390Y-46750082D01*
X48020010Y-46718335D01*
X48525391Y-46508999D01*
X48648284Y-46234910D01*
X48648284Y-49015997D01*
X48422491Y-48789810D01*
X47881223Y-48565056D01*
X47295148Y-48564545D01*
X46753489Y-48788353D01*
X46338710Y-49202409D01*
X46113956Y-49743677D01*
X46113861Y-49852608D01*
X41178051Y-54788418D01*
X41178051Y-54622700D01*
X41155502Y-54506481D01*
X41140338Y-54483397D01*
X41154021Y-54463127D01*
X41178051Y-54343300D01*
X41178051Y-53723540D01*
X41155502Y-53607321D01*
X41116200Y-53547490D01*
X41116200Y-53269771D01*
X41154300Y-53269771D01*
X41270519Y-53247222D01*
X41372665Y-53180123D01*
X41441041Y-53078827D01*
X41465071Y-52959000D01*
X41465071Y-51765200D01*
X41442522Y-51648981D01*
X41375423Y-51546835D01*
X41274127Y-51478459D01*
X41184074Y-51460400D01*
X41275557Y-51460400D01*
X41499611Y-51367594D01*
X41671094Y-51196111D01*
X41763900Y-50972057D01*
X41763900Y-50558700D01*
X41763900Y-49949100D01*
X41763900Y-49535743D01*
X41671094Y-49311689D01*
X41499611Y-49140206D01*
X41275557Y-49047400D01*
X41033043Y-49047400D01*
X40862200Y-49047400D01*
X40709800Y-49199800D01*
X40709800Y-50101500D01*
X41611500Y-50101500D01*
X41763900Y-49949100D01*
X41763900Y-50558700D01*
X41611500Y-50406300D01*
X40709800Y-50406300D01*
X40709800Y-50426300D01*
X40405000Y-50426300D01*
X40405000Y-50406300D01*
X40405000Y-50101500D01*
X40405000Y-49199800D01*
X40252600Y-49047400D01*
X40081757Y-49047400D01*
X39839243Y-49047400D01*
X39615189Y-49140206D01*
X39443706Y-49311689D01*
X39350900Y-49535743D01*
X39350900Y-49949100D01*
X39503300Y-50101500D01*
X40405000Y-50101500D01*
X40405000Y-50406300D01*
X39503300Y-50406300D01*
X39350900Y-50558700D01*
X39350900Y-50972057D01*
X39443706Y-51196111D01*
X39615189Y-51367594D01*
X39839243Y-51460400D01*
X39929725Y-51460400D01*
X39844281Y-51476978D01*
X39742135Y-51544077D01*
X39673759Y-51645373D01*
X39649729Y-51765200D01*
X39649729Y-52959000D01*
X39672278Y-53075219D01*
X39739377Y-53177365D01*
X39840673Y-53245741D01*
X39960500Y-53269771D01*
X39998600Y-53269771D01*
X39998600Y-53547682D01*
X39960779Y-53603713D01*
X39936749Y-53723540D01*
X39936749Y-54343300D01*
X39942666Y-54373800D01*
X39790000Y-54373800D01*
X39435562Y-54373800D01*
X38875900Y-53814137D01*
X38875900Y-48603962D01*
X38903869Y-48575992D01*
X39072152Y-48576139D01*
X39366328Y-48454587D01*
X39591596Y-48229712D01*
X39713661Y-47935748D01*
X39713719Y-47868937D01*
X39726100Y-47871400D01*
X40071692Y-47871400D01*
X40127693Y-47909201D01*
X40247520Y-47933231D01*
X40867280Y-47933231D01*
X40983499Y-47910682D01*
X41085645Y-47843583D01*
X41154021Y-47742287D01*
X41178051Y-47622460D01*
X41178051Y-47002700D01*
X41155502Y-46886481D01*
X41140338Y-46863397D01*
X41154021Y-46843127D01*
X41178051Y-46723300D01*
X41178051Y-46103540D01*
X41155502Y-45987321D01*
X41116200Y-45927490D01*
X41116200Y-45649771D01*
X41154300Y-45649771D01*
X41270519Y-45627222D01*
X41372665Y-45560123D01*
X41441041Y-45458827D01*
X41465071Y-45339000D01*
X41465071Y-44145200D01*
X41442522Y-44028981D01*
X41375423Y-43926835D01*
X41274127Y-43858459D01*
X41184074Y-43840400D01*
X41275557Y-43840400D01*
X41499611Y-43747594D01*
X41671094Y-43576111D01*
X41763900Y-43352057D01*
X41763900Y-42938700D01*
X41763900Y-42329100D01*
X41763900Y-41915743D01*
X41671094Y-41691689D01*
X41499611Y-41520206D01*
X41275557Y-41427400D01*
X41033043Y-41427400D01*
X40862200Y-41427400D01*
X40709800Y-41579800D01*
X40709800Y-42481500D01*
X41611500Y-42481500D01*
X41763900Y-42329100D01*
X41763900Y-42938700D01*
X41611500Y-42786300D01*
X40709800Y-42786300D01*
X40709800Y-42806300D01*
X40405000Y-42806300D01*
X40405000Y-42786300D01*
X40405000Y-42481500D01*
X40405000Y-41579800D01*
X40252600Y-41427400D01*
X40081757Y-41427400D01*
X39839243Y-41427400D01*
X39615189Y-41520206D01*
X39443706Y-41691689D01*
X39350900Y-41915743D01*
X39350900Y-42329100D01*
X39503300Y-42481500D01*
X40405000Y-42481500D01*
X40405000Y-42786300D01*
X39503300Y-42786300D01*
X39350900Y-42938700D01*
X39350900Y-43352057D01*
X39443706Y-43576111D01*
X39615189Y-43747594D01*
X39839243Y-43840400D01*
X39929725Y-43840400D01*
X39844281Y-43856978D01*
X39742135Y-43924077D01*
X39673759Y-44025373D01*
X39649729Y-44145200D01*
X39649729Y-45339000D01*
X39672278Y-45455219D01*
X39739377Y-45557365D01*
X39840673Y-45625741D01*
X39960500Y-45649771D01*
X39998600Y-45649771D01*
X39998600Y-45927682D01*
X39960779Y-45983713D01*
X39936749Y-46103540D01*
X39936749Y-46723300D01*
X39939080Y-46735318D01*
X39682531Y-46478769D01*
X39501244Y-46357636D01*
X39287400Y-46315100D01*
X37761862Y-46315100D01*
X33070031Y-41623269D01*
X32888744Y-41502136D01*
X32674900Y-41459600D01*
X31525900Y-41459600D01*
X31407012Y-41340504D01*
X31206442Y-41257219D01*
X32852077Y-39611585D01*
X33328146Y-40087709D01*
X33328160Y-40087719D01*
X33328169Y-40087731D01*
X33413962Y-40145056D01*
X33509427Y-40208852D01*
X33509442Y-40208855D01*
X33509456Y-40208864D01*
X33615213Y-40229900D01*
X33723268Y-40251400D01*
X33723284Y-40251396D01*
X33723300Y-40251400D01*
X39790000Y-40251400D01*
X40071692Y-40251400D01*
X40127693Y-40289201D01*
X40247520Y-40313231D01*
X40867280Y-40313231D01*
X40983499Y-40290682D01*
X41085645Y-40223583D01*
X41154021Y-40122287D01*
X41178051Y-40002460D01*
X41178051Y-39382700D01*
X41155502Y-39266481D01*
X41140338Y-39243397D01*
X41154021Y-39223127D01*
X41178051Y-39103300D01*
X41178051Y-38483540D01*
X41155502Y-38367321D01*
X41116200Y-38307490D01*
X41116200Y-38029771D01*
X41154300Y-38029771D01*
X41270519Y-38007222D01*
X41372665Y-37940123D01*
X41441041Y-37838827D01*
X41465071Y-37719000D01*
X41465071Y-36525200D01*
X41442522Y-36408981D01*
X41375423Y-36306835D01*
X41274127Y-36238459D01*
X41184074Y-36220400D01*
X41275557Y-36220400D01*
X41499611Y-36127594D01*
X41671094Y-35956111D01*
X41763900Y-35732057D01*
X41763900Y-35318700D01*
X41763900Y-34709100D01*
X41763900Y-34295743D01*
X41671094Y-34071689D01*
X41499611Y-33900206D01*
X41275557Y-33807400D01*
X41033043Y-33807400D01*
X40862200Y-33807400D01*
X40709800Y-33959800D01*
X40709800Y-34861500D01*
X41611500Y-34861500D01*
X41763900Y-34709100D01*
X41763900Y-35318700D01*
X41611500Y-35166300D01*
X40709800Y-35166300D01*
X40709800Y-35186300D01*
X40405000Y-35186300D01*
X40405000Y-35166300D01*
X40385000Y-35166300D01*
X40385000Y-34861500D01*
X40405000Y-34861500D01*
X40405000Y-33959800D01*
X40252600Y-33807400D01*
X40081757Y-33807400D01*
X39839243Y-33807400D01*
X39707122Y-33862126D01*
X39643112Y-33798004D01*
X39550634Y-33759604D01*
X36836700Y-31045669D01*
X36836700Y-29618030D01*
X38179041Y-28275688D01*
X38270528Y-28237887D01*
X38495796Y-28013012D01*
X38617861Y-27719048D01*
X38618139Y-27400748D01*
X38496587Y-27106572D01*
X38288378Y-26898000D01*
X39350900Y-26898000D01*
X39350900Y-27089100D01*
X39503300Y-27241500D01*
X40405000Y-27241500D01*
X40405000Y-27221500D01*
X40709800Y-27221500D01*
X40709800Y-27241500D01*
X40729800Y-27241500D01*
X40729800Y-27546300D01*
X40709800Y-27546300D01*
X40709800Y-27566300D01*
X40405000Y-27566300D01*
X40405000Y-27546300D01*
X39503300Y-27546300D01*
X39350900Y-27698700D01*
X39350900Y-28112057D01*
X39443706Y-28336111D01*
X39615189Y-28507594D01*
X39839243Y-28600400D01*
X39929725Y-28600400D01*
X39844281Y-28616978D01*
X39742135Y-28684077D01*
X39673759Y-28785373D01*
X39649729Y-28905200D01*
X39649729Y-30099000D01*
X39672278Y-30215219D01*
X39739377Y-30317365D01*
X39840673Y-30385741D01*
X39960500Y-30409771D01*
X39998600Y-30409771D01*
X39998600Y-30687682D01*
X39960779Y-30743713D01*
X39936749Y-30863540D01*
X39936749Y-31483300D01*
X39959298Y-31599519D01*
X39974461Y-31622602D01*
X39960779Y-31642873D01*
X39936749Y-31762700D01*
X39936749Y-32382460D01*
X39959298Y-32498679D01*
X40026397Y-32600825D01*
X40127693Y-32669201D01*
X40247520Y-32693231D01*
X40867280Y-32693231D01*
X40983499Y-32670682D01*
X41043298Y-32631400D01*
X41324800Y-32631400D01*
X41538644Y-32588864D01*
X41719931Y-32467731D01*
X41841064Y-32286444D01*
X41883600Y-32072600D01*
X41883600Y-31854900D01*
X42002488Y-31973996D01*
X42296452Y-32096061D01*
X42614752Y-32096339D01*
X42908928Y-31974787D01*
X43134196Y-31749912D01*
X43172596Y-31657433D01*
X46027586Y-28802443D01*
X45794818Y-29444490D01*
X45826565Y-30151110D01*
X46035901Y-30656491D01*
X46309990Y-30779384D01*
X47371374Y-29718000D01*
X47357231Y-29703857D01*
X47572757Y-29488331D01*
X47586900Y-29502474D01*
X48648284Y-28441090D01*
X48573632Y-28274593D01*
X48835090Y-28013591D01*
X48945800Y-27746971D01*
X48945800Y-28693377D01*
X48863810Y-28656616D01*
X47802426Y-29718000D01*
X48863810Y-30779384D01*
X48945800Y-30742622D01*
X48945800Y-34229002D01*
X48836547Y-33964589D01*
X48648284Y-33775997D01*
X48648284Y-30994910D01*
X47586900Y-29933526D01*
X46525516Y-30994910D01*
X46648409Y-31268999D01*
X47313390Y-31510082D01*
X48020010Y-31478335D01*
X48525391Y-31268999D01*
X48648284Y-30994910D01*
X48648284Y-33775997D01*
X48422491Y-33549810D01*
X47881223Y-33325056D01*
X47295148Y-33324545D01*
X46753489Y-33548353D01*
X46338710Y-33962409D01*
X46113956Y-34503677D01*
X46113445Y-35089752D01*
X46337253Y-35631411D01*
X46600108Y-35894725D01*
X46525516Y-36061090D01*
X47586900Y-37122474D01*
X48648284Y-36061090D01*
X48573632Y-35894593D01*
X48835090Y-35633591D01*
X48945800Y-35366971D01*
X48945800Y-36313377D01*
X48863810Y-36276616D01*
X47802426Y-37338000D01*
X48863810Y-38399384D01*
X48945800Y-38362622D01*
X48945800Y-41849002D01*
X48836547Y-41584589D01*
X48648284Y-41395997D01*
X48648284Y-38614910D01*
X47586900Y-37553526D01*
X47371374Y-37769052D01*
X47371374Y-37338000D01*
X46309990Y-36276616D01*
X46035901Y-36399509D01*
X45794818Y-37064490D01*
X45826565Y-37771110D01*
X46035901Y-38276491D01*
X46309990Y-38399384D01*
X47371374Y-37338000D01*
X47371374Y-37769052D01*
X46525516Y-38614910D01*
X46648409Y-38888999D01*
X47313390Y-39130082D01*
X48020010Y-39098335D01*
X48525391Y-38888999D01*
X48648284Y-38614910D01*
X48648284Y-41395997D01*
X48422491Y-41169810D01*
X47881223Y-40945056D01*
X47295148Y-40944545D01*
X46753489Y-41168353D01*
X46338710Y-41582409D01*
X46113956Y-42123677D01*
X46113445Y-42709752D01*
X46337253Y-43251411D01*
X46600108Y-43514725D01*
X46525516Y-43681090D01*
X47586900Y-44742474D01*
X48648284Y-43681090D01*
X48573632Y-43514593D01*
X48835090Y-43253591D01*
X48945800Y-42986971D01*
X48945800Y-43933377D01*
X48863810Y-43896616D01*
X47802426Y-44958000D01*
X48863810Y-46019384D01*
X48945800Y-45982622D01*
X48945800Y-49469002D01*
X48945800Y-49469002D01*
G37*
X48945800Y-49469002D02*
X48836547Y-49204589D01*
X48648284Y-49015997D01*
X48648284Y-46234910D01*
X47586900Y-45173526D01*
X47371374Y-45389052D01*
X47371374Y-44958000D01*
X46309990Y-43896616D01*
X46035901Y-44019509D01*
X45794818Y-44684490D01*
X45826565Y-45391110D01*
X46035901Y-45896491D01*
X46309990Y-46019384D01*
X47371374Y-44958000D01*
X47371374Y-45389052D01*
X46525516Y-46234910D01*
X46648409Y-46508999D01*
X47313390Y-46750082D01*
X48020010Y-46718335D01*
X48525391Y-46508999D01*
X48648284Y-46234910D01*
X48648284Y-49015997D01*
X48422491Y-48789810D01*
X47881223Y-48565056D01*
X47295148Y-48564545D01*
X46753489Y-48788353D01*
X46338710Y-49202409D01*
X46113956Y-49743677D01*
X46113861Y-49852608D01*
X41178051Y-54788418D01*
X41178051Y-54622700D01*
X41155502Y-54506481D01*
X41140338Y-54483397D01*
X41154021Y-54463127D01*
X41178051Y-54343300D01*
X41178051Y-53723540D01*
X41155502Y-53607321D01*
X41116200Y-53547490D01*
X41116200Y-53269771D01*
X41154300Y-53269771D01*
X41270519Y-53247222D01*
X41372665Y-53180123D01*
X41441041Y-53078827D01*
X41465071Y-52959000D01*
X41465071Y-51765200D01*
X41442522Y-51648981D01*
X41375423Y-51546835D01*
X41274127Y-51478459D01*
X41184074Y-51460400D01*
X41275557Y-51460400D01*
X41499611Y-51367594D01*
X41671094Y-51196111D01*
X41763900Y-50972057D01*
X41763900Y-50558700D01*
X41763900Y-49949100D01*
X41763900Y-49535743D01*
X41671094Y-49311689D01*
X41499611Y-49140206D01*
X41275557Y-49047400D01*
X41033043Y-49047400D01*
X40862200Y-49047400D01*
X40709800Y-49199800D01*
X40709800Y-50101500D01*
X41611500Y-50101500D01*
X41763900Y-49949100D01*
X41763900Y-50558700D01*
X41611500Y-50406300D01*
X40709800Y-50406300D01*
X40709800Y-50426300D01*
X40405000Y-50426300D01*
X40405000Y-50406300D01*
X40405000Y-50101500D01*
X40405000Y-49199800D01*
X40252600Y-49047400D01*
X40081757Y-49047400D01*
X39839243Y-49047400D01*
X39615189Y-49140206D01*
X39443706Y-49311689D01*
X39350900Y-49535743D01*
X39350900Y-49949100D01*
X39503300Y-50101500D01*
X40405000Y-50101500D01*
X40405000Y-50406300D01*
X39503300Y-50406300D01*
X39350900Y-50558700D01*
X39350900Y-50972057D01*
X39443706Y-51196111D01*
X39615189Y-51367594D01*
X39839243Y-51460400D01*
X39929725Y-51460400D01*
X39844281Y-51476978D01*
X39742135Y-51544077D01*
X39673759Y-51645373D01*
X39649729Y-51765200D01*
X39649729Y-52959000D01*
X39672278Y-53075219D01*
X39739377Y-53177365D01*
X39840673Y-53245741D01*
X39960500Y-53269771D01*
X39998600Y-53269771D01*
X39998600Y-53547682D01*
X39960779Y-53603713D01*
X39936749Y-53723540D01*
X39936749Y-54343300D01*
X39942666Y-54373800D01*
X39790000Y-54373800D01*
X39435562Y-54373800D01*
X38875900Y-53814137D01*
X38875900Y-48603962D01*
X38903869Y-48575992D01*
X39072152Y-48576139D01*
X39366328Y-48454587D01*
X39591596Y-48229712D01*
X39713661Y-47935748D01*
X39713719Y-47868937D01*
X39726100Y-47871400D01*
X40071692Y-47871400D01*
X40127693Y-47909201D01*
X40247520Y-47933231D01*
X40867280Y-47933231D01*
X40983499Y-47910682D01*
X41085645Y-47843583D01*
X41154021Y-47742287D01*
X41178051Y-47622460D01*
X41178051Y-47002700D01*
X41155502Y-46886481D01*
X41140338Y-46863397D01*
X41154021Y-46843127D01*
X41178051Y-46723300D01*
X41178051Y-46103540D01*
X41155502Y-45987321D01*
X41116200Y-45927490D01*
X41116200Y-45649771D01*
X41154300Y-45649771D01*
X41270519Y-45627222D01*
X41372665Y-45560123D01*
X41441041Y-45458827D01*
X41465071Y-45339000D01*
X41465071Y-44145200D01*
X41442522Y-44028981D01*
X41375423Y-43926835D01*
X41274127Y-43858459D01*
X41184074Y-43840400D01*
X41275557Y-43840400D01*
X41499611Y-43747594D01*
X41671094Y-43576111D01*
X41763900Y-43352057D01*
X41763900Y-42938700D01*
X41763900Y-42329100D01*
X41763900Y-41915743D01*
X41671094Y-41691689D01*
X41499611Y-41520206D01*
X41275557Y-41427400D01*
X41033043Y-41427400D01*
X40862200Y-41427400D01*
X40709800Y-41579800D01*
X40709800Y-42481500D01*
X41611500Y-42481500D01*
X41763900Y-42329100D01*
X41763900Y-42938700D01*
X41611500Y-42786300D01*
X40709800Y-42786300D01*
X40709800Y-42806300D01*
X40405000Y-42806300D01*
X40405000Y-42786300D01*
X40405000Y-42481500D01*
X40405000Y-41579800D01*
X40252600Y-41427400D01*
X40081757Y-41427400D01*
X39839243Y-41427400D01*
X39615189Y-41520206D01*
X39443706Y-41691689D01*
X39350900Y-41915743D01*
X39350900Y-42329100D01*
X39503300Y-42481500D01*
X40405000Y-42481500D01*
X40405000Y-42786300D01*
X39503300Y-42786300D01*
X39350900Y-42938700D01*
X39350900Y-43352057D01*
X39443706Y-43576111D01*
X39615189Y-43747594D01*
X39839243Y-43840400D01*
X39929725Y-43840400D01*
X39844281Y-43856978D01*
X39742135Y-43924077D01*
X39673759Y-44025373D01*
X39649729Y-44145200D01*
X39649729Y-45339000D01*
X39672278Y-45455219D01*
X39739377Y-45557365D01*
X39840673Y-45625741D01*
X39960500Y-45649771D01*
X39998600Y-45649771D01*
X39998600Y-45927682D01*
X39960779Y-45983713D01*
X39936749Y-46103540D01*
X39936749Y-46723300D01*
X39939080Y-46735318D01*
X39682531Y-46478769D01*
X39501244Y-46357636D01*
X39287400Y-46315100D01*
X37761862Y-46315100D01*
X33070031Y-41623269D01*
X32888744Y-41502136D01*
X32674900Y-41459600D01*
X31525900Y-41459600D01*
X31407012Y-41340504D01*
X31206442Y-41257219D01*
X32852077Y-39611585D01*
X33328146Y-40087709D01*
X33328160Y-40087719D01*
X33328169Y-40087731D01*
X33413962Y-40145056D01*
X33509427Y-40208852D01*
X33509442Y-40208855D01*
X33509456Y-40208864D01*
X33615213Y-40229900D01*
X33723268Y-40251400D01*
X33723284Y-40251396D01*
X33723300Y-40251400D01*
X39790000Y-40251400D01*
X40071692Y-40251400D01*
X40127693Y-40289201D01*
X40247520Y-40313231D01*
X40867280Y-40313231D01*
X40983499Y-40290682D01*
X41085645Y-40223583D01*
X41154021Y-40122287D01*
X41178051Y-40002460D01*
X41178051Y-39382700D01*
X41155502Y-39266481D01*
X41140338Y-39243397D01*
X41154021Y-39223127D01*
X41178051Y-39103300D01*
X41178051Y-38483540D01*
X41155502Y-38367321D01*
X41116200Y-38307490D01*
X41116200Y-38029771D01*
X41154300Y-38029771D01*
X41270519Y-38007222D01*
X41372665Y-37940123D01*
X41441041Y-37838827D01*
X41465071Y-37719000D01*
X41465071Y-36525200D01*
X41442522Y-36408981D01*
X41375423Y-36306835D01*
X41274127Y-36238459D01*
X41184074Y-36220400D01*
X41275557Y-36220400D01*
X41499611Y-36127594D01*
X41671094Y-35956111D01*
X41763900Y-35732057D01*
X41763900Y-35318700D01*
X41763900Y-34709100D01*
X41763900Y-34295743D01*
X41671094Y-34071689D01*
X41499611Y-33900206D01*
X41275557Y-33807400D01*
X41033043Y-33807400D01*
X40862200Y-33807400D01*
X40709800Y-33959800D01*
X40709800Y-34861500D01*
X41611500Y-34861500D01*
X41763900Y-34709100D01*
X41763900Y-35318700D01*
X41611500Y-35166300D01*
X40709800Y-35166300D01*
X40709800Y-35186300D01*
X40405000Y-35186300D01*
X40405000Y-35166300D01*
X40385000Y-35166300D01*
X40385000Y-34861500D01*
X40405000Y-34861500D01*
X40405000Y-33959800D01*
X40252600Y-33807400D01*
X40081757Y-33807400D01*
X39839243Y-33807400D01*
X39707122Y-33862126D01*
X39643112Y-33798004D01*
X39550634Y-33759604D01*
X36836700Y-31045669D01*
X36836700Y-29618030D01*
X38179041Y-28275688D01*
X38270528Y-28237887D01*
X38495796Y-28013012D01*
X38617861Y-27719048D01*
X38618139Y-27400748D01*
X38496587Y-27106572D01*
X38288378Y-26898000D01*
X39350900Y-26898000D01*
X39350900Y-27089100D01*
X39503300Y-27241500D01*
X40405000Y-27241500D01*
X40405000Y-27221500D01*
X40709800Y-27221500D01*
X40709800Y-27241500D01*
X40729800Y-27241500D01*
X40729800Y-27546300D01*
X40709800Y-27546300D01*
X40709800Y-27566300D01*
X40405000Y-27566300D01*
X40405000Y-27546300D01*
X39503300Y-27546300D01*
X39350900Y-27698700D01*
X39350900Y-28112057D01*
X39443706Y-28336111D01*
X39615189Y-28507594D01*
X39839243Y-28600400D01*
X39929725Y-28600400D01*
X39844281Y-28616978D01*
X39742135Y-28684077D01*
X39673759Y-28785373D01*
X39649729Y-28905200D01*
X39649729Y-30099000D01*
X39672278Y-30215219D01*
X39739377Y-30317365D01*
X39840673Y-30385741D01*
X39960500Y-30409771D01*
X39998600Y-30409771D01*
X39998600Y-30687682D01*
X39960779Y-30743713D01*
X39936749Y-30863540D01*
X39936749Y-31483300D01*
X39959298Y-31599519D01*
X39974461Y-31622602D01*
X39960779Y-31642873D01*
X39936749Y-31762700D01*
X39936749Y-32382460D01*
X39959298Y-32498679D01*
X40026397Y-32600825D01*
X40127693Y-32669201D01*
X40247520Y-32693231D01*
X40867280Y-32693231D01*
X40983499Y-32670682D01*
X41043298Y-32631400D01*
X41324800Y-32631400D01*
X41538644Y-32588864D01*
X41719931Y-32467731D01*
X41841064Y-32286444D01*
X41883600Y-32072600D01*
X41883600Y-31854900D01*
X42002488Y-31973996D01*
X42296452Y-32096061D01*
X42614752Y-32096339D01*
X42908928Y-31974787D01*
X43134196Y-31749912D01*
X43172596Y-31657433D01*
X46027586Y-28802443D01*
X45794818Y-29444490D01*
X45826565Y-30151110D01*
X46035901Y-30656491D01*
X46309990Y-30779384D01*
X47371374Y-29718000D01*
X47357231Y-29703857D01*
X47572757Y-29488331D01*
X47586900Y-29502474D01*
X48648284Y-28441090D01*
X48573632Y-28274593D01*
X48835090Y-28013591D01*
X48945800Y-27746971D01*
X48945800Y-28693377D01*
X48863810Y-28656616D01*
X47802426Y-29718000D01*
X48863810Y-30779384D01*
X48945800Y-30742622D01*
X48945800Y-34229002D01*
X48836547Y-33964589D01*
X48648284Y-33775997D01*
X48648284Y-30994910D01*
X47586900Y-29933526D01*
X46525516Y-30994910D01*
X46648409Y-31268999D01*
X47313390Y-31510082D01*
X48020010Y-31478335D01*
X48525391Y-31268999D01*
X48648284Y-30994910D01*
X48648284Y-33775997D01*
X48422491Y-33549810D01*
X47881223Y-33325056D01*
X47295148Y-33324545D01*
X46753489Y-33548353D01*
X46338710Y-33962409D01*
X46113956Y-34503677D01*
X46113445Y-35089752D01*
X46337253Y-35631411D01*
X46600108Y-35894725D01*
X46525516Y-36061090D01*
X47586900Y-37122474D01*
X48648284Y-36061090D01*
X48573632Y-35894593D01*
X48835090Y-35633591D01*
X48945800Y-35366971D01*
X48945800Y-36313377D01*
X48863810Y-36276616D01*
X47802426Y-37338000D01*
X48863810Y-38399384D01*
X48945800Y-38362622D01*
X48945800Y-41849002D01*
X48836547Y-41584589D01*
X48648284Y-41395997D01*
X48648284Y-38614910D01*
X47586900Y-37553526D01*
X47371374Y-37769052D01*
X47371374Y-37338000D01*
X46309990Y-36276616D01*
X46035901Y-36399509D01*
X45794818Y-37064490D01*
X45826565Y-37771110D01*
X46035901Y-38276491D01*
X46309990Y-38399384D01*
X47371374Y-37338000D01*
X47371374Y-37769052D01*
X46525516Y-38614910D01*
X46648409Y-38888999D01*
X47313390Y-39130082D01*
X48020010Y-39098335D01*
X48525391Y-38888999D01*
X48648284Y-38614910D01*
X48648284Y-41395997D01*
X48422491Y-41169810D01*
X47881223Y-40945056D01*
X47295148Y-40944545D01*
X46753489Y-41168353D01*
X46338710Y-41582409D01*
X46113956Y-42123677D01*
X46113445Y-42709752D01*
X46337253Y-43251411D01*
X46600108Y-43514725D01*
X46525516Y-43681090D01*
X47586900Y-44742474D01*
X48648284Y-43681090D01*
X48573632Y-43514593D01*
X48835090Y-43253591D01*
X48945800Y-42986971D01*
X48945800Y-43933377D01*
X48863810Y-43896616D01*
X47802426Y-44958000D01*
X48863810Y-46019384D01*
X48945800Y-45982622D01*
X48945800Y-49469002D01*
G36*
X48945800Y-64709002D02*
X48836547Y-64444589D01*
X48648284Y-64255997D01*
X48648284Y-61474910D01*
X47586900Y-60413526D01*
X47371374Y-60629052D01*
X47371374Y-60198000D01*
X46309990Y-59136616D01*
X46035901Y-59259509D01*
X45794818Y-59924490D01*
X45826565Y-60631110D01*
X46035901Y-61136491D01*
X46309990Y-61259384D01*
X47371374Y-60198000D01*
X47371374Y-60629052D01*
X46525516Y-61474910D01*
X46648409Y-61748999D01*
X47313390Y-61990082D01*
X48020010Y-61958335D01*
X48525391Y-61748999D01*
X48648284Y-61474910D01*
X48648284Y-64255997D01*
X48422491Y-64029810D01*
X47881223Y-63805056D01*
X47295148Y-63804545D01*
X46753489Y-64028353D01*
X46338710Y-64442409D01*
X46113956Y-64983677D01*
X46113445Y-65569752D01*
X46130102Y-65610066D01*
X43995985Y-67744185D01*
X43830804Y-67991395D01*
X43772800Y-68283000D01*
X43772800Y-68632169D01*
X41995769Y-70409200D01*
X41178051Y-70409200D01*
X41178051Y-69862700D01*
X41155502Y-69746481D01*
X41140338Y-69723397D01*
X41154021Y-69703127D01*
X41178051Y-69583300D01*
X41178051Y-68963540D01*
X41155502Y-68847321D01*
X41116200Y-68787490D01*
X41116200Y-68509771D01*
X41154300Y-68509771D01*
X41270519Y-68487222D01*
X41372665Y-68420123D01*
X41441041Y-68318827D01*
X41465071Y-68199000D01*
X41465071Y-67005200D01*
X41442522Y-66888981D01*
X41375423Y-66786835D01*
X41274127Y-66718459D01*
X41184074Y-66700400D01*
X41275557Y-66700400D01*
X41499611Y-66607594D01*
X41671094Y-66436111D01*
X41763900Y-66212057D01*
X41763900Y-65798700D01*
X41763900Y-65189100D01*
X41763900Y-64775743D01*
X41671094Y-64551689D01*
X41499611Y-64380206D01*
X41275557Y-64287400D01*
X41033043Y-64287400D01*
X40862200Y-64287400D01*
X40709800Y-64439800D01*
X40709800Y-65341500D01*
X41611500Y-65341500D01*
X41763900Y-65189100D01*
X41763900Y-65798700D01*
X41611500Y-65646300D01*
X40709800Y-65646300D01*
X40709800Y-65666300D01*
X40405000Y-65666300D01*
X40405000Y-65646300D01*
X40405000Y-65341500D01*
X40405000Y-64439800D01*
X40252600Y-64287400D01*
X40081757Y-64287400D01*
X39839243Y-64287400D01*
X39615189Y-64380206D01*
X39443706Y-64551689D01*
X39350900Y-64775743D01*
X39350900Y-65189100D01*
X39503300Y-65341500D01*
X40405000Y-65341500D01*
X40405000Y-65646300D01*
X39503300Y-65646300D01*
X39350900Y-65798700D01*
X39350900Y-66212057D01*
X39443706Y-66436111D01*
X39615189Y-66607594D01*
X39839243Y-66700400D01*
X39929725Y-66700400D01*
X39844281Y-66716978D01*
X39742135Y-66784077D01*
X39673759Y-66885373D01*
X39649729Y-67005200D01*
X39649729Y-68199000D01*
X39672278Y-68315219D01*
X39739377Y-68417365D01*
X39840673Y-68485741D01*
X39960500Y-68509771D01*
X39998600Y-68509771D01*
X39998600Y-68787682D01*
X39960779Y-68843713D01*
X39936749Y-68963540D01*
X39936749Y-69529086D01*
X38011500Y-67603837D01*
X38011500Y-64339600D01*
X38011500Y-62037500D01*
X37968964Y-61823657D01*
X37968964Y-61823656D01*
X37847831Y-61642369D01*
X37201322Y-60995860D01*
X37249859Y-60963977D01*
X37329631Y-60845799D01*
X37357667Y-60706000D01*
X37357667Y-60186629D01*
X39231200Y-62060162D01*
X39231200Y-62552600D01*
X39273736Y-62766444D01*
X39394869Y-62947731D01*
X39576156Y-63068864D01*
X39790000Y-63111400D01*
X40071692Y-63111400D01*
X40127693Y-63149201D01*
X40247520Y-63173231D01*
X40867280Y-63173231D01*
X40983499Y-63150682D01*
X41085645Y-63083583D01*
X41154021Y-62982287D01*
X41156959Y-62967633D01*
X41347888Y-63158896D01*
X41641852Y-63280961D01*
X41960152Y-63281239D01*
X42254328Y-63159687D01*
X42479596Y-62934812D01*
X42517996Y-62842333D01*
X44868215Y-60492115D01*
X44868216Y-60492115D01*
X44967234Y-60343923D01*
X45033396Y-60244905D01*
X45033396Y-60244904D01*
X45091400Y-59953300D01*
X45091400Y-56283267D01*
X45129361Y-56191848D01*
X45129639Y-55873548D01*
X45008087Y-55579372D01*
X44783212Y-55354104D01*
X44489248Y-55232039D01*
X44170948Y-55231761D01*
X43876772Y-55353313D01*
X43651504Y-55578188D01*
X43529439Y-55872152D01*
X43529161Y-56190452D01*
X43567400Y-56282996D01*
X43567400Y-59637669D01*
X41440558Y-61764511D01*
X41349072Y-61802313D01*
X41175609Y-61975472D01*
X41178051Y-61963300D01*
X41178051Y-61343540D01*
X41155502Y-61227321D01*
X41116200Y-61167490D01*
X41116200Y-60889771D01*
X41154300Y-60889771D01*
X41270519Y-60867222D01*
X41372665Y-60800123D01*
X41441041Y-60698827D01*
X41465071Y-60579000D01*
X41465071Y-59385200D01*
X41442522Y-59268981D01*
X41375423Y-59166835D01*
X41274127Y-59098459D01*
X41184074Y-59080400D01*
X41275557Y-59080400D01*
X41499611Y-58987594D01*
X41671094Y-58816111D01*
X41763900Y-58592057D01*
X41763900Y-58178700D01*
X41611500Y-58026300D01*
X40709800Y-58026300D01*
X40709800Y-58046300D01*
X40405000Y-58046300D01*
X40405000Y-58026300D01*
X39503300Y-58026300D01*
X39350900Y-58178700D01*
X39350900Y-58592057D01*
X39443706Y-58816111D01*
X39615189Y-58987594D01*
X39839243Y-59080400D01*
X39929725Y-59080400D01*
X39844281Y-59096978D01*
X39742135Y-59164077D01*
X39673759Y-59265373D01*
X39649729Y-59385200D01*
X39649729Y-60579000D01*
X39672278Y-60695219D01*
X39739377Y-60797365D01*
X39840673Y-60865741D01*
X39960500Y-60889771D01*
X39998600Y-60889771D01*
X39998600Y-61167682D01*
X39966620Y-61215058D01*
X37588931Y-58837369D01*
X37407644Y-58716236D01*
X37193800Y-58673700D01*
X32302900Y-58673700D01*
X32089056Y-58716236D01*
X31907769Y-58837369D01*
X31278983Y-59466154D01*
X31258677Y-59435241D01*
X31140499Y-59355469D01*
X31000700Y-59327433D01*
X26606200Y-59327433D01*
X26606200Y-58528567D01*
X31000700Y-58528567D01*
X31136289Y-58502259D01*
X31255459Y-58423977D01*
X31335231Y-58305799D01*
X31353079Y-58216800D01*
X31458200Y-58216800D01*
X31672044Y-58174264D01*
X31853331Y-58053131D01*
X31974464Y-57871844D01*
X31989522Y-57796139D01*
X32136733Y-57648929D01*
X32136733Y-58166000D01*
X32163041Y-58301589D01*
X32241323Y-58420759D01*
X32359501Y-58500531D01*
X32499300Y-58528567D01*
X36995100Y-58528567D01*
X37130689Y-58502259D01*
X37249859Y-58423977D01*
X37329631Y-58305799D01*
X37347479Y-58216800D01*
X37452600Y-58216800D01*
X37666444Y-58174264D01*
X37847731Y-58053131D01*
X37968864Y-57871844D01*
X38011400Y-57658000D01*
X38011400Y-56985662D01*
X38248774Y-56748287D01*
X38324613Y-56931828D01*
X38549488Y-57157096D01*
X38843452Y-57279161D01*
X39161752Y-57279439D01*
X39254296Y-57241200D01*
X39350900Y-57241200D01*
X39350900Y-57569100D01*
X39503300Y-57721500D01*
X40405000Y-57721500D01*
X40405000Y-57701500D01*
X40709800Y-57701500D01*
X40709800Y-57721500D01*
X41611500Y-57721500D01*
X41763900Y-57569100D01*
X41763900Y-57155743D01*
X41671094Y-56931689D01*
X41499611Y-56760206D01*
X41401968Y-56719761D01*
X45795782Y-52325948D01*
X45826565Y-53011110D01*
X46035901Y-53516491D01*
X46309990Y-53639384D01*
X47371374Y-52578000D01*
X47357231Y-52563857D01*
X47572757Y-52348331D01*
X47586900Y-52362474D01*
X48648284Y-51301090D01*
X48573632Y-51134593D01*
X48835090Y-50873591D01*
X48945800Y-50606971D01*
X48945800Y-51553377D01*
X48863810Y-51516616D01*
X47802426Y-52578000D01*
X48863810Y-53639384D01*
X48945800Y-53602622D01*
X48945800Y-57089002D01*
X48836547Y-56824589D01*
X48648284Y-56635997D01*
X48648284Y-53854910D01*
X47586900Y-52793526D01*
X46525516Y-53854910D01*
X46648409Y-54128999D01*
X47313390Y-54370082D01*
X48020010Y-54338335D01*
X48525391Y-54128999D01*
X48648284Y-53854910D01*
X48648284Y-56635997D01*
X48422491Y-56409810D01*
X47881223Y-56185056D01*
X47295148Y-56184545D01*
X46753489Y-56408353D01*
X46338710Y-56822409D01*
X46113956Y-57363677D01*
X46113445Y-57949752D01*
X46337253Y-58491411D01*
X46600108Y-58754725D01*
X46525516Y-58921090D01*
X47586900Y-59982474D01*
X48648284Y-58921090D01*
X48573632Y-58754593D01*
X48835090Y-58493591D01*
X48945800Y-58226971D01*
X48945800Y-59173377D01*
X48863810Y-59136616D01*
X47802426Y-60198000D01*
X48863810Y-61259384D01*
X48945800Y-61222622D01*
X48945800Y-64709002D01*
X48945800Y-64709002D01*
G37*
X48945800Y-64709002D02*
X48836547Y-64444589D01*
X48648284Y-64255997D01*
X48648284Y-61474910D01*
X47586900Y-60413526D01*
X47371374Y-60629052D01*
X47371374Y-60198000D01*
X46309990Y-59136616D01*
X46035901Y-59259509D01*
X45794818Y-59924490D01*
X45826565Y-60631110D01*
X46035901Y-61136491D01*
X46309990Y-61259384D01*
X47371374Y-60198000D01*
X47371374Y-60629052D01*
X46525516Y-61474910D01*
X46648409Y-61748999D01*
X47313390Y-61990082D01*
X48020010Y-61958335D01*
X48525391Y-61748999D01*
X48648284Y-61474910D01*
X48648284Y-64255997D01*
X48422491Y-64029810D01*
X47881223Y-63805056D01*
X47295148Y-63804545D01*
X46753489Y-64028353D01*
X46338710Y-64442409D01*
X46113956Y-64983677D01*
X46113445Y-65569752D01*
X46130102Y-65610066D01*
X43995985Y-67744185D01*
X43830804Y-67991395D01*
X43772800Y-68283000D01*
X43772800Y-68632169D01*
X41995769Y-70409200D01*
X41178051Y-70409200D01*
X41178051Y-69862700D01*
X41155502Y-69746481D01*
X41140338Y-69723397D01*
X41154021Y-69703127D01*
X41178051Y-69583300D01*
X41178051Y-68963540D01*
X41155502Y-68847321D01*
X41116200Y-68787490D01*
X41116200Y-68509771D01*
X41154300Y-68509771D01*
X41270519Y-68487222D01*
X41372665Y-68420123D01*
X41441041Y-68318827D01*
X41465071Y-68199000D01*
X41465071Y-67005200D01*
X41442522Y-66888981D01*
X41375423Y-66786835D01*
X41274127Y-66718459D01*
X41184074Y-66700400D01*
X41275557Y-66700400D01*
X41499611Y-66607594D01*
X41671094Y-66436111D01*
X41763900Y-66212057D01*
X41763900Y-65798700D01*
X41763900Y-65189100D01*
X41763900Y-64775743D01*
X41671094Y-64551689D01*
X41499611Y-64380206D01*
X41275557Y-64287400D01*
X41033043Y-64287400D01*
X40862200Y-64287400D01*
X40709800Y-64439800D01*
X40709800Y-65341500D01*
X41611500Y-65341500D01*
X41763900Y-65189100D01*
X41763900Y-65798700D01*
X41611500Y-65646300D01*
X40709800Y-65646300D01*
X40709800Y-65666300D01*
X40405000Y-65666300D01*
X40405000Y-65646300D01*
X40405000Y-65341500D01*
X40405000Y-64439800D01*
X40252600Y-64287400D01*
X40081757Y-64287400D01*
X39839243Y-64287400D01*
X39615189Y-64380206D01*
X39443706Y-64551689D01*
X39350900Y-64775743D01*
X39350900Y-65189100D01*
X39503300Y-65341500D01*
X40405000Y-65341500D01*
X40405000Y-65646300D01*
X39503300Y-65646300D01*
X39350900Y-65798700D01*
X39350900Y-66212057D01*
X39443706Y-66436111D01*
X39615189Y-66607594D01*
X39839243Y-66700400D01*
X39929725Y-66700400D01*
X39844281Y-66716978D01*
X39742135Y-66784077D01*
X39673759Y-66885373D01*
X39649729Y-67005200D01*
X39649729Y-68199000D01*
X39672278Y-68315219D01*
X39739377Y-68417365D01*
X39840673Y-68485741D01*
X39960500Y-68509771D01*
X39998600Y-68509771D01*
X39998600Y-68787682D01*
X39960779Y-68843713D01*
X39936749Y-68963540D01*
X39936749Y-69529086D01*
X38011500Y-67603837D01*
X38011500Y-64339600D01*
X38011500Y-62037500D01*
X37968964Y-61823657D01*
X37968964Y-61823656D01*
X37847831Y-61642369D01*
X37201322Y-60995860D01*
X37249859Y-60963977D01*
X37329631Y-60845799D01*
X37357667Y-60706000D01*
X37357667Y-60186629D01*
X39231200Y-62060162D01*
X39231200Y-62552600D01*
X39273736Y-62766444D01*
X39394869Y-62947731D01*
X39576156Y-63068864D01*
X39790000Y-63111400D01*
X40071692Y-63111400D01*
X40127693Y-63149201D01*
X40247520Y-63173231D01*
X40867280Y-63173231D01*
X40983499Y-63150682D01*
X41085645Y-63083583D01*
X41154021Y-62982287D01*
X41156959Y-62967633D01*
X41347888Y-63158896D01*
X41641852Y-63280961D01*
X41960152Y-63281239D01*
X42254328Y-63159687D01*
X42479596Y-62934812D01*
X42517996Y-62842333D01*
X44868215Y-60492115D01*
X44868216Y-60492115D01*
X44967234Y-60343923D01*
X45033396Y-60244905D01*
X45033396Y-60244904D01*
X45091400Y-59953300D01*
X45091400Y-56283267D01*
X45129361Y-56191848D01*
X45129639Y-55873548D01*
X45008087Y-55579372D01*
X44783212Y-55354104D01*
X44489248Y-55232039D01*
X44170948Y-55231761D01*
X43876772Y-55353313D01*
X43651504Y-55578188D01*
X43529439Y-55872152D01*
X43529161Y-56190452D01*
X43567400Y-56282996D01*
X43567400Y-59637669D01*
X41440558Y-61764511D01*
X41349072Y-61802313D01*
X41175609Y-61975472D01*
X41178051Y-61963300D01*
X41178051Y-61343540D01*
X41155502Y-61227321D01*
X41116200Y-61167490D01*
X41116200Y-60889771D01*
X41154300Y-60889771D01*
X41270519Y-60867222D01*
X41372665Y-60800123D01*
X41441041Y-60698827D01*
X41465071Y-60579000D01*
X41465071Y-59385200D01*
X41442522Y-59268981D01*
X41375423Y-59166835D01*
X41274127Y-59098459D01*
X41184074Y-59080400D01*
X41275557Y-59080400D01*
X41499611Y-58987594D01*
X41671094Y-58816111D01*
X41763900Y-58592057D01*
X41763900Y-58178700D01*
X41611500Y-58026300D01*
X40709800Y-58026300D01*
X40709800Y-58046300D01*
X40405000Y-58046300D01*
X40405000Y-58026300D01*
X39503300Y-58026300D01*
X39350900Y-58178700D01*
X39350900Y-58592057D01*
X39443706Y-58816111D01*
X39615189Y-58987594D01*
X39839243Y-59080400D01*
X39929725Y-59080400D01*
X39844281Y-59096978D01*
X39742135Y-59164077D01*
X39673759Y-59265373D01*
X39649729Y-59385200D01*
X39649729Y-60579000D01*
X39672278Y-60695219D01*
X39739377Y-60797365D01*
X39840673Y-60865741D01*
X39960500Y-60889771D01*
X39998600Y-60889771D01*
X39998600Y-61167682D01*
X39966620Y-61215058D01*
X37588931Y-58837369D01*
X37407644Y-58716236D01*
X37193800Y-58673700D01*
X32302900Y-58673700D01*
X32089056Y-58716236D01*
X31907769Y-58837369D01*
X31278983Y-59466154D01*
X31258677Y-59435241D01*
X31140499Y-59355469D01*
X31000700Y-59327433D01*
X26606200Y-59327433D01*
X26606200Y-58528567D01*
X31000700Y-58528567D01*
X31136289Y-58502259D01*
X31255459Y-58423977D01*
X31335231Y-58305799D01*
X31353079Y-58216800D01*
X31458200Y-58216800D01*
X31672044Y-58174264D01*
X31853331Y-58053131D01*
X31974464Y-57871844D01*
X31989522Y-57796139D01*
X32136733Y-57648929D01*
X32136733Y-58166000D01*
X32163041Y-58301589D01*
X32241323Y-58420759D01*
X32359501Y-58500531D01*
X32499300Y-58528567D01*
X36995100Y-58528567D01*
X37130689Y-58502259D01*
X37249859Y-58423977D01*
X37329631Y-58305799D01*
X37347479Y-58216800D01*
X37452600Y-58216800D01*
X37666444Y-58174264D01*
X37847731Y-58053131D01*
X37968864Y-57871844D01*
X38011400Y-57658000D01*
X38011400Y-56985662D01*
X38248774Y-56748287D01*
X38324613Y-56931828D01*
X38549488Y-57157096D01*
X38843452Y-57279161D01*
X39161752Y-57279439D01*
X39254296Y-57241200D01*
X39350900Y-57241200D01*
X39350900Y-57569100D01*
X39503300Y-57721500D01*
X40405000Y-57721500D01*
X40405000Y-57701500D01*
X40709800Y-57701500D01*
X40709800Y-57721500D01*
X41611500Y-57721500D01*
X41763900Y-57569100D01*
X41763900Y-57155743D01*
X41671094Y-56931689D01*
X41499611Y-56760206D01*
X41401968Y-56719761D01*
X45795782Y-52325948D01*
X45826565Y-53011110D01*
X46035901Y-53516491D01*
X46309990Y-53639384D01*
X47371374Y-52578000D01*
X47357231Y-52563857D01*
X47572757Y-52348331D01*
X47586900Y-52362474D01*
X48648284Y-51301090D01*
X48573632Y-51134593D01*
X48835090Y-50873591D01*
X48945800Y-50606971D01*
X48945800Y-51553377D01*
X48863810Y-51516616D01*
X47802426Y-52578000D01*
X48863810Y-53639384D01*
X48945800Y-53602622D01*
X48945800Y-57089002D01*
X48836547Y-56824589D01*
X48648284Y-56635997D01*
X48648284Y-53854910D01*
X47586900Y-52793526D01*
X46525516Y-53854910D01*
X46648409Y-54128999D01*
X47313390Y-54370082D01*
X48020010Y-54338335D01*
X48525391Y-54128999D01*
X48648284Y-53854910D01*
X48648284Y-56635997D01*
X48422491Y-56409810D01*
X47881223Y-56185056D01*
X47295148Y-56184545D01*
X46753489Y-56408353D01*
X46338710Y-56822409D01*
X46113956Y-57363677D01*
X46113445Y-57949752D01*
X46337253Y-58491411D01*
X46600108Y-58754725D01*
X46525516Y-58921090D01*
X47586900Y-59982474D01*
X48648284Y-58921090D01*
X48573632Y-58754593D01*
X48835090Y-58493591D01*
X48945800Y-58226971D01*
X48945800Y-59173377D01*
X48863810Y-59136616D01*
X47802426Y-60198000D01*
X48863810Y-61259384D01*
X48945800Y-61222622D01*
X48945800Y-64709002D01*
G36*
X48945800Y-84416900D02*
X48611522Y-84416900D01*
X48648284Y-84334910D01*
X47586900Y-83273526D01*
X47371374Y-83489052D01*
X47371374Y-83058000D01*
X46309990Y-81996616D01*
X46035901Y-82119509D01*
X45794818Y-82784490D01*
X45826565Y-83491110D01*
X46035901Y-83996491D01*
X46309990Y-84119384D01*
X47371374Y-83058000D01*
X47371374Y-83489052D01*
X46525516Y-84334910D01*
X46562277Y-84416900D01*
X42194630Y-84416900D01*
X44280015Y-82331515D01*
X44445196Y-82084305D01*
X44445196Y-82084304D01*
X44503200Y-81792700D01*
X44503200Y-79619767D01*
X44541161Y-79528348D01*
X44541439Y-79210048D01*
X44419887Y-78915872D01*
X44195012Y-78690604D01*
X43901048Y-78568539D01*
X43582748Y-78568261D01*
X43288572Y-78689813D01*
X43063304Y-78914688D01*
X42941239Y-79208652D01*
X42940961Y-79526952D01*
X42979200Y-79619496D01*
X42979200Y-81477070D01*
X41465071Y-82991199D01*
X41465071Y-82245200D01*
X41442522Y-82128981D01*
X41375423Y-82026835D01*
X41274127Y-81958459D01*
X41184074Y-81940400D01*
X41275557Y-81940400D01*
X41499611Y-81847594D01*
X41671094Y-81676111D01*
X41763900Y-81452057D01*
X41763900Y-81038700D01*
X41763900Y-80429100D01*
X41763900Y-80015743D01*
X41671094Y-79791689D01*
X41499611Y-79620206D01*
X41275557Y-79527400D01*
X41033043Y-79527400D01*
X40862200Y-79527400D01*
X40709800Y-79679800D01*
X40709800Y-80581500D01*
X41611500Y-80581500D01*
X41763900Y-80429100D01*
X41763900Y-81038700D01*
X41611500Y-80886300D01*
X40709800Y-80886300D01*
X40709800Y-80906300D01*
X40405000Y-80906300D01*
X40405000Y-80886300D01*
X40405000Y-80581500D01*
X40405000Y-79679800D01*
X40252600Y-79527400D01*
X40081757Y-79527400D01*
X39839243Y-79527400D01*
X39615189Y-79620206D01*
X39443706Y-79791689D01*
X39350900Y-80015743D01*
X39350900Y-80429100D01*
X39503300Y-80581500D01*
X40405000Y-80581500D01*
X40405000Y-80886300D01*
X39503300Y-80886300D01*
X39350900Y-81038700D01*
X39350900Y-81167349D01*
X38792100Y-81167349D01*
X38675881Y-81189898D01*
X38652797Y-81205061D01*
X38632527Y-81191379D01*
X38512700Y-81167349D01*
X37892940Y-81167349D01*
X37776721Y-81189898D01*
X37716890Y-81229200D01*
X30525770Y-81229200D01*
X30547296Y-81207712D01*
X30669361Y-80913748D01*
X30669594Y-80646000D01*
X37933632Y-80646000D01*
X38025052Y-80683961D01*
X38343352Y-80684239D01*
X38637528Y-80562687D01*
X38862796Y-80337812D01*
X38984861Y-80043848D01*
X38985139Y-79725548D01*
X38863587Y-79431372D01*
X38638712Y-79206104D01*
X38344748Y-79084039D01*
X38026448Y-79083761D01*
X37933903Y-79122000D01*
X30631400Y-79122000D01*
X30631400Y-76009700D01*
X30573396Y-75718095D01*
X30408215Y-75470885D01*
X30408215Y-75470884D01*
X29308488Y-74371158D01*
X29270687Y-74279672D01*
X29045812Y-74054404D01*
X28751848Y-73932339D01*
X28433548Y-73932061D01*
X28139372Y-74053613D01*
X27914104Y-74278488D01*
X27792039Y-74572452D01*
X27791761Y-74890752D01*
X27913313Y-75184928D01*
X28138188Y-75410196D01*
X28230666Y-75448596D01*
X29107400Y-76325330D01*
X29107400Y-79519309D01*
X29040012Y-79451804D01*
X28746048Y-79329739D01*
X28576352Y-79329590D01*
X26606100Y-77359338D01*
X26606100Y-63608567D01*
X28107900Y-63608567D01*
X28107900Y-70902099D01*
X27988804Y-71020988D01*
X27866739Y-71314952D01*
X27866461Y-71633252D01*
X27988013Y-71927428D01*
X28212888Y-72152696D01*
X28506852Y-72274761D01*
X28676547Y-72274909D01*
X34589368Y-78187731D01*
X34589369Y-78187731D01*
X34770656Y-78308864D01*
X34984500Y-78351400D01*
X40071692Y-78351400D01*
X40127693Y-78389201D01*
X40247520Y-78413231D01*
X40867280Y-78413231D01*
X40983499Y-78390682D01*
X41085645Y-78323583D01*
X41154021Y-78222287D01*
X41178051Y-78102460D01*
X41178051Y-77482700D01*
X41155502Y-77366481D01*
X41140338Y-77343397D01*
X41154021Y-77323127D01*
X41178051Y-77203300D01*
X41178051Y-76583540D01*
X41155502Y-76467321D01*
X41116200Y-76407490D01*
X41116200Y-76129771D01*
X41154300Y-76129771D01*
X41270519Y-76107222D01*
X41372665Y-76040123D01*
X41441041Y-75938827D01*
X41465071Y-75819000D01*
X41465071Y-74625200D01*
X41442522Y-74508981D01*
X41375423Y-74406835D01*
X41274127Y-74338459D01*
X41184074Y-74320400D01*
X41275557Y-74320400D01*
X41499611Y-74227594D01*
X41671094Y-74056111D01*
X41763900Y-73832057D01*
X41763900Y-73418700D01*
X41611500Y-73266300D01*
X40709800Y-73266300D01*
X40709800Y-73286300D01*
X40405000Y-73286300D01*
X40405000Y-73266300D01*
X39503300Y-73266300D01*
X39350900Y-73418700D01*
X39350900Y-73832057D01*
X39443706Y-74056111D01*
X39615189Y-74227594D01*
X39839243Y-74320400D01*
X39929725Y-74320400D01*
X39844281Y-74336978D01*
X39742135Y-74404077D01*
X39673759Y-74505373D01*
X39649729Y-74625200D01*
X39649729Y-75819000D01*
X39672278Y-75935219D01*
X39739377Y-76037365D01*
X39840673Y-76105741D01*
X39960500Y-76129771D01*
X39998600Y-76129771D01*
X39998600Y-76407682D01*
X39960779Y-76463713D01*
X39936749Y-76583540D01*
X39936749Y-77203300D01*
X39942666Y-77233800D01*
X38113008Y-77233800D01*
X38113008Y-73815886D01*
X37842894Y-73162160D01*
X37343171Y-72661564D01*
X36689918Y-72390309D01*
X35982586Y-72389692D01*
X35328860Y-72659806D01*
X34828264Y-73159529D01*
X34557009Y-73812782D01*
X34556392Y-74520114D01*
X34826506Y-75173840D01*
X35326229Y-75674436D01*
X35979482Y-75945691D01*
X36686814Y-75946308D01*
X37340540Y-75676194D01*
X37841136Y-75176471D01*
X38112391Y-74523218D01*
X38113008Y-73815886D01*
X38113008Y-77233800D01*
X35215962Y-77233800D01*
X29466792Y-71484629D01*
X29466939Y-71316348D01*
X29345387Y-71022172D01*
X29225500Y-70902075D01*
X29225500Y-70184505D01*
X29315066Y-70221696D01*
X30803385Y-71710015D01*
X31050595Y-71875196D01*
X31050596Y-71875196D01*
X31342200Y-71933200D01*
X39776956Y-71933200D01*
X39615189Y-72000206D01*
X39443706Y-72171689D01*
X39350900Y-72395743D01*
X39350900Y-72809100D01*
X39503300Y-72961500D01*
X40405000Y-72961500D01*
X40405000Y-72941500D01*
X40709800Y-72941500D01*
X40709800Y-72961500D01*
X41611500Y-72961500D01*
X41763900Y-72809100D01*
X41763900Y-72395743D01*
X41671094Y-72171689D01*
X41499611Y-72000206D01*
X41337843Y-71933200D01*
X42311400Y-71933200D01*
X42311400Y-71933199D01*
X42603004Y-71875196D01*
X42603005Y-71875196D01*
X42850215Y-71710015D01*
X45073615Y-69486616D01*
X45073615Y-69486615D01*
X45238796Y-69239405D01*
X45296799Y-68947800D01*
X45296800Y-68947800D01*
X45296800Y-68598630D01*
X45818729Y-68076701D01*
X45826565Y-68251110D01*
X46035901Y-68756491D01*
X46309990Y-68879384D01*
X47371374Y-67818000D01*
X47357231Y-67803857D01*
X47572757Y-67588331D01*
X47586900Y-67602474D01*
X48648284Y-66541090D01*
X48573632Y-66374593D01*
X48835090Y-66113591D01*
X48945800Y-65846971D01*
X48945800Y-66793377D01*
X48863810Y-66756616D01*
X47802426Y-67818000D01*
X48863810Y-68879384D01*
X48945800Y-68842622D01*
X48945800Y-72329002D01*
X48836547Y-72064589D01*
X48648284Y-71875997D01*
X48648284Y-69094910D01*
X47586900Y-68033526D01*
X46525516Y-69094910D01*
X46648409Y-69368999D01*
X47313390Y-69610082D01*
X48020010Y-69578335D01*
X48525391Y-69368999D01*
X48648284Y-69094910D01*
X48648284Y-71875997D01*
X48422491Y-71649810D01*
X47881223Y-71425056D01*
X47295148Y-71424545D01*
X46753489Y-71648353D01*
X46338710Y-72062409D01*
X46113956Y-72603677D01*
X46113445Y-73189752D01*
X46337253Y-73731411D01*
X46600108Y-73994725D01*
X46525516Y-74161090D01*
X47586900Y-75222474D01*
X48648284Y-74161090D01*
X48573632Y-73994593D01*
X48835090Y-73733591D01*
X48945800Y-73466971D01*
X48945800Y-74413377D01*
X48863810Y-74376616D01*
X47802426Y-75438000D01*
X48863810Y-76499384D01*
X48945800Y-76462622D01*
X48945800Y-79949002D01*
X48836547Y-79684589D01*
X48648284Y-79495997D01*
X48648284Y-76714910D01*
X47586900Y-75653526D01*
X47371374Y-75869052D01*
X47371374Y-75438000D01*
X46309990Y-74376616D01*
X46035901Y-74499509D01*
X45794818Y-75164490D01*
X45826565Y-75871110D01*
X46035901Y-76376491D01*
X46309990Y-76499384D01*
X47371374Y-75438000D01*
X47371374Y-75869052D01*
X46525516Y-76714910D01*
X46648409Y-76988999D01*
X47313390Y-77230082D01*
X48020010Y-77198335D01*
X48525391Y-76988999D01*
X48648284Y-76714910D01*
X48648284Y-79495997D01*
X48422491Y-79269810D01*
X47881223Y-79045056D01*
X47295148Y-79044545D01*
X46753489Y-79268353D01*
X46338710Y-79682409D01*
X46113956Y-80223677D01*
X46113445Y-80809752D01*
X46337253Y-81351411D01*
X46600108Y-81614725D01*
X46525516Y-81781090D01*
X47586900Y-82842474D01*
X48648284Y-81781090D01*
X48573632Y-81614593D01*
X48835090Y-81353591D01*
X48945800Y-81086971D01*
X48945800Y-82033377D01*
X48863810Y-81996616D01*
X47802426Y-83058000D01*
X48863810Y-84119384D01*
X48945800Y-84082622D01*
X48945800Y-84416900D01*
X48945800Y-84416900D01*
G37*
X48945800Y-84416900D02*
X48611522Y-84416900D01*
X48648284Y-84334910D01*
X47586900Y-83273526D01*
X47371374Y-83489052D01*
X47371374Y-83058000D01*
X46309990Y-81996616D01*
X46035901Y-82119509D01*
X45794818Y-82784490D01*
X45826565Y-83491110D01*
X46035901Y-83996491D01*
X46309990Y-84119384D01*
X47371374Y-83058000D01*
X47371374Y-83489052D01*
X46525516Y-84334910D01*
X46562277Y-84416900D01*
X42194630Y-84416900D01*
X44280015Y-82331515D01*
X44445196Y-82084305D01*
X44445196Y-82084304D01*
X44503200Y-81792700D01*
X44503200Y-79619767D01*
X44541161Y-79528348D01*
X44541439Y-79210048D01*
X44419887Y-78915872D01*
X44195012Y-78690604D01*
X43901048Y-78568539D01*
X43582748Y-78568261D01*
X43288572Y-78689813D01*
X43063304Y-78914688D01*
X42941239Y-79208652D01*
X42940961Y-79526952D01*
X42979200Y-79619496D01*
X42979200Y-81477070D01*
X41465071Y-82991199D01*
X41465071Y-82245200D01*
X41442522Y-82128981D01*
X41375423Y-82026835D01*
X41274127Y-81958459D01*
X41184074Y-81940400D01*
X41275557Y-81940400D01*
X41499611Y-81847594D01*
X41671094Y-81676111D01*
X41763900Y-81452057D01*
X41763900Y-81038700D01*
X41763900Y-80429100D01*
X41763900Y-80015743D01*
X41671094Y-79791689D01*
X41499611Y-79620206D01*
X41275557Y-79527400D01*
X41033043Y-79527400D01*
X40862200Y-79527400D01*
X40709800Y-79679800D01*
X40709800Y-80581500D01*
X41611500Y-80581500D01*
X41763900Y-80429100D01*
X41763900Y-81038700D01*
X41611500Y-80886300D01*
X40709800Y-80886300D01*
X40709800Y-80906300D01*
X40405000Y-80906300D01*
X40405000Y-80886300D01*
X40405000Y-80581500D01*
X40405000Y-79679800D01*
X40252600Y-79527400D01*
X40081757Y-79527400D01*
X39839243Y-79527400D01*
X39615189Y-79620206D01*
X39443706Y-79791689D01*
X39350900Y-80015743D01*
X39350900Y-80429100D01*
X39503300Y-80581500D01*
X40405000Y-80581500D01*
X40405000Y-80886300D01*
X39503300Y-80886300D01*
X39350900Y-81038700D01*
X39350900Y-81167349D01*
X38792100Y-81167349D01*
X38675881Y-81189898D01*
X38652797Y-81205061D01*
X38632527Y-81191379D01*
X38512700Y-81167349D01*
X37892940Y-81167349D01*
X37776721Y-81189898D01*
X37716890Y-81229200D01*
X30525770Y-81229200D01*
X30547296Y-81207712D01*
X30669361Y-80913748D01*
X30669594Y-80646000D01*
X37933632Y-80646000D01*
X38025052Y-80683961D01*
X38343352Y-80684239D01*
X38637528Y-80562687D01*
X38862796Y-80337812D01*
X38984861Y-80043848D01*
X38985139Y-79725548D01*
X38863587Y-79431372D01*
X38638712Y-79206104D01*
X38344748Y-79084039D01*
X38026448Y-79083761D01*
X37933903Y-79122000D01*
X30631400Y-79122000D01*
X30631400Y-76009700D01*
X30573396Y-75718095D01*
X30408215Y-75470885D01*
X30408215Y-75470884D01*
X29308488Y-74371158D01*
X29270687Y-74279672D01*
X29045812Y-74054404D01*
X28751848Y-73932339D01*
X28433548Y-73932061D01*
X28139372Y-74053613D01*
X27914104Y-74278488D01*
X27792039Y-74572452D01*
X27791761Y-74890752D01*
X27913313Y-75184928D01*
X28138188Y-75410196D01*
X28230666Y-75448596D01*
X29107400Y-76325330D01*
X29107400Y-79519309D01*
X29040012Y-79451804D01*
X28746048Y-79329739D01*
X28576352Y-79329590D01*
X26606100Y-77359338D01*
X26606100Y-63608567D01*
X28107900Y-63608567D01*
X28107900Y-70902099D01*
X27988804Y-71020988D01*
X27866739Y-71314952D01*
X27866461Y-71633252D01*
X27988013Y-71927428D01*
X28212888Y-72152696D01*
X28506852Y-72274761D01*
X28676547Y-72274909D01*
X34589368Y-78187731D01*
X34589369Y-78187731D01*
X34770656Y-78308864D01*
X34984500Y-78351400D01*
X40071692Y-78351400D01*
X40127693Y-78389201D01*
X40247520Y-78413231D01*
X40867280Y-78413231D01*
X40983499Y-78390682D01*
X41085645Y-78323583D01*
X41154021Y-78222287D01*
X41178051Y-78102460D01*
X41178051Y-77482700D01*
X41155502Y-77366481D01*
X41140338Y-77343397D01*
X41154021Y-77323127D01*
X41178051Y-77203300D01*
X41178051Y-76583540D01*
X41155502Y-76467321D01*
X41116200Y-76407490D01*
X41116200Y-76129771D01*
X41154300Y-76129771D01*
X41270519Y-76107222D01*
X41372665Y-76040123D01*
X41441041Y-75938827D01*
X41465071Y-75819000D01*
X41465071Y-74625200D01*
X41442522Y-74508981D01*
X41375423Y-74406835D01*
X41274127Y-74338459D01*
X41184074Y-74320400D01*
X41275557Y-74320400D01*
X41499611Y-74227594D01*
X41671094Y-74056111D01*
X41763900Y-73832057D01*
X41763900Y-73418700D01*
X41611500Y-73266300D01*
X40709800Y-73266300D01*
X40709800Y-73286300D01*
X40405000Y-73286300D01*
X40405000Y-73266300D01*
X39503300Y-73266300D01*
X39350900Y-73418700D01*
X39350900Y-73832057D01*
X39443706Y-74056111D01*
X39615189Y-74227594D01*
X39839243Y-74320400D01*
X39929725Y-74320400D01*
X39844281Y-74336978D01*
X39742135Y-74404077D01*
X39673759Y-74505373D01*
X39649729Y-74625200D01*
X39649729Y-75819000D01*
X39672278Y-75935219D01*
X39739377Y-76037365D01*
X39840673Y-76105741D01*
X39960500Y-76129771D01*
X39998600Y-76129771D01*
X39998600Y-76407682D01*
X39960779Y-76463713D01*
X39936749Y-76583540D01*
X39936749Y-77203300D01*
X39942666Y-77233800D01*
X38113008Y-77233800D01*
X38113008Y-73815886D01*
X37842894Y-73162160D01*
X37343171Y-72661564D01*
X36689918Y-72390309D01*
X35982586Y-72389692D01*
X35328860Y-72659806D01*
X34828264Y-73159529D01*
X34557009Y-73812782D01*
X34556392Y-74520114D01*
X34826506Y-75173840D01*
X35326229Y-75674436D01*
X35979482Y-75945691D01*
X36686814Y-75946308D01*
X37340540Y-75676194D01*
X37841136Y-75176471D01*
X38112391Y-74523218D01*
X38113008Y-73815886D01*
X38113008Y-77233800D01*
X35215962Y-77233800D01*
X29466792Y-71484629D01*
X29466939Y-71316348D01*
X29345387Y-71022172D01*
X29225500Y-70902075D01*
X29225500Y-70184505D01*
X29315066Y-70221696D01*
X30803385Y-71710015D01*
X31050595Y-71875196D01*
X31050596Y-71875196D01*
X31342200Y-71933200D01*
X39776956Y-71933200D01*
X39615189Y-72000206D01*
X39443706Y-72171689D01*
X39350900Y-72395743D01*
X39350900Y-72809100D01*
X39503300Y-72961500D01*
X40405000Y-72961500D01*
X40405000Y-72941500D01*
X40709800Y-72941500D01*
X40709800Y-72961500D01*
X41611500Y-72961500D01*
X41763900Y-72809100D01*
X41763900Y-72395743D01*
X41671094Y-72171689D01*
X41499611Y-72000206D01*
X41337843Y-71933200D01*
X42311400Y-71933200D01*
X42311400Y-71933199D01*
X42603004Y-71875196D01*
X42603005Y-71875196D01*
X42850215Y-71710015D01*
X45073615Y-69486616D01*
X45073615Y-69486615D01*
X45238796Y-69239405D01*
X45296799Y-68947800D01*
X45296800Y-68947800D01*
X45296800Y-68598630D01*
X45818729Y-68076701D01*
X45826565Y-68251110D01*
X46035901Y-68756491D01*
X46309990Y-68879384D01*
X47371374Y-67818000D01*
X47357231Y-67803857D01*
X47572757Y-67588331D01*
X47586900Y-67602474D01*
X48648284Y-66541090D01*
X48573632Y-66374593D01*
X48835090Y-66113591D01*
X48945800Y-65846971D01*
X48945800Y-66793377D01*
X48863810Y-66756616D01*
X47802426Y-67818000D01*
X48863810Y-68879384D01*
X48945800Y-68842622D01*
X48945800Y-72329002D01*
X48836547Y-72064589D01*
X48648284Y-71875997D01*
X48648284Y-69094910D01*
X47586900Y-68033526D01*
X46525516Y-69094910D01*
X46648409Y-69368999D01*
X47313390Y-69610082D01*
X48020010Y-69578335D01*
X48525391Y-69368999D01*
X48648284Y-69094910D01*
X48648284Y-71875997D01*
X48422491Y-71649810D01*
X47881223Y-71425056D01*
X47295148Y-71424545D01*
X46753489Y-71648353D01*
X46338710Y-72062409D01*
X46113956Y-72603677D01*
X46113445Y-73189752D01*
X46337253Y-73731411D01*
X46600108Y-73994725D01*
X46525516Y-74161090D01*
X47586900Y-75222474D01*
X48648284Y-74161090D01*
X48573632Y-73994593D01*
X48835090Y-73733591D01*
X48945800Y-73466971D01*
X48945800Y-74413377D01*
X48863810Y-74376616D01*
X47802426Y-75438000D01*
X48863810Y-76499384D01*
X48945800Y-76462622D01*
X48945800Y-79949002D01*
X48836547Y-79684589D01*
X48648284Y-79495997D01*
X48648284Y-76714910D01*
X47586900Y-75653526D01*
X47371374Y-75869052D01*
X47371374Y-75438000D01*
X46309990Y-74376616D01*
X46035901Y-74499509D01*
X45794818Y-75164490D01*
X45826565Y-75871110D01*
X46035901Y-76376491D01*
X46309990Y-76499384D01*
X47371374Y-75438000D01*
X47371374Y-75869052D01*
X46525516Y-76714910D01*
X46648409Y-76988999D01*
X47313390Y-77230082D01*
X48020010Y-77198335D01*
X48525391Y-76988999D01*
X48648284Y-76714910D01*
X48648284Y-79495997D01*
X48422491Y-79269810D01*
X47881223Y-79045056D01*
X47295148Y-79044545D01*
X46753489Y-79268353D01*
X46338710Y-79682409D01*
X46113956Y-80223677D01*
X46113445Y-80809752D01*
X46337253Y-81351411D01*
X46600108Y-81614725D01*
X46525516Y-81781090D01*
X47586900Y-82842474D01*
X48648284Y-81781090D01*
X48573632Y-81614593D01*
X48835090Y-81353591D01*
X48945800Y-81086971D01*
X48945800Y-82033377D01*
X48863810Y-81996616D01*
X47802426Y-83058000D01*
X48863810Y-84119384D01*
X48945800Y-84082622D01*
X48945800Y-84416900D01*
M02*
