M48
;DRILL file {KiCad 0.201505120158+5650~23~ubuntu14.04.1-product} date Thu 14 May 2015 12:47:10 PM EDT
;FORMAT={-:-/ absolute / inch / decimal}
FMAT,2
INCH,TZ
T1C0.025
T2C0.061
T3C0.096
%
G90
G05
M72
T1
X1.1241Y-2.2203
X1.1254Y-1.7429
X1.1254Y-3.1547
X1.1257Y-2.9422
X1.1268Y-1.4521
X1.1286Y-2.814
X1.132Y-1.92
X1.1435Y-1.1491
X1.1457Y-1.0647
X1.1642Y-1.3992
X1.1684Y-2.7364
X1.1734Y-3.3063
X1.176Y-3.1793
X1.2186Y-1.6543
X1.2187Y-2.5331
X1.2194Y-1.7914
X1.4889Y-1.085
X1.5033Y-3.145
X1.532Y-1.8809
X1.5356Y-2.2236
X1.5418Y-2.2839
X1.5429Y-1.3573
X1.5433Y-2.612
X1.5437Y-1.1121
X1.5441Y-1.9785
X1.5452Y-1.6727
X1.6055Y-3.1125
X1.6457Y-2.4599
X1.6715Y-1.2321
X1.6758Y-2.7293
X1.7221Y-3.1247
X1.7453Y-2.206
T2
X1.8735Y-1.07
X1.8735Y-1.17
X1.8735Y-1.37
X1.8735Y-1.47
X1.8735Y-1.67
X1.8735Y-1.77
X1.8735Y-1.97
X1.8735Y-2.07
X1.8735Y-2.27
X1.8735Y-2.37
X1.8735Y-2.57
X1.8735Y-2.67
X1.8735Y-2.87
X1.8735Y-2.97
X1.8735Y-3.17
X1.8735Y-3.27
T3
X1.4305Y-1.42
X1.4305Y-2.92
T0
M30
