G04 #@! TF.FileFunction,Legend,Bot*
%FSLAX46Y46*%
G04 Gerber Fmt 4.6, Leading zero omitted, Abs format (unit mm)*
G04 Created by KiCad (PCBNEW 0.201506082246+5724~23~ubuntu14.04.1-product) date Wed 10 Jun 2015 10:15:59 AM EDT*
%MOMM*%
G01*
G04 APERTURE LIST*
%ADD10C,0.100000*%
%ADD11C,0.200000*%
%ADD12C,0.228600*%
%ADD13C,0.127000*%
%ADD14C,0.381000*%
%ADD15C,0.190500*%
%ADD16R,2.000200X1.187400*%
%ADD17C,2.438400*%
%ADD18C,3.048000*%
%ADD19R,0.721360X0.721360*%
%ADD20R,1.701800X0.751840*%
G04 APERTURE END LIST*
D10*
D11*
X48812450Y-83058000D02*
G75*
G03X48812450Y-83058000I-1270000J0D01*
G01*
X48812450Y-80518000D02*
G75*
G03X48812450Y-80518000I-1270000J0D01*
G01*
X48812450Y-75438000D02*
G75*
G03X48812450Y-75438000I-1270000J0D01*
G01*
X48962353Y-72898000D02*
G75*
G03X48962353Y-72898000I-1419903J0D01*
G01*
X48812450Y-67818000D02*
G75*
G03X48812450Y-67818000I-1270000J0D01*
G01*
X48812450Y-65278000D02*
G75*
G03X48812450Y-65278000I-1270000J0D01*
G01*
X48812450Y-60198000D02*
G75*
G03X48812450Y-60198000I-1270000J0D01*
G01*
X48812450Y-57658000D02*
G75*
G03X48812450Y-57658000I-1270000J0D01*
G01*
X48812450Y-52578000D02*
G75*
G03X48812450Y-52578000I-1270000J0D01*
G01*
X48812450Y-50038000D02*
G75*
G03X48812450Y-50038000I-1270000J0D01*
G01*
X48812450Y-44958000D02*
G75*
G03X48812450Y-44958000I-1270000J0D01*
G01*
X48812450Y-42418000D02*
G75*
G03X48812450Y-42418000I-1270000J0D01*
G01*
X48812450Y-37338000D02*
G75*
G03X48812450Y-37338000I-1270000J0D01*
G01*
X48812450Y-34798000D02*
G75*
G03X48812450Y-34798000I-1270000J0D01*
G01*
X48812450Y-29718000D02*
G75*
G03X48812450Y-29718000I-1270000J0D01*
G01*
X48812450Y-27178000D02*
G75*
G03X48812450Y-27178000I-1270000J0D01*
G01*
D12*
X25400000Y-84836000D02*
X49364900Y-84836000D01*
X49364900Y-25400000D02*
X49364900Y-84836000D01*
X25400000Y-25400000D02*
X25400000Y-84836000D01*
X25400000Y-25400000D02*
X49364900Y-25400000D01*
D13*
X43986400Y-28067000D02*
X46018400Y-28067000D01*
X44113400Y-27813000D02*
X44113400Y-26924000D01*
X44113400Y-26924000D02*
X45891400Y-26924000D01*
X45891400Y-26924000D02*
X45891400Y-27813000D01*
X44113400Y-29083000D02*
X44113400Y-29972000D01*
X44113400Y-29972000D02*
X45891400Y-29972000D01*
X45891400Y-29972000D02*
X45891400Y-29083000D01*
X43986400Y-35687000D02*
X46018400Y-35687000D01*
X44113400Y-35433000D02*
X44113400Y-34544000D01*
X44113400Y-34544000D02*
X45891400Y-34544000D01*
X45891400Y-34544000D02*
X45891400Y-35433000D01*
X44113400Y-36703000D02*
X44113400Y-37592000D01*
X44113400Y-37592000D02*
X45891400Y-37592000D01*
X45891400Y-37592000D02*
X45891400Y-36703000D01*
X43986400Y-43307000D02*
X46018400Y-43307000D01*
X44113400Y-43053000D02*
X44113400Y-42164000D01*
X44113400Y-42164000D02*
X45891400Y-42164000D01*
X45891400Y-42164000D02*
X45891400Y-43053000D01*
X44113400Y-44323000D02*
X44113400Y-45212000D01*
X44113400Y-45212000D02*
X45891400Y-45212000D01*
X45891400Y-45212000D02*
X45891400Y-44323000D01*
X43986400Y-50927000D02*
X46018400Y-50927000D01*
X44113400Y-50673000D02*
X44113400Y-49784000D01*
X44113400Y-49784000D02*
X45891400Y-49784000D01*
X45891400Y-49784000D02*
X45891400Y-50673000D01*
X44113400Y-51943000D02*
X44113400Y-52832000D01*
X44113400Y-52832000D02*
X45891400Y-52832000D01*
X45891400Y-52832000D02*
X45891400Y-51943000D01*
X43986400Y-58547000D02*
X46018400Y-58547000D01*
X44113400Y-58293000D02*
X44113400Y-57404000D01*
X44113400Y-57404000D02*
X45891400Y-57404000D01*
X45891400Y-57404000D02*
X45891400Y-58293000D01*
X44113400Y-59563000D02*
X44113400Y-60452000D01*
X44113400Y-60452000D02*
X45891400Y-60452000D01*
X45891400Y-60452000D02*
X45891400Y-59563000D01*
X43986400Y-66167000D02*
X46018400Y-66167000D01*
X44113400Y-65913000D02*
X44113400Y-65024000D01*
X44113400Y-65024000D02*
X45891400Y-65024000D01*
X45891400Y-65024000D02*
X45891400Y-65913000D01*
X44113400Y-67183000D02*
X44113400Y-68072000D01*
X44113400Y-68072000D02*
X45891400Y-68072000D01*
X45891400Y-68072000D02*
X45891400Y-67183000D01*
X43986400Y-73787000D02*
X46018400Y-73787000D01*
X44113400Y-73533000D02*
X44113400Y-72644000D01*
X44113400Y-72644000D02*
X45891400Y-72644000D01*
X45891400Y-72644000D02*
X45891400Y-73533000D01*
X44113400Y-74803000D02*
X44113400Y-75692000D01*
X44113400Y-75692000D02*
X45891400Y-75692000D01*
X45891400Y-75692000D02*
X45891400Y-74803000D01*
X43986400Y-81407000D02*
X46018400Y-81407000D01*
X44113400Y-81153000D02*
X44113400Y-80264000D01*
X44113400Y-80264000D02*
X45891400Y-80264000D01*
X45891400Y-80264000D02*
X45891400Y-81153000D01*
X44113400Y-82423000D02*
X44113400Y-83312000D01*
X44113400Y-83312000D02*
X45891400Y-83312000D01*
X45891400Y-83312000D02*
X45891400Y-82423000D01*
X36366400Y-29591000D02*
X36366400Y-28956000D01*
X36366400Y-28956000D02*
X37128400Y-28956000D01*
X37128400Y-28956000D02*
X37128400Y-29591000D01*
X36366400Y-29845000D02*
X36366400Y-30480000D01*
X36366400Y-30480000D02*
X37128400Y-30480000D01*
X37128400Y-30480000D02*
X37128400Y-29845000D01*
X36366400Y-39751000D02*
X36366400Y-39116000D01*
X36366400Y-39116000D02*
X37128400Y-39116000D01*
X37128400Y-39116000D02*
X37128400Y-39751000D01*
X36366400Y-40005000D02*
X36366400Y-40640000D01*
X36366400Y-40640000D02*
X37128400Y-40640000D01*
X37128400Y-40640000D02*
X37128400Y-40005000D01*
X36366400Y-44831000D02*
X36366400Y-44196000D01*
X36366400Y-44196000D02*
X37128400Y-44196000D01*
X37128400Y-44196000D02*
X37128400Y-44831000D01*
X36366400Y-45085000D02*
X36366400Y-45720000D01*
X36366400Y-45720000D02*
X37128400Y-45720000D01*
X37128400Y-45720000D02*
X37128400Y-45085000D01*
X36366400Y-52451000D02*
X36366400Y-51816000D01*
X36366400Y-51816000D02*
X37128400Y-51816000D01*
X37128400Y-51816000D02*
X37128400Y-52451000D01*
X36366400Y-52705000D02*
X36366400Y-53340000D01*
X36366400Y-53340000D02*
X37128400Y-53340000D01*
X37128400Y-53340000D02*
X37128400Y-52705000D01*
X36366400Y-60071000D02*
X36366400Y-59436000D01*
X36366400Y-59436000D02*
X37128400Y-59436000D01*
X37128400Y-59436000D02*
X37128400Y-60071000D01*
X36366400Y-60325000D02*
X36366400Y-60960000D01*
X36366400Y-60960000D02*
X37128400Y-60960000D01*
X37128400Y-60960000D02*
X37128400Y-60325000D01*
X36366400Y-67691000D02*
X36366400Y-67056000D01*
X36366400Y-67056000D02*
X37128400Y-67056000D01*
X37128400Y-67056000D02*
X37128400Y-67691000D01*
X36366400Y-67945000D02*
X36366400Y-68580000D01*
X36366400Y-68580000D02*
X37128400Y-68580000D01*
X37128400Y-68580000D02*
X37128400Y-67945000D01*
X36366400Y-77851000D02*
X36366400Y-77216000D01*
X36366400Y-77216000D02*
X37128400Y-77216000D01*
X37128400Y-77216000D02*
X37128400Y-77851000D01*
X36366400Y-78105000D02*
X36366400Y-78740000D01*
X36366400Y-78740000D02*
X37128400Y-78740000D01*
X37128400Y-78740000D02*
X37128400Y-78105000D01*
X36366400Y-82931000D02*
X36366400Y-82296000D01*
X36366400Y-82296000D02*
X37128400Y-82296000D01*
X37128400Y-82296000D02*
X37128400Y-82931000D01*
X36366400Y-83185000D02*
X36366400Y-83820000D01*
X36366400Y-83820000D02*
X37128400Y-83820000D01*
X37128400Y-83820000D02*
X37128400Y-83185000D01*
X34461400Y-29591000D02*
X34461400Y-28956000D01*
X34461400Y-28956000D02*
X35223400Y-28956000D01*
X35223400Y-28956000D02*
X35223400Y-29591000D01*
X34461400Y-29845000D02*
X34461400Y-30480000D01*
X34461400Y-30480000D02*
X35223400Y-30480000D01*
X35223400Y-30480000D02*
X35223400Y-29845000D01*
X38271400Y-29591000D02*
X38271400Y-28956000D01*
X38271400Y-28956000D02*
X39033400Y-28956000D01*
X39033400Y-28956000D02*
X39033400Y-29591000D01*
X38271400Y-29845000D02*
X38271400Y-30480000D01*
X38271400Y-30480000D02*
X39033400Y-30480000D01*
X39033400Y-30480000D02*
X39033400Y-29845000D01*
X34461400Y-39751000D02*
X34461400Y-39116000D01*
X34461400Y-39116000D02*
X35223400Y-39116000D01*
X35223400Y-39116000D02*
X35223400Y-39751000D01*
X34461400Y-40005000D02*
X34461400Y-40640000D01*
X34461400Y-40640000D02*
X35223400Y-40640000D01*
X35223400Y-40640000D02*
X35223400Y-40005000D01*
X38271400Y-39751000D02*
X38271400Y-39116000D01*
X38271400Y-39116000D02*
X39033400Y-39116000D01*
X39033400Y-39116000D02*
X39033400Y-39751000D01*
X38271400Y-40005000D02*
X38271400Y-40640000D01*
X38271400Y-40640000D02*
X39033400Y-40640000D01*
X39033400Y-40640000D02*
X39033400Y-40005000D01*
X34461400Y-44831000D02*
X34461400Y-44196000D01*
X34461400Y-44196000D02*
X35223400Y-44196000D01*
X35223400Y-44196000D02*
X35223400Y-44831000D01*
X34461400Y-45085000D02*
X34461400Y-45720000D01*
X34461400Y-45720000D02*
X35223400Y-45720000D01*
X35223400Y-45720000D02*
X35223400Y-45085000D01*
X38271400Y-44831000D02*
X38271400Y-44196000D01*
X38271400Y-44196000D02*
X39033400Y-44196000D01*
X39033400Y-44196000D02*
X39033400Y-44831000D01*
X38271400Y-45085000D02*
X38271400Y-45720000D01*
X38271400Y-45720000D02*
X39033400Y-45720000D01*
X39033400Y-45720000D02*
X39033400Y-45085000D01*
X34461400Y-52451000D02*
X34461400Y-51816000D01*
X34461400Y-51816000D02*
X35223400Y-51816000D01*
X35223400Y-51816000D02*
X35223400Y-52451000D01*
X34461400Y-52705000D02*
X34461400Y-53340000D01*
X34461400Y-53340000D02*
X35223400Y-53340000D01*
X35223400Y-53340000D02*
X35223400Y-52705000D01*
X38271400Y-52451000D02*
X38271400Y-51816000D01*
X38271400Y-51816000D02*
X39033400Y-51816000D01*
X39033400Y-51816000D02*
X39033400Y-52451000D01*
X38271400Y-52705000D02*
X38271400Y-53340000D01*
X38271400Y-53340000D02*
X39033400Y-53340000D01*
X39033400Y-53340000D02*
X39033400Y-52705000D01*
X34461400Y-60071000D02*
X34461400Y-59436000D01*
X34461400Y-59436000D02*
X35223400Y-59436000D01*
X35223400Y-59436000D02*
X35223400Y-60071000D01*
X34461400Y-60325000D02*
X34461400Y-60960000D01*
X34461400Y-60960000D02*
X35223400Y-60960000D01*
X35223400Y-60960000D02*
X35223400Y-60325000D01*
X38271400Y-60071000D02*
X38271400Y-59436000D01*
X38271400Y-59436000D02*
X39033400Y-59436000D01*
X39033400Y-59436000D02*
X39033400Y-60071000D01*
X38271400Y-60325000D02*
X38271400Y-60960000D01*
X38271400Y-60960000D02*
X39033400Y-60960000D01*
X39033400Y-60960000D02*
X39033400Y-60325000D01*
X34461400Y-67691000D02*
X34461400Y-67056000D01*
X34461400Y-67056000D02*
X35223400Y-67056000D01*
X35223400Y-67056000D02*
X35223400Y-67691000D01*
X34461400Y-67945000D02*
X34461400Y-68580000D01*
X34461400Y-68580000D02*
X35223400Y-68580000D01*
X35223400Y-68580000D02*
X35223400Y-67945000D01*
X38271400Y-67691000D02*
X38271400Y-67056000D01*
X38271400Y-67056000D02*
X39033400Y-67056000D01*
X39033400Y-67056000D02*
X39033400Y-67691000D01*
X38271400Y-67945000D02*
X38271400Y-68580000D01*
X38271400Y-68580000D02*
X39033400Y-68580000D01*
X39033400Y-68580000D02*
X39033400Y-67945000D01*
X34461400Y-77851000D02*
X34461400Y-77216000D01*
X34461400Y-77216000D02*
X35223400Y-77216000D01*
X35223400Y-77216000D02*
X35223400Y-77851000D01*
X34461400Y-78105000D02*
X34461400Y-78740000D01*
X34461400Y-78740000D02*
X35223400Y-78740000D01*
X35223400Y-78740000D02*
X35223400Y-78105000D01*
X38271400Y-77851000D02*
X38271400Y-77216000D01*
X38271400Y-77216000D02*
X39033400Y-77216000D01*
X39033400Y-77216000D02*
X39033400Y-77851000D01*
X38271400Y-78105000D02*
X38271400Y-78740000D01*
X38271400Y-78740000D02*
X39033400Y-78740000D01*
X39033400Y-78740000D02*
X39033400Y-78105000D01*
X34461400Y-82931000D02*
X34461400Y-82296000D01*
X34461400Y-82296000D02*
X35223400Y-82296000D01*
X35223400Y-82296000D02*
X35223400Y-82931000D01*
X34461400Y-83185000D02*
X34461400Y-83820000D01*
X34461400Y-83820000D02*
X35223400Y-83820000D01*
X35223400Y-83820000D02*
X35223400Y-83185000D01*
X38271400Y-82931000D02*
X38271400Y-82296000D01*
X38271400Y-82296000D02*
X39033400Y-82296000D01*
X39033400Y-82296000D02*
X39033400Y-82931000D01*
X38271400Y-83185000D02*
X38271400Y-83820000D01*
X38271400Y-83820000D02*
X39033400Y-83820000D01*
X39033400Y-83820000D02*
X39033400Y-83185000D01*
D14*
X31032500Y-26797000D02*
G75*
G03X31032500Y-26797000I-381000J0D01*
G01*
X27857500Y-25908000D02*
X31667500Y-25908000D01*
X27857500Y-30988000D02*
X31667500Y-30988000D01*
X31032500Y-34417000D02*
G75*
G03X31032500Y-34417000I-381000J0D01*
G01*
X27857500Y-33528000D02*
X31667500Y-33528000D01*
X27857500Y-38608000D02*
X31667500Y-38608000D01*
X31032500Y-42037000D02*
G75*
G03X31032500Y-42037000I-381000J0D01*
G01*
X27857500Y-41148000D02*
X31667500Y-41148000D01*
X27857500Y-46228000D02*
X31667500Y-46228000D01*
X31032500Y-49657000D02*
G75*
G03X31032500Y-49657000I-381000J0D01*
G01*
X27857500Y-48768000D02*
X31667500Y-48768000D01*
X27857500Y-53848000D02*
X31667500Y-53848000D01*
X31032500Y-57277000D02*
G75*
G03X31032500Y-57277000I-381000J0D01*
G01*
X27857500Y-56388000D02*
X31667500Y-56388000D01*
X27857500Y-61468000D02*
X31667500Y-61468000D01*
X31032500Y-64897000D02*
G75*
G03X31032500Y-64897000I-381000J0D01*
G01*
X27857500Y-64008000D02*
X31667500Y-64008000D01*
X27857500Y-69088000D02*
X31667500Y-69088000D01*
X31032500Y-72517000D02*
G75*
G03X31032500Y-72517000I-381000J0D01*
G01*
X27857500Y-71628000D02*
X31667500Y-71628000D01*
X27857500Y-76708000D02*
X31667500Y-76708000D01*
X31032500Y-80137000D02*
G75*
G03X31032500Y-80137000I-381000J0D01*
G01*
X27857500Y-79248000D02*
X31667500Y-79248000D01*
X27857500Y-84328000D02*
X31667500Y-84328000D01*
D13*
X41192400Y-27813000D02*
X43224400Y-27813000D01*
X41319400Y-27559000D02*
X41319400Y-26670000D01*
X41319400Y-26670000D02*
X43097400Y-26670000D01*
X43097400Y-26670000D02*
X43097400Y-27559000D01*
X41319400Y-29337000D02*
X41319400Y-30226000D01*
X41319400Y-30226000D02*
X43097400Y-30226000D01*
X43097400Y-30226000D02*
X43097400Y-29337000D01*
X41192400Y-35433000D02*
X43224400Y-35433000D01*
X41319400Y-35179000D02*
X41319400Y-34290000D01*
X41319400Y-34290000D02*
X43097400Y-34290000D01*
X43097400Y-34290000D02*
X43097400Y-35179000D01*
X41319400Y-36957000D02*
X41319400Y-37846000D01*
X41319400Y-37846000D02*
X43097400Y-37846000D01*
X43097400Y-37846000D02*
X43097400Y-36957000D01*
X41192400Y-43053000D02*
X43224400Y-43053000D01*
X41319400Y-42799000D02*
X41319400Y-41910000D01*
X41319400Y-41910000D02*
X43097400Y-41910000D01*
X43097400Y-41910000D02*
X43097400Y-42799000D01*
X41319400Y-44577000D02*
X41319400Y-45466000D01*
X41319400Y-45466000D02*
X43097400Y-45466000D01*
X43097400Y-45466000D02*
X43097400Y-44577000D01*
X41192400Y-50673000D02*
X43224400Y-50673000D01*
X41319400Y-50419000D02*
X41319400Y-49530000D01*
X41319400Y-49530000D02*
X43097400Y-49530000D01*
X43097400Y-49530000D02*
X43097400Y-50419000D01*
X41319400Y-52197000D02*
X41319400Y-53086000D01*
X41319400Y-53086000D02*
X43097400Y-53086000D01*
X43097400Y-53086000D02*
X43097400Y-52197000D01*
X41192400Y-58293000D02*
X43224400Y-58293000D01*
X41319400Y-58039000D02*
X41319400Y-57150000D01*
X41319400Y-57150000D02*
X43097400Y-57150000D01*
X43097400Y-57150000D02*
X43097400Y-58039000D01*
X41319400Y-59817000D02*
X41319400Y-60706000D01*
X41319400Y-60706000D02*
X43097400Y-60706000D01*
X43097400Y-60706000D02*
X43097400Y-59817000D01*
X41192400Y-65913000D02*
X43224400Y-65913000D01*
X41319400Y-65659000D02*
X41319400Y-64770000D01*
X41319400Y-64770000D02*
X43097400Y-64770000D01*
X43097400Y-64770000D02*
X43097400Y-65659000D01*
X41319400Y-67437000D02*
X41319400Y-68326000D01*
X41319400Y-68326000D02*
X43097400Y-68326000D01*
X43097400Y-68326000D02*
X43097400Y-67437000D01*
X41192400Y-73533000D02*
X43224400Y-73533000D01*
X41319400Y-73279000D02*
X41319400Y-72390000D01*
X41319400Y-72390000D02*
X43097400Y-72390000D01*
X43097400Y-72390000D02*
X43097400Y-73279000D01*
X41319400Y-75057000D02*
X41319400Y-75946000D01*
X41319400Y-75946000D02*
X43097400Y-75946000D01*
X43097400Y-75946000D02*
X43097400Y-75057000D01*
X41192400Y-81153000D02*
X43224400Y-81153000D01*
X41319400Y-80899000D02*
X41319400Y-80010000D01*
X41319400Y-80010000D02*
X43097400Y-80010000D01*
X43097400Y-80010000D02*
X43097400Y-80899000D01*
X41319400Y-82677000D02*
X41319400Y-83566000D01*
X41319400Y-83566000D02*
X43097400Y-83566000D01*
X43097400Y-83566000D02*
X43097400Y-82677000D01*
D15*
X45564828Y-26633714D02*
X45564828Y-25871714D01*
X45383400Y-25871714D01*
X45274543Y-25908000D01*
X45201971Y-25980571D01*
X45165686Y-26053143D01*
X45129400Y-26198286D01*
X45129400Y-26307143D01*
X45165686Y-26452286D01*
X45201971Y-26524857D01*
X45274543Y-26597429D01*
X45383400Y-26633714D01*
X45564828Y-26633714D01*
X44403686Y-26633714D02*
X44839114Y-26633714D01*
X44621400Y-26633714D02*
X44621400Y-25871714D01*
X44693971Y-25980571D01*
X44766543Y-26053143D01*
X44839114Y-26089429D01*
X45564828Y-34253714D02*
X45564828Y-33491714D01*
X45383400Y-33491714D01*
X45274543Y-33528000D01*
X45201971Y-33600571D01*
X45165686Y-33673143D01*
X45129400Y-33818286D01*
X45129400Y-33927143D01*
X45165686Y-34072286D01*
X45201971Y-34144857D01*
X45274543Y-34217429D01*
X45383400Y-34253714D01*
X45564828Y-34253714D01*
X44839114Y-33564286D02*
X44802828Y-33528000D01*
X44730257Y-33491714D01*
X44548828Y-33491714D01*
X44476257Y-33528000D01*
X44439971Y-33564286D01*
X44403686Y-33636857D01*
X44403686Y-33709429D01*
X44439971Y-33818286D01*
X44875400Y-34253714D01*
X44403686Y-34253714D01*
X45564828Y-41873714D02*
X45564828Y-41111714D01*
X45383400Y-41111714D01*
X45274543Y-41148000D01*
X45201971Y-41220571D01*
X45165686Y-41293143D01*
X45129400Y-41438286D01*
X45129400Y-41547143D01*
X45165686Y-41692286D01*
X45201971Y-41764857D01*
X45274543Y-41837429D01*
X45383400Y-41873714D01*
X45564828Y-41873714D01*
X44875400Y-41111714D02*
X44403686Y-41111714D01*
X44657686Y-41402000D01*
X44548828Y-41402000D01*
X44476257Y-41438286D01*
X44439971Y-41474571D01*
X44403686Y-41547143D01*
X44403686Y-41728571D01*
X44439971Y-41801143D01*
X44476257Y-41837429D01*
X44548828Y-41873714D01*
X44766543Y-41873714D01*
X44839114Y-41837429D01*
X44875400Y-41801143D01*
X45564828Y-49493714D02*
X45564828Y-48731714D01*
X45383400Y-48731714D01*
X45274543Y-48768000D01*
X45201971Y-48840571D01*
X45165686Y-48913143D01*
X45129400Y-49058286D01*
X45129400Y-49167143D01*
X45165686Y-49312286D01*
X45201971Y-49384857D01*
X45274543Y-49457429D01*
X45383400Y-49493714D01*
X45564828Y-49493714D01*
X44476257Y-48985714D02*
X44476257Y-49493714D01*
X44657686Y-48695429D02*
X44839114Y-49239714D01*
X44367400Y-49239714D01*
X45564828Y-57113714D02*
X45564828Y-56351714D01*
X45383400Y-56351714D01*
X45274543Y-56388000D01*
X45201971Y-56460571D01*
X45165686Y-56533143D01*
X45129400Y-56678286D01*
X45129400Y-56787143D01*
X45165686Y-56932286D01*
X45201971Y-57004857D01*
X45274543Y-57077429D01*
X45383400Y-57113714D01*
X45564828Y-57113714D01*
X44439971Y-56351714D02*
X44802828Y-56351714D01*
X44839114Y-56714571D01*
X44802828Y-56678286D01*
X44730257Y-56642000D01*
X44548828Y-56642000D01*
X44476257Y-56678286D01*
X44439971Y-56714571D01*
X44403686Y-56787143D01*
X44403686Y-56968571D01*
X44439971Y-57041143D01*
X44476257Y-57077429D01*
X44548828Y-57113714D01*
X44730257Y-57113714D01*
X44802828Y-57077429D01*
X44839114Y-57041143D01*
X45564828Y-64733714D02*
X45564828Y-63971714D01*
X45383400Y-63971714D01*
X45274543Y-64008000D01*
X45201971Y-64080571D01*
X45165686Y-64153143D01*
X45129400Y-64298286D01*
X45129400Y-64407143D01*
X45165686Y-64552286D01*
X45201971Y-64624857D01*
X45274543Y-64697429D01*
X45383400Y-64733714D01*
X45564828Y-64733714D01*
X44476257Y-63971714D02*
X44621400Y-63971714D01*
X44693971Y-64008000D01*
X44730257Y-64044286D01*
X44802828Y-64153143D01*
X44839114Y-64298286D01*
X44839114Y-64588571D01*
X44802828Y-64661143D01*
X44766543Y-64697429D01*
X44693971Y-64733714D01*
X44548828Y-64733714D01*
X44476257Y-64697429D01*
X44439971Y-64661143D01*
X44403686Y-64588571D01*
X44403686Y-64407143D01*
X44439971Y-64334571D01*
X44476257Y-64298286D01*
X44548828Y-64262000D01*
X44693971Y-64262000D01*
X44766543Y-64298286D01*
X44802828Y-64334571D01*
X44839114Y-64407143D01*
X45564828Y-72353714D02*
X45564828Y-71591714D01*
X45383400Y-71591714D01*
X45274543Y-71628000D01*
X45201971Y-71700571D01*
X45165686Y-71773143D01*
X45129400Y-71918286D01*
X45129400Y-72027143D01*
X45165686Y-72172286D01*
X45201971Y-72244857D01*
X45274543Y-72317429D01*
X45383400Y-72353714D01*
X45564828Y-72353714D01*
X44875400Y-71591714D02*
X44367400Y-71591714D01*
X44693971Y-72353714D01*
X45564828Y-79973714D02*
X45564828Y-79211714D01*
X45383400Y-79211714D01*
X45274543Y-79248000D01*
X45201971Y-79320571D01*
X45165686Y-79393143D01*
X45129400Y-79538286D01*
X45129400Y-79647143D01*
X45165686Y-79792286D01*
X45201971Y-79864857D01*
X45274543Y-79937429D01*
X45383400Y-79973714D01*
X45564828Y-79973714D01*
X44693971Y-79538286D02*
X44766543Y-79502000D01*
X44802828Y-79465714D01*
X44839114Y-79393143D01*
X44839114Y-79356857D01*
X44802828Y-79284286D01*
X44766543Y-79248000D01*
X44693971Y-79211714D01*
X44548828Y-79211714D01*
X44476257Y-79248000D01*
X44439971Y-79284286D01*
X44403686Y-79356857D01*
X44403686Y-79393143D01*
X44439971Y-79465714D01*
X44476257Y-79502000D01*
X44548828Y-79538286D01*
X44693971Y-79538286D01*
X44766543Y-79574571D01*
X44802828Y-79610857D01*
X44839114Y-79683429D01*
X44839114Y-79828571D01*
X44802828Y-79901143D01*
X44766543Y-79937429D01*
X44693971Y-79973714D01*
X44548828Y-79973714D01*
X44476257Y-79937429D01*
X44439971Y-79901143D01*
X44403686Y-79828571D01*
X44403686Y-79683429D01*
X44439971Y-79610857D01*
X44476257Y-79574571D01*
X44548828Y-79538286D01*
D13*
X36832067Y-28756429D02*
X36856257Y-28780619D01*
X36928829Y-28804810D01*
X36977210Y-28804810D01*
X37049781Y-28780619D01*
X37098162Y-28732238D01*
X37122353Y-28683857D01*
X37146543Y-28587095D01*
X37146543Y-28514524D01*
X37122353Y-28417762D01*
X37098162Y-28369381D01*
X37049781Y-28321000D01*
X36977210Y-28296810D01*
X36928829Y-28296810D01*
X36856257Y-28321000D01*
X36832067Y-28345190D01*
X36638543Y-28345190D02*
X36614353Y-28321000D01*
X36565972Y-28296810D01*
X36445019Y-28296810D01*
X36396638Y-28321000D01*
X36372448Y-28345190D01*
X36348257Y-28393571D01*
X36348257Y-28441952D01*
X36372448Y-28514524D01*
X36662734Y-28804810D01*
X36348257Y-28804810D01*
X36215210Y-29173714D02*
X36215210Y-28883428D01*
X36215210Y-29028571D02*
X35707210Y-29028571D01*
X35779781Y-28980190D01*
X35828162Y-28931809D01*
X35852352Y-28883428D01*
X35707210Y-29488190D02*
X35707210Y-29536571D01*
X35731400Y-29584952D01*
X35755590Y-29609143D01*
X35803971Y-29633333D01*
X35900733Y-29657524D01*
X36021686Y-29657524D01*
X36118448Y-29633333D01*
X36166829Y-29609143D01*
X36191019Y-29584952D01*
X36215210Y-29536571D01*
X36215210Y-29488190D01*
X36191019Y-29439809D01*
X36166829Y-29415619D01*
X36118448Y-29391428D01*
X36021686Y-29367238D01*
X35900733Y-29367238D01*
X35803971Y-29391428D01*
X35755590Y-29415619D01*
X35731400Y-29439809D01*
X35707210Y-29488190D01*
X35876543Y-29875238D02*
X36215210Y-29875238D01*
X35924924Y-29875238D02*
X35900733Y-29899429D01*
X35876543Y-29947810D01*
X35876543Y-30020381D01*
X35900733Y-30068762D01*
X35949114Y-30092953D01*
X36215210Y-30092953D01*
X35949114Y-30504191D02*
X35949114Y-30334857D01*
X36215210Y-30334857D02*
X35707210Y-30334857D01*
X35707210Y-30576762D01*
X36832067Y-38916429D02*
X36856257Y-38940619D01*
X36928829Y-38964810D01*
X36977210Y-38964810D01*
X37049781Y-38940619D01*
X37098162Y-38892238D01*
X37122353Y-38843857D01*
X37146543Y-38747095D01*
X37146543Y-38674524D01*
X37122353Y-38577762D01*
X37098162Y-38529381D01*
X37049781Y-38481000D01*
X36977210Y-38456810D01*
X36928829Y-38456810D01*
X36856257Y-38481000D01*
X36832067Y-38505190D01*
X36396638Y-38626143D02*
X36396638Y-38964810D01*
X36517591Y-38432619D02*
X36638543Y-38795476D01*
X36324067Y-38795476D01*
X36215210Y-39333714D02*
X36215210Y-39043428D01*
X36215210Y-39188571D02*
X35707210Y-39188571D01*
X35779781Y-39140190D01*
X35828162Y-39091809D01*
X35852352Y-39043428D01*
X35707210Y-39648190D02*
X35707210Y-39696571D01*
X35731400Y-39744952D01*
X35755590Y-39769143D01*
X35803971Y-39793333D01*
X35900733Y-39817524D01*
X36021686Y-39817524D01*
X36118448Y-39793333D01*
X36166829Y-39769143D01*
X36191019Y-39744952D01*
X36215210Y-39696571D01*
X36215210Y-39648190D01*
X36191019Y-39599809D01*
X36166829Y-39575619D01*
X36118448Y-39551428D01*
X36021686Y-39527238D01*
X35900733Y-39527238D01*
X35803971Y-39551428D01*
X35755590Y-39575619D01*
X35731400Y-39599809D01*
X35707210Y-39648190D01*
X35876543Y-40035238D02*
X36215210Y-40035238D01*
X35924924Y-40035238D02*
X35900733Y-40059429D01*
X35876543Y-40107810D01*
X35876543Y-40180381D01*
X35900733Y-40228762D01*
X35949114Y-40252953D01*
X36215210Y-40252953D01*
X35949114Y-40664191D02*
X35949114Y-40494857D01*
X36215210Y-40494857D02*
X35707210Y-40494857D01*
X35707210Y-40736762D01*
X36832067Y-43996429D02*
X36856257Y-44020619D01*
X36928829Y-44044810D01*
X36977210Y-44044810D01*
X37049781Y-44020619D01*
X37098162Y-43972238D01*
X37122353Y-43923857D01*
X37146543Y-43827095D01*
X37146543Y-43754524D01*
X37122353Y-43657762D01*
X37098162Y-43609381D01*
X37049781Y-43561000D01*
X36977210Y-43536810D01*
X36928829Y-43536810D01*
X36856257Y-43561000D01*
X36832067Y-43585190D01*
X36396638Y-43536810D02*
X36493400Y-43536810D01*
X36541781Y-43561000D01*
X36565972Y-43585190D01*
X36614353Y-43657762D01*
X36638543Y-43754524D01*
X36638543Y-43948048D01*
X36614353Y-43996429D01*
X36590162Y-44020619D01*
X36541781Y-44044810D01*
X36445019Y-44044810D01*
X36396638Y-44020619D01*
X36372448Y-43996429D01*
X36348257Y-43948048D01*
X36348257Y-43827095D01*
X36372448Y-43778714D01*
X36396638Y-43754524D01*
X36445019Y-43730333D01*
X36541781Y-43730333D01*
X36590162Y-43754524D01*
X36614353Y-43778714D01*
X36638543Y-43827095D01*
X36215210Y-44413714D02*
X36215210Y-44123428D01*
X36215210Y-44268571D02*
X35707210Y-44268571D01*
X35779781Y-44220190D01*
X35828162Y-44171809D01*
X35852352Y-44123428D01*
X35707210Y-44728190D02*
X35707210Y-44776571D01*
X35731400Y-44824952D01*
X35755590Y-44849143D01*
X35803971Y-44873333D01*
X35900733Y-44897524D01*
X36021686Y-44897524D01*
X36118448Y-44873333D01*
X36166829Y-44849143D01*
X36191019Y-44824952D01*
X36215210Y-44776571D01*
X36215210Y-44728190D01*
X36191019Y-44679809D01*
X36166829Y-44655619D01*
X36118448Y-44631428D01*
X36021686Y-44607238D01*
X35900733Y-44607238D01*
X35803971Y-44631428D01*
X35755590Y-44655619D01*
X35731400Y-44679809D01*
X35707210Y-44728190D01*
X35876543Y-45115238D02*
X36215210Y-45115238D01*
X35924924Y-45115238D02*
X35900733Y-45139429D01*
X35876543Y-45187810D01*
X35876543Y-45260381D01*
X35900733Y-45308762D01*
X35949114Y-45332953D01*
X36215210Y-45332953D01*
X35949114Y-45744191D02*
X35949114Y-45574857D01*
X36215210Y-45574857D02*
X35707210Y-45574857D01*
X35707210Y-45816762D01*
X36832067Y-51616429D02*
X36856257Y-51640619D01*
X36928829Y-51664810D01*
X36977210Y-51664810D01*
X37049781Y-51640619D01*
X37098162Y-51592238D01*
X37122353Y-51543857D01*
X37146543Y-51447095D01*
X37146543Y-51374524D01*
X37122353Y-51277762D01*
X37098162Y-51229381D01*
X37049781Y-51181000D01*
X36977210Y-51156810D01*
X36928829Y-51156810D01*
X36856257Y-51181000D01*
X36832067Y-51205190D01*
X36541781Y-51374524D02*
X36590162Y-51350333D01*
X36614353Y-51326143D01*
X36638543Y-51277762D01*
X36638543Y-51253571D01*
X36614353Y-51205190D01*
X36590162Y-51181000D01*
X36541781Y-51156810D01*
X36445019Y-51156810D01*
X36396638Y-51181000D01*
X36372448Y-51205190D01*
X36348257Y-51253571D01*
X36348257Y-51277762D01*
X36372448Y-51326143D01*
X36396638Y-51350333D01*
X36445019Y-51374524D01*
X36541781Y-51374524D01*
X36590162Y-51398714D01*
X36614353Y-51422905D01*
X36638543Y-51471286D01*
X36638543Y-51568048D01*
X36614353Y-51616429D01*
X36590162Y-51640619D01*
X36541781Y-51664810D01*
X36445019Y-51664810D01*
X36396638Y-51640619D01*
X36372448Y-51616429D01*
X36348257Y-51568048D01*
X36348257Y-51471286D01*
X36372448Y-51422905D01*
X36396638Y-51398714D01*
X36445019Y-51374524D01*
X36215210Y-52033714D02*
X36215210Y-51743428D01*
X36215210Y-51888571D02*
X35707210Y-51888571D01*
X35779781Y-51840190D01*
X35828162Y-51791809D01*
X35852352Y-51743428D01*
X35707210Y-52348190D02*
X35707210Y-52396571D01*
X35731400Y-52444952D01*
X35755590Y-52469143D01*
X35803971Y-52493333D01*
X35900733Y-52517524D01*
X36021686Y-52517524D01*
X36118448Y-52493333D01*
X36166829Y-52469143D01*
X36191019Y-52444952D01*
X36215210Y-52396571D01*
X36215210Y-52348190D01*
X36191019Y-52299809D01*
X36166829Y-52275619D01*
X36118448Y-52251428D01*
X36021686Y-52227238D01*
X35900733Y-52227238D01*
X35803971Y-52251428D01*
X35755590Y-52275619D01*
X35731400Y-52299809D01*
X35707210Y-52348190D01*
X35876543Y-52735238D02*
X36215210Y-52735238D01*
X35924924Y-52735238D02*
X35900733Y-52759429D01*
X35876543Y-52807810D01*
X35876543Y-52880381D01*
X35900733Y-52928762D01*
X35949114Y-52952953D01*
X36215210Y-52952953D01*
X35949114Y-53364191D02*
X35949114Y-53194857D01*
X36215210Y-53194857D02*
X35707210Y-53194857D01*
X35707210Y-53436762D01*
X37073972Y-59236429D02*
X37098162Y-59260619D01*
X37170734Y-59284810D01*
X37219115Y-59284810D01*
X37291686Y-59260619D01*
X37340067Y-59212238D01*
X37364258Y-59163857D01*
X37388448Y-59067095D01*
X37388448Y-58994524D01*
X37364258Y-58897762D01*
X37340067Y-58849381D01*
X37291686Y-58801000D01*
X37219115Y-58776810D01*
X37170734Y-58776810D01*
X37098162Y-58801000D01*
X37073972Y-58825190D01*
X36590162Y-59284810D02*
X36880448Y-59284810D01*
X36735305Y-59284810D02*
X36735305Y-58776810D01*
X36783686Y-58849381D01*
X36832067Y-58897762D01*
X36880448Y-58921952D01*
X36275686Y-58776810D02*
X36227305Y-58776810D01*
X36178924Y-58801000D01*
X36154733Y-58825190D01*
X36130543Y-58873571D01*
X36106352Y-58970333D01*
X36106352Y-59091286D01*
X36130543Y-59188048D01*
X36154733Y-59236429D01*
X36178924Y-59260619D01*
X36227305Y-59284810D01*
X36275686Y-59284810D01*
X36324067Y-59260619D01*
X36348257Y-59236429D01*
X36372448Y-59188048D01*
X36396638Y-59091286D01*
X36396638Y-58970333D01*
X36372448Y-58873571D01*
X36348257Y-58825190D01*
X36324067Y-58801000D01*
X36275686Y-58776810D01*
X36215210Y-59653714D02*
X36215210Y-59363428D01*
X36215210Y-59508571D02*
X35707210Y-59508571D01*
X35779781Y-59460190D01*
X35828162Y-59411809D01*
X35852352Y-59363428D01*
X35707210Y-59968190D02*
X35707210Y-60016571D01*
X35731400Y-60064952D01*
X35755590Y-60089143D01*
X35803971Y-60113333D01*
X35900733Y-60137524D01*
X36021686Y-60137524D01*
X36118448Y-60113333D01*
X36166829Y-60089143D01*
X36191019Y-60064952D01*
X36215210Y-60016571D01*
X36215210Y-59968190D01*
X36191019Y-59919809D01*
X36166829Y-59895619D01*
X36118448Y-59871428D01*
X36021686Y-59847238D01*
X35900733Y-59847238D01*
X35803971Y-59871428D01*
X35755590Y-59895619D01*
X35731400Y-59919809D01*
X35707210Y-59968190D01*
X35876543Y-60355238D02*
X36215210Y-60355238D01*
X35924924Y-60355238D02*
X35900733Y-60379429D01*
X35876543Y-60427810D01*
X35876543Y-60500381D01*
X35900733Y-60548762D01*
X35949114Y-60572953D01*
X36215210Y-60572953D01*
X35949114Y-60984191D02*
X35949114Y-60814857D01*
X36215210Y-60814857D02*
X35707210Y-60814857D01*
X35707210Y-61056762D01*
X37073972Y-66856429D02*
X37098162Y-66880619D01*
X37170734Y-66904810D01*
X37219115Y-66904810D01*
X37291686Y-66880619D01*
X37340067Y-66832238D01*
X37364258Y-66783857D01*
X37388448Y-66687095D01*
X37388448Y-66614524D01*
X37364258Y-66517762D01*
X37340067Y-66469381D01*
X37291686Y-66421000D01*
X37219115Y-66396810D01*
X37170734Y-66396810D01*
X37098162Y-66421000D01*
X37073972Y-66445190D01*
X36590162Y-66904810D02*
X36880448Y-66904810D01*
X36735305Y-66904810D02*
X36735305Y-66396810D01*
X36783686Y-66469381D01*
X36832067Y-66517762D01*
X36880448Y-66541952D01*
X36396638Y-66445190D02*
X36372448Y-66421000D01*
X36324067Y-66396810D01*
X36203114Y-66396810D01*
X36154733Y-66421000D01*
X36130543Y-66445190D01*
X36106352Y-66493571D01*
X36106352Y-66541952D01*
X36130543Y-66614524D01*
X36420829Y-66904810D01*
X36106352Y-66904810D01*
X36215210Y-67273714D02*
X36215210Y-66983428D01*
X36215210Y-67128571D02*
X35707210Y-67128571D01*
X35779781Y-67080190D01*
X35828162Y-67031809D01*
X35852352Y-66983428D01*
X35707210Y-67588190D02*
X35707210Y-67636571D01*
X35731400Y-67684952D01*
X35755590Y-67709143D01*
X35803971Y-67733333D01*
X35900733Y-67757524D01*
X36021686Y-67757524D01*
X36118448Y-67733333D01*
X36166829Y-67709143D01*
X36191019Y-67684952D01*
X36215210Y-67636571D01*
X36215210Y-67588190D01*
X36191019Y-67539809D01*
X36166829Y-67515619D01*
X36118448Y-67491428D01*
X36021686Y-67467238D01*
X35900733Y-67467238D01*
X35803971Y-67491428D01*
X35755590Y-67515619D01*
X35731400Y-67539809D01*
X35707210Y-67588190D01*
X35876543Y-67975238D02*
X36215210Y-67975238D01*
X35924924Y-67975238D02*
X35900733Y-67999429D01*
X35876543Y-68047810D01*
X35876543Y-68120381D01*
X35900733Y-68168762D01*
X35949114Y-68192953D01*
X36215210Y-68192953D01*
X35949114Y-68604191D02*
X35949114Y-68434857D01*
X36215210Y-68434857D02*
X35707210Y-68434857D01*
X35707210Y-68676762D01*
X37073972Y-77016429D02*
X37098162Y-77040619D01*
X37170734Y-77064810D01*
X37219115Y-77064810D01*
X37291686Y-77040619D01*
X37340067Y-76992238D01*
X37364258Y-76943857D01*
X37388448Y-76847095D01*
X37388448Y-76774524D01*
X37364258Y-76677762D01*
X37340067Y-76629381D01*
X37291686Y-76581000D01*
X37219115Y-76556810D01*
X37170734Y-76556810D01*
X37098162Y-76581000D01*
X37073972Y-76605190D01*
X36590162Y-77064810D02*
X36880448Y-77064810D01*
X36735305Y-77064810D02*
X36735305Y-76556810D01*
X36783686Y-76629381D01*
X36832067Y-76677762D01*
X36880448Y-76701952D01*
X36154733Y-76726143D02*
X36154733Y-77064810D01*
X36275686Y-76532619D02*
X36396638Y-76895476D01*
X36082162Y-76895476D01*
X36215210Y-77433714D02*
X36215210Y-77143428D01*
X36215210Y-77288571D02*
X35707210Y-77288571D01*
X35779781Y-77240190D01*
X35828162Y-77191809D01*
X35852352Y-77143428D01*
X35707210Y-77748190D02*
X35707210Y-77796571D01*
X35731400Y-77844952D01*
X35755590Y-77869143D01*
X35803971Y-77893333D01*
X35900733Y-77917524D01*
X36021686Y-77917524D01*
X36118448Y-77893333D01*
X36166829Y-77869143D01*
X36191019Y-77844952D01*
X36215210Y-77796571D01*
X36215210Y-77748190D01*
X36191019Y-77699809D01*
X36166829Y-77675619D01*
X36118448Y-77651428D01*
X36021686Y-77627238D01*
X35900733Y-77627238D01*
X35803971Y-77651428D01*
X35755590Y-77675619D01*
X35731400Y-77699809D01*
X35707210Y-77748190D01*
X35876543Y-78135238D02*
X36215210Y-78135238D01*
X35924924Y-78135238D02*
X35900733Y-78159429D01*
X35876543Y-78207810D01*
X35876543Y-78280381D01*
X35900733Y-78328762D01*
X35949114Y-78352953D01*
X36215210Y-78352953D01*
X35949114Y-78764191D02*
X35949114Y-78594857D01*
X36215210Y-78594857D02*
X35707210Y-78594857D01*
X35707210Y-78836762D01*
X37073972Y-82096429D02*
X37098162Y-82120619D01*
X37170734Y-82144810D01*
X37219115Y-82144810D01*
X37291686Y-82120619D01*
X37340067Y-82072238D01*
X37364258Y-82023857D01*
X37388448Y-81927095D01*
X37388448Y-81854524D01*
X37364258Y-81757762D01*
X37340067Y-81709381D01*
X37291686Y-81661000D01*
X37219115Y-81636810D01*
X37170734Y-81636810D01*
X37098162Y-81661000D01*
X37073972Y-81685190D01*
X36590162Y-82144810D02*
X36880448Y-82144810D01*
X36735305Y-82144810D02*
X36735305Y-81636810D01*
X36783686Y-81709381D01*
X36832067Y-81757762D01*
X36880448Y-81781952D01*
X36154733Y-81636810D02*
X36251495Y-81636810D01*
X36299876Y-81661000D01*
X36324067Y-81685190D01*
X36372448Y-81757762D01*
X36396638Y-81854524D01*
X36396638Y-82048048D01*
X36372448Y-82096429D01*
X36348257Y-82120619D01*
X36299876Y-82144810D01*
X36203114Y-82144810D01*
X36154733Y-82120619D01*
X36130543Y-82096429D01*
X36106352Y-82048048D01*
X36106352Y-81927095D01*
X36130543Y-81878714D01*
X36154733Y-81854524D01*
X36203114Y-81830333D01*
X36299876Y-81830333D01*
X36348257Y-81854524D01*
X36372448Y-81878714D01*
X36396638Y-81927095D01*
X36215210Y-82513714D02*
X36215210Y-82223428D01*
X36215210Y-82368571D02*
X35707210Y-82368571D01*
X35779781Y-82320190D01*
X35828162Y-82271809D01*
X35852352Y-82223428D01*
X35707210Y-82828190D02*
X35707210Y-82876571D01*
X35731400Y-82924952D01*
X35755590Y-82949143D01*
X35803971Y-82973333D01*
X35900733Y-82997524D01*
X36021686Y-82997524D01*
X36118448Y-82973333D01*
X36166829Y-82949143D01*
X36191019Y-82924952D01*
X36215210Y-82876571D01*
X36215210Y-82828190D01*
X36191019Y-82779809D01*
X36166829Y-82755619D01*
X36118448Y-82731428D01*
X36021686Y-82707238D01*
X35900733Y-82707238D01*
X35803971Y-82731428D01*
X35755590Y-82755619D01*
X35731400Y-82779809D01*
X35707210Y-82828190D01*
X35876543Y-83215238D02*
X36215210Y-83215238D01*
X35924924Y-83215238D02*
X35900733Y-83239429D01*
X35876543Y-83287810D01*
X35876543Y-83360381D01*
X35900733Y-83408762D01*
X35949114Y-83432953D01*
X36215210Y-83432953D01*
X35949114Y-83844191D02*
X35949114Y-83674857D01*
X36215210Y-83674857D02*
X35707210Y-83674857D01*
X35707210Y-83916762D01*
X34927067Y-28804810D02*
X35096400Y-28562905D01*
X35217353Y-28804810D02*
X35217353Y-28296810D01*
X35023829Y-28296810D01*
X34975448Y-28321000D01*
X34951257Y-28345190D01*
X34927067Y-28393571D01*
X34927067Y-28466143D01*
X34951257Y-28514524D01*
X34975448Y-28538714D01*
X35023829Y-28562905D01*
X35217353Y-28562905D01*
X34443257Y-28804810D02*
X34733543Y-28804810D01*
X34588400Y-28804810D02*
X34588400Y-28296810D01*
X34636781Y-28369381D01*
X34685162Y-28417762D01*
X34733543Y-28441952D01*
X33850590Y-28883428D02*
X33826400Y-28907618D01*
X33802210Y-28955999D01*
X33802210Y-29076952D01*
X33826400Y-29125333D01*
X33850590Y-29149523D01*
X33898971Y-29173714D01*
X33947352Y-29173714D01*
X34019924Y-29149523D01*
X34310210Y-28859237D01*
X34310210Y-29173714D01*
X33802210Y-29488190D02*
X33802210Y-29536571D01*
X33826400Y-29584952D01*
X33850590Y-29609143D01*
X33898971Y-29633333D01*
X33995733Y-29657524D01*
X34116686Y-29657524D01*
X34213448Y-29633333D01*
X34261829Y-29609143D01*
X34286019Y-29584952D01*
X34310210Y-29536571D01*
X34310210Y-29488190D01*
X34286019Y-29439809D01*
X34261829Y-29415619D01*
X34213448Y-29391428D01*
X34116686Y-29367238D01*
X33995733Y-29367238D01*
X33898971Y-29391428D01*
X33850590Y-29415619D01*
X33826400Y-29439809D01*
X33802210Y-29488190D01*
X33802210Y-30117143D02*
X33802210Y-29875238D01*
X34044114Y-29851048D01*
X34019924Y-29875238D01*
X33995733Y-29923619D01*
X33995733Y-30044572D01*
X34019924Y-30092953D01*
X34044114Y-30117143D01*
X34092495Y-30141334D01*
X34213448Y-30141334D01*
X34261829Y-30117143D01*
X34286019Y-30092953D01*
X34310210Y-30044572D01*
X34310210Y-29923619D01*
X34286019Y-29875238D01*
X34261829Y-29851048D01*
X34310210Y-30359048D02*
X33802210Y-30359048D01*
X34116686Y-30407429D02*
X34310210Y-30552572D01*
X33971543Y-30552572D02*
X34165067Y-30359048D01*
X38737067Y-28804810D02*
X38906400Y-28562905D01*
X39027353Y-28804810D02*
X39027353Y-28296810D01*
X38833829Y-28296810D01*
X38785448Y-28321000D01*
X38761257Y-28345190D01*
X38737067Y-28393571D01*
X38737067Y-28466143D01*
X38761257Y-28514524D01*
X38785448Y-28538714D01*
X38833829Y-28562905D01*
X39027353Y-28562905D01*
X38543543Y-28345190D02*
X38519353Y-28321000D01*
X38470972Y-28296810D01*
X38350019Y-28296810D01*
X38301638Y-28321000D01*
X38277448Y-28345190D01*
X38253257Y-28393571D01*
X38253257Y-28441952D01*
X38277448Y-28514524D01*
X38567734Y-28804810D01*
X38253257Y-28804810D01*
X38120210Y-29173714D02*
X38120210Y-28883428D01*
X38120210Y-29028571D02*
X37612210Y-29028571D01*
X37684781Y-28980190D01*
X37733162Y-28931809D01*
X37757352Y-28883428D01*
X37612210Y-29343047D02*
X37612210Y-29657524D01*
X37805733Y-29488190D01*
X37805733Y-29560762D01*
X37829924Y-29609143D01*
X37854114Y-29633333D01*
X37902495Y-29657524D01*
X38023448Y-29657524D01*
X38071829Y-29633333D01*
X38096019Y-29609143D01*
X38120210Y-29560762D01*
X38120210Y-29415619D01*
X38096019Y-29367238D01*
X38071829Y-29343047D01*
X37612210Y-29826857D02*
X37612210Y-30165524D01*
X38120210Y-29947810D01*
X38120210Y-30359048D02*
X37612210Y-30359048D01*
X37926686Y-30407429D02*
X38120210Y-30552572D01*
X37781543Y-30552572D02*
X37975067Y-30359048D01*
X34927067Y-38964810D02*
X35096400Y-38722905D01*
X35217353Y-38964810D02*
X35217353Y-38456810D01*
X35023829Y-38456810D01*
X34975448Y-38481000D01*
X34951257Y-38505190D01*
X34927067Y-38553571D01*
X34927067Y-38626143D01*
X34951257Y-38674524D01*
X34975448Y-38698714D01*
X35023829Y-38722905D01*
X35217353Y-38722905D01*
X34757734Y-38456810D02*
X34443257Y-38456810D01*
X34612591Y-38650333D01*
X34540019Y-38650333D01*
X34491638Y-38674524D01*
X34467448Y-38698714D01*
X34443257Y-38747095D01*
X34443257Y-38868048D01*
X34467448Y-38916429D01*
X34491638Y-38940619D01*
X34540019Y-38964810D01*
X34685162Y-38964810D01*
X34733543Y-38940619D01*
X34757734Y-38916429D01*
X33850590Y-39043428D02*
X33826400Y-39067618D01*
X33802210Y-39115999D01*
X33802210Y-39236952D01*
X33826400Y-39285333D01*
X33850590Y-39309523D01*
X33898971Y-39333714D01*
X33947352Y-39333714D01*
X34019924Y-39309523D01*
X34310210Y-39019237D01*
X34310210Y-39333714D01*
X33802210Y-39648190D02*
X33802210Y-39696571D01*
X33826400Y-39744952D01*
X33850590Y-39769143D01*
X33898971Y-39793333D01*
X33995733Y-39817524D01*
X34116686Y-39817524D01*
X34213448Y-39793333D01*
X34261829Y-39769143D01*
X34286019Y-39744952D01*
X34310210Y-39696571D01*
X34310210Y-39648190D01*
X34286019Y-39599809D01*
X34261829Y-39575619D01*
X34213448Y-39551428D01*
X34116686Y-39527238D01*
X33995733Y-39527238D01*
X33898971Y-39551428D01*
X33850590Y-39575619D01*
X33826400Y-39599809D01*
X33802210Y-39648190D01*
X33802210Y-40277143D02*
X33802210Y-40035238D01*
X34044114Y-40011048D01*
X34019924Y-40035238D01*
X33995733Y-40083619D01*
X33995733Y-40204572D01*
X34019924Y-40252953D01*
X34044114Y-40277143D01*
X34092495Y-40301334D01*
X34213448Y-40301334D01*
X34261829Y-40277143D01*
X34286019Y-40252953D01*
X34310210Y-40204572D01*
X34310210Y-40083619D01*
X34286019Y-40035238D01*
X34261829Y-40011048D01*
X34310210Y-40519048D02*
X33802210Y-40519048D01*
X34116686Y-40567429D02*
X34310210Y-40712572D01*
X33971543Y-40712572D02*
X34165067Y-40519048D01*
X38737067Y-38964810D02*
X38906400Y-38722905D01*
X39027353Y-38964810D02*
X39027353Y-38456810D01*
X38833829Y-38456810D01*
X38785448Y-38481000D01*
X38761257Y-38505190D01*
X38737067Y-38553571D01*
X38737067Y-38626143D01*
X38761257Y-38674524D01*
X38785448Y-38698714D01*
X38833829Y-38722905D01*
X39027353Y-38722905D01*
X38301638Y-38626143D02*
X38301638Y-38964810D01*
X38422591Y-38432619D02*
X38543543Y-38795476D01*
X38229067Y-38795476D01*
X38120210Y-39333714D02*
X38120210Y-39043428D01*
X38120210Y-39188571D02*
X37612210Y-39188571D01*
X37684781Y-39140190D01*
X37733162Y-39091809D01*
X37757352Y-39043428D01*
X37612210Y-39503047D02*
X37612210Y-39817524D01*
X37805733Y-39648190D01*
X37805733Y-39720762D01*
X37829924Y-39769143D01*
X37854114Y-39793333D01*
X37902495Y-39817524D01*
X38023448Y-39817524D01*
X38071829Y-39793333D01*
X38096019Y-39769143D01*
X38120210Y-39720762D01*
X38120210Y-39575619D01*
X38096019Y-39527238D01*
X38071829Y-39503047D01*
X37612210Y-39986857D02*
X37612210Y-40325524D01*
X38120210Y-40107810D01*
X38120210Y-40519048D02*
X37612210Y-40519048D01*
X37926686Y-40567429D02*
X38120210Y-40712572D01*
X37781543Y-40712572D02*
X37975067Y-40519048D01*
X34927067Y-44044810D02*
X35096400Y-43802905D01*
X35217353Y-44044810D02*
X35217353Y-43536810D01*
X35023829Y-43536810D01*
X34975448Y-43561000D01*
X34951257Y-43585190D01*
X34927067Y-43633571D01*
X34927067Y-43706143D01*
X34951257Y-43754524D01*
X34975448Y-43778714D01*
X35023829Y-43802905D01*
X35217353Y-43802905D01*
X34467448Y-43536810D02*
X34709353Y-43536810D01*
X34733543Y-43778714D01*
X34709353Y-43754524D01*
X34660972Y-43730333D01*
X34540019Y-43730333D01*
X34491638Y-43754524D01*
X34467448Y-43778714D01*
X34443257Y-43827095D01*
X34443257Y-43948048D01*
X34467448Y-43996429D01*
X34491638Y-44020619D01*
X34540019Y-44044810D01*
X34660972Y-44044810D01*
X34709353Y-44020619D01*
X34733543Y-43996429D01*
X33850590Y-44123428D02*
X33826400Y-44147618D01*
X33802210Y-44195999D01*
X33802210Y-44316952D01*
X33826400Y-44365333D01*
X33850590Y-44389523D01*
X33898971Y-44413714D01*
X33947352Y-44413714D01*
X34019924Y-44389523D01*
X34310210Y-44099237D01*
X34310210Y-44413714D01*
X33802210Y-44728190D02*
X33802210Y-44776571D01*
X33826400Y-44824952D01*
X33850590Y-44849143D01*
X33898971Y-44873333D01*
X33995733Y-44897524D01*
X34116686Y-44897524D01*
X34213448Y-44873333D01*
X34261829Y-44849143D01*
X34286019Y-44824952D01*
X34310210Y-44776571D01*
X34310210Y-44728190D01*
X34286019Y-44679809D01*
X34261829Y-44655619D01*
X34213448Y-44631428D01*
X34116686Y-44607238D01*
X33995733Y-44607238D01*
X33898971Y-44631428D01*
X33850590Y-44655619D01*
X33826400Y-44679809D01*
X33802210Y-44728190D01*
X33802210Y-45357143D02*
X33802210Y-45115238D01*
X34044114Y-45091048D01*
X34019924Y-45115238D01*
X33995733Y-45163619D01*
X33995733Y-45284572D01*
X34019924Y-45332953D01*
X34044114Y-45357143D01*
X34092495Y-45381334D01*
X34213448Y-45381334D01*
X34261829Y-45357143D01*
X34286019Y-45332953D01*
X34310210Y-45284572D01*
X34310210Y-45163619D01*
X34286019Y-45115238D01*
X34261829Y-45091048D01*
X34310210Y-45599048D02*
X33802210Y-45599048D01*
X34116686Y-45647429D02*
X34310210Y-45792572D01*
X33971543Y-45792572D02*
X34165067Y-45599048D01*
X38737067Y-44044810D02*
X38906400Y-43802905D01*
X39027353Y-44044810D02*
X39027353Y-43536810D01*
X38833829Y-43536810D01*
X38785448Y-43561000D01*
X38761257Y-43585190D01*
X38737067Y-43633571D01*
X38737067Y-43706143D01*
X38761257Y-43754524D01*
X38785448Y-43778714D01*
X38833829Y-43802905D01*
X39027353Y-43802905D01*
X38301638Y-43536810D02*
X38398400Y-43536810D01*
X38446781Y-43561000D01*
X38470972Y-43585190D01*
X38519353Y-43657762D01*
X38543543Y-43754524D01*
X38543543Y-43948048D01*
X38519353Y-43996429D01*
X38495162Y-44020619D01*
X38446781Y-44044810D01*
X38350019Y-44044810D01*
X38301638Y-44020619D01*
X38277448Y-43996429D01*
X38253257Y-43948048D01*
X38253257Y-43827095D01*
X38277448Y-43778714D01*
X38301638Y-43754524D01*
X38350019Y-43730333D01*
X38446781Y-43730333D01*
X38495162Y-43754524D01*
X38519353Y-43778714D01*
X38543543Y-43827095D01*
X38120210Y-44413714D02*
X38120210Y-44123428D01*
X38120210Y-44268571D02*
X37612210Y-44268571D01*
X37684781Y-44220190D01*
X37733162Y-44171809D01*
X37757352Y-44123428D01*
X37612210Y-44583047D02*
X37612210Y-44897524D01*
X37805733Y-44728190D01*
X37805733Y-44800762D01*
X37829924Y-44849143D01*
X37854114Y-44873333D01*
X37902495Y-44897524D01*
X38023448Y-44897524D01*
X38071829Y-44873333D01*
X38096019Y-44849143D01*
X38120210Y-44800762D01*
X38120210Y-44655619D01*
X38096019Y-44607238D01*
X38071829Y-44583047D01*
X37612210Y-45066857D02*
X37612210Y-45405524D01*
X38120210Y-45187810D01*
X38120210Y-45599048D02*
X37612210Y-45599048D01*
X37926686Y-45647429D02*
X38120210Y-45792572D01*
X37781543Y-45792572D02*
X37975067Y-45599048D01*
X34927067Y-51664810D02*
X35096400Y-51422905D01*
X35217353Y-51664810D02*
X35217353Y-51156810D01*
X35023829Y-51156810D01*
X34975448Y-51181000D01*
X34951257Y-51205190D01*
X34927067Y-51253571D01*
X34927067Y-51326143D01*
X34951257Y-51374524D01*
X34975448Y-51398714D01*
X35023829Y-51422905D01*
X35217353Y-51422905D01*
X34757734Y-51156810D02*
X34419067Y-51156810D01*
X34636781Y-51664810D01*
X33850590Y-51743428D02*
X33826400Y-51767618D01*
X33802210Y-51815999D01*
X33802210Y-51936952D01*
X33826400Y-51985333D01*
X33850590Y-52009523D01*
X33898971Y-52033714D01*
X33947352Y-52033714D01*
X34019924Y-52009523D01*
X34310210Y-51719237D01*
X34310210Y-52033714D01*
X33802210Y-52348190D02*
X33802210Y-52396571D01*
X33826400Y-52444952D01*
X33850590Y-52469143D01*
X33898971Y-52493333D01*
X33995733Y-52517524D01*
X34116686Y-52517524D01*
X34213448Y-52493333D01*
X34261829Y-52469143D01*
X34286019Y-52444952D01*
X34310210Y-52396571D01*
X34310210Y-52348190D01*
X34286019Y-52299809D01*
X34261829Y-52275619D01*
X34213448Y-52251428D01*
X34116686Y-52227238D01*
X33995733Y-52227238D01*
X33898971Y-52251428D01*
X33850590Y-52275619D01*
X33826400Y-52299809D01*
X33802210Y-52348190D01*
X33802210Y-52977143D02*
X33802210Y-52735238D01*
X34044114Y-52711048D01*
X34019924Y-52735238D01*
X33995733Y-52783619D01*
X33995733Y-52904572D01*
X34019924Y-52952953D01*
X34044114Y-52977143D01*
X34092495Y-53001334D01*
X34213448Y-53001334D01*
X34261829Y-52977143D01*
X34286019Y-52952953D01*
X34310210Y-52904572D01*
X34310210Y-52783619D01*
X34286019Y-52735238D01*
X34261829Y-52711048D01*
X34310210Y-53219048D02*
X33802210Y-53219048D01*
X34116686Y-53267429D02*
X34310210Y-53412572D01*
X33971543Y-53412572D02*
X34165067Y-53219048D01*
X38737067Y-51664810D02*
X38906400Y-51422905D01*
X39027353Y-51664810D02*
X39027353Y-51156810D01*
X38833829Y-51156810D01*
X38785448Y-51181000D01*
X38761257Y-51205190D01*
X38737067Y-51253571D01*
X38737067Y-51326143D01*
X38761257Y-51374524D01*
X38785448Y-51398714D01*
X38833829Y-51422905D01*
X39027353Y-51422905D01*
X38446781Y-51374524D02*
X38495162Y-51350333D01*
X38519353Y-51326143D01*
X38543543Y-51277762D01*
X38543543Y-51253571D01*
X38519353Y-51205190D01*
X38495162Y-51181000D01*
X38446781Y-51156810D01*
X38350019Y-51156810D01*
X38301638Y-51181000D01*
X38277448Y-51205190D01*
X38253257Y-51253571D01*
X38253257Y-51277762D01*
X38277448Y-51326143D01*
X38301638Y-51350333D01*
X38350019Y-51374524D01*
X38446781Y-51374524D01*
X38495162Y-51398714D01*
X38519353Y-51422905D01*
X38543543Y-51471286D01*
X38543543Y-51568048D01*
X38519353Y-51616429D01*
X38495162Y-51640619D01*
X38446781Y-51664810D01*
X38350019Y-51664810D01*
X38301638Y-51640619D01*
X38277448Y-51616429D01*
X38253257Y-51568048D01*
X38253257Y-51471286D01*
X38277448Y-51422905D01*
X38301638Y-51398714D01*
X38350019Y-51374524D01*
X38120210Y-52033714D02*
X38120210Y-51743428D01*
X38120210Y-51888571D02*
X37612210Y-51888571D01*
X37684781Y-51840190D01*
X37733162Y-51791809D01*
X37757352Y-51743428D01*
X37612210Y-52203047D02*
X37612210Y-52517524D01*
X37805733Y-52348190D01*
X37805733Y-52420762D01*
X37829924Y-52469143D01*
X37854114Y-52493333D01*
X37902495Y-52517524D01*
X38023448Y-52517524D01*
X38071829Y-52493333D01*
X38096019Y-52469143D01*
X38120210Y-52420762D01*
X38120210Y-52275619D01*
X38096019Y-52227238D01*
X38071829Y-52203047D01*
X37612210Y-52686857D02*
X37612210Y-53025524D01*
X38120210Y-52807810D01*
X38120210Y-53219048D02*
X37612210Y-53219048D01*
X37926686Y-53267429D02*
X38120210Y-53412572D01*
X37781543Y-53412572D02*
X37975067Y-53219048D01*
X34927067Y-59284810D02*
X35096400Y-59042905D01*
X35217353Y-59284810D02*
X35217353Y-58776810D01*
X35023829Y-58776810D01*
X34975448Y-58801000D01*
X34951257Y-58825190D01*
X34927067Y-58873571D01*
X34927067Y-58946143D01*
X34951257Y-58994524D01*
X34975448Y-59018714D01*
X35023829Y-59042905D01*
X35217353Y-59042905D01*
X34685162Y-59284810D02*
X34588400Y-59284810D01*
X34540019Y-59260619D01*
X34515829Y-59236429D01*
X34467448Y-59163857D01*
X34443257Y-59067095D01*
X34443257Y-58873571D01*
X34467448Y-58825190D01*
X34491638Y-58801000D01*
X34540019Y-58776810D01*
X34636781Y-58776810D01*
X34685162Y-58801000D01*
X34709353Y-58825190D01*
X34733543Y-58873571D01*
X34733543Y-58994524D01*
X34709353Y-59042905D01*
X34685162Y-59067095D01*
X34636781Y-59091286D01*
X34540019Y-59091286D01*
X34491638Y-59067095D01*
X34467448Y-59042905D01*
X34443257Y-58994524D01*
X33850590Y-59363428D02*
X33826400Y-59387618D01*
X33802210Y-59435999D01*
X33802210Y-59556952D01*
X33826400Y-59605333D01*
X33850590Y-59629523D01*
X33898971Y-59653714D01*
X33947352Y-59653714D01*
X34019924Y-59629523D01*
X34310210Y-59339237D01*
X34310210Y-59653714D01*
X33802210Y-59968190D02*
X33802210Y-60016571D01*
X33826400Y-60064952D01*
X33850590Y-60089143D01*
X33898971Y-60113333D01*
X33995733Y-60137524D01*
X34116686Y-60137524D01*
X34213448Y-60113333D01*
X34261829Y-60089143D01*
X34286019Y-60064952D01*
X34310210Y-60016571D01*
X34310210Y-59968190D01*
X34286019Y-59919809D01*
X34261829Y-59895619D01*
X34213448Y-59871428D01*
X34116686Y-59847238D01*
X33995733Y-59847238D01*
X33898971Y-59871428D01*
X33850590Y-59895619D01*
X33826400Y-59919809D01*
X33802210Y-59968190D01*
X33802210Y-60597143D02*
X33802210Y-60355238D01*
X34044114Y-60331048D01*
X34019924Y-60355238D01*
X33995733Y-60403619D01*
X33995733Y-60524572D01*
X34019924Y-60572953D01*
X34044114Y-60597143D01*
X34092495Y-60621334D01*
X34213448Y-60621334D01*
X34261829Y-60597143D01*
X34286019Y-60572953D01*
X34310210Y-60524572D01*
X34310210Y-60403619D01*
X34286019Y-60355238D01*
X34261829Y-60331048D01*
X34310210Y-60839048D02*
X33802210Y-60839048D01*
X34116686Y-60887429D02*
X34310210Y-61032572D01*
X33971543Y-61032572D02*
X34165067Y-60839048D01*
X38978972Y-59284810D02*
X39148305Y-59042905D01*
X39269258Y-59284810D02*
X39269258Y-58776810D01*
X39075734Y-58776810D01*
X39027353Y-58801000D01*
X39003162Y-58825190D01*
X38978972Y-58873571D01*
X38978972Y-58946143D01*
X39003162Y-58994524D01*
X39027353Y-59018714D01*
X39075734Y-59042905D01*
X39269258Y-59042905D01*
X38495162Y-59284810D02*
X38785448Y-59284810D01*
X38640305Y-59284810D02*
X38640305Y-58776810D01*
X38688686Y-58849381D01*
X38737067Y-58897762D01*
X38785448Y-58921952D01*
X38180686Y-58776810D02*
X38132305Y-58776810D01*
X38083924Y-58801000D01*
X38059733Y-58825190D01*
X38035543Y-58873571D01*
X38011352Y-58970333D01*
X38011352Y-59091286D01*
X38035543Y-59188048D01*
X38059733Y-59236429D01*
X38083924Y-59260619D01*
X38132305Y-59284810D01*
X38180686Y-59284810D01*
X38229067Y-59260619D01*
X38253257Y-59236429D01*
X38277448Y-59188048D01*
X38301638Y-59091286D01*
X38301638Y-58970333D01*
X38277448Y-58873571D01*
X38253257Y-58825190D01*
X38229067Y-58801000D01*
X38180686Y-58776810D01*
X38120210Y-59653714D02*
X38120210Y-59363428D01*
X38120210Y-59508571D02*
X37612210Y-59508571D01*
X37684781Y-59460190D01*
X37733162Y-59411809D01*
X37757352Y-59363428D01*
X37612210Y-59823047D02*
X37612210Y-60137524D01*
X37805733Y-59968190D01*
X37805733Y-60040762D01*
X37829924Y-60089143D01*
X37854114Y-60113333D01*
X37902495Y-60137524D01*
X38023448Y-60137524D01*
X38071829Y-60113333D01*
X38096019Y-60089143D01*
X38120210Y-60040762D01*
X38120210Y-59895619D01*
X38096019Y-59847238D01*
X38071829Y-59823047D01*
X37612210Y-60306857D02*
X37612210Y-60645524D01*
X38120210Y-60427810D01*
X38120210Y-60839048D02*
X37612210Y-60839048D01*
X37926686Y-60887429D02*
X38120210Y-61032572D01*
X37781543Y-61032572D02*
X37975067Y-60839048D01*
X35168972Y-66904810D02*
X35338305Y-66662905D01*
X35459258Y-66904810D02*
X35459258Y-66396810D01*
X35265734Y-66396810D01*
X35217353Y-66421000D01*
X35193162Y-66445190D01*
X35168972Y-66493571D01*
X35168972Y-66566143D01*
X35193162Y-66614524D01*
X35217353Y-66638714D01*
X35265734Y-66662905D01*
X35459258Y-66662905D01*
X34685162Y-66904810D02*
X34975448Y-66904810D01*
X34830305Y-66904810D02*
X34830305Y-66396810D01*
X34878686Y-66469381D01*
X34927067Y-66517762D01*
X34975448Y-66541952D01*
X34201352Y-66904810D02*
X34491638Y-66904810D01*
X34346495Y-66904810D02*
X34346495Y-66396810D01*
X34394876Y-66469381D01*
X34443257Y-66517762D01*
X34491638Y-66541952D01*
X33850590Y-66983428D02*
X33826400Y-67007618D01*
X33802210Y-67055999D01*
X33802210Y-67176952D01*
X33826400Y-67225333D01*
X33850590Y-67249523D01*
X33898971Y-67273714D01*
X33947352Y-67273714D01*
X34019924Y-67249523D01*
X34310210Y-66959237D01*
X34310210Y-67273714D01*
X33802210Y-67588190D02*
X33802210Y-67636571D01*
X33826400Y-67684952D01*
X33850590Y-67709143D01*
X33898971Y-67733333D01*
X33995733Y-67757524D01*
X34116686Y-67757524D01*
X34213448Y-67733333D01*
X34261829Y-67709143D01*
X34286019Y-67684952D01*
X34310210Y-67636571D01*
X34310210Y-67588190D01*
X34286019Y-67539809D01*
X34261829Y-67515619D01*
X34213448Y-67491428D01*
X34116686Y-67467238D01*
X33995733Y-67467238D01*
X33898971Y-67491428D01*
X33850590Y-67515619D01*
X33826400Y-67539809D01*
X33802210Y-67588190D01*
X33802210Y-68217143D02*
X33802210Y-67975238D01*
X34044114Y-67951048D01*
X34019924Y-67975238D01*
X33995733Y-68023619D01*
X33995733Y-68144572D01*
X34019924Y-68192953D01*
X34044114Y-68217143D01*
X34092495Y-68241334D01*
X34213448Y-68241334D01*
X34261829Y-68217143D01*
X34286019Y-68192953D01*
X34310210Y-68144572D01*
X34310210Y-68023619D01*
X34286019Y-67975238D01*
X34261829Y-67951048D01*
X34310210Y-68459048D02*
X33802210Y-68459048D01*
X34116686Y-68507429D02*
X34310210Y-68652572D01*
X33971543Y-68652572D02*
X34165067Y-68459048D01*
X38978972Y-66904810D02*
X39148305Y-66662905D01*
X39269258Y-66904810D02*
X39269258Y-66396810D01*
X39075734Y-66396810D01*
X39027353Y-66421000D01*
X39003162Y-66445190D01*
X38978972Y-66493571D01*
X38978972Y-66566143D01*
X39003162Y-66614524D01*
X39027353Y-66638714D01*
X39075734Y-66662905D01*
X39269258Y-66662905D01*
X38495162Y-66904810D02*
X38785448Y-66904810D01*
X38640305Y-66904810D02*
X38640305Y-66396810D01*
X38688686Y-66469381D01*
X38737067Y-66517762D01*
X38785448Y-66541952D01*
X38301638Y-66445190D02*
X38277448Y-66421000D01*
X38229067Y-66396810D01*
X38108114Y-66396810D01*
X38059733Y-66421000D01*
X38035543Y-66445190D01*
X38011352Y-66493571D01*
X38011352Y-66541952D01*
X38035543Y-66614524D01*
X38325829Y-66904810D01*
X38011352Y-66904810D01*
X38120210Y-67273714D02*
X38120210Y-66983428D01*
X38120210Y-67128571D02*
X37612210Y-67128571D01*
X37684781Y-67080190D01*
X37733162Y-67031809D01*
X37757352Y-66983428D01*
X37612210Y-67443047D02*
X37612210Y-67757524D01*
X37805733Y-67588190D01*
X37805733Y-67660762D01*
X37829924Y-67709143D01*
X37854114Y-67733333D01*
X37902495Y-67757524D01*
X38023448Y-67757524D01*
X38071829Y-67733333D01*
X38096019Y-67709143D01*
X38120210Y-67660762D01*
X38120210Y-67515619D01*
X38096019Y-67467238D01*
X38071829Y-67443047D01*
X37612210Y-67926857D02*
X37612210Y-68265524D01*
X38120210Y-68047810D01*
X38120210Y-68459048D02*
X37612210Y-68459048D01*
X37926686Y-68507429D02*
X38120210Y-68652572D01*
X37781543Y-68652572D02*
X37975067Y-68459048D01*
X35168972Y-77064810D02*
X35338305Y-76822905D01*
X35459258Y-77064810D02*
X35459258Y-76556810D01*
X35265734Y-76556810D01*
X35217353Y-76581000D01*
X35193162Y-76605190D01*
X35168972Y-76653571D01*
X35168972Y-76726143D01*
X35193162Y-76774524D01*
X35217353Y-76798714D01*
X35265734Y-76822905D01*
X35459258Y-76822905D01*
X34685162Y-77064810D02*
X34975448Y-77064810D01*
X34830305Y-77064810D02*
X34830305Y-76556810D01*
X34878686Y-76629381D01*
X34927067Y-76677762D01*
X34975448Y-76701952D01*
X34515829Y-76556810D02*
X34201352Y-76556810D01*
X34370686Y-76750333D01*
X34298114Y-76750333D01*
X34249733Y-76774524D01*
X34225543Y-76798714D01*
X34201352Y-76847095D01*
X34201352Y-76968048D01*
X34225543Y-77016429D01*
X34249733Y-77040619D01*
X34298114Y-77064810D01*
X34443257Y-77064810D01*
X34491638Y-77040619D01*
X34515829Y-77016429D01*
X33850590Y-77143428D02*
X33826400Y-77167618D01*
X33802210Y-77215999D01*
X33802210Y-77336952D01*
X33826400Y-77385333D01*
X33850590Y-77409523D01*
X33898971Y-77433714D01*
X33947352Y-77433714D01*
X34019924Y-77409523D01*
X34310210Y-77119237D01*
X34310210Y-77433714D01*
X33802210Y-77748190D02*
X33802210Y-77796571D01*
X33826400Y-77844952D01*
X33850590Y-77869143D01*
X33898971Y-77893333D01*
X33995733Y-77917524D01*
X34116686Y-77917524D01*
X34213448Y-77893333D01*
X34261829Y-77869143D01*
X34286019Y-77844952D01*
X34310210Y-77796571D01*
X34310210Y-77748190D01*
X34286019Y-77699809D01*
X34261829Y-77675619D01*
X34213448Y-77651428D01*
X34116686Y-77627238D01*
X33995733Y-77627238D01*
X33898971Y-77651428D01*
X33850590Y-77675619D01*
X33826400Y-77699809D01*
X33802210Y-77748190D01*
X33802210Y-78377143D02*
X33802210Y-78135238D01*
X34044114Y-78111048D01*
X34019924Y-78135238D01*
X33995733Y-78183619D01*
X33995733Y-78304572D01*
X34019924Y-78352953D01*
X34044114Y-78377143D01*
X34092495Y-78401334D01*
X34213448Y-78401334D01*
X34261829Y-78377143D01*
X34286019Y-78352953D01*
X34310210Y-78304572D01*
X34310210Y-78183619D01*
X34286019Y-78135238D01*
X34261829Y-78111048D01*
X34310210Y-78619048D02*
X33802210Y-78619048D01*
X34116686Y-78667429D02*
X34310210Y-78812572D01*
X33971543Y-78812572D02*
X34165067Y-78619048D01*
X38978972Y-77064810D02*
X39148305Y-76822905D01*
X39269258Y-77064810D02*
X39269258Y-76556810D01*
X39075734Y-76556810D01*
X39027353Y-76581000D01*
X39003162Y-76605190D01*
X38978972Y-76653571D01*
X38978972Y-76726143D01*
X39003162Y-76774524D01*
X39027353Y-76798714D01*
X39075734Y-76822905D01*
X39269258Y-76822905D01*
X38495162Y-77064810D02*
X38785448Y-77064810D01*
X38640305Y-77064810D02*
X38640305Y-76556810D01*
X38688686Y-76629381D01*
X38737067Y-76677762D01*
X38785448Y-76701952D01*
X38059733Y-76726143D02*
X38059733Y-77064810D01*
X38180686Y-76532619D02*
X38301638Y-76895476D01*
X37987162Y-76895476D01*
X38120210Y-77433714D02*
X38120210Y-77143428D01*
X38120210Y-77288571D02*
X37612210Y-77288571D01*
X37684781Y-77240190D01*
X37733162Y-77191809D01*
X37757352Y-77143428D01*
X37612210Y-77603047D02*
X37612210Y-77917524D01*
X37805733Y-77748190D01*
X37805733Y-77820762D01*
X37829924Y-77869143D01*
X37854114Y-77893333D01*
X37902495Y-77917524D01*
X38023448Y-77917524D01*
X38071829Y-77893333D01*
X38096019Y-77869143D01*
X38120210Y-77820762D01*
X38120210Y-77675619D01*
X38096019Y-77627238D01*
X38071829Y-77603047D01*
X37612210Y-78086857D02*
X37612210Y-78425524D01*
X38120210Y-78207810D01*
X38120210Y-78619048D02*
X37612210Y-78619048D01*
X37926686Y-78667429D02*
X38120210Y-78812572D01*
X37781543Y-78812572D02*
X37975067Y-78619048D01*
X35168972Y-82144810D02*
X35338305Y-81902905D01*
X35459258Y-82144810D02*
X35459258Y-81636810D01*
X35265734Y-81636810D01*
X35217353Y-81661000D01*
X35193162Y-81685190D01*
X35168972Y-81733571D01*
X35168972Y-81806143D01*
X35193162Y-81854524D01*
X35217353Y-81878714D01*
X35265734Y-81902905D01*
X35459258Y-81902905D01*
X34685162Y-82144810D02*
X34975448Y-82144810D01*
X34830305Y-82144810D02*
X34830305Y-81636810D01*
X34878686Y-81709381D01*
X34927067Y-81757762D01*
X34975448Y-81781952D01*
X34225543Y-81636810D02*
X34467448Y-81636810D01*
X34491638Y-81878714D01*
X34467448Y-81854524D01*
X34419067Y-81830333D01*
X34298114Y-81830333D01*
X34249733Y-81854524D01*
X34225543Y-81878714D01*
X34201352Y-81927095D01*
X34201352Y-82048048D01*
X34225543Y-82096429D01*
X34249733Y-82120619D01*
X34298114Y-82144810D01*
X34419067Y-82144810D01*
X34467448Y-82120619D01*
X34491638Y-82096429D01*
X33850590Y-82223428D02*
X33826400Y-82247618D01*
X33802210Y-82295999D01*
X33802210Y-82416952D01*
X33826400Y-82465333D01*
X33850590Y-82489523D01*
X33898971Y-82513714D01*
X33947352Y-82513714D01*
X34019924Y-82489523D01*
X34310210Y-82199237D01*
X34310210Y-82513714D01*
X33802210Y-82828190D02*
X33802210Y-82876571D01*
X33826400Y-82924952D01*
X33850590Y-82949143D01*
X33898971Y-82973333D01*
X33995733Y-82997524D01*
X34116686Y-82997524D01*
X34213448Y-82973333D01*
X34261829Y-82949143D01*
X34286019Y-82924952D01*
X34310210Y-82876571D01*
X34310210Y-82828190D01*
X34286019Y-82779809D01*
X34261829Y-82755619D01*
X34213448Y-82731428D01*
X34116686Y-82707238D01*
X33995733Y-82707238D01*
X33898971Y-82731428D01*
X33850590Y-82755619D01*
X33826400Y-82779809D01*
X33802210Y-82828190D01*
X33802210Y-83457143D02*
X33802210Y-83215238D01*
X34044114Y-83191048D01*
X34019924Y-83215238D01*
X33995733Y-83263619D01*
X33995733Y-83384572D01*
X34019924Y-83432953D01*
X34044114Y-83457143D01*
X34092495Y-83481334D01*
X34213448Y-83481334D01*
X34261829Y-83457143D01*
X34286019Y-83432953D01*
X34310210Y-83384572D01*
X34310210Y-83263619D01*
X34286019Y-83215238D01*
X34261829Y-83191048D01*
X34310210Y-83699048D02*
X33802210Y-83699048D01*
X34116686Y-83747429D02*
X34310210Y-83892572D01*
X33971543Y-83892572D02*
X34165067Y-83699048D01*
X38978972Y-82144810D02*
X39148305Y-81902905D01*
X39269258Y-82144810D02*
X39269258Y-81636810D01*
X39075734Y-81636810D01*
X39027353Y-81661000D01*
X39003162Y-81685190D01*
X38978972Y-81733571D01*
X38978972Y-81806143D01*
X39003162Y-81854524D01*
X39027353Y-81878714D01*
X39075734Y-81902905D01*
X39269258Y-81902905D01*
X38495162Y-82144810D02*
X38785448Y-82144810D01*
X38640305Y-82144810D02*
X38640305Y-81636810D01*
X38688686Y-81709381D01*
X38737067Y-81757762D01*
X38785448Y-81781952D01*
X38059733Y-81636810D02*
X38156495Y-81636810D01*
X38204876Y-81661000D01*
X38229067Y-81685190D01*
X38277448Y-81757762D01*
X38301638Y-81854524D01*
X38301638Y-82048048D01*
X38277448Y-82096429D01*
X38253257Y-82120619D01*
X38204876Y-82144810D01*
X38108114Y-82144810D01*
X38059733Y-82120619D01*
X38035543Y-82096429D01*
X38011352Y-82048048D01*
X38011352Y-81927095D01*
X38035543Y-81878714D01*
X38059733Y-81854524D01*
X38108114Y-81830333D01*
X38204876Y-81830333D01*
X38253257Y-81854524D01*
X38277448Y-81878714D01*
X38301638Y-81927095D01*
X38120210Y-82513714D02*
X38120210Y-82223428D01*
X38120210Y-82368571D02*
X37612210Y-82368571D01*
X37684781Y-82320190D01*
X37733162Y-82271809D01*
X37757352Y-82223428D01*
X37612210Y-82683047D02*
X37612210Y-82997524D01*
X37805733Y-82828190D01*
X37805733Y-82900762D01*
X37829924Y-82949143D01*
X37854114Y-82973333D01*
X37902495Y-82997524D01*
X38023448Y-82997524D01*
X38071829Y-82973333D01*
X38096019Y-82949143D01*
X38120210Y-82900762D01*
X38120210Y-82755619D01*
X38096019Y-82707238D01*
X38071829Y-82683047D01*
X37612210Y-83166857D02*
X37612210Y-83505524D01*
X38120210Y-83287810D01*
X38120210Y-83699048D02*
X37612210Y-83699048D01*
X37926686Y-83747429D02*
X38120210Y-83892572D01*
X37781543Y-83892572D02*
X37975067Y-83699048D01*
D15*
X30343071Y-31332714D02*
X30343071Y-31949571D01*
X30306786Y-32022143D01*
X30270500Y-32058429D01*
X30197929Y-32094714D01*
X30052786Y-32094714D01*
X29980214Y-32058429D01*
X29943929Y-32022143D01*
X29907643Y-31949571D01*
X29907643Y-31332714D01*
X29145643Y-32094714D02*
X29581071Y-32094714D01*
X29363357Y-32094714D02*
X29363357Y-31332714D01*
X29435928Y-31441571D01*
X29508500Y-31514143D01*
X29581071Y-31550429D01*
D13*
X29357310Y-27117523D02*
X28849310Y-27117523D01*
X28849310Y-27238476D01*
X28873500Y-27311047D01*
X28921881Y-27359428D01*
X28970262Y-27383619D01*
X29067024Y-27407809D01*
X29139595Y-27407809D01*
X29236357Y-27383619D01*
X29284738Y-27359428D01*
X29333119Y-27311047D01*
X29357310Y-27238476D01*
X29357310Y-27117523D01*
X29357310Y-27915809D02*
X29115405Y-27746476D01*
X29357310Y-27625523D02*
X28849310Y-27625523D01*
X28849310Y-27819047D01*
X28873500Y-27867428D01*
X28897690Y-27891619D01*
X28946071Y-27915809D01*
X29018643Y-27915809D01*
X29067024Y-27891619D01*
X29091214Y-27867428D01*
X29115405Y-27819047D01*
X29115405Y-27625523D01*
X28849310Y-28060952D02*
X29357310Y-28230285D01*
X28849310Y-28399619D01*
X29357310Y-28835048D02*
X29357310Y-28544762D01*
X29357310Y-28689905D02*
X28849310Y-28689905D01*
X28921881Y-28641524D01*
X28970262Y-28593143D01*
X28994452Y-28544762D01*
X28849310Y-29149524D02*
X28849310Y-29197905D01*
X28873500Y-29246286D01*
X28897690Y-29270477D01*
X28946071Y-29294667D01*
X29042833Y-29318858D01*
X29163786Y-29318858D01*
X29260548Y-29294667D01*
X29308929Y-29270477D01*
X29333119Y-29246286D01*
X29357310Y-29197905D01*
X29357310Y-29149524D01*
X29333119Y-29101143D01*
X29308929Y-29076953D01*
X29260548Y-29052762D01*
X29163786Y-29028572D01*
X29042833Y-29028572D01*
X28946071Y-29052762D01*
X28897690Y-29076953D01*
X28873500Y-29101143D01*
X28849310Y-29149524D01*
X28849310Y-29488191D02*
X28849310Y-29802668D01*
X29042833Y-29633334D01*
X29042833Y-29705906D01*
X29067024Y-29754287D01*
X29091214Y-29778477D01*
X29139595Y-29802668D01*
X29260548Y-29802668D01*
X29308929Y-29778477D01*
X29333119Y-29754287D01*
X29357310Y-29705906D01*
X29357310Y-29560763D01*
X29333119Y-29512382D01*
X29308929Y-29488191D01*
D15*
X30343071Y-38952714D02*
X30343071Y-39569571D01*
X30306786Y-39642143D01*
X30270500Y-39678429D01*
X30197929Y-39714714D01*
X30052786Y-39714714D01*
X29980214Y-39678429D01*
X29943929Y-39642143D01*
X29907643Y-39569571D01*
X29907643Y-38952714D01*
X29581071Y-39025286D02*
X29544785Y-38989000D01*
X29472214Y-38952714D01*
X29290785Y-38952714D01*
X29218214Y-38989000D01*
X29181928Y-39025286D01*
X29145643Y-39097857D01*
X29145643Y-39170429D01*
X29181928Y-39279286D01*
X29617357Y-39714714D01*
X29145643Y-39714714D01*
D13*
X29357310Y-34737523D02*
X28849310Y-34737523D01*
X28849310Y-34858476D01*
X28873500Y-34931047D01*
X28921881Y-34979428D01*
X28970262Y-35003619D01*
X29067024Y-35027809D01*
X29139595Y-35027809D01*
X29236357Y-35003619D01*
X29284738Y-34979428D01*
X29333119Y-34931047D01*
X29357310Y-34858476D01*
X29357310Y-34737523D01*
X29357310Y-35535809D02*
X29115405Y-35366476D01*
X29357310Y-35245523D02*
X28849310Y-35245523D01*
X28849310Y-35439047D01*
X28873500Y-35487428D01*
X28897690Y-35511619D01*
X28946071Y-35535809D01*
X29018643Y-35535809D01*
X29067024Y-35511619D01*
X29091214Y-35487428D01*
X29115405Y-35439047D01*
X29115405Y-35245523D01*
X28849310Y-35680952D02*
X29357310Y-35850285D01*
X28849310Y-36019619D01*
X29357310Y-36455048D02*
X29357310Y-36164762D01*
X29357310Y-36309905D02*
X28849310Y-36309905D01*
X28921881Y-36261524D01*
X28970262Y-36213143D01*
X28994452Y-36164762D01*
X28849310Y-36769524D02*
X28849310Y-36817905D01*
X28873500Y-36866286D01*
X28897690Y-36890477D01*
X28946071Y-36914667D01*
X29042833Y-36938858D01*
X29163786Y-36938858D01*
X29260548Y-36914667D01*
X29308929Y-36890477D01*
X29333119Y-36866286D01*
X29357310Y-36817905D01*
X29357310Y-36769524D01*
X29333119Y-36721143D01*
X29308929Y-36696953D01*
X29260548Y-36672762D01*
X29163786Y-36648572D01*
X29042833Y-36648572D01*
X28946071Y-36672762D01*
X28897690Y-36696953D01*
X28873500Y-36721143D01*
X28849310Y-36769524D01*
X28849310Y-37108191D02*
X28849310Y-37422668D01*
X29042833Y-37253334D01*
X29042833Y-37325906D01*
X29067024Y-37374287D01*
X29091214Y-37398477D01*
X29139595Y-37422668D01*
X29260548Y-37422668D01*
X29308929Y-37398477D01*
X29333119Y-37374287D01*
X29357310Y-37325906D01*
X29357310Y-37180763D01*
X29333119Y-37132382D01*
X29308929Y-37108191D01*
D15*
X30343071Y-46572714D02*
X30343071Y-47189571D01*
X30306786Y-47262143D01*
X30270500Y-47298429D01*
X30197929Y-47334714D01*
X30052786Y-47334714D01*
X29980214Y-47298429D01*
X29943929Y-47262143D01*
X29907643Y-47189571D01*
X29907643Y-46572714D01*
X29617357Y-46572714D02*
X29145643Y-46572714D01*
X29399643Y-46863000D01*
X29290785Y-46863000D01*
X29218214Y-46899286D01*
X29181928Y-46935571D01*
X29145643Y-47008143D01*
X29145643Y-47189571D01*
X29181928Y-47262143D01*
X29218214Y-47298429D01*
X29290785Y-47334714D01*
X29508500Y-47334714D01*
X29581071Y-47298429D01*
X29617357Y-47262143D01*
D13*
X29357310Y-42357523D02*
X28849310Y-42357523D01*
X28849310Y-42478476D01*
X28873500Y-42551047D01*
X28921881Y-42599428D01*
X28970262Y-42623619D01*
X29067024Y-42647809D01*
X29139595Y-42647809D01*
X29236357Y-42623619D01*
X29284738Y-42599428D01*
X29333119Y-42551047D01*
X29357310Y-42478476D01*
X29357310Y-42357523D01*
X29357310Y-43155809D02*
X29115405Y-42986476D01*
X29357310Y-42865523D02*
X28849310Y-42865523D01*
X28849310Y-43059047D01*
X28873500Y-43107428D01*
X28897690Y-43131619D01*
X28946071Y-43155809D01*
X29018643Y-43155809D01*
X29067024Y-43131619D01*
X29091214Y-43107428D01*
X29115405Y-43059047D01*
X29115405Y-42865523D01*
X28849310Y-43300952D02*
X29357310Y-43470285D01*
X28849310Y-43639619D01*
X29357310Y-44075048D02*
X29357310Y-43784762D01*
X29357310Y-43929905D02*
X28849310Y-43929905D01*
X28921881Y-43881524D01*
X28970262Y-43833143D01*
X28994452Y-43784762D01*
X28849310Y-44389524D02*
X28849310Y-44437905D01*
X28873500Y-44486286D01*
X28897690Y-44510477D01*
X28946071Y-44534667D01*
X29042833Y-44558858D01*
X29163786Y-44558858D01*
X29260548Y-44534667D01*
X29308929Y-44510477D01*
X29333119Y-44486286D01*
X29357310Y-44437905D01*
X29357310Y-44389524D01*
X29333119Y-44341143D01*
X29308929Y-44316953D01*
X29260548Y-44292762D01*
X29163786Y-44268572D01*
X29042833Y-44268572D01*
X28946071Y-44292762D01*
X28897690Y-44316953D01*
X28873500Y-44341143D01*
X28849310Y-44389524D01*
X28849310Y-44728191D02*
X28849310Y-45042668D01*
X29042833Y-44873334D01*
X29042833Y-44945906D01*
X29067024Y-44994287D01*
X29091214Y-45018477D01*
X29139595Y-45042668D01*
X29260548Y-45042668D01*
X29308929Y-45018477D01*
X29333119Y-44994287D01*
X29357310Y-44945906D01*
X29357310Y-44800763D01*
X29333119Y-44752382D01*
X29308929Y-44728191D01*
D15*
X30343071Y-54192714D02*
X30343071Y-54809571D01*
X30306786Y-54882143D01*
X30270500Y-54918429D01*
X30197929Y-54954714D01*
X30052786Y-54954714D01*
X29980214Y-54918429D01*
X29943929Y-54882143D01*
X29907643Y-54809571D01*
X29907643Y-54192714D01*
X29218214Y-54446714D02*
X29218214Y-54954714D01*
X29399643Y-54156429D02*
X29581071Y-54700714D01*
X29109357Y-54700714D01*
D13*
X29357310Y-49977523D02*
X28849310Y-49977523D01*
X28849310Y-50098476D01*
X28873500Y-50171047D01*
X28921881Y-50219428D01*
X28970262Y-50243619D01*
X29067024Y-50267809D01*
X29139595Y-50267809D01*
X29236357Y-50243619D01*
X29284738Y-50219428D01*
X29333119Y-50171047D01*
X29357310Y-50098476D01*
X29357310Y-49977523D01*
X29357310Y-50775809D02*
X29115405Y-50606476D01*
X29357310Y-50485523D02*
X28849310Y-50485523D01*
X28849310Y-50679047D01*
X28873500Y-50727428D01*
X28897690Y-50751619D01*
X28946071Y-50775809D01*
X29018643Y-50775809D01*
X29067024Y-50751619D01*
X29091214Y-50727428D01*
X29115405Y-50679047D01*
X29115405Y-50485523D01*
X28849310Y-50920952D02*
X29357310Y-51090285D01*
X28849310Y-51259619D01*
X29357310Y-51695048D02*
X29357310Y-51404762D01*
X29357310Y-51549905D02*
X28849310Y-51549905D01*
X28921881Y-51501524D01*
X28970262Y-51453143D01*
X28994452Y-51404762D01*
X28849310Y-52009524D02*
X28849310Y-52057905D01*
X28873500Y-52106286D01*
X28897690Y-52130477D01*
X28946071Y-52154667D01*
X29042833Y-52178858D01*
X29163786Y-52178858D01*
X29260548Y-52154667D01*
X29308929Y-52130477D01*
X29333119Y-52106286D01*
X29357310Y-52057905D01*
X29357310Y-52009524D01*
X29333119Y-51961143D01*
X29308929Y-51936953D01*
X29260548Y-51912762D01*
X29163786Y-51888572D01*
X29042833Y-51888572D01*
X28946071Y-51912762D01*
X28897690Y-51936953D01*
X28873500Y-51961143D01*
X28849310Y-52009524D01*
X28849310Y-52348191D02*
X28849310Y-52662668D01*
X29042833Y-52493334D01*
X29042833Y-52565906D01*
X29067024Y-52614287D01*
X29091214Y-52638477D01*
X29139595Y-52662668D01*
X29260548Y-52662668D01*
X29308929Y-52638477D01*
X29333119Y-52614287D01*
X29357310Y-52565906D01*
X29357310Y-52420763D01*
X29333119Y-52372382D01*
X29308929Y-52348191D01*
D15*
X30343071Y-61812714D02*
X30343071Y-62429571D01*
X30306786Y-62502143D01*
X30270500Y-62538429D01*
X30197929Y-62574714D01*
X30052786Y-62574714D01*
X29980214Y-62538429D01*
X29943929Y-62502143D01*
X29907643Y-62429571D01*
X29907643Y-61812714D01*
X29181928Y-61812714D02*
X29544785Y-61812714D01*
X29581071Y-62175571D01*
X29544785Y-62139286D01*
X29472214Y-62103000D01*
X29290785Y-62103000D01*
X29218214Y-62139286D01*
X29181928Y-62175571D01*
X29145643Y-62248143D01*
X29145643Y-62429571D01*
X29181928Y-62502143D01*
X29218214Y-62538429D01*
X29290785Y-62574714D01*
X29472214Y-62574714D01*
X29544785Y-62538429D01*
X29581071Y-62502143D01*
D13*
X29357310Y-57597523D02*
X28849310Y-57597523D01*
X28849310Y-57718476D01*
X28873500Y-57791047D01*
X28921881Y-57839428D01*
X28970262Y-57863619D01*
X29067024Y-57887809D01*
X29139595Y-57887809D01*
X29236357Y-57863619D01*
X29284738Y-57839428D01*
X29333119Y-57791047D01*
X29357310Y-57718476D01*
X29357310Y-57597523D01*
X29357310Y-58395809D02*
X29115405Y-58226476D01*
X29357310Y-58105523D02*
X28849310Y-58105523D01*
X28849310Y-58299047D01*
X28873500Y-58347428D01*
X28897690Y-58371619D01*
X28946071Y-58395809D01*
X29018643Y-58395809D01*
X29067024Y-58371619D01*
X29091214Y-58347428D01*
X29115405Y-58299047D01*
X29115405Y-58105523D01*
X28849310Y-58540952D02*
X29357310Y-58710285D01*
X28849310Y-58879619D01*
X29357310Y-59315048D02*
X29357310Y-59024762D01*
X29357310Y-59169905D02*
X28849310Y-59169905D01*
X28921881Y-59121524D01*
X28970262Y-59073143D01*
X28994452Y-59024762D01*
X28849310Y-59629524D02*
X28849310Y-59677905D01*
X28873500Y-59726286D01*
X28897690Y-59750477D01*
X28946071Y-59774667D01*
X29042833Y-59798858D01*
X29163786Y-59798858D01*
X29260548Y-59774667D01*
X29308929Y-59750477D01*
X29333119Y-59726286D01*
X29357310Y-59677905D01*
X29357310Y-59629524D01*
X29333119Y-59581143D01*
X29308929Y-59556953D01*
X29260548Y-59532762D01*
X29163786Y-59508572D01*
X29042833Y-59508572D01*
X28946071Y-59532762D01*
X28897690Y-59556953D01*
X28873500Y-59581143D01*
X28849310Y-59629524D01*
X28849310Y-59968191D02*
X28849310Y-60282668D01*
X29042833Y-60113334D01*
X29042833Y-60185906D01*
X29067024Y-60234287D01*
X29091214Y-60258477D01*
X29139595Y-60282668D01*
X29260548Y-60282668D01*
X29308929Y-60258477D01*
X29333119Y-60234287D01*
X29357310Y-60185906D01*
X29357310Y-60040763D01*
X29333119Y-59992382D01*
X29308929Y-59968191D01*
D15*
X30343071Y-69432714D02*
X30343071Y-70049571D01*
X30306786Y-70122143D01*
X30270500Y-70158429D01*
X30197929Y-70194714D01*
X30052786Y-70194714D01*
X29980214Y-70158429D01*
X29943929Y-70122143D01*
X29907643Y-70049571D01*
X29907643Y-69432714D01*
X29218214Y-69432714D02*
X29363357Y-69432714D01*
X29435928Y-69469000D01*
X29472214Y-69505286D01*
X29544785Y-69614143D01*
X29581071Y-69759286D01*
X29581071Y-70049571D01*
X29544785Y-70122143D01*
X29508500Y-70158429D01*
X29435928Y-70194714D01*
X29290785Y-70194714D01*
X29218214Y-70158429D01*
X29181928Y-70122143D01*
X29145643Y-70049571D01*
X29145643Y-69868143D01*
X29181928Y-69795571D01*
X29218214Y-69759286D01*
X29290785Y-69723000D01*
X29435928Y-69723000D01*
X29508500Y-69759286D01*
X29544785Y-69795571D01*
X29581071Y-69868143D01*
D13*
X29357310Y-65217523D02*
X28849310Y-65217523D01*
X28849310Y-65338476D01*
X28873500Y-65411047D01*
X28921881Y-65459428D01*
X28970262Y-65483619D01*
X29067024Y-65507809D01*
X29139595Y-65507809D01*
X29236357Y-65483619D01*
X29284738Y-65459428D01*
X29333119Y-65411047D01*
X29357310Y-65338476D01*
X29357310Y-65217523D01*
X29357310Y-66015809D02*
X29115405Y-65846476D01*
X29357310Y-65725523D02*
X28849310Y-65725523D01*
X28849310Y-65919047D01*
X28873500Y-65967428D01*
X28897690Y-65991619D01*
X28946071Y-66015809D01*
X29018643Y-66015809D01*
X29067024Y-65991619D01*
X29091214Y-65967428D01*
X29115405Y-65919047D01*
X29115405Y-65725523D01*
X28849310Y-66160952D02*
X29357310Y-66330285D01*
X28849310Y-66499619D01*
X29357310Y-66935048D02*
X29357310Y-66644762D01*
X29357310Y-66789905D02*
X28849310Y-66789905D01*
X28921881Y-66741524D01*
X28970262Y-66693143D01*
X28994452Y-66644762D01*
X28849310Y-67249524D02*
X28849310Y-67297905D01*
X28873500Y-67346286D01*
X28897690Y-67370477D01*
X28946071Y-67394667D01*
X29042833Y-67418858D01*
X29163786Y-67418858D01*
X29260548Y-67394667D01*
X29308929Y-67370477D01*
X29333119Y-67346286D01*
X29357310Y-67297905D01*
X29357310Y-67249524D01*
X29333119Y-67201143D01*
X29308929Y-67176953D01*
X29260548Y-67152762D01*
X29163786Y-67128572D01*
X29042833Y-67128572D01*
X28946071Y-67152762D01*
X28897690Y-67176953D01*
X28873500Y-67201143D01*
X28849310Y-67249524D01*
X28849310Y-67588191D02*
X28849310Y-67902668D01*
X29042833Y-67733334D01*
X29042833Y-67805906D01*
X29067024Y-67854287D01*
X29091214Y-67878477D01*
X29139595Y-67902668D01*
X29260548Y-67902668D01*
X29308929Y-67878477D01*
X29333119Y-67854287D01*
X29357310Y-67805906D01*
X29357310Y-67660763D01*
X29333119Y-67612382D01*
X29308929Y-67588191D01*
D15*
X30343071Y-77052714D02*
X30343071Y-77669571D01*
X30306786Y-77742143D01*
X30270500Y-77778429D01*
X30197929Y-77814714D01*
X30052786Y-77814714D01*
X29980214Y-77778429D01*
X29943929Y-77742143D01*
X29907643Y-77669571D01*
X29907643Y-77052714D01*
X29617357Y-77052714D02*
X29109357Y-77052714D01*
X29435928Y-77814714D01*
D13*
X29357310Y-72837523D02*
X28849310Y-72837523D01*
X28849310Y-72958476D01*
X28873500Y-73031047D01*
X28921881Y-73079428D01*
X28970262Y-73103619D01*
X29067024Y-73127809D01*
X29139595Y-73127809D01*
X29236357Y-73103619D01*
X29284738Y-73079428D01*
X29333119Y-73031047D01*
X29357310Y-72958476D01*
X29357310Y-72837523D01*
X29357310Y-73635809D02*
X29115405Y-73466476D01*
X29357310Y-73345523D02*
X28849310Y-73345523D01*
X28849310Y-73539047D01*
X28873500Y-73587428D01*
X28897690Y-73611619D01*
X28946071Y-73635809D01*
X29018643Y-73635809D01*
X29067024Y-73611619D01*
X29091214Y-73587428D01*
X29115405Y-73539047D01*
X29115405Y-73345523D01*
X28849310Y-73780952D02*
X29357310Y-73950285D01*
X28849310Y-74119619D01*
X29357310Y-74555048D02*
X29357310Y-74264762D01*
X29357310Y-74409905D02*
X28849310Y-74409905D01*
X28921881Y-74361524D01*
X28970262Y-74313143D01*
X28994452Y-74264762D01*
X28849310Y-74869524D02*
X28849310Y-74917905D01*
X28873500Y-74966286D01*
X28897690Y-74990477D01*
X28946071Y-75014667D01*
X29042833Y-75038858D01*
X29163786Y-75038858D01*
X29260548Y-75014667D01*
X29308929Y-74990477D01*
X29333119Y-74966286D01*
X29357310Y-74917905D01*
X29357310Y-74869524D01*
X29333119Y-74821143D01*
X29308929Y-74796953D01*
X29260548Y-74772762D01*
X29163786Y-74748572D01*
X29042833Y-74748572D01*
X28946071Y-74772762D01*
X28897690Y-74796953D01*
X28873500Y-74821143D01*
X28849310Y-74869524D01*
X28849310Y-75208191D02*
X28849310Y-75522668D01*
X29042833Y-75353334D01*
X29042833Y-75425906D01*
X29067024Y-75474287D01*
X29091214Y-75498477D01*
X29139595Y-75522668D01*
X29260548Y-75522668D01*
X29308929Y-75498477D01*
X29333119Y-75474287D01*
X29357310Y-75425906D01*
X29357310Y-75280763D01*
X29333119Y-75232382D01*
X29308929Y-75208191D01*
D15*
X27803021Y-78195714D02*
X27803021Y-78812571D01*
X27766736Y-78885143D01*
X27730450Y-78921429D01*
X27657879Y-78957714D01*
X27512736Y-78957714D01*
X27440164Y-78921429D01*
X27403879Y-78885143D01*
X27367593Y-78812571D01*
X27367593Y-78195714D01*
X26895878Y-78522286D02*
X26968450Y-78486000D01*
X27004735Y-78449714D01*
X27041021Y-78377143D01*
X27041021Y-78340857D01*
X27004735Y-78268286D01*
X26968450Y-78232000D01*
X26895878Y-78195714D01*
X26750735Y-78195714D01*
X26678164Y-78232000D01*
X26641878Y-78268286D01*
X26605593Y-78340857D01*
X26605593Y-78377143D01*
X26641878Y-78449714D01*
X26678164Y-78486000D01*
X26750735Y-78522286D01*
X26895878Y-78522286D01*
X26968450Y-78558571D01*
X27004735Y-78594857D01*
X27041021Y-78667429D01*
X27041021Y-78812571D01*
X27004735Y-78885143D01*
X26968450Y-78921429D01*
X26895878Y-78957714D01*
X26750735Y-78957714D01*
X26678164Y-78921429D01*
X26641878Y-78885143D01*
X26605593Y-78812571D01*
X26605593Y-78667429D01*
X26641878Y-78594857D01*
X26678164Y-78558571D01*
X26750735Y-78522286D01*
D13*
X29357310Y-80457523D02*
X28849310Y-80457523D01*
X28849310Y-80578476D01*
X28873500Y-80651047D01*
X28921881Y-80699428D01*
X28970262Y-80723619D01*
X29067024Y-80747809D01*
X29139595Y-80747809D01*
X29236357Y-80723619D01*
X29284738Y-80699428D01*
X29333119Y-80651047D01*
X29357310Y-80578476D01*
X29357310Y-80457523D01*
X29357310Y-81255809D02*
X29115405Y-81086476D01*
X29357310Y-80965523D02*
X28849310Y-80965523D01*
X28849310Y-81159047D01*
X28873500Y-81207428D01*
X28897690Y-81231619D01*
X28946071Y-81255809D01*
X29018643Y-81255809D01*
X29067024Y-81231619D01*
X29091214Y-81207428D01*
X29115405Y-81159047D01*
X29115405Y-80965523D01*
X28849310Y-81400952D02*
X29357310Y-81570285D01*
X28849310Y-81739619D01*
X29357310Y-82175048D02*
X29357310Y-81884762D01*
X29357310Y-82029905D02*
X28849310Y-82029905D01*
X28921881Y-81981524D01*
X28970262Y-81933143D01*
X28994452Y-81884762D01*
X28849310Y-82489524D02*
X28849310Y-82537905D01*
X28873500Y-82586286D01*
X28897690Y-82610477D01*
X28946071Y-82634667D01*
X29042833Y-82658858D01*
X29163786Y-82658858D01*
X29260548Y-82634667D01*
X29308929Y-82610477D01*
X29333119Y-82586286D01*
X29357310Y-82537905D01*
X29357310Y-82489524D01*
X29333119Y-82441143D01*
X29308929Y-82416953D01*
X29260548Y-82392762D01*
X29163786Y-82368572D01*
X29042833Y-82368572D01*
X28946071Y-82392762D01*
X28897690Y-82416953D01*
X28873500Y-82441143D01*
X28849310Y-82489524D01*
X28849310Y-82828191D02*
X28849310Y-83142668D01*
X29042833Y-82973334D01*
X29042833Y-83045906D01*
X29067024Y-83094287D01*
X29091214Y-83118477D01*
X29139595Y-83142668D01*
X29260548Y-83142668D01*
X29308929Y-83118477D01*
X29333119Y-83094287D01*
X29357310Y-83045906D01*
X29357310Y-82900763D01*
X29333119Y-82852382D01*
X29308929Y-82828191D01*
D15*
X42335400Y-26434143D02*
X42371686Y-26470429D01*
X42480543Y-26506714D01*
X42553114Y-26506714D01*
X42661971Y-26470429D01*
X42734543Y-26397857D01*
X42770828Y-26325286D01*
X42807114Y-26180143D01*
X42807114Y-26071286D01*
X42770828Y-25926143D01*
X42734543Y-25853571D01*
X42661971Y-25781000D01*
X42553114Y-25744714D01*
X42480543Y-25744714D01*
X42371686Y-25781000D01*
X42335400Y-25817286D01*
X41609686Y-26506714D02*
X42045114Y-26506714D01*
X41827400Y-26506714D02*
X41827400Y-25744714D01*
X41899971Y-25853571D01*
X41972543Y-25926143D01*
X42045114Y-25962429D01*
X41029114Y-28121428D02*
X41029114Y-27686000D01*
X41029114Y-27903714D02*
X40267114Y-27903714D01*
X40375971Y-27831143D01*
X40448543Y-27758571D01*
X40484829Y-27686000D01*
X40521114Y-28774571D02*
X41029114Y-28774571D01*
X40521114Y-28448000D02*
X40920257Y-28448000D01*
X40992829Y-28484285D01*
X41029114Y-28556857D01*
X41029114Y-28665714D01*
X40992829Y-28738285D01*
X40956543Y-28774571D01*
X40629971Y-29391429D02*
X40629971Y-29137429D01*
X41029114Y-29137429D02*
X40267114Y-29137429D01*
X40267114Y-29500286D01*
X42335400Y-34054143D02*
X42371686Y-34090429D01*
X42480543Y-34126714D01*
X42553114Y-34126714D01*
X42661971Y-34090429D01*
X42734543Y-34017857D01*
X42770828Y-33945286D01*
X42807114Y-33800143D01*
X42807114Y-33691286D01*
X42770828Y-33546143D01*
X42734543Y-33473571D01*
X42661971Y-33401000D01*
X42553114Y-33364714D01*
X42480543Y-33364714D01*
X42371686Y-33401000D01*
X42335400Y-33437286D01*
X42081400Y-33364714D02*
X41609686Y-33364714D01*
X41863686Y-33655000D01*
X41754828Y-33655000D01*
X41682257Y-33691286D01*
X41645971Y-33727571D01*
X41609686Y-33800143D01*
X41609686Y-33981571D01*
X41645971Y-34054143D01*
X41682257Y-34090429D01*
X41754828Y-34126714D01*
X41972543Y-34126714D01*
X42045114Y-34090429D01*
X42081400Y-34054143D01*
X41029114Y-35741428D02*
X41029114Y-35306000D01*
X41029114Y-35523714D02*
X40267114Y-35523714D01*
X40375971Y-35451143D01*
X40448543Y-35378571D01*
X40484829Y-35306000D01*
X40521114Y-36394571D02*
X41029114Y-36394571D01*
X40521114Y-36068000D02*
X40920257Y-36068000D01*
X40992829Y-36104285D01*
X41029114Y-36176857D01*
X41029114Y-36285714D01*
X40992829Y-36358285D01*
X40956543Y-36394571D01*
X40629971Y-37011429D02*
X40629971Y-36757429D01*
X41029114Y-36757429D02*
X40267114Y-36757429D01*
X40267114Y-37120286D01*
X42335400Y-41674143D02*
X42371686Y-41710429D01*
X42480543Y-41746714D01*
X42553114Y-41746714D01*
X42661971Y-41710429D01*
X42734543Y-41637857D01*
X42770828Y-41565286D01*
X42807114Y-41420143D01*
X42807114Y-41311286D01*
X42770828Y-41166143D01*
X42734543Y-41093571D01*
X42661971Y-41021000D01*
X42553114Y-40984714D01*
X42480543Y-40984714D01*
X42371686Y-41021000D01*
X42335400Y-41057286D01*
X41645971Y-40984714D02*
X42008828Y-40984714D01*
X42045114Y-41347571D01*
X42008828Y-41311286D01*
X41936257Y-41275000D01*
X41754828Y-41275000D01*
X41682257Y-41311286D01*
X41645971Y-41347571D01*
X41609686Y-41420143D01*
X41609686Y-41601571D01*
X41645971Y-41674143D01*
X41682257Y-41710429D01*
X41754828Y-41746714D01*
X41936257Y-41746714D01*
X42008828Y-41710429D01*
X42045114Y-41674143D01*
X41029114Y-43361428D02*
X41029114Y-42926000D01*
X41029114Y-43143714D02*
X40267114Y-43143714D01*
X40375971Y-43071143D01*
X40448543Y-42998571D01*
X40484829Y-42926000D01*
X40521114Y-44014571D02*
X41029114Y-44014571D01*
X40521114Y-43688000D02*
X40920257Y-43688000D01*
X40992829Y-43724285D01*
X41029114Y-43796857D01*
X41029114Y-43905714D01*
X40992829Y-43978285D01*
X40956543Y-44014571D01*
X40629971Y-44631429D02*
X40629971Y-44377429D01*
X41029114Y-44377429D02*
X40267114Y-44377429D01*
X40267114Y-44740286D01*
X42335400Y-49294143D02*
X42371686Y-49330429D01*
X42480543Y-49366714D01*
X42553114Y-49366714D01*
X42661971Y-49330429D01*
X42734543Y-49257857D01*
X42770828Y-49185286D01*
X42807114Y-49040143D01*
X42807114Y-48931286D01*
X42770828Y-48786143D01*
X42734543Y-48713571D01*
X42661971Y-48641000D01*
X42553114Y-48604714D01*
X42480543Y-48604714D01*
X42371686Y-48641000D01*
X42335400Y-48677286D01*
X42081400Y-48604714D02*
X41573400Y-48604714D01*
X41899971Y-49366714D01*
X41029114Y-50981428D02*
X41029114Y-50546000D01*
X41029114Y-50763714D02*
X40267114Y-50763714D01*
X40375971Y-50691143D01*
X40448543Y-50618571D01*
X40484829Y-50546000D01*
X40521114Y-51634571D02*
X41029114Y-51634571D01*
X40521114Y-51308000D02*
X40920257Y-51308000D01*
X40992829Y-51344285D01*
X41029114Y-51416857D01*
X41029114Y-51525714D01*
X40992829Y-51598285D01*
X40956543Y-51634571D01*
X40629971Y-52251429D02*
X40629971Y-51997429D01*
X41029114Y-51997429D02*
X40267114Y-51997429D01*
X40267114Y-52360286D01*
X42335400Y-56914143D02*
X42371686Y-56950429D01*
X42480543Y-56986714D01*
X42553114Y-56986714D01*
X42661971Y-56950429D01*
X42734543Y-56877857D01*
X42770828Y-56805286D01*
X42807114Y-56660143D01*
X42807114Y-56551286D01*
X42770828Y-56406143D01*
X42734543Y-56333571D01*
X42661971Y-56261000D01*
X42553114Y-56224714D01*
X42480543Y-56224714D01*
X42371686Y-56261000D01*
X42335400Y-56297286D01*
X41972543Y-56986714D02*
X41827400Y-56986714D01*
X41754828Y-56950429D01*
X41718543Y-56914143D01*
X41645971Y-56805286D01*
X41609686Y-56660143D01*
X41609686Y-56369857D01*
X41645971Y-56297286D01*
X41682257Y-56261000D01*
X41754828Y-56224714D01*
X41899971Y-56224714D01*
X41972543Y-56261000D01*
X42008828Y-56297286D01*
X42045114Y-56369857D01*
X42045114Y-56551286D01*
X42008828Y-56623857D01*
X41972543Y-56660143D01*
X41899971Y-56696429D01*
X41754828Y-56696429D01*
X41682257Y-56660143D01*
X41645971Y-56623857D01*
X41609686Y-56551286D01*
X41029114Y-58601428D02*
X41029114Y-58166000D01*
X41029114Y-58383714D02*
X40267114Y-58383714D01*
X40375971Y-58311143D01*
X40448543Y-58238571D01*
X40484829Y-58166000D01*
X40521114Y-59254571D02*
X41029114Y-59254571D01*
X40521114Y-58928000D02*
X40920257Y-58928000D01*
X40992829Y-58964285D01*
X41029114Y-59036857D01*
X41029114Y-59145714D01*
X40992829Y-59218285D01*
X40956543Y-59254571D01*
X40629971Y-59871429D02*
X40629971Y-59617429D01*
X41029114Y-59617429D02*
X40267114Y-59617429D01*
X40267114Y-59980286D01*
X42698257Y-64534143D02*
X42734543Y-64570429D01*
X42843400Y-64606714D01*
X42915971Y-64606714D01*
X43024828Y-64570429D01*
X43097400Y-64497857D01*
X43133685Y-64425286D01*
X43169971Y-64280143D01*
X43169971Y-64171286D01*
X43133685Y-64026143D01*
X43097400Y-63953571D01*
X43024828Y-63881000D01*
X42915971Y-63844714D01*
X42843400Y-63844714D01*
X42734543Y-63881000D01*
X42698257Y-63917286D01*
X41972543Y-64606714D02*
X42407971Y-64606714D01*
X42190257Y-64606714D02*
X42190257Y-63844714D01*
X42262828Y-63953571D01*
X42335400Y-64026143D01*
X42407971Y-64062429D01*
X41246829Y-64606714D02*
X41682257Y-64606714D01*
X41464543Y-64606714D02*
X41464543Y-63844714D01*
X41537114Y-63953571D01*
X41609686Y-64026143D01*
X41682257Y-64062429D01*
X41029114Y-66221428D02*
X41029114Y-65786000D01*
X41029114Y-66003714D02*
X40267114Y-66003714D01*
X40375971Y-65931143D01*
X40448543Y-65858571D01*
X40484829Y-65786000D01*
X40521114Y-66874571D02*
X41029114Y-66874571D01*
X40521114Y-66548000D02*
X40920257Y-66548000D01*
X40992829Y-66584285D01*
X41029114Y-66656857D01*
X41029114Y-66765714D01*
X40992829Y-66838285D01*
X40956543Y-66874571D01*
X40629971Y-67491429D02*
X40629971Y-67237429D01*
X41029114Y-67237429D02*
X40267114Y-67237429D01*
X40267114Y-67600286D01*
X42698257Y-72154143D02*
X42734543Y-72190429D01*
X42843400Y-72226714D01*
X42915971Y-72226714D01*
X43024828Y-72190429D01*
X43097400Y-72117857D01*
X43133685Y-72045286D01*
X43169971Y-71900143D01*
X43169971Y-71791286D01*
X43133685Y-71646143D01*
X43097400Y-71573571D01*
X43024828Y-71501000D01*
X42915971Y-71464714D01*
X42843400Y-71464714D01*
X42734543Y-71501000D01*
X42698257Y-71537286D01*
X41972543Y-72226714D02*
X42407971Y-72226714D01*
X42190257Y-72226714D02*
X42190257Y-71464714D01*
X42262828Y-71573571D01*
X42335400Y-71646143D01*
X42407971Y-71682429D01*
X41718543Y-71464714D02*
X41246829Y-71464714D01*
X41500829Y-71755000D01*
X41391971Y-71755000D01*
X41319400Y-71791286D01*
X41283114Y-71827571D01*
X41246829Y-71900143D01*
X41246829Y-72081571D01*
X41283114Y-72154143D01*
X41319400Y-72190429D01*
X41391971Y-72226714D01*
X41609686Y-72226714D01*
X41682257Y-72190429D01*
X41718543Y-72154143D01*
X41029114Y-73841428D02*
X41029114Y-73406000D01*
X41029114Y-73623714D02*
X40267114Y-73623714D01*
X40375971Y-73551143D01*
X40448543Y-73478571D01*
X40484829Y-73406000D01*
X40521114Y-74494571D02*
X41029114Y-74494571D01*
X40521114Y-74168000D02*
X40920257Y-74168000D01*
X40992829Y-74204285D01*
X41029114Y-74276857D01*
X41029114Y-74385714D01*
X40992829Y-74458285D01*
X40956543Y-74494571D01*
X40629971Y-75111429D02*
X40629971Y-74857429D01*
X41029114Y-74857429D02*
X40267114Y-74857429D01*
X40267114Y-75220286D01*
X42698257Y-79774143D02*
X42734543Y-79810429D01*
X42843400Y-79846714D01*
X42915971Y-79846714D01*
X43024828Y-79810429D01*
X43097400Y-79737857D01*
X43133685Y-79665286D01*
X43169971Y-79520143D01*
X43169971Y-79411286D01*
X43133685Y-79266143D01*
X43097400Y-79193571D01*
X43024828Y-79121000D01*
X42915971Y-79084714D01*
X42843400Y-79084714D01*
X42734543Y-79121000D01*
X42698257Y-79157286D01*
X41972543Y-79846714D02*
X42407971Y-79846714D01*
X42190257Y-79846714D02*
X42190257Y-79084714D01*
X42262828Y-79193571D01*
X42335400Y-79266143D01*
X42407971Y-79302429D01*
X41283114Y-79084714D02*
X41645971Y-79084714D01*
X41682257Y-79447571D01*
X41645971Y-79411286D01*
X41573400Y-79375000D01*
X41391971Y-79375000D01*
X41319400Y-79411286D01*
X41283114Y-79447571D01*
X41246829Y-79520143D01*
X41246829Y-79701571D01*
X41283114Y-79774143D01*
X41319400Y-79810429D01*
X41391971Y-79846714D01*
X41573400Y-79846714D01*
X41645971Y-79810429D01*
X41682257Y-79774143D01*
X41029114Y-81461428D02*
X41029114Y-81026000D01*
X41029114Y-81243714D02*
X40267114Y-81243714D01*
X40375971Y-81171143D01*
X40448543Y-81098571D01*
X40484829Y-81026000D01*
X40521114Y-82114571D02*
X41029114Y-82114571D01*
X40521114Y-81788000D02*
X40920257Y-81788000D01*
X40992829Y-81824285D01*
X41029114Y-81896857D01*
X41029114Y-82005714D01*
X40992829Y-82078285D01*
X40956543Y-82114571D01*
X40629971Y-82731429D02*
X40629971Y-82477429D01*
X41029114Y-82477429D02*
X40267114Y-82477429D01*
X40267114Y-82840286D01*
%LPC*%
D16*
X45002400Y-27406600D03*
X45002400Y-29489400D03*
X45002400Y-35026600D03*
X45002400Y-37109400D03*
X45002400Y-42646600D03*
X45002400Y-44729400D03*
X45002400Y-50266600D03*
X45002400Y-52349400D03*
X45002400Y-57886600D03*
X45002400Y-59969400D03*
X45002400Y-65506600D03*
X45002400Y-67589400D03*
X45002400Y-73126600D03*
X45002400Y-75209400D03*
X45002400Y-80746600D03*
X45002400Y-82829400D03*
D17*
X47586900Y-27178000D03*
X47586900Y-29718000D03*
X47586900Y-34798000D03*
X47586900Y-37338000D03*
X47586900Y-42418000D03*
X47586900Y-44958000D03*
X47586900Y-50038000D03*
X47586900Y-52578000D03*
X47586900Y-57658000D03*
X47586900Y-60198000D03*
X47586900Y-65278000D03*
X47586900Y-67818000D03*
X47586900Y-72898000D03*
X47586900Y-75438000D03*
X47586900Y-80518000D03*
X47586900Y-83058000D03*
D18*
X36334700Y-74168000D03*
X36334700Y-36068000D03*
D19*
X36747400Y-29268420D03*
X36747400Y-30167580D03*
X36747400Y-39428420D03*
X36747400Y-40327580D03*
X36747400Y-44508420D03*
X36747400Y-45407580D03*
X36747400Y-52128420D03*
X36747400Y-53027580D03*
X36747400Y-59748420D03*
X36747400Y-60647580D03*
X36747400Y-67368420D03*
X36747400Y-68267580D03*
X36747400Y-77528420D03*
X36747400Y-78427580D03*
X36747400Y-82608420D03*
X36747400Y-83507580D03*
X34842400Y-29268420D03*
X34842400Y-30167580D03*
X38652400Y-29268420D03*
X38652400Y-30167580D03*
X34842400Y-39428420D03*
X34842400Y-40327580D03*
X38652400Y-39428420D03*
X38652400Y-40327580D03*
X34842400Y-44508420D03*
X34842400Y-45407580D03*
X38652400Y-44508420D03*
X38652400Y-45407580D03*
X34842400Y-52128420D03*
X34842400Y-53027580D03*
X38652400Y-52128420D03*
X38652400Y-53027580D03*
X34842400Y-59748420D03*
X34842400Y-60647580D03*
X38652400Y-59748420D03*
X38652400Y-60647580D03*
X34842400Y-67368420D03*
X34842400Y-68267580D03*
X38652400Y-67368420D03*
X38652400Y-68267580D03*
X34842400Y-77528420D03*
X34842400Y-78427580D03*
X38652400Y-77528420D03*
X38652400Y-78427580D03*
X34842400Y-82608420D03*
X34842400Y-83507580D03*
X38652400Y-82608420D03*
X38652400Y-83507580D03*
D20*
X32454900Y-26543000D03*
X32454900Y-27813000D03*
X32454900Y-29083000D03*
X32454900Y-30353000D03*
X27070100Y-30353000D03*
X27070100Y-29083000D03*
X27070100Y-27813000D03*
X27070100Y-26543000D03*
X32454900Y-34163000D03*
X32454900Y-35433000D03*
X32454900Y-36703000D03*
X32454900Y-37973000D03*
X27070100Y-37973000D03*
X27070100Y-36703000D03*
X27070100Y-35433000D03*
X27070100Y-34163000D03*
X32454900Y-41783000D03*
X32454900Y-43053000D03*
X32454900Y-44323000D03*
X32454900Y-45593000D03*
X27070100Y-45593000D03*
X27070100Y-44323000D03*
X27070100Y-43053000D03*
X27070100Y-41783000D03*
X32454900Y-49403000D03*
X32454900Y-50673000D03*
X32454900Y-51943000D03*
X32454900Y-53213000D03*
X27070100Y-53213000D03*
X27070100Y-51943000D03*
X27070100Y-50673000D03*
X27070100Y-49403000D03*
X32454900Y-57023000D03*
X32454900Y-58293000D03*
X32454900Y-59563000D03*
X32454900Y-60833000D03*
X27070100Y-60833000D03*
X27070100Y-59563000D03*
X27070100Y-58293000D03*
X27070100Y-57023000D03*
X32454900Y-64643000D03*
X32454900Y-65913000D03*
X32454900Y-67183000D03*
X32454900Y-68453000D03*
X27070100Y-68453000D03*
X27070100Y-67183000D03*
X27070100Y-65913000D03*
X27070100Y-64643000D03*
X32454900Y-72263000D03*
X32454900Y-73533000D03*
X32454900Y-74803000D03*
X32454900Y-76073000D03*
X27070100Y-76073000D03*
X27070100Y-74803000D03*
X27070100Y-73533000D03*
X27070100Y-72263000D03*
X32454900Y-79883000D03*
X32454900Y-81153000D03*
X32454900Y-82423000D03*
X32454900Y-83693000D03*
X27070100Y-83693000D03*
X27070100Y-82423000D03*
X27070100Y-81153000D03*
X27070100Y-79883000D03*
D16*
X42208400Y-27178000D03*
X42208400Y-29718000D03*
X42208400Y-34798000D03*
X42208400Y-37338000D03*
X42208400Y-42418000D03*
X42208400Y-44958000D03*
X42208400Y-50038000D03*
X42208400Y-52578000D03*
X42208400Y-57658000D03*
X42208400Y-60198000D03*
X42208400Y-65278000D03*
X42208400Y-67818000D03*
X42208400Y-72898000D03*
X42208400Y-75438000D03*
X42208400Y-80518000D03*
X42208400Y-83058000D03*
M02*
