G04 #@! TF.FileFunction,Soldermask,Bot*
%FSLAX46Y46*%
G04 Gerber Fmt 4.6, Leading zero omitted, Abs format (unit mm)*
G04 Created by KiCad (PCBNEW 0.201505120158+5650~23~ubuntu14.04.1-product) date Thu 14 May 2015 12:47:03 PM EDT*
%MOMM*%
G01*
G04 APERTURE LIST*
%ADD10C,0.100000*%
%ADD11C,0.228600*%
%ADD12C,2.438400*%
%ADD13R,1.701800X0.751840*%
%ADD14C,3.048000*%
%ADD15R,0.721360X0.721360*%
%ADD16R,1.187400X2.000200*%
G04 APERTURE END LIST*
D10*
D11*
X25400000Y-84836000D02*
X49364900Y-84836000D01*
X49364900Y-25400000D02*
X49364900Y-84836000D01*
X25400000Y-25400000D02*
X25400000Y-84836000D01*
X25400000Y-25400000D02*
X49364900Y-25400000D01*
D12*
X47586900Y-27178000D03*
X47586900Y-29718000D03*
X47586900Y-34798000D03*
X47586900Y-37338000D03*
X47586900Y-42418000D03*
X47586900Y-44958000D03*
X47586900Y-50038000D03*
X47586900Y-52578000D03*
X47586900Y-57658000D03*
X47586900Y-60198000D03*
X47586900Y-65278000D03*
X47586900Y-67818000D03*
X47586900Y-72898000D03*
X47586900Y-75438000D03*
X47586900Y-80518000D03*
X47586900Y-83058000D03*
D13*
X32454900Y-79883000D03*
X32454900Y-81153000D03*
X32454900Y-82423000D03*
X32454900Y-83693000D03*
X27070100Y-83693000D03*
X27070100Y-82423000D03*
X27070100Y-81153000D03*
X27070100Y-79883000D03*
X32454900Y-72263000D03*
X32454900Y-73533000D03*
X32454900Y-74803000D03*
X32454900Y-76073000D03*
X27070100Y-76073000D03*
X27070100Y-74803000D03*
X27070100Y-73533000D03*
X27070100Y-72263000D03*
X32454900Y-64643000D03*
X32454900Y-65913000D03*
X32454900Y-67183000D03*
X32454900Y-68453000D03*
X27070100Y-68453000D03*
X27070100Y-67183000D03*
X27070100Y-65913000D03*
X27070100Y-64643000D03*
X32454900Y-57023000D03*
X32454900Y-58293000D03*
X32454900Y-59563000D03*
X32454900Y-60833000D03*
X27070100Y-60833000D03*
X27070100Y-59563000D03*
X27070100Y-58293000D03*
X27070100Y-57023000D03*
X32454900Y-49403000D03*
X32454900Y-50673000D03*
X32454900Y-51943000D03*
X32454900Y-53213000D03*
X27070100Y-53213000D03*
X27070100Y-51943000D03*
X27070100Y-50673000D03*
X27070100Y-49403000D03*
X32454900Y-41783000D03*
X32454900Y-43053000D03*
X32454900Y-44323000D03*
X32454900Y-45593000D03*
X27070100Y-45593000D03*
X27070100Y-44323000D03*
X27070100Y-43053000D03*
X27070100Y-41783000D03*
X32454900Y-34163000D03*
X32454900Y-35433000D03*
X32454900Y-36703000D03*
X32454900Y-37973000D03*
X27070100Y-37973000D03*
X27070100Y-36703000D03*
X27070100Y-35433000D03*
X27070100Y-34163000D03*
X32454900Y-26543000D03*
X32454900Y-27813000D03*
X32454900Y-29083000D03*
X32454900Y-30353000D03*
X27070100Y-30353000D03*
X27070100Y-29083000D03*
X27070100Y-27813000D03*
X27070100Y-26543000D03*
D14*
X36334700Y-74168000D03*
X36334700Y-36068000D03*
D15*
X36747400Y-29268420D03*
X36747400Y-30167580D03*
X36747400Y-39428420D03*
X36747400Y-40327580D03*
X36747400Y-44508420D03*
X36747400Y-45407580D03*
X36747400Y-52128420D03*
X36747400Y-53027580D03*
X36747400Y-59748420D03*
X36747400Y-60647580D03*
X36747400Y-67368420D03*
X36747400Y-68267580D03*
X36747400Y-77528420D03*
X36747400Y-78427580D03*
X36747400Y-82608420D03*
X36747400Y-83507580D03*
X34842400Y-29268420D03*
X34842400Y-30167580D03*
X38652400Y-29268420D03*
X38652400Y-30167580D03*
X34842400Y-39428420D03*
X34842400Y-40327580D03*
X38652400Y-39428420D03*
X38652400Y-40327580D03*
X34842400Y-44508420D03*
X34842400Y-45407580D03*
X38652400Y-44508420D03*
X38652400Y-45407580D03*
X34842400Y-52128420D03*
X34842400Y-53027580D03*
X38652400Y-52128420D03*
X38652400Y-53027580D03*
X34842400Y-59748420D03*
X34842400Y-60647580D03*
X38652400Y-59748420D03*
X38652400Y-60647580D03*
X34842400Y-67368420D03*
X34842400Y-68267580D03*
X38652400Y-67368420D03*
X38652400Y-68267580D03*
X34842400Y-77528420D03*
X34842400Y-78427580D03*
X38652400Y-77528420D03*
X38652400Y-78427580D03*
X34842400Y-82608420D03*
X34842400Y-83507580D03*
X38652400Y-82608420D03*
X38652400Y-83507580D03*
D16*
X42691000Y-80518000D03*
X44773800Y-80518000D03*
X42691000Y-72898000D03*
X44773800Y-72898000D03*
X42691000Y-65278000D03*
X44773800Y-65278000D03*
X42691000Y-57658000D03*
X44773800Y-57658000D03*
X42691000Y-50038000D03*
X44773800Y-50038000D03*
X42691000Y-42418000D03*
X44773800Y-42418000D03*
X42691000Y-34798000D03*
X44773800Y-34798000D03*
X42691000Y-27178000D03*
X44773800Y-27178000D03*
X42691000Y-83058000D03*
X44773800Y-83058000D03*
X42691000Y-75438000D03*
X44773800Y-75438000D03*
X42691000Y-67818000D03*
X44773800Y-67818000D03*
X42691000Y-60198000D03*
X44773800Y-60198000D03*
X42691000Y-52578000D03*
X44773800Y-52578000D03*
X42691000Y-44958000D03*
X44773800Y-44958000D03*
X42691000Y-37338000D03*
X44773800Y-37338000D03*
X42691000Y-29718000D03*
X44773800Y-29718000D03*
M02*
