G04 #@! TF.FileFunction,Copper,L1,Top,Signal*
%FSLAX46Y46*%
G04 Gerber Fmt 4.6, Leading zero omitted, Abs format (unit mm)*
G04 Created by KiCad (PCBNEW 0.201504221001+5618~22~ubuntu14.04.1-product) date Fri 01 May 2015 10:17:24 AM EDT*
%MOMM*%
G01*
G04 APERTURE LIST*
%ADD10C,0.100000*%
%ADD11C,0.228600*%
%ADD12R,4.495800X1.016000*%
%ADD13C,2.184400*%
%ADD14R,2.540000X1.524000*%
%ADD15C,2.692400*%
%ADD16C,0.889000*%
%ADD17C,0.812800*%
%ADD18C,0.203200*%
G04 APERTURE END LIST*
D10*
D11*
X25400000Y-84836000D02*
X49364900Y-84836000D01*
X49364900Y-25400000D02*
X49364900Y-84836000D01*
X25400000Y-25400000D02*
X25400000Y-84836000D01*
X25400000Y-25400000D02*
X49364900Y-25400000D01*
D12*
X28752800Y-46228000D03*
X34747200Y-46228000D03*
X28752800Y-48768000D03*
X34747200Y-48768000D03*
X28752800Y-51308000D03*
X34747200Y-51308000D03*
X28752800Y-53848000D03*
X34747200Y-53848000D03*
X28752800Y-56388000D03*
X34747200Y-56388000D03*
X28752800Y-58928000D03*
X34747200Y-58928000D03*
X28752800Y-61468000D03*
X34747200Y-61468000D03*
X28752800Y-64008000D03*
X34747200Y-64008000D03*
D13*
X47586900Y-80518000D03*
X47586900Y-83058000D03*
X47586900Y-72898000D03*
X47586900Y-75438000D03*
X47586900Y-65278000D03*
X47586900Y-67818000D03*
X47586900Y-57658000D03*
X47586900Y-60198000D03*
X47586900Y-50038000D03*
X47586900Y-52578000D03*
X47586900Y-42418000D03*
X47586900Y-44958000D03*
X47586900Y-34798000D03*
X47586900Y-37338000D03*
X47586900Y-27178000D03*
X47586900Y-29718000D03*
D14*
X27222500Y-27178000D03*
X34842500Y-27178000D03*
X27222500Y-29718000D03*
X34842500Y-29718000D03*
X27222500Y-32258000D03*
X34842500Y-32258000D03*
X27222500Y-39878000D03*
X34842500Y-39878000D03*
X27222500Y-70358000D03*
X34842500Y-70358000D03*
X27222500Y-77978000D03*
X34842500Y-77978000D03*
X27222500Y-80518000D03*
X34842500Y-80518000D03*
X27222500Y-83058000D03*
X34842500Y-83058000D03*
D15*
X36334700Y-74168000D03*
X36334700Y-36068000D03*
D16*
X31750000Y-61340800D03*
D17*
X27222500Y-83058000D02*
X27222500Y-80518000D01*
X27222500Y-80518000D02*
X27222500Y-77978000D01*
X27222500Y-77978000D02*
X27222500Y-70358000D01*
X27222500Y-70358000D02*
X27222500Y-68935300D01*
X27222500Y-32258000D02*
X27222500Y-29718000D01*
X27222500Y-29718000D02*
X27222500Y-27178000D01*
X28752800Y-67405000D02*
X28752800Y-64008000D01*
X27222500Y-68935300D02*
X28752800Y-67405000D01*
X28752800Y-61468000D02*
X28752800Y-58928000D01*
X28752800Y-58928000D02*
X28752800Y-56388000D01*
X28752800Y-56388000D02*
X28752800Y-53848000D01*
X28752800Y-53848000D02*
X28752800Y-51308000D01*
X28752800Y-51308000D02*
X28752800Y-48768000D01*
X28752800Y-48768000D02*
X28752800Y-46228000D01*
X27222500Y-44697700D02*
X27222500Y-39878000D01*
X28752800Y-46228000D02*
X27222500Y-44697700D01*
X27222500Y-39878000D02*
X27222500Y-32258000D01*
X28752800Y-64008000D02*
X28752800Y-61468000D01*
X31661400Y-61429400D02*
X31750000Y-61340800D01*
X31661400Y-61468000D02*
X31661400Y-61429400D01*
X28752800Y-61468000D02*
X31661400Y-61468000D01*
X45046900Y-27178000D02*
X34842500Y-27178000D01*
X47586900Y-29718000D02*
X45046900Y-27178000D01*
X36773300Y-44201900D02*
X34747200Y-46228000D01*
X36773300Y-38790400D02*
X36773300Y-44201900D01*
X36057900Y-38075000D02*
X36773300Y-38790400D01*
X35501400Y-38075000D02*
X36057900Y-38075000D01*
X31805900Y-34379500D02*
X35501400Y-38075000D01*
X31805900Y-28283900D02*
X31805900Y-34379500D01*
X32911800Y-27178000D02*
X31805900Y-28283900D01*
X34842500Y-27178000D02*
X32911800Y-27178000D01*
X34915100Y-29718000D02*
X36773200Y-29718000D01*
X44393200Y-37338000D02*
X36773200Y-29718000D01*
X47586900Y-37338000D02*
X44393200Y-37338000D01*
X34915100Y-29718000D02*
X34842500Y-29718000D01*
X38365100Y-48058700D02*
X37655800Y-48768000D01*
X38365100Y-35240000D02*
X38365100Y-48058700D01*
X36899900Y-33774800D02*
X38365100Y-35240000D01*
X33324000Y-33774800D02*
X36899900Y-33774800D01*
X32911800Y-33362600D02*
X33324000Y-33774800D01*
X32911800Y-29718000D02*
X32911800Y-33362600D01*
X34842500Y-29718000D02*
X32911800Y-29718000D01*
X34747200Y-48768000D02*
X37655800Y-48768000D01*
X34747200Y-51308000D02*
X37655800Y-51308000D01*
X34842500Y-32258000D02*
X36773200Y-32258000D01*
X47586900Y-44958000D02*
X44005800Y-44958000D01*
X44005800Y-44958000D02*
X37655800Y-51308000D01*
X37007800Y-32258000D02*
X36773200Y-32258000D01*
X44005800Y-39256000D02*
X37007800Y-32258000D01*
X44005800Y-44958000D02*
X44005800Y-39256000D01*
X31838600Y-44304600D02*
X31838600Y-53848000D01*
X34842500Y-41300700D02*
X31838600Y-44304600D01*
X34842500Y-39878000D02*
X34842500Y-41300700D01*
X34747200Y-53848000D02*
X31838600Y-53848000D01*
X38925800Y-52578000D02*
X37655800Y-53848000D01*
X47586900Y-52578000D02*
X38925800Y-52578000D01*
X34747200Y-53848000D02*
X37655800Y-53848000D01*
X43776900Y-56388000D02*
X34747200Y-56388000D01*
X47586900Y-60198000D02*
X43776900Y-56388000D01*
X31838600Y-59734200D02*
X31838600Y-56388000D01*
X32318800Y-60214400D02*
X31838600Y-59734200D01*
X37183800Y-60214400D02*
X32318800Y-60214400D01*
X38750400Y-61781000D02*
X37183800Y-60214400D01*
X38750400Y-65294200D02*
X38750400Y-61781000D01*
X35109300Y-68935300D02*
X38750400Y-65294200D01*
X34842500Y-68935300D02*
X35109300Y-68935300D01*
X34842500Y-70358000D02*
X34842500Y-68935300D01*
X34747200Y-56388000D02*
X31838600Y-56388000D01*
X34747200Y-58928000D02*
X37655800Y-58928000D01*
X34842500Y-77978000D02*
X36773200Y-77978000D01*
X36773200Y-77430300D02*
X46385500Y-67818000D01*
X36773200Y-77978000D02*
X36773200Y-77430300D01*
X47586900Y-67818000D02*
X46385500Y-67818000D01*
X37655800Y-59088300D02*
X37655800Y-58928000D01*
X46385500Y-67818000D02*
X37655800Y-59088300D01*
X42506900Y-80518000D02*
X34842500Y-80518000D01*
X47586900Y-75438000D02*
X42506900Y-80518000D01*
X35900400Y-61468000D02*
X34747200Y-61468000D01*
X37655900Y-63223500D02*
X35900400Y-61468000D01*
X37655900Y-64795600D02*
X37655900Y-63223500D01*
X37046000Y-65405500D02*
X37655900Y-64795600D01*
X36794500Y-65405500D02*
X37046000Y-65405500D01*
X32911800Y-69288200D02*
X36794500Y-65405500D01*
X32911800Y-80518000D02*
X32911800Y-69288200D01*
X34842500Y-80518000D02*
X32911800Y-80518000D01*
X47586900Y-83058000D02*
X34842500Y-83058000D01*
X31838600Y-81984800D02*
X31838600Y-64008000D01*
X32911800Y-83058000D02*
X31838600Y-81984800D01*
X34842500Y-83058000D02*
X32911800Y-83058000D01*
X34747200Y-64008000D02*
X31838600Y-64008000D01*
D18*
G36*
X48945800Y-36968544D02*
X48771910Y-36547697D01*
X48488842Y-36264135D01*
X48593103Y-36019729D01*
X47586900Y-35013526D01*
X47371374Y-35229052D01*
X47371374Y-34798000D01*
X46365171Y-33791797D01*
X46098990Y-33905346D01*
X45870646Y-34542694D01*
X45903587Y-35218910D01*
X46098990Y-35690654D01*
X46365171Y-35804203D01*
X47371374Y-34798000D01*
X47371374Y-35229052D01*
X46580697Y-36019729D01*
X46685046Y-36264345D01*
X46403271Y-36545630D01*
X46390660Y-36576000D01*
X44708830Y-36576000D01*
X37312015Y-29179185D01*
X37064805Y-29014004D01*
X36773200Y-28956000D01*
X36475067Y-28956000D01*
X36448759Y-28820411D01*
X36370477Y-28701241D01*
X36252299Y-28621469D01*
X36112500Y-28593433D01*
X33572500Y-28593433D01*
X33436911Y-28619741D01*
X33317741Y-28698023D01*
X33237969Y-28816201D01*
X33209933Y-28956000D01*
X32911800Y-28956000D01*
X32620195Y-29014004D01*
X32567900Y-29048946D01*
X32567900Y-28599530D01*
X33212776Y-27954654D01*
X33236241Y-28075589D01*
X33314523Y-28194759D01*
X33432701Y-28274531D01*
X33572500Y-28302567D01*
X36112500Y-28302567D01*
X36248089Y-28276259D01*
X36367259Y-28197977D01*
X36447031Y-28079799D01*
X36475067Y-27940000D01*
X44731269Y-27940000D01*
X46201886Y-29410617D01*
X46190143Y-29438900D01*
X46189658Y-29994661D01*
X46401890Y-30508303D01*
X46794530Y-30901629D01*
X47307800Y-31114757D01*
X47863561Y-31115242D01*
X48377203Y-30903010D01*
X48770529Y-30510370D01*
X48945800Y-30088269D01*
X48945800Y-33850312D01*
X48808629Y-33791797D01*
X48593103Y-34007323D01*
X48593103Y-33576271D01*
X48479554Y-33310090D01*
X47842206Y-33081746D01*
X47165990Y-33114687D01*
X46694246Y-33310090D01*
X46580697Y-33576271D01*
X47586900Y-34582474D01*
X48593103Y-33576271D01*
X48593103Y-34007323D01*
X47802426Y-34798000D01*
X48808629Y-35804203D01*
X48945800Y-35745687D01*
X48945800Y-36968544D01*
X48945800Y-36968544D01*
G37*
X48945800Y-36968544D02*
X48771910Y-36547697D01*
X48488842Y-36264135D01*
X48593103Y-36019729D01*
X47586900Y-35013526D01*
X47371374Y-35229052D01*
X47371374Y-34798000D01*
X46365171Y-33791797D01*
X46098990Y-33905346D01*
X45870646Y-34542694D01*
X45903587Y-35218910D01*
X46098990Y-35690654D01*
X46365171Y-35804203D01*
X47371374Y-34798000D01*
X47371374Y-35229052D01*
X46580697Y-36019729D01*
X46685046Y-36264345D01*
X46403271Y-36545630D01*
X46390660Y-36576000D01*
X44708830Y-36576000D01*
X37312015Y-29179185D01*
X37064805Y-29014004D01*
X36773200Y-28956000D01*
X36475067Y-28956000D01*
X36448759Y-28820411D01*
X36370477Y-28701241D01*
X36252299Y-28621469D01*
X36112500Y-28593433D01*
X33572500Y-28593433D01*
X33436911Y-28619741D01*
X33317741Y-28698023D01*
X33237969Y-28816201D01*
X33209933Y-28956000D01*
X32911800Y-28956000D01*
X32620195Y-29014004D01*
X32567900Y-29048946D01*
X32567900Y-28599530D01*
X33212776Y-27954654D01*
X33236241Y-28075589D01*
X33314523Y-28194759D01*
X33432701Y-28274531D01*
X33572500Y-28302567D01*
X36112500Y-28302567D01*
X36248089Y-28276259D01*
X36367259Y-28197977D01*
X36447031Y-28079799D01*
X36475067Y-27940000D01*
X44731269Y-27940000D01*
X46201886Y-29410617D01*
X46190143Y-29438900D01*
X46189658Y-29994661D01*
X46401890Y-30508303D01*
X46794530Y-30901629D01*
X47307800Y-31114757D01*
X47863561Y-31115242D01*
X48377203Y-30903010D01*
X48770529Y-30510370D01*
X48945800Y-30088269D01*
X48945800Y-33850312D01*
X48808629Y-33791797D01*
X48593103Y-34007323D01*
X48593103Y-33576271D01*
X48479554Y-33310090D01*
X47842206Y-33081746D01*
X47165990Y-33114687D01*
X46694246Y-33310090D01*
X46580697Y-33576271D01*
X47586900Y-34582474D01*
X48593103Y-33576271D01*
X48593103Y-34007323D01*
X47802426Y-34798000D01*
X48808629Y-35804203D01*
X48945800Y-35745687D01*
X48945800Y-36968544D01*
G36*
X48945800Y-44588544D02*
X48771910Y-44167697D01*
X48488842Y-43884135D01*
X48593103Y-43639729D01*
X47586900Y-42633526D01*
X47371374Y-42849052D01*
X47371374Y-42418000D01*
X46365171Y-41411797D01*
X46098990Y-41525346D01*
X45870646Y-42162694D01*
X45903587Y-42838910D01*
X46098990Y-43310654D01*
X46365171Y-43424203D01*
X47371374Y-42418000D01*
X47371374Y-42849052D01*
X46580697Y-43639729D01*
X46685046Y-43884345D01*
X46403271Y-44165630D01*
X46390660Y-44196000D01*
X44767800Y-44196000D01*
X44767800Y-39256000D01*
X44709797Y-38964396D01*
X44709796Y-38964395D01*
X44544616Y-38717185D01*
X37546615Y-31719185D01*
X37299405Y-31554004D01*
X37007800Y-31496000D01*
X36773200Y-31496000D01*
X36475067Y-31496000D01*
X36448759Y-31360411D01*
X36370477Y-31241241D01*
X36252299Y-31161469D01*
X36112500Y-31133433D01*
X33673800Y-31133433D01*
X33673800Y-30842567D01*
X36112500Y-30842567D01*
X36248089Y-30816259D01*
X36367259Y-30737977D01*
X36447031Y-30619799D01*
X36472144Y-30494574D01*
X43854384Y-37876815D01*
X43854385Y-37876815D01*
X44101595Y-38041996D01*
X44393200Y-38100000D01*
X46390195Y-38100000D01*
X46401890Y-38128303D01*
X46794530Y-38521629D01*
X47307800Y-38734757D01*
X47863561Y-38735242D01*
X48377203Y-38523010D01*
X48770529Y-38130370D01*
X48945800Y-37708269D01*
X48945800Y-41470312D01*
X48808629Y-41411797D01*
X48593103Y-41627323D01*
X48593103Y-41196271D01*
X48479554Y-40930090D01*
X47842206Y-40701746D01*
X47165990Y-40734687D01*
X46694246Y-40930090D01*
X46580697Y-41196271D01*
X47586900Y-42202474D01*
X48593103Y-41196271D01*
X48593103Y-41627323D01*
X47802426Y-42418000D01*
X48808629Y-43424203D01*
X48945800Y-43365687D01*
X48945800Y-44588544D01*
X48945800Y-44588544D01*
G37*
X48945800Y-44588544D02*
X48771910Y-44167697D01*
X48488842Y-43884135D01*
X48593103Y-43639729D01*
X47586900Y-42633526D01*
X47371374Y-42849052D01*
X47371374Y-42418000D01*
X46365171Y-41411797D01*
X46098990Y-41525346D01*
X45870646Y-42162694D01*
X45903587Y-42838910D01*
X46098990Y-43310654D01*
X46365171Y-43424203D01*
X47371374Y-42418000D01*
X47371374Y-42849052D01*
X46580697Y-43639729D01*
X46685046Y-43884345D01*
X46403271Y-44165630D01*
X46390660Y-44196000D01*
X44767800Y-44196000D01*
X44767800Y-39256000D01*
X44709797Y-38964396D01*
X44709796Y-38964395D01*
X44544616Y-38717185D01*
X37546615Y-31719185D01*
X37299405Y-31554004D01*
X37007800Y-31496000D01*
X36773200Y-31496000D01*
X36475067Y-31496000D01*
X36448759Y-31360411D01*
X36370477Y-31241241D01*
X36252299Y-31161469D01*
X36112500Y-31133433D01*
X33673800Y-31133433D01*
X33673800Y-30842567D01*
X36112500Y-30842567D01*
X36248089Y-30816259D01*
X36367259Y-30737977D01*
X36447031Y-30619799D01*
X36472144Y-30494574D01*
X43854384Y-37876815D01*
X43854385Y-37876815D01*
X44101595Y-38041996D01*
X44393200Y-38100000D01*
X46390195Y-38100000D01*
X46401890Y-38128303D01*
X46794530Y-38521629D01*
X47307800Y-38734757D01*
X47863561Y-38735242D01*
X48377203Y-38523010D01*
X48770529Y-38130370D01*
X48945800Y-37708269D01*
X48945800Y-41470312D01*
X48808629Y-41411797D01*
X48593103Y-41627323D01*
X48593103Y-41196271D01*
X48479554Y-40930090D01*
X47842206Y-40701746D01*
X47165990Y-40734687D01*
X46694246Y-40930090D01*
X46580697Y-41196271D01*
X47586900Y-42202474D01*
X48593103Y-41196271D01*
X48593103Y-41627323D01*
X47802426Y-42418000D01*
X48808629Y-43424203D01*
X48945800Y-43365687D01*
X48945800Y-44588544D01*
G36*
X48945800Y-52208544D02*
X48771910Y-51787697D01*
X48488842Y-51504135D01*
X48593103Y-51259729D01*
X47586900Y-50253526D01*
X47371374Y-50469052D01*
X47371374Y-50038000D01*
X46365171Y-49031797D01*
X46098990Y-49145346D01*
X45870646Y-49782694D01*
X45903587Y-50458910D01*
X46098990Y-50930654D01*
X46365171Y-51044203D01*
X47371374Y-50038000D01*
X47371374Y-50469052D01*
X46580697Y-51259729D01*
X46685046Y-51504345D01*
X46403271Y-51785630D01*
X46390660Y-51816000D01*
X38925800Y-51816000D01*
X38634195Y-51874004D01*
X38386984Y-52039185D01*
X37340169Y-53086000D01*
X37253575Y-53086000D01*
X37253077Y-53085241D01*
X37134899Y-53005469D01*
X36995100Y-52977433D01*
X32600600Y-52977433D01*
X32600600Y-52178567D01*
X36995100Y-52178567D01*
X37130689Y-52152259D01*
X37249859Y-52073977D01*
X37252543Y-52070000D01*
X37655800Y-52070000D01*
X37655800Y-52069999D01*
X37947404Y-52011996D01*
X37947405Y-52011996D01*
X38194615Y-51846815D01*
X44321430Y-45720000D01*
X46390195Y-45720000D01*
X46401890Y-45748303D01*
X46794530Y-46141629D01*
X47307800Y-46354757D01*
X47863561Y-46355242D01*
X48377203Y-46143010D01*
X48770529Y-45750370D01*
X48945800Y-45328269D01*
X48945800Y-49090312D01*
X48808629Y-49031797D01*
X48593103Y-49247323D01*
X48593103Y-48816271D01*
X48479554Y-48550090D01*
X47842206Y-48321746D01*
X47165990Y-48354687D01*
X46694246Y-48550090D01*
X46580697Y-48816271D01*
X47586900Y-49822474D01*
X48593103Y-48816271D01*
X48593103Y-49247323D01*
X47802426Y-50038000D01*
X48808629Y-51044203D01*
X48945800Y-50985687D01*
X48945800Y-52208544D01*
X48945800Y-52208544D01*
G37*
X48945800Y-52208544D02*
X48771910Y-51787697D01*
X48488842Y-51504135D01*
X48593103Y-51259729D01*
X47586900Y-50253526D01*
X47371374Y-50469052D01*
X47371374Y-50038000D01*
X46365171Y-49031797D01*
X46098990Y-49145346D01*
X45870646Y-49782694D01*
X45903587Y-50458910D01*
X46098990Y-50930654D01*
X46365171Y-51044203D01*
X47371374Y-50038000D01*
X47371374Y-50469052D01*
X46580697Y-51259729D01*
X46685046Y-51504345D01*
X46403271Y-51785630D01*
X46390660Y-51816000D01*
X38925800Y-51816000D01*
X38634195Y-51874004D01*
X38386984Y-52039185D01*
X37340169Y-53086000D01*
X37253575Y-53086000D01*
X37253077Y-53085241D01*
X37134899Y-53005469D01*
X36995100Y-52977433D01*
X32600600Y-52977433D01*
X32600600Y-52178567D01*
X36995100Y-52178567D01*
X37130689Y-52152259D01*
X37249859Y-52073977D01*
X37252543Y-52070000D01*
X37655800Y-52070000D01*
X37655800Y-52069999D01*
X37947404Y-52011996D01*
X37947405Y-52011996D01*
X38194615Y-51846815D01*
X44321430Y-45720000D01*
X46390195Y-45720000D01*
X46401890Y-45748303D01*
X46794530Y-46141629D01*
X47307800Y-46354757D01*
X47863561Y-46355242D01*
X48377203Y-46143010D01*
X48770529Y-45750370D01*
X48945800Y-45328269D01*
X48945800Y-49090312D01*
X48808629Y-49031797D01*
X48593103Y-49247323D01*
X48593103Y-48816271D01*
X48479554Y-48550090D01*
X47842206Y-48321746D01*
X47165990Y-48354687D01*
X46694246Y-48550090D01*
X46580697Y-48816271D01*
X47586900Y-49822474D01*
X48593103Y-48816271D01*
X48593103Y-49247323D01*
X47802426Y-50038000D01*
X48808629Y-51044203D01*
X48945800Y-50985687D01*
X48945800Y-52208544D01*
G36*
X48945800Y-59828544D02*
X48771910Y-59407697D01*
X48488842Y-59124135D01*
X48593103Y-58879729D01*
X47586900Y-57873526D01*
X47572757Y-57887668D01*
X47357231Y-57672142D01*
X47371374Y-57658000D01*
X46365171Y-56651797D01*
X46098990Y-56765346D01*
X45870646Y-57402694D01*
X45870718Y-57404188D01*
X44315715Y-55849185D01*
X44068505Y-55684004D01*
X43776900Y-55626000D01*
X37253575Y-55626000D01*
X37253077Y-55625241D01*
X37134899Y-55545469D01*
X36995100Y-55517433D01*
X32499300Y-55517433D01*
X32363711Y-55543741D01*
X32244541Y-55622023D01*
X32241856Y-55626000D01*
X31838600Y-55626000D01*
X31576879Y-55678059D01*
X31517494Y-55534689D01*
X31346011Y-55363206D01*
X31121957Y-55270400D01*
X30879443Y-55270400D01*
X29057600Y-55270400D01*
X28905200Y-55422800D01*
X28905200Y-56235600D01*
X28925200Y-56235600D01*
X28925200Y-56540400D01*
X28905200Y-56540400D01*
X28905200Y-57353200D01*
X29057600Y-57505600D01*
X30879443Y-57505600D01*
X31076600Y-57505600D01*
X31076600Y-57810400D01*
X30879443Y-57810400D01*
X29057600Y-57810400D01*
X28905200Y-57962800D01*
X28905200Y-58775600D01*
X28925200Y-58775600D01*
X28925200Y-59080400D01*
X28905200Y-59080400D01*
X28905200Y-59893200D01*
X29057600Y-60045600D01*
X30879443Y-60045600D01*
X31121957Y-60045600D01*
X31142221Y-60037206D01*
X31299785Y-60273015D01*
X31779984Y-60753215D01*
X31779985Y-60753215D01*
X32027195Y-60918396D01*
X32140554Y-60940944D01*
X32136733Y-60960000D01*
X32136733Y-61976000D01*
X32163041Y-62111589D01*
X32241323Y-62230759D01*
X32359501Y-62310531D01*
X32499300Y-62338567D01*
X35693337Y-62338567D01*
X36492203Y-63137433D01*
X32499300Y-63137433D01*
X32363711Y-63163741D01*
X32244541Y-63242023D01*
X32241856Y-63246000D01*
X31838600Y-63246000D01*
X31610300Y-63291411D01*
X31610300Y-62097257D01*
X31610300Y-61772800D01*
X31610300Y-61163200D01*
X31610300Y-60838743D01*
X31517494Y-60614689D01*
X31346011Y-60443206D01*
X31121957Y-60350400D01*
X30879443Y-60350400D01*
X29057600Y-60350400D01*
X28905200Y-60502800D01*
X28905200Y-61315600D01*
X31457900Y-61315600D01*
X31610300Y-61163200D01*
X31610300Y-61772800D01*
X31457900Y-61620400D01*
X28905200Y-61620400D01*
X28905200Y-62433200D01*
X29057600Y-62585600D01*
X30879443Y-62585600D01*
X31121957Y-62585600D01*
X31346011Y-62492794D01*
X31517494Y-62321311D01*
X31610300Y-62097257D01*
X31610300Y-63291411D01*
X31576879Y-63298059D01*
X31517494Y-63154689D01*
X31346011Y-62983206D01*
X31121957Y-62890400D01*
X30879443Y-62890400D01*
X29057600Y-62890400D01*
X28905200Y-63042800D01*
X28905200Y-63855600D01*
X28925200Y-63855600D01*
X28925200Y-64160400D01*
X28905200Y-64160400D01*
X28905200Y-64973200D01*
X29057600Y-65125600D01*
X30879443Y-65125600D01*
X31076600Y-65125600D01*
X31076600Y-81984800D01*
X31134604Y-82276405D01*
X31299785Y-82523615D01*
X32372985Y-83596815D01*
X32620195Y-83761996D01*
X32620196Y-83761996D01*
X32911800Y-83820000D01*
X33209933Y-83820000D01*
X33236241Y-83955589D01*
X33314523Y-84074759D01*
X33432701Y-84154531D01*
X33572500Y-84182567D01*
X36112500Y-84182567D01*
X36248089Y-84156259D01*
X36367259Y-84077977D01*
X36447031Y-83959799D01*
X36475067Y-83820000D01*
X46390195Y-83820000D01*
X46401890Y-83848303D01*
X46794530Y-84241629D01*
X47216630Y-84416900D01*
X28644417Y-84416900D01*
X28837811Y-84336794D01*
X29009294Y-84165311D01*
X29102100Y-83941257D01*
X29102100Y-83362800D01*
X29102100Y-82753200D01*
X29102100Y-82174743D01*
X29009294Y-81950689D01*
X28846605Y-81788000D01*
X29009294Y-81625311D01*
X29102100Y-81401257D01*
X29102100Y-80822800D01*
X29102100Y-80213200D01*
X29102100Y-79634743D01*
X29009294Y-79410689D01*
X28846605Y-79248000D01*
X29009294Y-79085311D01*
X29102100Y-78861257D01*
X29102100Y-78282800D01*
X29102100Y-77673200D01*
X29102100Y-77094743D01*
X29102100Y-71241257D01*
X29102100Y-70662800D01*
X29102100Y-70053200D01*
X29102100Y-69474743D01*
X29009294Y-69250689D01*
X28837811Y-69079206D01*
X28613757Y-68986400D01*
X28600400Y-68986400D01*
X28600400Y-64973200D01*
X28600400Y-64160400D01*
X28600400Y-63855600D01*
X28600400Y-63042800D01*
X28600400Y-62433200D01*
X28600400Y-61620400D01*
X28600400Y-61315600D01*
X28600400Y-60502800D01*
X28600400Y-59893200D01*
X28600400Y-59080400D01*
X28600400Y-58775600D01*
X28600400Y-57962800D01*
X28600400Y-57353200D01*
X28600400Y-56540400D01*
X28600400Y-56235600D01*
X28600400Y-55422800D01*
X28600400Y-54813200D01*
X28600400Y-54000400D01*
X28600400Y-53695600D01*
X28600400Y-52882800D01*
X28600400Y-52273200D01*
X28600400Y-51460400D01*
X28600400Y-51155600D01*
X28600400Y-50342800D01*
X28600400Y-49733200D01*
X28600400Y-48920400D01*
X28600400Y-48615600D01*
X28600400Y-47802800D01*
X28600400Y-47193200D01*
X28600400Y-46380400D01*
X28600400Y-46075600D01*
X28600400Y-45262800D01*
X28448000Y-45110400D01*
X26626157Y-45110400D01*
X26383643Y-45110400D01*
X26159589Y-45203206D01*
X25988106Y-45374689D01*
X25895300Y-45598743D01*
X25895300Y-45923200D01*
X26047700Y-46075600D01*
X28600400Y-46075600D01*
X28600400Y-46380400D01*
X26047700Y-46380400D01*
X25895300Y-46532800D01*
X25895300Y-46857257D01*
X25988106Y-47081311D01*
X26159589Y-47252794D01*
X26383643Y-47345600D01*
X26626157Y-47345600D01*
X28448000Y-47345600D01*
X28600400Y-47193200D01*
X28600400Y-47802800D01*
X28448000Y-47650400D01*
X26626157Y-47650400D01*
X26383643Y-47650400D01*
X26159589Y-47743206D01*
X25988106Y-47914689D01*
X25895300Y-48138743D01*
X25895300Y-48463200D01*
X26047700Y-48615600D01*
X28600400Y-48615600D01*
X28600400Y-48920400D01*
X26047700Y-48920400D01*
X25895300Y-49072800D01*
X25895300Y-49397257D01*
X25988106Y-49621311D01*
X26159589Y-49792794D01*
X26383643Y-49885600D01*
X26626157Y-49885600D01*
X28448000Y-49885600D01*
X28600400Y-49733200D01*
X28600400Y-50342800D01*
X28448000Y-50190400D01*
X26626157Y-50190400D01*
X26383643Y-50190400D01*
X26159589Y-50283206D01*
X25988106Y-50454689D01*
X25895300Y-50678743D01*
X25895300Y-51003200D01*
X26047700Y-51155600D01*
X28600400Y-51155600D01*
X28600400Y-51460400D01*
X26047700Y-51460400D01*
X25895300Y-51612800D01*
X25895300Y-51937257D01*
X25988106Y-52161311D01*
X26159589Y-52332794D01*
X26383643Y-52425600D01*
X26626157Y-52425600D01*
X28448000Y-52425600D01*
X28600400Y-52273200D01*
X28600400Y-52882800D01*
X28448000Y-52730400D01*
X26626157Y-52730400D01*
X26383643Y-52730400D01*
X26159589Y-52823206D01*
X25988106Y-52994689D01*
X25895300Y-53218743D01*
X25895300Y-53543200D01*
X26047700Y-53695600D01*
X28600400Y-53695600D01*
X28600400Y-54000400D01*
X26047700Y-54000400D01*
X25895300Y-54152800D01*
X25895300Y-54477257D01*
X25988106Y-54701311D01*
X26159589Y-54872794D01*
X26383643Y-54965600D01*
X26626157Y-54965600D01*
X28448000Y-54965600D01*
X28600400Y-54813200D01*
X28600400Y-55422800D01*
X28448000Y-55270400D01*
X26626157Y-55270400D01*
X26383643Y-55270400D01*
X26159589Y-55363206D01*
X25988106Y-55534689D01*
X25895300Y-55758743D01*
X25895300Y-56083200D01*
X26047700Y-56235600D01*
X28600400Y-56235600D01*
X28600400Y-56540400D01*
X26047700Y-56540400D01*
X25895300Y-56692800D01*
X25895300Y-57017257D01*
X25988106Y-57241311D01*
X26159589Y-57412794D01*
X26383643Y-57505600D01*
X26626157Y-57505600D01*
X28448000Y-57505600D01*
X28600400Y-57353200D01*
X28600400Y-57962800D01*
X28448000Y-57810400D01*
X26626157Y-57810400D01*
X26383643Y-57810400D01*
X26159589Y-57903206D01*
X25988106Y-58074689D01*
X25895300Y-58298743D01*
X25895300Y-58623200D01*
X26047700Y-58775600D01*
X28600400Y-58775600D01*
X28600400Y-59080400D01*
X26047700Y-59080400D01*
X25895300Y-59232800D01*
X25895300Y-59557257D01*
X25988106Y-59781311D01*
X26159589Y-59952794D01*
X26383643Y-60045600D01*
X26626157Y-60045600D01*
X28448000Y-60045600D01*
X28600400Y-59893200D01*
X28600400Y-60502800D01*
X28448000Y-60350400D01*
X26626157Y-60350400D01*
X26383643Y-60350400D01*
X26159589Y-60443206D01*
X25988106Y-60614689D01*
X25895300Y-60838743D01*
X25895300Y-61163200D01*
X26047700Y-61315600D01*
X28600400Y-61315600D01*
X28600400Y-61620400D01*
X26047700Y-61620400D01*
X25895300Y-61772800D01*
X25895300Y-62097257D01*
X25988106Y-62321311D01*
X26159589Y-62492794D01*
X26383643Y-62585600D01*
X26626157Y-62585600D01*
X28448000Y-62585600D01*
X28600400Y-62433200D01*
X28600400Y-63042800D01*
X28448000Y-62890400D01*
X26626157Y-62890400D01*
X26383643Y-62890400D01*
X26159589Y-62983206D01*
X25988106Y-63154689D01*
X25895300Y-63378743D01*
X25895300Y-63703200D01*
X26047700Y-63855600D01*
X28600400Y-63855600D01*
X28600400Y-64160400D01*
X26047700Y-64160400D01*
X25895300Y-64312800D01*
X25895300Y-64637257D01*
X25988106Y-64861311D01*
X26159589Y-65032794D01*
X26383643Y-65125600D01*
X26626157Y-65125600D01*
X28448000Y-65125600D01*
X28600400Y-64973200D01*
X28600400Y-68986400D01*
X28371243Y-68986400D01*
X27527300Y-68986400D01*
X27374900Y-69138800D01*
X27374900Y-70205600D01*
X28949700Y-70205600D01*
X29102100Y-70053200D01*
X29102100Y-70662800D01*
X28949700Y-70510400D01*
X27374900Y-70510400D01*
X27374900Y-71577200D01*
X27527300Y-71729600D01*
X28371243Y-71729600D01*
X28613757Y-71729600D01*
X28837811Y-71636794D01*
X29009294Y-71465311D01*
X29102100Y-71241257D01*
X29102100Y-77094743D01*
X29009294Y-76870689D01*
X28837811Y-76699206D01*
X28613757Y-76606400D01*
X28371243Y-76606400D01*
X27527300Y-76606400D01*
X27374900Y-76758800D01*
X27374900Y-77825600D01*
X28949700Y-77825600D01*
X29102100Y-77673200D01*
X29102100Y-78282800D01*
X28949700Y-78130400D01*
X27374900Y-78130400D01*
X27374900Y-79197200D01*
X27425700Y-79248000D01*
X27374900Y-79298800D01*
X27374900Y-80365600D01*
X28949700Y-80365600D01*
X29102100Y-80213200D01*
X29102100Y-80822800D01*
X28949700Y-80670400D01*
X27374900Y-80670400D01*
X27374900Y-81737200D01*
X27425700Y-81788000D01*
X27374900Y-81838800D01*
X27374900Y-82905600D01*
X28949700Y-82905600D01*
X29102100Y-82753200D01*
X29102100Y-83362800D01*
X28949700Y-83210400D01*
X27374900Y-83210400D01*
X27374900Y-83230400D01*
X27070100Y-83230400D01*
X27070100Y-83210400D01*
X27050100Y-83210400D01*
X27050100Y-82905600D01*
X27070100Y-82905600D01*
X27070100Y-81838800D01*
X27019300Y-81788000D01*
X27070100Y-81737200D01*
X27070100Y-80670400D01*
X27050100Y-80670400D01*
X27050100Y-80365600D01*
X27070100Y-80365600D01*
X27070100Y-79298800D01*
X27019300Y-79248000D01*
X27070100Y-79197200D01*
X27070100Y-78130400D01*
X27050100Y-78130400D01*
X27050100Y-77825600D01*
X27070100Y-77825600D01*
X27070100Y-76758800D01*
X26917700Y-76606400D01*
X26073757Y-76606400D01*
X25831243Y-76606400D01*
X25819100Y-76611429D01*
X25819100Y-71724570D01*
X25831243Y-71729600D01*
X26073757Y-71729600D01*
X26917700Y-71729600D01*
X27070100Y-71577200D01*
X27070100Y-70510400D01*
X27050100Y-70510400D01*
X27050100Y-70205600D01*
X27070100Y-70205600D01*
X27070100Y-69138800D01*
X26917700Y-68986400D01*
X26073757Y-68986400D01*
X25831243Y-68986400D01*
X25819100Y-68991429D01*
X25819100Y-41244570D01*
X25831243Y-41249600D01*
X26073757Y-41249600D01*
X26917700Y-41249600D01*
X27070100Y-41097200D01*
X27070100Y-40030400D01*
X27050100Y-40030400D01*
X27050100Y-39725600D01*
X27070100Y-39725600D01*
X27070100Y-38658800D01*
X26917700Y-38506400D01*
X26073757Y-38506400D01*
X25831243Y-38506400D01*
X25819100Y-38511429D01*
X25819100Y-33624570D01*
X25831243Y-33629600D01*
X26073757Y-33629600D01*
X26917700Y-33629600D01*
X27070100Y-33477200D01*
X27070100Y-32410400D01*
X27050100Y-32410400D01*
X27050100Y-32105600D01*
X27070100Y-32105600D01*
X27070100Y-31038800D01*
X27019300Y-30988000D01*
X27070100Y-30937200D01*
X27070100Y-29870400D01*
X27050100Y-29870400D01*
X27050100Y-29565600D01*
X27070100Y-29565600D01*
X27070100Y-28498800D01*
X27019300Y-28448000D01*
X27070100Y-28397200D01*
X27070100Y-27330400D01*
X27050100Y-27330400D01*
X27050100Y-27025600D01*
X27070100Y-27025600D01*
X27070100Y-27005600D01*
X27374900Y-27005600D01*
X27374900Y-27025600D01*
X28949700Y-27025600D01*
X29102100Y-26873200D01*
X29102100Y-26294743D01*
X29009294Y-26070689D01*
X28837811Y-25899206D01*
X28644417Y-25819100D01*
X46639212Y-25819100D01*
X46580697Y-25956271D01*
X47586900Y-26962474D01*
X48593103Y-25956271D01*
X48534587Y-25819100D01*
X48945800Y-25819100D01*
X48945800Y-26230312D01*
X48808629Y-26171797D01*
X47802426Y-27178000D01*
X48808629Y-28184203D01*
X48945800Y-28125687D01*
X48945800Y-29348544D01*
X48771910Y-28927697D01*
X48488842Y-28644135D01*
X48593103Y-28399729D01*
X47586900Y-27393526D01*
X47572757Y-27407668D01*
X47357231Y-27192142D01*
X47371374Y-27178000D01*
X46365171Y-26171797D01*
X46098990Y-26285346D01*
X45870646Y-26922694D01*
X45870718Y-26924188D01*
X45585715Y-26639185D01*
X45338505Y-26474004D01*
X45046900Y-26416000D01*
X36475067Y-26416000D01*
X36448759Y-26280411D01*
X36370477Y-26161241D01*
X36252299Y-26081469D01*
X36112500Y-26053433D01*
X33572500Y-26053433D01*
X33436911Y-26079741D01*
X33317741Y-26158023D01*
X33237969Y-26276201D01*
X33209933Y-26416000D01*
X32911800Y-26416000D01*
X32620195Y-26474004D01*
X32521176Y-26540165D01*
X32372985Y-26639184D01*
X31267085Y-27745085D01*
X31101904Y-27992295D01*
X31043900Y-28283900D01*
X31043900Y-34379500D01*
X31101904Y-34671105D01*
X31267085Y-34918315D01*
X34962584Y-38613815D01*
X34962585Y-38613815D01*
X35171537Y-38753433D01*
X33572500Y-38753433D01*
X33436911Y-38779741D01*
X33317741Y-38858023D01*
X33237969Y-38976201D01*
X33209933Y-39116000D01*
X33209933Y-40640000D01*
X33236241Y-40775589D01*
X33314523Y-40894759D01*
X33432701Y-40974531D01*
X33572500Y-41002567D01*
X34063003Y-41002567D01*
X31299785Y-43765785D01*
X31134604Y-44012995D01*
X31076600Y-44304600D01*
X31076600Y-45110400D01*
X30879443Y-45110400D01*
X29102100Y-45110400D01*
X29102100Y-40761257D01*
X29102100Y-40182800D01*
X29102100Y-39573200D01*
X29102100Y-38994743D01*
X29102100Y-33141257D01*
X29102100Y-32562800D01*
X29102100Y-31953200D01*
X29102100Y-31374743D01*
X29009294Y-31150689D01*
X28846605Y-30988000D01*
X29009294Y-30825311D01*
X29102100Y-30601257D01*
X29102100Y-30022800D01*
X29102100Y-29413200D01*
X29102100Y-28834743D01*
X29009294Y-28610689D01*
X28846605Y-28448000D01*
X29009294Y-28285311D01*
X29102100Y-28061257D01*
X29102100Y-27482800D01*
X28949700Y-27330400D01*
X27374900Y-27330400D01*
X27374900Y-28397200D01*
X27425700Y-28448000D01*
X27374900Y-28498800D01*
X27374900Y-29565600D01*
X28949700Y-29565600D01*
X29102100Y-29413200D01*
X29102100Y-30022800D01*
X28949700Y-29870400D01*
X27374900Y-29870400D01*
X27374900Y-30937200D01*
X27425700Y-30988000D01*
X27374900Y-31038800D01*
X27374900Y-32105600D01*
X28949700Y-32105600D01*
X29102100Y-31953200D01*
X29102100Y-32562800D01*
X28949700Y-32410400D01*
X27374900Y-32410400D01*
X27374900Y-33477200D01*
X27527300Y-33629600D01*
X28371243Y-33629600D01*
X28613757Y-33629600D01*
X28837811Y-33536794D01*
X29009294Y-33365311D01*
X29102100Y-33141257D01*
X29102100Y-38994743D01*
X29009294Y-38770689D01*
X28837811Y-38599206D01*
X28613757Y-38506400D01*
X28371243Y-38506400D01*
X27527300Y-38506400D01*
X27374900Y-38658800D01*
X27374900Y-39725600D01*
X28949700Y-39725600D01*
X29102100Y-39573200D01*
X29102100Y-40182800D01*
X28949700Y-40030400D01*
X27374900Y-40030400D01*
X27374900Y-41097200D01*
X27527300Y-41249600D01*
X28371243Y-41249600D01*
X28613757Y-41249600D01*
X28837811Y-41156794D01*
X29009294Y-40985311D01*
X29102100Y-40761257D01*
X29102100Y-45110400D01*
X29057600Y-45110400D01*
X28905200Y-45262800D01*
X28905200Y-46075600D01*
X28925200Y-46075600D01*
X28925200Y-46380400D01*
X28905200Y-46380400D01*
X28905200Y-47193200D01*
X29057600Y-47345600D01*
X30879443Y-47345600D01*
X31076600Y-47345600D01*
X31076600Y-47650400D01*
X30879443Y-47650400D01*
X29057600Y-47650400D01*
X28905200Y-47802800D01*
X28905200Y-48615600D01*
X28925200Y-48615600D01*
X28925200Y-48920400D01*
X28905200Y-48920400D01*
X28905200Y-49733200D01*
X29057600Y-49885600D01*
X30879443Y-49885600D01*
X31076600Y-49885600D01*
X31076600Y-50190400D01*
X30879443Y-50190400D01*
X29057600Y-50190400D01*
X28905200Y-50342800D01*
X28905200Y-51155600D01*
X28925200Y-51155600D01*
X28925200Y-51460400D01*
X28905200Y-51460400D01*
X28905200Y-52273200D01*
X29057600Y-52425600D01*
X30879443Y-52425600D01*
X31076600Y-52425600D01*
X31076600Y-52730400D01*
X30879443Y-52730400D01*
X29057600Y-52730400D01*
X28905200Y-52882800D01*
X28905200Y-53695600D01*
X28925200Y-53695600D01*
X28925200Y-54000400D01*
X28905200Y-54000400D01*
X28905200Y-54813200D01*
X29057600Y-54965600D01*
X30879443Y-54965600D01*
X31121957Y-54965600D01*
X31346011Y-54872794D01*
X31517494Y-54701311D01*
X31576879Y-54557940D01*
X31838600Y-54610000D01*
X32240824Y-54610000D01*
X32241323Y-54610759D01*
X32359501Y-54690531D01*
X32499300Y-54718567D01*
X36995100Y-54718567D01*
X37130689Y-54692259D01*
X37249859Y-54613977D01*
X37252543Y-54610000D01*
X37655800Y-54610000D01*
X37655800Y-54609999D01*
X37947404Y-54551996D01*
X37947405Y-54551996D01*
X38194615Y-54386815D01*
X39241430Y-53340000D01*
X46390195Y-53340000D01*
X46401890Y-53368303D01*
X46794530Y-53761629D01*
X47307800Y-53974757D01*
X47863561Y-53975242D01*
X48377203Y-53763010D01*
X48770529Y-53370370D01*
X48945800Y-52948269D01*
X48945800Y-56710312D01*
X48808629Y-56651797D01*
X48593103Y-56867323D01*
X48593103Y-56436271D01*
X48479554Y-56170090D01*
X47842206Y-55941746D01*
X47165990Y-55974687D01*
X46694246Y-56170090D01*
X46580697Y-56436271D01*
X47586900Y-57442474D01*
X48593103Y-56436271D01*
X48593103Y-56867323D01*
X47802426Y-57658000D01*
X48808629Y-58664203D01*
X48945800Y-58605687D01*
X48945800Y-59828544D01*
X48945800Y-59828544D01*
G37*
X48945800Y-59828544D02*
X48771910Y-59407697D01*
X48488842Y-59124135D01*
X48593103Y-58879729D01*
X47586900Y-57873526D01*
X47572757Y-57887668D01*
X47357231Y-57672142D01*
X47371374Y-57658000D01*
X46365171Y-56651797D01*
X46098990Y-56765346D01*
X45870646Y-57402694D01*
X45870718Y-57404188D01*
X44315715Y-55849185D01*
X44068505Y-55684004D01*
X43776900Y-55626000D01*
X37253575Y-55626000D01*
X37253077Y-55625241D01*
X37134899Y-55545469D01*
X36995100Y-55517433D01*
X32499300Y-55517433D01*
X32363711Y-55543741D01*
X32244541Y-55622023D01*
X32241856Y-55626000D01*
X31838600Y-55626000D01*
X31576879Y-55678059D01*
X31517494Y-55534689D01*
X31346011Y-55363206D01*
X31121957Y-55270400D01*
X30879443Y-55270400D01*
X29057600Y-55270400D01*
X28905200Y-55422800D01*
X28905200Y-56235600D01*
X28925200Y-56235600D01*
X28925200Y-56540400D01*
X28905200Y-56540400D01*
X28905200Y-57353200D01*
X29057600Y-57505600D01*
X30879443Y-57505600D01*
X31076600Y-57505600D01*
X31076600Y-57810400D01*
X30879443Y-57810400D01*
X29057600Y-57810400D01*
X28905200Y-57962800D01*
X28905200Y-58775600D01*
X28925200Y-58775600D01*
X28925200Y-59080400D01*
X28905200Y-59080400D01*
X28905200Y-59893200D01*
X29057600Y-60045600D01*
X30879443Y-60045600D01*
X31121957Y-60045600D01*
X31142221Y-60037206D01*
X31299785Y-60273015D01*
X31779984Y-60753215D01*
X31779985Y-60753215D01*
X32027195Y-60918396D01*
X32140554Y-60940944D01*
X32136733Y-60960000D01*
X32136733Y-61976000D01*
X32163041Y-62111589D01*
X32241323Y-62230759D01*
X32359501Y-62310531D01*
X32499300Y-62338567D01*
X35693337Y-62338567D01*
X36492203Y-63137433D01*
X32499300Y-63137433D01*
X32363711Y-63163741D01*
X32244541Y-63242023D01*
X32241856Y-63246000D01*
X31838600Y-63246000D01*
X31610300Y-63291411D01*
X31610300Y-62097257D01*
X31610300Y-61772800D01*
X31610300Y-61163200D01*
X31610300Y-60838743D01*
X31517494Y-60614689D01*
X31346011Y-60443206D01*
X31121957Y-60350400D01*
X30879443Y-60350400D01*
X29057600Y-60350400D01*
X28905200Y-60502800D01*
X28905200Y-61315600D01*
X31457900Y-61315600D01*
X31610300Y-61163200D01*
X31610300Y-61772800D01*
X31457900Y-61620400D01*
X28905200Y-61620400D01*
X28905200Y-62433200D01*
X29057600Y-62585600D01*
X30879443Y-62585600D01*
X31121957Y-62585600D01*
X31346011Y-62492794D01*
X31517494Y-62321311D01*
X31610300Y-62097257D01*
X31610300Y-63291411D01*
X31576879Y-63298059D01*
X31517494Y-63154689D01*
X31346011Y-62983206D01*
X31121957Y-62890400D01*
X30879443Y-62890400D01*
X29057600Y-62890400D01*
X28905200Y-63042800D01*
X28905200Y-63855600D01*
X28925200Y-63855600D01*
X28925200Y-64160400D01*
X28905200Y-64160400D01*
X28905200Y-64973200D01*
X29057600Y-65125600D01*
X30879443Y-65125600D01*
X31076600Y-65125600D01*
X31076600Y-81984800D01*
X31134604Y-82276405D01*
X31299785Y-82523615D01*
X32372985Y-83596815D01*
X32620195Y-83761996D01*
X32620196Y-83761996D01*
X32911800Y-83820000D01*
X33209933Y-83820000D01*
X33236241Y-83955589D01*
X33314523Y-84074759D01*
X33432701Y-84154531D01*
X33572500Y-84182567D01*
X36112500Y-84182567D01*
X36248089Y-84156259D01*
X36367259Y-84077977D01*
X36447031Y-83959799D01*
X36475067Y-83820000D01*
X46390195Y-83820000D01*
X46401890Y-83848303D01*
X46794530Y-84241629D01*
X47216630Y-84416900D01*
X28644417Y-84416900D01*
X28837811Y-84336794D01*
X29009294Y-84165311D01*
X29102100Y-83941257D01*
X29102100Y-83362800D01*
X29102100Y-82753200D01*
X29102100Y-82174743D01*
X29009294Y-81950689D01*
X28846605Y-81788000D01*
X29009294Y-81625311D01*
X29102100Y-81401257D01*
X29102100Y-80822800D01*
X29102100Y-80213200D01*
X29102100Y-79634743D01*
X29009294Y-79410689D01*
X28846605Y-79248000D01*
X29009294Y-79085311D01*
X29102100Y-78861257D01*
X29102100Y-78282800D01*
X29102100Y-77673200D01*
X29102100Y-77094743D01*
X29102100Y-71241257D01*
X29102100Y-70662800D01*
X29102100Y-70053200D01*
X29102100Y-69474743D01*
X29009294Y-69250689D01*
X28837811Y-69079206D01*
X28613757Y-68986400D01*
X28600400Y-68986400D01*
X28600400Y-64973200D01*
X28600400Y-64160400D01*
X28600400Y-63855600D01*
X28600400Y-63042800D01*
X28600400Y-62433200D01*
X28600400Y-61620400D01*
X28600400Y-61315600D01*
X28600400Y-60502800D01*
X28600400Y-59893200D01*
X28600400Y-59080400D01*
X28600400Y-58775600D01*
X28600400Y-57962800D01*
X28600400Y-57353200D01*
X28600400Y-56540400D01*
X28600400Y-56235600D01*
X28600400Y-55422800D01*
X28600400Y-54813200D01*
X28600400Y-54000400D01*
X28600400Y-53695600D01*
X28600400Y-52882800D01*
X28600400Y-52273200D01*
X28600400Y-51460400D01*
X28600400Y-51155600D01*
X28600400Y-50342800D01*
X28600400Y-49733200D01*
X28600400Y-48920400D01*
X28600400Y-48615600D01*
X28600400Y-47802800D01*
X28600400Y-47193200D01*
X28600400Y-46380400D01*
X28600400Y-46075600D01*
X28600400Y-45262800D01*
X28448000Y-45110400D01*
X26626157Y-45110400D01*
X26383643Y-45110400D01*
X26159589Y-45203206D01*
X25988106Y-45374689D01*
X25895300Y-45598743D01*
X25895300Y-45923200D01*
X26047700Y-46075600D01*
X28600400Y-46075600D01*
X28600400Y-46380400D01*
X26047700Y-46380400D01*
X25895300Y-46532800D01*
X25895300Y-46857257D01*
X25988106Y-47081311D01*
X26159589Y-47252794D01*
X26383643Y-47345600D01*
X26626157Y-47345600D01*
X28448000Y-47345600D01*
X28600400Y-47193200D01*
X28600400Y-47802800D01*
X28448000Y-47650400D01*
X26626157Y-47650400D01*
X26383643Y-47650400D01*
X26159589Y-47743206D01*
X25988106Y-47914689D01*
X25895300Y-48138743D01*
X25895300Y-48463200D01*
X26047700Y-48615600D01*
X28600400Y-48615600D01*
X28600400Y-48920400D01*
X26047700Y-48920400D01*
X25895300Y-49072800D01*
X25895300Y-49397257D01*
X25988106Y-49621311D01*
X26159589Y-49792794D01*
X26383643Y-49885600D01*
X26626157Y-49885600D01*
X28448000Y-49885600D01*
X28600400Y-49733200D01*
X28600400Y-50342800D01*
X28448000Y-50190400D01*
X26626157Y-50190400D01*
X26383643Y-50190400D01*
X26159589Y-50283206D01*
X25988106Y-50454689D01*
X25895300Y-50678743D01*
X25895300Y-51003200D01*
X26047700Y-51155600D01*
X28600400Y-51155600D01*
X28600400Y-51460400D01*
X26047700Y-51460400D01*
X25895300Y-51612800D01*
X25895300Y-51937257D01*
X25988106Y-52161311D01*
X26159589Y-52332794D01*
X26383643Y-52425600D01*
X26626157Y-52425600D01*
X28448000Y-52425600D01*
X28600400Y-52273200D01*
X28600400Y-52882800D01*
X28448000Y-52730400D01*
X26626157Y-52730400D01*
X26383643Y-52730400D01*
X26159589Y-52823206D01*
X25988106Y-52994689D01*
X25895300Y-53218743D01*
X25895300Y-53543200D01*
X26047700Y-53695600D01*
X28600400Y-53695600D01*
X28600400Y-54000400D01*
X26047700Y-54000400D01*
X25895300Y-54152800D01*
X25895300Y-54477257D01*
X25988106Y-54701311D01*
X26159589Y-54872794D01*
X26383643Y-54965600D01*
X26626157Y-54965600D01*
X28448000Y-54965600D01*
X28600400Y-54813200D01*
X28600400Y-55422800D01*
X28448000Y-55270400D01*
X26626157Y-55270400D01*
X26383643Y-55270400D01*
X26159589Y-55363206D01*
X25988106Y-55534689D01*
X25895300Y-55758743D01*
X25895300Y-56083200D01*
X26047700Y-56235600D01*
X28600400Y-56235600D01*
X28600400Y-56540400D01*
X26047700Y-56540400D01*
X25895300Y-56692800D01*
X25895300Y-57017257D01*
X25988106Y-57241311D01*
X26159589Y-57412794D01*
X26383643Y-57505600D01*
X26626157Y-57505600D01*
X28448000Y-57505600D01*
X28600400Y-57353200D01*
X28600400Y-57962800D01*
X28448000Y-57810400D01*
X26626157Y-57810400D01*
X26383643Y-57810400D01*
X26159589Y-57903206D01*
X25988106Y-58074689D01*
X25895300Y-58298743D01*
X25895300Y-58623200D01*
X26047700Y-58775600D01*
X28600400Y-58775600D01*
X28600400Y-59080400D01*
X26047700Y-59080400D01*
X25895300Y-59232800D01*
X25895300Y-59557257D01*
X25988106Y-59781311D01*
X26159589Y-59952794D01*
X26383643Y-60045600D01*
X26626157Y-60045600D01*
X28448000Y-60045600D01*
X28600400Y-59893200D01*
X28600400Y-60502800D01*
X28448000Y-60350400D01*
X26626157Y-60350400D01*
X26383643Y-60350400D01*
X26159589Y-60443206D01*
X25988106Y-60614689D01*
X25895300Y-60838743D01*
X25895300Y-61163200D01*
X26047700Y-61315600D01*
X28600400Y-61315600D01*
X28600400Y-61620400D01*
X26047700Y-61620400D01*
X25895300Y-61772800D01*
X25895300Y-62097257D01*
X25988106Y-62321311D01*
X26159589Y-62492794D01*
X26383643Y-62585600D01*
X26626157Y-62585600D01*
X28448000Y-62585600D01*
X28600400Y-62433200D01*
X28600400Y-63042800D01*
X28448000Y-62890400D01*
X26626157Y-62890400D01*
X26383643Y-62890400D01*
X26159589Y-62983206D01*
X25988106Y-63154689D01*
X25895300Y-63378743D01*
X25895300Y-63703200D01*
X26047700Y-63855600D01*
X28600400Y-63855600D01*
X28600400Y-64160400D01*
X26047700Y-64160400D01*
X25895300Y-64312800D01*
X25895300Y-64637257D01*
X25988106Y-64861311D01*
X26159589Y-65032794D01*
X26383643Y-65125600D01*
X26626157Y-65125600D01*
X28448000Y-65125600D01*
X28600400Y-64973200D01*
X28600400Y-68986400D01*
X28371243Y-68986400D01*
X27527300Y-68986400D01*
X27374900Y-69138800D01*
X27374900Y-70205600D01*
X28949700Y-70205600D01*
X29102100Y-70053200D01*
X29102100Y-70662800D01*
X28949700Y-70510400D01*
X27374900Y-70510400D01*
X27374900Y-71577200D01*
X27527300Y-71729600D01*
X28371243Y-71729600D01*
X28613757Y-71729600D01*
X28837811Y-71636794D01*
X29009294Y-71465311D01*
X29102100Y-71241257D01*
X29102100Y-77094743D01*
X29009294Y-76870689D01*
X28837811Y-76699206D01*
X28613757Y-76606400D01*
X28371243Y-76606400D01*
X27527300Y-76606400D01*
X27374900Y-76758800D01*
X27374900Y-77825600D01*
X28949700Y-77825600D01*
X29102100Y-77673200D01*
X29102100Y-78282800D01*
X28949700Y-78130400D01*
X27374900Y-78130400D01*
X27374900Y-79197200D01*
X27425700Y-79248000D01*
X27374900Y-79298800D01*
X27374900Y-80365600D01*
X28949700Y-80365600D01*
X29102100Y-80213200D01*
X29102100Y-80822800D01*
X28949700Y-80670400D01*
X27374900Y-80670400D01*
X27374900Y-81737200D01*
X27425700Y-81788000D01*
X27374900Y-81838800D01*
X27374900Y-82905600D01*
X28949700Y-82905600D01*
X29102100Y-82753200D01*
X29102100Y-83362800D01*
X28949700Y-83210400D01*
X27374900Y-83210400D01*
X27374900Y-83230400D01*
X27070100Y-83230400D01*
X27070100Y-83210400D01*
X27050100Y-83210400D01*
X27050100Y-82905600D01*
X27070100Y-82905600D01*
X27070100Y-81838800D01*
X27019300Y-81788000D01*
X27070100Y-81737200D01*
X27070100Y-80670400D01*
X27050100Y-80670400D01*
X27050100Y-80365600D01*
X27070100Y-80365600D01*
X27070100Y-79298800D01*
X27019300Y-79248000D01*
X27070100Y-79197200D01*
X27070100Y-78130400D01*
X27050100Y-78130400D01*
X27050100Y-77825600D01*
X27070100Y-77825600D01*
X27070100Y-76758800D01*
X26917700Y-76606400D01*
X26073757Y-76606400D01*
X25831243Y-76606400D01*
X25819100Y-76611429D01*
X25819100Y-71724570D01*
X25831243Y-71729600D01*
X26073757Y-71729600D01*
X26917700Y-71729600D01*
X27070100Y-71577200D01*
X27070100Y-70510400D01*
X27050100Y-70510400D01*
X27050100Y-70205600D01*
X27070100Y-70205600D01*
X27070100Y-69138800D01*
X26917700Y-68986400D01*
X26073757Y-68986400D01*
X25831243Y-68986400D01*
X25819100Y-68991429D01*
X25819100Y-41244570D01*
X25831243Y-41249600D01*
X26073757Y-41249600D01*
X26917700Y-41249600D01*
X27070100Y-41097200D01*
X27070100Y-40030400D01*
X27050100Y-40030400D01*
X27050100Y-39725600D01*
X27070100Y-39725600D01*
X27070100Y-38658800D01*
X26917700Y-38506400D01*
X26073757Y-38506400D01*
X25831243Y-38506400D01*
X25819100Y-38511429D01*
X25819100Y-33624570D01*
X25831243Y-33629600D01*
X26073757Y-33629600D01*
X26917700Y-33629600D01*
X27070100Y-33477200D01*
X27070100Y-32410400D01*
X27050100Y-32410400D01*
X27050100Y-32105600D01*
X27070100Y-32105600D01*
X27070100Y-31038800D01*
X27019300Y-30988000D01*
X27070100Y-30937200D01*
X27070100Y-29870400D01*
X27050100Y-29870400D01*
X27050100Y-29565600D01*
X27070100Y-29565600D01*
X27070100Y-28498800D01*
X27019300Y-28448000D01*
X27070100Y-28397200D01*
X27070100Y-27330400D01*
X27050100Y-27330400D01*
X27050100Y-27025600D01*
X27070100Y-27025600D01*
X27070100Y-27005600D01*
X27374900Y-27005600D01*
X27374900Y-27025600D01*
X28949700Y-27025600D01*
X29102100Y-26873200D01*
X29102100Y-26294743D01*
X29009294Y-26070689D01*
X28837811Y-25899206D01*
X28644417Y-25819100D01*
X46639212Y-25819100D01*
X46580697Y-25956271D01*
X47586900Y-26962474D01*
X48593103Y-25956271D01*
X48534587Y-25819100D01*
X48945800Y-25819100D01*
X48945800Y-26230312D01*
X48808629Y-26171797D01*
X47802426Y-27178000D01*
X48808629Y-28184203D01*
X48945800Y-28125687D01*
X48945800Y-29348544D01*
X48771910Y-28927697D01*
X48488842Y-28644135D01*
X48593103Y-28399729D01*
X47586900Y-27393526D01*
X47572757Y-27407668D01*
X47357231Y-27192142D01*
X47371374Y-27178000D01*
X46365171Y-26171797D01*
X46098990Y-26285346D01*
X45870646Y-26922694D01*
X45870718Y-26924188D01*
X45585715Y-26639185D01*
X45338505Y-26474004D01*
X45046900Y-26416000D01*
X36475067Y-26416000D01*
X36448759Y-26280411D01*
X36370477Y-26161241D01*
X36252299Y-26081469D01*
X36112500Y-26053433D01*
X33572500Y-26053433D01*
X33436911Y-26079741D01*
X33317741Y-26158023D01*
X33237969Y-26276201D01*
X33209933Y-26416000D01*
X32911800Y-26416000D01*
X32620195Y-26474004D01*
X32521176Y-26540165D01*
X32372985Y-26639184D01*
X31267085Y-27745085D01*
X31101904Y-27992295D01*
X31043900Y-28283900D01*
X31043900Y-34379500D01*
X31101904Y-34671105D01*
X31267085Y-34918315D01*
X34962584Y-38613815D01*
X34962585Y-38613815D01*
X35171537Y-38753433D01*
X33572500Y-38753433D01*
X33436911Y-38779741D01*
X33317741Y-38858023D01*
X33237969Y-38976201D01*
X33209933Y-39116000D01*
X33209933Y-40640000D01*
X33236241Y-40775589D01*
X33314523Y-40894759D01*
X33432701Y-40974531D01*
X33572500Y-41002567D01*
X34063003Y-41002567D01*
X31299785Y-43765785D01*
X31134604Y-44012995D01*
X31076600Y-44304600D01*
X31076600Y-45110400D01*
X30879443Y-45110400D01*
X29102100Y-45110400D01*
X29102100Y-40761257D01*
X29102100Y-40182800D01*
X29102100Y-39573200D01*
X29102100Y-38994743D01*
X29102100Y-33141257D01*
X29102100Y-32562800D01*
X29102100Y-31953200D01*
X29102100Y-31374743D01*
X29009294Y-31150689D01*
X28846605Y-30988000D01*
X29009294Y-30825311D01*
X29102100Y-30601257D01*
X29102100Y-30022800D01*
X29102100Y-29413200D01*
X29102100Y-28834743D01*
X29009294Y-28610689D01*
X28846605Y-28448000D01*
X29009294Y-28285311D01*
X29102100Y-28061257D01*
X29102100Y-27482800D01*
X28949700Y-27330400D01*
X27374900Y-27330400D01*
X27374900Y-28397200D01*
X27425700Y-28448000D01*
X27374900Y-28498800D01*
X27374900Y-29565600D01*
X28949700Y-29565600D01*
X29102100Y-29413200D01*
X29102100Y-30022800D01*
X28949700Y-29870400D01*
X27374900Y-29870400D01*
X27374900Y-30937200D01*
X27425700Y-30988000D01*
X27374900Y-31038800D01*
X27374900Y-32105600D01*
X28949700Y-32105600D01*
X29102100Y-31953200D01*
X29102100Y-32562800D01*
X28949700Y-32410400D01*
X27374900Y-32410400D01*
X27374900Y-33477200D01*
X27527300Y-33629600D01*
X28371243Y-33629600D01*
X28613757Y-33629600D01*
X28837811Y-33536794D01*
X29009294Y-33365311D01*
X29102100Y-33141257D01*
X29102100Y-38994743D01*
X29009294Y-38770689D01*
X28837811Y-38599206D01*
X28613757Y-38506400D01*
X28371243Y-38506400D01*
X27527300Y-38506400D01*
X27374900Y-38658800D01*
X27374900Y-39725600D01*
X28949700Y-39725600D01*
X29102100Y-39573200D01*
X29102100Y-40182800D01*
X28949700Y-40030400D01*
X27374900Y-40030400D01*
X27374900Y-41097200D01*
X27527300Y-41249600D01*
X28371243Y-41249600D01*
X28613757Y-41249600D01*
X28837811Y-41156794D01*
X29009294Y-40985311D01*
X29102100Y-40761257D01*
X29102100Y-45110400D01*
X29057600Y-45110400D01*
X28905200Y-45262800D01*
X28905200Y-46075600D01*
X28925200Y-46075600D01*
X28925200Y-46380400D01*
X28905200Y-46380400D01*
X28905200Y-47193200D01*
X29057600Y-47345600D01*
X30879443Y-47345600D01*
X31076600Y-47345600D01*
X31076600Y-47650400D01*
X30879443Y-47650400D01*
X29057600Y-47650400D01*
X28905200Y-47802800D01*
X28905200Y-48615600D01*
X28925200Y-48615600D01*
X28925200Y-48920400D01*
X28905200Y-48920400D01*
X28905200Y-49733200D01*
X29057600Y-49885600D01*
X30879443Y-49885600D01*
X31076600Y-49885600D01*
X31076600Y-50190400D01*
X30879443Y-50190400D01*
X29057600Y-50190400D01*
X28905200Y-50342800D01*
X28905200Y-51155600D01*
X28925200Y-51155600D01*
X28925200Y-51460400D01*
X28905200Y-51460400D01*
X28905200Y-52273200D01*
X29057600Y-52425600D01*
X30879443Y-52425600D01*
X31076600Y-52425600D01*
X31076600Y-52730400D01*
X30879443Y-52730400D01*
X29057600Y-52730400D01*
X28905200Y-52882800D01*
X28905200Y-53695600D01*
X28925200Y-53695600D01*
X28925200Y-54000400D01*
X28905200Y-54000400D01*
X28905200Y-54813200D01*
X29057600Y-54965600D01*
X30879443Y-54965600D01*
X31121957Y-54965600D01*
X31346011Y-54872794D01*
X31517494Y-54701311D01*
X31576879Y-54557940D01*
X31838600Y-54610000D01*
X32240824Y-54610000D01*
X32241323Y-54610759D01*
X32359501Y-54690531D01*
X32499300Y-54718567D01*
X36995100Y-54718567D01*
X37130689Y-54692259D01*
X37249859Y-54613977D01*
X37252543Y-54610000D01*
X37655800Y-54610000D01*
X37655800Y-54609999D01*
X37947404Y-54551996D01*
X37947405Y-54551996D01*
X38194615Y-54386815D01*
X39241430Y-53340000D01*
X46390195Y-53340000D01*
X46401890Y-53368303D01*
X46794530Y-53761629D01*
X47307800Y-53974757D01*
X47863561Y-53975242D01*
X48377203Y-53763010D01*
X48770529Y-53370370D01*
X48945800Y-52948269D01*
X48945800Y-56710312D01*
X48808629Y-56651797D01*
X48593103Y-56867323D01*
X48593103Y-56436271D01*
X48479554Y-56170090D01*
X47842206Y-55941746D01*
X47165990Y-55974687D01*
X46694246Y-56170090D01*
X46580697Y-56436271D01*
X47586900Y-57442474D01*
X48593103Y-56436271D01*
X48593103Y-56867323D01*
X47802426Y-57658000D01*
X48808629Y-58664203D01*
X48945800Y-58605687D01*
X48945800Y-59828544D01*
G36*
X48945800Y-67448544D02*
X48771910Y-67027697D01*
X48488842Y-66744135D01*
X48593103Y-66499729D01*
X47586900Y-65493526D01*
X47371374Y-65709052D01*
X47371374Y-65278000D01*
X46365171Y-64271797D01*
X46098990Y-64385346D01*
X45870646Y-65022694D01*
X45903587Y-65698910D01*
X46098990Y-66170654D01*
X46365171Y-66284203D01*
X47371374Y-65278000D01*
X47371374Y-65709052D01*
X46580697Y-66499729D01*
X46685046Y-66744345D01*
X46537132Y-66892002D01*
X38379230Y-58734100D01*
X38359796Y-58636395D01*
X38194615Y-58389185D01*
X37947405Y-58224004D01*
X37655800Y-58166000D01*
X37253575Y-58166000D01*
X37253077Y-58165241D01*
X37134899Y-58085469D01*
X36995100Y-58057433D01*
X32600600Y-58057433D01*
X32600600Y-57258567D01*
X36995100Y-57258567D01*
X37130689Y-57232259D01*
X37249859Y-57153977D01*
X37252543Y-57150000D01*
X43461269Y-57150000D01*
X46201886Y-59890617D01*
X46190143Y-59918900D01*
X46189658Y-60474661D01*
X46401890Y-60988303D01*
X46794530Y-61381629D01*
X47307800Y-61594757D01*
X47863561Y-61595242D01*
X48377203Y-61383010D01*
X48770529Y-60990370D01*
X48945800Y-60568269D01*
X48945800Y-64330312D01*
X48808629Y-64271797D01*
X48593103Y-64487323D01*
X48593103Y-64056271D01*
X48479554Y-63790090D01*
X47842206Y-63561746D01*
X47165990Y-63594687D01*
X46694246Y-63790090D01*
X46580697Y-64056271D01*
X47586900Y-65062474D01*
X48593103Y-64056271D01*
X48593103Y-64487323D01*
X47802426Y-65278000D01*
X48808629Y-66284203D01*
X48945800Y-66225687D01*
X48945800Y-67448544D01*
X48945800Y-67448544D01*
G37*
X48945800Y-67448544D02*
X48771910Y-67027697D01*
X48488842Y-66744135D01*
X48593103Y-66499729D01*
X47586900Y-65493526D01*
X47371374Y-65709052D01*
X47371374Y-65278000D01*
X46365171Y-64271797D01*
X46098990Y-64385346D01*
X45870646Y-65022694D01*
X45903587Y-65698910D01*
X46098990Y-66170654D01*
X46365171Y-66284203D01*
X47371374Y-65278000D01*
X47371374Y-65709052D01*
X46580697Y-66499729D01*
X46685046Y-66744345D01*
X46537132Y-66892002D01*
X38379230Y-58734100D01*
X38359796Y-58636395D01*
X38194615Y-58389185D01*
X37947405Y-58224004D01*
X37655800Y-58166000D01*
X37253575Y-58166000D01*
X37253077Y-58165241D01*
X37134899Y-58085469D01*
X36995100Y-58057433D01*
X32600600Y-58057433D01*
X32600600Y-57258567D01*
X36995100Y-57258567D01*
X37130689Y-57232259D01*
X37249859Y-57153977D01*
X37252543Y-57150000D01*
X43461269Y-57150000D01*
X46201886Y-59890617D01*
X46190143Y-59918900D01*
X46189658Y-60474661D01*
X46401890Y-60988303D01*
X46794530Y-61381629D01*
X47307800Y-61594757D01*
X47863561Y-61595242D01*
X48377203Y-61383010D01*
X48770529Y-60990370D01*
X48945800Y-60568269D01*
X48945800Y-64330312D01*
X48808629Y-64271797D01*
X48593103Y-64487323D01*
X48593103Y-64056271D01*
X48479554Y-63790090D01*
X47842206Y-63561746D01*
X47165990Y-63594687D01*
X46694246Y-63790090D01*
X46580697Y-64056271D01*
X47586900Y-65062474D01*
X48593103Y-64056271D01*
X48593103Y-64487323D01*
X47802426Y-65278000D01*
X48808629Y-66284203D01*
X48945800Y-66225687D01*
X48945800Y-67448544D01*
G36*
X48945800Y-75068544D02*
X48771910Y-74647697D01*
X48488842Y-74364135D01*
X48593103Y-74119729D01*
X47586900Y-73113526D01*
X47371374Y-73329052D01*
X47371374Y-72898000D01*
X46365171Y-71891797D01*
X46098990Y-72005346D01*
X45870646Y-72642694D01*
X45903587Y-73318910D01*
X46098990Y-73790654D01*
X46365171Y-73904203D01*
X47371374Y-72898000D01*
X47371374Y-73329052D01*
X46580697Y-74119729D01*
X46685046Y-74364345D01*
X46403271Y-74645630D01*
X46190143Y-75158900D01*
X46189658Y-75714661D01*
X46202216Y-75745053D01*
X42191270Y-79756000D01*
X36475067Y-79756000D01*
X36448759Y-79620411D01*
X36370477Y-79501241D01*
X36252299Y-79421469D01*
X36112500Y-79393433D01*
X33673800Y-79393433D01*
X33673800Y-79102567D01*
X36112500Y-79102567D01*
X36248089Y-79076259D01*
X36367259Y-78997977D01*
X36447031Y-78879799D01*
X36475067Y-78740000D01*
X36773200Y-78740000D01*
X37064805Y-78681996D01*
X37312015Y-78516815D01*
X37477196Y-78269605D01*
X37535200Y-77978000D01*
X37535200Y-77745930D01*
X46537240Y-68743889D01*
X46794530Y-69001629D01*
X47307800Y-69214757D01*
X47863561Y-69215242D01*
X48377203Y-69003010D01*
X48770529Y-68610370D01*
X48945800Y-68188269D01*
X48945800Y-71950312D01*
X48808629Y-71891797D01*
X48593103Y-72107323D01*
X48593103Y-71676271D01*
X48479554Y-71410090D01*
X47842206Y-71181746D01*
X47165990Y-71214687D01*
X46694246Y-71410090D01*
X46580697Y-71676271D01*
X47586900Y-72682474D01*
X48593103Y-71676271D01*
X48593103Y-72107323D01*
X47802426Y-72898000D01*
X48808629Y-73904203D01*
X48945800Y-73845687D01*
X48945800Y-75068544D01*
X48945800Y-75068544D01*
G37*
X48945800Y-75068544D02*
X48771910Y-74647697D01*
X48488842Y-74364135D01*
X48593103Y-74119729D01*
X47586900Y-73113526D01*
X47371374Y-73329052D01*
X47371374Y-72898000D01*
X46365171Y-71891797D01*
X46098990Y-72005346D01*
X45870646Y-72642694D01*
X45903587Y-73318910D01*
X46098990Y-73790654D01*
X46365171Y-73904203D01*
X47371374Y-72898000D01*
X47371374Y-73329052D01*
X46580697Y-74119729D01*
X46685046Y-74364345D01*
X46403271Y-74645630D01*
X46190143Y-75158900D01*
X46189658Y-75714661D01*
X46202216Y-75745053D01*
X42191270Y-79756000D01*
X36475067Y-79756000D01*
X36448759Y-79620411D01*
X36370477Y-79501241D01*
X36252299Y-79421469D01*
X36112500Y-79393433D01*
X33673800Y-79393433D01*
X33673800Y-79102567D01*
X36112500Y-79102567D01*
X36248089Y-79076259D01*
X36367259Y-78997977D01*
X36447031Y-78879799D01*
X36475067Y-78740000D01*
X36773200Y-78740000D01*
X37064805Y-78681996D01*
X37312015Y-78516815D01*
X37477196Y-78269605D01*
X37535200Y-77978000D01*
X37535200Y-77745930D01*
X46537240Y-68743889D01*
X46794530Y-69001629D01*
X47307800Y-69214757D01*
X47863561Y-69215242D01*
X48377203Y-69003010D01*
X48770529Y-68610370D01*
X48945800Y-68188269D01*
X48945800Y-71950312D01*
X48808629Y-71891797D01*
X48593103Y-72107323D01*
X48593103Y-71676271D01*
X48479554Y-71410090D01*
X47842206Y-71181746D01*
X47165990Y-71214687D01*
X46694246Y-71410090D01*
X46580697Y-71676271D01*
X47586900Y-72682474D01*
X48593103Y-71676271D01*
X48593103Y-72107323D01*
X47802426Y-72898000D01*
X48808629Y-73904203D01*
X48945800Y-73845687D01*
X48945800Y-75068544D01*
G36*
X48945800Y-82688544D02*
X48771910Y-82267697D01*
X48488842Y-81984135D01*
X48593103Y-81739729D01*
X47586900Y-80733526D01*
X47371374Y-80949052D01*
X47371374Y-80518000D01*
X46365171Y-79511797D01*
X46098990Y-79625346D01*
X45870646Y-80262694D01*
X45903587Y-80938910D01*
X46098990Y-81410654D01*
X46365171Y-81524203D01*
X47371374Y-80518000D01*
X47371374Y-80949052D01*
X46580697Y-81739729D01*
X46685046Y-81984345D01*
X46403271Y-82265630D01*
X46390660Y-82296000D01*
X36475067Y-82296000D01*
X36448759Y-82160411D01*
X36370477Y-82041241D01*
X36252299Y-81961469D01*
X36112500Y-81933433D01*
X33572500Y-81933433D01*
X33436911Y-81959741D01*
X33317741Y-82038023D01*
X33237969Y-82156201D01*
X33212855Y-82281425D01*
X32600600Y-81669170D01*
X32600600Y-81208902D01*
X32620195Y-81221996D01*
X32911800Y-81280000D01*
X33209933Y-81280000D01*
X33236241Y-81415589D01*
X33314523Y-81534759D01*
X33432701Y-81614531D01*
X33572500Y-81642567D01*
X36112500Y-81642567D01*
X36248089Y-81616259D01*
X36367259Y-81537977D01*
X36447031Y-81419799D01*
X36475067Y-81280000D01*
X42506900Y-81280000D01*
X42506900Y-81279999D01*
X42798504Y-81221996D01*
X42798505Y-81221996D01*
X43045715Y-81056815D01*
X47279517Y-76823012D01*
X47307800Y-76834757D01*
X47863561Y-76835242D01*
X48377203Y-76623010D01*
X48770529Y-76230370D01*
X48945800Y-75808269D01*
X48945800Y-79570312D01*
X48808629Y-79511797D01*
X48593103Y-79727323D01*
X48593103Y-79296271D01*
X48479554Y-79030090D01*
X47842206Y-78801746D01*
X47165990Y-78834687D01*
X46694246Y-79030090D01*
X46580697Y-79296271D01*
X47586900Y-80302474D01*
X48593103Y-79296271D01*
X48593103Y-79727323D01*
X47802426Y-80518000D01*
X48808629Y-81524203D01*
X48945800Y-81465687D01*
X48945800Y-82688544D01*
X48945800Y-82688544D01*
G37*
X48945800Y-82688544D02*
X48771910Y-82267697D01*
X48488842Y-81984135D01*
X48593103Y-81739729D01*
X47586900Y-80733526D01*
X47371374Y-80949052D01*
X47371374Y-80518000D01*
X46365171Y-79511797D01*
X46098990Y-79625346D01*
X45870646Y-80262694D01*
X45903587Y-80938910D01*
X46098990Y-81410654D01*
X46365171Y-81524203D01*
X47371374Y-80518000D01*
X47371374Y-80949052D01*
X46580697Y-81739729D01*
X46685046Y-81984345D01*
X46403271Y-82265630D01*
X46390660Y-82296000D01*
X36475067Y-82296000D01*
X36448759Y-82160411D01*
X36370477Y-82041241D01*
X36252299Y-81961469D01*
X36112500Y-81933433D01*
X33572500Y-81933433D01*
X33436911Y-81959741D01*
X33317741Y-82038023D01*
X33237969Y-82156201D01*
X33212855Y-82281425D01*
X32600600Y-81669170D01*
X32600600Y-81208902D01*
X32620195Y-81221996D01*
X32911800Y-81280000D01*
X33209933Y-81280000D01*
X33236241Y-81415589D01*
X33314523Y-81534759D01*
X33432701Y-81614531D01*
X33572500Y-81642567D01*
X36112500Y-81642567D01*
X36248089Y-81616259D01*
X36367259Y-81537977D01*
X36447031Y-81419799D01*
X36475067Y-81280000D01*
X42506900Y-81280000D01*
X42506900Y-81279999D01*
X42798504Y-81221996D01*
X42798505Y-81221996D01*
X43045715Y-81056815D01*
X47279517Y-76823012D01*
X47307800Y-76834757D01*
X47863561Y-76835242D01*
X48377203Y-76623010D01*
X48770529Y-76230370D01*
X48945800Y-75808269D01*
X48945800Y-79570312D01*
X48808629Y-79511797D01*
X48593103Y-79727323D01*
X48593103Y-79296271D01*
X48479554Y-79030090D01*
X47842206Y-78801746D01*
X47165990Y-78834687D01*
X46694246Y-79030090D01*
X46580697Y-79296271D01*
X47586900Y-80302474D01*
X48593103Y-79296271D01*
X48593103Y-79727323D01*
X47802426Y-80518000D01*
X48808629Y-81524203D01*
X48945800Y-81465687D01*
X48945800Y-82688544D01*
M02*
