M48
;DRILL file {KiCad 0.201506162246+5763~23~ubuntu14.04.1-product} date Tue 23 Jun 2015 12:58:40 PM EDT
;FORMAT={-:-/ absolute / inch / decimal}
FMAT,2
INCH,TZ
T1C0.025
T2C0.061
T3C0.112
T4C0.290
T5C0.313
%
G90
G05
M72
T1
X2.252Y-3.7154
X2.2837Y-3.7546
X2.403Y-3.5154
X2.4915Y-3.7154
X2.5201Y-3.9817
X2.5216Y-3.8578
X2.526Y-4.4869
X2.6003Y-2.784
X2.61Y-3.4804
X2.93Y-3.4754
X2.9386Y-4.4256
X2.9441Y-1.4952
X2.96Y-3.1404
X2.9652Y-2.6179
X2.982Y-1.2829
X3.055Y-2.9903
X3.0623Y-1.3601
X3.0623Y-3.0354
X3.0637Y-4.2819
X3.0884Y-4.518
X3.1739Y-2.9565
X3.569Y-4.0819
X3.625Y-4.7244
X3.745Y-4.8628
X3.7831Y-5.2418
X3.7941Y-3.6377
X3.7983Y-5.7509
X3.8009Y-4.1899
X3.9826Y-3.5557
X3.985Y-3.6654
X4.0087Y-4.3516
X4.1237Y-2.1002
X4.1958Y-1.4876
X4.1963Y-4.4171
X4.25Y-4.5231
X4.28Y-3.6654
X4.2811Y-1.2844
X4.3035Y-2.8295
X4.3157Y-4.472
X4.4236Y-4.296
X4.4277Y-3.0195
X4.4311Y-2.8805
X4.435Y-1.3975
X4.5685Y-3.2838
X4.6445Y-3.4645
X4.6718Y-3.9581
X4.73Y-3.4304
X4.7693Y-3.1098
X4.7803Y-3.9153
X4.7944Y-2.8072
X4.7965Y-2.0103
X4.7974Y-2.0672
X4.805Y-1.9254
X4.8369Y-3.5241
X4.8502Y-3.6853
X4.8822Y-2.1154
X4.96Y-1.8254
X5.0735Y-2.5551
X5.0911Y-3.8014
X5.0924Y-3.5154
X5.1057Y-2.2133
X5.1941Y-3.1301
X5.203Y-2.3154
X5.2534Y-3.5154
T2
X3.635Y-5.5316
X3.735Y-5.5316
T3
X2.6285Y-1.1095
X2.6285Y-2.5883
X2.6285Y-4.7213
X4.7415Y-1.1095
X4.7415Y-2.5883
X4.7415Y-4.7213
T4
X2.7428Y-1.4366
X2.7428Y-2.9154
X2.7428Y-4.3942
X3.685Y-5.9826
X4.6273Y-1.4366
X4.6273Y-2.9154
X4.6273Y-4.3942
T5
X2.2986Y-1.4366
X2.2986Y-2.9154
X2.2986Y-4.3942
X5.0715Y-1.4366
X5.0715Y-2.9154
X5.0715Y-4.3942
T0
M30
