M48
;DRILL file {KiCad 0.201505120158+5650~23~ubuntu14.04.1-product} date Mon 18 May 2015 03:52:31 PM EDT
;FORMAT={-:-/ absolute / inch / decimal}
FMAT,2
INCH,TZ
T1C0.025
T2C0.061
T3C0.112
T4C0.290
T5C0.313
%
G90
G05
M72
T1
X2.1196Y-2.6258
X2.2317Y-3.8154
X2.2664Y-3.5134
X2.3053Y-3.3051
X2.3349Y-3.7154
X2.4183Y-2.3154
X2.5101Y-2.4065
X2.538Y-3.7947
X2.5394Y-2.1369
X2.5426Y-2.0911
X2.5756Y-3.8992
X2.6193Y-3.7605
X2.7016Y-2.3305
X2.8122Y-3.8044
X3.06Y-1.4254
X3.06Y-4.3604
X3.065Y-2.8954
X3.0829Y-2.6197
X3.12Y-1.5904
X3.12Y-3.0754
X3.19Y-1.4404
X3.19Y-2.9154
X3.19Y-4.3904
X3.1944Y-3.2983
X3.2Y-4.5054
X3.36Y-3.6643
X3.3687Y-1.256
X3.3913Y-3.2069
X3.445Y-2.4154
X3.4561Y-4.0364
X3.56Y-4.2279
X3.6022Y-5.1914
X3.7332Y-4.1625
X3.8241Y-3.7554
X3.835Y-5.5654
X3.8875Y-4.4376
X3.9243Y-2.6215
X3.925Y-1.8947
X3.9259Y-1.1688
X3.9776Y-2.8274
X4.049Y-3.6806
X4.0847Y-3.6397
X4.175Y-4.3904
X4.2463Y-2.2523
X4.305Y-2.8854
X4.305Y-4.3604
X4.31Y-1.4054
X4.37Y-1.5904
X4.37Y-3.0754
X4.425Y-1.4404
X4.425Y-2.9154
X4.425Y-4.3904
X4.4367Y-2.3908
X4.4653Y-3.8444
X4.7796Y-4.2164
X4.807Y-1.29
T2
X3.635Y-5.5316
X3.735Y-5.5316
T3
X2.6285Y-1.1095
X2.6285Y-2.5883
X2.6285Y-4.7213
X4.7415Y-1.1095
X4.7415Y-2.5883
X4.7415Y-4.7213
T4
X2.7428Y-1.4366
X2.7428Y-2.9154
X2.7428Y-4.3942
X3.685Y-5.9826
X4.6273Y-1.4366
X4.6273Y-2.9154
X4.6273Y-4.3942
T5
X2.2986Y-1.4366
X2.2986Y-2.9154
X2.2986Y-4.3942
X5.0715Y-1.4366
X5.0715Y-2.9154
X5.0715Y-4.3942
T0
M30
