G04 #@! TF.FileFunction,Soldermask,Top*
%FSLAX46Y46*%
G04 Gerber Fmt 4.6, Leading zero omitted, Abs format (unit mm)*
G04 Created by KiCad (PCBNEW 0.201504221001+5618~22~ubuntu14.04.1-product) date Thu 30 Apr 2015 03:14:29 PM EDT*
%MOMM*%
G01*
G04 APERTURE LIST*
%ADD10C,0.100000*%
%ADD11C,0.228600*%
%ADD12R,1.670000X3.371800*%
%ADD13R,1.111200X2.178000*%
%ADD14R,2.940000X1.924000*%
%ADD15R,1.924000X2.940000*%
%ADD16R,4.895800X1.416000*%
%ADD17R,1.670000X2.940000*%
%ADD18R,2.940000X1.670000*%
%ADD19C,9.112200*%
%ADD20C,8.528000*%
%ADD21C,3.956000*%
%ADD22C,2.387600*%
G04 APERTURE END LIST*
D10*
D11*
X87914480Y-151958040D02*
G75*
G03X99283520Y-151958040I5684520J0D01*
G01*
X99283520Y-125483620D02*
X99283520Y-151958040D01*
X87917020Y-125483620D02*
X87917020Y-151958040D01*
X102064820Y-122702320D02*
G75*
G03X99283520Y-125483620I0J-2781300D01*
G01*
X87917020Y-125483620D02*
G75*
G03X85135720Y-122702320I-2781300J0D01*
G01*
X102064820Y-122702320D02*
X133619240Y-122702320D01*
X53581300Y-122702320D02*
X85135720Y-122702320D01*
X53581300Y-25400000D02*
G75*
G03X50800000Y-28181300I0J-2781300D01*
G01*
X133619240Y-122702320D02*
G75*
G03X136400540Y-119921020I0J2781300D01*
G01*
X136400540Y-28181300D02*
X136400540Y-119921020D01*
X50800000Y-119921020D02*
G75*
G03X53581300Y-122702320I2781300J0D01*
G01*
X50800000Y-28181300D02*
X50800000Y-119921020D01*
X136400540Y-28181300D02*
G75*
G03X133619240Y-25400000I-2781300J0D01*
G01*
X53581300Y-25400000D02*
X133619240Y-25400000D01*
D12*
X94869000Y-145704400D03*
X92329000Y-142097600D03*
X118999000Y-46644600D03*
X116459000Y-43037800D03*
X118999000Y-84744600D03*
X116459000Y-81137800D03*
X118999000Y-105064400D03*
X116459000Y-101457600D03*
X70739000Y-46644600D03*
X68199000Y-43037800D03*
X70739000Y-84744600D03*
X68199000Y-81137800D03*
X70739000Y-105064400D03*
X68199000Y-101457600D03*
D13*
X91694000Y-118501000D03*
X92964000Y-118501000D03*
X94234000Y-118501000D03*
X95504000Y-118501000D03*
X95504000Y-113421000D03*
X94234000Y-113421000D03*
X92964000Y-113421000D03*
X91694000Y-113421000D03*
X111379000Y-53731200D03*
X110109000Y-53731200D03*
X108839000Y-53731200D03*
X107569000Y-53731200D03*
X107569000Y-58811200D03*
X108839000Y-58811200D03*
X110109000Y-58811200D03*
X111379000Y-58811200D03*
X111379000Y-91196200D03*
X110109000Y-91196200D03*
X108839000Y-91196200D03*
X107569000Y-91196200D03*
X107569000Y-96276200D03*
X108839000Y-96276200D03*
X110109000Y-96276200D03*
X111379000Y-96276200D03*
X100584000Y-100721200D03*
X101854000Y-100721200D03*
X103124000Y-100721200D03*
X104394000Y-100721200D03*
X104394000Y-95641200D03*
X103124000Y-95641200D03*
X101854000Y-95641200D03*
X100584000Y-95641200D03*
X79629000Y-53731200D03*
X78359000Y-53731200D03*
X77089000Y-53731200D03*
X75819000Y-53731200D03*
X75819000Y-58811200D03*
X77089000Y-58811200D03*
X78359000Y-58811200D03*
X79629000Y-58811200D03*
X79629000Y-91196200D03*
X78359000Y-91196200D03*
X77089000Y-91196200D03*
X75819000Y-91196200D03*
X75819000Y-96276200D03*
X77089000Y-96276200D03*
X78359000Y-96276200D03*
X79629000Y-96276200D03*
X82804000Y-100721200D03*
X84074000Y-100721200D03*
X85344000Y-100721200D03*
X86614000Y-100721200D03*
X86614000Y-95641200D03*
X85344000Y-95641200D03*
X84074000Y-95641200D03*
X82804000Y-95641200D03*
D14*
X53594000Y-118501000D03*
X61214000Y-118501000D03*
D15*
X64025800Y-107803000D03*
X64025800Y-115423000D03*
X64025800Y-70241200D03*
X64025800Y-77861200D03*
X64025800Y-32679600D03*
X64025800Y-40299600D03*
X123175000Y-107803000D03*
X123175000Y-115423000D03*
X123175000Y-70241200D03*
X123175000Y-77861200D03*
X123175000Y-32679600D03*
X123175000Y-40299600D03*
D14*
X133604000Y-118501000D03*
X125984000Y-118501000D03*
D16*
X55041800Y-49921200D03*
X61036200Y-49921200D03*
X55041800Y-52461200D03*
X61036200Y-52461200D03*
X55041800Y-55001200D03*
X61036200Y-55001200D03*
X55041800Y-57541200D03*
X61036200Y-57541200D03*
X55041800Y-60081200D03*
X61036200Y-60081200D03*
X55041800Y-84211200D03*
X61036200Y-84211200D03*
X55041800Y-86751200D03*
X61036200Y-86751200D03*
X55041800Y-89291200D03*
X61036200Y-89291200D03*
X55041800Y-91831200D03*
X61036200Y-91831200D03*
X55041800Y-94371200D03*
X61036200Y-94371200D03*
X55041800Y-96911200D03*
X61036200Y-96911200D03*
X55041800Y-99451200D03*
X61036200Y-99451200D03*
X55041800Y-101991200D03*
X61036200Y-101991200D03*
D17*
X97663000Y-140091000D03*
X94615000Y-140091000D03*
X95123000Y-122946000D03*
X92075000Y-122946000D03*
D18*
X87249000Y-115707000D03*
X87249000Y-118755000D03*
D17*
X110998000Y-36586200D03*
X107950000Y-36586200D03*
X107950000Y-49286200D03*
X110998000Y-49286200D03*
D18*
X103124000Y-57795200D03*
X103124000Y-54747200D03*
D17*
X110998000Y-74051200D03*
X107950000Y-74051200D03*
X107950000Y-86751200D03*
X110998000Y-86751200D03*
D18*
X115824000Y-95260200D03*
X115824000Y-92212200D03*
D17*
X110998000Y-111516000D03*
X107950000Y-111516000D03*
X100965000Y-105166000D03*
X104013000Y-105166000D03*
D18*
X96774000Y-96657200D03*
X96774000Y-99705200D03*
D17*
X79248000Y-36586200D03*
X76200000Y-36586200D03*
X76200000Y-49286200D03*
X79248000Y-49286200D03*
D18*
X84074000Y-57795200D03*
X84074000Y-54747200D03*
D17*
X79248000Y-74051200D03*
X76200000Y-74051200D03*
X76200000Y-86751200D03*
X79248000Y-86751200D03*
D18*
X71374000Y-95260200D03*
X71374000Y-92212200D03*
D17*
X79248000Y-111516000D03*
X76200000Y-111516000D03*
X83185000Y-105166000D03*
X86233000Y-105166000D03*
D18*
X90424000Y-96657200D03*
X90424000Y-99705200D03*
D17*
X95123000Y-129296000D03*
X92075000Y-129296000D03*
X107950000Y-42936200D03*
X110998000Y-42936200D03*
X107950000Y-80401200D03*
X110998000Y-80401200D03*
X100965000Y-111516000D03*
X104013000Y-111516000D03*
X76200000Y-42936200D03*
X79248000Y-42936200D03*
X76200000Y-80401200D03*
X79248000Y-80401200D03*
X83185000Y-111516000D03*
X86233000Y-111516000D03*
D19*
X128816000Y-111613000D03*
X128816000Y-74051200D03*
X128816000Y-36489600D03*
X58384400Y-111613000D03*
X58384400Y-74051200D03*
X58384400Y-36489600D03*
D20*
X69667100Y-36489600D03*
X117533000Y-36489600D03*
X69667100Y-74051200D03*
X117533000Y-74051200D03*
X69667100Y-111613000D03*
X117533000Y-111613000D03*
X93599000Y-151958000D03*
D21*
X120434000Y-119921000D03*
X66763900Y-119921000D03*
X120434000Y-65742800D03*
X66763900Y-65742800D03*
X120434000Y-28181300D03*
X66763900Y-28181300D03*
D22*
X92329000Y-136388000D03*
X94869000Y-136388000D03*
M02*
