G04 #@! TF.FileFunction,Copper,L2,Bot,Signal*
%FSLAX46Y46*%
G04 Gerber Fmt 4.6, Leading zero omitted, Abs format (unit mm)*
G04 Created by KiCad (PCBNEW 0.201505120158+5650~23~ubuntu14.04.1-product) date Mon 18 May 2015 03:52:25 PM EDT*
%MOMM*%
G01*
G04 APERTURE LIST*
%ADD10C,0.100000*%
%ADD11C,0.228600*%
%ADD12R,0.701040X1.000760*%
%ADD13R,1.000760X0.701040*%
%ADD14C,8.712200*%
%ADD15C,8.128000*%
%ADD16C,3.556000*%
%ADD17C,2.336800*%
%ADD18C,0.889000*%
%ADD19C,0.812800*%
%ADD20C,0.406400*%
%ADD21C,0.508000*%
%ADD22C,0.203200*%
G04 APERTURE END LIST*
D10*
D11*
X87914480Y-151958040D02*
G75*
G03X99283520Y-151958040I5684520J0D01*
G01*
X99283520Y-125483620D02*
X99283520Y-151958040D01*
X87917020Y-125483620D02*
X87917020Y-151958040D01*
X102064820Y-122702320D02*
G75*
G03X99283520Y-125483620I0J-2781300D01*
G01*
X87917020Y-125483620D02*
G75*
G03X85135720Y-122702320I-2781300J0D01*
G01*
X102064820Y-122702320D02*
X133619240Y-122702320D01*
X53581300Y-122702320D02*
X85135720Y-122702320D01*
X53581300Y-25400000D02*
G75*
G03X50800000Y-28181300I0J-2781300D01*
G01*
X133619240Y-122702320D02*
G75*
G03X136400540Y-119921020I0J2781300D01*
G01*
X136400540Y-28181300D02*
X136400540Y-119921020D01*
X50800000Y-119921020D02*
G75*
G03X53581300Y-122702320I2781300J0D01*
G01*
X50800000Y-28181300D02*
X50800000Y-119921020D01*
X136400540Y-28181300D02*
G75*
G03X133619240Y-25400000I-2781300J0D01*
G01*
X53581300Y-25400000D02*
X133619240Y-25400000D01*
D12*
X77622360Y-112811880D03*
X75722440Y-112811880D03*
X76672400Y-110414120D03*
X77622360Y-75250080D03*
X75722440Y-75250080D03*
X76672400Y-72852320D03*
X77622360Y-37688480D03*
X75722440Y-37688480D03*
X76672400Y-35290720D03*
X111477960Y-112811880D03*
X109578040Y-112811880D03*
X110528000Y-110414120D03*
X111477960Y-75250080D03*
X109578040Y-75250080D03*
X110528000Y-72852320D03*
X111477960Y-37688480D03*
X109578040Y-37688480D03*
X110528000Y-35290720D03*
D13*
X92400120Y-145902960D03*
X92400120Y-144003040D03*
X94797880Y-144953000D03*
D14*
X128816000Y-111613000D03*
X128816000Y-74051200D03*
X128816000Y-36489600D03*
X58384400Y-111613000D03*
X58384400Y-74051200D03*
X58384400Y-36489600D03*
D15*
X69667100Y-36489600D03*
X117533000Y-36489600D03*
X69667100Y-74051200D03*
X117533000Y-74051200D03*
X69667100Y-111613000D03*
X117533000Y-111613000D03*
X93599000Y-151958000D03*
D16*
X120434000Y-119921000D03*
X66763900Y-119921000D03*
X120434000Y-65742800D03*
X66763900Y-65742800D03*
X120434000Y-28181300D03*
X66763900Y-28181300D03*
D17*
X94869000Y-140503000D03*
X92329000Y-140503000D03*
D18*
X81136900Y-83776200D03*
X58555200Y-83950700D03*
X97409000Y-141361000D03*
X81026000Y-111516000D03*
X81026000Y-74051200D03*
X81026000Y-36586200D03*
X112395000Y-111516000D03*
X112395000Y-74051200D03*
X112395000Y-36586200D03*
X90424300Y-107389000D03*
X53837900Y-66695500D03*
X107856800Y-57207400D03*
X64582200Y-53112900D03*
X103752600Y-92449200D03*
X64500000Y-54277800D03*
X102844700Y-93488100D03*
X68621200Y-59193700D03*
X71429300Y-96631900D03*
X61425300Y-58811200D03*
X85344000Y-93073600D03*
X63757200Y-61124600D03*
X77724000Y-36205200D03*
X77724000Y-110754000D03*
X77851000Y-73543200D03*
X109347000Y-110754000D03*
X109347000Y-73289200D03*
X109474000Y-35697200D03*
X98742200Y-112713800D03*
X85564100Y-31903300D03*
X91494800Y-131860400D03*
X110998000Y-40396200D03*
X110998000Y-78115200D03*
X106045000Y-111516000D03*
X79248000Y-40396200D03*
X79248000Y-78115200D03*
X81280000Y-114437000D03*
X101030600Y-71816500D03*
X113418500Y-97648700D03*
X87785400Y-102523800D03*
X97132200Y-95386800D03*
X65420900Y-99039800D03*
X86140200Y-81455600D03*
X66531100Y-95515500D03*
X94824000Y-105728700D03*
X59306700Y-94371200D03*
X57567300Y-89240400D03*
X99717800Y-29686700D03*
X122098500Y-32766500D03*
X56686300Y-96911200D03*
X99695000Y-48126400D03*
X112691500Y-60726600D03*
X99676700Y-66586800D03*
X121401300Y-107097600D03*
X64464200Y-96385400D03*
X87503900Y-61351200D03*
X78304800Y-66540100D03*
D19*
X80962400Y-83950700D02*
X81136900Y-83776200D01*
X58555200Y-83950700D02*
X80962400Y-83950700D01*
X79923600Y-37688500D02*
X81026000Y-36586200D01*
X77622400Y-37688500D02*
X79923600Y-37688500D01*
X111478000Y-74968100D02*
X112395000Y-74051200D01*
X111478000Y-75250100D02*
X111478000Y-74968100D01*
X77622500Y-75250000D02*
X77622400Y-75250100D01*
X77622400Y-75250000D02*
X77622500Y-75250000D01*
X111478000Y-37503100D02*
X112395000Y-36586200D01*
X111478000Y-37688500D02*
X111478000Y-37503100D01*
X111478000Y-112812000D02*
X111478000Y-112811900D01*
X111478000Y-112433000D02*
X112395000Y-111516000D01*
X111478000Y-112811900D02*
X111478000Y-112433000D01*
X79827100Y-75250000D02*
X81026000Y-74051200D01*
X77622500Y-75250000D02*
X79827100Y-75250000D01*
X97409000Y-145171000D02*
X97409000Y-141361000D01*
X96139000Y-146441000D02*
X97409000Y-145171000D01*
X92964000Y-146441000D02*
X96139000Y-146441000D01*
X92425800Y-145903000D02*
X92964000Y-146441000D01*
X92400100Y-145903000D02*
X92425800Y-145903000D01*
X94712600Y-125202600D02*
X81026000Y-111516000D01*
X97409000Y-125202600D02*
X94712600Y-125202600D01*
X97409000Y-141361000D02*
X97409000Y-125202600D01*
X107176600Y-117113400D02*
X111478000Y-112812000D01*
X105498200Y-117113400D02*
X107176600Y-117113400D01*
X97409000Y-125202600D02*
X105498200Y-117113400D01*
X79730600Y-112812000D02*
X77622500Y-112812000D01*
X81026000Y-111516000D02*
X79730600Y-112812000D01*
X77622500Y-112812000D02*
X77622400Y-112811900D01*
X83525200Y-34087000D02*
X81026000Y-36586200D01*
X111156600Y-34087000D02*
X83525200Y-34087000D01*
X112395000Y-35325400D02*
X111156600Y-34087000D01*
X112395000Y-36586200D02*
X112395000Y-35325400D01*
X112489200Y-38699700D02*
X112489200Y-37688500D01*
X114598700Y-40809200D02*
X112489200Y-38699700D01*
X114598700Y-70303700D02*
X114598700Y-40809200D01*
X112395000Y-72507400D02*
X114598700Y-70303700D01*
X112395000Y-74051200D02*
X112395000Y-72507400D01*
X111478000Y-37688500D02*
X112489200Y-37688500D01*
D20*
X53570700Y-66962700D02*
X53837900Y-66695500D01*
X53570700Y-82235100D02*
X53570700Y-66962700D01*
X59130000Y-87794400D02*
X53570700Y-82235100D01*
X59130000Y-92965500D02*
X59130000Y-87794400D01*
X58380500Y-93715000D02*
X59130000Y-92965500D01*
X58380500Y-94734700D02*
X58380500Y-93715000D01*
X65227700Y-101581900D02*
X58380500Y-94734700D01*
X88173000Y-101581900D02*
X65227700Y-101581900D01*
X90424300Y-103833200D02*
X88173000Y-101581900D01*
X90424300Y-107389000D02*
X90424300Y-103833200D01*
X103762300Y-53112900D02*
X107856800Y-57207400D01*
X64582200Y-53112900D02*
X103762300Y-53112900D01*
X64981000Y-54277800D02*
X64500000Y-54277800D01*
X69523200Y-58820000D02*
X64981000Y-54277800D01*
X69523200Y-59060500D02*
X69523200Y-58820000D01*
X102911900Y-92449200D02*
X69523200Y-59060500D01*
X103752600Y-92449200D02*
X102911900Y-92449200D01*
X68621200Y-59264600D02*
X68621200Y-59193700D01*
X102844700Y-93488100D02*
X68621200Y-59264600D01*
X61425300Y-60266400D02*
X61425300Y-58811200D01*
X63225200Y-62066300D02*
X61425300Y-60266400D01*
X63225200Y-77929000D02*
X63225200Y-62066300D01*
X57653100Y-83501100D02*
X63225200Y-77929000D01*
X57653100Y-85351600D02*
X57653100Y-83501100D01*
X65041900Y-92740400D02*
X57653100Y-85351600D01*
X65041900Y-95332300D02*
X65041900Y-92740400D01*
X66341500Y-96631900D02*
X65041900Y-95332300D01*
X71429300Y-96631900D02*
X66341500Y-96631900D01*
X87058600Y-91359000D02*
X85344000Y-93073600D01*
X87058600Y-78752900D02*
X87058600Y-91359000D01*
X69430300Y-61124600D02*
X87058600Y-78752900D01*
X63757200Y-61124600D02*
X69430300Y-61124600D01*
D19*
X92329000Y-141361000D02*
X92329000Y-140503000D01*
X94797900Y-143830000D02*
X92329000Y-141361000D01*
X94797900Y-144953000D02*
X94797900Y-143830000D01*
X76672500Y-35290800D02*
X76672400Y-35290700D01*
X110528000Y-35290800D02*
X110528000Y-35290700D01*
X109880000Y-35290800D02*
X110528000Y-35290800D01*
X109474000Y-35697200D02*
X109880000Y-35290800D01*
X76672500Y-35290800D02*
X76672400Y-35290800D01*
D21*
X76672500Y-110414000D02*
X76672400Y-110414100D01*
X110528000Y-110414000D02*
X110528000Y-110414100D01*
D19*
X77160100Y-72852300D02*
X76672400Y-72852300D01*
X77851000Y-73543200D02*
X77160100Y-72852300D01*
X77383600Y-110414000D02*
X76672500Y-110414000D01*
X77724000Y-110754000D02*
X77383600Y-110414000D01*
X109347000Y-110754000D02*
X109517000Y-110584000D01*
X109687000Y-110414000D02*
X110528000Y-110414000D01*
X109517000Y-110584000D02*
X109687000Y-110414000D01*
D21*
X109449300Y-110516300D02*
X98742200Y-110516300D01*
X109517000Y-110584000D02*
X109449300Y-110516300D01*
X77961700Y-110516300D02*
X77724000Y-110754000D01*
X98742200Y-110516300D02*
X77961700Y-110516300D01*
D19*
X109784000Y-72852300D02*
X110156000Y-72852300D01*
X109347000Y-73289200D02*
X109784000Y-72852300D01*
X110156000Y-72852300D02*
X110528000Y-72852300D01*
D21*
X110456500Y-36679700D02*
X109474000Y-35697200D01*
X110456500Y-38504200D02*
X110456500Y-36679700D01*
X113683900Y-41731600D02*
X110456500Y-38504200D01*
X113683900Y-69324400D02*
X113683900Y-41731600D01*
X110156000Y-72852300D02*
X113683900Y-69324400D01*
X98742200Y-110516300D02*
X98742200Y-112713800D01*
D19*
X77724000Y-36205200D02*
X77171500Y-35652700D01*
X76809600Y-35290800D02*
X76672500Y-35290800D01*
X77171500Y-35652700D02*
X76809600Y-35290800D01*
D21*
X80920900Y-31903300D02*
X85564100Y-31903300D01*
X77171500Y-35652700D02*
X80920900Y-31903300D01*
D20*
X90700200Y-141495100D02*
X92400100Y-143195000D01*
X90700200Y-132655000D02*
X90700200Y-141495100D01*
X91494800Y-131860400D02*
X90700200Y-132655000D01*
X92400100Y-144003000D02*
X92400100Y-143195000D01*
X109578000Y-38976300D02*
X109578000Y-37688500D01*
X110998000Y-40396200D02*
X109578000Y-38976300D01*
X109578000Y-75250000D02*
X109578000Y-75250100D01*
X109601000Y-75272900D02*
X109578000Y-75250000D01*
X109601000Y-76718200D02*
X109601000Y-75272900D01*
X110998000Y-78115200D02*
X109601000Y-76718200D01*
X107340000Y-112812000D02*
X109577900Y-112812000D01*
X106045000Y-111516000D02*
X107340000Y-112812000D01*
X109577900Y-112812000D02*
X109578000Y-112812000D01*
X109577900Y-112812000D02*
X109578000Y-112811900D01*
X76405700Y-38371700D02*
X75722500Y-37688500D01*
X77668100Y-39634200D02*
X76405700Y-38371700D01*
X78486000Y-39634200D02*
X77668100Y-39634200D01*
X79248000Y-40396200D02*
X78486000Y-39634200D01*
X76405600Y-38371700D02*
X75722400Y-37688500D01*
X76405700Y-38371700D02*
X76405600Y-38371700D01*
X76405700Y-75933200D02*
X75722500Y-75250000D01*
X77698600Y-77226200D02*
X76405700Y-75933200D01*
X78359000Y-77226200D02*
X77698600Y-77226200D01*
X79248000Y-78115200D02*
X78359000Y-77226200D01*
X76405500Y-75933200D02*
X75722400Y-75250100D01*
X76405700Y-75933200D02*
X76405500Y-75933200D01*
X76835000Y-114437000D02*
X81280000Y-114437000D01*
X75722500Y-113325000D02*
X76835000Y-114437000D01*
X75722500Y-113068000D02*
X75722500Y-113325000D01*
X75722500Y-112812000D02*
X75722500Y-113068000D01*
X75722400Y-113068000D02*
X75722400Y-112812000D01*
X75722500Y-113068000D02*
X75722400Y-113068000D01*
X75722400Y-112812000D02*
X75722400Y-112811900D01*
D19*
X113418500Y-84204400D02*
X113418500Y-97648700D01*
X101030600Y-71816500D02*
X113418500Y-84204400D01*
X82734100Y-102523800D02*
X87785400Y-102523800D01*
X74672600Y-110585300D02*
X82734100Y-102523800D01*
X74672600Y-113618100D02*
X74672600Y-110585300D01*
X82434800Y-121380300D02*
X74672600Y-113618100D01*
X85904600Y-121380300D02*
X82434800Y-121380300D01*
X94869000Y-130344700D02*
X85904600Y-121380300D01*
X94869000Y-140503000D02*
X94869000Y-130344700D01*
D20*
X93479200Y-99039800D02*
X65420900Y-99039800D01*
X97132200Y-95386800D02*
X93479200Y-99039800D01*
X72080300Y-95515500D02*
X66531100Y-95515500D01*
X86140200Y-81455600D02*
X72080300Y-95515500D01*
X65146500Y-100211000D02*
X59306700Y-94371200D01*
X89306300Y-100211000D02*
X65146500Y-100211000D01*
X94824000Y-105728700D02*
X89306300Y-100211000D01*
X80442800Y-30015200D02*
X99717800Y-30015200D01*
X74785200Y-35672800D02*
X80442800Y-30015200D01*
X74785200Y-39891600D02*
X74785200Y-35672800D01*
X52249200Y-62427600D02*
X74785200Y-39891600D01*
X52249200Y-83922300D02*
X52249200Y-62427600D01*
X57567300Y-89240400D02*
X52249200Y-83922300D01*
X99717800Y-30015200D02*
X99717800Y-29686700D01*
X121300600Y-32766500D02*
X122098500Y-32766500D01*
X118549300Y-30015200D02*
X121300600Y-32766500D01*
X99717800Y-30015200D02*
X118549300Y-30015200D01*
X100648700Y-48683800D02*
X112691500Y-60726600D01*
X99695000Y-48683800D02*
X100648700Y-48683800D01*
X99695000Y-48126400D02*
X99695000Y-48683800D01*
X56686300Y-91397100D02*
X56686300Y-96911200D01*
X58469300Y-89614100D02*
X56686300Y-91397100D01*
X58469300Y-88398200D02*
X58469300Y-89614100D01*
X52910000Y-82838900D02*
X58469300Y-88398200D01*
X52910000Y-63509500D02*
X52910000Y-82838900D01*
X67735700Y-48683800D02*
X52910000Y-63509500D01*
X99695000Y-48683800D02*
X67735700Y-48683800D01*
X99676700Y-86377200D02*
X99676700Y-66586800D01*
X104680000Y-91380500D02*
X99676700Y-86377200D01*
X104680000Y-94466600D02*
X104680000Y-91380500D01*
X108770300Y-94466600D02*
X104680000Y-94466600D01*
X121401300Y-107097600D02*
X108770300Y-94466600D01*
X65613600Y-97534800D02*
X64464200Y-96385400D01*
X72367300Y-97534800D02*
X65613600Y-97534800D01*
X75435500Y-94466600D02*
X72367300Y-97534800D01*
X104680000Y-94466600D02*
X75435500Y-94466600D01*
X82315000Y-66540100D02*
X78304800Y-66540100D01*
X87503900Y-61351200D02*
X82315000Y-66540100D01*
D22*
G36*
X86499800Y-80738583D02*
X86300048Y-80655639D01*
X85981748Y-80655361D01*
X85687572Y-80776913D01*
X85462304Y-81001788D01*
X85340239Y-81295752D01*
X85340090Y-81465447D01*
X71848838Y-94956700D01*
X67103800Y-94956700D01*
X66984912Y-94837604D01*
X66690948Y-94715539D01*
X66372648Y-94715261D01*
X66078472Y-94836813D01*
X65853204Y-95061688D01*
X65767631Y-95267769D01*
X65600700Y-95100838D01*
X65600700Y-92740400D01*
X65558164Y-92526557D01*
X65558164Y-92526556D01*
X65437031Y-92345269D01*
X58211900Y-85120138D01*
X58211900Y-84674484D01*
X58395352Y-84750661D01*
X58713652Y-84750939D01*
X58806196Y-84712700D01*
X80962400Y-84712700D01*
X80962400Y-84712699D01*
X81254004Y-84654696D01*
X81254005Y-84654696D01*
X81493910Y-84494395D01*
X81589528Y-84454887D01*
X81814796Y-84230012D01*
X81936861Y-83936048D01*
X81937139Y-83617748D01*
X81815587Y-83323572D01*
X81590712Y-83098304D01*
X81296748Y-82976239D01*
X80978448Y-82975961D01*
X80684272Y-83097513D01*
X80592925Y-83188700D01*
X74087465Y-83188700D01*
X74087465Y-73175944D01*
X73416039Y-71550968D01*
X72173871Y-70306630D01*
X70550070Y-69632369D01*
X68897870Y-69630927D01*
X68897870Y-65320263D01*
X68573733Y-64535791D01*
X67974065Y-63935076D01*
X67190161Y-63609571D01*
X66341363Y-63608830D01*
X65556891Y-63932967D01*
X64956176Y-64532635D01*
X64630671Y-65316539D01*
X64629930Y-66165337D01*
X64954067Y-66949809D01*
X65553735Y-67550524D01*
X66337639Y-67876029D01*
X67186437Y-67876770D01*
X67970909Y-67552633D01*
X68571624Y-66952965D01*
X68897129Y-66169061D01*
X68897870Y-65320263D01*
X68897870Y-69630927D01*
X68791844Y-69630835D01*
X67166868Y-70302261D01*
X65922530Y-71544429D01*
X65248269Y-73168230D01*
X65246735Y-74926456D01*
X65918161Y-76551432D01*
X67160329Y-77795770D01*
X68784130Y-78470031D01*
X70542356Y-78471565D01*
X72167332Y-77800139D01*
X73411670Y-76557971D01*
X74085931Y-74934170D01*
X74087465Y-73175944D01*
X74087465Y-83188700D01*
X58806467Y-83188700D01*
X58770639Y-83173822D01*
X63620331Y-78324132D01*
X63620331Y-78324131D01*
X63741464Y-78142844D01*
X63783999Y-77929000D01*
X63784000Y-77929000D01*
X63784000Y-62066300D01*
X63755834Y-61924699D01*
X63915652Y-61924839D01*
X64209828Y-61803287D01*
X64329924Y-61683400D01*
X69198838Y-61683400D01*
X80795973Y-73280535D01*
X80573372Y-73372513D01*
X80348104Y-73597388D01*
X80309714Y-73689839D01*
X79511487Y-74488000D01*
X78220574Y-74488000D01*
X78112679Y-74415169D01*
X77972880Y-74387133D01*
X77632520Y-74387133D01*
X77632520Y-73473957D01*
X77632520Y-73231443D01*
X77632520Y-73157120D01*
X77632520Y-72547520D01*
X77632520Y-72473197D01*
X77632520Y-72230683D01*
X77539714Y-72006629D01*
X77368231Y-71835146D01*
X77144177Y-71742340D01*
X76977200Y-71742340D01*
X76824800Y-71894740D01*
X76824800Y-72699920D01*
X77480120Y-72699920D01*
X77632520Y-72547520D01*
X77632520Y-73157120D01*
X77480120Y-73004720D01*
X76824800Y-73004720D01*
X76824800Y-73809900D01*
X76977200Y-73962300D01*
X77144177Y-73962300D01*
X77368231Y-73869494D01*
X77539714Y-73698011D01*
X77632520Y-73473957D01*
X77632520Y-74387133D01*
X77271840Y-74387133D01*
X77136251Y-74413441D01*
X77017081Y-74491723D01*
X76937309Y-74609901D01*
X76909273Y-74749700D01*
X76909273Y-75004299D01*
X76860400Y-75250000D01*
X76860410Y-75250052D01*
X76860401Y-75250100D01*
X76909273Y-75495798D01*
X76909273Y-75646518D01*
X76800847Y-75538084D01*
X76800836Y-75538076D01*
X76800831Y-75538069D01*
X76520000Y-75257238D01*
X76520000Y-73809900D01*
X76520000Y-73004720D01*
X76520000Y-72699920D01*
X76520000Y-71894740D01*
X76367600Y-71742340D01*
X76200623Y-71742340D01*
X75976569Y-71835146D01*
X75805086Y-72006629D01*
X75712280Y-72230683D01*
X75712280Y-72473197D01*
X75712280Y-72547520D01*
X75864680Y-72699920D01*
X76520000Y-72699920D01*
X76520000Y-73004720D01*
X75864680Y-73004720D01*
X75712280Y-73157120D01*
X75712280Y-73231443D01*
X75712280Y-73473957D01*
X75805086Y-73698011D01*
X75976569Y-73869494D01*
X76200623Y-73962300D01*
X76367600Y-73962300D01*
X76520000Y-73809900D01*
X76520000Y-75257238D01*
X76435527Y-75172765D01*
X76435527Y-74749700D01*
X76409219Y-74614111D01*
X76330937Y-74494941D01*
X76212759Y-74415169D01*
X76072960Y-74387133D01*
X75371920Y-74387133D01*
X75236331Y-74413441D01*
X75117161Y-74491723D01*
X75037389Y-74609901D01*
X75009353Y-74749700D01*
X75009353Y-75750460D01*
X75035661Y-75886049D01*
X75113943Y-76005219D01*
X75232121Y-76084991D01*
X75371920Y-76113027D01*
X75795065Y-76113027D01*
X76010369Y-76328331D01*
X76010968Y-76328731D01*
X77303453Y-77621316D01*
X77303463Y-77621323D01*
X77303469Y-77621331D01*
X77390205Y-77679286D01*
X77484737Y-77742456D01*
X77484747Y-77742457D01*
X77484756Y-77742464D01*
X77603545Y-77766092D01*
X77698578Y-77784999D01*
X77698586Y-77784997D01*
X77698600Y-77785000D01*
X78127538Y-77785000D01*
X78447907Y-78105369D01*
X78447761Y-78273652D01*
X78569313Y-78567828D01*
X78794188Y-78793096D01*
X79088152Y-78915161D01*
X79406452Y-78915439D01*
X79700628Y-78793887D01*
X79925896Y-78569012D01*
X80047961Y-78275048D01*
X80048239Y-77956748D01*
X79926687Y-77662572D01*
X79701812Y-77437304D01*
X79407848Y-77315239D01*
X79238152Y-77315090D01*
X78754131Y-76831069D01*
X78572844Y-76709936D01*
X78359000Y-76667400D01*
X77930074Y-76667400D01*
X77375745Y-76113027D01*
X77972880Y-76113027D01*
X78108469Y-76086719D01*
X78222214Y-76012000D01*
X79827100Y-76012000D01*
X79987373Y-75980119D01*
X80118675Y-75954008D01*
X80118687Y-75953999D01*
X80118705Y-75953996D01*
X80240358Y-75872709D01*
X80365893Y-75788838D01*
X80365915Y-75788815D01*
X81387117Y-74767698D01*
X81478628Y-74729887D01*
X81703896Y-74505012D01*
X81796774Y-74281336D01*
X86499800Y-78984362D01*
X86499800Y-80738583D01*
X86499800Y-80738583D01*
G37*
X86499800Y-80738583D02*
X86300048Y-80655639D01*
X85981748Y-80655361D01*
X85687572Y-80776913D01*
X85462304Y-81001788D01*
X85340239Y-81295752D01*
X85340090Y-81465447D01*
X71848838Y-94956700D01*
X67103800Y-94956700D01*
X66984912Y-94837604D01*
X66690948Y-94715539D01*
X66372648Y-94715261D01*
X66078472Y-94836813D01*
X65853204Y-95061688D01*
X65767631Y-95267769D01*
X65600700Y-95100838D01*
X65600700Y-92740400D01*
X65558164Y-92526557D01*
X65558164Y-92526556D01*
X65437031Y-92345269D01*
X58211900Y-85120138D01*
X58211900Y-84674484D01*
X58395352Y-84750661D01*
X58713652Y-84750939D01*
X58806196Y-84712700D01*
X80962400Y-84712700D01*
X80962400Y-84712699D01*
X81254004Y-84654696D01*
X81254005Y-84654696D01*
X81493910Y-84494395D01*
X81589528Y-84454887D01*
X81814796Y-84230012D01*
X81936861Y-83936048D01*
X81937139Y-83617748D01*
X81815587Y-83323572D01*
X81590712Y-83098304D01*
X81296748Y-82976239D01*
X80978448Y-82975961D01*
X80684272Y-83097513D01*
X80592925Y-83188700D01*
X74087465Y-83188700D01*
X74087465Y-73175944D01*
X73416039Y-71550968D01*
X72173871Y-70306630D01*
X70550070Y-69632369D01*
X68897870Y-69630927D01*
X68897870Y-65320263D01*
X68573733Y-64535791D01*
X67974065Y-63935076D01*
X67190161Y-63609571D01*
X66341363Y-63608830D01*
X65556891Y-63932967D01*
X64956176Y-64532635D01*
X64630671Y-65316539D01*
X64629930Y-66165337D01*
X64954067Y-66949809D01*
X65553735Y-67550524D01*
X66337639Y-67876029D01*
X67186437Y-67876770D01*
X67970909Y-67552633D01*
X68571624Y-66952965D01*
X68897129Y-66169061D01*
X68897870Y-65320263D01*
X68897870Y-69630927D01*
X68791844Y-69630835D01*
X67166868Y-70302261D01*
X65922530Y-71544429D01*
X65248269Y-73168230D01*
X65246735Y-74926456D01*
X65918161Y-76551432D01*
X67160329Y-77795770D01*
X68784130Y-78470031D01*
X70542356Y-78471565D01*
X72167332Y-77800139D01*
X73411670Y-76557971D01*
X74085931Y-74934170D01*
X74087465Y-73175944D01*
X74087465Y-83188700D01*
X58806467Y-83188700D01*
X58770639Y-83173822D01*
X63620331Y-78324132D01*
X63620331Y-78324131D01*
X63741464Y-78142844D01*
X63783999Y-77929000D01*
X63784000Y-77929000D01*
X63784000Y-62066300D01*
X63755834Y-61924699D01*
X63915652Y-61924839D01*
X64209828Y-61803287D01*
X64329924Y-61683400D01*
X69198838Y-61683400D01*
X80795973Y-73280535D01*
X80573372Y-73372513D01*
X80348104Y-73597388D01*
X80309714Y-73689839D01*
X79511487Y-74488000D01*
X78220574Y-74488000D01*
X78112679Y-74415169D01*
X77972880Y-74387133D01*
X77632520Y-74387133D01*
X77632520Y-73473957D01*
X77632520Y-73231443D01*
X77632520Y-73157120D01*
X77632520Y-72547520D01*
X77632520Y-72473197D01*
X77632520Y-72230683D01*
X77539714Y-72006629D01*
X77368231Y-71835146D01*
X77144177Y-71742340D01*
X76977200Y-71742340D01*
X76824800Y-71894740D01*
X76824800Y-72699920D01*
X77480120Y-72699920D01*
X77632520Y-72547520D01*
X77632520Y-73157120D01*
X77480120Y-73004720D01*
X76824800Y-73004720D01*
X76824800Y-73809900D01*
X76977200Y-73962300D01*
X77144177Y-73962300D01*
X77368231Y-73869494D01*
X77539714Y-73698011D01*
X77632520Y-73473957D01*
X77632520Y-74387133D01*
X77271840Y-74387133D01*
X77136251Y-74413441D01*
X77017081Y-74491723D01*
X76937309Y-74609901D01*
X76909273Y-74749700D01*
X76909273Y-75004299D01*
X76860400Y-75250000D01*
X76860410Y-75250052D01*
X76860401Y-75250100D01*
X76909273Y-75495798D01*
X76909273Y-75646518D01*
X76800847Y-75538084D01*
X76800836Y-75538076D01*
X76800831Y-75538069D01*
X76520000Y-75257238D01*
X76520000Y-73809900D01*
X76520000Y-73004720D01*
X76520000Y-72699920D01*
X76520000Y-71894740D01*
X76367600Y-71742340D01*
X76200623Y-71742340D01*
X75976569Y-71835146D01*
X75805086Y-72006629D01*
X75712280Y-72230683D01*
X75712280Y-72473197D01*
X75712280Y-72547520D01*
X75864680Y-72699920D01*
X76520000Y-72699920D01*
X76520000Y-73004720D01*
X75864680Y-73004720D01*
X75712280Y-73157120D01*
X75712280Y-73231443D01*
X75712280Y-73473957D01*
X75805086Y-73698011D01*
X75976569Y-73869494D01*
X76200623Y-73962300D01*
X76367600Y-73962300D01*
X76520000Y-73809900D01*
X76520000Y-75257238D01*
X76435527Y-75172765D01*
X76435527Y-74749700D01*
X76409219Y-74614111D01*
X76330937Y-74494941D01*
X76212759Y-74415169D01*
X76072960Y-74387133D01*
X75371920Y-74387133D01*
X75236331Y-74413441D01*
X75117161Y-74491723D01*
X75037389Y-74609901D01*
X75009353Y-74749700D01*
X75009353Y-75750460D01*
X75035661Y-75886049D01*
X75113943Y-76005219D01*
X75232121Y-76084991D01*
X75371920Y-76113027D01*
X75795065Y-76113027D01*
X76010369Y-76328331D01*
X76010968Y-76328731D01*
X77303453Y-77621316D01*
X77303463Y-77621323D01*
X77303469Y-77621331D01*
X77390205Y-77679286D01*
X77484737Y-77742456D01*
X77484747Y-77742457D01*
X77484756Y-77742464D01*
X77603545Y-77766092D01*
X77698578Y-77784999D01*
X77698586Y-77784997D01*
X77698600Y-77785000D01*
X78127538Y-77785000D01*
X78447907Y-78105369D01*
X78447761Y-78273652D01*
X78569313Y-78567828D01*
X78794188Y-78793096D01*
X79088152Y-78915161D01*
X79406452Y-78915439D01*
X79700628Y-78793887D01*
X79925896Y-78569012D01*
X80047961Y-78275048D01*
X80048239Y-77956748D01*
X79926687Y-77662572D01*
X79701812Y-77437304D01*
X79407848Y-77315239D01*
X79238152Y-77315090D01*
X78754131Y-76831069D01*
X78572844Y-76709936D01*
X78359000Y-76667400D01*
X77930074Y-76667400D01*
X77375745Y-76113027D01*
X77972880Y-76113027D01*
X78108469Y-76086719D01*
X78222214Y-76012000D01*
X79827100Y-76012000D01*
X79987373Y-75980119D01*
X80118675Y-75954008D01*
X80118687Y-75953999D01*
X80118705Y-75953996D01*
X80240358Y-75872709D01*
X80365893Y-75788838D01*
X80365915Y-75788815D01*
X81387117Y-74767698D01*
X81478628Y-74729887D01*
X81703896Y-74505012D01*
X81796774Y-74281336D01*
X86499800Y-78984362D01*
X86499800Y-80738583D01*
G36*
X135981440Y-119879743D02*
X135794042Y-120821851D01*
X135283761Y-121585541D01*
X134520072Y-122095822D01*
X133577963Y-122283220D01*
X133528516Y-122283220D01*
X133528516Y-110679897D01*
X133528516Y-73118097D01*
X133528516Y-35556497D01*
X132812714Y-33824123D01*
X131488449Y-32497544D01*
X129757327Y-31778719D01*
X127882897Y-31777084D01*
X126150523Y-32492886D01*
X124823944Y-33817151D01*
X124105119Y-35548273D01*
X124103484Y-37422703D01*
X124819286Y-39155077D01*
X126143551Y-40481656D01*
X127874673Y-41200481D01*
X129749103Y-41202116D01*
X131481477Y-40486314D01*
X132808056Y-39162049D01*
X133526881Y-37430927D01*
X133528516Y-35556497D01*
X133528516Y-73118097D01*
X132812714Y-71385723D01*
X131488449Y-70059144D01*
X129757327Y-69340319D01*
X127882897Y-69338684D01*
X126150523Y-70054486D01*
X124823944Y-71378751D01*
X124105119Y-73109873D01*
X124103484Y-74984303D01*
X124819286Y-76716677D01*
X126143551Y-78043256D01*
X127874673Y-78762081D01*
X129749103Y-78763716D01*
X131481477Y-78047914D01*
X132808056Y-76723649D01*
X133526881Y-74992527D01*
X133528516Y-73118097D01*
X133528516Y-110679897D01*
X132812714Y-108947523D01*
X131488449Y-107620944D01*
X129757327Y-106902119D01*
X127882897Y-106900484D01*
X126150523Y-107616286D01*
X124823944Y-108940551D01*
X124105119Y-110671673D01*
X124103484Y-112546103D01*
X124819286Y-114278477D01*
X126143551Y-115605056D01*
X127874673Y-116323881D01*
X129749103Y-116325516D01*
X131481477Y-115609714D01*
X132808056Y-114285449D01*
X133526881Y-112554327D01*
X133528516Y-110679897D01*
X133528516Y-122283220D01*
X122567970Y-122283220D01*
X122567970Y-119498463D01*
X122567970Y-65320263D01*
X122243833Y-64535791D01*
X121644165Y-63935076D01*
X120860261Y-63609571D01*
X120011463Y-63608830D01*
X119226991Y-63932967D01*
X118626276Y-64532635D01*
X118300771Y-65316539D01*
X118300030Y-66165337D01*
X118624167Y-66949809D01*
X119223835Y-67550524D01*
X120007739Y-67876029D01*
X120856537Y-67876770D01*
X121641009Y-67552633D01*
X122241724Y-66952965D01*
X122567229Y-66169061D01*
X122567970Y-65320263D01*
X122567970Y-119498463D01*
X122243833Y-118713991D01*
X121644165Y-118113276D01*
X120860261Y-117787771D01*
X120011463Y-117787030D01*
X119226991Y-118111167D01*
X118626276Y-118710835D01*
X118300771Y-119494739D01*
X118300030Y-120343537D01*
X118624167Y-121128009D01*
X119223835Y-121728724D01*
X120007739Y-122054229D01*
X120856537Y-122054970D01*
X121641009Y-121730833D01*
X122241724Y-121131165D01*
X122567229Y-120347261D01*
X122567970Y-119498463D01*
X122567970Y-122283220D01*
X102064820Y-122283220D01*
X102024334Y-122291273D01*
X101983058Y-122291273D01*
X101252675Y-122436555D01*
X105813830Y-117875400D01*
X107176600Y-117875400D01*
X107176600Y-117875399D01*
X107468204Y-117817396D01*
X107468205Y-117817396D01*
X107715415Y-117652215D01*
X111692803Y-113674827D01*
X111828480Y-113674827D01*
X111964069Y-113648519D01*
X112083239Y-113570237D01*
X112163011Y-113452059D01*
X112191047Y-113312260D01*
X112191047Y-113058102D01*
X112191047Y-113058101D01*
X112239999Y-112812000D01*
X112240000Y-112812000D01*
X112240000Y-112811900D01*
X112240000Y-112748630D01*
X112756141Y-112232488D01*
X112847628Y-112194687D01*
X113072896Y-111969812D01*
X113113171Y-111872817D01*
X113112635Y-112488256D01*
X113784061Y-114113232D01*
X115026229Y-115357570D01*
X116650030Y-116031831D01*
X118408256Y-116033365D01*
X120033232Y-115361939D01*
X121277570Y-114119771D01*
X121951831Y-112495970D01*
X121953365Y-110737744D01*
X121281939Y-109112768D01*
X120039771Y-107868430D01*
X118415970Y-107194169D01*
X116657744Y-107192635D01*
X115032768Y-107864061D01*
X113788430Y-109106229D01*
X113114169Y-110730030D01*
X113113793Y-111160436D01*
X113073687Y-111063372D01*
X112848812Y-110838104D01*
X112554848Y-110716039D01*
X112236548Y-110715761D01*
X111942372Y-110837313D01*
X111717104Y-111062188D01*
X111678703Y-111154666D01*
X111488120Y-111345249D01*
X111488120Y-111035757D01*
X111488120Y-110793243D01*
X111488120Y-110718920D01*
X111488120Y-110109320D01*
X111488120Y-110034997D01*
X111488120Y-109792483D01*
X111395314Y-109568429D01*
X111223831Y-109396946D01*
X110999777Y-109304140D01*
X110832800Y-109304140D01*
X110680400Y-109456540D01*
X110680400Y-110261720D01*
X111335720Y-110261720D01*
X111488120Y-110109320D01*
X111488120Y-110718920D01*
X111335720Y-110566520D01*
X110680400Y-110566520D01*
X110680400Y-111371700D01*
X110832800Y-111524100D01*
X110999777Y-111524100D01*
X111223831Y-111431294D01*
X111395314Y-111259811D01*
X111488120Y-111035757D01*
X111488120Y-111345249D01*
X110939185Y-111894185D01*
X110774004Y-112141395D01*
X110716000Y-112433000D01*
X110716000Y-112496369D01*
X110375600Y-112836769D01*
X110375600Y-111371700D01*
X110375600Y-110566520D01*
X110375600Y-110261720D01*
X110375600Y-109456540D01*
X110223200Y-109304140D01*
X110056223Y-109304140D01*
X109832169Y-109396946D01*
X109660686Y-109568429D01*
X109567880Y-109792483D01*
X109567880Y-110034997D01*
X109567880Y-110109320D01*
X109720280Y-110261720D01*
X110375600Y-110261720D01*
X110375600Y-110566520D01*
X109720280Y-110566520D01*
X109567880Y-110718920D01*
X109567880Y-110793243D01*
X109567880Y-111035757D01*
X109660686Y-111259811D01*
X109832169Y-111431294D01*
X110056223Y-111524100D01*
X110223200Y-111524100D01*
X110375600Y-111371700D01*
X110375600Y-112836769D01*
X110291127Y-112921242D01*
X110291127Y-112311500D01*
X110264819Y-112175911D01*
X110186537Y-112056741D01*
X110068359Y-111976969D01*
X109928560Y-111948933D01*
X109227520Y-111948933D01*
X109091931Y-111975241D01*
X108972761Y-112053523D01*
X108892989Y-112171701D01*
X108876644Y-112253200D01*
X107571589Y-112253200D01*
X106845091Y-111526141D01*
X106845239Y-111357548D01*
X106723687Y-111063372D01*
X106498812Y-110838104D01*
X106204848Y-110716039D01*
X105886548Y-110715761D01*
X105592372Y-110837313D01*
X105367104Y-111062188D01*
X105245039Y-111356152D01*
X105244761Y-111674452D01*
X105366313Y-111968628D01*
X105591188Y-112193896D01*
X105885152Y-112315961D01*
X106054533Y-112316108D01*
X106944716Y-113206979D01*
X106944808Y-113207041D01*
X106944869Y-113207131D01*
X107034854Y-113267258D01*
X107125958Y-113328182D01*
X107126065Y-113328203D01*
X107126156Y-113328264D01*
X107232434Y-113349404D01*
X107339784Y-113370800D01*
X107339892Y-113370778D01*
X107340000Y-113370800D01*
X108876311Y-113370800D01*
X108891261Y-113447849D01*
X108969543Y-113567019D01*
X109087721Y-113646791D01*
X109227520Y-113674827D01*
X109537542Y-113674827D01*
X106860969Y-116351400D01*
X105498200Y-116351400D01*
X105206595Y-116409404D01*
X104959384Y-116574585D01*
X97093369Y-124440600D01*
X95028230Y-124440600D01*
X81742488Y-111154858D01*
X81704687Y-111063372D01*
X81479812Y-110838104D01*
X81185848Y-110716039D01*
X80867548Y-110715761D01*
X80573372Y-110837313D01*
X80348104Y-111062188D01*
X80309645Y-111154805D01*
X79414865Y-112050000D01*
X78220870Y-112050000D01*
X78112679Y-111976969D01*
X77972880Y-111948933D01*
X77632520Y-111948933D01*
X77632520Y-111035757D01*
X77632520Y-110793243D01*
X77632520Y-110718920D01*
X77480120Y-110566520D01*
X76824800Y-110566520D01*
X76824800Y-111371700D01*
X76977200Y-111524100D01*
X77144177Y-111524100D01*
X77368231Y-111431294D01*
X77539714Y-111259811D01*
X77632520Y-111035757D01*
X77632520Y-111948933D01*
X77271840Y-111948933D01*
X77136251Y-111975241D01*
X77017081Y-112053523D01*
X76937309Y-112171701D01*
X76909273Y-112311500D01*
X76909273Y-112566201D01*
X76860401Y-112811900D01*
X76909273Y-113057598D01*
X76909273Y-113312260D01*
X76935581Y-113447849D01*
X77013863Y-113567019D01*
X77132041Y-113646791D01*
X77271840Y-113674827D01*
X77972880Y-113674827D01*
X78108469Y-113648519D01*
X78221910Y-113574000D01*
X79730600Y-113574000D01*
X79730690Y-113573982D01*
X79730776Y-113573999D01*
X79874944Y-113545287D01*
X80022205Y-113515996D01*
X80022279Y-113515946D01*
X80022367Y-113515929D01*
X80147114Y-113432533D01*
X80269415Y-113350815D01*
X80269463Y-113350741D01*
X80269540Y-113350691D01*
X81026124Y-112593755D01*
X94173784Y-125741415D01*
X94173785Y-125741415D01*
X94420995Y-125906596D01*
X94712600Y-125964600D01*
X96647000Y-125964600D01*
X96647000Y-141109732D01*
X96609039Y-141201152D01*
X96608761Y-141519452D01*
X96647000Y-141611996D01*
X96647000Y-144855369D01*
X95823369Y-145679000D01*
X95784885Y-145679000D01*
X95815054Y-145648831D01*
X95907860Y-145424777D01*
X95907860Y-145257800D01*
X95907860Y-144648200D01*
X95907860Y-144481223D01*
X95815054Y-144257169D01*
X95643571Y-144085686D01*
X95419517Y-143992880D01*
X95177003Y-143992880D01*
X95102680Y-143992880D01*
X94950280Y-144145280D01*
X94950280Y-144800600D01*
X95755460Y-144800600D01*
X95907860Y-144648200D01*
X95907860Y-145257800D01*
X95755460Y-145105400D01*
X94950280Y-145105400D01*
X94950280Y-145125400D01*
X94645480Y-145125400D01*
X94645480Y-145105400D01*
X94645480Y-144800600D01*
X94645480Y-144145280D01*
X94493080Y-143992880D01*
X94418757Y-143992880D01*
X94176243Y-143992880D01*
X93952189Y-144085686D01*
X93780706Y-144257169D01*
X93687900Y-144481223D01*
X93687900Y-144648200D01*
X93840300Y-144800600D01*
X94645480Y-144800600D01*
X94645480Y-145105400D01*
X93840300Y-145105400D01*
X93687900Y-145257800D01*
X93687900Y-145424777D01*
X93780706Y-145648831D01*
X93810875Y-145679000D01*
X93390384Y-145679000D01*
X93390384Y-141779910D01*
X92329000Y-140718526D01*
X92314857Y-140732668D01*
X92099331Y-140517142D01*
X92113474Y-140503000D01*
X92099331Y-140488857D01*
X92314857Y-140273331D01*
X92329000Y-140287474D01*
X93390384Y-139226090D01*
X93267491Y-138952001D01*
X92602510Y-138710918D01*
X91895890Y-138742665D01*
X91390509Y-138952001D01*
X91267616Y-139226087D01*
X91259000Y-139217471D01*
X91259000Y-132886462D01*
X91484969Y-132660492D01*
X91653252Y-132660639D01*
X91947428Y-132539087D01*
X92172696Y-132314212D01*
X92294761Y-132020248D01*
X92295039Y-131701948D01*
X92173487Y-131407772D01*
X91948612Y-131182504D01*
X91654648Y-131060439D01*
X91336348Y-131060161D01*
X91042172Y-131181713D01*
X90816904Y-131406588D01*
X90694839Y-131700552D01*
X90694690Y-131870247D01*
X90305069Y-132259869D01*
X90183936Y-132441156D01*
X90141400Y-132655000D01*
X90141400Y-141495100D01*
X90183936Y-141708944D01*
X90305069Y-141890231D01*
X91744202Y-143329365D01*
X91644981Y-143394543D01*
X91565209Y-143512721D01*
X91537173Y-143652520D01*
X91537173Y-144353560D01*
X91563481Y-144489149D01*
X91641763Y-144608319D01*
X91759941Y-144688091D01*
X91899740Y-144716127D01*
X92900500Y-144716127D01*
X93036089Y-144689819D01*
X93155259Y-144611537D01*
X93235031Y-144493359D01*
X93263067Y-144353560D01*
X93263067Y-143652520D01*
X93236759Y-143516931D01*
X93158477Y-143397761D01*
X93040299Y-143317989D01*
X92958900Y-143301664D01*
X92958900Y-143195000D01*
X92916365Y-142981157D01*
X92916364Y-142981156D01*
X92795232Y-142799869D01*
X92280342Y-142284979D01*
X92762110Y-142263335D01*
X93267491Y-142053999D01*
X93390384Y-141779910D01*
X93390384Y-145679000D01*
X93279547Y-145679000D01*
X93263067Y-145662525D01*
X93263067Y-145552440D01*
X93236759Y-145416851D01*
X93158477Y-145297681D01*
X93040299Y-145217909D01*
X92900500Y-145189873D01*
X92671595Y-145189873D01*
X92574788Y-145170635D01*
X92425800Y-145141000D01*
X92400100Y-145141000D01*
X92154399Y-145189873D01*
X91899740Y-145189873D01*
X91764151Y-145216181D01*
X91644981Y-145294463D01*
X91565209Y-145412641D01*
X91537173Y-145552440D01*
X91537173Y-146253480D01*
X91563481Y-146389069D01*
X91641763Y-146508239D01*
X91759941Y-146588011D01*
X91899740Y-146616047D01*
X92061281Y-146616047D01*
X92425185Y-146979815D01*
X92425285Y-146979915D01*
X92548257Y-147062049D01*
X92672395Y-147144996D01*
X92672466Y-147145010D01*
X92672526Y-147145050D01*
X92815508Y-147173463D01*
X92964000Y-147203000D01*
X96139000Y-147203000D01*
X96139000Y-147202999D01*
X96430604Y-147144996D01*
X96430605Y-147144996D01*
X96677815Y-146979815D01*
X97947815Y-145709816D01*
X97947815Y-145709815D01*
X98112996Y-145462605D01*
X98170999Y-145171000D01*
X98171000Y-145171000D01*
X98171000Y-141612267D01*
X98208961Y-141520848D01*
X98209239Y-141202548D01*
X98171000Y-141110003D01*
X98171000Y-125518230D01*
X99017755Y-124671474D01*
X98872473Y-125401858D01*
X98872473Y-125443134D01*
X98864420Y-125483620D01*
X98864420Y-151916763D01*
X98456028Y-153969886D01*
X98019365Y-154623398D01*
X98019365Y-151082744D01*
X97347939Y-149457768D01*
X96105771Y-148213430D01*
X94481970Y-147539169D01*
X92723744Y-147537635D01*
X91098768Y-148209061D01*
X89854430Y-149451229D01*
X89180169Y-151075030D01*
X89178635Y-152833256D01*
X89850061Y-154458232D01*
X91092229Y-155702570D01*
X92716030Y-156376831D01*
X94474256Y-156378365D01*
X96099232Y-155706939D01*
X97343570Y-154464771D01*
X98017831Y-152840970D01*
X98019365Y-151082744D01*
X98019365Y-154623398D01*
X97316408Y-155675448D01*
X95610847Y-156815068D01*
X93599000Y-157215249D01*
X91587153Y-156815068D01*
X89881591Y-155675448D01*
X88741971Y-153969887D01*
X88336120Y-151929532D01*
X88336120Y-125483620D01*
X88328067Y-125443134D01*
X88328067Y-125401858D01*
X88198834Y-124752164D01*
X94107000Y-130660330D01*
X94107000Y-139223846D01*
X94035589Y-139253353D01*
X93772274Y-139516208D01*
X93605910Y-139441616D01*
X93390384Y-139657142D01*
X92544526Y-140503000D01*
X93605910Y-141564384D01*
X93772406Y-141489732D01*
X94033409Y-141751190D01*
X94574677Y-141975944D01*
X95160752Y-141976455D01*
X95702411Y-141752647D01*
X96117190Y-141338591D01*
X96341944Y-140797323D01*
X96342455Y-140211248D01*
X96118647Y-139669589D01*
X95704591Y-139254810D01*
X95631000Y-139224252D01*
X95631000Y-130344700D01*
X95572996Y-130053095D01*
X95407815Y-129805885D01*
X86443415Y-120841485D01*
X86196205Y-120676304D01*
X85904600Y-120618300D01*
X82750430Y-120618300D01*
X77127930Y-114995800D01*
X80707299Y-114995800D01*
X80826188Y-115114896D01*
X81120152Y-115236961D01*
X81438452Y-115237239D01*
X81732628Y-115115687D01*
X81957896Y-114890812D01*
X82079961Y-114596848D01*
X82080239Y-114278548D01*
X81958687Y-113984372D01*
X81733812Y-113759104D01*
X81439848Y-113637039D01*
X81121548Y-113636761D01*
X80827372Y-113758313D01*
X80707275Y-113878200D01*
X77066388Y-113878200D01*
X76520000Y-113332057D01*
X76435527Y-113247622D01*
X76435527Y-112311500D01*
X76409219Y-112175911D01*
X76330937Y-112056741D01*
X76212759Y-111976969D01*
X76072960Y-111948933D01*
X75434600Y-111948933D01*
X75434600Y-110900930D01*
X75769008Y-110566522D01*
X75864678Y-110566522D01*
X75712280Y-110718920D01*
X75712280Y-110793243D01*
X75712280Y-111035757D01*
X75805086Y-111259811D01*
X75976569Y-111431294D01*
X76200623Y-111524100D01*
X76367600Y-111524100D01*
X76520000Y-111371700D01*
X76520000Y-110566520D01*
X76500000Y-110566520D01*
X76500000Y-110261720D01*
X76520000Y-110261720D01*
X76520000Y-110241720D01*
X76824800Y-110241720D01*
X76824800Y-110261720D01*
X77480120Y-110261720D01*
X77632520Y-110109320D01*
X77632520Y-110034997D01*
X77632520Y-109792483D01*
X77539714Y-109568429D01*
X77368231Y-109396946D01*
X77144177Y-109304140D01*
X77031390Y-109304140D01*
X83049730Y-103285800D01*
X87534132Y-103285800D01*
X87625552Y-103323761D01*
X87943852Y-103324039D01*
X88238028Y-103202487D01*
X88463296Y-102977612D01*
X88555763Y-102754925D01*
X89865500Y-104064662D01*
X89865500Y-106816299D01*
X89746404Y-106935188D01*
X89624339Y-107229152D01*
X89624061Y-107547452D01*
X89745613Y-107841628D01*
X89970488Y-108066896D01*
X90264452Y-108188961D01*
X90582752Y-108189239D01*
X90876928Y-108067687D01*
X91102196Y-107842812D01*
X91224261Y-107548848D01*
X91224539Y-107230548D01*
X91102987Y-106936372D01*
X90983100Y-106816275D01*
X90983100Y-103833200D01*
X90940564Y-103619357D01*
X90940564Y-103619356D01*
X90819431Y-103438069D01*
X88568131Y-101186769D01*
X88386844Y-101065636D01*
X88173000Y-101023100D01*
X65459162Y-101023100D01*
X65205862Y-100769800D01*
X89074838Y-100769800D01*
X94023907Y-105718869D01*
X94023761Y-105887152D01*
X94145313Y-106181328D01*
X94370188Y-106406596D01*
X94664152Y-106528661D01*
X94982452Y-106528939D01*
X95276628Y-106407387D01*
X95501896Y-106182512D01*
X95623961Y-105888548D01*
X95624239Y-105570248D01*
X95502687Y-105276072D01*
X95277812Y-105050804D01*
X94983848Y-104928739D01*
X94814152Y-104928590D01*
X89701431Y-99815869D01*
X89520144Y-99694736D01*
X89306300Y-99652200D01*
X65939930Y-99652200D01*
X65993624Y-99598600D01*
X93479200Y-99598600D01*
X93693043Y-99556064D01*
X93693044Y-99556064D01*
X93874331Y-99434931D01*
X97122369Y-96186892D01*
X97290652Y-96187039D01*
X97584828Y-96065487D01*
X97810096Y-95840612D01*
X97932161Y-95546648D01*
X97932439Y-95228348D01*
X97848581Y-95025400D01*
X104680000Y-95025400D01*
X108538837Y-95025400D01*
X120601207Y-107087770D01*
X120601061Y-107256052D01*
X120722613Y-107550228D01*
X120947488Y-107775496D01*
X121241452Y-107897561D01*
X121559752Y-107897839D01*
X121853928Y-107776287D01*
X122079196Y-107551412D01*
X122201261Y-107257448D01*
X122201539Y-106939148D01*
X122079987Y-106644972D01*
X121855112Y-106419704D01*
X121561148Y-106297639D01*
X121391453Y-106297490D01*
X113542871Y-98448909D01*
X113576952Y-98448939D01*
X113871128Y-98327387D01*
X114096396Y-98102512D01*
X114218461Y-97808548D01*
X114218739Y-97490248D01*
X114180500Y-97397703D01*
X114180500Y-84204400D01*
X114122496Y-83912795D01*
X113957315Y-83665585D01*
X113957315Y-83665584D01*
X111798239Y-81506508D01*
X111798239Y-77956748D01*
X111676687Y-77662572D01*
X111451812Y-77437304D01*
X111157848Y-77315239D01*
X110988153Y-77315090D01*
X110375600Y-76702537D01*
X110375600Y-73809900D01*
X110375600Y-73004720D01*
X110375600Y-72699920D01*
X110375600Y-71894740D01*
X110223200Y-71742340D01*
X110056223Y-71742340D01*
X109832169Y-71835146D01*
X109660686Y-72006629D01*
X109567880Y-72230683D01*
X109567880Y-72473197D01*
X109567880Y-72547520D01*
X109720280Y-72699920D01*
X110375600Y-72699920D01*
X110375600Y-73004720D01*
X109720280Y-73004720D01*
X109567880Y-73157120D01*
X109567880Y-73231443D01*
X109567880Y-73473957D01*
X109660686Y-73698011D01*
X109832169Y-73869494D01*
X110056223Y-73962300D01*
X110223200Y-73962300D01*
X110375600Y-73809900D01*
X110375600Y-76702537D01*
X110159800Y-76486737D01*
X110159800Y-76023886D01*
X110183319Y-76008437D01*
X110263091Y-75890259D01*
X110291127Y-75750460D01*
X110291127Y-74749700D01*
X110264819Y-74614111D01*
X110186537Y-74494941D01*
X110068359Y-74415169D01*
X109928560Y-74387133D01*
X109227520Y-74387133D01*
X109091931Y-74413441D01*
X108972761Y-74491723D01*
X108892989Y-74609901D01*
X108864953Y-74749700D01*
X108864953Y-75750460D01*
X108891261Y-75886049D01*
X108969543Y-76005219D01*
X109042200Y-76054263D01*
X109042200Y-76718200D01*
X109084736Y-76932044D01*
X109205869Y-77113331D01*
X110197907Y-78105370D01*
X110197761Y-78273652D01*
X110319313Y-78567828D01*
X110544188Y-78793096D01*
X110838152Y-78915161D01*
X111156452Y-78915439D01*
X111450628Y-78793887D01*
X111675896Y-78569012D01*
X111797961Y-78275048D01*
X111798239Y-77956748D01*
X111798239Y-81506508D01*
X101747088Y-71455358D01*
X101709287Y-71363872D01*
X101484412Y-71138604D01*
X101190448Y-71016539D01*
X100872148Y-71016261D01*
X100577972Y-71137813D01*
X100352704Y-71362688D01*
X100235500Y-71644945D01*
X100235500Y-67159500D01*
X100354596Y-67040612D01*
X100476661Y-66746648D01*
X100476939Y-66428348D01*
X100355387Y-66134172D01*
X100130512Y-65908904D01*
X99836548Y-65786839D01*
X99518248Y-65786561D01*
X99224072Y-65908113D01*
X98998804Y-66132988D01*
X98876739Y-66426952D01*
X98876461Y-66745252D01*
X98998013Y-67039428D01*
X99117900Y-67159524D01*
X99117900Y-86377200D01*
X99160436Y-86591044D01*
X99281569Y-86772331D01*
X104121200Y-91611962D01*
X104121200Y-91735920D01*
X103912448Y-91649239D01*
X103594148Y-91648961D01*
X103299972Y-91770513D01*
X103179875Y-91890400D01*
X103143362Y-91890400D01*
X78555277Y-67302314D01*
X78757428Y-67218787D01*
X78877524Y-67098900D01*
X82315000Y-67098900D01*
X82528843Y-67056364D01*
X82528844Y-67056364D01*
X82710131Y-66935231D01*
X87494069Y-62151292D01*
X87662352Y-62151439D01*
X87956528Y-62029887D01*
X88181796Y-61805012D01*
X88303861Y-61511048D01*
X88304139Y-61192748D01*
X88182587Y-60898572D01*
X87957712Y-60673304D01*
X87663748Y-60551239D01*
X87345448Y-60550961D01*
X87051272Y-60672513D01*
X86826004Y-60897388D01*
X86703939Y-61191352D01*
X86703790Y-61361047D01*
X82083538Y-65981300D01*
X78877500Y-65981300D01*
X78758612Y-65862204D01*
X78464648Y-65740139D01*
X78146348Y-65739861D01*
X77852172Y-65861413D01*
X77626904Y-66086288D01*
X77542504Y-66289542D01*
X70082000Y-58829037D01*
X70082000Y-58820000D01*
X70039464Y-58606157D01*
X70039464Y-58606156D01*
X69918331Y-58424869D01*
X65376131Y-53882669D01*
X65194844Y-53761536D01*
X65095420Y-53741759D01*
X65095419Y-53741759D01*
X65090090Y-53736420D01*
X65154924Y-53671700D01*
X103530837Y-53671700D01*
X107056707Y-57197570D01*
X107056561Y-57365852D01*
X107178113Y-57660028D01*
X107402988Y-57885296D01*
X107696952Y-58007361D01*
X108015252Y-58007639D01*
X108309428Y-57886087D01*
X108534696Y-57661212D01*
X108623056Y-57448418D01*
X111891407Y-60716769D01*
X111891261Y-60885052D01*
X112012813Y-61179228D01*
X112237688Y-61404496D01*
X112531652Y-61526561D01*
X112849952Y-61526839D01*
X113144128Y-61405287D01*
X113369396Y-61180412D01*
X113491461Y-60886448D01*
X113491739Y-60568148D01*
X113370187Y-60273972D01*
X113145312Y-60048704D01*
X112851348Y-59926639D01*
X112681652Y-59926490D01*
X111798239Y-59043077D01*
X111798239Y-40237748D01*
X111676687Y-39943572D01*
X111451812Y-39718304D01*
X111157848Y-39596239D01*
X110988124Y-39596090D01*
X110375600Y-38983609D01*
X110375600Y-36248300D01*
X110375600Y-35443120D01*
X109720280Y-35443120D01*
X109567880Y-35595520D01*
X109567880Y-35669843D01*
X109567880Y-35912357D01*
X109660686Y-36136411D01*
X109832169Y-36307894D01*
X110056223Y-36400700D01*
X110223200Y-36400700D01*
X110375600Y-36248300D01*
X110375600Y-38983609D01*
X110136800Y-38744826D01*
X110136800Y-38477395D01*
X110183319Y-38446837D01*
X110263091Y-38328659D01*
X110291127Y-38188860D01*
X110291127Y-37188100D01*
X110264819Y-37052511D01*
X110186537Y-36933341D01*
X110068359Y-36853569D01*
X109928560Y-36825533D01*
X109227520Y-36825533D01*
X109091931Y-36851841D01*
X108972761Y-36930123D01*
X108892989Y-37048301D01*
X108864953Y-37188100D01*
X108864953Y-38188860D01*
X108891261Y-38324449D01*
X108969543Y-38443619D01*
X109019200Y-38477138D01*
X109019200Y-38976300D01*
X109019201Y-38976309D01*
X109019200Y-38976320D01*
X109041478Y-39088303D01*
X109061736Y-39190144D01*
X109061741Y-39190151D01*
X109061743Y-39190161D01*
X109120387Y-39277920D01*
X109182869Y-39371431D01*
X109182877Y-39371436D01*
X109182883Y-39371445D01*
X110197907Y-40386399D01*
X110197761Y-40554652D01*
X110319313Y-40848828D01*
X110544188Y-41074096D01*
X110838152Y-41196161D01*
X111156452Y-41196439D01*
X111450628Y-41074887D01*
X111675896Y-40850012D01*
X111797961Y-40556048D01*
X111798239Y-40237748D01*
X111798239Y-59043077D01*
X101043831Y-48288669D01*
X100862544Y-48167536D01*
X100648700Y-48125000D01*
X100495101Y-48125000D01*
X100495239Y-47967948D01*
X100373687Y-47673772D01*
X100148812Y-47448504D01*
X99854848Y-47326439D01*
X99536548Y-47326161D01*
X99242372Y-47447713D01*
X99017104Y-47672588D01*
X98895039Y-47966552D01*
X98894900Y-48125000D01*
X67735700Y-48125000D01*
X67521856Y-48167536D01*
X67340569Y-48288669D01*
X52808000Y-62821238D01*
X52808000Y-62659062D01*
X75180331Y-40286731D01*
X75301464Y-40105444D01*
X75301464Y-40105443D01*
X75344000Y-39891600D01*
X75344000Y-38545827D01*
X75371920Y-38551427D01*
X75795065Y-38551427D01*
X76010469Y-38766831D01*
X76010767Y-38767030D01*
X77272953Y-40029316D01*
X77272963Y-40029323D01*
X77272969Y-40029331D01*
X77353711Y-40083282D01*
X77454236Y-40150456D01*
X77454247Y-40150458D01*
X77454256Y-40150464D01*
X77556646Y-40170830D01*
X77668078Y-40193000D01*
X77668089Y-40192997D01*
X77668100Y-40193000D01*
X78254538Y-40193000D01*
X78447907Y-40386369D01*
X78447761Y-40554652D01*
X78569313Y-40848828D01*
X78794188Y-41074096D01*
X79088152Y-41196161D01*
X79406452Y-41196439D01*
X79700628Y-41074887D01*
X79925896Y-40850012D01*
X80047961Y-40556048D01*
X80048239Y-40237748D01*
X79926687Y-39943572D01*
X79701812Y-39718304D01*
X79407848Y-39596239D01*
X79238152Y-39596090D01*
X78881131Y-39239069D01*
X78699844Y-39117936D01*
X78486000Y-39075400D01*
X77899575Y-39075400D01*
X77375644Y-38551427D01*
X77972880Y-38551427D01*
X78108469Y-38525119D01*
X78222062Y-38450500D01*
X79923600Y-38450500D01*
X80082625Y-38418867D01*
X80215173Y-38392509D01*
X80215187Y-38392499D01*
X80215205Y-38392496D01*
X80334635Y-38312694D01*
X80462391Y-38227340D01*
X80462415Y-38227315D01*
X81387115Y-37302699D01*
X81478628Y-37264887D01*
X81703896Y-37040012D01*
X81742296Y-36947533D01*
X83840830Y-34849000D01*
X109567880Y-34849000D01*
X109567880Y-34911597D01*
X109567880Y-34985920D01*
X109720280Y-35138320D01*
X110375600Y-35138320D01*
X110375600Y-35118320D01*
X110680400Y-35118320D01*
X110680400Y-35138320D01*
X110700400Y-35138320D01*
X110700400Y-35443120D01*
X110680400Y-35443120D01*
X110680400Y-36248300D01*
X110832800Y-36400700D01*
X110999777Y-36400700D01*
X111223831Y-36307894D01*
X111395314Y-36136411D01*
X111488120Y-35912357D01*
X111488120Y-35669843D01*
X111488120Y-35595520D01*
X111335722Y-35443122D01*
X111435092Y-35443122D01*
X111633000Y-35641030D01*
X111633000Y-36270544D01*
X111488120Y-36415408D01*
X111066035Y-36837447D01*
X110991851Y-36851841D01*
X110872681Y-36930123D01*
X110792909Y-37048301D01*
X110764873Y-37188100D01*
X110764873Y-37257399D01*
X110743014Y-37367290D01*
X110716001Y-37503058D01*
X110716004Y-37503076D01*
X110716000Y-37503100D01*
X110716000Y-37688500D01*
X110764873Y-37934200D01*
X110764873Y-38188860D01*
X110791181Y-38324449D01*
X110869463Y-38443619D01*
X110987641Y-38523391D01*
X111127440Y-38551427D01*
X111727200Y-38551427D01*
X111727200Y-38699700D01*
X111785204Y-38991305D01*
X111950385Y-39238515D01*
X113836700Y-41124830D01*
X113836700Y-69988069D01*
X111856185Y-71968585D01*
X111691004Y-72215795D01*
X111633000Y-72507400D01*
X111633000Y-73735544D01*
X111488120Y-73880408D01*
X111488120Y-73473957D01*
X111488120Y-73231443D01*
X111488120Y-73157120D01*
X111488120Y-72547520D01*
X111488120Y-72473197D01*
X111488120Y-72230683D01*
X111395314Y-72006629D01*
X111223831Y-71835146D01*
X110999777Y-71742340D01*
X110832800Y-71742340D01*
X110680400Y-71894740D01*
X110680400Y-72699920D01*
X111335720Y-72699920D01*
X111488120Y-72547520D01*
X111488120Y-73157120D01*
X111335720Y-73004720D01*
X110680400Y-73004720D01*
X110680400Y-73809900D01*
X110832800Y-73962300D01*
X110999777Y-73962300D01*
X111223831Y-73869494D01*
X111395314Y-73698011D01*
X111488120Y-73473957D01*
X111488120Y-73880408D01*
X110939214Y-74429255D01*
X110939201Y-74429274D01*
X110939185Y-74429285D01*
X110916853Y-74462706D01*
X110872681Y-74491723D01*
X110792909Y-74609901D01*
X110781937Y-74664608D01*
X110774020Y-74676457D01*
X110774016Y-74676477D01*
X110774004Y-74676495D01*
X110743014Y-74832290D01*
X110716001Y-74968058D01*
X110716004Y-74968076D01*
X110716000Y-74968100D01*
X110716000Y-75250100D01*
X110764873Y-75495800D01*
X110764873Y-75750460D01*
X110791181Y-75886049D01*
X110869463Y-76005219D01*
X110987641Y-76084991D01*
X111127440Y-76113027D01*
X111828480Y-76113027D01*
X111964069Y-76086719D01*
X112083239Y-76008437D01*
X112163011Y-75890259D01*
X112191047Y-75750460D01*
X112191047Y-75496202D01*
X112231643Y-75292110D01*
X112756109Y-74767701D01*
X112847628Y-74729887D01*
X113072896Y-74505012D01*
X113113087Y-74408221D01*
X113112635Y-74926456D01*
X113784061Y-76551432D01*
X115026229Y-77795770D01*
X116650030Y-78470031D01*
X118408256Y-78471565D01*
X120033232Y-77800139D01*
X121277570Y-76557971D01*
X121951831Y-74934170D01*
X121953365Y-73175944D01*
X121281939Y-71550968D01*
X120039771Y-70306630D01*
X118415970Y-69632369D01*
X116657744Y-69630835D01*
X115360700Y-70166762D01*
X115360700Y-40809200D01*
X115302697Y-40517596D01*
X115302696Y-40517595D01*
X115146759Y-40284218D01*
X116650030Y-40908431D01*
X118408256Y-40909965D01*
X120033232Y-40238539D01*
X121277570Y-38996371D01*
X121951831Y-37372570D01*
X121953365Y-35614344D01*
X121281939Y-33989368D01*
X120039771Y-32745030D01*
X118415970Y-32070769D01*
X116657744Y-32069235D01*
X115032768Y-32740661D01*
X113788430Y-33982829D01*
X113157000Y-35503481D01*
X113157000Y-35325400D01*
X113098996Y-35033795D01*
X112933815Y-34786585D01*
X111695415Y-33548185D01*
X111448205Y-33383004D01*
X111156600Y-33325000D01*
X83525200Y-33325000D01*
X83233596Y-33383003D01*
X82986385Y-33548184D01*
X80664858Y-35869711D01*
X80573372Y-35907513D01*
X80348104Y-36132388D01*
X80309715Y-36224837D01*
X79607989Y-36926500D01*
X78220722Y-36926500D01*
X78112679Y-36853569D01*
X77972880Y-36825533D01*
X77632520Y-36825533D01*
X77632520Y-35912357D01*
X77632520Y-35669843D01*
X77632520Y-35595520D01*
X77480120Y-35443120D01*
X76824800Y-35443120D01*
X76824800Y-36248300D01*
X76977200Y-36400700D01*
X77144177Y-36400700D01*
X77368231Y-36307894D01*
X77539714Y-36136411D01*
X77632520Y-35912357D01*
X77632520Y-36825533D01*
X77271840Y-36825533D01*
X77136251Y-36851841D01*
X77017081Y-36930123D01*
X76937309Y-37048301D01*
X76909273Y-37188100D01*
X76909273Y-37442799D01*
X76860400Y-37688500D01*
X76909273Y-37934200D01*
X76909273Y-38085018D01*
X76800847Y-37976584D01*
X76800836Y-37976576D01*
X76800831Y-37976569D01*
X76520000Y-37695738D01*
X76435527Y-37611265D01*
X76435527Y-37188100D01*
X76409219Y-37052511D01*
X76330937Y-36933341D01*
X76212759Y-36853569D01*
X76072960Y-36825533D01*
X75371920Y-36825533D01*
X75344000Y-36830950D01*
X75344000Y-35904262D01*
X75805140Y-35443122D01*
X75864678Y-35443122D01*
X75712280Y-35595520D01*
X75712280Y-35669843D01*
X75712280Y-35912357D01*
X75805086Y-36136411D01*
X75976569Y-36307894D01*
X76200623Y-36400700D01*
X76367600Y-36400700D01*
X76520000Y-36248300D01*
X76520000Y-35443120D01*
X76500000Y-35443120D01*
X76500000Y-35138320D01*
X76520000Y-35138320D01*
X76520000Y-35118320D01*
X76824800Y-35118320D01*
X76824800Y-35138320D01*
X77480120Y-35138320D01*
X77632520Y-34985920D01*
X77632520Y-34911597D01*
X77632520Y-34669083D01*
X77539714Y-34445029D01*
X77368231Y-34273546D01*
X77144177Y-34180740D01*
X77067522Y-34180740D01*
X80674262Y-30574000D01*
X99717800Y-30574000D01*
X118317838Y-30574000D01*
X120905469Y-33161631D01*
X121086756Y-33282764D01*
X121086757Y-33282764D01*
X121300600Y-33325300D01*
X121525799Y-33325300D01*
X121644688Y-33444396D01*
X121938652Y-33566461D01*
X122256952Y-33566739D01*
X122551128Y-33445187D01*
X122776396Y-33220312D01*
X122898461Y-32926348D01*
X122898739Y-32608048D01*
X122777187Y-32313872D01*
X122552312Y-32088604D01*
X122258348Y-31966539D01*
X121940048Y-31966261D01*
X121645872Y-32087813D01*
X121528921Y-32204559D01*
X119376975Y-30052613D01*
X120007739Y-30314529D01*
X120856537Y-30315270D01*
X121641009Y-29991133D01*
X122241724Y-29391465D01*
X122567229Y-28607561D01*
X122567970Y-27758763D01*
X122243833Y-26974291D01*
X121644165Y-26373576D01*
X120860261Y-26048071D01*
X120011463Y-26047330D01*
X119226991Y-26371467D01*
X118626276Y-26971135D01*
X118300771Y-27755039D01*
X118300030Y-28603837D01*
X118624167Y-29388309D01*
X118727529Y-29491851D01*
X118549300Y-29456400D01*
X100488351Y-29456400D01*
X100396487Y-29234072D01*
X100171612Y-29008804D01*
X99877648Y-28886739D01*
X99559348Y-28886461D01*
X99265172Y-29008013D01*
X99039904Y-29232888D01*
X98947093Y-29456400D01*
X80442800Y-29456400D01*
X80228957Y-29498935D01*
X80047669Y-29620068D01*
X74390069Y-35277669D01*
X74268936Y-35458956D01*
X74226400Y-35672800D01*
X74226400Y-39660138D01*
X74087465Y-39799073D01*
X74087465Y-35614344D01*
X73416039Y-33989368D01*
X72173871Y-32745030D01*
X70550070Y-32070769D01*
X68897870Y-32069327D01*
X68897870Y-27758763D01*
X68573733Y-26974291D01*
X67974065Y-26373576D01*
X67190161Y-26048071D01*
X66341363Y-26047330D01*
X65556891Y-26371467D01*
X64956176Y-26971135D01*
X64630671Y-27755039D01*
X64629930Y-28603837D01*
X64954067Y-29388309D01*
X65553735Y-29989024D01*
X66337639Y-30314529D01*
X67186437Y-30315270D01*
X67970909Y-29991133D01*
X68571624Y-29391465D01*
X68897129Y-28607561D01*
X68897870Y-27758763D01*
X68897870Y-32069327D01*
X68791844Y-32069235D01*
X67166868Y-32740661D01*
X65922530Y-33982829D01*
X65248269Y-35606630D01*
X65246735Y-37364856D01*
X65918161Y-38989832D01*
X67160329Y-40234170D01*
X68784130Y-40908431D01*
X70542356Y-40909965D01*
X72167332Y-40238539D01*
X73411670Y-38996371D01*
X74085931Y-37372570D01*
X74087465Y-35614344D01*
X74087465Y-39799073D01*
X63096916Y-50789622D01*
X63096916Y-35556497D01*
X62381114Y-33824123D01*
X61056849Y-32497544D01*
X59325727Y-31778719D01*
X57451297Y-31777084D01*
X55718923Y-32492886D01*
X54392344Y-33817151D01*
X53673519Y-35548273D01*
X53671884Y-37422703D01*
X54387686Y-39155077D01*
X55711951Y-40481656D01*
X57443073Y-41200481D01*
X59317503Y-41202116D01*
X61049877Y-40486314D01*
X62376456Y-39162049D01*
X63095281Y-37430927D01*
X63096916Y-35556497D01*
X63096916Y-50789622D01*
X51854069Y-62032469D01*
X51732936Y-62213756D01*
X51690400Y-62427600D01*
X51690400Y-83922300D01*
X51732936Y-84136144D01*
X51854069Y-84317431D01*
X56767207Y-89230569D01*
X56767061Y-89398852D01*
X56888613Y-89693028D01*
X57113488Y-89918296D01*
X57298159Y-89994978D01*
X56291169Y-91001969D01*
X56170036Y-91183256D01*
X56127500Y-91397100D01*
X56127500Y-96338499D01*
X56008404Y-96457388D01*
X55886339Y-96751352D01*
X55886061Y-97069652D01*
X56007613Y-97363828D01*
X56232488Y-97589096D01*
X56526452Y-97711161D01*
X56844752Y-97711439D01*
X57138928Y-97589887D01*
X57364196Y-97365012D01*
X57486261Y-97071048D01*
X57486539Y-96752748D01*
X57364987Y-96458572D01*
X57245100Y-96338475D01*
X57245100Y-91628562D01*
X58571200Y-90302462D01*
X58571200Y-92734038D01*
X57985369Y-93319869D01*
X57864236Y-93501156D01*
X57821700Y-93715000D01*
X57821700Y-94734700D01*
X57864236Y-94948544D01*
X57985369Y-95129831D01*
X64832569Y-101977031D01*
X65013856Y-102098164D01*
X65013857Y-102098164D01*
X65227700Y-102140700D01*
X82039569Y-102140700D01*
X74133785Y-110046485D01*
X73968604Y-110293695D01*
X73947605Y-110399259D01*
X73416039Y-109112768D01*
X72173871Y-107868430D01*
X70550070Y-107194169D01*
X68791844Y-107192635D01*
X67166868Y-107864061D01*
X65922530Y-109106229D01*
X65248269Y-110730030D01*
X65246735Y-112488256D01*
X65918161Y-114113232D01*
X67160329Y-115357570D01*
X68784130Y-116031831D01*
X70542356Y-116033365D01*
X72167332Y-115361939D01*
X73411670Y-114119771D01*
X73910600Y-112918213D01*
X73910600Y-113618100D01*
X73968604Y-113909705D01*
X74133785Y-114156915D01*
X81895985Y-121919116D01*
X82143195Y-122084296D01*
X82143196Y-122084297D01*
X82434800Y-122142300D01*
X85588970Y-122142300D01*
X85867175Y-122420505D01*
X85217482Y-122291273D01*
X85176205Y-122291273D01*
X85135720Y-122283220D01*
X68897870Y-122283220D01*
X68897870Y-119498463D01*
X68573733Y-118713991D01*
X67974065Y-118113276D01*
X67190161Y-117787771D01*
X66341363Y-117787030D01*
X65556891Y-118111167D01*
X64956176Y-118710835D01*
X64630671Y-119494739D01*
X64629930Y-120343537D01*
X64954067Y-121128009D01*
X65553735Y-121728724D01*
X66337639Y-122054229D01*
X67186437Y-122054970D01*
X67970909Y-121730833D01*
X68571624Y-121131165D01*
X68897129Y-120347261D01*
X68897870Y-119498463D01*
X68897870Y-122283220D01*
X63096916Y-122283220D01*
X63096916Y-110679897D01*
X62381114Y-108947523D01*
X61056849Y-107620944D01*
X59325727Y-106902119D01*
X57451297Y-106900484D01*
X55718923Y-107616286D01*
X54392344Y-108940551D01*
X53673519Y-110671673D01*
X53671884Y-112546103D01*
X54387686Y-114278477D01*
X55711951Y-115605056D01*
X57443073Y-116323881D01*
X59317503Y-116325516D01*
X61049877Y-115609714D01*
X62376456Y-114285449D01*
X63095281Y-112554327D01*
X63096916Y-110679897D01*
X63096916Y-122283220D01*
X53622576Y-122283220D01*
X52680468Y-122095822D01*
X51916778Y-121585541D01*
X51406497Y-120821852D01*
X51219100Y-119879743D01*
X51219100Y-28222576D01*
X51406497Y-27280467D01*
X51916778Y-26516778D01*
X52680468Y-26006497D01*
X53622576Y-25819100D01*
X133577963Y-25819100D01*
X134520072Y-26006497D01*
X135283761Y-26516778D01*
X135794042Y-27280468D01*
X135981440Y-28222576D01*
X135981440Y-119879743D01*
X135981440Y-119879743D01*
G37*
X135981440Y-119879743D02*
X135794042Y-120821851D01*
X135283761Y-121585541D01*
X134520072Y-122095822D01*
X133577963Y-122283220D01*
X133528516Y-122283220D01*
X133528516Y-110679897D01*
X133528516Y-73118097D01*
X133528516Y-35556497D01*
X132812714Y-33824123D01*
X131488449Y-32497544D01*
X129757327Y-31778719D01*
X127882897Y-31777084D01*
X126150523Y-32492886D01*
X124823944Y-33817151D01*
X124105119Y-35548273D01*
X124103484Y-37422703D01*
X124819286Y-39155077D01*
X126143551Y-40481656D01*
X127874673Y-41200481D01*
X129749103Y-41202116D01*
X131481477Y-40486314D01*
X132808056Y-39162049D01*
X133526881Y-37430927D01*
X133528516Y-35556497D01*
X133528516Y-73118097D01*
X132812714Y-71385723D01*
X131488449Y-70059144D01*
X129757327Y-69340319D01*
X127882897Y-69338684D01*
X126150523Y-70054486D01*
X124823944Y-71378751D01*
X124105119Y-73109873D01*
X124103484Y-74984303D01*
X124819286Y-76716677D01*
X126143551Y-78043256D01*
X127874673Y-78762081D01*
X129749103Y-78763716D01*
X131481477Y-78047914D01*
X132808056Y-76723649D01*
X133526881Y-74992527D01*
X133528516Y-73118097D01*
X133528516Y-110679897D01*
X132812714Y-108947523D01*
X131488449Y-107620944D01*
X129757327Y-106902119D01*
X127882897Y-106900484D01*
X126150523Y-107616286D01*
X124823944Y-108940551D01*
X124105119Y-110671673D01*
X124103484Y-112546103D01*
X124819286Y-114278477D01*
X126143551Y-115605056D01*
X127874673Y-116323881D01*
X129749103Y-116325516D01*
X131481477Y-115609714D01*
X132808056Y-114285449D01*
X133526881Y-112554327D01*
X133528516Y-110679897D01*
X133528516Y-122283220D01*
X122567970Y-122283220D01*
X122567970Y-119498463D01*
X122567970Y-65320263D01*
X122243833Y-64535791D01*
X121644165Y-63935076D01*
X120860261Y-63609571D01*
X120011463Y-63608830D01*
X119226991Y-63932967D01*
X118626276Y-64532635D01*
X118300771Y-65316539D01*
X118300030Y-66165337D01*
X118624167Y-66949809D01*
X119223835Y-67550524D01*
X120007739Y-67876029D01*
X120856537Y-67876770D01*
X121641009Y-67552633D01*
X122241724Y-66952965D01*
X122567229Y-66169061D01*
X122567970Y-65320263D01*
X122567970Y-119498463D01*
X122243833Y-118713991D01*
X121644165Y-118113276D01*
X120860261Y-117787771D01*
X120011463Y-117787030D01*
X119226991Y-118111167D01*
X118626276Y-118710835D01*
X118300771Y-119494739D01*
X118300030Y-120343537D01*
X118624167Y-121128009D01*
X119223835Y-121728724D01*
X120007739Y-122054229D01*
X120856537Y-122054970D01*
X121641009Y-121730833D01*
X122241724Y-121131165D01*
X122567229Y-120347261D01*
X122567970Y-119498463D01*
X122567970Y-122283220D01*
X102064820Y-122283220D01*
X102024334Y-122291273D01*
X101983058Y-122291273D01*
X101252675Y-122436555D01*
X105813830Y-117875400D01*
X107176600Y-117875400D01*
X107176600Y-117875399D01*
X107468204Y-117817396D01*
X107468205Y-117817396D01*
X107715415Y-117652215D01*
X111692803Y-113674827D01*
X111828480Y-113674827D01*
X111964069Y-113648519D01*
X112083239Y-113570237D01*
X112163011Y-113452059D01*
X112191047Y-113312260D01*
X112191047Y-113058102D01*
X112191047Y-113058101D01*
X112239999Y-112812000D01*
X112240000Y-112812000D01*
X112240000Y-112811900D01*
X112240000Y-112748630D01*
X112756141Y-112232488D01*
X112847628Y-112194687D01*
X113072896Y-111969812D01*
X113113171Y-111872817D01*
X113112635Y-112488256D01*
X113784061Y-114113232D01*
X115026229Y-115357570D01*
X116650030Y-116031831D01*
X118408256Y-116033365D01*
X120033232Y-115361939D01*
X121277570Y-114119771D01*
X121951831Y-112495970D01*
X121953365Y-110737744D01*
X121281939Y-109112768D01*
X120039771Y-107868430D01*
X118415970Y-107194169D01*
X116657744Y-107192635D01*
X115032768Y-107864061D01*
X113788430Y-109106229D01*
X113114169Y-110730030D01*
X113113793Y-111160436D01*
X113073687Y-111063372D01*
X112848812Y-110838104D01*
X112554848Y-110716039D01*
X112236548Y-110715761D01*
X111942372Y-110837313D01*
X111717104Y-111062188D01*
X111678703Y-111154666D01*
X111488120Y-111345249D01*
X111488120Y-111035757D01*
X111488120Y-110793243D01*
X111488120Y-110718920D01*
X111488120Y-110109320D01*
X111488120Y-110034997D01*
X111488120Y-109792483D01*
X111395314Y-109568429D01*
X111223831Y-109396946D01*
X110999777Y-109304140D01*
X110832800Y-109304140D01*
X110680400Y-109456540D01*
X110680400Y-110261720D01*
X111335720Y-110261720D01*
X111488120Y-110109320D01*
X111488120Y-110718920D01*
X111335720Y-110566520D01*
X110680400Y-110566520D01*
X110680400Y-111371700D01*
X110832800Y-111524100D01*
X110999777Y-111524100D01*
X111223831Y-111431294D01*
X111395314Y-111259811D01*
X111488120Y-111035757D01*
X111488120Y-111345249D01*
X110939185Y-111894185D01*
X110774004Y-112141395D01*
X110716000Y-112433000D01*
X110716000Y-112496369D01*
X110375600Y-112836769D01*
X110375600Y-111371700D01*
X110375600Y-110566520D01*
X110375600Y-110261720D01*
X110375600Y-109456540D01*
X110223200Y-109304140D01*
X110056223Y-109304140D01*
X109832169Y-109396946D01*
X109660686Y-109568429D01*
X109567880Y-109792483D01*
X109567880Y-110034997D01*
X109567880Y-110109320D01*
X109720280Y-110261720D01*
X110375600Y-110261720D01*
X110375600Y-110566520D01*
X109720280Y-110566520D01*
X109567880Y-110718920D01*
X109567880Y-110793243D01*
X109567880Y-111035757D01*
X109660686Y-111259811D01*
X109832169Y-111431294D01*
X110056223Y-111524100D01*
X110223200Y-111524100D01*
X110375600Y-111371700D01*
X110375600Y-112836769D01*
X110291127Y-112921242D01*
X110291127Y-112311500D01*
X110264819Y-112175911D01*
X110186537Y-112056741D01*
X110068359Y-111976969D01*
X109928560Y-111948933D01*
X109227520Y-111948933D01*
X109091931Y-111975241D01*
X108972761Y-112053523D01*
X108892989Y-112171701D01*
X108876644Y-112253200D01*
X107571589Y-112253200D01*
X106845091Y-111526141D01*
X106845239Y-111357548D01*
X106723687Y-111063372D01*
X106498812Y-110838104D01*
X106204848Y-110716039D01*
X105886548Y-110715761D01*
X105592372Y-110837313D01*
X105367104Y-111062188D01*
X105245039Y-111356152D01*
X105244761Y-111674452D01*
X105366313Y-111968628D01*
X105591188Y-112193896D01*
X105885152Y-112315961D01*
X106054533Y-112316108D01*
X106944716Y-113206979D01*
X106944808Y-113207041D01*
X106944869Y-113207131D01*
X107034854Y-113267258D01*
X107125958Y-113328182D01*
X107126065Y-113328203D01*
X107126156Y-113328264D01*
X107232434Y-113349404D01*
X107339784Y-113370800D01*
X107339892Y-113370778D01*
X107340000Y-113370800D01*
X108876311Y-113370800D01*
X108891261Y-113447849D01*
X108969543Y-113567019D01*
X109087721Y-113646791D01*
X109227520Y-113674827D01*
X109537542Y-113674827D01*
X106860969Y-116351400D01*
X105498200Y-116351400D01*
X105206595Y-116409404D01*
X104959384Y-116574585D01*
X97093369Y-124440600D01*
X95028230Y-124440600D01*
X81742488Y-111154858D01*
X81704687Y-111063372D01*
X81479812Y-110838104D01*
X81185848Y-110716039D01*
X80867548Y-110715761D01*
X80573372Y-110837313D01*
X80348104Y-111062188D01*
X80309645Y-111154805D01*
X79414865Y-112050000D01*
X78220870Y-112050000D01*
X78112679Y-111976969D01*
X77972880Y-111948933D01*
X77632520Y-111948933D01*
X77632520Y-111035757D01*
X77632520Y-110793243D01*
X77632520Y-110718920D01*
X77480120Y-110566520D01*
X76824800Y-110566520D01*
X76824800Y-111371700D01*
X76977200Y-111524100D01*
X77144177Y-111524100D01*
X77368231Y-111431294D01*
X77539714Y-111259811D01*
X77632520Y-111035757D01*
X77632520Y-111948933D01*
X77271840Y-111948933D01*
X77136251Y-111975241D01*
X77017081Y-112053523D01*
X76937309Y-112171701D01*
X76909273Y-112311500D01*
X76909273Y-112566201D01*
X76860401Y-112811900D01*
X76909273Y-113057598D01*
X76909273Y-113312260D01*
X76935581Y-113447849D01*
X77013863Y-113567019D01*
X77132041Y-113646791D01*
X77271840Y-113674827D01*
X77972880Y-113674827D01*
X78108469Y-113648519D01*
X78221910Y-113574000D01*
X79730600Y-113574000D01*
X79730690Y-113573982D01*
X79730776Y-113573999D01*
X79874944Y-113545287D01*
X80022205Y-113515996D01*
X80022279Y-113515946D01*
X80022367Y-113515929D01*
X80147114Y-113432533D01*
X80269415Y-113350815D01*
X80269463Y-113350741D01*
X80269540Y-113350691D01*
X81026124Y-112593755D01*
X94173784Y-125741415D01*
X94173785Y-125741415D01*
X94420995Y-125906596D01*
X94712600Y-125964600D01*
X96647000Y-125964600D01*
X96647000Y-141109732D01*
X96609039Y-141201152D01*
X96608761Y-141519452D01*
X96647000Y-141611996D01*
X96647000Y-144855369D01*
X95823369Y-145679000D01*
X95784885Y-145679000D01*
X95815054Y-145648831D01*
X95907860Y-145424777D01*
X95907860Y-145257800D01*
X95907860Y-144648200D01*
X95907860Y-144481223D01*
X95815054Y-144257169D01*
X95643571Y-144085686D01*
X95419517Y-143992880D01*
X95177003Y-143992880D01*
X95102680Y-143992880D01*
X94950280Y-144145280D01*
X94950280Y-144800600D01*
X95755460Y-144800600D01*
X95907860Y-144648200D01*
X95907860Y-145257800D01*
X95755460Y-145105400D01*
X94950280Y-145105400D01*
X94950280Y-145125400D01*
X94645480Y-145125400D01*
X94645480Y-145105400D01*
X94645480Y-144800600D01*
X94645480Y-144145280D01*
X94493080Y-143992880D01*
X94418757Y-143992880D01*
X94176243Y-143992880D01*
X93952189Y-144085686D01*
X93780706Y-144257169D01*
X93687900Y-144481223D01*
X93687900Y-144648200D01*
X93840300Y-144800600D01*
X94645480Y-144800600D01*
X94645480Y-145105400D01*
X93840300Y-145105400D01*
X93687900Y-145257800D01*
X93687900Y-145424777D01*
X93780706Y-145648831D01*
X93810875Y-145679000D01*
X93390384Y-145679000D01*
X93390384Y-141779910D01*
X92329000Y-140718526D01*
X92314857Y-140732668D01*
X92099331Y-140517142D01*
X92113474Y-140503000D01*
X92099331Y-140488857D01*
X92314857Y-140273331D01*
X92329000Y-140287474D01*
X93390384Y-139226090D01*
X93267491Y-138952001D01*
X92602510Y-138710918D01*
X91895890Y-138742665D01*
X91390509Y-138952001D01*
X91267616Y-139226087D01*
X91259000Y-139217471D01*
X91259000Y-132886462D01*
X91484969Y-132660492D01*
X91653252Y-132660639D01*
X91947428Y-132539087D01*
X92172696Y-132314212D01*
X92294761Y-132020248D01*
X92295039Y-131701948D01*
X92173487Y-131407772D01*
X91948612Y-131182504D01*
X91654648Y-131060439D01*
X91336348Y-131060161D01*
X91042172Y-131181713D01*
X90816904Y-131406588D01*
X90694839Y-131700552D01*
X90694690Y-131870247D01*
X90305069Y-132259869D01*
X90183936Y-132441156D01*
X90141400Y-132655000D01*
X90141400Y-141495100D01*
X90183936Y-141708944D01*
X90305069Y-141890231D01*
X91744202Y-143329365D01*
X91644981Y-143394543D01*
X91565209Y-143512721D01*
X91537173Y-143652520D01*
X91537173Y-144353560D01*
X91563481Y-144489149D01*
X91641763Y-144608319D01*
X91759941Y-144688091D01*
X91899740Y-144716127D01*
X92900500Y-144716127D01*
X93036089Y-144689819D01*
X93155259Y-144611537D01*
X93235031Y-144493359D01*
X93263067Y-144353560D01*
X93263067Y-143652520D01*
X93236759Y-143516931D01*
X93158477Y-143397761D01*
X93040299Y-143317989D01*
X92958900Y-143301664D01*
X92958900Y-143195000D01*
X92916365Y-142981157D01*
X92916364Y-142981156D01*
X92795232Y-142799869D01*
X92280342Y-142284979D01*
X92762110Y-142263335D01*
X93267491Y-142053999D01*
X93390384Y-141779910D01*
X93390384Y-145679000D01*
X93279547Y-145679000D01*
X93263067Y-145662525D01*
X93263067Y-145552440D01*
X93236759Y-145416851D01*
X93158477Y-145297681D01*
X93040299Y-145217909D01*
X92900500Y-145189873D01*
X92671595Y-145189873D01*
X92574788Y-145170635D01*
X92425800Y-145141000D01*
X92400100Y-145141000D01*
X92154399Y-145189873D01*
X91899740Y-145189873D01*
X91764151Y-145216181D01*
X91644981Y-145294463D01*
X91565209Y-145412641D01*
X91537173Y-145552440D01*
X91537173Y-146253480D01*
X91563481Y-146389069D01*
X91641763Y-146508239D01*
X91759941Y-146588011D01*
X91899740Y-146616047D01*
X92061281Y-146616047D01*
X92425185Y-146979815D01*
X92425285Y-146979915D01*
X92548257Y-147062049D01*
X92672395Y-147144996D01*
X92672466Y-147145010D01*
X92672526Y-147145050D01*
X92815508Y-147173463D01*
X92964000Y-147203000D01*
X96139000Y-147203000D01*
X96139000Y-147202999D01*
X96430604Y-147144996D01*
X96430605Y-147144996D01*
X96677815Y-146979815D01*
X97947815Y-145709816D01*
X97947815Y-145709815D01*
X98112996Y-145462605D01*
X98170999Y-145171000D01*
X98171000Y-145171000D01*
X98171000Y-141612267D01*
X98208961Y-141520848D01*
X98209239Y-141202548D01*
X98171000Y-141110003D01*
X98171000Y-125518230D01*
X99017755Y-124671474D01*
X98872473Y-125401858D01*
X98872473Y-125443134D01*
X98864420Y-125483620D01*
X98864420Y-151916763D01*
X98456028Y-153969886D01*
X98019365Y-154623398D01*
X98019365Y-151082744D01*
X97347939Y-149457768D01*
X96105771Y-148213430D01*
X94481970Y-147539169D01*
X92723744Y-147537635D01*
X91098768Y-148209061D01*
X89854430Y-149451229D01*
X89180169Y-151075030D01*
X89178635Y-152833256D01*
X89850061Y-154458232D01*
X91092229Y-155702570D01*
X92716030Y-156376831D01*
X94474256Y-156378365D01*
X96099232Y-155706939D01*
X97343570Y-154464771D01*
X98017831Y-152840970D01*
X98019365Y-151082744D01*
X98019365Y-154623398D01*
X97316408Y-155675448D01*
X95610847Y-156815068D01*
X93599000Y-157215249D01*
X91587153Y-156815068D01*
X89881591Y-155675448D01*
X88741971Y-153969887D01*
X88336120Y-151929532D01*
X88336120Y-125483620D01*
X88328067Y-125443134D01*
X88328067Y-125401858D01*
X88198834Y-124752164D01*
X94107000Y-130660330D01*
X94107000Y-139223846D01*
X94035589Y-139253353D01*
X93772274Y-139516208D01*
X93605910Y-139441616D01*
X93390384Y-139657142D01*
X92544526Y-140503000D01*
X93605910Y-141564384D01*
X93772406Y-141489732D01*
X94033409Y-141751190D01*
X94574677Y-141975944D01*
X95160752Y-141976455D01*
X95702411Y-141752647D01*
X96117190Y-141338591D01*
X96341944Y-140797323D01*
X96342455Y-140211248D01*
X96118647Y-139669589D01*
X95704591Y-139254810D01*
X95631000Y-139224252D01*
X95631000Y-130344700D01*
X95572996Y-130053095D01*
X95407815Y-129805885D01*
X86443415Y-120841485D01*
X86196205Y-120676304D01*
X85904600Y-120618300D01*
X82750430Y-120618300D01*
X77127930Y-114995800D01*
X80707299Y-114995800D01*
X80826188Y-115114896D01*
X81120152Y-115236961D01*
X81438452Y-115237239D01*
X81732628Y-115115687D01*
X81957896Y-114890812D01*
X82079961Y-114596848D01*
X82080239Y-114278548D01*
X81958687Y-113984372D01*
X81733812Y-113759104D01*
X81439848Y-113637039D01*
X81121548Y-113636761D01*
X80827372Y-113758313D01*
X80707275Y-113878200D01*
X77066388Y-113878200D01*
X76520000Y-113332057D01*
X76435527Y-113247622D01*
X76435527Y-112311500D01*
X76409219Y-112175911D01*
X76330937Y-112056741D01*
X76212759Y-111976969D01*
X76072960Y-111948933D01*
X75434600Y-111948933D01*
X75434600Y-110900930D01*
X75769008Y-110566522D01*
X75864678Y-110566522D01*
X75712280Y-110718920D01*
X75712280Y-110793243D01*
X75712280Y-111035757D01*
X75805086Y-111259811D01*
X75976569Y-111431294D01*
X76200623Y-111524100D01*
X76367600Y-111524100D01*
X76520000Y-111371700D01*
X76520000Y-110566520D01*
X76500000Y-110566520D01*
X76500000Y-110261720D01*
X76520000Y-110261720D01*
X76520000Y-110241720D01*
X76824800Y-110241720D01*
X76824800Y-110261720D01*
X77480120Y-110261720D01*
X77632520Y-110109320D01*
X77632520Y-110034997D01*
X77632520Y-109792483D01*
X77539714Y-109568429D01*
X77368231Y-109396946D01*
X77144177Y-109304140D01*
X77031390Y-109304140D01*
X83049730Y-103285800D01*
X87534132Y-103285800D01*
X87625552Y-103323761D01*
X87943852Y-103324039D01*
X88238028Y-103202487D01*
X88463296Y-102977612D01*
X88555763Y-102754925D01*
X89865500Y-104064662D01*
X89865500Y-106816299D01*
X89746404Y-106935188D01*
X89624339Y-107229152D01*
X89624061Y-107547452D01*
X89745613Y-107841628D01*
X89970488Y-108066896D01*
X90264452Y-108188961D01*
X90582752Y-108189239D01*
X90876928Y-108067687D01*
X91102196Y-107842812D01*
X91224261Y-107548848D01*
X91224539Y-107230548D01*
X91102987Y-106936372D01*
X90983100Y-106816275D01*
X90983100Y-103833200D01*
X90940564Y-103619357D01*
X90940564Y-103619356D01*
X90819431Y-103438069D01*
X88568131Y-101186769D01*
X88386844Y-101065636D01*
X88173000Y-101023100D01*
X65459162Y-101023100D01*
X65205862Y-100769800D01*
X89074838Y-100769800D01*
X94023907Y-105718869D01*
X94023761Y-105887152D01*
X94145313Y-106181328D01*
X94370188Y-106406596D01*
X94664152Y-106528661D01*
X94982452Y-106528939D01*
X95276628Y-106407387D01*
X95501896Y-106182512D01*
X95623961Y-105888548D01*
X95624239Y-105570248D01*
X95502687Y-105276072D01*
X95277812Y-105050804D01*
X94983848Y-104928739D01*
X94814152Y-104928590D01*
X89701431Y-99815869D01*
X89520144Y-99694736D01*
X89306300Y-99652200D01*
X65939930Y-99652200D01*
X65993624Y-99598600D01*
X93479200Y-99598600D01*
X93693043Y-99556064D01*
X93693044Y-99556064D01*
X93874331Y-99434931D01*
X97122369Y-96186892D01*
X97290652Y-96187039D01*
X97584828Y-96065487D01*
X97810096Y-95840612D01*
X97932161Y-95546648D01*
X97932439Y-95228348D01*
X97848581Y-95025400D01*
X104680000Y-95025400D01*
X108538837Y-95025400D01*
X120601207Y-107087770D01*
X120601061Y-107256052D01*
X120722613Y-107550228D01*
X120947488Y-107775496D01*
X121241452Y-107897561D01*
X121559752Y-107897839D01*
X121853928Y-107776287D01*
X122079196Y-107551412D01*
X122201261Y-107257448D01*
X122201539Y-106939148D01*
X122079987Y-106644972D01*
X121855112Y-106419704D01*
X121561148Y-106297639D01*
X121391453Y-106297490D01*
X113542871Y-98448909D01*
X113576952Y-98448939D01*
X113871128Y-98327387D01*
X114096396Y-98102512D01*
X114218461Y-97808548D01*
X114218739Y-97490248D01*
X114180500Y-97397703D01*
X114180500Y-84204400D01*
X114122496Y-83912795D01*
X113957315Y-83665585D01*
X113957315Y-83665584D01*
X111798239Y-81506508D01*
X111798239Y-77956748D01*
X111676687Y-77662572D01*
X111451812Y-77437304D01*
X111157848Y-77315239D01*
X110988153Y-77315090D01*
X110375600Y-76702537D01*
X110375600Y-73809900D01*
X110375600Y-73004720D01*
X110375600Y-72699920D01*
X110375600Y-71894740D01*
X110223200Y-71742340D01*
X110056223Y-71742340D01*
X109832169Y-71835146D01*
X109660686Y-72006629D01*
X109567880Y-72230683D01*
X109567880Y-72473197D01*
X109567880Y-72547520D01*
X109720280Y-72699920D01*
X110375600Y-72699920D01*
X110375600Y-73004720D01*
X109720280Y-73004720D01*
X109567880Y-73157120D01*
X109567880Y-73231443D01*
X109567880Y-73473957D01*
X109660686Y-73698011D01*
X109832169Y-73869494D01*
X110056223Y-73962300D01*
X110223200Y-73962300D01*
X110375600Y-73809900D01*
X110375600Y-76702537D01*
X110159800Y-76486737D01*
X110159800Y-76023886D01*
X110183319Y-76008437D01*
X110263091Y-75890259D01*
X110291127Y-75750460D01*
X110291127Y-74749700D01*
X110264819Y-74614111D01*
X110186537Y-74494941D01*
X110068359Y-74415169D01*
X109928560Y-74387133D01*
X109227520Y-74387133D01*
X109091931Y-74413441D01*
X108972761Y-74491723D01*
X108892989Y-74609901D01*
X108864953Y-74749700D01*
X108864953Y-75750460D01*
X108891261Y-75886049D01*
X108969543Y-76005219D01*
X109042200Y-76054263D01*
X109042200Y-76718200D01*
X109084736Y-76932044D01*
X109205869Y-77113331D01*
X110197907Y-78105370D01*
X110197761Y-78273652D01*
X110319313Y-78567828D01*
X110544188Y-78793096D01*
X110838152Y-78915161D01*
X111156452Y-78915439D01*
X111450628Y-78793887D01*
X111675896Y-78569012D01*
X111797961Y-78275048D01*
X111798239Y-77956748D01*
X111798239Y-81506508D01*
X101747088Y-71455358D01*
X101709287Y-71363872D01*
X101484412Y-71138604D01*
X101190448Y-71016539D01*
X100872148Y-71016261D01*
X100577972Y-71137813D01*
X100352704Y-71362688D01*
X100235500Y-71644945D01*
X100235500Y-67159500D01*
X100354596Y-67040612D01*
X100476661Y-66746648D01*
X100476939Y-66428348D01*
X100355387Y-66134172D01*
X100130512Y-65908904D01*
X99836548Y-65786839D01*
X99518248Y-65786561D01*
X99224072Y-65908113D01*
X98998804Y-66132988D01*
X98876739Y-66426952D01*
X98876461Y-66745252D01*
X98998013Y-67039428D01*
X99117900Y-67159524D01*
X99117900Y-86377200D01*
X99160436Y-86591044D01*
X99281569Y-86772331D01*
X104121200Y-91611962D01*
X104121200Y-91735920D01*
X103912448Y-91649239D01*
X103594148Y-91648961D01*
X103299972Y-91770513D01*
X103179875Y-91890400D01*
X103143362Y-91890400D01*
X78555277Y-67302314D01*
X78757428Y-67218787D01*
X78877524Y-67098900D01*
X82315000Y-67098900D01*
X82528843Y-67056364D01*
X82528844Y-67056364D01*
X82710131Y-66935231D01*
X87494069Y-62151292D01*
X87662352Y-62151439D01*
X87956528Y-62029887D01*
X88181796Y-61805012D01*
X88303861Y-61511048D01*
X88304139Y-61192748D01*
X88182587Y-60898572D01*
X87957712Y-60673304D01*
X87663748Y-60551239D01*
X87345448Y-60550961D01*
X87051272Y-60672513D01*
X86826004Y-60897388D01*
X86703939Y-61191352D01*
X86703790Y-61361047D01*
X82083538Y-65981300D01*
X78877500Y-65981300D01*
X78758612Y-65862204D01*
X78464648Y-65740139D01*
X78146348Y-65739861D01*
X77852172Y-65861413D01*
X77626904Y-66086288D01*
X77542504Y-66289542D01*
X70082000Y-58829037D01*
X70082000Y-58820000D01*
X70039464Y-58606157D01*
X70039464Y-58606156D01*
X69918331Y-58424869D01*
X65376131Y-53882669D01*
X65194844Y-53761536D01*
X65095420Y-53741759D01*
X65095419Y-53741759D01*
X65090090Y-53736420D01*
X65154924Y-53671700D01*
X103530837Y-53671700D01*
X107056707Y-57197570D01*
X107056561Y-57365852D01*
X107178113Y-57660028D01*
X107402988Y-57885296D01*
X107696952Y-58007361D01*
X108015252Y-58007639D01*
X108309428Y-57886087D01*
X108534696Y-57661212D01*
X108623056Y-57448418D01*
X111891407Y-60716769D01*
X111891261Y-60885052D01*
X112012813Y-61179228D01*
X112237688Y-61404496D01*
X112531652Y-61526561D01*
X112849952Y-61526839D01*
X113144128Y-61405287D01*
X113369396Y-61180412D01*
X113491461Y-60886448D01*
X113491739Y-60568148D01*
X113370187Y-60273972D01*
X113145312Y-60048704D01*
X112851348Y-59926639D01*
X112681652Y-59926490D01*
X111798239Y-59043077D01*
X111798239Y-40237748D01*
X111676687Y-39943572D01*
X111451812Y-39718304D01*
X111157848Y-39596239D01*
X110988124Y-39596090D01*
X110375600Y-38983609D01*
X110375600Y-36248300D01*
X110375600Y-35443120D01*
X109720280Y-35443120D01*
X109567880Y-35595520D01*
X109567880Y-35669843D01*
X109567880Y-35912357D01*
X109660686Y-36136411D01*
X109832169Y-36307894D01*
X110056223Y-36400700D01*
X110223200Y-36400700D01*
X110375600Y-36248300D01*
X110375600Y-38983609D01*
X110136800Y-38744826D01*
X110136800Y-38477395D01*
X110183319Y-38446837D01*
X110263091Y-38328659D01*
X110291127Y-38188860D01*
X110291127Y-37188100D01*
X110264819Y-37052511D01*
X110186537Y-36933341D01*
X110068359Y-36853569D01*
X109928560Y-36825533D01*
X109227520Y-36825533D01*
X109091931Y-36851841D01*
X108972761Y-36930123D01*
X108892989Y-37048301D01*
X108864953Y-37188100D01*
X108864953Y-38188860D01*
X108891261Y-38324449D01*
X108969543Y-38443619D01*
X109019200Y-38477138D01*
X109019200Y-38976300D01*
X109019201Y-38976309D01*
X109019200Y-38976320D01*
X109041478Y-39088303D01*
X109061736Y-39190144D01*
X109061741Y-39190151D01*
X109061743Y-39190161D01*
X109120387Y-39277920D01*
X109182869Y-39371431D01*
X109182877Y-39371436D01*
X109182883Y-39371445D01*
X110197907Y-40386399D01*
X110197761Y-40554652D01*
X110319313Y-40848828D01*
X110544188Y-41074096D01*
X110838152Y-41196161D01*
X111156452Y-41196439D01*
X111450628Y-41074887D01*
X111675896Y-40850012D01*
X111797961Y-40556048D01*
X111798239Y-40237748D01*
X111798239Y-59043077D01*
X101043831Y-48288669D01*
X100862544Y-48167536D01*
X100648700Y-48125000D01*
X100495101Y-48125000D01*
X100495239Y-47967948D01*
X100373687Y-47673772D01*
X100148812Y-47448504D01*
X99854848Y-47326439D01*
X99536548Y-47326161D01*
X99242372Y-47447713D01*
X99017104Y-47672588D01*
X98895039Y-47966552D01*
X98894900Y-48125000D01*
X67735700Y-48125000D01*
X67521856Y-48167536D01*
X67340569Y-48288669D01*
X52808000Y-62821238D01*
X52808000Y-62659062D01*
X75180331Y-40286731D01*
X75301464Y-40105444D01*
X75301464Y-40105443D01*
X75344000Y-39891600D01*
X75344000Y-38545827D01*
X75371920Y-38551427D01*
X75795065Y-38551427D01*
X76010469Y-38766831D01*
X76010767Y-38767030D01*
X77272953Y-40029316D01*
X77272963Y-40029323D01*
X77272969Y-40029331D01*
X77353711Y-40083282D01*
X77454236Y-40150456D01*
X77454247Y-40150458D01*
X77454256Y-40150464D01*
X77556646Y-40170830D01*
X77668078Y-40193000D01*
X77668089Y-40192997D01*
X77668100Y-40193000D01*
X78254538Y-40193000D01*
X78447907Y-40386369D01*
X78447761Y-40554652D01*
X78569313Y-40848828D01*
X78794188Y-41074096D01*
X79088152Y-41196161D01*
X79406452Y-41196439D01*
X79700628Y-41074887D01*
X79925896Y-40850012D01*
X80047961Y-40556048D01*
X80048239Y-40237748D01*
X79926687Y-39943572D01*
X79701812Y-39718304D01*
X79407848Y-39596239D01*
X79238152Y-39596090D01*
X78881131Y-39239069D01*
X78699844Y-39117936D01*
X78486000Y-39075400D01*
X77899575Y-39075400D01*
X77375644Y-38551427D01*
X77972880Y-38551427D01*
X78108469Y-38525119D01*
X78222062Y-38450500D01*
X79923600Y-38450500D01*
X80082625Y-38418867D01*
X80215173Y-38392509D01*
X80215187Y-38392499D01*
X80215205Y-38392496D01*
X80334635Y-38312694D01*
X80462391Y-38227340D01*
X80462415Y-38227315D01*
X81387115Y-37302699D01*
X81478628Y-37264887D01*
X81703896Y-37040012D01*
X81742296Y-36947533D01*
X83840830Y-34849000D01*
X109567880Y-34849000D01*
X109567880Y-34911597D01*
X109567880Y-34985920D01*
X109720280Y-35138320D01*
X110375600Y-35138320D01*
X110375600Y-35118320D01*
X110680400Y-35118320D01*
X110680400Y-35138320D01*
X110700400Y-35138320D01*
X110700400Y-35443120D01*
X110680400Y-35443120D01*
X110680400Y-36248300D01*
X110832800Y-36400700D01*
X110999777Y-36400700D01*
X111223831Y-36307894D01*
X111395314Y-36136411D01*
X111488120Y-35912357D01*
X111488120Y-35669843D01*
X111488120Y-35595520D01*
X111335722Y-35443122D01*
X111435092Y-35443122D01*
X111633000Y-35641030D01*
X111633000Y-36270544D01*
X111488120Y-36415408D01*
X111066035Y-36837447D01*
X110991851Y-36851841D01*
X110872681Y-36930123D01*
X110792909Y-37048301D01*
X110764873Y-37188100D01*
X110764873Y-37257399D01*
X110743014Y-37367290D01*
X110716001Y-37503058D01*
X110716004Y-37503076D01*
X110716000Y-37503100D01*
X110716000Y-37688500D01*
X110764873Y-37934200D01*
X110764873Y-38188860D01*
X110791181Y-38324449D01*
X110869463Y-38443619D01*
X110987641Y-38523391D01*
X111127440Y-38551427D01*
X111727200Y-38551427D01*
X111727200Y-38699700D01*
X111785204Y-38991305D01*
X111950385Y-39238515D01*
X113836700Y-41124830D01*
X113836700Y-69988069D01*
X111856185Y-71968585D01*
X111691004Y-72215795D01*
X111633000Y-72507400D01*
X111633000Y-73735544D01*
X111488120Y-73880408D01*
X111488120Y-73473957D01*
X111488120Y-73231443D01*
X111488120Y-73157120D01*
X111488120Y-72547520D01*
X111488120Y-72473197D01*
X111488120Y-72230683D01*
X111395314Y-72006629D01*
X111223831Y-71835146D01*
X110999777Y-71742340D01*
X110832800Y-71742340D01*
X110680400Y-71894740D01*
X110680400Y-72699920D01*
X111335720Y-72699920D01*
X111488120Y-72547520D01*
X111488120Y-73157120D01*
X111335720Y-73004720D01*
X110680400Y-73004720D01*
X110680400Y-73809900D01*
X110832800Y-73962300D01*
X110999777Y-73962300D01*
X111223831Y-73869494D01*
X111395314Y-73698011D01*
X111488120Y-73473957D01*
X111488120Y-73880408D01*
X110939214Y-74429255D01*
X110939201Y-74429274D01*
X110939185Y-74429285D01*
X110916853Y-74462706D01*
X110872681Y-74491723D01*
X110792909Y-74609901D01*
X110781937Y-74664608D01*
X110774020Y-74676457D01*
X110774016Y-74676477D01*
X110774004Y-74676495D01*
X110743014Y-74832290D01*
X110716001Y-74968058D01*
X110716004Y-74968076D01*
X110716000Y-74968100D01*
X110716000Y-75250100D01*
X110764873Y-75495800D01*
X110764873Y-75750460D01*
X110791181Y-75886049D01*
X110869463Y-76005219D01*
X110987641Y-76084991D01*
X111127440Y-76113027D01*
X111828480Y-76113027D01*
X111964069Y-76086719D01*
X112083239Y-76008437D01*
X112163011Y-75890259D01*
X112191047Y-75750460D01*
X112191047Y-75496202D01*
X112231643Y-75292110D01*
X112756109Y-74767701D01*
X112847628Y-74729887D01*
X113072896Y-74505012D01*
X113113087Y-74408221D01*
X113112635Y-74926456D01*
X113784061Y-76551432D01*
X115026229Y-77795770D01*
X116650030Y-78470031D01*
X118408256Y-78471565D01*
X120033232Y-77800139D01*
X121277570Y-76557971D01*
X121951831Y-74934170D01*
X121953365Y-73175944D01*
X121281939Y-71550968D01*
X120039771Y-70306630D01*
X118415970Y-69632369D01*
X116657744Y-69630835D01*
X115360700Y-70166762D01*
X115360700Y-40809200D01*
X115302697Y-40517596D01*
X115302696Y-40517595D01*
X115146759Y-40284218D01*
X116650030Y-40908431D01*
X118408256Y-40909965D01*
X120033232Y-40238539D01*
X121277570Y-38996371D01*
X121951831Y-37372570D01*
X121953365Y-35614344D01*
X121281939Y-33989368D01*
X120039771Y-32745030D01*
X118415970Y-32070769D01*
X116657744Y-32069235D01*
X115032768Y-32740661D01*
X113788430Y-33982829D01*
X113157000Y-35503481D01*
X113157000Y-35325400D01*
X113098996Y-35033795D01*
X112933815Y-34786585D01*
X111695415Y-33548185D01*
X111448205Y-33383004D01*
X111156600Y-33325000D01*
X83525200Y-33325000D01*
X83233596Y-33383003D01*
X82986385Y-33548184D01*
X80664858Y-35869711D01*
X80573372Y-35907513D01*
X80348104Y-36132388D01*
X80309715Y-36224837D01*
X79607989Y-36926500D01*
X78220722Y-36926500D01*
X78112679Y-36853569D01*
X77972880Y-36825533D01*
X77632520Y-36825533D01*
X77632520Y-35912357D01*
X77632520Y-35669843D01*
X77632520Y-35595520D01*
X77480120Y-35443120D01*
X76824800Y-35443120D01*
X76824800Y-36248300D01*
X76977200Y-36400700D01*
X77144177Y-36400700D01*
X77368231Y-36307894D01*
X77539714Y-36136411D01*
X77632520Y-35912357D01*
X77632520Y-36825533D01*
X77271840Y-36825533D01*
X77136251Y-36851841D01*
X77017081Y-36930123D01*
X76937309Y-37048301D01*
X76909273Y-37188100D01*
X76909273Y-37442799D01*
X76860400Y-37688500D01*
X76909273Y-37934200D01*
X76909273Y-38085018D01*
X76800847Y-37976584D01*
X76800836Y-37976576D01*
X76800831Y-37976569D01*
X76520000Y-37695738D01*
X76435527Y-37611265D01*
X76435527Y-37188100D01*
X76409219Y-37052511D01*
X76330937Y-36933341D01*
X76212759Y-36853569D01*
X76072960Y-36825533D01*
X75371920Y-36825533D01*
X75344000Y-36830950D01*
X75344000Y-35904262D01*
X75805140Y-35443122D01*
X75864678Y-35443122D01*
X75712280Y-35595520D01*
X75712280Y-35669843D01*
X75712280Y-35912357D01*
X75805086Y-36136411D01*
X75976569Y-36307894D01*
X76200623Y-36400700D01*
X76367600Y-36400700D01*
X76520000Y-36248300D01*
X76520000Y-35443120D01*
X76500000Y-35443120D01*
X76500000Y-35138320D01*
X76520000Y-35138320D01*
X76520000Y-35118320D01*
X76824800Y-35118320D01*
X76824800Y-35138320D01*
X77480120Y-35138320D01*
X77632520Y-34985920D01*
X77632520Y-34911597D01*
X77632520Y-34669083D01*
X77539714Y-34445029D01*
X77368231Y-34273546D01*
X77144177Y-34180740D01*
X77067522Y-34180740D01*
X80674262Y-30574000D01*
X99717800Y-30574000D01*
X118317838Y-30574000D01*
X120905469Y-33161631D01*
X121086756Y-33282764D01*
X121086757Y-33282764D01*
X121300600Y-33325300D01*
X121525799Y-33325300D01*
X121644688Y-33444396D01*
X121938652Y-33566461D01*
X122256952Y-33566739D01*
X122551128Y-33445187D01*
X122776396Y-33220312D01*
X122898461Y-32926348D01*
X122898739Y-32608048D01*
X122777187Y-32313872D01*
X122552312Y-32088604D01*
X122258348Y-31966539D01*
X121940048Y-31966261D01*
X121645872Y-32087813D01*
X121528921Y-32204559D01*
X119376975Y-30052613D01*
X120007739Y-30314529D01*
X120856537Y-30315270D01*
X121641009Y-29991133D01*
X122241724Y-29391465D01*
X122567229Y-28607561D01*
X122567970Y-27758763D01*
X122243833Y-26974291D01*
X121644165Y-26373576D01*
X120860261Y-26048071D01*
X120011463Y-26047330D01*
X119226991Y-26371467D01*
X118626276Y-26971135D01*
X118300771Y-27755039D01*
X118300030Y-28603837D01*
X118624167Y-29388309D01*
X118727529Y-29491851D01*
X118549300Y-29456400D01*
X100488351Y-29456400D01*
X100396487Y-29234072D01*
X100171612Y-29008804D01*
X99877648Y-28886739D01*
X99559348Y-28886461D01*
X99265172Y-29008013D01*
X99039904Y-29232888D01*
X98947093Y-29456400D01*
X80442800Y-29456400D01*
X80228957Y-29498935D01*
X80047669Y-29620068D01*
X74390069Y-35277669D01*
X74268936Y-35458956D01*
X74226400Y-35672800D01*
X74226400Y-39660138D01*
X74087465Y-39799073D01*
X74087465Y-35614344D01*
X73416039Y-33989368D01*
X72173871Y-32745030D01*
X70550070Y-32070769D01*
X68897870Y-32069327D01*
X68897870Y-27758763D01*
X68573733Y-26974291D01*
X67974065Y-26373576D01*
X67190161Y-26048071D01*
X66341363Y-26047330D01*
X65556891Y-26371467D01*
X64956176Y-26971135D01*
X64630671Y-27755039D01*
X64629930Y-28603837D01*
X64954067Y-29388309D01*
X65553735Y-29989024D01*
X66337639Y-30314529D01*
X67186437Y-30315270D01*
X67970909Y-29991133D01*
X68571624Y-29391465D01*
X68897129Y-28607561D01*
X68897870Y-27758763D01*
X68897870Y-32069327D01*
X68791844Y-32069235D01*
X67166868Y-32740661D01*
X65922530Y-33982829D01*
X65248269Y-35606630D01*
X65246735Y-37364856D01*
X65918161Y-38989832D01*
X67160329Y-40234170D01*
X68784130Y-40908431D01*
X70542356Y-40909965D01*
X72167332Y-40238539D01*
X73411670Y-38996371D01*
X74085931Y-37372570D01*
X74087465Y-35614344D01*
X74087465Y-39799073D01*
X63096916Y-50789622D01*
X63096916Y-35556497D01*
X62381114Y-33824123D01*
X61056849Y-32497544D01*
X59325727Y-31778719D01*
X57451297Y-31777084D01*
X55718923Y-32492886D01*
X54392344Y-33817151D01*
X53673519Y-35548273D01*
X53671884Y-37422703D01*
X54387686Y-39155077D01*
X55711951Y-40481656D01*
X57443073Y-41200481D01*
X59317503Y-41202116D01*
X61049877Y-40486314D01*
X62376456Y-39162049D01*
X63095281Y-37430927D01*
X63096916Y-35556497D01*
X63096916Y-50789622D01*
X51854069Y-62032469D01*
X51732936Y-62213756D01*
X51690400Y-62427600D01*
X51690400Y-83922300D01*
X51732936Y-84136144D01*
X51854069Y-84317431D01*
X56767207Y-89230569D01*
X56767061Y-89398852D01*
X56888613Y-89693028D01*
X57113488Y-89918296D01*
X57298159Y-89994978D01*
X56291169Y-91001969D01*
X56170036Y-91183256D01*
X56127500Y-91397100D01*
X56127500Y-96338499D01*
X56008404Y-96457388D01*
X55886339Y-96751352D01*
X55886061Y-97069652D01*
X56007613Y-97363828D01*
X56232488Y-97589096D01*
X56526452Y-97711161D01*
X56844752Y-97711439D01*
X57138928Y-97589887D01*
X57364196Y-97365012D01*
X57486261Y-97071048D01*
X57486539Y-96752748D01*
X57364987Y-96458572D01*
X57245100Y-96338475D01*
X57245100Y-91628562D01*
X58571200Y-90302462D01*
X58571200Y-92734038D01*
X57985369Y-93319869D01*
X57864236Y-93501156D01*
X57821700Y-93715000D01*
X57821700Y-94734700D01*
X57864236Y-94948544D01*
X57985369Y-95129831D01*
X64832569Y-101977031D01*
X65013856Y-102098164D01*
X65013857Y-102098164D01*
X65227700Y-102140700D01*
X82039569Y-102140700D01*
X74133785Y-110046485D01*
X73968604Y-110293695D01*
X73947605Y-110399259D01*
X73416039Y-109112768D01*
X72173871Y-107868430D01*
X70550070Y-107194169D01*
X68791844Y-107192635D01*
X67166868Y-107864061D01*
X65922530Y-109106229D01*
X65248269Y-110730030D01*
X65246735Y-112488256D01*
X65918161Y-114113232D01*
X67160329Y-115357570D01*
X68784130Y-116031831D01*
X70542356Y-116033365D01*
X72167332Y-115361939D01*
X73411670Y-114119771D01*
X73910600Y-112918213D01*
X73910600Y-113618100D01*
X73968604Y-113909705D01*
X74133785Y-114156915D01*
X81895985Y-121919116D01*
X82143195Y-122084296D01*
X82143196Y-122084297D01*
X82434800Y-122142300D01*
X85588970Y-122142300D01*
X85867175Y-122420505D01*
X85217482Y-122291273D01*
X85176205Y-122291273D01*
X85135720Y-122283220D01*
X68897870Y-122283220D01*
X68897870Y-119498463D01*
X68573733Y-118713991D01*
X67974065Y-118113276D01*
X67190161Y-117787771D01*
X66341363Y-117787030D01*
X65556891Y-118111167D01*
X64956176Y-118710835D01*
X64630671Y-119494739D01*
X64629930Y-120343537D01*
X64954067Y-121128009D01*
X65553735Y-121728724D01*
X66337639Y-122054229D01*
X67186437Y-122054970D01*
X67970909Y-121730833D01*
X68571624Y-121131165D01*
X68897129Y-120347261D01*
X68897870Y-119498463D01*
X68897870Y-122283220D01*
X63096916Y-122283220D01*
X63096916Y-110679897D01*
X62381114Y-108947523D01*
X61056849Y-107620944D01*
X59325727Y-106902119D01*
X57451297Y-106900484D01*
X55718923Y-107616286D01*
X54392344Y-108940551D01*
X53673519Y-110671673D01*
X53671884Y-112546103D01*
X54387686Y-114278477D01*
X55711951Y-115605056D01*
X57443073Y-116323881D01*
X59317503Y-116325516D01*
X61049877Y-115609714D01*
X62376456Y-114285449D01*
X63095281Y-112554327D01*
X63096916Y-110679897D01*
X63096916Y-122283220D01*
X53622576Y-122283220D01*
X52680468Y-122095822D01*
X51916778Y-121585541D01*
X51406497Y-120821852D01*
X51219100Y-119879743D01*
X51219100Y-28222576D01*
X51406497Y-27280467D01*
X51916778Y-26516778D01*
X52680468Y-26006497D01*
X53622576Y-25819100D01*
X133577963Y-25819100D01*
X134520072Y-26006497D01*
X135283761Y-26516778D01*
X135794042Y-27280468D01*
X135981440Y-28222576D01*
X135981440Y-119879743D01*
M02*
