G04 #@! TF.FileFunction,Legend,Top*
%FSLAX46Y46*%
G04 Gerber Fmt 4.6, Leading zero omitted, Abs format (unit mm)*
G04 Created by KiCad (PCBNEW 0.201506082246+5724~23~ubuntu14.04.1-product) date Wed 10 Jun 2015 10:15:59 AM EDT*
%MOMM*%
G01*
G04 APERTURE LIST*
%ADD10C,0.100000*%
%ADD11C,0.228600*%
%ADD12C,0.190500*%
%ADD13C,0.508000*%
%ADD14C,0.381000*%
%ADD15C,0.127000*%
%ADD16C,0.254000*%
%ADD17C,2.438400*%
%ADD18R,4.895800X1.416000*%
%ADD19C,3.048000*%
%ADD20R,0.721360X0.721360*%
%ADD21R,1.295400X1.295400*%
G04 APERTURE END LIST*
D10*
D11*
X25400000Y-84836000D02*
X49364900Y-84836000D01*
X49364900Y-25400000D02*
X49364900Y-84836000D01*
X25400000Y-25400000D02*
X25400000Y-84836000D01*
X25400000Y-25400000D02*
X49364900Y-25400000D01*
D12*
X26951214Y-84273572D02*
X26189214Y-84273572D01*
X26951214Y-83947001D02*
X26552071Y-83947001D01*
X26479500Y-83983287D01*
X26443214Y-84055858D01*
X26443214Y-84164715D01*
X26479500Y-84237287D01*
X26515786Y-84273572D01*
X26443214Y-83656715D02*
X26951214Y-83475286D01*
X26443214Y-83293858D02*
X26951214Y-83475286D01*
X27132643Y-83547858D01*
X27168929Y-83584143D01*
X27205214Y-83656715D01*
X26951214Y-83003572D02*
X26189214Y-83003572D01*
X26479500Y-83003572D02*
X26443214Y-82931001D01*
X26443214Y-82785858D01*
X26479500Y-82713287D01*
X26515786Y-82677001D01*
X26588357Y-82640715D01*
X26806071Y-82640715D01*
X26878643Y-82677001D01*
X26914929Y-82713287D01*
X26951214Y-82785858D01*
X26951214Y-82931001D01*
X26914929Y-83003572D01*
X26951214Y-82314143D02*
X26443214Y-82314143D01*
X26588357Y-82314143D02*
X26515786Y-82277858D01*
X26479500Y-82241572D01*
X26443214Y-82169001D01*
X26443214Y-82096429D01*
X26951214Y-81842429D02*
X26443214Y-81842429D01*
X26189214Y-81842429D02*
X26225500Y-81878715D01*
X26261786Y-81842429D01*
X26225500Y-81806144D01*
X26189214Y-81842429D01*
X26261786Y-81842429D01*
X26951214Y-81153001D02*
X26189214Y-81153001D01*
X26914929Y-81153001D02*
X26951214Y-81225572D01*
X26951214Y-81370715D01*
X26914929Y-81443287D01*
X26878643Y-81479572D01*
X26806071Y-81515858D01*
X26588357Y-81515858D01*
X26515786Y-81479572D01*
X26479500Y-81443287D01*
X26443214Y-81370715D01*
X26443214Y-81225572D01*
X26479500Y-81153001D01*
X26951214Y-80790143D02*
X26443214Y-80790143D01*
X26189214Y-80790143D02*
X26225500Y-80826429D01*
X26261786Y-80790143D01*
X26225500Y-80753858D01*
X26189214Y-80790143D01*
X26261786Y-80790143D01*
X26443214Y-80499858D02*
X26443214Y-80100715D01*
X26951214Y-80499858D01*
X26951214Y-80100715D01*
X26914929Y-79520144D02*
X26951214Y-79592715D01*
X26951214Y-79737858D01*
X26914929Y-79810429D01*
X26842357Y-79846715D01*
X26552071Y-79846715D01*
X26479500Y-79810429D01*
X26443214Y-79737858D01*
X26443214Y-79592715D01*
X26479500Y-79520144D01*
X26552071Y-79483858D01*
X26624643Y-79483858D01*
X26697214Y-79846715D01*
X26951214Y-79157286D02*
X26443214Y-79157286D01*
X26588357Y-79157286D02*
X26515786Y-79121001D01*
X26479500Y-79084715D01*
X26443214Y-79012144D01*
X26443214Y-78939572D01*
X27023786Y-78867001D02*
X27023786Y-78286430D01*
X26951214Y-78105001D02*
X26443214Y-78105001D01*
X26515786Y-78105001D02*
X26479500Y-78068716D01*
X26443214Y-77996144D01*
X26443214Y-77887287D01*
X26479500Y-77814716D01*
X26552071Y-77778430D01*
X26951214Y-77778430D01*
X26552071Y-77778430D02*
X26479500Y-77742144D01*
X26443214Y-77669573D01*
X26443214Y-77560716D01*
X26479500Y-77488144D01*
X26552071Y-77451859D01*
X26951214Y-77451859D01*
X26951214Y-76762430D02*
X26552071Y-76762430D01*
X26479500Y-76798716D01*
X26443214Y-76871287D01*
X26443214Y-77016430D01*
X26479500Y-77089001D01*
X26914929Y-76762430D02*
X26951214Y-76835001D01*
X26951214Y-77016430D01*
X26914929Y-77089001D01*
X26842357Y-77125287D01*
X26769786Y-77125287D01*
X26697214Y-77089001D01*
X26660929Y-77016430D01*
X26660929Y-76835001D01*
X26624643Y-76762430D01*
X26443214Y-76399572D02*
X26951214Y-76399572D01*
X26515786Y-76399572D02*
X26479500Y-76363287D01*
X26443214Y-76290715D01*
X26443214Y-76181858D01*
X26479500Y-76109287D01*
X26552071Y-76073001D01*
X26951214Y-76073001D01*
X26951214Y-75710143D02*
X26443214Y-75710143D01*
X26189214Y-75710143D02*
X26225500Y-75746429D01*
X26261786Y-75710143D01*
X26225500Y-75673858D01*
X26189214Y-75710143D01*
X26261786Y-75710143D01*
X26443214Y-75456144D02*
X26443214Y-75165858D01*
X26951214Y-75347286D02*
X26298071Y-75347286D01*
X26225500Y-75311001D01*
X26189214Y-75238429D01*
X26189214Y-75165858D01*
X26951214Y-74803000D02*
X26914929Y-74875572D01*
X26878643Y-74911857D01*
X26806071Y-74948143D01*
X26588357Y-74948143D01*
X26515786Y-74911857D01*
X26479500Y-74875572D01*
X26443214Y-74803000D01*
X26443214Y-74694143D01*
X26479500Y-74621572D01*
X26515786Y-74585286D01*
X26588357Y-74549000D01*
X26806071Y-74549000D01*
X26878643Y-74585286D01*
X26914929Y-74621572D01*
X26951214Y-74694143D01*
X26951214Y-74803000D01*
X26951214Y-74113571D02*
X26914929Y-74186143D01*
X26842357Y-74222428D01*
X26189214Y-74222428D01*
X26951214Y-73496714D02*
X26189214Y-73496714D01*
X26914929Y-73496714D02*
X26951214Y-73569285D01*
X26951214Y-73714428D01*
X26914929Y-73787000D01*
X26878643Y-73823285D01*
X26806071Y-73859571D01*
X26588357Y-73859571D01*
X26515786Y-73823285D01*
X26479500Y-73787000D01*
X26443214Y-73714428D01*
X26443214Y-73569285D01*
X26479500Y-73496714D01*
X27023786Y-73315285D02*
X27023786Y-72734714D01*
X26951214Y-72553285D02*
X26443214Y-72553285D01*
X26189214Y-72553285D02*
X26225500Y-72589571D01*
X26261786Y-72553285D01*
X26225500Y-72517000D01*
X26189214Y-72553285D01*
X26261786Y-72553285D01*
X26443214Y-72190428D02*
X26951214Y-72190428D01*
X26515786Y-72190428D02*
X26479500Y-72154143D01*
X26443214Y-72081571D01*
X26443214Y-71972714D01*
X26479500Y-71900143D01*
X26552071Y-71863857D01*
X26951214Y-71863857D01*
X26443214Y-71609857D02*
X26443214Y-71319571D01*
X26189214Y-71500999D02*
X26842357Y-71500999D01*
X26914929Y-71464714D01*
X26951214Y-71392142D01*
X26951214Y-71319571D01*
X26914929Y-70775285D02*
X26951214Y-70847856D01*
X26951214Y-70992999D01*
X26914929Y-71065570D01*
X26842357Y-71101856D01*
X26552071Y-71101856D01*
X26479500Y-71065570D01*
X26443214Y-70992999D01*
X26443214Y-70847856D01*
X26479500Y-70775285D01*
X26552071Y-70738999D01*
X26624643Y-70738999D01*
X26697214Y-71101856D01*
X26951214Y-70412427D02*
X26443214Y-70412427D01*
X26588357Y-70412427D02*
X26515786Y-70376142D01*
X26479500Y-70339856D01*
X26443214Y-70267285D01*
X26443214Y-70194713D01*
X26443214Y-70049571D02*
X26443214Y-69759285D01*
X26951214Y-69940713D02*
X26298071Y-69940713D01*
X26225500Y-69904428D01*
X26189214Y-69831856D01*
X26189214Y-69759285D01*
X26951214Y-69178713D02*
X26552071Y-69178713D01*
X26479500Y-69214999D01*
X26443214Y-69287570D01*
X26443214Y-69432713D01*
X26479500Y-69505284D01*
X26914929Y-69178713D02*
X26951214Y-69251284D01*
X26951214Y-69432713D01*
X26914929Y-69505284D01*
X26842357Y-69541570D01*
X26769786Y-69541570D01*
X26697214Y-69505284D01*
X26660929Y-69432713D01*
X26660929Y-69251284D01*
X26624643Y-69178713D01*
X26914929Y-68489284D02*
X26951214Y-68561855D01*
X26951214Y-68706998D01*
X26914929Y-68779570D01*
X26878643Y-68815855D01*
X26806071Y-68852141D01*
X26588357Y-68852141D01*
X26515786Y-68815855D01*
X26479500Y-68779570D01*
X26443214Y-68706998D01*
X26443214Y-68561855D01*
X26479500Y-68489284D01*
X26914929Y-67872427D02*
X26951214Y-67944998D01*
X26951214Y-68090141D01*
X26914929Y-68162712D01*
X26842357Y-68198998D01*
X26552071Y-68198998D01*
X26479500Y-68162712D01*
X26443214Y-68090141D01*
X26443214Y-67944998D01*
X26479500Y-67872427D01*
X26552071Y-67836141D01*
X26624643Y-67836141D01*
X26697214Y-68198998D01*
X27446514Y-83112429D02*
X27990800Y-83112429D01*
X28099657Y-83148715D01*
X28172229Y-83221286D01*
X28208514Y-83330143D01*
X28208514Y-83402715D01*
X28208514Y-82423001D02*
X27809371Y-82423001D01*
X27736800Y-82459287D01*
X27700514Y-82531858D01*
X27700514Y-82677001D01*
X27736800Y-82749572D01*
X28172229Y-82423001D02*
X28208514Y-82495572D01*
X28208514Y-82677001D01*
X28172229Y-82749572D01*
X28099657Y-82785858D01*
X28027086Y-82785858D01*
X27954514Y-82749572D01*
X27918229Y-82677001D01*
X27918229Y-82495572D01*
X27881943Y-82423001D01*
X27700514Y-82060143D02*
X28208514Y-82060143D01*
X27773086Y-82060143D02*
X27736800Y-82023858D01*
X27700514Y-81951286D01*
X27700514Y-81842429D01*
X27736800Y-81769858D01*
X27809371Y-81733572D01*
X28208514Y-81733572D01*
X28172229Y-81080429D02*
X28208514Y-81153000D01*
X28208514Y-81298143D01*
X28172229Y-81370714D01*
X28099657Y-81407000D01*
X27809371Y-81407000D01*
X27736800Y-81370714D01*
X27700514Y-81298143D01*
X27700514Y-81153000D01*
X27736800Y-81080429D01*
X27809371Y-81044143D01*
X27881943Y-81044143D01*
X27954514Y-81407000D01*
X28208514Y-80608714D02*
X28172229Y-80681286D01*
X28099657Y-80717571D01*
X27446514Y-80717571D01*
X28208514Y-80318428D02*
X27700514Y-80318428D01*
X27446514Y-80318428D02*
X27482800Y-80354714D01*
X27519086Y-80318428D01*
X27482800Y-80282143D01*
X27446514Y-80318428D01*
X27519086Y-80318428D01*
X28208514Y-79629000D02*
X27809371Y-79629000D01*
X27736800Y-79665286D01*
X27700514Y-79737857D01*
X27700514Y-79883000D01*
X27736800Y-79955571D01*
X28172229Y-79629000D02*
X28208514Y-79701571D01*
X28208514Y-79883000D01*
X28172229Y-79955571D01*
X28099657Y-79991857D01*
X28027086Y-79991857D01*
X27954514Y-79955571D01*
X27918229Y-79883000D01*
X27918229Y-79701571D01*
X27881943Y-79629000D01*
X28208514Y-78250143D02*
X27845657Y-78504143D01*
X28208514Y-78685571D02*
X27446514Y-78685571D01*
X27446514Y-78395286D01*
X27482800Y-78322714D01*
X27519086Y-78286429D01*
X27591657Y-78250143D01*
X27700514Y-78250143D01*
X27773086Y-78286429D01*
X27809371Y-78322714D01*
X27845657Y-78395286D01*
X27845657Y-78685571D01*
X28172229Y-77633286D02*
X28208514Y-77705857D01*
X28208514Y-77851000D01*
X28172229Y-77923571D01*
X28099657Y-77959857D01*
X27809371Y-77959857D01*
X27736800Y-77923571D01*
X27700514Y-77851000D01*
X27700514Y-77705857D01*
X27736800Y-77633286D01*
X27809371Y-77597000D01*
X27881943Y-77597000D01*
X27954514Y-77959857D01*
X28172229Y-77306714D02*
X28208514Y-77234143D01*
X28208514Y-77089000D01*
X28172229Y-77016428D01*
X28099657Y-76980143D01*
X28063371Y-76980143D01*
X27990800Y-77016428D01*
X27954514Y-77089000D01*
X27954514Y-77197857D01*
X27918229Y-77270428D01*
X27845657Y-77306714D01*
X27809371Y-77306714D01*
X27736800Y-77270428D01*
X27700514Y-77197857D01*
X27700514Y-77089000D01*
X27736800Y-77016428D01*
X28172229Y-76363286D02*
X28208514Y-76435857D01*
X28208514Y-76581000D01*
X28172229Y-76653571D01*
X28099657Y-76689857D01*
X27809371Y-76689857D01*
X27736800Y-76653571D01*
X27700514Y-76581000D01*
X27700514Y-76435857D01*
X27736800Y-76363286D01*
X27809371Y-76327000D01*
X27881943Y-76327000D01*
X27954514Y-76689857D01*
X28208514Y-75673857D02*
X27809371Y-75673857D01*
X27736800Y-75710143D01*
X27700514Y-75782714D01*
X27700514Y-75927857D01*
X27736800Y-76000428D01*
X28172229Y-75673857D02*
X28208514Y-75746428D01*
X28208514Y-75927857D01*
X28172229Y-76000428D01*
X28099657Y-76036714D01*
X28027086Y-76036714D01*
X27954514Y-76000428D01*
X27918229Y-75927857D01*
X27918229Y-75746428D01*
X27881943Y-75673857D01*
X28208514Y-75310999D02*
X27700514Y-75310999D01*
X27845657Y-75310999D02*
X27773086Y-75274714D01*
X27736800Y-75238428D01*
X27700514Y-75165857D01*
X27700514Y-75093285D01*
X28172229Y-74512714D02*
X28208514Y-74585285D01*
X28208514Y-74730428D01*
X28172229Y-74803000D01*
X28135943Y-74839285D01*
X28063371Y-74875571D01*
X27845657Y-74875571D01*
X27773086Y-74839285D01*
X27736800Y-74803000D01*
X27700514Y-74730428D01*
X27700514Y-74585285D01*
X27736800Y-74512714D01*
X28208514Y-74186142D02*
X27446514Y-74186142D01*
X28208514Y-73859571D02*
X27809371Y-73859571D01*
X27736800Y-73895857D01*
X27700514Y-73968428D01*
X27700514Y-74077285D01*
X27736800Y-74149857D01*
X27773086Y-74186142D01*
X28135943Y-72480714D02*
X28172229Y-72517000D01*
X28208514Y-72625857D01*
X28208514Y-72698428D01*
X28172229Y-72807285D01*
X28099657Y-72879857D01*
X28027086Y-72916142D01*
X27881943Y-72952428D01*
X27773086Y-72952428D01*
X27627943Y-72916142D01*
X27555371Y-72879857D01*
X27482800Y-72807285D01*
X27446514Y-72698428D01*
X27446514Y-72625857D01*
X27482800Y-72517000D01*
X27519086Y-72480714D01*
X28208514Y-71827571D02*
X27809371Y-71827571D01*
X27736800Y-71863857D01*
X27700514Y-71936428D01*
X27700514Y-72081571D01*
X27736800Y-72154142D01*
X28172229Y-71827571D02*
X28208514Y-71900142D01*
X28208514Y-72081571D01*
X28172229Y-72154142D01*
X28099657Y-72190428D01*
X28027086Y-72190428D01*
X27954514Y-72154142D01*
X27918229Y-72081571D01*
X27918229Y-71900142D01*
X27881943Y-71827571D01*
X28208514Y-71464713D02*
X27700514Y-71464713D01*
X27773086Y-71464713D02*
X27736800Y-71428428D01*
X27700514Y-71355856D01*
X27700514Y-71246999D01*
X27736800Y-71174428D01*
X27809371Y-71138142D01*
X28208514Y-71138142D01*
X27809371Y-71138142D02*
X27736800Y-71101856D01*
X27700514Y-71029285D01*
X27700514Y-70920428D01*
X27736800Y-70847856D01*
X27809371Y-70811571D01*
X28208514Y-70811571D01*
X27700514Y-70448713D02*
X28462514Y-70448713D01*
X27736800Y-70448713D02*
X27700514Y-70376142D01*
X27700514Y-70230999D01*
X27736800Y-70158428D01*
X27773086Y-70122142D01*
X27845657Y-70085856D01*
X28063371Y-70085856D01*
X28135943Y-70122142D01*
X28172229Y-70158428D01*
X28208514Y-70230999D01*
X28208514Y-70376142D01*
X28172229Y-70448713D01*
X27700514Y-69432713D02*
X28208514Y-69432713D01*
X27700514Y-69759284D02*
X28099657Y-69759284D01*
X28172229Y-69722999D01*
X28208514Y-69650427D01*
X28208514Y-69541570D01*
X28172229Y-69468999D01*
X28135943Y-69432713D01*
X28172229Y-69106141D02*
X28208514Y-69033570D01*
X28208514Y-68888427D01*
X28172229Y-68815855D01*
X28099657Y-68779570D01*
X28063371Y-68779570D01*
X27990800Y-68815855D01*
X27954514Y-68888427D01*
X27954514Y-68997284D01*
X27918229Y-69069855D01*
X27845657Y-69106141D01*
X27809371Y-69106141D01*
X27736800Y-69069855D01*
X27700514Y-68997284D01*
X27700514Y-68888427D01*
X27736800Y-68815855D01*
X28703814Y-81842427D02*
X28703814Y-81769855D01*
X28740100Y-81697284D01*
X28776386Y-81660998D01*
X28848957Y-81624712D01*
X28994100Y-81588427D01*
X29175529Y-81588427D01*
X29320671Y-81624712D01*
X29393243Y-81660998D01*
X29429529Y-81697284D01*
X29465814Y-81769855D01*
X29465814Y-81842427D01*
X29429529Y-81914998D01*
X29393243Y-81951284D01*
X29320671Y-81987569D01*
X29175529Y-82023855D01*
X28994100Y-82023855D01*
X28848957Y-81987569D01*
X28776386Y-81951284D01*
X28740100Y-81914998D01*
X28703814Y-81842427D01*
X28703814Y-80935284D02*
X28703814Y-81080427D01*
X28740100Y-81152998D01*
X28776386Y-81189284D01*
X28885243Y-81261855D01*
X29030386Y-81298141D01*
X29320671Y-81298141D01*
X29393243Y-81261855D01*
X29429529Y-81225570D01*
X29465814Y-81152998D01*
X29465814Y-81007855D01*
X29429529Y-80935284D01*
X29393243Y-80898998D01*
X29320671Y-80862713D01*
X29139243Y-80862713D01*
X29066671Y-80898998D01*
X29030386Y-80935284D01*
X28994100Y-81007855D01*
X28994100Y-81152998D01*
X29030386Y-81225570D01*
X29066671Y-81261855D01*
X29139243Y-81298141D01*
X28667529Y-79991856D02*
X29647243Y-80644999D01*
X28776386Y-79774141D02*
X28740100Y-79737855D01*
X28703814Y-79665284D01*
X28703814Y-79483855D01*
X28740100Y-79411284D01*
X28776386Y-79374998D01*
X28848957Y-79338713D01*
X28921529Y-79338713D01*
X29030386Y-79374998D01*
X29465814Y-79810427D01*
X29465814Y-79338713D01*
X28703814Y-78866999D02*
X28703814Y-78794427D01*
X28740100Y-78721856D01*
X28776386Y-78685570D01*
X28848957Y-78649284D01*
X28994100Y-78612999D01*
X29175529Y-78612999D01*
X29320671Y-78649284D01*
X29393243Y-78685570D01*
X29429529Y-78721856D01*
X29465814Y-78794427D01*
X29465814Y-78866999D01*
X29429529Y-78939570D01*
X29393243Y-78975856D01*
X29320671Y-79012141D01*
X29175529Y-79048427D01*
X28994100Y-79048427D01*
X28848957Y-79012141D01*
X28776386Y-78975856D01*
X28740100Y-78939570D01*
X28703814Y-78866999D01*
X29465814Y-77887285D02*
X29465814Y-78322713D01*
X29465814Y-78104999D02*
X28703814Y-78104999D01*
X28812671Y-78177570D01*
X28885243Y-78250142D01*
X28921529Y-78322713D01*
X28703814Y-77197856D02*
X28703814Y-77560713D01*
X29066671Y-77596999D01*
X29030386Y-77560713D01*
X28994100Y-77488142D01*
X28994100Y-77306713D01*
X29030386Y-77234142D01*
X29066671Y-77197856D01*
X29139243Y-77161571D01*
X29320671Y-77161571D01*
X29393243Y-77197856D01*
X29429529Y-77234142D01*
X29465814Y-77306713D01*
X29465814Y-77488142D01*
X29429529Y-77560713D01*
X29393243Y-77596999D01*
X28957814Y-76327000D02*
X29465814Y-76145571D01*
X28957814Y-75964143D01*
X29429529Y-75383572D02*
X29465814Y-75456143D01*
X29465814Y-75601286D01*
X29429529Y-75673857D01*
X29356957Y-75710143D01*
X29066671Y-75710143D01*
X28994100Y-75673857D01*
X28957814Y-75601286D01*
X28957814Y-75456143D01*
X28994100Y-75383572D01*
X29066671Y-75347286D01*
X29139243Y-75347286D01*
X29211814Y-75710143D01*
X29465814Y-75020714D02*
X28957814Y-75020714D01*
X29102957Y-75020714D02*
X29030386Y-74984429D01*
X28994100Y-74948143D01*
X28957814Y-74875572D01*
X28957814Y-74803000D01*
X29429529Y-74585286D02*
X29465814Y-74512715D01*
X29465814Y-74367572D01*
X29429529Y-74295000D01*
X29356957Y-74258715D01*
X29320671Y-74258715D01*
X29248100Y-74295000D01*
X29211814Y-74367572D01*
X29211814Y-74476429D01*
X29175529Y-74549000D01*
X29102957Y-74585286D01*
X29066671Y-74585286D01*
X28994100Y-74549000D01*
X28957814Y-74476429D01*
X28957814Y-74367572D01*
X28994100Y-74295000D01*
X29465814Y-73932143D02*
X28957814Y-73932143D01*
X28703814Y-73932143D02*
X28740100Y-73968429D01*
X28776386Y-73932143D01*
X28740100Y-73895858D01*
X28703814Y-73932143D01*
X28776386Y-73932143D01*
X29465814Y-73460429D02*
X29429529Y-73533001D01*
X29393243Y-73569286D01*
X29320671Y-73605572D01*
X29102957Y-73605572D01*
X29030386Y-73569286D01*
X28994100Y-73533001D01*
X28957814Y-73460429D01*
X28957814Y-73351572D01*
X28994100Y-73279001D01*
X29030386Y-73242715D01*
X29102957Y-73206429D01*
X29320671Y-73206429D01*
X29393243Y-73242715D01*
X29429529Y-73279001D01*
X29465814Y-73351572D01*
X29465814Y-73460429D01*
X28957814Y-72879857D02*
X29465814Y-72879857D01*
X29030386Y-72879857D02*
X28994100Y-72843572D01*
X28957814Y-72771000D01*
X28957814Y-72662143D01*
X28994100Y-72589572D01*
X29066671Y-72553286D01*
X29465814Y-72553286D01*
X29465814Y-71210715D02*
X29465814Y-71646143D01*
X29465814Y-71428429D02*
X28703814Y-71428429D01*
X28812671Y-71501000D01*
X28885243Y-71573572D01*
X28921529Y-71646143D01*
X29393243Y-70884143D02*
X29429529Y-70847858D01*
X29465814Y-70884143D01*
X29429529Y-70920429D01*
X29393243Y-70884143D01*
X29465814Y-70884143D01*
X28776386Y-70557572D02*
X28740100Y-70521286D01*
X28703814Y-70448715D01*
X28703814Y-70267286D01*
X28740100Y-70194715D01*
X28776386Y-70158429D01*
X28848957Y-70122144D01*
X28921529Y-70122144D01*
X29030386Y-70158429D01*
X29465814Y-70593858D01*
X29465814Y-70122144D01*
X29961114Y-78141284D02*
X30505400Y-78141284D01*
X30614257Y-78177570D01*
X30686829Y-78250141D01*
X30723114Y-78358998D01*
X30723114Y-78431570D01*
X29961114Y-77633285D02*
X29961114Y-77560713D01*
X29997400Y-77488142D01*
X30033686Y-77451856D01*
X30106257Y-77415570D01*
X30251400Y-77379285D01*
X30432829Y-77379285D01*
X30577971Y-77415570D01*
X30650543Y-77451856D01*
X30686829Y-77488142D01*
X30723114Y-77560713D01*
X30723114Y-77633285D01*
X30686829Y-77705856D01*
X30650543Y-77742142D01*
X30577971Y-77778427D01*
X30432829Y-77814713D01*
X30251400Y-77814713D01*
X30106257Y-77778427D01*
X30033686Y-77742142D01*
X29997400Y-77705856D01*
X29961114Y-77633285D01*
X29961114Y-76907571D02*
X29961114Y-76834999D01*
X29997400Y-76762428D01*
X30033686Y-76726142D01*
X30106257Y-76689856D01*
X30251400Y-76653571D01*
X30432829Y-76653571D01*
X30577971Y-76689856D01*
X30650543Y-76726142D01*
X30686829Y-76762428D01*
X30723114Y-76834999D01*
X30723114Y-76907571D01*
X30686829Y-76980142D01*
X30650543Y-77016428D01*
X30577971Y-77052713D01*
X30432829Y-77088999D01*
X30251400Y-77088999D01*
X30106257Y-77052713D01*
X30033686Y-77016428D01*
X29997400Y-76980142D01*
X29961114Y-76907571D01*
X29961114Y-75964142D02*
X29961114Y-76326999D01*
X30323971Y-76363285D01*
X30287686Y-76326999D01*
X30251400Y-76254428D01*
X30251400Y-76072999D01*
X30287686Y-76000428D01*
X30323971Y-75964142D01*
X30396543Y-75927857D01*
X30577971Y-75927857D01*
X30650543Y-75964142D01*
X30686829Y-76000428D01*
X30723114Y-76072999D01*
X30723114Y-76254428D01*
X30686829Y-76326999D01*
X30650543Y-76363285D01*
X30723114Y-75202143D02*
X30723114Y-75637571D01*
X30723114Y-75419857D02*
X29961114Y-75419857D01*
X30069971Y-75492428D01*
X30142543Y-75565000D01*
X30178829Y-75637571D01*
X29961114Y-74549000D02*
X29961114Y-74694143D01*
X29997400Y-74766714D01*
X30033686Y-74803000D01*
X30142543Y-74875571D01*
X30287686Y-74911857D01*
X30577971Y-74911857D01*
X30650543Y-74875571D01*
X30686829Y-74839286D01*
X30723114Y-74766714D01*
X30723114Y-74621571D01*
X30686829Y-74549000D01*
X30650543Y-74512714D01*
X30577971Y-74476429D01*
X30396543Y-74476429D01*
X30323971Y-74512714D01*
X30287686Y-74549000D01*
X30251400Y-74621571D01*
X30251400Y-74766714D01*
X30287686Y-74839286D01*
X30323971Y-74875571D01*
X30396543Y-74911857D01*
X29961114Y-73823286D02*
X29961114Y-73968429D01*
X29997400Y-74041000D01*
X30033686Y-74077286D01*
X30142543Y-74149857D01*
X30287686Y-74186143D01*
X30577971Y-74186143D01*
X30650543Y-74149857D01*
X30686829Y-74113572D01*
X30723114Y-74041000D01*
X30723114Y-73895857D01*
X30686829Y-73823286D01*
X30650543Y-73787000D01*
X30577971Y-73750715D01*
X30396543Y-73750715D01*
X30323971Y-73787000D01*
X30287686Y-73823286D01*
X30251400Y-73895857D01*
X30251400Y-74041000D01*
X30287686Y-74113572D01*
X30323971Y-74149857D01*
X30396543Y-74186143D01*
D13*
X44325117Y-80675238D02*
X45679783Y-80675238D01*
X44808926Y-82707238D01*
X44905688Y-27335238D02*
X45099212Y-27335238D01*
X45292736Y-27432000D01*
X45389498Y-27528762D01*
X45486260Y-27722286D01*
X45583021Y-28109333D01*
X45583021Y-28593143D01*
X45486260Y-28980190D01*
X45389498Y-29173714D01*
X45292736Y-29270476D01*
X45099212Y-29367238D01*
X44905688Y-29367238D01*
X44712164Y-29270476D01*
X44615402Y-29173714D01*
X44518641Y-28980190D01*
X44421879Y-28593143D01*
X44421879Y-28109333D01*
X44518641Y-27722286D01*
X44615402Y-27528762D01*
X44712164Y-27432000D01*
X44905688Y-27335238D01*
X45389498Y-73055238D02*
X45002450Y-73055238D01*
X44808926Y-73152000D01*
X44712164Y-73248762D01*
X44518641Y-73539048D01*
X44421879Y-73926095D01*
X44421879Y-74700190D01*
X44518641Y-74893714D01*
X44615402Y-74990476D01*
X44808926Y-75087238D01*
X45195974Y-75087238D01*
X45389498Y-74990476D01*
X45486260Y-74893714D01*
X45583021Y-74700190D01*
X45583021Y-74216381D01*
X45486260Y-74022857D01*
X45389498Y-73926095D01*
X45195974Y-73829333D01*
X44808926Y-73829333D01*
X44615402Y-73926095D01*
X44518641Y-74022857D01*
X44421879Y-74216381D01*
X45486260Y-65435238D02*
X44518641Y-65435238D01*
X44421879Y-66402857D01*
X44518641Y-66306095D01*
X44712164Y-66209333D01*
X45195974Y-66209333D01*
X45389498Y-66306095D01*
X45486260Y-66402857D01*
X45583021Y-66596381D01*
X45583021Y-67080190D01*
X45486260Y-67273714D01*
X45389498Y-67370476D01*
X45195974Y-67467238D01*
X44712164Y-67467238D01*
X44518641Y-67370476D01*
X44421879Y-67273714D01*
X45389498Y-58492571D02*
X45389498Y-59847238D01*
X44905688Y-57718476D02*
X44421879Y-59169905D01*
X45679783Y-59169905D01*
X44325117Y-50195238D02*
X45583021Y-50195238D01*
X44905688Y-50969333D01*
X45195974Y-50969333D01*
X45389498Y-51066095D01*
X45486260Y-51162857D01*
X45583021Y-51356381D01*
X45583021Y-51840190D01*
X45486260Y-52033714D01*
X45389498Y-52130476D01*
X45195974Y-52227238D01*
X44615402Y-52227238D01*
X44421879Y-52130476D01*
X44325117Y-52033714D01*
X44421879Y-42768762D02*
X44518641Y-42672000D01*
X44712164Y-42575238D01*
X45195974Y-42575238D01*
X45389498Y-42672000D01*
X45486260Y-42768762D01*
X45583021Y-42962286D01*
X45583021Y-43155810D01*
X45486260Y-43446095D01*
X44325117Y-44607238D01*
X45583021Y-44607238D01*
X45583021Y-36987238D02*
X44421879Y-36987238D01*
X45002450Y-36987238D02*
X45002450Y-34955238D01*
X44808926Y-35245524D01*
X44615402Y-35439048D01*
X44421879Y-35535810D01*
D14*
X49110900Y-28448000D02*
G75*
G03X49110900Y-28448000I-3556000J0D01*
G01*
X49110900Y-36068000D02*
G75*
G03X49110900Y-36068000I-3556000J0D01*
G01*
X49110900Y-43688000D02*
G75*
G03X49110900Y-43688000I-3556000J0D01*
G01*
X49110900Y-51308000D02*
G75*
G03X49110900Y-51308000I-3556000J0D01*
G01*
X49110900Y-58928000D02*
G75*
G03X49110900Y-58928000I-3556000J0D01*
G01*
X49110900Y-66548000D02*
G75*
G03X49110900Y-66548000I-3556000J0D01*
G01*
X49110900Y-74168000D02*
G75*
G03X49110900Y-74168000I-3556000J0D01*
G01*
X49110900Y-81788000D02*
G75*
G03X49110900Y-81788000I-3556000J0D01*
G01*
X36322000Y-67818000D02*
X36322000Y-42418000D01*
X27178000Y-67818000D02*
X27178000Y-42418000D01*
X27178000Y-67818000D02*
X36322000Y-67818000D01*
X27178000Y-42418000D02*
X36322000Y-42418000D01*
X27178000Y-47498000D02*
X25908000Y-46228000D01*
X25908000Y-46228000D02*
X25908000Y-48768000D01*
X25908000Y-48768000D02*
X27178000Y-47498000D01*
D11*
X38874700Y-74168000D02*
G75*
G03X38874700Y-74168000I-2540000J0D01*
G01*
X38874700Y-36068000D02*
G75*
G03X38874700Y-36068000I-2540000J0D01*
G01*
D15*
X40176400Y-31750000D02*
X40176400Y-32385000D01*
X40176400Y-32385000D02*
X40938400Y-32385000D01*
X40938400Y-32385000D02*
X40938400Y-31750000D01*
X40176400Y-31496000D02*
X40176400Y-30861000D01*
X40176400Y-30861000D02*
X40938400Y-30861000D01*
X40938400Y-30861000D02*
X40938400Y-31496000D01*
X40176400Y-39370000D02*
X40176400Y-40005000D01*
X40176400Y-40005000D02*
X40938400Y-40005000D01*
X40938400Y-40005000D02*
X40938400Y-39370000D01*
X40176400Y-39116000D02*
X40176400Y-38481000D01*
X40176400Y-38481000D02*
X40938400Y-38481000D01*
X40938400Y-38481000D02*
X40938400Y-39116000D01*
X40176400Y-46990000D02*
X40176400Y-47625000D01*
X40176400Y-47625000D02*
X40938400Y-47625000D01*
X40938400Y-47625000D02*
X40938400Y-46990000D01*
X40176400Y-46736000D02*
X40176400Y-46101000D01*
X40176400Y-46101000D02*
X40938400Y-46101000D01*
X40938400Y-46101000D02*
X40938400Y-46736000D01*
X40176400Y-54610000D02*
X40176400Y-55245000D01*
X40176400Y-55245000D02*
X40938400Y-55245000D01*
X40938400Y-55245000D02*
X40938400Y-54610000D01*
X40176400Y-54356000D02*
X40176400Y-53721000D01*
X40176400Y-53721000D02*
X40938400Y-53721000D01*
X40938400Y-53721000D02*
X40938400Y-54356000D01*
X40176400Y-62230000D02*
X40176400Y-62865000D01*
X40176400Y-62865000D02*
X40938400Y-62865000D01*
X40938400Y-62865000D02*
X40938400Y-62230000D01*
X40176400Y-61976000D02*
X40176400Y-61341000D01*
X40176400Y-61341000D02*
X40938400Y-61341000D01*
X40938400Y-61341000D02*
X40938400Y-61976000D01*
X40176400Y-69850000D02*
X40176400Y-70485000D01*
X40176400Y-70485000D02*
X40938400Y-70485000D01*
X40938400Y-70485000D02*
X40938400Y-69850000D01*
X40176400Y-69596000D02*
X40176400Y-68961000D01*
X40176400Y-68961000D02*
X40938400Y-68961000D01*
X40938400Y-68961000D02*
X40938400Y-69596000D01*
X40176400Y-77470000D02*
X40176400Y-78105000D01*
X40176400Y-78105000D02*
X40938400Y-78105000D01*
X40938400Y-78105000D02*
X40938400Y-77470000D01*
X40176400Y-77216000D02*
X40176400Y-76581000D01*
X40176400Y-76581000D02*
X40938400Y-76581000D01*
X40938400Y-76581000D02*
X40938400Y-77216000D01*
X38525400Y-81407000D02*
X37890400Y-81407000D01*
X37890400Y-81407000D02*
X37890400Y-82169000D01*
X37890400Y-82169000D02*
X38525400Y-82169000D01*
X38779400Y-81407000D02*
X39414400Y-81407000D01*
X39414400Y-81407000D02*
X39414400Y-82169000D01*
X39414400Y-82169000D02*
X38779400Y-82169000D01*
X39922400Y-28829000D02*
X40557400Y-28448000D01*
X40557400Y-28448000D02*
X41192400Y-28829000D01*
X39922400Y-28829000D02*
X41192400Y-28829000D01*
X40430400Y-28321000D02*
X40684400Y-28321000D01*
X40684400Y-28321000D02*
X40684400Y-28067000D01*
X40684400Y-28067000D02*
X40430400Y-28067000D01*
X40430400Y-28067000D02*
X40430400Y-28321000D01*
X39922400Y-36449000D02*
X40557400Y-36068000D01*
X40557400Y-36068000D02*
X41192400Y-36449000D01*
X39922400Y-36449000D02*
X41192400Y-36449000D01*
X40430400Y-35941000D02*
X40684400Y-35941000D01*
X40684400Y-35941000D02*
X40684400Y-35687000D01*
X40684400Y-35687000D02*
X40430400Y-35687000D01*
X40430400Y-35687000D02*
X40430400Y-35941000D01*
X39922400Y-44069000D02*
X40557400Y-43688000D01*
X40557400Y-43688000D02*
X41192400Y-44069000D01*
X39922400Y-44069000D02*
X41192400Y-44069000D01*
X40430400Y-43561000D02*
X40684400Y-43561000D01*
X40684400Y-43561000D02*
X40684400Y-43307000D01*
X40684400Y-43307000D02*
X40430400Y-43307000D01*
X40430400Y-43307000D02*
X40430400Y-43561000D01*
X39922400Y-51689000D02*
X40557400Y-51308000D01*
X40557400Y-51308000D02*
X41192400Y-51689000D01*
X39922400Y-51689000D02*
X41192400Y-51689000D01*
X40430400Y-51181000D02*
X40684400Y-51181000D01*
X40684400Y-51181000D02*
X40684400Y-50927000D01*
X40684400Y-50927000D02*
X40430400Y-50927000D01*
X40430400Y-50927000D02*
X40430400Y-51181000D01*
X39922400Y-59309000D02*
X40557400Y-58928000D01*
X40557400Y-58928000D02*
X41192400Y-59309000D01*
X39922400Y-59309000D02*
X41192400Y-59309000D01*
X40430400Y-58801000D02*
X40684400Y-58801000D01*
X40684400Y-58801000D02*
X40684400Y-58547000D01*
X40684400Y-58547000D02*
X40430400Y-58547000D01*
X40430400Y-58547000D02*
X40430400Y-58801000D01*
X39922400Y-66929000D02*
X40557400Y-66548000D01*
X40557400Y-66548000D02*
X41192400Y-66929000D01*
X39922400Y-66929000D02*
X41192400Y-66929000D01*
X40430400Y-66421000D02*
X40684400Y-66421000D01*
X40684400Y-66421000D02*
X40684400Y-66167000D01*
X40684400Y-66167000D02*
X40430400Y-66167000D01*
X40430400Y-66167000D02*
X40430400Y-66421000D01*
X39922400Y-74549000D02*
X40557400Y-74168000D01*
X40557400Y-74168000D02*
X41192400Y-74549000D01*
X39922400Y-74549000D02*
X41192400Y-74549000D01*
X40430400Y-74041000D02*
X40684400Y-74041000D01*
X40684400Y-74041000D02*
X40684400Y-73787000D01*
X40684400Y-73787000D02*
X40430400Y-73787000D01*
X40430400Y-73787000D02*
X40430400Y-74041000D01*
X39922400Y-82169000D02*
X40557400Y-81788000D01*
X40557400Y-81788000D02*
X41192400Y-82169000D01*
X39922400Y-82169000D02*
X41192400Y-82169000D01*
X40430400Y-81661000D02*
X40684400Y-81661000D01*
X40684400Y-81661000D02*
X40684400Y-81407000D01*
X40684400Y-81407000D02*
X40430400Y-81407000D01*
X40430400Y-81407000D02*
X40430400Y-81661000D01*
D16*
X43553138Y-29222095D02*
X43601519Y-29076952D01*
X43601519Y-28835048D01*
X43553138Y-28738286D01*
X43504757Y-28689905D01*
X43407995Y-28641524D01*
X43311233Y-28641524D01*
X43214471Y-28689905D01*
X43166090Y-28738286D01*
X43117710Y-28835048D01*
X43069329Y-29028571D01*
X43020948Y-29125333D01*
X42972567Y-29173714D01*
X42875805Y-29222095D01*
X42779043Y-29222095D01*
X42682281Y-29173714D01*
X42633900Y-29125333D01*
X42585519Y-29028571D01*
X42585519Y-28786667D01*
X42633900Y-28641524D01*
X43601519Y-27673905D02*
X43601519Y-28254476D01*
X43601519Y-27964190D02*
X42585519Y-27964190D01*
X42730662Y-28060952D01*
X42827424Y-28157714D01*
X42875805Y-28254476D01*
X43553138Y-36842095D02*
X43601519Y-36696952D01*
X43601519Y-36455048D01*
X43553138Y-36358286D01*
X43504757Y-36309905D01*
X43407995Y-36261524D01*
X43311233Y-36261524D01*
X43214471Y-36309905D01*
X43166090Y-36358286D01*
X43117710Y-36455048D01*
X43069329Y-36648571D01*
X43020948Y-36745333D01*
X42972567Y-36793714D01*
X42875805Y-36842095D01*
X42779043Y-36842095D01*
X42682281Y-36793714D01*
X42633900Y-36745333D01*
X42585519Y-36648571D01*
X42585519Y-36406667D01*
X42633900Y-36261524D01*
X42682281Y-35874476D02*
X42633900Y-35826095D01*
X42585519Y-35729333D01*
X42585519Y-35487429D01*
X42633900Y-35390667D01*
X42682281Y-35342286D01*
X42779043Y-35293905D01*
X42875805Y-35293905D01*
X43020948Y-35342286D01*
X43601519Y-35922857D01*
X43601519Y-35293905D01*
X43553138Y-44462095D02*
X43601519Y-44316952D01*
X43601519Y-44075048D01*
X43553138Y-43978286D01*
X43504757Y-43929905D01*
X43407995Y-43881524D01*
X43311233Y-43881524D01*
X43214471Y-43929905D01*
X43166090Y-43978286D01*
X43117710Y-44075048D01*
X43069329Y-44268571D01*
X43020948Y-44365333D01*
X42972567Y-44413714D01*
X42875805Y-44462095D01*
X42779043Y-44462095D01*
X42682281Y-44413714D01*
X42633900Y-44365333D01*
X42585519Y-44268571D01*
X42585519Y-44026667D01*
X42633900Y-43881524D01*
X42585519Y-43542857D02*
X42585519Y-42913905D01*
X42972567Y-43252571D01*
X42972567Y-43107429D01*
X43020948Y-43010667D01*
X43069329Y-42962286D01*
X43166090Y-42913905D01*
X43407995Y-42913905D01*
X43504757Y-42962286D01*
X43553138Y-43010667D01*
X43601519Y-43107429D01*
X43601519Y-43397714D01*
X43553138Y-43494476D01*
X43504757Y-43542857D01*
X43553138Y-52082095D02*
X43601519Y-51936952D01*
X43601519Y-51695048D01*
X43553138Y-51598286D01*
X43504757Y-51549905D01*
X43407995Y-51501524D01*
X43311233Y-51501524D01*
X43214471Y-51549905D01*
X43166090Y-51598286D01*
X43117710Y-51695048D01*
X43069329Y-51888571D01*
X43020948Y-51985333D01*
X42972567Y-52033714D01*
X42875805Y-52082095D01*
X42779043Y-52082095D01*
X42682281Y-52033714D01*
X42633900Y-51985333D01*
X42585519Y-51888571D01*
X42585519Y-51646667D01*
X42633900Y-51501524D01*
X42924186Y-50630667D02*
X43601519Y-50630667D01*
X42537138Y-50872571D02*
X43262852Y-51114476D01*
X43262852Y-50485524D01*
X43553138Y-59702095D02*
X43601519Y-59556952D01*
X43601519Y-59315048D01*
X43553138Y-59218286D01*
X43504757Y-59169905D01*
X43407995Y-59121524D01*
X43311233Y-59121524D01*
X43214471Y-59169905D01*
X43166090Y-59218286D01*
X43117710Y-59315048D01*
X43069329Y-59508571D01*
X43020948Y-59605333D01*
X42972567Y-59653714D01*
X42875805Y-59702095D01*
X42779043Y-59702095D01*
X42682281Y-59653714D01*
X42633900Y-59605333D01*
X42585519Y-59508571D01*
X42585519Y-59266667D01*
X42633900Y-59121524D01*
X42585519Y-58202286D02*
X42585519Y-58686095D01*
X43069329Y-58734476D01*
X43020948Y-58686095D01*
X42972567Y-58589333D01*
X42972567Y-58347429D01*
X43020948Y-58250667D01*
X43069329Y-58202286D01*
X43166090Y-58153905D01*
X43407995Y-58153905D01*
X43504757Y-58202286D01*
X43553138Y-58250667D01*
X43601519Y-58347429D01*
X43601519Y-58589333D01*
X43553138Y-58686095D01*
X43504757Y-58734476D01*
X43553138Y-67322095D02*
X43601519Y-67176952D01*
X43601519Y-66935048D01*
X43553138Y-66838286D01*
X43504757Y-66789905D01*
X43407995Y-66741524D01*
X43311233Y-66741524D01*
X43214471Y-66789905D01*
X43166090Y-66838286D01*
X43117710Y-66935048D01*
X43069329Y-67128571D01*
X43020948Y-67225333D01*
X42972567Y-67273714D01*
X42875805Y-67322095D01*
X42779043Y-67322095D01*
X42682281Y-67273714D01*
X42633900Y-67225333D01*
X42585519Y-67128571D01*
X42585519Y-66886667D01*
X42633900Y-66741524D01*
X42585519Y-65870667D02*
X42585519Y-66064190D01*
X42633900Y-66160952D01*
X42682281Y-66209333D01*
X42827424Y-66306095D01*
X43020948Y-66354476D01*
X43407995Y-66354476D01*
X43504757Y-66306095D01*
X43553138Y-66257714D01*
X43601519Y-66160952D01*
X43601519Y-65967429D01*
X43553138Y-65870667D01*
X43504757Y-65822286D01*
X43407995Y-65773905D01*
X43166090Y-65773905D01*
X43069329Y-65822286D01*
X43020948Y-65870667D01*
X42972567Y-65967429D01*
X42972567Y-66160952D01*
X43020948Y-66257714D01*
X43069329Y-66306095D01*
X43166090Y-66354476D01*
X43553138Y-74942095D02*
X43601519Y-74796952D01*
X43601519Y-74555048D01*
X43553138Y-74458286D01*
X43504757Y-74409905D01*
X43407995Y-74361524D01*
X43311233Y-74361524D01*
X43214471Y-74409905D01*
X43166090Y-74458286D01*
X43117710Y-74555048D01*
X43069329Y-74748571D01*
X43020948Y-74845333D01*
X42972567Y-74893714D01*
X42875805Y-74942095D01*
X42779043Y-74942095D01*
X42682281Y-74893714D01*
X42633900Y-74845333D01*
X42585519Y-74748571D01*
X42585519Y-74506667D01*
X42633900Y-74361524D01*
X42585519Y-74022857D02*
X42585519Y-73345524D01*
X43601519Y-73780952D01*
X43553138Y-82562095D02*
X43601519Y-82416952D01*
X43601519Y-82175048D01*
X43553138Y-82078286D01*
X43504757Y-82029905D01*
X43407995Y-81981524D01*
X43311233Y-81981524D01*
X43214471Y-82029905D01*
X43166090Y-82078286D01*
X43117710Y-82175048D01*
X43069329Y-82368571D01*
X43020948Y-82465333D01*
X42972567Y-82513714D01*
X42875805Y-82562095D01*
X42779043Y-82562095D01*
X42682281Y-82513714D01*
X42633900Y-82465333D01*
X42585519Y-82368571D01*
X42585519Y-82126667D01*
X42633900Y-81981524D01*
X43020948Y-81400952D02*
X42972567Y-81497714D01*
X42924186Y-81546095D01*
X42827424Y-81594476D01*
X42779043Y-81594476D01*
X42682281Y-81546095D01*
X42633900Y-81497714D01*
X42585519Y-81400952D01*
X42585519Y-81207429D01*
X42633900Y-81110667D01*
X42682281Y-81062286D01*
X42779043Y-81013905D01*
X42827424Y-81013905D01*
X42924186Y-81062286D01*
X42972567Y-81110667D01*
X43020948Y-81207429D01*
X43020948Y-81400952D01*
X43069329Y-81497714D01*
X43117710Y-81546095D01*
X43214471Y-81594476D01*
X43407995Y-81594476D01*
X43504757Y-81546095D01*
X43553138Y-81497714D01*
X43601519Y-81400952D01*
X43601519Y-81207429D01*
X43553138Y-81110667D01*
X43504757Y-81062286D01*
X43407995Y-81013905D01*
X43214471Y-81013905D01*
X43117710Y-81062286D01*
X43069329Y-81110667D01*
X43020948Y-81207429D01*
X38305619Y-55867904D02*
X37289619Y-55867904D01*
X37289619Y-55480857D01*
X37338000Y-55384095D01*
X37386381Y-55335714D01*
X37483143Y-55287333D01*
X37628286Y-55287333D01*
X37725048Y-55335714D01*
X37773429Y-55384095D01*
X37821810Y-55480857D01*
X37821810Y-55867904D01*
X38305619Y-54319714D02*
X38305619Y-54900285D01*
X38305619Y-54609999D02*
X37289619Y-54609999D01*
X37434762Y-54706761D01*
X37531524Y-54803523D01*
X37579905Y-54900285D01*
D15*
X40230828Y-32995810D02*
X40061495Y-32753905D01*
X39940542Y-32995810D02*
X39940542Y-32487810D01*
X40134066Y-32487810D01*
X40182447Y-32512000D01*
X40206638Y-32536190D01*
X40230828Y-32584571D01*
X40230828Y-32657143D01*
X40206638Y-32705524D01*
X40182447Y-32729714D01*
X40134066Y-32753905D01*
X39940542Y-32753905D01*
X40714638Y-32995810D02*
X40424352Y-32995810D01*
X40569495Y-32995810D02*
X40569495Y-32487810D01*
X40521114Y-32560381D01*
X40472733Y-32608762D01*
X40424352Y-32632952D01*
X40883971Y-32487810D02*
X41222638Y-32487810D01*
X41004924Y-32995810D01*
X39517210Y-32276144D02*
X39517210Y-31961667D01*
X39710733Y-32131001D01*
X39710733Y-32058429D01*
X39734924Y-32010048D01*
X39759114Y-31985858D01*
X39807495Y-31961667D01*
X39928448Y-31961667D01*
X39976829Y-31985858D01*
X40001019Y-32010048D01*
X40025210Y-32058429D01*
X40025210Y-32203572D01*
X40001019Y-32251953D01*
X39976829Y-32276144D01*
X39517210Y-31647191D02*
X39517210Y-31598810D01*
X39541400Y-31550429D01*
X39565590Y-31526238D01*
X39613971Y-31502048D01*
X39710733Y-31477857D01*
X39831686Y-31477857D01*
X39928448Y-31502048D01*
X39976829Y-31526238D01*
X40001019Y-31550429D01*
X40025210Y-31598810D01*
X40025210Y-31647191D01*
X40001019Y-31695572D01*
X39976829Y-31719762D01*
X39928448Y-31743953D01*
X39831686Y-31768143D01*
X39710733Y-31768143D01*
X39613971Y-31743953D01*
X39565590Y-31719762D01*
X39541400Y-31695572D01*
X39517210Y-31647191D01*
X39517210Y-31163381D02*
X39517210Y-31115000D01*
X39541400Y-31066619D01*
X39565590Y-31042428D01*
X39613971Y-31018238D01*
X39710733Y-30994047D01*
X39831686Y-30994047D01*
X39928448Y-31018238D01*
X39976829Y-31042428D01*
X40001019Y-31066619D01*
X40025210Y-31115000D01*
X40025210Y-31163381D01*
X40001019Y-31211762D01*
X39976829Y-31235952D01*
X39928448Y-31260143D01*
X39831686Y-31284333D01*
X39710733Y-31284333D01*
X39613971Y-31260143D01*
X39565590Y-31235952D01*
X39541400Y-31211762D01*
X39517210Y-31163381D01*
X40230828Y-40615810D02*
X40061495Y-40373905D01*
X39940542Y-40615810D02*
X39940542Y-40107810D01*
X40134066Y-40107810D01*
X40182447Y-40132000D01*
X40206638Y-40156190D01*
X40230828Y-40204571D01*
X40230828Y-40277143D01*
X40206638Y-40325524D01*
X40182447Y-40349714D01*
X40134066Y-40373905D01*
X39940542Y-40373905D01*
X40714638Y-40615810D02*
X40424352Y-40615810D01*
X40569495Y-40615810D02*
X40569495Y-40107810D01*
X40521114Y-40180381D01*
X40472733Y-40228762D01*
X40424352Y-40252952D01*
X41004924Y-40325524D02*
X40956543Y-40301333D01*
X40932352Y-40277143D01*
X40908162Y-40228762D01*
X40908162Y-40204571D01*
X40932352Y-40156190D01*
X40956543Y-40132000D01*
X41004924Y-40107810D01*
X41101686Y-40107810D01*
X41150067Y-40132000D01*
X41174257Y-40156190D01*
X41198448Y-40204571D01*
X41198448Y-40228762D01*
X41174257Y-40277143D01*
X41150067Y-40301333D01*
X41101686Y-40325524D01*
X41004924Y-40325524D01*
X40956543Y-40349714D01*
X40932352Y-40373905D01*
X40908162Y-40422286D01*
X40908162Y-40519048D01*
X40932352Y-40567429D01*
X40956543Y-40591619D01*
X41004924Y-40615810D01*
X41101686Y-40615810D01*
X41150067Y-40591619D01*
X41174257Y-40567429D01*
X41198448Y-40519048D01*
X41198448Y-40422286D01*
X41174257Y-40373905D01*
X41150067Y-40349714D01*
X41101686Y-40325524D01*
X39517210Y-39896144D02*
X39517210Y-39581667D01*
X39710733Y-39751001D01*
X39710733Y-39678429D01*
X39734924Y-39630048D01*
X39759114Y-39605858D01*
X39807495Y-39581667D01*
X39928448Y-39581667D01*
X39976829Y-39605858D01*
X40001019Y-39630048D01*
X40025210Y-39678429D01*
X40025210Y-39823572D01*
X40001019Y-39871953D01*
X39976829Y-39896144D01*
X39517210Y-39267191D02*
X39517210Y-39218810D01*
X39541400Y-39170429D01*
X39565590Y-39146238D01*
X39613971Y-39122048D01*
X39710733Y-39097857D01*
X39831686Y-39097857D01*
X39928448Y-39122048D01*
X39976829Y-39146238D01*
X40001019Y-39170429D01*
X40025210Y-39218810D01*
X40025210Y-39267191D01*
X40001019Y-39315572D01*
X39976829Y-39339762D01*
X39928448Y-39363953D01*
X39831686Y-39388143D01*
X39710733Y-39388143D01*
X39613971Y-39363953D01*
X39565590Y-39339762D01*
X39541400Y-39315572D01*
X39517210Y-39267191D01*
X39517210Y-38783381D02*
X39517210Y-38735000D01*
X39541400Y-38686619D01*
X39565590Y-38662428D01*
X39613971Y-38638238D01*
X39710733Y-38614047D01*
X39831686Y-38614047D01*
X39928448Y-38638238D01*
X39976829Y-38662428D01*
X40001019Y-38686619D01*
X40025210Y-38735000D01*
X40025210Y-38783381D01*
X40001019Y-38831762D01*
X39976829Y-38855952D01*
X39928448Y-38880143D01*
X39831686Y-38904333D01*
X39710733Y-38904333D01*
X39613971Y-38880143D01*
X39565590Y-38855952D01*
X39541400Y-38831762D01*
X39517210Y-38783381D01*
X40230828Y-48235810D02*
X40061495Y-47993905D01*
X39940542Y-48235810D02*
X39940542Y-47727810D01*
X40134066Y-47727810D01*
X40182447Y-47752000D01*
X40206638Y-47776190D01*
X40230828Y-47824571D01*
X40230828Y-47897143D01*
X40206638Y-47945524D01*
X40182447Y-47969714D01*
X40134066Y-47993905D01*
X39940542Y-47993905D01*
X40714638Y-48235810D02*
X40424352Y-48235810D01*
X40569495Y-48235810D02*
X40569495Y-47727810D01*
X40521114Y-47800381D01*
X40472733Y-47848762D01*
X40424352Y-47872952D01*
X40956543Y-48235810D02*
X41053305Y-48235810D01*
X41101686Y-48211619D01*
X41125876Y-48187429D01*
X41174257Y-48114857D01*
X41198448Y-48018095D01*
X41198448Y-47824571D01*
X41174257Y-47776190D01*
X41150067Y-47752000D01*
X41101686Y-47727810D01*
X41004924Y-47727810D01*
X40956543Y-47752000D01*
X40932352Y-47776190D01*
X40908162Y-47824571D01*
X40908162Y-47945524D01*
X40932352Y-47993905D01*
X40956543Y-48018095D01*
X41004924Y-48042286D01*
X41101686Y-48042286D01*
X41150067Y-48018095D01*
X41174257Y-47993905D01*
X41198448Y-47945524D01*
X39517210Y-47516144D02*
X39517210Y-47201667D01*
X39710733Y-47371001D01*
X39710733Y-47298429D01*
X39734924Y-47250048D01*
X39759114Y-47225858D01*
X39807495Y-47201667D01*
X39928448Y-47201667D01*
X39976829Y-47225858D01*
X40001019Y-47250048D01*
X40025210Y-47298429D01*
X40025210Y-47443572D01*
X40001019Y-47491953D01*
X39976829Y-47516144D01*
X39517210Y-46887191D02*
X39517210Y-46838810D01*
X39541400Y-46790429D01*
X39565590Y-46766238D01*
X39613971Y-46742048D01*
X39710733Y-46717857D01*
X39831686Y-46717857D01*
X39928448Y-46742048D01*
X39976829Y-46766238D01*
X40001019Y-46790429D01*
X40025210Y-46838810D01*
X40025210Y-46887191D01*
X40001019Y-46935572D01*
X39976829Y-46959762D01*
X39928448Y-46983953D01*
X39831686Y-47008143D01*
X39710733Y-47008143D01*
X39613971Y-46983953D01*
X39565590Y-46959762D01*
X39541400Y-46935572D01*
X39517210Y-46887191D01*
X39517210Y-46403381D02*
X39517210Y-46355000D01*
X39541400Y-46306619D01*
X39565590Y-46282428D01*
X39613971Y-46258238D01*
X39710733Y-46234047D01*
X39831686Y-46234047D01*
X39928448Y-46258238D01*
X39976829Y-46282428D01*
X40001019Y-46306619D01*
X40025210Y-46355000D01*
X40025210Y-46403381D01*
X40001019Y-46451762D01*
X39976829Y-46475952D01*
X39928448Y-46500143D01*
X39831686Y-46524333D01*
X39710733Y-46524333D01*
X39613971Y-46500143D01*
X39565590Y-46475952D01*
X39541400Y-46451762D01*
X39517210Y-46403381D01*
X40230828Y-55855810D02*
X40061495Y-55613905D01*
X39940542Y-55855810D02*
X39940542Y-55347810D01*
X40134066Y-55347810D01*
X40182447Y-55372000D01*
X40206638Y-55396190D01*
X40230828Y-55444571D01*
X40230828Y-55517143D01*
X40206638Y-55565524D01*
X40182447Y-55589714D01*
X40134066Y-55613905D01*
X39940542Y-55613905D01*
X40424352Y-55396190D02*
X40448542Y-55372000D01*
X40496923Y-55347810D01*
X40617876Y-55347810D01*
X40666257Y-55372000D01*
X40690447Y-55396190D01*
X40714638Y-55444571D01*
X40714638Y-55492952D01*
X40690447Y-55565524D01*
X40400161Y-55855810D01*
X40714638Y-55855810D01*
X41029114Y-55347810D02*
X41077495Y-55347810D01*
X41125876Y-55372000D01*
X41150067Y-55396190D01*
X41174257Y-55444571D01*
X41198448Y-55541333D01*
X41198448Y-55662286D01*
X41174257Y-55759048D01*
X41150067Y-55807429D01*
X41125876Y-55831619D01*
X41077495Y-55855810D01*
X41029114Y-55855810D01*
X40980733Y-55831619D01*
X40956543Y-55807429D01*
X40932352Y-55759048D01*
X40908162Y-55662286D01*
X40908162Y-55541333D01*
X40932352Y-55444571D01*
X40956543Y-55396190D01*
X40980733Y-55372000D01*
X41029114Y-55347810D01*
X39517210Y-55136144D02*
X39517210Y-54821667D01*
X39710733Y-54991001D01*
X39710733Y-54918429D01*
X39734924Y-54870048D01*
X39759114Y-54845858D01*
X39807495Y-54821667D01*
X39928448Y-54821667D01*
X39976829Y-54845858D01*
X40001019Y-54870048D01*
X40025210Y-54918429D01*
X40025210Y-55063572D01*
X40001019Y-55111953D01*
X39976829Y-55136144D01*
X39517210Y-54507191D02*
X39517210Y-54458810D01*
X39541400Y-54410429D01*
X39565590Y-54386238D01*
X39613971Y-54362048D01*
X39710733Y-54337857D01*
X39831686Y-54337857D01*
X39928448Y-54362048D01*
X39976829Y-54386238D01*
X40001019Y-54410429D01*
X40025210Y-54458810D01*
X40025210Y-54507191D01*
X40001019Y-54555572D01*
X39976829Y-54579762D01*
X39928448Y-54603953D01*
X39831686Y-54628143D01*
X39710733Y-54628143D01*
X39613971Y-54603953D01*
X39565590Y-54579762D01*
X39541400Y-54555572D01*
X39517210Y-54507191D01*
X39517210Y-54023381D02*
X39517210Y-53975000D01*
X39541400Y-53926619D01*
X39565590Y-53902428D01*
X39613971Y-53878238D01*
X39710733Y-53854047D01*
X39831686Y-53854047D01*
X39928448Y-53878238D01*
X39976829Y-53902428D01*
X40001019Y-53926619D01*
X40025210Y-53975000D01*
X40025210Y-54023381D01*
X40001019Y-54071762D01*
X39976829Y-54095952D01*
X39928448Y-54120143D01*
X39831686Y-54144333D01*
X39710733Y-54144333D01*
X39613971Y-54120143D01*
X39565590Y-54095952D01*
X39541400Y-54071762D01*
X39517210Y-54023381D01*
X40230828Y-63475810D02*
X40061495Y-63233905D01*
X39940542Y-63475810D02*
X39940542Y-62967810D01*
X40134066Y-62967810D01*
X40182447Y-62992000D01*
X40206638Y-63016190D01*
X40230828Y-63064571D01*
X40230828Y-63137143D01*
X40206638Y-63185524D01*
X40182447Y-63209714D01*
X40134066Y-63233905D01*
X39940542Y-63233905D01*
X40424352Y-63016190D02*
X40448542Y-62992000D01*
X40496923Y-62967810D01*
X40617876Y-62967810D01*
X40666257Y-62992000D01*
X40690447Y-63016190D01*
X40714638Y-63064571D01*
X40714638Y-63112952D01*
X40690447Y-63185524D01*
X40400161Y-63475810D01*
X40714638Y-63475810D01*
X41198448Y-63475810D02*
X40908162Y-63475810D01*
X41053305Y-63475810D02*
X41053305Y-62967810D01*
X41004924Y-63040381D01*
X40956543Y-63088762D01*
X40908162Y-63112952D01*
X39517210Y-62756144D02*
X39517210Y-62441667D01*
X39710733Y-62611001D01*
X39710733Y-62538429D01*
X39734924Y-62490048D01*
X39759114Y-62465858D01*
X39807495Y-62441667D01*
X39928448Y-62441667D01*
X39976829Y-62465858D01*
X40001019Y-62490048D01*
X40025210Y-62538429D01*
X40025210Y-62683572D01*
X40001019Y-62731953D01*
X39976829Y-62756144D01*
X39517210Y-62127191D02*
X39517210Y-62078810D01*
X39541400Y-62030429D01*
X39565590Y-62006238D01*
X39613971Y-61982048D01*
X39710733Y-61957857D01*
X39831686Y-61957857D01*
X39928448Y-61982048D01*
X39976829Y-62006238D01*
X40001019Y-62030429D01*
X40025210Y-62078810D01*
X40025210Y-62127191D01*
X40001019Y-62175572D01*
X39976829Y-62199762D01*
X39928448Y-62223953D01*
X39831686Y-62248143D01*
X39710733Y-62248143D01*
X39613971Y-62223953D01*
X39565590Y-62199762D01*
X39541400Y-62175572D01*
X39517210Y-62127191D01*
X39517210Y-61643381D02*
X39517210Y-61595000D01*
X39541400Y-61546619D01*
X39565590Y-61522428D01*
X39613971Y-61498238D01*
X39710733Y-61474047D01*
X39831686Y-61474047D01*
X39928448Y-61498238D01*
X39976829Y-61522428D01*
X40001019Y-61546619D01*
X40025210Y-61595000D01*
X40025210Y-61643381D01*
X40001019Y-61691762D01*
X39976829Y-61715952D01*
X39928448Y-61740143D01*
X39831686Y-61764333D01*
X39710733Y-61764333D01*
X39613971Y-61740143D01*
X39565590Y-61715952D01*
X39541400Y-61691762D01*
X39517210Y-61643381D01*
X40230828Y-71095810D02*
X40061495Y-70853905D01*
X39940542Y-71095810D02*
X39940542Y-70587810D01*
X40134066Y-70587810D01*
X40182447Y-70612000D01*
X40206638Y-70636190D01*
X40230828Y-70684571D01*
X40230828Y-70757143D01*
X40206638Y-70805524D01*
X40182447Y-70829714D01*
X40134066Y-70853905D01*
X39940542Y-70853905D01*
X40424352Y-70636190D02*
X40448542Y-70612000D01*
X40496923Y-70587810D01*
X40617876Y-70587810D01*
X40666257Y-70612000D01*
X40690447Y-70636190D01*
X40714638Y-70684571D01*
X40714638Y-70732952D01*
X40690447Y-70805524D01*
X40400161Y-71095810D01*
X40714638Y-71095810D01*
X40908162Y-70636190D02*
X40932352Y-70612000D01*
X40980733Y-70587810D01*
X41101686Y-70587810D01*
X41150067Y-70612000D01*
X41174257Y-70636190D01*
X41198448Y-70684571D01*
X41198448Y-70732952D01*
X41174257Y-70805524D01*
X40883971Y-71095810D01*
X41198448Y-71095810D01*
X39517210Y-70376144D02*
X39517210Y-70061667D01*
X39710733Y-70231001D01*
X39710733Y-70158429D01*
X39734924Y-70110048D01*
X39759114Y-70085858D01*
X39807495Y-70061667D01*
X39928448Y-70061667D01*
X39976829Y-70085858D01*
X40001019Y-70110048D01*
X40025210Y-70158429D01*
X40025210Y-70303572D01*
X40001019Y-70351953D01*
X39976829Y-70376144D01*
X39517210Y-69747191D02*
X39517210Y-69698810D01*
X39541400Y-69650429D01*
X39565590Y-69626238D01*
X39613971Y-69602048D01*
X39710733Y-69577857D01*
X39831686Y-69577857D01*
X39928448Y-69602048D01*
X39976829Y-69626238D01*
X40001019Y-69650429D01*
X40025210Y-69698810D01*
X40025210Y-69747191D01*
X40001019Y-69795572D01*
X39976829Y-69819762D01*
X39928448Y-69843953D01*
X39831686Y-69868143D01*
X39710733Y-69868143D01*
X39613971Y-69843953D01*
X39565590Y-69819762D01*
X39541400Y-69795572D01*
X39517210Y-69747191D01*
X39517210Y-69263381D02*
X39517210Y-69215000D01*
X39541400Y-69166619D01*
X39565590Y-69142428D01*
X39613971Y-69118238D01*
X39710733Y-69094047D01*
X39831686Y-69094047D01*
X39928448Y-69118238D01*
X39976829Y-69142428D01*
X40001019Y-69166619D01*
X40025210Y-69215000D01*
X40025210Y-69263381D01*
X40001019Y-69311762D01*
X39976829Y-69335952D01*
X39928448Y-69360143D01*
X39831686Y-69384333D01*
X39710733Y-69384333D01*
X39613971Y-69360143D01*
X39565590Y-69335952D01*
X39541400Y-69311762D01*
X39517210Y-69263381D01*
X40230828Y-78715810D02*
X40061495Y-78473905D01*
X39940542Y-78715810D02*
X39940542Y-78207810D01*
X40134066Y-78207810D01*
X40182447Y-78232000D01*
X40206638Y-78256190D01*
X40230828Y-78304571D01*
X40230828Y-78377143D01*
X40206638Y-78425524D01*
X40182447Y-78449714D01*
X40134066Y-78473905D01*
X39940542Y-78473905D01*
X40424352Y-78256190D02*
X40448542Y-78232000D01*
X40496923Y-78207810D01*
X40617876Y-78207810D01*
X40666257Y-78232000D01*
X40690447Y-78256190D01*
X40714638Y-78304571D01*
X40714638Y-78352952D01*
X40690447Y-78425524D01*
X40400161Y-78715810D01*
X40714638Y-78715810D01*
X40883971Y-78207810D02*
X41198448Y-78207810D01*
X41029114Y-78401333D01*
X41101686Y-78401333D01*
X41150067Y-78425524D01*
X41174257Y-78449714D01*
X41198448Y-78498095D01*
X41198448Y-78619048D01*
X41174257Y-78667429D01*
X41150067Y-78691619D01*
X41101686Y-78715810D01*
X40956543Y-78715810D01*
X40908162Y-78691619D01*
X40883971Y-78667429D01*
X39517210Y-77996144D02*
X39517210Y-77681667D01*
X39710733Y-77851001D01*
X39710733Y-77778429D01*
X39734924Y-77730048D01*
X39759114Y-77705858D01*
X39807495Y-77681667D01*
X39928448Y-77681667D01*
X39976829Y-77705858D01*
X40001019Y-77730048D01*
X40025210Y-77778429D01*
X40025210Y-77923572D01*
X40001019Y-77971953D01*
X39976829Y-77996144D01*
X39517210Y-77367191D02*
X39517210Y-77318810D01*
X39541400Y-77270429D01*
X39565590Y-77246238D01*
X39613971Y-77222048D01*
X39710733Y-77197857D01*
X39831686Y-77197857D01*
X39928448Y-77222048D01*
X39976829Y-77246238D01*
X40001019Y-77270429D01*
X40025210Y-77318810D01*
X40025210Y-77367191D01*
X40001019Y-77415572D01*
X39976829Y-77439762D01*
X39928448Y-77463953D01*
X39831686Y-77488143D01*
X39710733Y-77488143D01*
X39613971Y-77463953D01*
X39565590Y-77439762D01*
X39541400Y-77415572D01*
X39517210Y-77367191D01*
X39517210Y-76883381D02*
X39517210Y-76835000D01*
X39541400Y-76786619D01*
X39565590Y-76762428D01*
X39613971Y-76738238D01*
X39710733Y-76714047D01*
X39831686Y-76714047D01*
X39928448Y-76738238D01*
X39976829Y-76762428D01*
X40001019Y-76786619D01*
X40025210Y-76835000D01*
X40025210Y-76883381D01*
X40001019Y-76931762D01*
X39976829Y-76955952D01*
X39928448Y-76980143D01*
X39831686Y-77004333D01*
X39710733Y-77004333D01*
X39613971Y-76980143D01*
X39565590Y-76955952D01*
X39541400Y-76931762D01*
X39517210Y-76883381D01*
X37739210Y-82114572D02*
X37497305Y-82283905D01*
X37739210Y-82404858D02*
X37231210Y-82404858D01*
X37231210Y-82211334D01*
X37255400Y-82162953D01*
X37279590Y-82138762D01*
X37327971Y-82114572D01*
X37400543Y-82114572D01*
X37448924Y-82138762D01*
X37473114Y-82162953D01*
X37497305Y-82211334D01*
X37497305Y-82404858D01*
X37279590Y-81921048D02*
X37255400Y-81896858D01*
X37231210Y-81848477D01*
X37231210Y-81727524D01*
X37255400Y-81679143D01*
X37279590Y-81654953D01*
X37327971Y-81630762D01*
X37376352Y-81630762D01*
X37448924Y-81654953D01*
X37739210Y-81945239D01*
X37739210Y-81630762D01*
X37400543Y-81195333D02*
X37739210Y-81195333D01*
X37207019Y-81316286D02*
X37569876Y-81437238D01*
X37569876Y-81122762D01*
X37999256Y-80747810D02*
X38313733Y-80747810D01*
X38144399Y-80941333D01*
X38216971Y-80941333D01*
X38265352Y-80965524D01*
X38289542Y-80989714D01*
X38313733Y-81038095D01*
X38313733Y-81159048D01*
X38289542Y-81207429D01*
X38265352Y-81231619D01*
X38216971Y-81255810D01*
X38071828Y-81255810D01*
X38023447Y-81231619D01*
X37999256Y-81207429D01*
X38628209Y-80747810D02*
X38676590Y-80747810D01*
X38724971Y-80772000D01*
X38749162Y-80796190D01*
X38773352Y-80844571D01*
X38797543Y-80941333D01*
X38797543Y-81062286D01*
X38773352Y-81159048D01*
X38749162Y-81207429D01*
X38724971Y-81231619D01*
X38676590Y-81255810D01*
X38628209Y-81255810D01*
X38579828Y-81231619D01*
X38555638Y-81207429D01*
X38531447Y-81159048D01*
X38507257Y-81062286D01*
X38507257Y-80941333D01*
X38531447Y-80844571D01*
X38555638Y-80796190D01*
X38579828Y-80772000D01*
X38628209Y-80747810D01*
X39112019Y-80747810D02*
X39160400Y-80747810D01*
X39208781Y-80772000D01*
X39232972Y-80796190D01*
X39257162Y-80844571D01*
X39281353Y-80941333D01*
X39281353Y-81062286D01*
X39257162Y-81159048D01*
X39232972Y-81207429D01*
X39208781Y-81231619D01*
X39160400Y-81255810D01*
X39112019Y-81255810D01*
X39063638Y-81231619D01*
X39039448Y-81207429D01*
X39015257Y-81159048D01*
X38991067Y-81062286D01*
X38991067Y-80941333D01*
X39015257Y-80844571D01*
X39039448Y-80796190D01*
X39063638Y-80772000D01*
X39112019Y-80747810D01*
X40182447Y-26645810D02*
X40182447Y-26137810D01*
X40303400Y-26137810D01*
X40375971Y-26162000D01*
X40424352Y-26210381D01*
X40448543Y-26258762D01*
X40472733Y-26355524D01*
X40472733Y-26428095D01*
X40448543Y-26524857D01*
X40424352Y-26573238D01*
X40375971Y-26621619D01*
X40303400Y-26645810D01*
X40182447Y-26645810D01*
X40714638Y-26645810D02*
X40811400Y-26645810D01*
X40859781Y-26621619D01*
X40883971Y-26597429D01*
X40932352Y-26524857D01*
X40956543Y-26428095D01*
X40956543Y-26234571D01*
X40932352Y-26186190D01*
X40908162Y-26162000D01*
X40859781Y-26137810D01*
X40763019Y-26137810D01*
X40714638Y-26162000D01*
X40690447Y-26186190D01*
X40666257Y-26234571D01*
X40666257Y-26355524D01*
X40690447Y-26403905D01*
X40714638Y-26428095D01*
X40763019Y-26452286D01*
X40859781Y-26452286D01*
X40908162Y-26428095D01*
X40932352Y-26403905D01*
X40956543Y-26355524D01*
X39940542Y-34265810D02*
X39940542Y-33757810D01*
X40061495Y-33757810D01*
X40134066Y-33782000D01*
X40182447Y-33830381D01*
X40206638Y-33878762D01*
X40230828Y-33975524D01*
X40230828Y-34048095D01*
X40206638Y-34144857D01*
X40182447Y-34193238D01*
X40134066Y-34241619D01*
X40061495Y-34265810D01*
X39940542Y-34265810D01*
X40714638Y-34265810D02*
X40424352Y-34265810D01*
X40569495Y-34265810D02*
X40569495Y-33757810D01*
X40521114Y-33830381D01*
X40472733Y-33878762D01*
X40424352Y-33902952D01*
X41029114Y-33757810D02*
X41077495Y-33757810D01*
X41125876Y-33782000D01*
X41150067Y-33806190D01*
X41174257Y-33854571D01*
X41198448Y-33951333D01*
X41198448Y-34072286D01*
X41174257Y-34169048D01*
X41150067Y-34217429D01*
X41125876Y-34241619D01*
X41077495Y-34265810D01*
X41029114Y-34265810D01*
X40980733Y-34241619D01*
X40956543Y-34217429D01*
X40932352Y-34169048D01*
X40908162Y-34072286D01*
X40908162Y-33951333D01*
X40932352Y-33854571D01*
X40956543Y-33806190D01*
X40980733Y-33782000D01*
X41029114Y-33757810D01*
X39940542Y-41885810D02*
X39940542Y-41377810D01*
X40061495Y-41377810D01*
X40134066Y-41402000D01*
X40182447Y-41450381D01*
X40206638Y-41498762D01*
X40230828Y-41595524D01*
X40230828Y-41668095D01*
X40206638Y-41764857D01*
X40182447Y-41813238D01*
X40134066Y-41861619D01*
X40061495Y-41885810D01*
X39940542Y-41885810D01*
X40714638Y-41885810D02*
X40424352Y-41885810D01*
X40569495Y-41885810D02*
X40569495Y-41377810D01*
X40521114Y-41450381D01*
X40472733Y-41498762D01*
X40424352Y-41522952D01*
X41198448Y-41885810D02*
X40908162Y-41885810D01*
X41053305Y-41885810D02*
X41053305Y-41377810D01*
X41004924Y-41450381D01*
X40956543Y-41498762D01*
X40908162Y-41522952D01*
X39940542Y-49505810D02*
X39940542Y-48997810D01*
X40061495Y-48997810D01*
X40134066Y-49022000D01*
X40182447Y-49070381D01*
X40206638Y-49118762D01*
X40230828Y-49215524D01*
X40230828Y-49288095D01*
X40206638Y-49384857D01*
X40182447Y-49433238D01*
X40134066Y-49481619D01*
X40061495Y-49505810D01*
X39940542Y-49505810D01*
X40714638Y-49505810D02*
X40424352Y-49505810D01*
X40569495Y-49505810D02*
X40569495Y-48997810D01*
X40521114Y-49070381D01*
X40472733Y-49118762D01*
X40424352Y-49142952D01*
X40908162Y-49046190D02*
X40932352Y-49022000D01*
X40980733Y-48997810D01*
X41101686Y-48997810D01*
X41150067Y-49022000D01*
X41174257Y-49046190D01*
X41198448Y-49094571D01*
X41198448Y-49142952D01*
X41174257Y-49215524D01*
X40883971Y-49505810D01*
X41198448Y-49505810D01*
X39940542Y-57125810D02*
X39940542Y-56617810D01*
X40061495Y-56617810D01*
X40134066Y-56642000D01*
X40182447Y-56690381D01*
X40206638Y-56738762D01*
X40230828Y-56835524D01*
X40230828Y-56908095D01*
X40206638Y-57004857D01*
X40182447Y-57053238D01*
X40134066Y-57101619D01*
X40061495Y-57125810D01*
X39940542Y-57125810D01*
X40714638Y-57125810D02*
X40424352Y-57125810D01*
X40569495Y-57125810D02*
X40569495Y-56617810D01*
X40521114Y-56690381D01*
X40472733Y-56738762D01*
X40424352Y-56762952D01*
X40883971Y-56617810D02*
X41198448Y-56617810D01*
X41029114Y-56811333D01*
X41101686Y-56811333D01*
X41150067Y-56835524D01*
X41174257Y-56859714D01*
X41198448Y-56908095D01*
X41198448Y-57029048D01*
X41174257Y-57077429D01*
X41150067Y-57101619D01*
X41101686Y-57125810D01*
X40956543Y-57125810D01*
X40908162Y-57101619D01*
X40883971Y-57077429D01*
X39940542Y-64745810D02*
X39940542Y-64237810D01*
X40061495Y-64237810D01*
X40134066Y-64262000D01*
X40182447Y-64310381D01*
X40206638Y-64358762D01*
X40230828Y-64455524D01*
X40230828Y-64528095D01*
X40206638Y-64624857D01*
X40182447Y-64673238D01*
X40134066Y-64721619D01*
X40061495Y-64745810D01*
X39940542Y-64745810D01*
X40714638Y-64745810D02*
X40424352Y-64745810D01*
X40569495Y-64745810D02*
X40569495Y-64237810D01*
X40521114Y-64310381D01*
X40472733Y-64358762D01*
X40424352Y-64382952D01*
X41150067Y-64407143D02*
X41150067Y-64745810D01*
X41029114Y-64213619D02*
X40908162Y-64576476D01*
X41222638Y-64576476D01*
X39940542Y-72365810D02*
X39940542Y-71857810D01*
X40061495Y-71857810D01*
X40134066Y-71882000D01*
X40182447Y-71930381D01*
X40206638Y-71978762D01*
X40230828Y-72075524D01*
X40230828Y-72148095D01*
X40206638Y-72244857D01*
X40182447Y-72293238D01*
X40134066Y-72341619D01*
X40061495Y-72365810D01*
X39940542Y-72365810D01*
X40714638Y-72365810D02*
X40424352Y-72365810D01*
X40569495Y-72365810D02*
X40569495Y-71857810D01*
X40521114Y-71930381D01*
X40472733Y-71978762D01*
X40424352Y-72002952D01*
X41174257Y-71857810D02*
X40932352Y-71857810D01*
X40908162Y-72099714D01*
X40932352Y-72075524D01*
X40980733Y-72051333D01*
X41101686Y-72051333D01*
X41150067Y-72075524D01*
X41174257Y-72099714D01*
X41198448Y-72148095D01*
X41198448Y-72269048D01*
X41174257Y-72317429D01*
X41150067Y-72341619D01*
X41101686Y-72365810D01*
X40980733Y-72365810D01*
X40932352Y-72341619D01*
X40908162Y-72317429D01*
X39940542Y-79985810D02*
X39940542Y-79477810D01*
X40061495Y-79477810D01*
X40134066Y-79502000D01*
X40182447Y-79550381D01*
X40206638Y-79598762D01*
X40230828Y-79695524D01*
X40230828Y-79768095D01*
X40206638Y-79864857D01*
X40182447Y-79913238D01*
X40134066Y-79961619D01*
X40061495Y-79985810D01*
X39940542Y-79985810D01*
X40714638Y-79985810D02*
X40424352Y-79985810D01*
X40569495Y-79985810D02*
X40569495Y-79477810D01*
X40521114Y-79550381D01*
X40472733Y-79598762D01*
X40424352Y-79622952D01*
X41150067Y-79477810D02*
X41053305Y-79477810D01*
X41004924Y-79502000D01*
X40980733Y-79526190D01*
X40932352Y-79598762D01*
X40908162Y-79695524D01*
X40908162Y-79889048D01*
X40932352Y-79937429D01*
X40956543Y-79961619D01*
X41004924Y-79985810D01*
X41101686Y-79985810D01*
X41150067Y-79961619D01*
X41174257Y-79937429D01*
X41198448Y-79889048D01*
X41198448Y-79768095D01*
X41174257Y-79719714D01*
X41150067Y-79695524D01*
X41101686Y-79671333D01*
X41004924Y-79671333D01*
X40956543Y-79695524D01*
X40932352Y-79719714D01*
X40908162Y-79768095D01*
%LPC*%
D17*
X47586900Y-27178000D03*
X47586900Y-29718000D03*
X47586900Y-34798000D03*
X47586900Y-37338000D03*
X47586900Y-42418000D03*
X47586900Y-44958000D03*
X47586900Y-50038000D03*
X47586900Y-52578000D03*
X47586900Y-57658000D03*
X47586900Y-60198000D03*
X47586900Y-65278000D03*
X47586900Y-67818000D03*
X47586900Y-72898000D03*
X47586900Y-75438000D03*
X47586900Y-80518000D03*
X47586900Y-83058000D03*
D18*
X34747200Y-47498000D03*
X28752800Y-47498000D03*
X34747200Y-62738000D03*
X28752800Y-62738000D03*
X28752800Y-50038000D03*
X34747200Y-50038000D03*
X28752800Y-52578000D03*
X34747200Y-52578000D03*
X28752800Y-55118000D03*
X34747200Y-55118000D03*
X28752800Y-57658000D03*
X34747200Y-57658000D03*
X28752800Y-60198000D03*
X34747200Y-60198000D03*
D19*
X36334700Y-74168000D03*
X36334700Y-36068000D03*
D20*
X40557400Y-32072580D03*
X40557400Y-31173420D03*
X40557400Y-39692580D03*
X40557400Y-38793420D03*
X40557400Y-47312580D03*
X40557400Y-46413420D03*
X40557400Y-54932580D03*
X40557400Y-54033420D03*
X40557400Y-62552580D03*
X40557400Y-61653420D03*
X40557400Y-70172580D03*
X40557400Y-69273420D03*
X40557400Y-77792580D03*
X40557400Y-76893420D03*
X38202820Y-81788000D03*
X39101980Y-81788000D03*
D21*
X40557400Y-29502100D03*
X40557400Y-27393900D03*
X40557400Y-37122100D03*
X40557400Y-35013900D03*
X40557400Y-44742100D03*
X40557400Y-42633900D03*
X40557400Y-52362100D03*
X40557400Y-50253900D03*
X40557400Y-59982100D03*
X40557400Y-57873900D03*
X40557400Y-67602100D03*
X40557400Y-65493900D03*
X40557400Y-75222100D03*
X40557400Y-73113900D03*
X40557400Y-82842100D03*
X40557400Y-80733900D03*
M02*
