M48
;DRILL file {KiCad 0.201506082246+5724~23~ubuntu14.04.1-product} date Wed 10 Jun 2015 10:16:10 AM EDT
;FORMAT={-:-/ absolute / inch / decimal}
FMAT,2
INCH,TZ
T1C0.025
T2C0.061
T3C0.096
%
G90
G05
M72
T1
X1.0285Y-2.7351
X1.1241Y-1.7019
X1.1254Y-3.2982
X1.1967Y-3.245
X1.203Y-1.1792
X1.2078Y-2.4183
X1.2645Y-3.0571
X1.2769Y-1.57
X1.4715Y-2.5525
X1.5454Y-2.0032
X1.5562Y-2.1627
X1.6383Y-1.5493
X1.6383Y-3.0142
X1.6437Y-3.2184
X1.6472Y-2.6259
X1.6489Y-1.1268
T2
X1.8735Y-1.07
X1.8735Y-1.17
X1.8735Y-1.37
X1.8735Y-1.47
X1.8735Y-1.67
X1.8735Y-1.77
X1.8735Y-1.97
X1.8735Y-2.07
X1.8735Y-2.27
X1.8735Y-2.37
X1.8735Y-2.57
X1.8735Y-2.67
X1.8735Y-2.87
X1.8735Y-2.97
X1.8735Y-3.17
X1.8735Y-3.27
T3
X1.4305Y-1.42
X1.4305Y-2.92
T0
M30
