G04 #@! TF.FileFunction,Soldermask,Bot*
%FSLAX46Y46*%
G04 Gerber Fmt 4.6, Leading zero omitted, Abs format (unit mm)*
G04 Created by KiCad (PCBNEW 0.201504221001+5618~22~ubuntu14.04.1-product) date Thu 30 Apr 2015 02:38:31 PM EDT*
%MOMM*%
G01*
G04 APERTURE LIST*
%ADD10C,0.100000*%
%ADD11C,0.228600*%
%ADD12C,2.387600*%
%ADD13R,1.101040X1.400760*%
%ADD14R,1.400760X1.101040*%
%ADD15C,9.112200*%
%ADD16C,8.528000*%
%ADD17C,3.956000*%
G04 APERTURE END LIST*
D10*
D11*
X87914480Y-151958040D02*
G75*
G03X99283520Y-151958040I5684520J0D01*
G01*
X99283520Y-125483620D02*
X99283520Y-151958040D01*
X87917020Y-125483620D02*
X87917020Y-151958040D01*
X102064820Y-122702320D02*
G75*
G03X99283520Y-125483620I0J-2781300D01*
G01*
X87917020Y-125483620D02*
G75*
G03X85135720Y-122702320I-2781300J0D01*
G01*
X102064820Y-122702320D02*
X133619240Y-122702320D01*
X53581300Y-122702320D02*
X85135720Y-122702320D01*
X53581300Y-25400000D02*
G75*
G03X50800000Y-28181300I0J-2781300D01*
G01*
X133619240Y-122702320D02*
G75*
G03X136400540Y-119921020I0J2781300D01*
G01*
X136400540Y-28181300D02*
X136400540Y-119921020D01*
X50800000Y-119921020D02*
G75*
G03X53581300Y-122702320I2781300J0D01*
G01*
X50800000Y-28181300D02*
X50800000Y-119921020D01*
X136400540Y-28181300D02*
G75*
G03X133619240Y-25400000I-2781300J0D01*
G01*
X53581300Y-25400000D02*
X133619240Y-25400000D01*
D12*
X92329000Y-136388000D03*
X94869000Y-136388000D03*
D13*
X77622360Y-112811880D03*
X75722440Y-112811880D03*
X76672400Y-110414120D03*
X77622360Y-75250080D03*
X75722440Y-75250080D03*
X76672400Y-72852320D03*
X77622360Y-37688480D03*
X75722440Y-37688480D03*
X76672400Y-35290720D03*
X111477960Y-112811880D03*
X109578040Y-112811880D03*
X110528000Y-110414120D03*
X111477960Y-75250080D03*
X109578040Y-75250080D03*
X110528000Y-72852320D03*
X111477960Y-37688480D03*
X109578040Y-37688480D03*
X110528000Y-35290720D03*
D14*
X92400120Y-145902960D03*
X92400120Y-144003040D03*
X94797880Y-144953000D03*
D15*
X128816000Y-111613000D03*
X128816000Y-74051200D03*
X128816000Y-36489600D03*
X58384400Y-111613000D03*
X58384400Y-74051200D03*
X58384400Y-36489600D03*
D16*
X69667100Y-36489600D03*
X117533000Y-36489600D03*
X69667100Y-74051200D03*
X117533000Y-74051200D03*
X69667100Y-111613000D03*
X117533000Y-111613000D03*
X93599000Y-151958000D03*
D17*
X120434000Y-119921000D03*
X66763900Y-119921000D03*
X120434000Y-65742800D03*
X66763900Y-65742800D03*
X120434000Y-28181300D03*
X66763900Y-28181300D03*
M02*
