G04 #@! TF.FileFunction,Legend,Bot*
%FSLAX46Y46*%
G04 Gerber Fmt 4.6, Leading zero omitted, Abs format (unit mm)*
G04 Created by KiCad (PCBNEW 0.201504221001+5618~22~ubuntu14.04.1-product) date Thu 30 Apr 2015 12:26:27 PM EDT*
%MOMM*%
G01*
G04 APERTURE LIST*
%ADD10C,0.100000*%
%ADD11C,0.228600*%
%ADD12C,0.150000*%
%ADD13C,0.254000*%
%ADD14C,8.782000*%
%ADD15C,9.366200*%
%ADD16C,2.387600*%
%ADD17C,4.210000*%
%ADD18R,1.101040X1.400760*%
%ADD19R,1.400760X1.101040*%
G04 APERTURE END LIST*
D10*
D11*
X87914480Y-151958040D02*
G75*
G03X99283520Y-151958040I5684520J0D01*
G01*
X99283520Y-125483620D02*
X99283520Y-151958040D01*
X87917020Y-125483620D02*
X87917020Y-151958040D01*
X102064820Y-122702320D02*
G75*
G03X99283520Y-125483620I0J-2781300D01*
G01*
X87917020Y-125483620D02*
G75*
G03X85135720Y-122702320I-2781300J0D01*
G01*
X102064820Y-122702320D02*
X133619240Y-122702320D01*
X53581300Y-122702320D02*
X85135720Y-122702320D01*
X53581300Y-25400000D02*
G75*
G03X50800000Y-28181300I0J-2781300D01*
G01*
X133619240Y-122702320D02*
G75*
G03X136400540Y-119921020I0J2781300D01*
G01*
X136400540Y-28181300D02*
X136400540Y-119921020D01*
X50800000Y-119921020D02*
G75*
G03X53581300Y-122702320I2781300J0D01*
G01*
X50800000Y-28181300D02*
X50800000Y-119921020D01*
X136400540Y-28181300D02*
G75*
G03X133619240Y-25400000I-2781300J0D01*
G01*
X53581300Y-25400000D02*
X133619240Y-25400000D01*
D12*
X77942400Y-111613000D02*
X75402400Y-111613000D01*
X77942400Y-74051200D02*
X75402400Y-74051200D01*
X77942400Y-36489600D02*
X75402400Y-36489600D01*
X111798000Y-111613000D02*
X109258000Y-111613000D01*
X111798000Y-74051200D02*
X109258000Y-74051200D01*
X111798000Y-36489600D02*
X109258000Y-36489600D01*
X93599000Y-146223000D02*
X93599000Y-143683000D01*
D13*
X77930304Y-113723619D02*
X77930304Y-114546095D01*
X77881923Y-114642857D01*
X77833542Y-114691238D01*
X77736780Y-114739619D01*
X77543257Y-114739619D01*
X77446495Y-114691238D01*
X77398114Y-114642857D01*
X77349733Y-114546095D01*
X77349733Y-113723619D01*
X76333733Y-114739619D02*
X76914304Y-114739619D01*
X76624018Y-114739619D02*
X76624018Y-113723619D01*
X76720780Y-113868762D01*
X76817542Y-113965524D01*
X76914304Y-114013905D01*
X75995066Y-113723619D02*
X75366114Y-113723619D01*
X75704780Y-114110667D01*
X75559638Y-114110667D01*
X75462876Y-114159048D01*
X75414495Y-114207429D01*
X75366114Y-114304190D01*
X75366114Y-114546095D01*
X75414495Y-114642857D01*
X75462876Y-114691238D01*
X75559638Y-114739619D01*
X75849923Y-114739619D01*
X75946685Y-114691238D01*
X75995066Y-114642857D01*
X77930304Y-76161819D02*
X77930304Y-76984295D01*
X77881923Y-77081057D01*
X77833542Y-77129438D01*
X77736780Y-77177819D01*
X77543257Y-77177819D01*
X77446495Y-77129438D01*
X77398114Y-77081057D01*
X77349733Y-76984295D01*
X77349733Y-76161819D01*
X76333733Y-77177819D02*
X76914304Y-77177819D01*
X76624018Y-77177819D02*
X76624018Y-76161819D01*
X76720780Y-76306962D01*
X76817542Y-76403724D01*
X76914304Y-76452105D01*
X75366114Y-77177819D02*
X75946685Y-77177819D01*
X75656399Y-77177819D02*
X75656399Y-76161819D01*
X75753161Y-76306962D01*
X75849923Y-76403724D01*
X75946685Y-76452105D01*
X77446495Y-38600219D02*
X77446495Y-39422695D01*
X77398114Y-39519457D01*
X77349733Y-39567838D01*
X77252971Y-39616219D01*
X77059448Y-39616219D01*
X76962686Y-39567838D01*
X76914305Y-39519457D01*
X76865924Y-39422695D01*
X76865924Y-38600219D01*
X76333733Y-39616219D02*
X76140209Y-39616219D01*
X76043448Y-39567838D01*
X75995067Y-39519457D01*
X75898305Y-39374314D01*
X75849924Y-39180790D01*
X75849924Y-38793743D01*
X75898305Y-38696981D01*
X75946686Y-38648600D01*
X76043448Y-38600219D01*
X76236971Y-38600219D01*
X76333733Y-38648600D01*
X76382114Y-38696981D01*
X76430495Y-38793743D01*
X76430495Y-39035648D01*
X76382114Y-39132410D01*
X76333733Y-39180790D01*
X76236971Y-39229171D01*
X76043448Y-39229171D01*
X75946686Y-39180790D01*
X75898305Y-39132410D01*
X75849924Y-39035648D01*
X111302095Y-113723619D02*
X111302095Y-114546095D01*
X111253714Y-114642857D01*
X111205333Y-114691238D01*
X111108571Y-114739619D01*
X110915048Y-114739619D01*
X110818286Y-114691238D01*
X110769905Y-114642857D01*
X110721524Y-114546095D01*
X110721524Y-113723619D01*
X110334476Y-113723619D02*
X109657143Y-113723619D01*
X110092571Y-114739619D01*
X111302095Y-76161819D02*
X111302095Y-76984295D01*
X111253714Y-77081057D01*
X111205333Y-77129438D01*
X111108571Y-77177819D01*
X110915048Y-77177819D01*
X110818286Y-77129438D01*
X110769905Y-77081057D01*
X110721524Y-76984295D01*
X110721524Y-76161819D01*
X109753905Y-76161819D02*
X110237714Y-76161819D01*
X110286095Y-76645629D01*
X110237714Y-76597248D01*
X110140952Y-76548867D01*
X109899048Y-76548867D01*
X109802286Y-76597248D01*
X109753905Y-76645629D01*
X109705524Y-76742390D01*
X109705524Y-76984295D01*
X109753905Y-77081057D01*
X109802286Y-77129438D01*
X109899048Y-77177819D01*
X110140952Y-77177819D01*
X110237714Y-77129438D01*
X110286095Y-77081057D01*
X111302095Y-38600219D02*
X111302095Y-39422695D01*
X111253714Y-39519457D01*
X111205333Y-39567838D01*
X111108571Y-39616219D01*
X110915048Y-39616219D01*
X110818286Y-39567838D01*
X110769905Y-39519457D01*
X110721524Y-39422695D01*
X110721524Y-38600219D01*
X110334476Y-38600219D02*
X109705524Y-38600219D01*
X110044190Y-38987267D01*
X109899048Y-38987267D01*
X109802286Y-39035648D01*
X109753905Y-39084029D01*
X109705524Y-39180790D01*
X109705524Y-39422695D01*
X109753905Y-39519457D01*
X109802286Y-39567838D01*
X109899048Y-39616219D01*
X110189333Y-39616219D01*
X110286095Y-39567838D01*
X110334476Y-39519457D01*
X90375619Y-144178905D02*
X91198095Y-144178905D01*
X91294857Y-144227286D01*
X91343238Y-144275667D01*
X91391619Y-144372429D01*
X91391619Y-144565952D01*
X91343238Y-144662714D01*
X91294857Y-144711095D01*
X91198095Y-144759476D01*
X90375619Y-144759476D01*
X91391619Y-145775476D02*
X91391619Y-145194905D01*
X91391619Y-145485191D02*
X90375619Y-145485191D01*
X90520762Y-145388429D01*
X90617524Y-145291667D01*
X90665905Y-145194905D01*
%LPC*%
D14*
X93599000Y-151958000D03*
X117533000Y-111613000D03*
X69667100Y-111613000D03*
X117533000Y-74051200D03*
X69667100Y-74051200D03*
X117533000Y-36489600D03*
X69667100Y-36489600D03*
D15*
X58384400Y-36489600D03*
X58384400Y-74051200D03*
X58384400Y-111613000D03*
X128816000Y-36489600D03*
X128816000Y-74051200D03*
X128816000Y-111613000D03*
D16*
X92329000Y-136388000D03*
X94869000Y-136388000D03*
D17*
X66763900Y-28181300D03*
X120434000Y-28181300D03*
X66763900Y-65742800D03*
X120434000Y-65742800D03*
X66763900Y-119921000D03*
X120434000Y-119921000D03*
D18*
X77622360Y-112811880D03*
X75722440Y-112811880D03*
X76672400Y-110414120D03*
X77622360Y-75250080D03*
X75722440Y-75250080D03*
X76672400Y-72852320D03*
X77622360Y-37688480D03*
X75722440Y-37688480D03*
X76672400Y-35290720D03*
X111477960Y-112811880D03*
X109578040Y-112811880D03*
X110528000Y-110414120D03*
X111477960Y-75250080D03*
X109578040Y-75250080D03*
X110528000Y-72852320D03*
X111477960Y-37688480D03*
X109578040Y-37688480D03*
X110528000Y-35290720D03*
D19*
X92400120Y-145902960D03*
X92400120Y-144003040D03*
X94797880Y-144953000D03*
M02*
