M48
;DRILL file {kicad 0.201504221001+5618~22~ubuntu14.04.1-product} date Thu 30 Apr 2015 12:26:40 PM EDT
;FORMAT={-:-/ absolute / inch / decimal}
FMAT,2
INCH,TZ
T1C0.025
T2C0.061
T3C0.122
T4C0.300
T5C0.323
%
G90
G05
M72
T1
X2.14Y-3.2107
X2.1867Y-3.1942
X2.2735Y-2.5834
X2.285Y-1.9921
X2.285Y-2.2491
X2.403Y-2.3136
X2.4687Y-3.666
X2.5197Y-3.3941
X2.5203Y-2.0913
X2.5207Y-4.3255
X2.5215Y-3.6052
X2.5358Y-3.4929
X2.5385Y-2.2854
X2.5436Y-1.9394
X2.561Y-4.1336
X2.7312Y-4.1336
X2.8619Y-4.6203
X2.9495Y-3.8434
X3.0042Y-2.2466
X3.06Y-1.4254
X3.06Y-4.3604
X3.065Y-2.8954
X3.12Y-1.5904
X3.12Y-3.0754
X3.19Y-1.4404
X3.19Y-2.9154
X3.19Y-4.3904
X3.2Y-4.5054
X3.3148Y-3.36
X3.3233Y-2.3299
X3.5732Y-5.5575
X3.6492Y-3.0386
X3.71Y-3.905
X3.725Y-5.6354
X3.7945Y-5.6585
X3.845Y-5.7004
X4.175Y-4.3904
X4.285Y-3.7271
X4.305Y-2.8854
X4.305Y-4.3604
X4.31Y-1.4054
X4.37Y-1.5904
X4.37Y-3.0754
X4.425Y-1.4404
X4.425Y-2.9154
X4.425Y-4.3904
X4.6291Y-4.1426
X4.6444Y-3.4601
X4.6862Y-2.0527
X4.8298Y-4.3266
X4.8759Y-4.6654
T2
X3.635Y-5.3696
X3.735Y-5.3696
T3
X2.6285Y-1.1095
X2.6285Y-2.5883
X2.6285Y-4.7213
X4.7415Y-1.1095
X4.7415Y-2.5883
X4.7415Y-4.7213
T4
X2.7428Y-1.4366
X2.7428Y-2.9154
X2.7428Y-4.3942
X3.685Y-5.9826
X4.6273Y-1.4366
X4.6273Y-2.9154
X4.6273Y-4.3942
T5
X2.2986Y-1.4366
X2.2986Y-2.9154
X2.2986Y-4.3942
X5.0715Y-1.4366
X5.0715Y-2.9154
X5.0715Y-4.3942
T0
M30
