G04 #@! TF.FileFunction,Copper,L2,Bot,Signal*
%FSLAX46Y46*%
G04 Gerber Fmt 4.6, Leading zero omitted, Abs format (unit mm)*
G04 Created by KiCad (PCBNEW 0.201504221001+5618~22~ubuntu14.04.1-product) date Thu 30 Apr 2015 12:26:27 PM EDT*
%MOMM*%
G01*
G04 APERTURE LIST*
%ADD10C,0.100000*%
%ADD11C,0.228600*%
%ADD12C,8.382000*%
%ADD13C,8.966200*%
%ADD14C,2.184400*%
%ADD15C,3.810000*%
%ADD16R,0.701040X1.000760*%
%ADD17R,1.000760X0.701040*%
%ADD18C,0.889000*%
%ADD19C,0.812800*%
%ADD20C,0.406400*%
%ADD21C,0.203200*%
G04 APERTURE END LIST*
D10*
D11*
X87914480Y-151958040D02*
G75*
G03X99283520Y-151958040I5684520J0D01*
G01*
X99283520Y-125483620D02*
X99283520Y-151958040D01*
X87917020Y-125483620D02*
X87917020Y-151958040D01*
X102064820Y-122702320D02*
G75*
G03X99283520Y-125483620I0J-2781300D01*
G01*
X87917020Y-125483620D02*
G75*
G03X85135720Y-122702320I-2781300J0D01*
G01*
X102064820Y-122702320D02*
X133619240Y-122702320D01*
X53581300Y-122702320D02*
X85135720Y-122702320D01*
X53581300Y-25400000D02*
G75*
G03X50800000Y-28181300I0J-2781300D01*
G01*
X133619240Y-122702320D02*
G75*
G03X136400540Y-119921020I0J2781300D01*
G01*
X136400540Y-28181300D02*
X136400540Y-119921020D01*
X50800000Y-119921020D02*
G75*
G03X53581300Y-122702320I2781300J0D01*
G01*
X50800000Y-28181300D02*
X50800000Y-119921020D01*
X136400540Y-28181300D02*
G75*
G03X133619240Y-25400000I-2781300J0D01*
G01*
X53581300Y-25400000D02*
X133619240Y-25400000D01*
D12*
X93599000Y-151958000D03*
X117533000Y-111613000D03*
X69667100Y-111613000D03*
X117533000Y-74051200D03*
X69667100Y-74051200D03*
X117533000Y-36489600D03*
X69667100Y-36489600D03*
D13*
X58384400Y-36489600D03*
X58384400Y-74051200D03*
X58384400Y-111613000D03*
X128816000Y-36489600D03*
X128816000Y-74051200D03*
X128816000Y-111613000D03*
D14*
X92329000Y-136388000D03*
X94869000Y-136388000D03*
D15*
X66763900Y-28181300D03*
X120434000Y-28181300D03*
X66763900Y-65742800D03*
X120434000Y-65742800D03*
X66763900Y-119921000D03*
X120434000Y-119921000D03*
D16*
X77622360Y-112811880D03*
X75722440Y-112811880D03*
X76672400Y-110414120D03*
X77622360Y-75250080D03*
X75722440Y-75250080D03*
X76672400Y-72852320D03*
X77622360Y-37688480D03*
X75722440Y-37688480D03*
X76672400Y-35290720D03*
X111477960Y-112811880D03*
X109578040Y-112811880D03*
X110528000Y-110414120D03*
X111477960Y-75250080D03*
X109578040Y-75250080D03*
X110528000Y-72852320D03*
X111477960Y-37688480D03*
X109578040Y-37688480D03*
X110528000Y-35290720D03*
D17*
X92400120Y-145902960D03*
X92400120Y-144003040D03*
X94797880Y-144953000D03*
D18*
X62704400Y-93116500D03*
X96380300Y-143726700D03*
X123848200Y-118501000D03*
X63999900Y-86210800D03*
X119029100Y-52139600D03*
X64410500Y-88720200D03*
X117968700Y-87885900D03*
X117578900Y-105222600D03*
X122677900Y-109896300D03*
X64045800Y-91572000D03*
X64025800Y-109868200D03*
X65048400Y-104993100D03*
X69372000Y-104993100D03*
X72691500Y-117355300D03*
X112395000Y-36586200D03*
X112395000Y-74051200D03*
X112395000Y-111516000D03*
X81026000Y-36586200D03*
X81026000Y-74051200D03*
X81026000Y-111516000D03*
X97663000Y-144790000D03*
X58039000Y-50600500D03*
X54356700Y-81551900D03*
X94234000Y-99187500D03*
X64015400Y-53117900D03*
X84410900Y-59178600D03*
X55543400Y-81132500D03*
X108839000Y-94667900D03*
X64478400Y-58049300D03*
X92690700Y-77179200D03*
X58039000Y-57125900D03*
X76307600Y-57062400D03*
X61036200Y-58764600D03*
X74918100Y-97622700D03*
X57747200Y-65619600D03*
X84196500Y-85344600D03*
X109474000Y-35697200D03*
X109347000Y-73289200D03*
X109347000Y-110754000D03*
X77724000Y-36205200D03*
X77851000Y-73543200D03*
X77724000Y-110754000D03*
X94615000Y-143139000D03*
X64606200Y-49259800D03*
X90759200Y-141160900D03*
X110998000Y-40396200D03*
X110998000Y-78115200D03*
X106045000Y-111516000D03*
X79248000Y-40396200D03*
X79248000Y-78115200D03*
X81280000Y-114437000D03*
D19*
X105359100Y-117310100D02*
X96621900Y-126047300D01*
X122657300Y-117310100D02*
X105359100Y-117310100D01*
X123848200Y-118501000D02*
X122657300Y-117310100D01*
X96621900Y-143485100D02*
X96621900Y-126047300D01*
X96380300Y-143726700D02*
X96621900Y-143485100D01*
X74658600Y-105070700D02*
X62704400Y-93116500D01*
X74658600Y-113542700D02*
X74658600Y-105070700D01*
X77580700Y-116464800D02*
X74658600Y-113542700D01*
X87039400Y-116464800D02*
X77580700Y-116464800D01*
X96621900Y-126047300D02*
X87039400Y-116464800D01*
X64252900Y-86463800D02*
X63999900Y-86210800D01*
X84992700Y-86463800D02*
X64252900Y-86463800D01*
X119029100Y-52427400D02*
X84992700Y-86463800D01*
X119029100Y-52139600D02*
X119029100Y-52427400D01*
X117134400Y-88720200D02*
X117968700Y-87885900D01*
X64410500Y-88720200D02*
X117134400Y-88720200D01*
X118004200Y-105222600D02*
X117578900Y-105222600D01*
X122677900Y-109896300D02*
X118004200Y-105222600D01*
X82767600Y-91572000D02*
X64045800Y-91572000D01*
X96418200Y-105222600D02*
X82767600Y-91572000D01*
X117578900Y-105222600D02*
X96418200Y-105222600D01*
X64025800Y-106015700D02*
X65048400Y-104993100D01*
X64025800Y-109868200D02*
X64025800Y-106015700D01*
X65048400Y-104993100D02*
X69372000Y-104993100D01*
X94869000Y-130284600D02*
X94869000Y-136388000D01*
X83006800Y-118422400D02*
X94869000Y-130284600D01*
X73758600Y-118422400D02*
X83006800Y-118422400D01*
X72691500Y-117355300D02*
X73758600Y-118422400D01*
X111478000Y-37503100D02*
X112395000Y-36586200D01*
X111478000Y-37688500D02*
X111478000Y-37503100D01*
X111478000Y-112433000D02*
X112395000Y-111516000D01*
X111478000Y-112811900D02*
X111478000Y-112433000D01*
X96139000Y-146314000D02*
X97663000Y-144790000D01*
X93726000Y-146314000D02*
X96139000Y-146314000D01*
X93314500Y-145903000D02*
X93726000Y-146314000D01*
X92400100Y-145903000D02*
X93314500Y-145903000D01*
X111478000Y-112812000D02*
X111478000Y-112811900D01*
X77622400Y-112812000D02*
X77622500Y-112812000D01*
X79730600Y-112812000D02*
X81026000Y-111516000D01*
X77622500Y-112812000D02*
X79730600Y-112812000D01*
X77622500Y-112812000D02*
X77622400Y-112811900D01*
X77622400Y-75250000D02*
X77622500Y-75250000D01*
X79827100Y-75250000D02*
X81026000Y-74051200D01*
X77622500Y-75250000D02*
X79827100Y-75250000D01*
X77622500Y-75250000D02*
X77622400Y-75250100D01*
X111478000Y-74968100D02*
X112395000Y-74051200D01*
X111478000Y-75250000D02*
X111478000Y-74968100D01*
X111478000Y-75250000D02*
X111478000Y-75250100D01*
X77622400Y-37688500D02*
X79923600Y-37688500D01*
X79923600Y-37688500D02*
X81026000Y-36586200D01*
X70643600Y-50600500D02*
X58039000Y-50600500D01*
X80363800Y-40880300D02*
X70643600Y-50600500D01*
X80363800Y-38128700D02*
X80363800Y-40880300D01*
X79923600Y-37688500D02*
X80363800Y-38128700D01*
D20*
X63171900Y-90367100D02*
X54356700Y-81551900D01*
X85413600Y-90367100D02*
X63171900Y-90367100D01*
X94234000Y-99187500D02*
X85413600Y-90367100D01*
X64179600Y-53282100D02*
X64015400Y-53117900D01*
X64179600Y-53282200D02*
X64179600Y-53282100D01*
X78514500Y-53282200D02*
X64179600Y-53282200D01*
X84410900Y-59178600D02*
X78514500Y-53282200D01*
X64056000Y-89645100D02*
X55543400Y-81132500D01*
X103816200Y-89645100D02*
X64056000Y-89645100D01*
X108839000Y-94667900D02*
X103816200Y-89645100D01*
X73560800Y-58049300D02*
X64478400Y-58049300D01*
X92690700Y-77179200D02*
X73560800Y-58049300D01*
X76244100Y-57125900D02*
X76307600Y-57062400D01*
X58039000Y-57125900D02*
X76244100Y-57125900D01*
X68819300Y-97622700D02*
X74918100Y-97622700D01*
X53439100Y-82242500D02*
X68819300Y-97622700D01*
X53439100Y-66361700D02*
X53439100Y-82242500D01*
X61036200Y-58764600D02*
X53439100Y-66361700D01*
X64232300Y-72104700D02*
X57747200Y-65619600D01*
X64232300Y-75247900D02*
X64232300Y-72104700D01*
X74329000Y-85344600D02*
X64232300Y-75247900D01*
X84196500Y-85344600D02*
X74329000Y-85344600D01*
D19*
X109784000Y-72852300D02*
X110528000Y-72852300D01*
X109347000Y-73289200D02*
X109784000Y-72852300D01*
X77160100Y-72852300D02*
X76672400Y-72852300D01*
X77851000Y-73543200D02*
X77160100Y-72852300D01*
X94797900Y-143322000D02*
X94615000Y-143139000D01*
X94797900Y-144953000D02*
X94797900Y-143322000D01*
X76672500Y-110414000D02*
X76672400Y-110414000D01*
X76672500Y-110414000D02*
X76672400Y-110414100D01*
X76672500Y-35290800D02*
X76672400Y-35290800D01*
X110527900Y-110414000D02*
X110528000Y-110414000D01*
X110527900Y-110414000D02*
X110528000Y-110414100D01*
X110527900Y-35290800D02*
X110528000Y-35290800D01*
X110527900Y-35290800D02*
X110528000Y-35290700D01*
X109880000Y-35290800D02*
X110527900Y-35290800D01*
X109474000Y-35697200D02*
X109880000Y-35290800D01*
X77383600Y-110414000D02*
X76672500Y-110414000D01*
X77724000Y-110754000D02*
X77383600Y-110414000D01*
X76672500Y-35290800D02*
X76672400Y-35290700D01*
X76672400Y-35290700D02*
X75661200Y-35290700D01*
X109347000Y-110754000D02*
X109517000Y-110584000D01*
X109687000Y-110414000D02*
X110527900Y-110414000D01*
X109517000Y-110584000D02*
X109687000Y-110414000D01*
X78087700Y-110390300D02*
X77724000Y-110754000D01*
X109323300Y-110390300D02*
X78087700Y-110390300D01*
X109517000Y-110584000D02*
X109323300Y-110390300D01*
X77724000Y-36205200D02*
X77171500Y-35652700D01*
X76809600Y-35290800D02*
X76672500Y-35290800D01*
X77171500Y-35652700D02*
X76809600Y-35290800D01*
X109211200Y-35434400D02*
X109474000Y-35697200D01*
X77389800Y-35434400D02*
X109211200Y-35434400D01*
X77171500Y-35652700D02*
X77389800Y-35434400D01*
X74620300Y-39245700D02*
X64606200Y-49259800D01*
X74620300Y-36331600D02*
X74620300Y-39245700D01*
X75661200Y-35290700D02*
X74620300Y-36331600D01*
D20*
X92400100Y-142801800D02*
X92400100Y-144003000D01*
X90759200Y-141160900D02*
X92400100Y-142801800D01*
X109578000Y-38976300D02*
X109578000Y-37688500D01*
X110998000Y-40396200D02*
X109578000Y-38976300D01*
X109601000Y-75272900D02*
X109578000Y-75250000D01*
X109601000Y-76718200D02*
X109601000Y-75272900D01*
X110998000Y-78115200D02*
X109601000Y-76718200D01*
X109578000Y-75250100D02*
X109578000Y-75250000D01*
X107340000Y-112812000D02*
X109577900Y-112812000D01*
X106045000Y-111516000D02*
X107340000Y-112812000D01*
X109577900Y-112812000D02*
X109578000Y-112812000D01*
X109577900Y-112812000D02*
X109578000Y-112811900D01*
X76405700Y-38371700D02*
X75722500Y-37688500D01*
X76405600Y-38371700D02*
X75722400Y-37688500D01*
X76405700Y-38371700D02*
X76405600Y-38371700D01*
X77668100Y-39634200D02*
X76405700Y-38371700D01*
X78486000Y-39634200D02*
X77668100Y-39634200D01*
X79248000Y-40396200D02*
X78486000Y-39634200D01*
X76405700Y-75933200D02*
X75722500Y-75250000D01*
X76405500Y-75933200D02*
X75722400Y-75250100D01*
X76405700Y-75933200D02*
X76405500Y-75933200D01*
X77698600Y-77226200D02*
X76405700Y-75933200D01*
X78359000Y-77226200D02*
X77698600Y-77226200D01*
X79248000Y-78115200D02*
X78359000Y-77226200D01*
X75722500Y-112812000D02*
X75722500Y-113068500D01*
X76835000Y-114437000D02*
X81280000Y-114437000D01*
X75722500Y-113325000D02*
X76835000Y-114437000D01*
X75722500Y-113068500D02*
X75722500Y-113325000D01*
X75722400Y-113068400D02*
X75722400Y-112811900D01*
X75722500Y-113068500D02*
X75722400Y-113068400D01*
D21*
G36*
X99003453Y-124743377D02*
X98872473Y-125401858D01*
X98872473Y-125443134D01*
X98864420Y-125483620D01*
X98864420Y-151916763D01*
X98463239Y-153933633D01*
X98463239Y-144631548D01*
X98341687Y-144337372D01*
X98116812Y-144112104D01*
X97822848Y-143990039D01*
X97504548Y-143989761D01*
X97210372Y-144111313D01*
X96985104Y-144336188D01*
X96946703Y-144428665D01*
X95877643Y-145497726D01*
X95907860Y-145424777D01*
X95907860Y-145257800D01*
X95755460Y-145105400D01*
X94950280Y-145105400D01*
X94950280Y-145125400D01*
X94645480Y-145125400D01*
X94645480Y-145105400D01*
X94645480Y-144800600D01*
X94645480Y-144145280D01*
X94493080Y-143992880D01*
X94418757Y-143992880D01*
X94176243Y-143992880D01*
X93952189Y-144085686D01*
X93780706Y-144257169D01*
X93687900Y-144481223D01*
X93687900Y-144648200D01*
X93840300Y-144800600D01*
X94645480Y-144800600D01*
X94645480Y-145105400D01*
X93840300Y-145105400D01*
X93690383Y-145255316D01*
X93606105Y-145199004D01*
X93605871Y-145198957D01*
X93605676Y-145198827D01*
X93460985Y-145170137D01*
X93314500Y-145141000D01*
X93263067Y-145141000D01*
X93263067Y-144353560D01*
X93263067Y-143652520D01*
X93236759Y-143516931D01*
X93158477Y-143397761D01*
X93040299Y-143317989D01*
X92958900Y-143301664D01*
X92958900Y-142801800D01*
X92916364Y-142587957D01*
X92916364Y-142587956D01*
X92795231Y-142406669D01*
X91559292Y-141170730D01*
X91559439Y-141002448D01*
X91437887Y-140708272D01*
X91213012Y-140483004D01*
X90919048Y-140360939D01*
X90600748Y-140360661D01*
X90306572Y-140482213D01*
X90081304Y-140707088D01*
X89959239Y-141001052D01*
X89958961Y-141319352D01*
X90080513Y-141613528D01*
X90305388Y-141838796D01*
X90599352Y-141960861D01*
X90769047Y-141961009D01*
X91841300Y-143033262D01*
X91841300Y-143301291D01*
X91764151Y-143316261D01*
X91644981Y-143394543D01*
X91565209Y-143512721D01*
X91537173Y-143652520D01*
X91537173Y-144353560D01*
X91563481Y-144489149D01*
X91641763Y-144608319D01*
X91759941Y-144688091D01*
X91899740Y-144716127D01*
X92900500Y-144716127D01*
X93036089Y-144689819D01*
X93155259Y-144611537D01*
X93235031Y-144493359D01*
X93263067Y-144353560D01*
X93263067Y-145141000D01*
X92400100Y-145141000D01*
X92154399Y-145189873D01*
X91899740Y-145189873D01*
X91764151Y-145216181D01*
X91644981Y-145294463D01*
X91565209Y-145412641D01*
X91537173Y-145552440D01*
X91537173Y-146253480D01*
X91563481Y-146389069D01*
X91641763Y-146508239D01*
X91759941Y-146588011D01*
X91899740Y-146616047D01*
X92153997Y-146616047D01*
X92400100Y-146665000D01*
X92999140Y-146665000D01*
X93187512Y-146853143D01*
X93311463Y-146935855D01*
X93434395Y-147017996D01*
X93434626Y-147018042D01*
X93434823Y-147018173D01*
X93579672Y-147046893D01*
X93726000Y-147076000D01*
X96139000Y-147076000D01*
X96139000Y-147075999D01*
X96430604Y-147017996D01*
X96430605Y-147017996D01*
X96677815Y-146852815D01*
X98024142Y-145506488D01*
X98115628Y-145468687D01*
X98340896Y-145243812D01*
X98462961Y-144949848D01*
X98463239Y-144631548D01*
X98463239Y-153933633D01*
X98456028Y-153969886D01*
X98146387Y-154433296D01*
X98146387Y-151057593D01*
X97455667Y-149385923D01*
X96177805Y-148105828D01*
X94507342Y-147412191D01*
X92698593Y-147410613D01*
X91026923Y-148101333D01*
X89746828Y-149379195D01*
X89053191Y-151049658D01*
X89051613Y-152858407D01*
X89742333Y-154530077D01*
X91020195Y-155810172D01*
X92690658Y-156503809D01*
X94499407Y-156505387D01*
X96171077Y-155814667D01*
X97451172Y-154536805D01*
X98144809Y-152866342D01*
X98146387Y-151057593D01*
X98146387Y-154433296D01*
X97316408Y-155675448D01*
X95610847Y-156815068D01*
X93599000Y-157215249D01*
X91587153Y-156815068D01*
X89881591Y-155675448D01*
X88741971Y-153969887D01*
X88336120Y-151929532D01*
X88336120Y-125483620D01*
X88328067Y-125443134D01*
X88328067Y-125401858D01*
X88183911Y-124677141D01*
X94107000Y-130600230D01*
X94107000Y-135191295D01*
X94078697Y-135202990D01*
X93685371Y-135595630D01*
X93599050Y-135803512D01*
X93514010Y-135597697D01*
X93121370Y-135204371D01*
X92608100Y-134991243D01*
X92052339Y-134990758D01*
X91538697Y-135202990D01*
X91145371Y-135595630D01*
X90932243Y-136108900D01*
X90931758Y-136664661D01*
X91143990Y-137178303D01*
X91536630Y-137571629D01*
X92049900Y-137784757D01*
X92605661Y-137785242D01*
X93119303Y-137573010D01*
X93512629Y-137180370D01*
X93598949Y-136972487D01*
X93683990Y-137178303D01*
X94076630Y-137571629D01*
X94589900Y-137784757D01*
X95145661Y-137785242D01*
X95659303Y-137573010D01*
X95859900Y-137372762D01*
X95859900Y-143115666D01*
X95702404Y-143272888D01*
X95580339Y-143566852D01*
X95580061Y-143885152D01*
X95676545Y-144118660D01*
X95643571Y-144085686D01*
X95419517Y-143992880D01*
X95177003Y-143992880D01*
X95102680Y-143992880D01*
X94950280Y-144145280D01*
X94950280Y-144800600D01*
X95755460Y-144800600D01*
X95907860Y-144648200D01*
X95907860Y-144481223D01*
X95840398Y-144318355D01*
X95926488Y-144404596D01*
X96220452Y-144526661D01*
X96538752Y-144526939D01*
X96832928Y-144405387D01*
X97058196Y-144180512D01*
X97096596Y-144088033D01*
X97160715Y-144023915D01*
X97325896Y-143776705D01*
X97325896Y-143776704D01*
X97383899Y-143485100D01*
X97383900Y-143485100D01*
X97383900Y-126362930D01*
X99003453Y-124743377D01*
X99003453Y-124743377D01*
G37*
X99003453Y-124743377D02*
X98872473Y-125401858D01*
X98872473Y-125443134D01*
X98864420Y-125483620D01*
X98864420Y-151916763D01*
X98463239Y-153933633D01*
X98463239Y-144631548D01*
X98341687Y-144337372D01*
X98116812Y-144112104D01*
X97822848Y-143990039D01*
X97504548Y-143989761D01*
X97210372Y-144111313D01*
X96985104Y-144336188D01*
X96946703Y-144428665D01*
X95877643Y-145497726D01*
X95907860Y-145424777D01*
X95907860Y-145257800D01*
X95755460Y-145105400D01*
X94950280Y-145105400D01*
X94950280Y-145125400D01*
X94645480Y-145125400D01*
X94645480Y-145105400D01*
X94645480Y-144800600D01*
X94645480Y-144145280D01*
X94493080Y-143992880D01*
X94418757Y-143992880D01*
X94176243Y-143992880D01*
X93952189Y-144085686D01*
X93780706Y-144257169D01*
X93687900Y-144481223D01*
X93687900Y-144648200D01*
X93840300Y-144800600D01*
X94645480Y-144800600D01*
X94645480Y-145105400D01*
X93840300Y-145105400D01*
X93690383Y-145255316D01*
X93606105Y-145199004D01*
X93605871Y-145198957D01*
X93605676Y-145198827D01*
X93460985Y-145170137D01*
X93314500Y-145141000D01*
X93263067Y-145141000D01*
X93263067Y-144353560D01*
X93263067Y-143652520D01*
X93236759Y-143516931D01*
X93158477Y-143397761D01*
X93040299Y-143317989D01*
X92958900Y-143301664D01*
X92958900Y-142801800D01*
X92916364Y-142587957D01*
X92916364Y-142587956D01*
X92795231Y-142406669D01*
X91559292Y-141170730D01*
X91559439Y-141002448D01*
X91437887Y-140708272D01*
X91213012Y-140483004D01*
X90919048Y-140360939D01*
X90600748Y-140360661D01*
X90306572Y-140482213D01*
X90081304Y-140707088D01*
X89959239Y-141001052D01*
X89958961Y-141319352D01*
X90080513Y-141613528D01*
X90305388Y-141838796D01*
X90599352Y-141960861D01*
X90769047Y-141961009D01*
X91841300Y-143033262D01*
X91841300Y-143301291D01*
X91764151Y-143316261D01*
X91644981Y-143394543D01*
X91565209Y-143512721D01*
X91537173Y-143652520D01*
X91537173Y-144353560D01*
X91563481Y-144489149D01*
X91641763Y-144608319D01*
X91759941Y-144688091D01*
X91899740Y-144716127D01*
X92900500Y-144716127D01*
X93036089Y-144689819D01*
X93155259Y-144611537D01*
X93235031Y-144493359D01*
X93263067Y-144353560D01*
X93263067Y-145141000D01*
X92400100Y-145141000D01*
X92154399Y-145189873D01*
X91899740Y-145189873D01*
X91764151Y-145216181D01*
X91644981Y-145294463D01*
X91565209Y-145412641D01*
X91537173Y-145552440D01*
X91537173Y-146253480D01*
X91563481Y-146389069D01*
X91641763Y-146508239D01*
X91759941Y-146588011D01*
X91899740Y-146616047D01*
X92153997Y-146616047D01*
X92400100Y-146665000D01*
X92999140Y-146665000D01*
X93187512Y-146853143D01*
X93311463Y-146935855D01*
X93434395Y-147017996D01*
X93434626Y-147018042D01*
X93434823Y-147018173D01*
X93579672Y-147046893D01*
X93726000Y-147076000D01*
X96139000Y-147076000D01*
X96139000Y-147075999D01*
X96430604Y-147017996D01*
X96430605Y-147017996D01*
X96677815Y-146852815D01*
X98024142Y-145506488D01*
X98115628Y-145468687D01*
X98340896Y-145243812D01*
X98462961Y-144949848D01*
X98463239Y-144631548D01*
X98463239Y-153933633D01*
X98456028Y-153969886D01*
X98146387Y-154433296D01*
X98146387Y-151057593D01*
X97455667Y-149385923D01*
X96177805Y-148105828D01*
X94507342Y-147412191D01*
X92698593Y-147410613D01*
X91026923Y-148101333D01*
X89746828Y-149379195D01*
X89053191Y-151049658D01*
X89051613Y-152858407D01*
X89742333Y-154530077D01*
X91020195Y-155810172D01*
X92690658Y-156503809D01*
X94499407Y-156505387D01*
X96171077Y-155814667D01*
X97451172Y-154536805D01*
X98144809Y-152866342D01*
X98146387Y-151057593D01*
X98146387Y-154433296D01*
X97316408Y-155675448D01*
X95610847Y-156815068D01*
X93599000Y-157215249D01*
X91587153Y-156815068D01*
X89881591Y-155675448D01*
X88741971Y-153969887D01*
X88336120Y-151929532D01*
X88336120Y-125483620D01*
X88328067Y-125443134D01*
X88328067Y-125401858D01*
X88183911Y-124677141D01*
X94107000Y-130600230D01*
X94107000Y-135191295D01*
X94078697Y-135202990D01*
X93685371Y-135595630D01*
X93599050Y-135803512D01*
X93514010Y-135597697D01*
X93121370Y-135204371D01*
X92608100Y-134991243D01*
X92052339Y-134990758D01*
X91538697Y-135202990D01*
X91145371Y-135595630D01*
X90932243Y-136108900D01*
X90931758Y-136664661D01*
X91143990Y-137178303D01*
X91536630Y-137571629D01*
X92049900Y-137784757D01*
X92605661Y-137785242D01*
X93119303Y-137573010D01*
X93512629Y-137180370D01*
X93598949Y-136972487D01*
X93683990Y-137178303D01*
X94076630Y-137571629D01*
X94589900Y-137784757D01*
X95145661Y-137785242D01*
X95659303Y-137573010D01*
X95859900Y-137372762D01*
X95859900Y-143115666D01*
X95702404Y-143272888D01*
X95580339Y-143566852D01*
X95580061Y-143885152D01*
X95676545Y-144118660D01*
X95643571Y-144085686D01*
X95419517Y-143992880D01*
X95177003Y-143992880D01*
X95102680Y-143992880D01*
X94950280Y-144145280D01*
X94950280Y-144800600D01*
X95755460Y-144800600D01*
X95907860Y-144648200D01*
X95907860Y-144481223D01*
X95840398Y-144318355D01*
X95926488Y-144404596D01*
X96220452Y-144526661D01*
X96538752Y-144526939D01*
X96832928Y-144405387D01*
X97058196Y-144180512D01*
X97096596Y-144088033D01*
X97160715Y-144023915D01*
X97325896Y-143776705D01*
X97325896Y-143776704D01*
X97383899Y-143485100D01*
X97383900Y-143485100D01*
X97383900Y-126362930D01*
X99003453Y-124743377D01*
G36*
X135981440Y-119879743D02*
X135794042Y-120821851D01*
X135283761Y-121585541D01*
X134520072Y-122095822D01*
X133655538Y-122267789D01*
X133655538Y-110654746D01*
X133655538Y-73092946D01*
X133655538Y-35531346D01*
X132920442Y-33752277D01*
X131560482Y-32389941D01*
X129782700Y-31651742D01*
X127857746Y-31650062D01*
X126078677Y-32385158D01*
X124716341Y-33745118D01*
X123978142Y-35522900D01*
X123976462Y-37447854D01*
X124711558Y-39226923D01*
X126071518Y-40589259D01*
X127849300Y-41327458D01*
X129774254Y-41329138D01*
X131553323Y-40594042D01*
X132915659Y-39234082D01*
X133653858Y-37456300D01*
X133655538Y-35531346D01*
X133655538Y-73092946D01*
X132920442Y-71313877D01*
X131560482Y-69951541D01*
X129782700Y-69213342D01*
X127857746Y-69211662D01*
X126078677Y-69946758D01*
X124716341Y-71306718D01*
X123978142Y-73084500D01*
X123976462Y-75009454D01*
X124711558Y-76788523D01*
X126071518Y-78150859D01*
X127849300Y-78889058D01*
X129774254Y-78890738D01*
X131553323Y-78155642D01*
X132915659Y-76795682D01*
X133653858Y-75017900D01*
X133655538Y-73092946D01*
X133655538Y-110654746D01*
X132920442Y-108875677D01*
X131560482Y-107513341D01*
X129782700Y-106775142D01*
X127857746Y-106773462D01*
X126078677Y-107508558D01*
X124716341Y-108868518D01*
X123978142Y-110646300D01*
X123976462Y-112571254D01*
X124711558Y-114350323D01*
X126071518Y-115712659D01*
X127849300Y-116450858D01*
X129774254Y-116452538D01*
X131553323Y-115717442D01*
X132915659Y-114357482D01*
X133653858Y-112579700D01*
X133655538Y-110654746D01*
X133655538Y-122267789D01*
X133577963Y-122283220D01*
X102064820Y-122283220D01*
X102024334Y-122291273D01*
X101983058Y-122291273D01*
X101324577Y-122422253D01*
X105674730Y-118072100D01*
X119086365Y-118072100D01*
X118518674Y-118638801D01*
X118173793Y-119469366D01*
X118173008Y-120368688D01*
X118516439Y-121199854D01*
X119151801Y-121836326D01*
X119982366Y-122181207D01*
X120881688Y-122181992D01*
X121712854Y-121838561D01*
X122349326Y-121203199D01*
X122694207Y-120372634D01*
X122694992Y-119473312D01*
X122351561Y-118642146D01*
X121782509Y-118072100D01*
X122341670Y-118072100D01*
X123131711Y-118862141D01*
X123169513Y-118953628D01*
X123394388Y-119178896D01*
X123688352Y-119300961D01*
X124006652Y-119301239D01*
X124300828Y-119179687D01*
X124526096Y-118954812D01*
X124648161Y-118660848D01*
X124648439Y-118342548D01*
X124526887Y-118048372D01*
X124302012Y-117823104D01*
X124209533Y-117784703D01*
X123196115Y-116771285D01*
X122948905Y-116606104D01*
X122657300Y-116548100D01*
X110375600Y-116548100D01*
X110375600Y-111371700D01*
X110375600Y-110566520D01*
X110375600Y-110261720D01*
X110375600Y-109456540D01*
X110223200Y-109304140D01*
X110056223Y-109304140D01*
X109832169Y-109396946D01*
X109660686Y-109568429D01*
X109567880Y-109792483D01*
X109567880Y-110034997D01*
X109567880Y-110109320D01*
X109720280Y-110261720D01*
X110375600Y-110261720D01*
X110375600Y-110566520D01*
X109720280Y-110566520D01*
X109567880Y-110718920D01*
X109567880Y-110793243D01*
X109567880Y-111035757D01*
X109660686Y-111259811D01*
X109832169Y-111431294D01*
X110056223Y-111524100D01*
X110223200Y-111524100D01*
X110375600Y-111371700D01*
X110375600Y-116548100D01*
X110291127Y-116548100D01*
X110291127Y-113312260D01*
X110291127Y-112311500D01*
X110264819Y-112175911D01*
X110186537Y-112056741D01*
X110068359Y-111976969D01*
X109928560Y-111948933D01*
X109227520Y-111948933D01*
X109091931Y-111975241D01*
X108972761Y-112053523D01*
X108892989Y-112171701D01*
X108876644Y-112253200D01*
X107571589Y-112253200D01*
X106845091Y-111526141D01*
X106845239Y-111357548D01*
X106723687Y-111063372D01*
X106498812Y-110838104D01*
X106204848Y-110716039D01*
X105886548Y-110715761D01*
X105592372Y-110837313D01*
X105367104Y-111062188D01*
X105245039Y-111356152D01*
X105244761Y-111674452D01*
X105366313Y-111968628D01*
X105591188Y-112193896D01*
X105885152Y-112315961D01*
X106054533Y-112316108D01*
X106944716Y-113206979D01*
X106944808Y-113207041D01*
X106944869Y-113207131D01*
X107034854Y-113267258D01*
X107125958Y-113328182D01*
X107126065Y-113328203D01*
X107126156Y-113328264D01*
X107232434Y-113349404D01*
X107339784Y-113370800D01*
X107339892Y-113370778D01*
X107340000Y-113370800D01*
X108876311Y-113370800D01*
X108891261Y-113447849D01*
X108969543Y-113567019D01*
X109087721Y-113646791D01*
X109227520Y-113674827D01*
X109928560Y-113674827D01*
X110064149Y-113648519D01*
X110183319Y-113570237D01*
X110263091Y-113452059D01*
X110291127Y-113312260D01*
X110291127Y-116548100D01*
X105359100Y-116548100D01*
X105067495Y-116606104D01*
X104968476Y-116672265D01*
X104820285Y-116771284D01*
X96621900Y-124969669D01*
X87578215Y-115925985D01*
X87331005Y-115760804D01*
X87039400Y-115702800D01*
X77896330Y-115702800D01*
X77189330Y-114995800D01*
X80707299Y-114995800D01*
X80826188Y-115114896D01*
X81120152Y-115236961D01*
X81438452Y-115237239D01*
X81732628Y-115115687D01*
X81957896Y-114890812D01*
X82079961Y-114596848D01*
X82080239Y-114278548D01*
X81958687Y-113984372D01*
X81826239Y-113851692D01*
X81826239Y-111357548D01*
X81704687Y-111063372D01*
X81479812Y-110838104D01*
X81185848Y-110716039D01*
X80867548Y-110715761D01*
X80573372Y-110837313D01*
X80348104Y-111062188D01*
X80309645Y-111154805D01*
X79414865Y-112050000D01*
X78220870Y-112050000D01*
X78112679Y-111976969D01*
X77972880Y-111948933D01*
X77632520Y-111948933D01*
X77632520Y-111035757D01*
X77632520Y-110793243D01*
X77632520Y-110718920D01*
X77632520Y-110109320D01*
X77632520Y-110034997D01*
X77632520Y-109792483D01*
X77539714Y-109568429D01*
X77368231Y-109396946D01*
X77144177Y-109304140D01*
X76977200Y-109304140D01*
X76824800Y-109456540D01*
X76824800Y-110261720D01*
X77480120Y-110261720D01*
X77632520Y-110109320D01*
X77632520Y-110718920D01*
X77480120Y-110566520D01*
X76824800Y-110566520D01*
X76824800Y-111371700D01*
X76977200Y-111524100D01*
X77144177Y-111524100D01*
X77368231Y-111431294D01*
X77539714Y-111259811D01*
X77632520Y-111035757D01*
X77632520Y-111948933D01*
X77271840Y-111948933D01*
X77136251Y-111975241D01*
X77017081Y-112053523D01*
X76937309Y-112171701D01*
X76909273Y-112311500D01*
X76909273Y-112566201D01*
X76860401Y-112811900D01*
X76860410Y-112811947D01*
X76860400Y-112812000D01*
X76909273Y-113057700D01*
X76909273Y-113312260D01*
X76935581Y-113447849D01*
X77013863Y-113567019D01*
X77132041Y-113646791D01*
X77271840Y-113674827D01*
X77972880Y-113674827D01*
X78108469Y-113648519D01*
X78221910Y-113574000D01*
X79730600Y-113574000D01*
X79730690Y-113573982D01*
X79730776Y-113573999D01*
X79874944Y-113545287D01*
X80022205Y-113515996D01*
X80022279Y-113515946D01*
X80022367Y-113515929D01*
X80147114Y-113432533D01*
X80269415Y-113350815D01*
X80269463Y-113350741D01*
X80269540Y-113350691D01*
X81387281Y-112232430D01*
X81478628Y-112194687D01*
X81703896Y-111969812D01*
X81825961Y-111675848D01*
X81826239Y-111357548D01*
X81826239Y-113851692D01*
X81733812Y-113759104D01*
X81439848Y-113637039D01*
X81121548Y-113636761D01*
X80827372Y-113758313D01*
X80707275Y-113878200D01*
X77066388Y-113878200D01*
X76520000Y-113332057D01*
X76520000Y-111371700D01*
X76520000Y-110566520D01*
X76520000Y-110261720D01*
X76520000Y-109456540D01*
X76367600Y-109304140D01*
X76200623Y-109304140D01*
X75976569Y-109396946D01*
X75805086Y-109568429D01*
X75712280Y-109792483D01*
X75712280Y-110034997D01*
X75712280Y-110109320D01*
X75864680Y-110261720D01*
X76520000Y-110261720D01*
X76520000Y-110566520D01*
X75864680Y-110566520D01*
X75712280Y-110718920D01*
X75712280Y-110793243D01*
X75712280Y-111035757D01*
X75805086Y-111259811D01*
X75976569Y-111431294D01*
X76200623Y-111524100D01*
X76367600Y-111524100D01*
X76520000Y-111371700D01*
X76520000Y-113332057D01*
X76435527Y-113247622D01*
X76435527Y-112311500D01*
X76409219Y-112175911D01*
X76330937Y-112056741D01*
X76212759Y-111976969D01*
X76072960Y-111948933D01*
X75420600Y-111948933D01*
X75420600Y-105070700D01*
X75362596Y-104779096D01*
X75362596Y-104779095D01*
X75296434Y-104680076D01*
X75197416Y-104531885D01*
X68847030Y-98181500D01*
X74345399Y-98181500D01*
X74464288Y-98300596D01*
X74758252Y-98422661D01*
X75076552Y-98422939D01*
X75370728Y-98301387D01*
X75595996Y-98076512D01*
X75718061Y-97782548D01*
X75718339Y-97464248D01*
X75596787Y-97170072D01*
X75371912Y-96944804D01*
X75077948Y-96822739D01*
X74759648Y-96822461D01*
X74465472Y-96944013D01*
X74345375Y-97063900D01*
X69050762Y-97063900D01*
X64320862Y-92334000D01*
X82451969Y-92334000D01*
X95879385Y-105761416D01*
X96027576Y-105860434D01*
X96126595Y-105926596D01*
X96126596Y-105926596D01*
X96418200Y-105984600D01*
X117327632Y-105984600D01*
X117419052Y-106022561D01*
X117726799Y-106022829D01*
X119005363Y-107301393D01*
X118441342Y-107067191D01*
X116632593Y-107065613D01*
X114960923Y-107756333D01*
X113680828Y-109034195D01*
X112987191Y-110704658D01*
X112986953Y-110976487D01*
X112848812Y-110838104D01*
X112554848Y-110716039D01*
X112236548Y-110715761D01*
X111942372Y-110837313D01*
X111717104Y-111062188D01*
X111678703Y-111154666D01*
X111488120Y-111345249D01*
X111488120Y-111035757D01*
X111488120Y-110793243D01*
X111488120Y-110718920D01*
X111488120Y-110109320D01*
X111488120Y-110034997D01*
X111488120Y-109792483D01*
X111395314Y-109568429D01*
X111223831Y-109396946D01*
X110999777Y-109304140D01*
X110832800Y-109304140D01*
X110680400Y-109456540D01*
X110680400Y-110261720D01*
X111335720Y-110261720D01*
X111488120Y-110109320D01*
X111488120Y-110718920D01*
X111335720Y-110566520D01*
X110680400Y-110566520D01*
X110680400Y-111371700D01*
X110832800Y-111524100D01*
X110999777Y-111524100D01*
X111223831Y-111431294D01*
X111395314Y-111259811D01*
X111488120Y-111035757D01*
X111488120Y-111345249D01*
X110939185Y-111894185D01*
X110774004Y-112141395D01*
X110716000Y-112433000D01*
X110716000Y-112811900D01*
X110716000Y-112812000D01*
X110764873Y-113057700D01*
X110764873Y-113312260D01*
X110791181Y-113447849D01*
X110869463Y-113567019D01*
X110987641Y-113646791D01*
X111127440Y-113674827D01*
X111828480Y-113674827D01*
X111964069Y-113648519D01*
X112083239Y-113570237D01*
X112163011Y-113452059D01*
X112191047Y-113312260D01*
X112191047Y-113058102D01*
X112240000Y-112812000D01*
X112240000Y-112811900D01*
X112240000Y-112748630D01*
X112756141Y-112232488D01*
X112847628Y-112194687D01*
X112986011Y-112056544D01*
X112985613Y-112513407D01*
X113676333Y-114185077D01*
X114954195Y-115465172D01*
X116624658Y-116158809D01*
X118433407Y-116160387D01*
X120105077Y-115469667D01*
X121385172Y-114191805D01*
X122078809Y-112521342D01*
X122080387Y-110712593D01*
X121843674Y-110139704D01*
X121961411Y-110257441D01*
X121999213Y-110348928D01*
X122224088Y-110574196D01*
X122518052Y-110696261D01*
X122836352Y-110696539D01*
X123130528Y-110574987D01*
X123355796Y-110350112D01*
X123477861Y-110056148D01*
X123478139Y-109737848D01*
X123356587Y-109443672D01*
X123131712Y-109218404D01*
X123039233Y-109180003D01*
X122694992Y-108835762D01*
X122694992Y-65295112D01*
X122694992Y-27733612D01*
X122351561Y-26902446D01*
X121716199Y-26265974D01*
X120885634Y-25921093D01*
X119986312Y-25920308D01*
X119155146Y-26263739D01*
X118518674Y-26899101D01*
X118173793Y-27729666D01*
X118173008Y-28628988D01*
X118516439Y-29460154D01*
X119151801Y-30096626D01*
X119982366Y-30441507D01*
X120881688Y-30442292D01*
X121712854Y-30098861D01*
X122349326Y-29463499D01*
X122694207Y-28632934D01*
X122694992Y-27733612D01*
X122694992Y-65295112D01*
X122351561Y-64463946D01*
X122080387Y-64192298D01*
X122080387Y-35589193D01*
X121389667Y-33917523D01*
X120111805Y-32637428D01*
X118441342Y-31943791D01*
X116632593Y-31942213D01*
X114960923Y-32632933D01*
X113680828Y-33910795D01*
X112987191Y-35581258D01*
X112986785Y-36046518D01*
X112848812Y-35908304D01*
X112554848Y-35786239D01*
X112236548Y-35785961D01*
X111942372Y-35907513D01*
X111717104Y-36132388D01*
X111678717Y-36224831D01*
X111488120Y-36415407D01*
X111488120Y-35912357D01*
X111488120Y-35669843D01*
X111488120Y-35595520D01*
X111488120Y-34985920D01*
X111488120Y-34911597D01*
X111488120Y-34669083D01*
X111395314Y-34445029D01*
X111223831Y-34273546D01*
X110999777Y-34180740D01*
X110832800Y-34180740D01*
X110680400Y-34333140D01*
X110680400Y-35138320D01*
X111335720Y-35138320D01*
X111488120Y-34985920D01*
X111488120Y-35595520D01*
X111335720Y-35443120D01*
X110680400Y-35443120D01*
X110680400Y-36248300D01*
X110832800Y-36400700D01*
X110999777Y-36400700D01*
X111223831Y-36307894D01*
X111395314Y-36136411D01*
X111488120Y-35912357D01*
X111488120Y-36415407D01*
X111066035Y-36837447D01*
X110991851Y-36851841D01*
X110872681Y-36930123D01*
X110792909Y-37048301D01*
X110764873Y-37188100D01*
X110764873Y-37257399D01*
X110743014Y-37367290D01*
X110716001Y-37503058D01*
X110716004Y-37503076D01*
X110716000Y-37503100D01*
X110716000Y-37688500D01*
X110764873Y-37934200D01*
X110764873Y-38188860D01*
X110791181Y-38324449D01*
X110869463Y-38443619D01*
X110987641Y-38523391D01*
X111127440Y-38551427D01*
X111828480Y-38551427D01*
X111964069Y-38525119D01*
X112083239Y-38446837D01*
X112163011Y-38328659D01*
X112191047Y-38188860D01*
X112191047Y-37934602D01*
X112207657Y-37851093D01*
X112756109Y-37302701D01*
X112847628Y-37264887D01*
X112985842Y-37126913D01*
X112985613Y-37390007D01*
X113676333Y-39061677D01*
X114954195Y-40341772D01*
X116624658Y-41035409D01*
X118433407Y-41036987D01*
X120105077Y-40346267D01*
X121385172Y-39068405D01*
X122078809Y-37397942D01*
X122080387Y-35589193D01*
X122080387Y-64192298D01*
X121716199Y-63827474D01*
X120885634Y-63482593D01*
X119986312Y-63481808D01*
X119829339Y-63546667D01*
X119829339Y-51981148D01*
X119707787Y-51686972D01*
X119482912Y-51461704D01*
X119188948Y-51339639D01*
X118870648Y-51339361D01*
X118576472Y-51460913D01*
X118351204Y-51685788D01*
X118229139Y-51979752D01*
X118228990Y-52149878D01*
X111798239Y-58580629D01*
X111798239Y-40237748D01*
X111676687Y-39943572D01*
X111451812Y-39718304D01*
X111157848Y-39596239D01*
X110988124Y-39596090D01*
X110375600Y-38983609D01*
X110375600Y-36248300D01*
X110375600Y-35443120D01*
X110375600Y-35138320D01*
X110375600Y-34333140D01*
X110223200Y-34180740D01*
X110056223Y-34180740D01*
X109832169Y-34273546D01*
X109660686Y-34445029D01*
X109567880Y-34669083D01*
X109567880Y-34911597D01*
X109567880Y-34985920D01*
X109720280Y-35138320D01*
X110375600Y-35138320D01*
X110375600Y-35443120D01*
X109720280Y-35443120D01*
X109567880Y-35595520D01*
X109567880Y-35669843D01*
X109567880Y-35912357D01*
X109660686Y-36136411D01*
X109832169Y-36307894D01*
X110056223Y-36400700D01*
X110223200Y-36400700D01*
X110375600Y-36248300D01*
X110375600Y-38983609D01*
X110136800Y-38744826D01*
X110136800Y-38477395D01*
X110183319Y-38446837D01*
X110263091Y-38328659D01*
X110291127Y-38188860D01*
X110291127Y-37188100D01*
X110264819Y-37052511D01*
X110186537Y-36933341D01*
X110068359Y-36853569D01*
X109928560Y-36825533D01*
X109227520Y-36825533D01*
X109091931Y-36851841D01*
X108972761Y-36930123D01*
X108892989Y-37048301D01*
X108864953Y-37188100D01*
X108864953Y-38188860D01*
X108891261Y-38324449D01*
X108969543Y-38443619D01*
X109019200Y-38477138D01*
X109019200Y-38976300D01*
X109019201Y-38976309D01*
X109019200Y-38976320D01*
X109041478Y-39088303D01*
X109061736Y-39190144D01*
X109061741Y-39190151D01*
X109061743Y-39190161D01*
X109120387Y-39277920D01*
X109182869Y-39371431D01*
X109182877Y-39371436D01*
X109182883Y-39371445D01*
X110197907Y-40386399D01*
X110197761Y-40554652D01*
X110319313Y-40848828D01*
X110544188Y-41074096D01*
X110838152Y-41196161D01*
X111156452Y-41196439D01*
X111450628Y-41074887D01*
X111675896Y-40850012D01*
X111797961Y-40556048D01*
X111798239Y-40237748D01*
X111798239Y-58580629D01*
X93452105Y-76926764D01*
X93369387Y-76726572D01*
X93144512Y-76501304D01*
X92850548Y-76379239D01*
X92680852Y-76379090D01*
X85211139Y-68909377D01*
X85211139Y-59020148D01*
X85089587Y-58725972D01*
X84864712Y-58500704D01*
X84570748Y-58378639D01*
X84401052Y-58378490D01*
X81826239Y-55803677D01*
X81826239Y-36427748D01*
X81704687Y-36133572D01*
X81479812Y-35908304D01*
X81185848Y-35786239D01*
X80867548Y-35785961D01*
X80573372Y-35907513D01*
X80348104Y-36132388D01*
X80309715Y-36224837D01*
X79607989Y-36926500D01*
X78220722Y-36926500D01*
X78112679Y-36853569D01*
X77972880Y-36825533D01*
X77632520Y-36825533D01*
X77632520Y-35912357D01*
X77632520Y-35669843D01*
X77632520Y-35595520D01*
X77632520Y-34985920D01*
X77632520Y-34911597D01*
X77632520Y-34669083D01*
X77539714Y-34445029D01*
X77368231Y-34273546D01*
X77144177Y-34180740D01*
X76977200Y-34180740D01*
X76824800Y-34333140D01*
X76824800Y-35138320D01*
X77480120Y-35138320D01*
X77632520Y-34985920D01*
X77632520Y-35595520D01*
X77480120Y-35443120D01*
X76824800Y-35443120D01*
X76824800Y-36248300D01*
X76977200Y-36400700D01*
X77144177Y-36400700D01*
X77368231Y-36307894D01*
X77539714Y-36136411D01*
X77632520Y-35912357D01*
X77632520Y-36825533D01*
X77271840Y-36825533D01*
X77136251Y-36851841D01*
X77017081Y-36930123D01*
X76937309Y-37048301D01*
X76909273Y-37188100D01*
X76909273Y-37442799D01*
X76860400Y-37688500D01*
X76909273Y-37934200D01*
X76909273Y-38085018D01*
X76800847Y-37976584D01*
X76800836Y-37976576D01*
X76800831Y-37976569D01*
X76520000Y-37695738D01*
X76520000Y-36248300D01*
X76520000Y-35443120D01*
X76520000Y-35138320D01*
X76520000Y-34333140D01*
X76367600Y-34180740D01*
X76200623Y-34180740D01*
X75976569Y-34273546D01*
X75805086Y-34445029D01*
X75712280Y-34669083D01*
X75712280Y-34911597D01*
X75712280Y-34985920D01*
X75864680Y-35138320D01*
X76520000Y-35138320D01*
X76520000Y-35443120D01*
X75864680Y-35443120D01*
X75712280Y-35595520D01*
X75712280Y-35669843D01*
X75712280Y-35912357D01*
X75805086Y-36136411D01*
X75976569Y-36307894D01*
X76200623Y-36400700D01*
X76367600Y-36400700D01*
X76520000Y-36248300D01*
X76520000Y-37695738D01*
X76435527Y-37611265D01*
X76435527Y-37188100D01*
X76409219Y-37052511D01*
X76330937Y-36933341D01*
X76212759Y-36853569D01*
X76072960Y-36825533D01*
X75371920Y-36825533D01*
X75236331Y-36851841D01*
X75117161Y-36930123D01*
X75037389Y-37048301D01*
X75009353Y-37188100D01*
X75009353Y-38188860D01*
X75035661Y-38324449D01*
X75113943Y-38443619D01*
X75232121Y-38523391D01*
X75371920Y-38551427D01*
X75795065Y-38551427D01*
X76010469Y-38766831D01*
X76010767Y-38767030D01*
X77272953Y-40029316D01*
X77272963Y-40029323D01*
X77272969Y-40029331D01*
X77353711Y-40083282D01*
X77454236Y-40150456D01*
X77454247Y-40150458D01*
X77454256Y-40150464D01*
X77556646Y-40170830D01*
X77668078Y-40193000D01*
X77668089Y-40192997D01*
X77668100Y-40193000D01*
X78254538Y-40193000D01*
X78447907Y-40386369D01*
X78447761Y-40554652D01*
X78569313Y-40848828D01*
X78794188Y-41074096D01*
X79004884Y-41161585D01*
X74214487Y-45951982D01*
X74214487Y-35589193D01*
X73523767Y-33917523D01*
X72245905Y-32637428D01*
X70575442Y-31943791D01*
X69024892Y-31942438D01*
X69024892Y-27733612D01*
X68681461Y-26902446D01*
X68046099Y-26265974D01*
X67215534Y-25921093D01*
X66316212Y-25920308D01*
X65485046Y-26263739D01*
X64848574Y-26899101D01*
X64503693Y-27729666D01*
X64502908Y-28628988D01*
X64846339Y-29460154D01*
X65481701Y-30096626D01*
X66312266Y-30441507D01*
X67211588Y-30442292D01*
X68042754Y-30098861D01*
X68679226Y-29463499D01*
X69024107Y-28632934D01*
X69024892Y-27733612D01*
X69024892Y-31942438D01*
X68766693Y-31942213D01*
X67095023Y-32632933D01*
X65814928Y-33910795D01*
X65121291Y-35581258D01*
X65119713Y-37390007D01*
X65810433Y-39061677D01*
X67088295Y-40341772D01*
X68758758Y-41035409D01*
X70567507Y-41036987D01*
X72239177Y-40346267D01*
X73519272Y-39068405D01*
X74212909Y-37397942D01*
X74214487Y-35589193D01*
X74214487Y-45951982D01*
X70327969Y-49838500D01*
X63223938Y-49838500D01*
X63223938Y-35531346D01*
X62488842Y-33752277D01*
X61128882Y-32389941D01*
X59351100Y-31651742D01*
X57426146Y-31650062D01*
X55647077Y-32385158D01*
X54284741Y-33745118D01*
X53546542Y-35522900D01*
X53544862Y-37447854D01*
X54279958Y-39226923D01*
X55639918Y-40589259D01*
X57417700Y-41327458D01*
X59342654Y-41329138D01*
X61121723Y-40594042D01*
X62484059Y-39234082D01*
X63222258Y-37456300D01*
X63223938Y-35531346D01*
X63223938Y-49838500D01*
X58290267Y-49838500D01*
X58198848Y-49800539D01*
X57880548Y-49800261D01*
X57586372Y-49921813D01*
X57361104Y-50146688D01*
X57239039Y-50440652D01*
X57238761Y-50758952D01*
X57360313Y-51053128D01*
X57585188Y-51278396D01*
X57879152Y-51400461D01*
X58197452Y-51400739D01*
X58289996Y-51362500D01*
X70643600Y-51362500D01*
X70643600Y-51362499D01*
X70935204Y-51304496D01*
X70935205Y-51304496D01*
X71182415Y-51139315D01*
X80902615Y-41419115D01*
X80902616Y-41419115D01*
X81001634Y-41270923D01*
X81067796Y-41171905D01*
X81067796Y-41171904D01*
X81125800Y-40880300D01*
X81125800Y-38128700D01*
X81067796Y-37837096D01*
X81067796Y-37837095D01*
X81001634Y-37738076D01*
X80981633Y-37708144D01*
X81387115Y-37302699D01*
X81478628Y-37264887D01*
X81703896Y-37040012D01*
X81825961Y-36746048D01*
X81826239Y-36427748D01*
X81826239Y-55803677D01*
X78909631Y-52887069D01*
X78728344Y-52765936D01*
X78514500Y-52723400D01*
X64718105Y-52723400D01*
X64694087Y-52665272D01*
X64469212Y-52440004D01*
X64175248Y-52317939D01*
X63856948Y-52317661D01*
X63562772Y-52439213D01*
X63337504Y-52664088D01*
X63215439Y-52958052D01*
X63215161Y-53276352D01*
X63336713Y-53570528D01*
X63561588Y-53795796D01*
X63855552Y-53917861D01*
X64173852Y-53918139D01*
X64360541Y-53841000D01*
X78283038Y-53841000D01*
X83610807Y-59168769D01*
X83610661Y-59337052D01*
X83732213Y-59631228D01*
X83957088Y-59856496D01*
X84251052Y-59978561D01*
X84569352Y-59978839D01*
X84863528Y-59857287D01*
X85088796Y-59632412D01*
X85210861Y-59338448D01*
X85211139Y-59020148D01*
X85211139Y-68909377D01*
X73986462Y-57684700D01*
X75798288Y-57684700D01*
X75853788Y-57740296D01*
X76147752Y-57862361D01*
X76466052Y-57862639D01*
X76760228Y-57741087D01*
X76985496Y-57516212D01*
X77107561Y-57222248D01*
X77107839Y-56903948D01*
X76986287Y-56609772D01*
X76761412Y-56384504D01*
X76467448Y-56262439D01*
X76149148Y-56262161D01*
X75854972Y-56383713D01*
X75671264Y-56567100D01*
X58611700Y-56567100D01*
X58492812Y-56448004D01*
X58198848Y-56325939D01*
X57880548Y-56325661D01*
X57586372Y-56447213D01*
X57361104Y-56672088D01*
X57239039Y-56966052D01*
X57238761Y-57284352D01*
X57360313Y-57578528D01*
X57585188Y-57803796D01*
X57879152Y-57925861D01*
X58197452Y-57926139D01*
X58491628Y-57804587D01*
X58611724Y-57684700D01*
X63763459Y-57684700D01*
X63678439Y-57889452D01*
X63678161Y-58207752D01*
X63799713Y-58501928D01*
X64024588Y-58727196D01*
X64318552Y-58849261D01*
X64636852Y-58849539D01*
X64931028Y-58727987D01*
X65051124Y-58608100D01*
X73329338Y-58608100D01*
X91890607Y-77169369D01*
X91890461Y-77337652D01*
X92012013Y-77631828D01*
X92236888Y-77857096D01*
X92438186Y-77940682D01*
X84996567Y-85382302D01*
X84996739Y-85186148D01*
X84875187Y-84891972D01*
X84650312Y-84666704D01*
X84356348Y-84544639D01*
X84038048Y-84544361D01*
X83743872Y-84665913D01*
X83623775Y-84785800D01*
X81826239Y-84785800D01*
X81826239Y-73892748D01*
X81704687Y-73598572D01*
X81479812Y-73373304D01*
X81185848Y-73251239D01*
X80867548Y-73250961D01*
X80573372Y-73372513D01*
X80348104Y-73597388D01*
X80309714Y-73689839D01*
X79511487Y-74488000D01*
X78220574Y-74488000D01*
X78112679Y-74415169D01*
X77972880Y-74387133D01*
X77632520Y-74387133D01*
X77632520Y-73473957D01*
X77632520Y-73231443D01*
X77632520Y-73157120D01*
X77632520Y-72547520D01*
X77632520Y-72473197D01*
X77632520Y-72230683D01*
X77539714Y-72006629D01*
X77368231Y-71835146D01*
X77144177Y-71742340D01*
X76977200Y-71742340D01*
X76824800Y-71894740D01*
X76824800Y-72699920D01*
X77480120Y-72699920D01*
X77632520Y-72547520D01*
X77632520Y-73157120D01*
X77480120Y-73004720D01*
X76824800Y-73004720D01*
X76824800Y-73809900D01*
X76977200Y-73962300D01*
X77144177Y-73962300D01*
X77368231Y-73869494D01*
X77539714Y-73698011D01*
X77632520Y-73473957D01*
X77632520Y-74387133D01*
X77271840Y-74387133D01*
X77136251Y-74413441D01*
X77017081Y-74491723D01*
X76937309Y-74609901D01*
X76909273Y-74749700D01*
X76909273Y-75004299D01*
X76860400Y-75250000D01*
X76860410Y-75250052D01*
X76860401Y-75250100D01*
X76909273Y-75495798D01*
X76909273Y-75646518D01*
X76800847Y-75538084D01*
X76800836Y-75538076D01*
X76800831Y-75538069D01*
X76520000Y-75257238D01*
X76520000Y-73809900D01*
X76520000Y-73004720D01*
X76520000Y-72699920D01*
X76520000Y-71894740D01*
X76367600Y-71742340D01*
X76200623Y-71742340D01*
X75976569Y-71835146D01*
X75805086Y-72006629D01*
X75712280Y-72230683D01*
X75712280Y-72473197D01*
X75712280Y-72547520D01*
X75864680Y-72699920D01*
X76520000Y-72699920D01*
X76520000Y-73004720D01*
X75864680Y-73004720D01*
X75712280Y-73157120D01*
X75712280Y-73231443D01*
X75712280Y-73473957D01*
X75805086Y-73698011D01*
X75976569Y-73869494D01*
X76200623Y-73962300D01*
X76367600Y-73962300D01*
X76520000Y-73809900D01*
X76520000Y-75257238D01*
X76435527Y-75172765D01*
X76435527Y-74749700D01*
X76409219Y-74614111D01*
X76330937Y-74494941D01*
X76212759Y-74415169D01*
X76072960Y-74387133D01*
X75371920Y-74387133D01*
X75236331Y-74413441D01*
X75117161Y-74491723D01*
X75037389Y-74609901D01*
X75009353Y-74749700D01*
X75009353Y-75750460D01*
X75035661Y-75886049D01*
X75113943Y-76005219D01*
X75232121Y-76084991D01*
X75371920Y-76113027D01*
X75795065Y-76113027D01*
X76010369Y-76328331D01*
X76010968Y-76328731D01*
X77303453Y-77621316D01*
X77303463Y-77621323D01*
X77303469Y-77621331D01*
X77390205Y-77679286D01*
X77484737Y-77742456D01*
X77484747Y-77742457D01*
X77484756Y-77742464D01*
X77603545Y-77766092D01*
X77698578Y-77784999D01*
X77698586Y-77784997D01*
X77698600Y-77785000D01*
X78127538Y-77785000D01*
X78447907Y-78105369D01*
X78447761Y-78273652D01*
X78569313Y-78567828D01*
X78794188Y-78793096D01*
X79088152Y-78915161D01*
X79406452Y-78915439D01*
X79700628Y-78793887D01*
X79925896Y-78569012D01*
X80047961Y-78275048D01*
X80048239Y-77956748D01*
X79926687Y-77662572D01*
X79701812Y-77437304D01*
X79407848Y-77315239D01*
X79238152Y-77315090D01*
X78754131Y-76831069D01*
X78572844Y-76709936D01*
X78359000Y-76667400D01*
X77930074Y-76667400D01*
X77375745Y-76113027D01*
X77972880Y-76113027D01*
X78108469Y-76086719D01*
X78222214Y-76012000D01*
X79827100Y-76012000D01*
X79987373Y-75980119D01*
X80118675Y-75954008D01*
X80118687Y-75953999D01*
X80118705Y-75953996D01*
X80240358Y-75872709D01*
X80365893Y-75788838D01*
X80365915Y-75788815D01*
X81387117Y-74767698D01*
X81478628Y-74729887D01*
X81703896Y-74505012D01*
X81825961Y-74211048D01*
X81826239Y-73892748D01*
X81826239Y-84785800D01*
X74560462Y-84785800D01*
X68096803Y-78322141D01*
X68758758Y-78597009D01*
X70567507Y-78598587D01*
X72239177Y-77907867D01*
X73519272Y-76630005D01*
X74212909Y-74959542D01*
X74214487Y-73150793D01*
X73523767Y-71479123D01*
X72245905Y-70199028D01*
X70575442Y-69505391D01*
X69024892Y-69504038D01*
X69024892Y-65295112D01*
X68681461Y-64463946D01*
X68046099Y-63827474D01*
X67215534Y-63482593D01*
X66316212Y-63481808D01*
X65485046Y-63825239D01*
X64848574Y-64460601D01*
X64503693Y-65291166D01*
X64502908Y-66190488D01*
X64846339Y-67021654D01*
X65481701Y-67658126D01*
X66312266Y-68003007D01*
X67211588Y-68003792D01*
X68042754Y-67660361D01*
X68679226Y-67024999D01*
X69024107Y-66194434D01*
X69024892Y-65295112D01*
X69024892Y-69504038D01*
X68766693Y-69503813D01*
X67095023Y-70194533D01*
X65814928Y-71472395D01*
X65121291Y-73142858D01*
X65119713Y-74951607D01*
X65396750Y-75622088D01*
X64791100Y-75016438D01*
X64791100Y-72104700D01*
X64748564Y-71890857D01*
X64748564Y-71890856D01*
X64687997Y-71800212D01*
X64627431Y-71709569D01*
X64627431Y-71709568D01*
X58547292Y-65629429D01*
X58547439Y-65461148D01*
X58425887Y-65166972D01*
X58201012Y-64941704D01*
X57907048Y-64819639D01*
X57588748Y-64819361D01*
X57294572Y-64940913D01*
X57069304Y-65165788D01*
X56947239Y-65459752D01*
X56946961Y-65778052D01*
X57068513Y-66072228D01*
X57293388Y-66297496D01*
X57587352Y-66419561D01*
X57757047Y-66419709D01*
X63673500Y-72336162D01*
X63673500Y-75247900D01*
X63716036Y-75461744D01*
X63837169Y-75643031D01*
X73895938Y-85701800D01*
X64622313Y-85701800D01*
X64453712Y-85532904D01*
X64159748Y-85410839D01*
X63841448Y-85410561D01*
X63547272Y-85532113D01*
X63322004Y-85756988D01*
X63199939Y-86050952D01*
X63199661Y-86369252D01*
X63321213Y-86663428D01*
X63546088Y-86888696D01*
X63638566Y-86927096D01*
X63714085Y-87002615D01*
X63961295Y-87167796D01*
X63961296Y-87167796D01*
X64252900Y-87225800D01*
X84992700Y-87225800D01*
X84992700Y-87225799D01*
X85284304Y-87167796D01*
X85284305Y-87167796D01*
X85531515Y-87002615D01*
X119567915Y-52966216D01*
X119567915Y-52966215D01*
X119733096Y-52719005D01*
X119791099Y-52427400D01*
X119791100Y-52427400D01*
X119791100Y-52390867D01*
X119829061Y-52299448D01*
X119829339Y-51981148D01*
X119829339Y-63546667D01*
X119155146Y-63825239D01*
X118518674Y-64460601D01*
X118173793Y-65291166D01*
X118173008Y-66190488D01*
X118516439Y-67021654D01*
X119151801Y-67658126D01*
X119982366Y-68003007D01*
X120881688Y-68003792D01*
X121712854Y-67660361D01*
X122349326Y-67024999D01*
X122694207Y-66194434D01*
X122694992Y-65295112D01*
X122694992Y-108835762D01*
X122080387Y-108221157D01*
X122080387Y-73150793D01*
X121389667Y-71479123D01*
X120111805Y-70199028D01*
X118441342Y-69505391D01*
X116632593Y-69503813D01*
X114960923Y-70194533D01*
X113680828Y-71472395D01*
X112987191Y-73142858D01*
X112986869Y-73511602D01*
X112848812Y-73373304D01*
X112554848Y-73251239D01*
X112236548Y-73250961D01*
X111942372Y-73372513D01*
X111717104Y-73597388D01*
X111678717Y-73689831D01*
X111488120Y-73880407D01*
X111488120Y-73473957D01*
X111488120Y-73231443D01*
X111488120Y-73157120D01*
X111488120Y-72547520D01*
X111488120Y-72473197D01*
X111488120Y-72230683D01*
X111395314Y-72006629D01*
X111223831Y-71835146D01*
X110999777Y-71742340D01*
X110832800Y-71742340D01*
X110680400Y-71894740D01*
X110680400Y-72699920D01*
X111335720Y-72699920D01*
X111488120Y-72547520D01*
X111488120Y-73157120D01*
X111335720Y-73004720D01*
X110680400Y-73004720D01*
X110680400Y-73809900D01*
X110832800Y-73962300D01*
X110999777Y-73962300D01*
X111223831Y-73869494D01*
X111395314Y-73698011D01*
X111488120Y-73473957D01*
X111488120Y-73880407D01*
X110939214Y-74429255D01*
X110939201Y-74429274D01*
X110939185Y-74429285D01*
X110916853Y-74462706D01*
X110872681Y-74491723D01*
X110792909Y-74609901D01*
X110781937Y-74664608D01*
X110774020Y-74676457D01*
X110774016Y-74676477D01*
X110774004Y-74676495D01*
X110743014Y-74832290D01*
X110716001Y-74968058D01*
X110716004Y-74968076D01*
X110716000Y-74968100D01*
X110716000Y-75250000D01*
X110716000Y-75250100D01*
X110764873Y-75495800D01*
X110764873Y-75750460D01*
X110791181Y-75886049D01*
X110869463Y-76005219D01*
X110987641Y-76084991D01*
X111127440Y-76113027D01*
X111828480Y-76113027D01*
X111964069Y-76086719D01*
X112083239Y-76008437D01*
X112163011Y-75890259D01*
X112191047Y-75750460D01*
X112191047Y-75496202D01*
X112231643Y-75292110D01*
X112756109Y-74767701D01*
X112847628Y-74729887D01*
X112985926Y-74591829D01*
X112985613Y-74951607D01*
X113676333Y-76623277D01*
X114954195Y-77903372D01*
X116624658Y-78597009D01*
X118433407Y-78598587D01*
X120105077Y-77907867D01*
X121385172Y-76630005D01*
X122078809Y-74959542D01*
X122080387Y-73150793D01*
X122080387Y-108221157D01*
X118543015Y-104683785D01*
X118295805Y-104518604D01*
X118004200Y-104460600D01*
X117830167Y-104460600D01*
X117738748Y-104422639D01*
X117420448Y-104422361D01*
X117327903Y-104460600D01*
X96733830Y-104460600D01*
X83306415Y-91033185D01*
X83145852Y-90925900D01*
X85182138Y-90925900D01*
X93433907Y-99177669D01*
X93433761Y-99345952D01*
X93555313Y-99640128D01*
X93780188Y-99865396D01*
X94074152Y-99987461D01*
X94392452Y-99987739D01*
X94686628Y-99866187D01*
X94911896Y-99641312D01*
X95033961Y-99347348D01*
X95034239Y-99029048D01*
X94912687Y-98734872D01*
X94687812Y-98509604D01*
X94393848Y-98387539D01*
X94224152Y-98387390D01*
X86040662Y-90203900D01*
X103584738Y-90203900D01*
X108038907Y-94658069D01*
X108038761Y-94826352D01*
X108160313Y-95120528D01*
X108385188Y-95345796D01*
X108679152Y-95467861D01*
X108997452Y-95468139D01*
X109291628Y-95346587D01*
X109516896Y-95121712D01*
X109638961Y-94827748D01*
X109639239Y-94509448D01*
X109517687Y-94215272D01*
X109292812Y-93990004D01*
X108998848Y-93867939D01*
X108829152Y-93867790D01*
X104443562Y-89482200D01*
X117134400Y-89482200D01*
X117134400Y-89482199D01*
X117426004Y-89424196D01*
X117426005Y-89424196D01*
X117673215Y-89259015D01*
X118329842Y-88602388D01*
X118421328Y-88564587D01*
X118646596Y-88339712D01*
X118768661Y-88045748D01*
X118768939Y-87727448D01*
X118647387Y-87433272D01*
X118422512Y-87208004D01*
X118128548Y-87085939D01*
X117810248Y-87085661D01*
X117516072Y-87207213D01*
X117290804Y-87432088D01*
X117252403Y-87524565D01*
X116818769Y-87958200D01*
X111798239Y-87958200D01*
X111798239Y-77956748D01*
X111676687Y-77662572D01*
X111451812Y-77437304D01*
X111157848Y-77315239D01*
X110988153Y-77315090D01*
X110375600Y-76702537D01*
X110375600Y-73809900D01*
X110375600Y-73004720D01*
X110375600Y-72699920D01*
X110375600Y-71894740D01*
X110223200Y-71742340D01*
X110056223Y-71742340D01*
X109832169Y-71835146D01*
X109660686Y-72006629D01*
X109567880Y-72230683D01*
X109567880Y-72473197D01*
X109567880Y-72547520D01*
X109720280Y-72699920D01*
X110375600Y-72699920D01*
X110375600Y-73004720D01*
X109720280Y-73004720D01*
X109567880Y-73157120D01*
X109567880Y-73231443D01*
X109567880Y-73473957D01*
X109660686Y-73698011D01*
X109832169Y-73869494D01*
X110056223Y-73962300D01*
X110223200Y-73962300D01*
X110375600Y-73809900D01*
X110375600Y-76702537D01*
X110159800Y-76486737D01*
X110159800Y-76023886D01*
X110183319Y-76008437D01*
X110263091Y-75890259D01*
X110291127Y-75750460D01*
X110291127Y-74749700D01*
X110264819Y-74614111D01*
X110186537Y-74494941D01*
X110068359Y-74415169D01*
X109928560Y-74387133D01*
X109227520Y-74387133D01*
X109091931Y-74413441D01*
X108972761Y-74491723D01*
X108892989Y-74609901D01*
X108864953Y-74749700D01*
X108864953Y-75750460D01*
X108891261Y-75886049D01*
X108969543Y-76005219D01*
X109042200Y-76054263D01*
X109042200Y-76718200D01*
X109084736Y-76932044D01*
X109205869Y-77113331D01*
X110197907Y-78105370D01*
X110197761Y-78273652D01*
X110319313Y-78567828D01*
X110544188Y-78793096D01*
X110838152Y-78915161D01*
X111156452Y-78915439D01*
X111450628Y-78793887D01*
X111675896Y-78569012D01*
X111797961Y-78275048D01*
X111798239Y-77956748D01*
X111798239Y-87958200D01*
X64661767Y-87958200D01*
X64570348Y-87920239D01*
X64252048Y-87919961D01*
X63957872Y-88041513D01*
X63732604Y-88266388D01*
X63654836Y-88453673D01*
X56343492Y-81142329D01*
X56343639Y-80974048D01*
X56222087Y-80679872D01*
X55997212Y-80454604D01*
X55703248Y-80332539D01*
X55384948Y-80332261D01*
X55090772Y-80453813D01*
X54865504Y-80678688D01*
X54788241Y-80864756D01*
X54516548Y-80751939D01*
X54198248Y-80751661D01*
X53997900Y-80834443D01*
X53997900Y-76105890D01*
X54279958Y-76788523D01*
X55639918Y-78150859D01*
X57417700Y-78889058D01*
X59342654Y-78890738D01*
X61121723Y-78155642D01*
X62484059Y-76795682D01*
X63222258Y-75017900D01*
X63223938Y-73092946D01*
X62488842Y-71313877D01*
X61128882Y-69951541D01*
X59351100Y-69213342D01*
X57426146Y-69211662D01*
X55647077Y-69946758D01*
X54284741Y-71306718D01*
X53997900Y-71997508D01*
X53997900Y-66593162D01*
X61026369Y-59564692D01*
X61194652Y-59564839D01*
X61488828Y-59443287D01*
X61714096Y-59218412D01*
X61836161Y-58924448D01*
X61836439Y-58606148D01*
X61714887Y-58311972D01*
X61490012Y-58086704D01*
X61196048Y-57964639D01*
X60877748Y-57964361D01*
X60583572Y-58085913D01*
X60358304Y-58310788D01*
X60236239Y-58604752D01*
X60236090Y-58774447D01*
X53043969Y-65966569D01*
X52922836Y-66147856D01*
X52880300Y-66361700D01*
X52880300Y-82242500D01*
X52922836Y-82456344D01*
X53043969Y-82637631D01*
X62722752Y-92316415D01*
X62545948Y-92316261D01*
X62251772Y-92437813D01*
X62026504Y-92662688D01*
X61904439Y-92956652D01*
X61904161Y-93274952D01*
X62025713Y-93569128D01*
X62250588Y-93794396D01*
X62343066Y-93832796D01*
X73896600Y-105386330D01*
X73896600Y-109943247D01*
X73523767Y-109040923D01*
X72245905Y-107760828D01*
X70575442Y-107067191D01*
X70172239Y-107066839D01*
X70172239Y-104834648D01*
X70050687Y-104540472D01*
X69825812Y-104315204D01*
X69531848Y-104193139D01*
X69213548Y-104192861D01*
X69121003Y-104231100D01*
X65299667Y-104231100D01*
X65208248Y-104193139D01*
X64889948Y-104192861D01*
X64595772Y-104314413D01*
X64370504Y-104539288D01*
X64332103Y-104631765D01*
X63486985Y-105476885D01*
X63321804Y-105724095D01*
X63263800Y-106015700D01*
X63263800Y-109616932D01*
X63225839Y-109708352D01*
X63225561Y-110026652D01*
X63347113Y-110320828D01*
X63571988Y-110546096D01*
X63865952Y-110668161D01*
X64184252Y-110668439D01*
X64478428Y-110546887D01*
X64703696Y-110322012D01*
X64825761Y-110028048D01*
X64826039Y-109709748D01*
X64787800Y-109617203D01*
X64787800Y-106331330D01*
X65364030Y-105755100D01*
X69120732Y-105755100D01*
X69212152Y-105793061D01*
X69530452Y-105793339D01*
X69824628Y-105671787D01*
X70049896Y-105446912D01*
X70171961Y-105152948D01*
X70172239Y-104834648D01*
X70172239Y-107066839D01*
X68766693Y-107065613D01*
X67095023Y-107756333D01*
X65814928Y-109034195D01*
X65121291Y-110704658D01*
X65119713Y-112513407D01*
X65810433Y-114185077D01*
X67088295Y-115465172D01*
X68758758Y-116158809D01*
X70567507Y-116160387D01*
X72239177Y-115469667D01*
X73519272Y-114191805D01*
X73896600Y-113283098D01*
X73896600Y-113542700D01*
X73954604Y-113834305D01*
X74119785Y-114081515D01*
X77041884Y-117003615D01*
X77041885Y-117003615D01*
X77289095Y-117168796D01*
X77580700Y-117226800D01*
X86723769Y-117226800D01*
X95859900Y-126362930D01*
X95859900Y-135403247D01*
X95661370Y-135204371D01*
X95631000Y-135191760D01*
X95631000Y-130284600D01*
X95572996Y-129992995D01*
X95407815Y-129745785D01*
X83545615Y-117883585D01*
X83298405Y-117718404D01*
X83006800Y-117660400D01*
X74074230Y-117660400D01*
X73407988Y-116994158D01*
X73370187Y-116902672D01*
X73145312Y-116677404D01*
X72851348Y-116555339D01*
X72533048Y-116555061D01*
X72238872Y-116676613D01*
X72013604Y-116901488D01*
X71891539Y-117195452D01*
X71891261Y-117513752D01*
X72012813Y-117807928D01*
X72237688Y-118033196D01*
X72330166Y-118071596D01*
X73219784Y-118961215D01*
X73219785Y-118961215D01*
X73466995Y-119126396D01*
X73758600Y-119184400D01*
X82691170Y-119184400D01*
X85942198Y-122435428D01*
X85217482Y-122291273D01*
X85176205Y-122291273D01*
X85135720Y-122283220D01*
X69024892Y-122283220D01*
X69024892Y-119473312D01*
X68681461Y-118642146D01*
X68046099Y-118005674D01*
X67215534Y-117660793D01*
X66316212Y-117660008D01*
X65485046Y-118003439D01*
X64848574Y-118638801D01*
X64503693Y-119469366D01*
X64502908Y-120368688D01*
X64846339Y-121199854D01*
X65481701Y-121836326D01*
X66312266Y-122181207D01*
X67211588Y-122181992D01*
X68042754Y-121838561D01*
X68679226Y-121203199D01*
X69024107Y-120372634D01*
X69024892Y-119473312D01*
X69024892Y-122283220D01*
X63223938Y-122283220D01*
X63223938Y-110654746D01*
X62488842Y-108875677D01*
X61128882Y-107513341D01*
X59351100Y-106775142D01*
X57426146Y-106773462D01*
X55647077Y-107508558D01*
X54284741Y-108868518D01*
X53546542Y-110646300D01*
X53544862Y-112571254D01*
X54279958Y-114350323D01*
X55639918Y-115712659D01*
X57417700Y-116450858D01*
X59342654Y-116452538D01*
X61121723Y-115717442D01*
X62484059Y-114357482D01*
X63222258Y-112579700D01*
X63223938Y-110654746D01*
X63223938Y-122283220D01*
X53622576Y-122283220D01*
X52680468Y-122095822D01*
X51916778Y-121585541D01*
X51406497Y-120821852D01*
X51219100Y-119879743D01*
X51219100Y-28222576D01*
X51406497Y-27280467D01*
X51916778Y-26516778D01*
X52680468Y-26006497D01*
X53622576Y-25819100D01*
X133577963Y-25819100D01*
X134520072Y-26006497D01*
X135283761Y-26516778D01*
X135794042Y-27280468D01*
X135981440Y-28222576D01*
X135981440Y-119879743D01*
X135981440Y-119879743D01*
G37*
X135981440Y-119879743D02*
X135794042Y-120821851D01*
X135283761Y-121585541D01*
X134520072Y-122095822D01*
X133655538Y-122267789D01*
X133655538Y-110654746D01*
X133655538Y-73092946D01*
X133655538Y-35531346D01*
X132920442Y-33752277D01*
X131560482Y-32389941D01*
X129782700Y-31651742D01*
X127857746Y-31650062D01*
X126078677Y-32385158D01*
X124716341Y-33745118D01*
X123978142Y-35522900D01*
X123976462Y-37447854D01*
X124711558Y-39226923D01*
X126071518Y-40589259D01*
X127849300Y-41327458D01*
X129774254Y-41329138D01*
X131553323Y-40594042D01*
X132915659Y-39234082D01*
X133653858Y-37456300D01*
X133655538Y-35531346D01*
X133655538Y-73092946D01*
X132920442Y-71313877D01*
X131560482Y-69951541D01*
X129782700Y-69213342D01*
X127857746Y-69211662D01*
X126078677Y-69946758D01*
X124716341Y-71306718D01*
X123978142Y-73084500D01*
X123976462Y-75009454D01*
X124711558Y-76788523D01*
X126071518Y-78150859D01*
X127849300Y-78889058D01*
X129774254Y-78890738D01*
X131553323Y-78155642D01*
X132915659Y-76795682D01*
X133653858Y-75017900D01*
X133655538Y-73092946D01*
X133655538Y-110654746D01*
X132920442Y-108875677D01*
X131560482Y-107513341D01*
X129782700Y-106775142D01*
X127857746Y-106773462D01*
X126078677Y-107508558D01*
X124716341Y-108868518D01*
X123978142Y-110646300D01*
X123976462Y-112571254D01*
X124711558Y-114350323D01*
X126071518Y-115712659D01*
X127849300Y-116450858D01*
X129774254Y-116452538D01*
X131553323Y-115717442D01*
X132915659Y-114357482D01*
X133653858Y-112579700D01*
X133655538Y-110654746D01*
X133655538Y-122267789D01*
X133577963Y-122283220D01*
X102064820Y-122283220D01*
X102024334Y-122291273D01*
X101983058Y-122291273D01*
X101324577Y-122422253D01*
X105674730Y-118072100D01*
X119086365Y-118072100D01*
X118518674Y-118638801D01*
X118173793Y-119469366D01*
X118173008Y-120368688D01*
X118516439Y-121199854D01*
X119151801Y-121836326D01*
X119982366Y-122181207D01*
X120881688Y-122181992D01*
X121712854Y-121838561D01*
X122349326Y-121203199D01*
X122694207Y-120372634D01*
X122694992Y-119473312D01*
X122351561Y-118642146D01*
X121782509Y-118072100D01*
X122341670Y-118072100D01*
X123131711Y-118862141D01*
X123169513Y-118953628D01*
X123394388Y-119178896D01*
X123688352Y-119300961D01*
X124006652Y-119301239D01*
X124300828Y-119179687D01*
X124526096Y-118954812D01*
X124648161Y-118660848D01*
X124648439Y-118342548D01*
X124526887Y-118048372D01*
X124302012Y-117823104D01*
X124209533Y-117784703D01*
X123196115Y-116771285D01*
X122948905Y-116606104D01*
X122657300Y-116548100D01*
X110375600Y-116548100D01*
X110375600Y-111371700D01*
X110375600Y-110566520D01*
X110375600Y-110261720D01*
X110375600Y-109456540D01*
X110223200Y-109304140D01*
X110056223Y-109304140D01*
X109832169Y-109396946D01*
X109660686Y-109568429D01*
X109567880Y-109792483D01*
X109567880Y-110034997D01*
X109567880Y-110109320D01*
X109720280Y-110261720D01*
X110375600Y-110261720D01*
X110375600Y-110566520D01*
X109720280Y-110566520D01*
X109567880Y-110718920D01*
X109567880Y-110793243D01*
X109567880Y-111035757D01*
X109660686Y-111259811D01*
X109832169Y-111431294D01*
X110056223Y-111524100D01*
X110223200Y-111524100D01*
X110375600Y-111371700D01*
X110375600Y-116548100D01*
X110291127Y-116548100D01*
X110291127Y-113312260D01*
X110291127Y-112311500D01*
X110264819Y-112175911D01*
X110186537Y-112056741D01*
X110068359Y-111976969D01*
X109928560Y-111948933D01*
X109227520Y-111948933D01*
X109091931Y-111975241D01*
X108972761Y-112053523D01*
X108892989Y-112171701D01*
X108876644Y-112253200D01*
X107571589Y-112253200D01*
X106845091Y-111526141D01*
X106845239Y-111357548D01*
X106723687Y-111063372D01*
X106498812Y-110838104D01*
X106204848Y-110716039D01*
X105886548Y-110715761D01*
X105592372Y-110837313D01*
X105367104Y-111062188D01*
X105245039Y-111356152D01*
X105244761Y-111674452D01*
X105366313Y-111968628D01*
X105591188Y-112193896D01*
X105885152Y-112315961D01*
X106054533Y-112316108D01*
X106944716Y-113206979D01*
X106944808Y-113207041D01*
X106944869Y-113207131D01*
X107034854Y-113267258D01*
X107125958Y-113328182D01*
X107126065Y-113328203D01*
X107126156Y-113328264D01*
X107232434Y-113349404D01*
X107339784Y-113370800D01*
X107339892Y-113370778D01*
X107340000Y-113370800D01*
X108876311Y-113370800D01*
X108891261Y-113447849D01*
X108969543Y-113567019D01*
X109087721Y-113646791D01*
X109227520Y-113674827D01*
X109928560Y-113674827D01*
X110064149Y-113648519D01*
X110183319Y-113570237D01*
X110263091Y-113452059D01*
X110291127Y-113312260D01*
X110291127Y-116548100D01*
X105359100Y-116548100D01*
X105067495Y-116606104D01*
X104968476Y-116672265D01*
X104820285Y-116771284D01*
X96621900Y-124969669D01*
X87578215Y-115925985D01*
X87331005Y-115760804D01*
X87039400Y-115702800D01*
X77896330Y-115702800D01*
X77189330Y-114995800D01*
X80707299Y-114995800D01*
X80826188Y-115114896D01*
X81120152Y-115236961D01*
X81438452Y-115237239D01*
X81732628Y-115115687D01*
X81957896Y-114890812D01*
X82079961Y-114596848D01*
X82080239Y-114278548D01*
X81958687Y-113984372D01*
X81826239Y-113851692D01*
X81826239Y-111357548D01*
X81704687Y-111063372D01*
X81479812Y-110838104D01*
X81185848Y-110716039D01*
X80867548Y-110715761D01*
X80573372Y-110837313D01*
X80348104Y-111062188D01*
X80309645Y-111154805D01*
X79414865Y-112050000D01*
X78220870Y-112050000D01*
X78112679Y-111976969D01*
X77972880Y-111948933D01*
X77632520Y-111948933D01*
X77632520Y-111035757D01*
X77632520Y-110793243D01*
X77632520Y-110718920D01*
X77632520Y-110109320D01*
X77632520Y-110034997D01*
X77632520Y-109792483D01*
X77539714Y-109568429D01*
X77368231Y-109396946D01*
X77144177Y-109304140D01*
X76977200Y-109304140D01*
X76824800Y-109456540D01*
X76824800Y-110261720D01*
X77480120Y-110261720D01*
X77632520Y-110109320D01*
X77632520Y-110718920D01*
X77480120Y-110566520D01*
X76824800Y-110566520D01*
X76824800Y-111371700D01*
X76977200Y-111524100D01*
X77144177Y-111524100D01*
X77368231Y-111431294D01*
X77539714Y-111259811D01*
X77632520Y-111035757D01*
X77632520Y-111948933D01*
X77271840Y-111948933D01*
X77136251Y-111975241D01*
X77017081Y-112053523D01*
X76937309Y-112171701D01*
X76909273Y-112311500D01*
X76909273Y-112566201D01*
X76860401Y-112811900D01*
X76860410Y-112811947D01*
X76860400Y-112812000D01*
X76909273Y-113057700D01*
X76909273Y-113312260D01*
X76935581Y-113447849D01*
X77013863Y-113567019D01*
X77132041Y-113646791D01*
X77271840Y-113674827D01*
X77972880Y-113674827D01*
X78108469Y-113648519D01*
X78221910Y-113574000D01*
X79730600Y-113574000D01*
X79730690Y-113573982D01*
X79730776Y-113573999D01*
X79874944Y-113545287D01*
X80022205Y-113515996D01*
X80022279Y-113515946D01*
X80022367Y-113515929D01*
X80147114Y-113432533D01*
X80269415Y-113350815D01*
X80269463Y-113350741D01*
X80269540Y-113350691D01*
X81387281Y-112232430D01*
X81478628Y-112194687D01*
X81703896Y-111969812D01*
X81825961Y-111675848D01*
X81826239Y-111357548D01*
X81826239Y-113851692D01*
X81733812Y-113759104D01*
X81439848Y-113637039D01*
X81121548Y-113636761D01*
X80827372Y-113758313D01*
X80707275Y-113878200D01*
X77066388Y-113878200D01*
X76520000Y-113332057D01*
X76520000Y-111371700D01*
X76520000Y-110566520D01*
X76520000Y-110261720D01*
X76520000Y-109456540D01*
X76367600Y-109304140D01*
X76200623Y-109304140D01*
X75976569Y-109396946D01*
X75805086Y-109568429D01*
X75712280Y-109792483D01*
X75712280Y-110034997D01*
X75712280Y-110109320D01*
X75864680Y-110261720D01*
X76520000Y-110261720D01*
X76520000Y-110566520D01*
X75864680Y-110566520D01*
X75712280Y-110718920D01*
X75712280Y-110793243D01*
X75712280Y-111035757D01*
X75805086Y-111259811D01*
X75976569Y-111431294D01*
X76200623Y-111524100D01*
X76367600Y-111524100D01*
X76520000Y-111371700D01*
X76520000Y-113332057D01*
X76435527Y-113247622D01*
X76435527Y-112311500D01*
X76409219Y-112175911D01*
X76330937Y-112056741D01*
X76212759Y-111976969D01*
X76072960Y-111948933D01*
X75420600Y-111948933D01*
X75420600Y-105070700D01*
X75362596Y-104779096D01*
X75362596Y-104779095D01*
X75296434Y-104680076D01*
X75197416Y-104531885D01*
X68847030Y-98181500D01*
X74345399Y-98181500D01*
X74464288Y-98300596D01*
X74758252Y-98422661D01*
X75076552Y-98422939D01*
X75370728Y-98301387D01*
X75595996Y-98076512D01*
X75718061Y-97782548D01*
X75718339Y-97464248D01*
X75596787Y-97170072D01*
X75371912Y-96944804D01*
X75077948Y-96822739D01*
X74759648Y-96822461D01*
X74465472Y-96944013D01*
X74345375Y-97063900D01*
X69050762Y-97063900D01*
X64320862Y-92334000D01*
X82451969Y-92334000D01*
X95879385Y-105761416D01*
X96027576Y-105860434D01*
X96126595Y-105926596D01*
X96126596Y-105926596D01*
X96418200Y-105984600D01*
X117327632Y-105984600D01*
X117419052Y-106022561D01*
X117726799Y-106022829D01*
X119005363Y-107301393D01*
X118441342Y-107067191D01*
X116632593Y-107065613D01*
X114960923Y-107756333D01*
X113680828Y-109034195D01*
X112987191Y-110704658D01*
X112986953Y-110976487D01*
X112848812Y-110838104D01*
X112554848Y-110716039D01*
X112236548Y-110715761D01*
X111942372Y-110837313D01*
X111717104Y-111062188D01*
X111678703Y-111154666D01*
X111488120Y-111345249D01*
X111488120Y-111035757D01*
X111488120Y-110793243D01*
X111488120Y-110718920D01*
X111488120Y-110109320D01*
X111488120Y-110034997D01*
X111488120Y-109792483D01*
X111395314Y-109568429D01*
X111223831Y-109396946D01*
X110999777Y-109304140D01*
X110832800Y-109304140D01*
X110680400Y-109456540D01*
X110680400Y-110261720D01*
X111335720Y-110261720D01*
X111488120Y-110109320D01*
X111488120Y-110718920D01*
X111335720Y-110566520D01*
X110680400Y-110566520D01*
X110680400Y-111371700D01*
X110832800Y-111524100D01*
X110999777Y-111524100D01*
X111223831Y-111431294D01*
X111395314Y-111259811D01*
X111488120Y-111035757D01*
X111488120Y-111345249D01*
X110939185Y-111894185D01*
X110774004Y-112141395D01*
X110716000Y-112433000D01*
X110716000Y-112811900D01*
X110716000Y-112812000D01*
X110764873Y-113057700D01*
X110764873Y-113312260D01*
X110791181Y-113447849D01*
X110869463Y-113567019D01*
X110987641Y-113646791D01*
X111127440Y-113674827D01*
X111828480Y-113674827D01*
X111964069Y-113648519D01*
X112083239Y-113570237D01*
X112163011Y-113452059D01*
X112191047Y-113312260D01*
X112191047Y-113058102D01*
X112240000Y-112812000D01*
X112240000Y-112811900D01*
X112240000Y-112748630D01*
X112756141Y-112232488D01*
X112847628Y-112194687D01*
X112986011Y-112056544D01*
X112985613Y-112513407D01*
X113676333Y-114185077D01*
X114954195Y-115465172D01*
X116624658Y-116158809D01*
X118433407Y-116160387D01*
X120105077Y-115469667D01*
X121385172Y-114191805D01*
X122078809Y-112521342D01*
X122080387Y-110712593D01*
X121843674Y-110139704D01*
X121961411Y-110257441D01*
X121999213Y-110348928D01*
X122224088Y-110574196D01*
X122518052Y-110696261D01*
X122836352Y-110696539D01*
X123130528Y-110574987D01*
X123355796Y-110350112D01*
X123477861Y-110056148D01*
X123478139Y-109737848D01*
X123356587Y-109443672D01*
X123131712Y-109218404D01*
X123039233Y-109180003D01*
X122694992Y-108835762D01*
X122694992Y-65295112D01*
X122694992Y-27733612D01*
X122351561Y-26902446D01*
X121716199Y-26265974D01*
X120885634Y-25921093D01*
X119986312Y-25920308D01*
X119155146Y-26263739D01*
X118518674Y-26899101D01*
X118173793Y-27729666D01*
X118173008Y-28628988D01*
X118516439Y-29460154D01*
X119151801Y-30096626D01*
X119982366Y-30441507D01*
X120881688Y-30442292D01*
X121712854Y-30098861D01*
X122349326Y-29463499D01*
X122694207Y-28632934D01*
X122694992Y-27733612D01*
X122694992Y-65295112D01*
X122351561Y-64463946D01*
X122080387Y-64192298D01*
X122080387Y-35589193D01*
X121389667Y-33917523D01*
X120111805Y-32637428D01*
X118441342Y-31943791D01*
X116632593Y-31942213D01*
X114960923Y-32632933D01*
X113680828Y-33910795D01*
X112987191Y-35581258D01*
X112986785Y-36046518D01*
X112848812Y-35908304D01*
X112554848Y-35786239D01*
X112236548Y-35785961D01*
X111942372Y-35907513D01*
X111717104Y-36132388D01*
X111678717Y-36224831D01*
X111488120Y-36415407D01*
X111488120Y-35912357D01*
X111488120Y-35669843D01*
X111488120Y-35595520D01*
X111488120Y-34985920D01*
X111488120Y-34911597D01*
X111488120Y-34669083D01*
X111395314Y-34445029D01*
X111223831Y-34273546D01*
X110999777Y-34180740D01*
X110832800Y-34180740D01*
X110680400Y-34333140D01*
X110680400Y-35138320D01*
X111335720Y-35138320D01*
X111488120Y-34985920D01*
X111488120Y-35595520D01*
X111335720Y-35443120D01*
X110680400Y-35443120D01*
X110680400Y-36248300D01*
X110832800Y-36400700D01*
X110999777Y-36400700D01*
X111223831Y-36307894D01*
X111395314Y-36136411D01*
X111488120Y-35912357D01*
X111488120Y-36415407D01*
X111066035Y-36837447D01*
X110991851Y-36851841D01*
X110872681Y-36930123D01*
X110792909Y-37048301D01*
X110764873Y-37188100D01*
X110764873Y-37257399D01*
X110743014Y-37367290D01*
X110716001Y-37503058D01*
X110716004Y-37503076D01*
X110716000Y-37503100D01*
X110716000Y-37688500D01*
X110764873Y-37934200D01*
X110764873Y-38188860D01*
X110791181Y-38324449D01*
X110869463Y-38443619D01*
X110987641Y-38523391D01*
X111127440Y-38551427D01*
X111828480Y-38551427D01*
X111964069Y-38525119D01*
X112083239Y-38446837D01*
X112163011Y-38328659D01*
X112191047Y-38188860D01*
X112191047Y-37934602D01*
X112207657Y-37851093D01*
X112756109Y-37302701D01*
X112847628Y-37264887D01*
X112985842Y-37126913D01*
X112985613Y-37390007D01*
X113676333Y-39061677D01*
X114954195Y-40341772D01*
X116624658Y-41035409D01*
X118433407Y-41036987D01*
X120105077Y-40346267D01*
X121385172Y-39068405D01*
X122078809Y-37397942D01*
X122080387Y-35589193D01*
X122080387Y-64192298D01*
X121716199Y-63827474D01*
X120885634Y-63482593D01*
X119986312Y-63481808D01*
X119829339Y-63546667D01*
X119829339Y-51981148D01*
X119707787Y-51686972D01*
X119482912Y-51461704D01*
X119188948Y-51339639D01*
X118870648Y-51339361D01*
X118576472Y-51460913D01*
X118351204Y-51685788D01*
X118229139Y-51979752D01*
X118228990Y-52149878D01*
X111798239Y-58580629D01*
X111798239Y-40237748D01*
X111676687Y-39943572D01*
X111451812Y-39718304D01*
X111157848Y-39596239D01*
X110988124Y-39596090D01*
X110375600Y-38983609D01*
X110375600Y-36248300D01*
X110375600Y-35443120D01*
X110375600Y-35138320D01*
X110375600Y-34333140D01*
X110223200Y-34180740D01*
X110056223Y-34180740D01*
X109832169Y-34273546D01*
X109660686Y-34445029D01*
X109567880Y-34669083D01*
X109567880Y-34911597D01*
X109567880Y-34985920D01*
X109720280Y-35138320D01*
X110375600Y-35138320D01*
X110375600Y-35443120D01*
X109720280Y-35443120D01*
X109567880Y-35595520D01*
X109567880Y-35669843D01*
X109567880Y-35912357D01*
X109660686Y-36136411D01*
X109832169Y-36307894D01*
X110056223Y-36400700D01*
X110223200Y-36400700D01*
X110375600Y-36248300D01*
X110375600Y-38983609D01*
X110136800Y-38744826D01*
X110136800Y-38477395D01*
X110183319Y-38446837D01*
X110263091Y-38328659D01*
X110291127Y-38188860D01*
X110291127Y-37188100D01*
X110264819Y-37052511D01*
X110186537Y-36933341D01*
X110068359Y-36853569D01*
X109928560Y-36825533D01*
X109227520Y-36825533D01*
X109091931Y-36851841D01*
X108972761Y-36930123D01*
X108892989Y-37048301D01*
X108864953Y-37188100D01*
X108864953Y-38188860D01*
X108891261Y-38324449D01*
X108969543Y-38443619D01*
X109019200Y-38477138D01*
X109019200Y-38976300D01*
X109019201Y-38976309D01*
X109019200Y-38976320D01*
X109041478Y-39088303D01*
X109061736Y-39190144D01*
X109061741Y-39190151D01*
X109061743Y-39190161D01*
X109120387Y-39277920D01*
X109182869Y-39371431D01*
X109182877Y-39371436D01*
X109182883Y-39371445D01*
X110197907Y-40386399D01*
X110197761Y-40554652D01*
X110319313Y-40848828D01*
X110544188Y-41074096D01*
X110838152Y-41196161D01*
X111156452Y-41196439D01*
X111450628Y-41074887D01*
X111675896Y-40850012D01*
X111797961Y-40556048D01*
X111798239Y-40237748D01*
X111798239Y-58580629D01*
X93452105Y-76926764D01*
X93369387Y-76726572D01*
X93144512Y-76501304D01*
X92850548Y-76379239D01*
X92680852Y-76379090D01*
X85211139Y-68909377D01*
X85211139Y-59020148D01*
X85089587Y-58725972D01*
X84864712Y-58500704D01*
X84570748Y-58378639D01*
X84401052Y-58378490D01*
X81826239Y-55803677D01*
X81826239Y-36427748D01*
X81704687Y-36133572D01*
X81479812Y-35908304D01*
X81185848Y-35786239D01*
X80867548Y-35785961D01*
X80573372Y-35907513D01*
X80348104Y-36132388D01*
X80309715Y-36224837D01*
X79607989Y-36926500D01*
X78220722Y-36926500D01*
X78112679Y-36853569D01*
X77972880Y-36825533D01*
X77632520Y-36825533D01*
X77632520Y-35912357D01*
X77632520Y-35669843D01*
X77632520Y-35595520D01*
X77632520Y-34985920D01*
X77632520Y-34911597D01*
X77632520Y-34669083D01*
X77539714Y-34445029D01*
X77368231Y-34273546D01*
X77144177Y-34180740D01*
X76977200Y-34180740D01*
X76824800Y-34333140D01*
X76824800Y-35138320D01*
X77480120Y-35138320D01*
X77632520Y-34985920D01*
X77632520Y-35595520D01*
X77480120Y-35443120D01*
X76824800Y-35443120D01*
X76824800Y-36248300D01*
X76977200Y-36400700D01*
X77144177Y-36400700D01*
X77368231Y-36307894D01*
X77539714Y-36136411D01*
X77632520Y-35912357D01*
X77632520Y-36825533D01*
X77271840Y-36825533D01*
X77136251Y-36851841D01*
X77017081Y-36930123D01*
X76937309Y-37048301D01*
X76909273Y-37188100D01*
X76909273Y-37442799D01*
X76860400Y-37688500D01*
X76909273Y-37934200D01*
X76909273Y-38085018D01*
X76800847Y-37976584D01*
X76800836Y-37976576D01*
X76800831Y-37976569D01*
X76520000Y-37695738D01*
X76520000Y-36248300D01*
X76520000Y-35443120D01*
X76520000Y-35138320D01*
X76520000Y-34333140D01*
X76367600Y-34180740D01*
X76200623Y-34180740D01*
X75976569Y-34273546D01*
X75805086Y-34445029D01*
X75712280Y-34669083D01*
X75712280Y-34911597D01*
X75712280Y-34985920D01*
X75864680Y-35138320D01*
X76520000Y-35138320D01*
X76520000Y-35443120D01*
X75864680Y-35443120D01*
X75712280Y-35595520D01*
X75712280Y-35669843D01*
X75712280Y-35912357D01*
X75805086Y-36136411D01*
X75976569Y-36307894D01*
X76200623Y-36400700D01*
X76367600Y-36400700D01*
X76520000Y-36248300D01*
X76520000Y-37695738D01*
X76435527Y-37611265D01*
X76435527Y-37188100D01*
X76409219Y-37052511D01*
X76330937Y-36933341D01*
X76212759Y-36853569D01*
X76072960Y-36825533D01*
X75371920Y-36825533D01*
X75236331Y-36851841D01*
X75117161Y-36930123D01*
X75037389Y-37048301D01*
X75009353Y-37188100D01*
X75009353Y-38188860D01*
X75035661Y-38324449D01*
X75113943Y-38443619D01*
X75232121Y-38523391D01*
X75371920Y-38551427D01*
X75795065Y-38551427D01*
X76010469Y-38766831D01*
X76010767Y-38767030D01*
X77272953Y-40029316D01*
X77272963Y-40029323D01*
X77272969Y-40029331D01*
X77353711Y-40083282D01*
X77454236Y-40150456D01*
X77454247Y-40150458D01*
X77454256Y-40150464D01*
X77556646Y-40170830D01*
X77668078Y-40193000D01*
X77668089Y-40192997D01*
X77668100Y-40193000D01*
X78254538Y-40193000D01*
X78447907Y-40386369D01*
X78447761Y-40554652D01*
X78569313Y-40848828D01*
X78794188Y-41074096D01*
X79004884Y-41161585D01*
X74214487Y-45951982D01*
X74214487Y-35589193D01*
X73523767Y-33917523D01*
X72245905Y-32637428D01*
X70575442Y-31943791D01*
X69024892Y-31942438D01*
X69024892Y-27733612D01*
X68681461Y-26902446D01*
X68046099Y-26265974D01*
X67215534Y-25921093D01*
X66316212Y-25920308D01*
X65485046Y-26263739D01*
X64848574Y-26899101D01*
X64503693Y-27729666D01*
X64502908Y-28628988D01*
X64846339Y-29460154D01*
X65481701Y-30096626D01*
X66312266Y-30441507D01*
X67211588Y-30442292D01*
X68042754Y-30098861D01*
X68679226Y-29463499D01*
X69024107Y-28632934D01*
X69024892Y-27733612D01*
X69024892Y-31942438D01*
X68766693Y-31942213D01*
X67095023Y-32632933D01*
X65814928Y-33910795D01*
X65121291Y-35581258D01*
X65119713Y-37390007D01*
X65810433Y-39061677D01*
X67088295Y-40341772D01*
X68758758Y-41035409D01*
X70567507Y-41036987D01*
X72239177Y-40346267D01*
X73519272Y-39068405D01*
X74212909Y-37397942D01*
X74214487Y-35589193D01*
X74214487Y-45951982D01*
X70327969Y-49838500D01*
X63223938Y-49838500D01*
X63223938Y-35531346D01*
X62488842Y-33752277D01*
X61128882Y-32389941D01*
X59351100Y-31651742D01*
X57426146Y-31650062D01*
X55647077Y-32385158D01*
X54284741Y-33745118D01*
X53546542Y-35522900D01*
X53544862Y-37447854D01*
X54279958Y-39226923D01*
X55639918Y-40589259D01*
X57417700Y-41327458D01*
X59342654Y-41329138D01*
X61121723Y-40594042D01*
X62484059Y-39234082D01*
X63222258Y-37456300D01*
X63223938Y-35531346D01*
X63223938Y-49838500D01*
X58290267Y-49838500D01*
X58198848Y-49800539D01*
X57880548Y-49800261D01*
X57586372Y-49921813D01*
X57361104Y-50146688D01*
X57239039Y-50440652D01*
X57238761Y-50758952D01*
X57360313Y-51053128D01*
X57585188Y-51278396D01*
X57879152Y-51400461D01*
X58197452Y-51400739D01*
X58289996Y-51362500D01*
X70643600Y-51362500D01*
X70643600Y-51362499D01*
X70935204Y-51304496D01*
X70935205Y-51304496D01*
X71182415Y-51139315D01*
X80902615Y-41419115D01*
X80902616Y-41419115D01*
X81001634Y-41270923D01*
X81067796Y-41171905D01*
X81067796Y-41171904D01*
X81125800Y-40880300D01*
X81125800Y-38128700D01*
X81067796Y-37837096D01*
X81067796Y-37837095D01*
X81001634Y-37738076D01*
X80981633Y-37708144D01*
X81387115Y-37302699D01*
X81478628Y-37264887D01*
X81703896Y-37040012D01*
X81825961Y-36746048D01*
X81826239Y-36427748D01*
X81826239Y-55803677D01*
X78909631Y-52887069D01*
X78728344Y-52765936D01*
X78514500Y-52723400D01*
X64718105Y-52723400D01*
X64694087Y-52665272D01*
X64469212Y-52440004D01*
X64175248Y-52317939D01*
X63856948Y-52317661D01*
X63562772Y-52439213D01*
X63337504Y-52664088D01*
X63215439Y-52958052D01*
X63215161Y-53276352D01*
X63336713Y-53570528D01*
X63561588Y-53795796D01*
X63855552Y-53917861D01*
X64173852Y-53918139D01*
X64360541Y-53841000D01*
X78283038Y-53841000D01*
X83610807Y-59168769D01*
X83610661Y-59337052D01*
X83732213Y-59631228D01*
X83957088Y-59856496D01*
X84251052Y-59978561D01*
X84569352Y-59978839D01*
X84863528Y-59857287D01*
X85088796Y-59632412D01*
X85210861Y-59338448D01*
X85211139Y-59020148D01*
X85211139Y-68909377D01*
X73986462Y-57684700D01*
X75798288Y-57684700D01*
X75853788Y-57740296D01*
X76147752Y-57862361D01*
X76466052Y-57862639D01*
X76760228Y-57741087D01*
X76985496Y-57516212D01*
X77107561Y-57222248D01*
X77107839Y-56903948D01*
X76986287Y-56609772D01*
X76761412Y-56384504D01*
X76467448Y-56262439D01*
X76149148Y-56262161D01*
X75854972Y-56383713D01*
X75671264Y-56567100D01*
X58611700Y-56567100D01*
X58492812Y-56448004D01*
X58198848Y-56325939D01*
X57880548Y-56325661D01*
X57586372Y-56447213D01*
X57361104Y-56672088D01*
X57239039Y-56966052D01*
X57238761Y-57284352D01*
X57360313Y-57578528D01*
X57585188Y-57803796D01*
X57879152Y-57925861D01*
X58197452Y-57926139D01*
X58491628Y-57804587D01*
X58611724Y-57684700D01*
X63763459Y-57684700D01*
X63678439Y-57889452D01*
X63678161Y-58207752D01*
X63799713Y-58501928D01*
X64024588Y-58727196D01*
X64318552Y-58849261D01*
X64636852Y-58849539D01*
X64931028Y-58727987D01*
X65051124Y-58608100D01*
X73329338Y-58608100D01*
X91890607Y-77169369D01*
X91890461Y-77337652D01*
X92012013Y-77631828D01*
X92236888Y-77857096D01*
X92438186Y-77940682D01*
X84996567Y-85382302D01*
X84996739Y-85186148D01*
X84875187Y-84891972D01*
X84650312Y-84666704D01*
X84356348Y-84544639D01*
X84038048Y-84544361D01*
X83743872Y-84665913D01*
X83623775Y-84785800D01*
X81826239Y-84785800D01*
X81826239Y-73892748D01*
X81704687Y-73598572D01*
X81479812Y-73373304D01*
X81185848Y-73251239D01*
X80867548Y-73250961D01*
X80573372Y-73372513D01*
X80348104Y-73597388D01*
X80309714Y-73689839D01*
X79511487Y-74488000D01*
X78220574Y-74488000D01*
X78112679Y-74415169D01*
X77972880Y-74387133D01*
X77632520Y-74387133D01*
X77632520Y-73473957D01*
X77632520Y-73231443D01*
X77632520Y-73157120D01*
X77632520Y-72547520D01*
X77632520Y-72473197D01*
X77632520Y-72230683D01*
X77539714Y-72006629D01*
X77368231Y-71835146D01*
X77144177Y-71742340D01*
X76977200Y-71742340D01*
X76824800Y-71894740D01*
X76824800Y-72699920D01*
X77480120Y-72699920D01*
X77632520Y-72547520D01*
X77632520Y-73157120D01*
X77480120Y-73004720D01*
X76824800Y-73004720D01*
X76824800Y-73809900D01*
X76977200Y-73962300D01*
X77144177Y-73962300D01*
X77368231Y-73869494D01*
X77539714Y-73698011D01*
X77632520Y-73473957D01*
X77632520Y-74387133D01*
X77271840Y-74387133D01*
X77136251Y-74413441D01*
X77017081Y-74491723D01*
X76937309Y-74609901D01*
X76909273Y-74749700D01*
X76909273Y-75004299D01*
X76860400Y-75250000D01*
X76860410Y-75250052D01*
X76860401Y-75250100D01*
X76909273Y-75495798D01*
X76909273Y-75646518D01*
X76800847Y-75538084D01*
X76800836Y-75538076D01*
X76800831Y-75538069D01*
X76520000Y-75257238D01*
X76520000Y-73809900D01*
X76520000Y-73004720D01*
X76520000Y-72699920D01*
X76520000Y-71894740D01*
X76367600Y-71742340D01*
X76200623Y-71742340D01*
X75976569Y-71835146D01*
X75805086Y-72006629D01*
X75712280Y-72230683D01*
X75712280Y-72473197D01*
X75712280Y-72547520D01*
X75864680Y-72699920D01*
X76520000Y-72699920D01*
X76520000Y-73004720D01*
X75864680Y-73004720D01*
X75712280Y-73157120D01*
X75712280Y-73231443D01*
X75712280Y-73473957D01*
X75805086Y-73698011D01*
X75976569Y-73869494D01*
X76200623Y-73962300D01*
X76367600Y-73962300D01*
X76520000Y-73809900D01*
X76520000Y-75257238D01*
X76435527Y-75172765D01*
X76435527Y-74749700D01*
X76409219Y-74614111D01*
X76330937Y-74494941D01*
X76212759Y-74415169D01*
X76072960Y-74387133D01*
X75371920Y-74387133D01*
X75236331Y-74413441D01*
X75117161Y-74491723D01*
X75037389Y-74609901D01*
X75009353Y-74749700D01*
X75009353Y-75750460D01*
X75035661Y-75886049D01*
X75113943Y-76005219D01*
X75232121Y-76084991D01*
X75371920Y-76113027D01*
X75795065Y-76113027D01*
X76010369Y-76328331D01*
X76010968Y-76328731D01*
X77303453Y-77621316D01*
X77303463Y-77621323D01*
X77303469Y-77621331D01*
X77390205Y-77679286D01*
X77484737Y-77742456D01*
X77484747Y-77742457D01*
X77484756Y-77742464D01*
X77603545Y-77766092D01*
X77698578Y-77784999D01*
X77698586Y-77784997D01*
X77698600Y-77785000D01*
X78127538Y-77785000D01*
X78447907Y-78105369D01*
X78447761Y-78273652D01*
X78569313Y-78567828D01*
X78794188Y-78793096D01*
X79088152Y-78915161D01*
X79406452Y-78915439D01*
X79700628Y-78793887D01*
X79925896Y-78569012D01*
X80047961Y-78275048D01*
X80048239Y-77956748D01*
X79926687Y-77662572D01*
X79701812Y-77437304D01*
X79407848Y-77315239D01*
X79238152Y-77315090D01*
X78754131Y-76831069D01*
X78572844Y-76709936D01*
X78359000Y-76667400D01*
X77930074Y-76667400D01*
X77375745Y-76113027D01*
X77972880Y-76113027D01*
X78108469Y-76086719D01*
X78222214Y-76012000D01*
X79827100Y-76012000D01*
X79987373Y-75980119D01*
X80118675Y-75954008D01*
X80118687Y-75953999D01*
X80118705Y-75953996D01*
X80240358Y-75872709D01*
X80365893Y-75788838D01*
X80365915Y-75788815D01*
X81387117Y-74767698D01*
X81478628Y-74729887D01*
X81703896Y-74505012D01*
X81825961Y-74211048D01*
X81826239Y-73892748D01*
X81826239Y-84785800D01*
X74560462Y-84785800D01*
X68096803Y-78322141D01*
X68758758Y-78597009D01*
X70567507Y-78598587D01*
X72239177Y-77907867D01*
X73519272Y-76630005D01*
X74212909Y-74959542D01*
X74214487Y-73150793D01*
X73523767Y-71479123D01*
X72245905Y-70199028D01*
X70575442Y-69505391D01*
X69024892Y-69504038D01*
X69024892Y-65295112D01*
X68681461Y-64463946D01*
X68046099Y-63827474D01*
X67215534Y-63482593D01*
X66316212Y-63481808D01*
X65485046Y-63825239D01*
X64848574Y-64460601D01*
X64503693Y-65291166D01*
X64502908Y-66190488D01*
X64846339Y-67021654D01*
X65481701Y-67658126D01*
X66312266Y-68003007D01*
X67211588Y-68003792D01*
X68042754Y-67660361D01*
X68679226Y-67024999D01*
X69024107Y-66194434D01*
X69024892Y-65295112D01*
X69024892Y-69504038D01*
X68766693Y-69503813D01*
X67095023Y-70194533D01*
X65814928Y-71472395D01*
X65121291Y-73142858D01*
X65119713Y-74951607D01*
X65396750Y-75622088D01*
X64791100Y-75016438D01*
X64791100Y-72104700D01*
X64748564Y-71890857D01*
X64748564Y-71890856D01*
X64687997Y-71800212D01*
X64627431Y-71709569D01*
X64627431Y-71709568D01*
X58547292Y-65629429D01*
X58547439Y-65461148D01*
X58425887Y-65166972D01*
X58201012Y-64941704D01*
X57907048Y-64819639D01*
X57588748Y-64819361D01*
X57294572Y-64940913D01*
X57069304Y-65165788D01*
X56947239Y-65459752D01*
X56946961Y-65778052D01*
X57068513Y-66072228D01*
X57293388Y-66297496D01*
X57587352Y-66419561D01*
X57757047Y-66419709D01*
X63673500Y-72336162D01*
X63673500Y-75247900D01*
X63716036Y-75461744D01*
X63837169Y-75643031D01*
X73895938Y-85701800D01*
X64622313Y-85701800D01*
X64453712Y-85532904D01*
X64159748Y-85410839D01*
X63841448Y-85410561D01*
X63547272Y-85532113D01*
X63322004Y-85756988D01*
X63199939Y-86050952D01*
X63199661Y-86369252D01*
X63321213Y-86663428D01*
X63546088Y-86888696D01*
X63638566Y-86927096D01*
X63714085Y-87002615D01*
X63961295Y-87167796D01*
X63961296Y-87167796D01*
X64252900Y-87225800D01*
X84992700Y-87225800D01*
X84992700Y-87225799D01*
X85284304Y-87167796D01*
X85284305Y-87167796D01*
X85531515Y-87002615D01*
X119567915Y-52966216D01*
X119567915Y-52966215D01*
X119733096Y-52719005D01*
X119791099Y-52427400D01*
X119791100Y-52427400D01*
X119791100Y-52390867D01*
X119829061Y-52299448D01*
X119829339Y-51981148D01*
X119829339Y-63546667D01*
X119155146Y-63825239D01*
X118518674Y-64460601D01*
X118173793Y-65291166D01*
X118173008Y-66190488D01*
X118516439Y-67021654D01*
X119151801Y-67658126D01*
X119982366Y-68003007D01*
X120881688Y-68003792D01*
X121712854Y-67660361D01*
X122349326Y-67024999D01*
X122694207Y-66194434D01*
X122694992Y-65295112D01*
X122694992Y-108835762D01*
X122080387Y-108221157D01*
X122080387Y-73150793D01*
X121389667Y-71479123D01*
X120111805Y-70199028D01*
X118441342Y-69505391D01*
X116632593Y-69503813D01*
X114960923Y-70194533D01*
X113680828Y-71472395D01*
X112987191Y-73142858D01*
X112986869Y-73511602D01*
X112848812Y-73373304D01*
X112554848Y-73251239D01*
X112236548Y-73250961D01*
X111942372Y-73372513D01*
X111717104Y-73597388D01*
X111678717Y-73689831D01*
X111488120Y-73880407D01*
X111488120Y-73473957D01*
X111488120Y-73231443D01*
X111488120Y-73157120D01*
X111488120Y-72547520D01*
X111488120Y-72473197D01*
X111488120Y-72230683D01*
X111395314Y-72006629D01*
X111223831Y-71835146D01*
X110999777Y-71742340D01*
X110832800Y-71742340D01*
X110680400Y-71894740D01*
X110680400Y-72699920D01*
X111335720Y-72699920D01*
X111488120Y-72547520D01*
X111488120Y-73157120D01*
X111335720Y-73004720D01*
X110680400Y-73004720D01*
X110680400Y-73809900D01*
X110832800Y-73962300D01*
X110999777Y-73962300D01*
X111223831Y-73869494D01*
X111395314Y-73698011D01*
X111488120Y-73473957D01*
X111488120Y-73880407D01*
X110939214Y-74429255D01*
X110939201Y-74429274D01*
X110939185Y-74429285D01*
X110916853Y-74462706D01*
X110872681Y-74491723D01*
X110792909Y-74609901D01*
X110781937Y-74664608D01*
X110774020Y-74676457D01*
X110774016Y-74676477D01*
X110774004Y-74676495D01*
X110743014Y-74832290D01*
X110716001Y-74968058D01*
X110716004Y-74968076D01*
X110716000Y-74968100D01*
X110716000Y-75250000D01*
X110716000Y-75250100D01*
X110764873Y-75495800D01*
X110764873Y-75750460D01*
X110791181Y-75886049D01*
X110869463Y-76005219D01*
X110987641Y-76084991D01*
X111127440Y-76113027D01*
X111828480Y-76113027D01*
X111964069Y-76086719D01*
X112083239Y-76008437D01*
X112163011Y-75890259D01*
X112191047Y-75750460D01*
X112191047Y-75496202D01*
X112231643Y-75292110D01*
X112756109Y-74767701D01*
X112847628Y-74729887D01*
X112985926Y-74591829D01*
X112985613Y-74951607D01*
X113676333Y-76623277D01*
X114954195Y-77903372D01*
X116624658Y-78597009D01*
X118433407Y-78598587D01*
X120105077Y-77907867D01*
X121385172Y-76630005D01*
X122078809Y-74959542D01*
X122080387Y-73150793D01*
X122080387Y-108221157D01*
X118543015Y-104683785D01*
X118295805Y-104518604D01*
X118004200Y-104460600D01*
X117830167Y-104460600D01*
X117738748Y-104422639D01*
X117420448Y-104422361D01*
X117327903Y-104460600D01*
X96733830Y-104460600D01*
X83306415Y-91033185D01*
X83145852Y-90925900D01*
X85182138Y-90925900D01*
X93433907Y-99177669D01*
X93433761Y-99345952D01*
X93555313Y-99640128D01*
X93780188Y-99865396D01*
X94074152Y-99987461D01*
X94392452Y-99987739D01*
X94686628Y-99866187D01*
X94911896Y-99641312D01*
X95033961Y-99347348D01*
X95034239Y-99029048D01*
X94912687Y-98734872D01*
X94687812Y-98509604D01*
X94393848Y-98387539D01*
X94224152Y-98387390D01*
X86040662Y-90203900D01*
X103584738Y-90203900D01*
X108038907Y-94658069D01*
X108038761Y-94826352D01*
X108160313Y-95120528D01*
X108385188Y-95345796D01*
X108679152Y-95467861D01*
X108997452Y-95468139D01*
X109291628Y-95346587D01*
X109516896Y-95121712D01*
X109638961Y-94827748D01*
X109639239Y-94509448D01*
X109517687Y-94215272D01*
X109292812Y-93990004D01*
X108998848Y-93867939D01*
X108829152Y-93867790D01*
X104443562Y-89482200D01*
X117134400Y-89482200D01*
X117134400Y-89482199D01*
X117426004Y-89424196D01*
X117426005Y-89424196D01*
X117673215Y-89259015D01*
X118329842Y-88602388D01*
X118421328Y-88564587D01*
X118646596Y-88339712D01*
X118768661Y-88045748D01*
X118768939Y-87727448D01*
X118647387Y-87433272D01*
X118422512Y-87208004D01*
X118128548Y-87085939D01*
X117810248Y-87085661D01*
X117516072Y-87207213D01*
X117290804Y-87432088D01*
X117252403Y-87524565D01*
X116818769Y-87958200D01*
X111798239Y-87958200D01*
X111798239Y-77956748D01*
X111676687Y-77662572D01*
X111451812Y-77437304D01*
X111157848Y-77315239D01*
X110988153Y-77315090D01*
X110375600Y-76702537D01*
X110375600Y-73809900D01*
X110375600Y-73004720D01*
X110375600Y-72699920D01*
X110375600Y-71894740D01*
X110223200Y-71742340D01*
X110056223Y-71742340D01*
X109832169Y-71835146D01*
X109660686Y-72006629D01*
X109567880Y-72230683D01*
X109567880Y-72473197D01*
X109567880Y-72547520D01*
X109720280Y-72699920D01*
X110375600Y-72699920D01*
X110375600Y-73004720D01*
X109720280Y-73004720D01*
X109567880Y-73157120D01*
X109567880Y-73231443D01*
X109567880Y-73473957D01*
X109660686Y-73698011D01*
X109832169Y-73869494D01*
X110056223Y-73962300D01*
X110223200Y-73962300D01*
X110375600Y-73809900D01*
X110375600Y-76702537D01*
X110159800Y-76486737D01*
X110159800Y-76023886D01*
X110183319Y-76008437D01*
X110263091Y-75890259D01*
X110291127Y-75750460D01*
X110291127Y-74749700D01*
X110264819Y-74614111D01*
X110186537Y-74494941D01*
X110068359Y-74415169D01*
X109928560Y-74387133D01*
X109227520Y-74387133D01*
X109091931Y-74413441D01*
X108972761Y-74491723D01*
X108892989Y-74609901D01*
X108864953Y-74749700D01*
X108864953Y-75750460D01*
X108891261Y-75886049D01*
X108969543Y-76005219D01*
X109042200Y-76054263D01*
X109042200Y-76718200D01*
X109084736Y-76932044D01*
X109205869Y-77113331D01*
X110197907Y-78105370D01*
X110197761Y-78273652D01*
X110319313Y-78567828D01*
X110544188Y-78793096D01*
X110838152Y-78915161D01*
X111156452Y-78915439D01*
X111450628Y-78793887D01*
X111675896Y-78569012D01*
X111797961Y-78275048D01*
X111798239Y-77956748D01*
X111798239Y-87958200D01*
X64661767Y-87958200D01*
X64570348Y-87920239D01*
X64252048Y-87919961D01*
X63957872Y-88041513D01*
X63732604Y-88266388D01*
X63654836Y-88453673D01*
X56343492Y-81142329D01*
X56343639Y-80974048D01*
X56222087Y-80679872D01*
X55997212Y-80454604D01*
X55703248Y-80332539D01*
X55384948Y-80332261D01*
X55090772Y-80453813D01*
X54865504Y-80678688D01*
X54788241Y-80864756D01*
X54516548Y-80751939D01*
X54198248Y-80751661D01*
X53997900Y-80834443D01*
X53997900Y-76105890D01*
X54279958Y-76788523D01*
X55639918Y-78150859D01*
X57417700Y-78889058D01*
X59342654Y-78890738D01*
X61121723Y-78155642D01*
X62484059Y-76795682D01*
X63222258Y-75017900D01*
X63223938Y-73092946D01*
X62488842Y-71313877D01*
X61128882Y-69951541D01*
X59351100Y-69213342D01*
X57426146Y-69211662D01*
X55647077Y-69946758D01*
X54284741Y-71306718D01*
X53997900Y-71997508D01*
X53997900Y-66593162D01*
X61026369Y-59564692D01*
X61194652Y-59564839D01*
X61488828Y-59443287D01*
X61714096Y-59218412D01*
X61836161Y-58924448D01*
X61836439Y-58606148D01*
X61714887Y-58311972D01*
X61490012Y-58086704D01*
X61196048Y-57964639D01*
X60877748Y-57964361D01*
X60583572Y-58085913D01*
X60358304Y-58310788D01*
X60236239Y-58604752D01*
X60236090Y-58774447D01*
X53043969Y-65966569D01*
X52922836Y-66147856D01*
X52880300Y-66361700D01*
X52880300Y-82242500D01*
X52922836Y-82456344D01*
X53043969Y-82637631D01*
X62722752Y-92316415D01*
X62545948Y-92316261D01*
X62251772Y-92437813D01*
X62026504Y-92662688D01*
X61904439Y-92956652D01*
X61904161Y-93274952D01*
X62025713Y-93569128D01*
X62250588Y-93794396D01*
X62343066Y-93832796D01*
X73896600Y-105386330D01*
X73896600Y-109943247D01*
X73523767Y-109040923D01*
X72245905Y-107760828D01*
X70575442Y-107067191D01*
X70172239Y-107066839D01*
X70172239Y-104834648D01*
X70050687Y-104540472D01*
X69825812Y-104315204D01*
X69531848Y-104193139D01*
X69213548Y-104192861D01*
X69121003Y-104231100D01*
X65299667Y-104231100D01*
X65208248Y-104193139D01*
X64889948Y-104192861D01*
X64595772Y-104314413D01*
X64370504Y-104539288D01*
X64332103Y-104631765D01*
X63486985Y-105476885D01*
X63321804Y-105724095D01*
X63263800Y-106015700D01*
X63263800Y-109616932D01*
X63225839Y-109708352D01*
X63225561Y-110026652D01*
X63347113Y-110320828D01*
X63571988Y-110546096D01*
X63865952Y-110668161D01*
X64184252Y-110668439D01*
X64478428Y-110546887D01*
X64703696Y-110322012D01*
X64825761Y-110028048D01*
X64826039Y-109709748D01*
X64787800Y-109617203D01*
X64787800Y-106331330D01*
X65364030Y-105755100D01*
X69120732Y-105755100D01*
X69212152Y-105793061D01*
X69530452Y-105793339D01*
X69824628Y-105671787D01*
X70049896Y-105446912D01*
X70171961Y-105152948D01*
X70172239Y-104834648D01*
X70172239Y-107066839D01*
X68766693Y-107065613D01*
X67095023Y-107756333D01*
X65814928Y-109034195D01*
X65121291Y-110704658D01*
X65119713Y-112513407D01*
X65810433Y-114185077D01*
X67088295Y-115465172D01*
X68758758Y-116158809D01*
X70567507Y-116160387D01*
X72239177Y-115469667D01*
X73519272Y-114191805D01*
X73896600Y-113283098D01*
X73896600Y-113542700D01*
X73954604Y-113834305D01*
X74119785Y-114081515D01*
X77041884Y-117003615D01*
X77041885Y-117003615D01*
X77289095Y-117168796D01*
X77580700Y-117226800D01*
X86723769Y-117226800D01*
X95859900Y-126362930D01*
X95859900Y-135403247D01*
X95661370Y-135204371D01*
X95631000Y-135191760D01*
X95631000Y-130284600D01*
X95572996Y-129992995D01*
X95407815Y-129745785D01*
X83545615Y-117883585D01*
X83298405Y-117718404D01*
X83006800Y-117660400D01*
X74074230Y-117660400D01*
X73407988Y-116994158D01*
X73370187Y-116902672D01*
X73145312Y-116677404D01*
X72851348Y-116555339D01*
X72533048Y-116555061D01*
X72238872Y-116676613D01*
X72013604Y-116901488D01*
X71891539Y-117195452D01*
X71891261Y-117513752D01*
X72012813Y-117807928D01*
X72237688Y-118033196D01*
X72330166Y-118071596D01*
X73219784Y-118961215D01*
X73219785Y-118961215D01*
X73466995Y-119126396D01*
X73758600Y-119184400D01*
X82691170Y-119184400D01*
X85942198Y-122435428D01*
X85217482Y-122291273D01*
X85176205Y-122291273D01*
X85135720Y-122283220D01*
X69024892Y-122283220D01*
X69024892Y-119473312D01*
X68681461Y-118642146D01*
X68046099Y-118005674D01*
X67215534Y-117660793D01*
X66316212Y-117660008D01*
X65485046Y-118003439D01*
X64848574Y-118638801D01*
X64503693Y-119469366D01*
X64502908Y-120368688D01*
X64846339Y-121199854D01*
X65481701Y-121836326D01*
X66312266Y-122181207D01*
X67211588Y-122181992D01*
X68042754Y-121838561D01*
X68679226Y-121203199D01*
X69024107Y-120372634D01*
X69024892Y-119473312D01*
X69024892Y-122283220D01*
X63223938Y-122283220D01*
X63223938Y-110654746D01*
X62488842Y-108875677D01*
X61128882Y-107513341D01*
X59351100Y-106775142D01*
X57426146Y-106773462D01*
X55647077Y-107508558D01*
X54284741Y-108868518D01*
X53546542Y-110646300D01*
X53544862Y-112571254D01*
X54279958Y-114350323D01*
X55639918Y-115712659D01*
X57417700Y-116450858D01*
X59342654Y-116452538D01*
X61121723Y-115717442D01*
X62484059Y-114357482D01*
X63222258Y-112579700D01*
X63223938Y-110654746D01*
X63223938Y-122283220D01*
X53622576Y-122283220D01*
X52680468Y-122095822D01*
X51916778Y-121585541D01*
X51406497Y-120821852D01*
X51219100Y-119879743D01*
X51219100Y-28222576D01*
X51406497Y-27280467D01*
X51916778Y-26516778D01*
X52680468Y-26006497D01*
X53622576Y-25819100D01*
X133577963Y-25819100D01*
X134520072Y-26006497D01*
X135283761Y-26516778D01*
X135794042Y-27280468D01*
X135981440Y-28222576D01*
X135981440Y-119879743D01*
M02*
