M48
;DRILL file {KiCad 0.201508110901+6083~28~ubuntu14.04.1-product} date Wed 12 Aug 2015 09:29:57 AM EDT
;FORMAT={-:-/ absolute / inch / decimal}
FMAT,2
INCH,TZ
T1C0.025
T2C0.061
T3C0.112
T4C0.290
T5C0.313
%
G90
G05
M72
T1
X2.2801Y-3.724
X2.287Y-3.6516
X2.46Y-1.6154
X2.5299Y-3.3754
X2.5838Y-3.7587
X2.5925Y-3.3846
X2.61Y-1.6154
X2.7553Y-3.4657
X2.91Y-1.1654
X2.9395Y-4.4237
X2.9525Y-2.5033
X2.9738Y-1.5693
X3.06Y-1.3625
X3.0613Y-2.8106
X3.0637Y-4.2819
X3.071Y-3.0326
X3.0836Y-4.5183
X3.0859Y-3.7219
X3.1762Y-2.8926
X3.5168Y-2.1551
X3.5923Y-3.6849
X3.595Y-1.6967
X3.6285Y-4.8551
X3.645Y-3.5525
X3.745Y-4.8478
X3.745Y-5.0806
X3.7486Y-4.1611
X3.7559Y-5.6575
X3.7602Y-2.1659
X3.8057Y-1.9327
X3.823Y-3.6383
X3.968Y-4.3805
X3.979Y-3.6901
X4.1909Y-1.4655
X4.1967Y-2.8926
X4.1971Y-4.4279
X4.1974Y-1.3654
X4.2945Y-4.5114
X4.303Y-2.7982
X4.3087Y-1.5266
X4.3605Y-1.6174
X4.3754Y-2.1258
X4.4312Y-4.3505
X4.5823Y-3.4589
X4.635Y-3.5525
X4.6564Y-3.9781
X4.756Y-3.648
X4.7809Y-3.8392
X4.8363Y-3.4499
X4.8411Y-1.6337
X4.8439Y-2.7317
X4.8495Y-3.55
X4.8605Y-3.7066
X4.9343Y-1.6039
X4.967Y-2.2132
X5.0735Y-3.7209
X5.0857Y-3.4817
X5.0965Y-2.5026
X5.203Y-2.3154
T2
X3.635Y-5.5316
X3.735Y-5.5316
T3
X2.6285Y-1.1095
X2.6285Y-2.5883
X2.6285Y-4.7213
X4.7415Y-1.1095
X4.7415Y-2.5883
X4.7415Y-4.7213
T4
X2.7428Y-1.4366
X2.7428Y-2.9154
X2.7428Y-4.3942
X3.685Y-5.9826
X4.6273Y-1.4366
X4.6273Y-2.9154
X4.6273Y-4.3942
T5
X2.2986Y-1.4366
X2.2986Y-2.9154
X2.2986Y-4.3942
X5.0715Y-1.4366
X5.0715Y-2.9154
X5.0715Y-4.3942
T0
M30
