  0
SECTION
  2
HEADER
  9
$ANGBASE
  50
0.0
  9
$ANGDIR
  70
  1
  9
$MEASUREMENT
  70
0
  0
ENDSEC
  0
SECTION
  2
TABLES
  0
TABLE
  2
LTYPE
  70
1
  0
LTYPE
  2
CONTINUOUS
  70
0
  3
Solid line
  72
65
  73
0
  40
0.0
  0
ENDTAB
  0
TABLE
  2
STYLE
  70
4
  0
STYLE
  2
KICAD
  70
0
  40
0
  41
1
  42
1
  50
0
  71
0
  3
isocp.shx
  0
STYLE
  2
KICADB
  70
0
  40
0
  41
1
  42
1
  50
0
  71
0
  3
isocp.shx
  0
STYLE
  2
KICADI
  70
0
  40
0
  41
1
  42
1
  50
15
  71
0
  3
isocp.shx
  0
STYLE
  2
KICADBI
  70
0
  40
0
  41
1
  42
1
  50
15
  71
0
  3
isocp.shx
  0
ENDTAB
  0
TABLE
  2
LAYER
  70
30
  0
LAYER
  2
BLACK
  70
0
  62
7
  6
CONTINUOUS
  0
LAYER
  2
GRAY1
  70
0
  62
251
  6
CONTINUOUS
  0
LAYER
  2
GRAY2
  70
0
  62
8
  6
CONTINUOUS
  0
LAYER
  2
GRAY3
  70
0
  62
9
  6
CONTINUOUS
  0
LAYER
  2
WHITE
  70
0
  62
7
  6
CONTINUOUS
  0
LAYER
  2
LYELLOW
  70
0
  62
51
  6
CONTINUOUS
  0
LAYER
  2
BLUE1
  70
0
  62
178
  6
CONTINUOUS
  0
LAYER
  2
GREEN1
  70
0
  62
98
  6
CONTINUOUS
  0
LAYER
  2
CYAN1
  70
0
  62
138
  6
CONTINUOUS
  0
LAYER
  2
RED1
  70
0
  62
18
  6
CONTINUOUS
  0
LAYER
  2
MAGENTA1
  70
0
  62
228
  6
CONTINUOUS
  0
LAYER
  2
BROWN1
  70
0
  62
58
  6
CONTINUOUS
  0
LAYER
  2
BLUE2
  70
0
  62
5
  6
CONTINUOUS
  0
LAYER
  2
GREEN2
  70
0
  62
3
  6
CONTINUOUS
  0
LAYER
  2
CYAN2
  70
0
  62
4
  6
CONTINUOUS
  0
LAYER
  2
RED2
  70
0
  62
1
  6
CONTINUOUS
  0
LAYER
  2
MAGENTA2
  70
0
  62
6
  6
CONTINUOUS
  0
LAYER
  2
BROWN2
  70
0
  62
54
  6
CONTINUOUS
  0
LAYER
  2
BLUE3
  70
0
  62
171
  6
CONTINUOUS
  0
LAYER
  2
GREEN3
  70
0
  62
91
  6
CONTINUOUS
  0
LAYER
  2
CYAN3
  70
0
  62
131
  6
CONTINUOUS
  0
LAYER
  2
RED3
  70
0
  62
11
  6
CONTINUOUS
  0
LAYER
  2
MAGENTA3
  70
0
  62
221
  6
CONTINUOUS
  0
LAYER
  2
YELLOW3
  70
0
  62
2
  6
CONTINUOUS
  0
LAYER
  2
BLUE4
  70
0
  62
5
  6
CONTINUOUS
  0
LAYER
  2
GREEN4
  70
0
  62
3
  6
CONTINUOUS
  0
LAYER
  2
CYAN4
  70
0
  62
4
  6
CONTINUOUS
  0
LAYER
  2
RED4
  70
0
  62
1
  6
CONTINUOUS
  0
LAYER
  2
MAGENTA4
  70
0
  62
6
  6
CONTINUOUS
  0
LAYER
  2
YELLOW4
  70
0
  62
2
  6
CONTINUOUS
  0
ENDTAB
  0
ENDSEC
  0
SECTION
  2
ENTITIES
0
LINE
8
Black
10
25.3902
20
-84.9486
11
25.3802
21
-84.9486
0
LINE
8
Black
10
25.3802
20
-84.9486
11
25.3708
21
-84.9451
0
LINE
8
Black
10
25.3708
20
-84.9451
11
25.3609
21
-84.9434
0
LINE
8
Black
10
25.3609
20
-84.9434
11
25.3522
21
-84.9384
0
LINE
8
Black
10
25.3522
20
-84.9384
11
25.3428
21
-84.935
0
LINE
8
Black
10
25.3428
20
-84.935
11
25.3352
21
-84.9286
0
LINE
8
Black
10
25.3352
20
-84.9286
11
25.3265
21
-84.9236
0
LINE
8
Black
10
25.3265
20
-84.9236
11
25.3201
21
-84.9159
0
LINE
8
Black
10
25.3201
20
-84.9159
11
25.3124
21
-84.9095
0
LINE
8
Black
10
25.3124
20
-84.9095
11
25.3074
21
-84.9008
0
LINE
8
Black
10
25.3074
20
-84.9008
11
25.301
21
-84.8931
0
LINE
8
Black
10
25.301
20
-84.8931
11
25.2976
21
-84.8838
0
LINE
8
Black
10
25.2976
20
-84.8838
11
25.2926
21
-84.8751
0
LINE
8
Black
10
25.2926
20
-84.8751
11
25.2909
21
-84.8652
0
LINE
8
Black
10
25.2909
20
-84.8652
11
25.2874
21
-84.8558
0
LINE
8
Black
10
25.2874
20
-84.8558
11
25.2874
21
-84.8458
0
LINE
8
Black
10
25.2874
20
-84.8458
11
25.2857
21
-84.836
0
LINE
8
Black
10
25.2857
20
-84.836
11
25.2857
21
-25.4
0
LINE
8
Black
10
25.2857
20
-25.4
11
25.2874
21
-25.3902
0
LINE
8
Black
10
25.2874
20
-25.3902
11
25.2874
21
-25.3802
0
LINE
8
Black
10
25.2874
20
-25.3802
11
25.2909
21
-25.3708
0
LINE
8
Black
10
25.2909
20
-25.3708
11
25.2926
21
-25.3609
0
LINE
8
Black
10
25.2926
20
-25.3609
11
25.2976
21
-25.3522
0
LINE
8
Black
10
25.2976
20
-25.3522
11
25.301
21
-25.3428
0
LINE
8
Black
10
25.301
20
-25.3428
11
25.3074
21
-25.3352
0
LINE
8
Black
10
25.3074
20
-25.3352
11
25.3124
21
-25.3265
0
LINE
8
Black
10
25.3124
20
-25.3265
11
25.3201
21
-25.3201
0
LINE
8
Black
10
25.3201
20
-25.3201
11
25.3265
21
-25.3124
0
LINE
8
Black
10
25.3265
20
-25.3124
11
25.3352
21
-25.3074
0
LINE
8
Black
10
25.3352
20
-25.3074
11
25.3428
21
-25.301
0
LINE
8
Black
10
25.3428
20
-25.301
11
25.3522
21
-25.2976
0
LINE
8
Black
10
25.3522
20
-25.2976
11
25.3609
21
-25.2926
0
LINE
8
Black
10
25.3609
20
-25.2926
11
25.3708
21
-25.2909
0
LINE
8
Black
10
25.3708
20
-25.2909
11
25.3802
21
-25.2874
0
LINE
8
Black
10
25.3802
20
-25.2874
11
25.3902
21
-25.2874
0
LINE
8
Black
10
25.3902
20
-25.2874
11
25.4
21
-25.2857
0
LINE
8
Black
10
25.4
20
-25.2857
11
49.3649
21
-25.2857
0
LINE
8
Black
10
49.3649
20
-25.2857
11
49.3747
21
-25.2874
0
LINE
8
Black
10
49.3747
20
-25.2874
11
49.3847
21
-25.2874
0
LINE
8
Black
10
49.3847
20
-25.2874
11
49.3941
21
-25.2909
0
LINE
8
Black
10
49.3941
20
-25.2909
11
49.404
21
-25.2926
0
LINE
8
Black
10
49.404
20
-25.2926
11
49.4127
21
-25.2976
0
LINE
8
Black
10
49.4127
20
-25.2976
11
49.422
21
-25.301
0
LINE
8
Black
10
49.422
20
-25.301
11
49.4297
21
-25.3074
0
LINE
8
Black
10
49.4297
20
-25.3074
11
49.4384
21
-25.3124
0
LINE
8
Black
10
49.4384
20
-25.3124
11
49.4448
21
-25.3201
0
LINE
8
Black
10
49.4448
20
-25.3201
11
49.4525
21
-25.3265
0
LINE
8
Black
10
49.4525
20
-25.3265
11
49.4575
21
-25.3352
0
LINE
8
Black
10
49.4575
20
-25.3352
11
49.4639
21
-25.3428
0
LINE
8
Black
10
49.4639
20
-25.3428
11
49.4673
21
-25.3522
0
LINE
8
Black
10
49.4673
20
-25.3522
11
49.4723
21
-25.3609
0
LINE
8
Black
10
49.4723
20
-25.3609
11
49.474
21
-25.3708
0
LINE
8
Black
10
49.474
20
-25.3708
11
49.4775
21
-25.3802
0
LINE
8
Black
10
49.4775
20
-25.3802
11
49.4775
21
-25.3902
0
LINE
8
Black
10
49.4775
20
-25.3902
11
49.4792
21
-25.4
0
LINE
8
Black
10
49.4792
20
-25.4
11
49.4792
21
-84.836
0
LINE
8
Black
10
49.4792
20
-84.836
11
49.4775
21
-84.8458
0
LINE
8
Black
10
49.4775
20
-84.8458
11
49.4775
21
-84.8558
0
LINE
8
Black
10
49.4775
20
-84.8558
11
49.474
21
-84.8652
0
LINE
8
Black
10
49.474
20
-84.8652
11
49.4723
21
-84.8751
0
LINE
8
Black
10
49.4723
20
-84.8751
11
49.4673
21
-84.8838
0
LINE
8
Black
10
49.4673
20
-84.8838
11
49.4639
21
-84.8931
0
LINE
8
Black
10
49.4639
20
-84.8931
11
49.4575
21
-84.9008
0
LINE
8
Black
10
49.4575
20
-84.9008
11
49.4525
21
-84.9095
0
LINE
8
Black
10
49.4525
20
-84.9095
11
49.4448
21
-84.9159
0
LINE
8
Black
10
49.4448
20
-84.9159
11
49.4384
21
-84.9236
0
LINE
8
Black
10
49.4384
20
-84.9236
11
49.4297
21
-84.9286
0
LINE
8
Black
10
49.4297
20
-84.9286
11
49.422
21
-84.935
0
LINE
8
Black
10
49.422
20
-84.935
11
49.4127
21
-84.9384
0
LINE
8
Black
10
49.4127
20
-84.9384
11
49.404
21
-84.9434
0
LINE
8
Black
10
49.404
20
-84.9434
11
49.3941
21
-84.9451
0
LINE
8
Black
10
49.3941
20
-84.9451
11
49.3847
21
-84.9486
0
LINE
8
Black
10
49.3847
20
-84.9486
11
49.3747
21
-84.9486
0
LINE
8
Black
10
49.3747
20
-84.9486
11
49.3649
21
-84.9503
0
LINE
8
Black
10
49.3649
20
-84.9503
11
25.4
21
-84.9503
0
LINE
8
Black
10
25.4
20
-84.9503
11
25.3902
21
-84.9486
0
LINE
8
Black
10
49.2506
20
-25.5143
11
25.5143
21
-25.5143
0
LINE
8
Black
10
25.5143
20
-25.5143
11
25.5143
21
-84.7217
0
LINE
8
Black
10
25.5143
20
-84.7217
11
49.2506
21
-84.7217
0
LINE
8
Black
10
49.2506
20
-84.7217
11
49.2506
21
-25.5143
0
LINE
8
Black
10
36.7969
20
-34.7982
11
37.2033
21
-35.0328
0
LINE
8
Black
10
37.2033
20
-35.0328
11
37.505
21
-35.3923
0
LINE
8
Black
10
37.505
20
-35.3923
11
37.6655
21
-35.8333
0
LINE
8
Black
10
37.6655
20
-35.8333
11
37.6655
21
-36.3027
0
LINE
8
Black
10
37.6655
20
-36.3027
11
37.505
21
-36.7437
0
LINE
8
Black
10
37.505
20
-36.7437
11
37.2033
21
-37.1032
0
LINE
8
Black
10
37.2033
20
-37.1032
11
36.7969
21
-37.3378
0
LINE
8
Black
10
36.7969
20
-37.3378
11
36.3347
21
-37.4193
0
LINE
8
Black
10
36.3347
20
-37.4193
11
35.8725
21
-37.3378
0
LINE
8
Black
10
35.8725
20
-37.3378
11
35.4661
21
-37.1032
0
LINE
8
Black
10
35.4661
20
-37.1032
11
35.1644
21
-36.7437
0
LINE
8
Black
10
35.1644
20
-36.7437
11
35.0039
21
-36.3027
0
LINE
8
Black
10
35.0039
20
-36.3027
11
35.0039
21
-35.8333
0
LINE
8
Black
10
35.0039
20
-35.8333
11
35.1644
21
-35.3923
0
LINE
8
Black
10
35.1644
20
-35.3923
11
35.4661
21
-35.0328
0
LINE
8
Black
10
35.4661
20
-35.0328
11
35.8725
21
-34.7982
0
LINE
8
Black
10
35.8725
20
-34.7982
11
36.3347
21
-34.7167
0
LINE
8
Black
10
36.3347
20
-34.7167
11
36.7969
21
-34.7982
0
LINE
8
Black
10
36.7969
20
-72.8982
11
37.2033
21
-73.1328
0
LINE
8
Black
10
37.2033
20
-73.1328
11
37.505
21
-73.4923
0
LINE
8
Black
10
37.505
20
-73.4923
11
37.6655
21
-73.9333
0
LINE
8
Black
10
37.6655
20
-73.9333
11
37.6655
21
-74.4027
0
LINE
8
Black
10
37.6655
20
-74.4027
11
37.505
21
-74.8437
0
LINE
8
Black
10
37.505
20
-74.8437
11
37.2033
21
-75.2032
0
LINE
8
Black
10
37.2033
20
-75.2032
11
36.7969
21
-75.4378
0
LINE
8
Black
10
36.7969
20
-75.4378
11
36.3347
21
-75.5193
0
LINE
8
Black
10
36.3347
20
-75.5193
11
35.8725
21
-75.4378
0
LINE
8
Black
10
35.8725
20
-75.4378
11
35.4661
21
-75.2032
0
LINE
8
Black
10
35.4661
20
-75.2032
11
35.1644
21
-74.8437
0
LINE
8
Black
10
35.1644
20
-74.8437
11
35.0039
21
-74.4027
0
LINE
8
Black
10
35.0039
20
-74.4027
11
35.0039
21
-73.9333
0
LINE
8
Black
10
35.0039
20
-73.9333
11
35.1644
21
-73.4923
0
LINE
8
Black
10
35.1644
20
-73.4923
11
35.4661
21
-73.1328
0
LINE
8
Black
10
35.4661
20
-73.1328
11
35.8725
21
-72.8982
0
LINE
8
Black
10
35.8725
20
-72.8982
11
36.3347
21
-72.8167
0
LINE
8
Black
10
36.3347
20
-72.8167
11
36.7969
21
-72.8982
0
LINE
8
Black
10
47.9619
20
-28.6877
11
48.2916
21
-28.8781
0
LINE
8
Black
10
48.2916
20
-28.8781
11
48.5364
21
-29.1698
0
LINE
8
Black
10
48.5364
20
-29.1698
11
48.6666
21
-29.5276
0
LINE
8
Black
10
48.6666
20
-29.5276
11
48.6666
21
-29.9084
0
LINE
8
Black
10
48.6666
20
-29.9084
11
48.5364
21
-30.2662
0
LINE
8
Black
10
48.5364
20
-30.2662
11
48.2916
21
-30.5579
0
LINE
8
Black
10
48.2916
20
-30.5579
11
47.9619
21
-30.7483
0
LINE
8
Black
10
47.9619
20
-30.7483
11
47.5869
21
-30.8144
0
LINE
8
Black
10
47.5869
20
-30.8144
11
47.2119
21
-30.7483
0
LINE
8
Black
10
47.2119
20
-30.7483
11
46.8822
21
-30.5579
0
LINE
8
Black
10
46.8822
20
-30.5579
11
46.6374
21
-30.2662
0
LINE
8
Black
10
46.6374
20
-30.2662
11
46.5072
21
-29.9084
0
LINE
8
Black
10
46.5072
20
-29.9084
11
46.5072
21
-29.5276
0
LINE
8
Black
10
46.5072
20
-29.5276
11
46.6374
21
-29.1698
0
LINE
8
Black
10
46.6374
20
-29.1698
11
46.8822
21
-28.8781
0
LINE
8
Black
10
46.8822
20
-28.8781
11
47.2119
21
-28.6877
0
LINE
8
Black
10
47.2119
20
-28.6877
11
47.5869
21
-28.6216
0
LINE
8
Black
10
47.5869
20
-28.6216
11
47.9619
21
-28.6877
0
LINE
8
Black
10
47.9619
20
-36.3077
11
48.2916
21
-36.4981
0
LINE
8
Black
10
48.2916
20
-36.4981
11
48.5364
21
-36.7898
0
LINE
8
Black
10
48.5364
20
-36.7898
11
48.6666
21
-37.1476
0
LINE
8
Black
10
48.6666
20
-37.1476
11
48.6666
21
-37.5284
0
LINE
8
Black
10
48.6666
20
-37.5284
11
48.5364
21
-37.8862
0
LINE
8
Black
10
48.5364
20
-37.8862
11
48.2916
21
-38.1779
0
LINE
8
Black
10
48.2916
20
-38.1779
11
47.9619
21
-38.3683
0
LINE
8
Black
10
47.9619
20
-38.3683
11
47.5869
21
-38.4344
0
LINE
8
Black
10
47.5869
20
-38.4344
11
47.2119
21
-38.3683
0
LINE
8
Black
10
47.2119
20
-38.3683
11
46.8822
21
-38.1779
0
LINE
8
Black
10
46.8822
20
-38.1779
11
46.6374
21
-37.8862
0
LINE
8
Black
10
46.6374
20
-37.8862
11
46.5072
21
-37.5284
0
LINE
8
Black
10
46.5072
20
-37.5284
11
46.5072
21
-37.1476
0
LINE
8
Black
10
46.5072
20
-37.1476
11
46.6374
21
-36.7898
0
LINE
8
Black
10
46.6374
20
-36.7898
11
46.8822
21
-36.4981
0
LINE
8
Black
10
46.8822
20
-36.4981
11
47.2119
21
-36.3077
0
LINE
8
Black
10
47.2119
20
-36.3077
11
47.5869
21
-36.2416
0
LINE
8
Black
10
47.5869
20
-36.2416
11
47.9619
21
-36.3077
0
LINE
8
Black
10
47.9619
20
-43.9277
11
48.2916
21
-44.1181
0
LINE
8
Black
10
48.2916
20
-44.1181
11
48.5364
21
-44.4098
0
LINE
8
Black
10
48.5364
20
-44.4098
11
48.6666
21
-44.7676
0
LINE
8
Black
10
48.6666
20
-44.7676
11
48.6666
21
-45.1484
0
LINE
8
Black
10
48.6666
20
-45.1484
11
48.5364
21
-45.5062
0
LINE
8
Black
10
48.5364
20
-45.5062
11
48.2916
21
-45.7979
0
LINE
8
Black
10
48.2916
20
-45.7979
11
47.9619
21
-45.9883
0
LINE
8
Black
10
47.9619
20
-45.9883
11
47.5869
21
-46.0544
0
LINE
8
Black
10
47.5869
20
-46.0544
11
47.2119
21
-45.9883
0
LINE
8
Black
10
47.2119
20
-45.9883
11
46.8822
21
-45.7979
0
LINE
8
Black
10
46.8822
20
-45.7979
11
46.6374
21
-45.5062
0
LINE
8
Black
10
46.6374
20
-45.5062
11
46.5072
21
-45.1484
0
LINE
8
Black
10
46.5072
20
-45.1484
11
46.5072
21
-44.7676
0
LINE
8
Black
10
46.5072
20
-44.7676
11
46.6374
21
-44.4098
0
LINE
8
Black
10
46.6374
20
-44.4098
11
46.8822
21
-44.1181
0
LINE
8
Black
10
46.8822
20
-44.1181
11
47.2119
21
-43.9277
0
LINE
8
Black
10
47.2119
20
-43.9277
11
47.5869
21
-43.8616
0
LINE
8
Black
10
47.5869
20
-43.8616
11
47.9619
21
-43.9277
0
LINE
8
Black
10
47.9619
20
-51.5477
11
48.2916
21
-51.7381
0
LINE
8
Black
10
48.2916
20
-51.7381
11
48.5364
21
-52.0298
0
LINE
8
Black
10
48.5364
20
-52.0298
11
48.6666
21
-52.3876
0
LINE
8
Black
10
48.6666
20
-52.3876
11
48.6666
21
-52.7684
0
LINE
8
Black
10
48.6666
20
-52.7684
11
48.5364
21
-53.1262
0
LINE
8
Black
10
48.5364
20
-53.1262
11
48.2916
21
-53.4179
0
LINE
8
Black
10
48.2916
20
-53.4179
11
47.9619
21
-53.6083
0
LINE
8
Black
10
47.9619
20
-53.6083
11
47.5869
21
-53.6744
0
LINE
8
Black
10
47.5869
20
-53.6744
11
47.2119
21
-53.6083
0
LINE
8
Black
10
47.2119
20
-53.6083
11
46.8822
21
-53.4179
0
LINE
8
Black
10
46.8822
20
-53.4179
11
46.6374
21
-53.1262
0
LINE
8
Black
10
46.6374
20
-53.1262
11
46.5072
21
-52.7684
0
LINE
8
Black
10
46.5072
20
-52.7684
11
46.5072
21
-52.3876
0
LINE
8
Black
10
46.5072
20
-52.3876
11
46.6374
21
-52.0298
0
LINE
8
Black
10
46.6374
20
-52.0298
11
46.8822
21
-51.7381
0
LINE
8
Black
10
46.8822
20
-51.7381
11
47.2119
21
-51.5477
0
LINE
8
Black
10
47.2119
20
-51.5477
11
47.5869
21
-51.4816
0
LINE
8
Black
10
47.5869
20
-51.4816
11
47.9619
21
-51.5477
0
LINE
8
Black
10
47.9619
20
-59.1677
11
48.2916
21
-59.3581
0
LINE
8
Black
10
48.2916
20
-59.3581
11
48.5364
21
-59.6498
0
LINE
8
Black
10
48.5364
20
-59.6498
11
48.6666
21
-60.0076
0
LINE
8
Black
10
48.6666
20
-60.0076
11
48.6666
21
-60.3884
0
LINE
8
Black
10
48.6666
20
-60.3884
11
48.5364
21
-60.7462
0
LINE
8
Black
10
48.5364
20
-60.7462
11
48.2916
21
-61.0379
0
LINE
8
Black
10
48.2916
20
-61.0379
11
47.9619
21
-61.2283
0
LINE
8
Black
10
47.9619
20
-61.2283
11
47.5869
21
-61.2944
0
LINE
8
Black
10
47.5869
20
-61.2944
11
47.2119
21
-61.2283
0
LINE
8
Black
10
47.2119
20
-61.2283
11
46.8822
21
-61.0379
0
LINE
8
Black
10
46.8822
20
-61.0379
11
46.6374
21
-60.7462
0
LINE
8
Black
10
46.6374
20
-60.7462
11
46.5072
21
-60.3884
0
LINE
8
Black
10
46.5072
20
-60.3884
11
46.5072
21
-60.0076
0
LINE
8
Black
10
46.5072
20
-60.0076
11
46.6374
21
-59.6498
0
LINE
8
Black
10
46.6374
20
-59.6498
11
46.8822
21
-59.3581
0
LINE
8
Black
10
46.8822
20
-59.3581
11
47.2119
21
-59.1677
0
LINE
8
Black
10
47.2119
20
-59.1677
11
47.5869
21
-59.1016
0
LINE
8
Black
10
47.5869
20
-59.1016
11
47.9619
21
-59.1677
0
LINE
8
Black
10
47.9619
20
-66.7877
11
48.2916
21
-66.9781
0
LINE
8
Black
10
48.2916
20
-66.9781
11
48.5364
21
-67.2698
0
LINE
8
Black
10
48.5364
20
-67.2698
11
48.6666
21
-67.6276
0
LINE
8
Black
10
48.6666
20
-67.6276
11
48.6666
21
-68.0084
0
LINE
8
Black
10
48.6666
20
-68.0084
11
48.5364
21
-68.3662
0
LINE
8
Black
10
48.5364
20
-68.3662
11
48.2916
21
-68.6579
0
LINE
8
Black
10
48.2916
20
-68.6579
11
47.9619
21
-68.8483
0
LINE
8
Black
10
47.9619
20
-68.8483
11
47.5869
21
-68.9144
0
LINE
8
Black
10
47.5869
20
-68.9144
11
47.2119
21
-68.8483
0
LINE
8
Black
10
47.2119
20
-68.8483
11
46.8822
21
-68.6579
0
LINE
8
Black
10
46.8822
20
-68.6579
11
46.6374
21
-68.3662
0
LINE
8
Black
10
46.6374
20
-68.3662
11
46.5072
21
-68.0084
0
LINE
8
Black
10
46.5072
20
-68.0084
11
46.5072
21
-67.6276
0
LINE
8
Black
10
46.5072
20
-67.6276
11
46.6374
21
-67.2698
0
LINE
8
Black
10
46.6374
20
-67.2698
11
46.8822
21
-66.9781
0
LINE
8
Black
10
46.8822
20
-66.9781
11
47.2119
21
-66.7877
0
LINE
8
Black
10
47.2119
20
-66.7877
11
47.5869
21
-66.7216
0
LINE
8
Black
10
47.5869
20
-66.7216
11
47.9619
21
-66.7877
0
LINE
8
Black
10
47.9619
20
-74.4077
11
48.2916
21
-74.5981
0
LINE
8
Black
10
48.2916
20
-74.5981
11
48.5364
21
-74.8898
0
LINE
8
Black
10
48.5364
20
-74.8898
11
48.6666
21
-75.2476
0
LINE
8
Black
10
48.6666
20
-75.2476
11
48.6666
21
-75.6284
0
LINE
8
Black
10
48.6666
20
-75.6284
11
48.5364
21
-75.9862
0
LINE
8
Black
10
48.5364
20
-75.9862
11
48.2916
21
-76.2779
0
LINE
8
Black
10
48.2916
20
-76.2779
11
47.9619
21
-76.4683
0
LINE
8
Black
10
47.9619
20
-76.4683
11
47.5869
21
-76.5344
0
LINE
8
Black
10
47.5869
20
-76.5344
11
47.2119
21
-76.4683
0
LINE
8
Black
10
47.2119
20
-76.4683
11
46.8822
21
-76.2779
0
LINE
8
Black
10
46.8822
20
-76.2779
11
46.6374
21
-75.9862
0
LINE
8
Black
10
46.6374
20
-75.9862
11
46.5072
21
-75.6284
0
LINE
8
Black
10
46.5072
20
-75.6284
11
46.5072
21
-75.2476
0
LINE
8
Black
10
46.5072
20
-75.2476
11
46.6374
21
-74.8898
0
LINE
8
Black
10
46.6374
20
-74.8898
11
46.8822
21
-74.5981
0
LINE
8
Black
10
46.8822
20
-74.5981
11
47.2119
21
-74.4077
0
LINE
8
Black
10
47.2119
20
-74.4077
11
47.5869
21
-74.3416
0
LINE
8
Black
10
47.5869
20
-74.3416
11
47.9619
21
-74.4077
0
LINE
8
Black
10
47.9619
20
-82.0277
11
48.2916
21
-82.2181
0
LINE
8
Black
10
48.2916
20
-82.2181
11
48.5364
21
-82.5098
0
LINE
8
Black
10
48.5364
20
-82.5098
11
48.6666
21
-82.8676
0
LINE
8
Black
10
48.6666
20
-82.8676
11
48.6666
21
-83.2484
0
LINE
8
Black
10
48.6666
20
-83.2484
11
48.5364
21
-83.6062
0
LINE
8
Black
10
48.5364
20
-83.6062
11
48.2916
21
-83.8979
0
LINE
8
Black
10
48.2916
20
-83.8979
11
47.9619
21
-84.0883
0
LINE
8
Black
10
47.9619
20
-84.0883
11
47.5869
21
-84.1544
0
LINE
8
Black
10
47.5869
20
-84.1544
11
47.2119
21
-84.0883
0
LINE
8
Black
10
47.2119
20
-84.0883
11
46.8822
21
-83.8979
0
LINE
8
Black
10
46.8822
20
-83.8979
11
46.6374
21
-83.6062
0
LINE
8
Black
10
46.6374
20
-83.6062
11
46.5072
21
-83.2484
0
LINE
8
Black
10
46.5072
20
-83.2484
11
46.5072
21
-82.8676
0
LINE
8
Black
10
46.5072
20
-82.8676
11
46.6374
21
-82.5098
0
LINE
8
Black
10
46.6374
20
-82.5098
11
46.8822
21
-82.2181
0
LINE
8
Black
10
46.8822
20
-82.2181
11
47.2119
21
-82.0277
0
LINE
8
Black
10
47.2119
20
-82.0277
11
47.5869
21
-81.9616
0
LINE
8
Black
10
47.5869
20
-81.9616
11
47.9619
21
-82.0277
0
LINE
8
Black
10
47.9619
20
-35.8283
11
47.5869
21
-35.8944
0
LINE
8
Black
10
47.5869
20
-35.8944
11
47.2119
21
-35.8283
0
LINE
8
Black
10
47.2119
20
-35.8283
11
47.1609
21
-35.7988
0
LINE
8
Black
10
47.1609
20
-35.7988
11
46.7655
21
-36.1941
0
LINE
8
Black
10
46.7655
20
-36.1941
11
46.7785
21
-36.2245
0
LINE
8
Black
10
46.7785
20
-36.2245
11
46.7801
21
-36.2315
0
LINE
8
Black
10
46.7801
20
-36.2315
11
46.7832
21
-36.2381
0
LINE
8
Black
10
46.7832
20
-36.2381
11
46.7841
21
-36.2486
0
LINE
8
Black
10
46.7841
20
-36.2486
11
46.7865
21
-36.2588
0
LINE
8
Black
10
46.7865
20
-36.2588
11
46.7856
21
-36.2661
0
LINE
8
Black
10
46.7856
20
-36.2661
11
46.7863
21
-36.2733
0
LINE
8
Black
10
46.7863
20
-36.2733
11
46.7835
21
-36.2834
0
LINE
8
Black
10
46.7835
20
-36.2834
11
46.7823
21
-36.2939
0
LINE
8
Black
10
46.7823
20
-36.2939
11
46.779
21
-36.3003
0
LINE
8
Black
10
46.779
20
-36.3003
11
46.7771
21
-36.3074
0
LINE
8
Black
10
46.7771
20
-36.3074
11
46.771
21
-36.316
0
LINE
8
Black
10
46.771
20
-36.316
11
46.7663
21
-36.3253
0
LINE
8
Black
10
46.7663
20
-36.3253
11
46.761
21
-36.3303
0
LINE
8
Black
10
46.761
20
-36.3303
11
46.7568
21
-36.3362
0
LINE
8
Black
10
46.7568
20
-36.3362
11
46.5911
21
-36.5017
0
LINE
8
Black
10
46.5911
20
-36.5017
11
46.4894
21
-36.6033
0
LINE
8
Black
10
46.4894
20
-36.6033
11
46.2917
21
-37.0792
0
LINE
8
Black
10
46.2917
20
-37.0792
11
46.2913
21
-37.5945
0
LINE
8
Black
10
46.2913
20
-37.5945
11
46.4881
21
-38.0708
0
LINE
8
Black
10
46.4881
20
-38.0708
11
46.8522
21
-38.4355
0
LINE
8
Black
10
46.8522
20
-38.4355
11
47.3281
21
-38.6332
0
LINE
8
Black
10
47.3281
20
-38.6332
11
47.8434
21
-38.6336
0
LINE
8
Black
10
47.8434
20
-38.6336
11
48.3197
21
-38.4368
0
LINE
8
Black
10
48.3197
20
-38.4368
11
48.6844
21
-38.0727
0
LINE
8
Black
10
48.6844
20
-38.0727
11
48.852
21
-37.6693
0
LINE
8
Black
10
48.852
20
-37.6693
11
48.8603
21
-37.6563
0
LINE
8
Black
10
48.8603
20
-37.6563
11
48.868
21
-37.643
0
LINE
8
Black
10
48.868
20
-37.643
11
48.8697
21
-37.6415
0
LINE
8
Black
10
48.8697
20
-37.6415
11
48.871
21
-37.6396
0
LINE
8
Black
10
48.871
20
-37.6396
11
48.8832
21
-37.6302
0
LINE
8
Black
10
48.8832
20
-37.6302
11
48.895
21
-37.6203
0
LINE
8
Black
10
48.895
20
-37.6203
11
48.8971
21
-37.6195
0
LINE
8
Black
10
48.8971
20
-37.6195
11
48.899
21
-37.6181
0
LINE
8
Black
10
48.899
20
-37.6181
11
48.9137
21
-37.6135
0
LINE
8
Black
10
48.9137
20
-37.6135
11
48.9282
21
-37.6082
0
LINE
8
Black
10
48.9282
20
-37.6082
11
48.9304
21
-37.6082
0
LINE
8
Black
10
48.9304
20
-37.6082
11
48.9326
21
-37.6075
0
LINE
8
Black
10
48.9326
20
-37.6075
11
48.948
21
-37.6082
0
LINE
8
Black
10
48.948
20
-37.6082
11
48.9634
21
-37.6082
0
LINE
8
Black
10
48.9634
20
-37.6082
11
48.9656
21
-37.609
0
LINE
8
Black
10
48.9656
20
-37.609
11
48.9679
21
-37.6091
0
LINE
8
Black
10
48.9679
20
-37.6091
11
48.9821
21
-37.615
0
LINE
8
Black
10
48.9821
20
-37.615
11
48.9966
21
-37.6203
0
LINE
8
Black
10
48.9966
20
-37.6203
11
48.9984
21
-37.6218
0
LINE
8
Black
10
48.9984
20
-37.6218
11
49.0005
21
-37.6226
0
LINE
8
Black
10
49.0005
20
-37.6226
11
49.0118
21
-37.633
0
LINE
8
Black
10
49.0118
20
-37.633
11
49.0236
21
-37.643
0
LINE
8
Black
10
49.0236
20
-37.643
11
49.0248
21
-37.6449
0
LINE
8
Black
10
49.0248
20
-37.6449
11
49.0265
21
-37.6465
0
LINE
8
Black
10
49.0265
20
-37.6465
11
49.0336
21
-37.6602
0
LINE
8
Black
10
49.0336
20
-37.6602
11
49.0413
21
-37.6735
0
LINE
8
Black
10
49.0413
20
-37.6735
11
49.0417
21
-37.6758
0
LINE
8
Black
10
49.0417
20
-37.6758
11
49.0427
21
-37.6778
0
LINE
8
Black
10
49.0427
20
-37.6778
11
49.0447
21
-37.6931
0
LINE
8
Black
10
49.0447
20
-37.6931
11
49.0474
21
-37.7083
0
LINE
8
Black
10
49.0474
20
-37.7083
11
49.0474
21
-41.4703
0
LINE
8
Black
10
49.0474
20
-41.4703
11
49.0454
21
-41.4818
0
LINE
8
Black
10
49.0454
20
-41.4818
11
49.0448
21
-41.4933
0
LINE
8
Black
10
49.0448
20
-41.4933
11
49.0423
21
-41.499
0
LINE
8
Black
10
49.0423
20
-41.499
11
49.0413
21
-41.5051
0
LINE
8
Black
10
49.0413
20
-41.5051
11
49.0355
21
-41.5151
0
LINE
8
Black
10
49.0355
20
-41.5151
11
49.0309
21
-41.5258
0
LINE
8
Black
10
49.0309
20
-41.5258
11
49.0267
21
-41.5303
0
LINE
8
Black
10
49.0267
20
-41.5303
11
49.0236
21
-41.5356
0
LINE
8
Black
10
49.0236
20
-41.5356
11
49.0147
21
-41.5431
0
LINE
8
Black
10
49.0147
20
-41.5431
11
49.0068
21
-41.5516
0
LINE
8
Black
10
49.0068
20
-41.5516
11
49.0013
21
-41.5543
0
LINE
8
Black
10
49.0013
20
-41.5543
11
48.9966
21
-41.5583
0
LINE
8
Black
10
48.9966
20
-41.5583
11
48.9857
21
-41.5623
0
LINE
8
Black
10
48.9857
20
-41.5623
11
48.9753
21
-41.5675
0
LINE
8
Black
10
48.9753
20
-41.5675
11
48.9692
21
-41.5683
0
LINE
8
Black
10
48.9692
20
-41.5683
11
48.9634
21
-41.5704
0
LINE
8
Black
10
48.9634
20
-41.5704
11
48.9518
21
-41.5704
0
LINE
8
Black
10
48.9518
20
-41.5704
11
48.9403
21
-41.5718
0
LINE
8
Black
10
48.9403
20
-41.5718
11
48.9343
21
-41.5704
0
LINE
8
Black
10
48.9343
20
-41.5704
11
48.9282
21
-41.5704
0
LINE
8
Black
10
48.9282
20
-41.5704
11
48.9172
21
-41.5664
0
LINE
8
Black
10
48.9172
20
-41.5664
11
48.9059
21
-41.5638
0
LINE
8
Black
10
48.9059
20
-41.5638
11
48.8319
21
-41.5322
0
LINE
8
Black
10
48.8319
20
-41.5322
11
48.6649
21
-41.6992
0
LINE
8
Black
10
48.6649
20
-41.6992
11
48.5172
21
-41.8469
0
LINE
8
Black
10
48.5172
20
-41.8469
11
48.5364
21
-41.8698
0
LINE
8
Black
10
48.5364
20
-41.8698
11
48.6666
21
-42.2276
0
LINE
8
Black
10
48.6666
20
-42.2276
11
48.6666
21
-42.6084
0
LINE
8
Black
10
48.6666
20
-42.6084
11
48.5364
21
-42.9662
0
LINE
8
Black
10
48.5364
20
-42.9662
11
48.5172
21
-42.9891
0
LINE
8
Black
10
48.5172
20
-42.9891
11
48.8319
21
-43.3038
0
LINE
8
Black
10
48.8319
20
-43.3038
11
48.9059
21
-43.2722
0
LINE
8
Black
10
48.9059
20
-43.2722
11
48.9172
21
-43.2696
0
LINE
8
Black
10
48.9172
20
-43.2696
11
48.9282
21
-43.2656
0
LINE
8
Black
10
48.9282
20
-43.2656
11
48.9343
21
-43.2656
0
LINE
8
Black
10
48.9343
20
-43.2656
11
48.9403
21
-43.2642
0
LINE
8
Black
10
48.9403
20
-43.2642
11
48.9518
21
-43.2656
0
LINE
8
Black
10
48.9518
20
-43.2656
11
48.9634
21
-43.2656
0
LINE
8
Black
10
48.9634
20
-43.2656
11
48.9692
21
-43.2677
0
LINE
8
Black
10
48.9692
20
-43.2677
11
48.9753
21
-43.2685
0
LINE
8
Black
10
48.9753
20
-43.2685
11
48.9857
21
-43.2737
0
LINE
8
Black
10
48.9857
20
-43.2737
11
48.9966
21
-43.2777
0
LINE
8
Black
10
48.9966
20
-43.2777
11
49.0013
21
-43.2817
0
LINE
8
Black
10
49.0013
20
-43.2817
11
49.0068
21
-43.2844
0
LINE
8
Black
10
49.0068
20
-43.2844
11
49.0147
21
-43.2929
0
LINE
8
Black
10
49.0147
20
-43.2929
11
49.0236
21
-43.3004
0
LINE
8
Black
10
49.0236
20
-43.3004
11
49.0267
21
-43.3057
0
LINE
8
Black
10
49.0267
20
-43.3057
11
49.0309
21
-43.3102
0
LINE
8
Black
10
49.0309
20
-43.3102
11
49.0355
21
-43.3209
0
LINE
8
Black
10
49.0355
20
-43.3209
11
49.0413
21
-43.3309
0
LINE
8
Black
10
49.0413
20
-43.3309
11
49.0423
21
-43.337
0
LINE
8
Black
10
49.0423
20
-43.337
11
49.0448
21
-43.3427
0
LINE
8
Black
10
49.0448
20
-43.3427
11
49.0454
21
-43.3543
0
LINE
8
Black
10
49.0454
20
-43.3543
11
49.0474
21
-43.3657
0
LINE
8
Black
10
49.0474
20
-43.3657
11
49.0474
21
-44.5885
0
LINE
8
Black
10
49.0474
20
-44.5885
11
49.0447
21
-44.6038
0
LINE
8
Black
10
49.0447
20
-44.6038
11
49.0427
21
-44.6192
0
LINE
8
Black
10
49.0427
20
-44.6192
11
49.0417
21
-44.6211
0
LINE
8
Black
10
49.0417
20
-44.6211
11
49.0413
21
-44.6233
0
LINE
8
Black
10
49.0413
20
-44.6233
11
49.0335
21
-44.6367
0
LINE
8
Black
10
49.0335
20
-44.6367
11
49.0264
21
-44.6505
0
LINE
8
Black
10
49.0264
20
-44.6505
11
49.0247
21
-44.6519
0
LINE
8
Black
10
49.0247
20
-44.6519
11
49.0236
21
-44.6539
0
LINE
8
Black
10
49.0236
20
-44.6539
11
49.0118
21
-44.6638
0
LINE
8
Black
10
49.0118
20
-44.6638
11
49.0003
21
-44.6743
0
LINE
8
Black
10
49.0003
20
-44.6743
11
48.9983
21
-44.6751
0
LINE
8
Black
10
48.9983
20
-44.6751
11
48.9966
21
-44.6765
0
LINE
8
Black
10
48.9966
20
-44.6765
11
48.982
21
-44.6818
0
LINE
8
Black
10
48.982
20
-44.6818
11
48.9677
21
-44.6878
0
LINE
8
Black
10
48.9677
20
-44.6878
11
48.9655
21
-44.6878
0
LINE
8
Black
10
48.9655
20
-44.6878
11
48.9634
21
-44.6886
0
LINE
8
Black
10
48.9634
20
-44.6886
11
48.9479
21
-44.6886
0
LINE
8
Black
10
48.9479
20
-44.6886
11
48.9325
21
-44.6893
0
LINE
8
Black
10
48.9325
20
-44.6893
11
48.9304
21
-44.6886
0
LINE
8
Black
10
48.9304
20
-44.6886
11
48.9282
21
-44.6886
0
LINE
8
Black
10
48.9282
20
-44.6886
11
48.9136
21
-44.6833
0
LINE
8
Black
10
48.9136
20
-44.6833
11
48.8988
21
-44.6786
0
LINE
8
Black
10
48.8988
20
-44.6786
11
48.8971
21
-44.6773
0
LINE
8
Black
10
48.8971
20
-44.6773
11
48.895
21
-44.6765
0
LINE
8
Black
10
48.895
20
-44.6765
11
48.8831
21
-44.6666
0
LINE
8
Black
10
48.8831
20
-44.6666
11
48.8708
21
-44.6571
0
LINE
8
Black
10
48.8708
20
-44.6571
11
48.8697
21
-44.6553
0
LINE
8
Black
10
48.8697
20
-44.6553
11
48.868
21
-44.6539
0
LINE
8
Black
10
48.868
20
-44.6539
11
48.8602
21
-44.6404
0
LINE
8
Black
10
48.8602
20
-44.6404
11
48.8519
21
-44.6273
0
LINE
8
Black
10
48.8519
20
-44.6273
11
48.6857
21
-44.2252
0
LINE
8
Black
10
48.6857
20
-44.2252
11
48.4169
21
-43.9559
0
LINE
8
Black
10
48.4169
20
-43.9559
11
48.4128
21
-43.95
0
LINE
8
Black
10
48.4128
20
-43.95
11
48.4076
21
-43.9451
0
LINE
8
Black
10
48.4076
20
-43.9451
11
48.4028
21
-43.9357
0
LINE
8
Black
10
48.4028
20
-43.9357
11
48.3967
21
-43.927
0
LINE
8
Black
10
48.3967
20
-43.927
11
48.3949
21
-43.9201
0
LINE
8
Black
10
48.3949
20
-43.9201
11
48.3916
21
-43.9137
0
LINE
8
Black
10
48.3916
20
-43.9137
11
48.3904
21
-43.9031
0
LINE
8
Black
10
48.3904
20
-43.9031
11
48.3876
21
-43.8929
0
LINE
8
Black
10
48.3876
20
-43.8929
11
48.3883
21
-43.8858
0
LINE
8
Black
10
48.3883
20
-43.8858
11
48.3874
21
-43.8786
0
LINE
8
Black
10
48.3874
20
-43.8786
11
48.3898
21
-43.8683
0
LINE
8
Black
10
48.3898
20
-43.8683
11
48.3907
21
-43.8578
0
LINE
8
Black
10
48.3907
20
-43.8578
11
48.3938
21
-43.8513
0
LINE
8
Black
10
48.3938
20
-43.8513
11
48.3954
21
-43.8443
0
LINE
8
Black
10
48.3954
20
-43.8443
11
48.4727
21
-43.663
0
LINE
8
Black
10
48.4727
20
-43.663
11
48.1496
21
-43.3399
0
LINE
8
Black
10
48.1496
20
-43.3399
11
47.9619
21
-43.4483
0
LINE
8
Black
10
47.9619
20
-43.4483
11
47.5869
21
-43.5144
0
LINE
8
Black
10
47.5869
20
-43.5144
11
47.2119
21
-43.4483
0
LINE
8
Black
10
47.2119
20
-43.4483
11
47.1609
21
-43.4188
0
LINE
8
Black
10
47.1609
20
-43.4188
11
46.7655
21
-43.8141
0
LINE
8
Black
10
46.7655
20
-43.8141
11
46.7785
21
-43.8445
0
LINE
8
Black
10
46.7785
20
-43.8445
11
46.7801
21
-43.8515
0
LINE
8
Black
10
46.7801
20
-43.8515
11
46.7832
21
-43.8581
0
LINE
8
Black
10
46.7832
20
-43.8581
11
46.7841
21
-43.8686
0
LINE
8
Black
10
46.7841
20
-43.8686
11
46.7865
21
-43.8788
0
LINE
8
Black
10
46.7865
20
-43.8788
11
46.7856
21
-43.8861
0
LINE
8
Black
10
46.7856
20
-43.8861
11
46.7863
21
-43.8933
0
LINE
8
Black
10
46.7863
20
-43.8933
11
46.7835
21
-43.9034
0
LINE
8
Black
10
46.7835
20
-43.9034
11
46.7823
21
-43.9139
0
LINE
8
Black
10
46.7823
20
-43.9139
11
46.779
21
-43.9203
0
LINE
8
Black
10
46.779
20
-43.9203
11
46.7771
21
-43.9274
0
LINE
8
Black
10
46.7771
20
-43.9274
11
46.771
21
-43.936
0
LINE
8
Black
10
46.771
20
-43.936
11
46.7663
21
-43.9453
0
LINE
8
Black
10
46.7663
20
-43.9453
11
46.761
21
-43.9503
0
LINE
8
Black
10
46.761
20
-43.9503
11
46.7568
21
-43.9562
0
LINE
8
Black
10
46.7568
20
-43.9562
11
46.5911
21
-44.1217
0
LINE
8
Black
10
46.5911
20
-44.1217
11
46.4894
21
-44.2233
0
LINE
8
Black
10
46.4894
20
-44.2233
11
46.2917
21
-44.6992
0
LINE
8
Black
10
46.2917
20
-44.6992
11
46.2913
21
-45.2145
0
LINE
8
Black
10
46.2913
20
-45.2145
11
46.4881
21
-45.6908
0
LINE
8
Black
10
46.4881
20
-45.6908
11
46.8522
21
-46.0555
0
LINE
8
Black
10
46.8522
20
-46.0555
11
47.3281
21
-46.2532
0
LINE
8
Black
10
47.3281
20
-46.2532
11
47.8434
21
-46.2536
0
LINE
8
Black
10
47.8434
20
-46.2536
11
48.3197
21
-46.0568
0
LINE
8
Black
10
48.3197
20
-46.0568
11
48.6844
21
-45.6927
0
LINE
8
Black
10
48.6844
20
-45.6927
11
48.852
21
-45.2893
0
LINE
8
Black
10
48.852
20
-45.2893
11
48.8603
21
-45.2763
0
LINE
8
Black
10
48.8603
20
-45.2763
11
48.868
21
-45.263
0
LINE
8
Black
10
48.868
20
-45.263
11
48.8697
21
-45.2615
0
LINE
8
Black
10
48.8697
20
-45.2615
11
48.871
21
-45.2596
0
LINE
8
Black
10
48.871
20
-45.2596
11
48.8832
21
-45.2502
0
LINE
8
Black
10
48.8832
20
-45.2502
11
48.895
21
-45.2403
0
LINE
8
Black
10
48.895
20
-45.2403
11
48.8971
21
-45.2395
0
LINE
8
Black
10
48.8971
20
-45.2395
11
48.899
21
-45.2381
0
LINE
8
Black
10
48.899
20
-45.2381
11
48.9137
21
-45.2335
0
LINE
8
Black
10
48.9137
20
-45.2335
11
48.9282
21
-45.2282
0
LINE
8
Black
10
48.9282
20
-45.2282
11
48.9304
21
-45.2282
0
LINE
8
Black
10
48.9304
20
-45.2282
11
48.9326
21
-45.2275
0
LINE
8
Black
10
48.9326
20
-45.2275
11
48.948
21
-45.2282
0
LINE
8
Black
10
48.948
20
-45.2282
11
48.9634
21
-45.2282
0
LINE
8
Black
10
48.9634
20
-45.2282
11
48.9656
21
-45.229
0
LINE
8
Black
10
48.9656
20
-45.229
11
48.9679
21
-45.2291
0
LINE
8
Black
10
48.9679
20
-45.2291
11
48.9821
21
-45.235
0
LINE
8
Black
10
48.9821
20
-45.235
11
48.9966
21
-45.2403
0
LINE
8
Black
10
48.9966
20
-45.2403
11
48.9984
21
-45.2418
0
LINE
8
Black
10
48.9984
20
-45.2418
11
49.0005
21
-45.2426
0
LINE
8
Black
10
49.0005
20
-45.2426
11
49.0118
21
-45.253
0
LINE
8
Black
10
49.0118
20
-45.253
11
49.0236
21
-45.263
0
LINE
8
Black
10
49.0236
20
-45.263
11
49.0248
21
-45.2649
0
LINE
8
Black
10
49.0248
20
-45.2649
11
49.0265
21
-45.2665
0
LINE
8
Black
10
49.0265
20
-45.2665
11
49.0336
21
-45.2802
0
LINE
8
Black
10
49.0336
20
-45.2802
11
49.0413
21
-45.2935
0
LINE
8
Black
10
49.0413
20
-45.2935
11
49.0417
21
-45.2958
0
LINE
8
Black
10
49.0417
20
-45.2958
11
49.0427
21
-45.2978
0
LINE
8
Black
10
49.0427
20
-45.2978
11
49.0447
21
-45.3131
0
LINE
8
Black
10
49.0447
20
-45.3131
11
49.0474
21
-45.3283
0
LINE
8
Black
10
49.0474
20
-45.3283
11
49.0474
21
-49.0903
0
LINE
8
Black
10
49.0474
20
-49.0903
11
49.0454
21
-49.1018
0
LINE
8
Black
10
49.0454
20
-49.1018
11
49.0448
21
-49.1133
0
LINE
8
Black
10
49.0448
20
-49.1133
11
49.0423
21
-49.119
0
LINE
8
Black
10
49.0423
20
-49.119
11
49.0413
21
-49.1251
0
LINE
8
Black
10
49.0413
20
-49.1251
11
49.0355
21
-49.1351
0
LINE
8
Black
10
49.0355
20
-49.1351
11
49.0309
21
-49.1458
0
LINE
8
Black
10
49.0309
20
-49.1458
11
49.0267
21
-49.1503
0
LINE
8
Black
10
49.0267
20
-49.1503
11
49.0236
21
-49.1556
0
LINE
8
Black
10
49.0236
20
-49.1556
11
49.0147
21
-49.1631
0
LINE
8
Black
10
49.0147
20
-49.1631
11
49.0068
21
-49.1716
0
LINE
8
Black
10
49.0068
20
-49.1716
11
49.0013
21
-49.1743
0
LINE
8
Black
10
49.0013
20
-49.1743
11
48.9966
21
-49.1783
0
LINE
8
Black
10
48.9966
20
-49.1783
11
48.9857
21
-49.1823
0
LINE
8
Black
10
48.9857
20
-49.1823
11
48.9753
21
-49.1875
0
LINE
8
Black
10
48.9753
20
-49.1875
11
48.9692
21
-49.1883
0
LINE
8
Black
10
48.9692
20
-49.1883
11
48.9634
21
-49.1904
0
LINE
8
Black
10
48.9634
20
-49.1904
11
48.9518
21
-49.1904
0
LINE
8
Black
10
48.9518
20
-49.1904
11
48.9403
21
-49.1918
0
LINE
8
Black
10
48.9403
20
-49.1918
11
48.9343
21
-49.1904
0
LINE
8
Black
10
48.9343
20
-49.1904
11
48.9282
21
-49.1904
0
LINE
8
Black
10
48.9282
20
-49.1904
11
48.9172
21
-49.1864
0
LINE
8
Black
10
48.9172
20
-49.1864
11
48.9059
21
-49.1838
0
LINE
8
Black
10
48.9059
20
-49.1838
11
48.8319
21
-49.1522
0
LINE
8
Black
10
48.8319
20
-49.1522
11
48.6649
21
-49.3192
0
LINE
8
Black
10
48.6649
20
-49.3192
11
48.5172
21
-49.4669
0
LINE
8
Black
10
48.5172
20
-49.4669
11
48.5364
21
-49.4898
0
LINE
8
Black
10
48.5364
20
-49.4898
11
48.6666
21
-49.8476
0
LINE
8
Black
10
48.6666
20
-49.8476
11
48.6666
21
-50.2284
0
LINE
8
Black
10
48.6666
20
-50.2284
11
48.5364
21
-50.5862
0
LINE
8
Black
10
48.5364
20
-50.5862
11
48.5172
21
-50.6091
0
LINE
8
Black
10
48.5172
20
-50.6091
11
48.8319
21
-50.9238
0
LINE
8
Black
10
48.8319
20
-50.9238
11
48.9059
21
-50.8922
0
LINE
8
Black
10
48.9059
20
-50.8922
11
48.9172
21
-50.8896
0
LINE
8
Black
10
48.9172
20
-50.8896
11
48.9282
21
-50.8856
0
LINE
8
Black
10
48.9282
20
-50.8856
11
48.9343
21
-50.8856
0
LINE
8
Black
10
48.9343
20
-50.8856
11
48.9403
21
-50.8842
0
LINE
8
Black
10
48.9403
20
-50.8842
11
48.9518
21
-50.8856
0
LINE
8
Black
10
48.9518
20
-50.8856
11
48.9634
21
-50.8856
0
LINE
8
Black
10
48.9634
20
-50.8856
11
48.9692
21
-50.8877
0
LINE
8
Black
10
48.9692
20
-50.8877
11
48.9753
21
-50.8885
0
LINE
8
Black
10
48.9753
20
-50.8885
11
48.9857
21
-50.8937
0
LINE
8
Black
10
48.9857
20
-50.8937
11
48.9966
21
-50.8977
0
LINE
8
Black
10
48.9966
20
-50.8977
11
49.0013
21
-50.9017
0
LINE
8
Black
10
49.0013
20
-50.9017
11
49.0068
21
-50.9044
0
LINE
8
Black
10
49.0068
20
-50.9044
11
49.0147
21
-50.9129
0
LINE
8
Black
10
49.0147
20
-50.9129
11
49.0236
21
-50.9204
0
LINE
8
Black
10
49.0236
20
-50.9204
11
49.0267
21
-50.9257
0
LINE
8
Black
10
49.0267
20
-50.9257
11
49.0309
21
-50.9302
0
LINE
8
Black
10
49.0309
20
-50.9302
11
49.0355
21
-50.9409
0
LINE
8
Black
10
49.0355
20
-50.9409
11
49.0413
21
-50.9509
0
LINE
8
Black
10
49.0413
20
-50.9509
11
49.0423
21
-50.957
0
LINE
8
Black
10
49.0423
20
-50.957
11
49.0448
21
-50.9627
0
LINE
8
Black
10
49.0448
20
-50.9627
11
49.0454
21
-50.9743
0
LINE
8
Black
10
49.0454
20
-50.9743
11
49.0474
21
-50.9857
0
LINE
8
Black
10
49.0474
20
-50.9857
11
49.0474
21
-52.2085
0
LINE
8
Black
10
49.0474
20
-52.2085
11
49.0447
21
-52.2238
0
LINE
8
Black
10
49.0447
20
-52.2238
11
49.0427
21
-52.2392
0
LINE
8
Black
10
49.0427
20
-52.2392
11
49.0417
21
-52.2411
0
LINE
8
Black
10
49.0417
20
-52.2411
11
49.0413
21
-52.2433
0
LINE
8
Black
10
49.0413
20
-52.2433
11
49.0335
21
-52.2567
0
LINE
8
Black
10
49.0335
20
-52.2567
11
49.0264
21
-52.2705
0
LINE
8
Black
10
49.0264
20
-52.2705
11
49.0247
21
-52.2719
0
LINE
8
Black
10
49.0247
20
-52.2719
11
49.0236
21
-52.2739
0
LINE
8
Black
10
49.0236
20
-52.2739
11
49.0118
21
-52.2838
0
LINE
8
Black
10
49.0118
20
-52.2838
11
49.0003
21
-52.2943
0
LINE
8
Black
10
49.0003
20
-52.2943
11
48.9983
21
-52.2951
0
LINE
8
Black
10
48.9983
20
-52.2951
11
48.9966
21
-52.2965
0
LINE
8
Black
10
48.9966
20
-52.2965
11
48.982
21
-52.3018
0
LINE
8
Black
10
48.982
20
-52.3018
11
48.9677
21
-52.3078
0
LINE
8
Black
10
48.9677
20
-52.3078
11
48.9655
21
-52.3078
0
LINE
8
Black
10
48.9655
20
-52.3078
11
48.9634
21
-52.3086
0
LINE
8
Black
10
48.9634
20
-52.3086
11
48.9479
21
-52.3086
0
LINE
8
Black
10
48.9479
20
-52.3086
11
48.9325
21
-52.3093
0
LINE
8
Black
10
48.9325
20
-52.3093
11
48.9304
21
-52.3086
0
LINE
8
Black
10
48.9304
20
-52.3086
11
48.9282
21
-52.3086
0
LINE
8
Black
10
48.9282
20
-52.3086
11
48.9136
21
-52.3033
0
LINE
8
Black
10
48.9136
20
-52.3033
11
48.8988
21
-52.2986
0
LINE
8
Black
10
48.8988
20
-52.2986
11
48.8971
21
-52.2973
0
LINE
8
Black
10
48.8971
20
-52.2973
11
48.895
21
-52.2965
0
LINE
8
Black
10
48.895
20
-52.2965
11
48.8831
21
-52.2866
0
LINE
8
Black
10
48.8831
20
-52.2866
11
48.8708
21
-52.2771
0
LINE
8
Black
10
48.8708
20
-52.2771
11
48.8697
21
-52.2753
0
LINE
8
Black
10
48.8697
20
-52.2753
11
48.868
21
-52.2739
0
LINE
8
Black
10
48.868
20
-52.2739
11
48.8602
21
-52.2604
0
LINE
8
Black
10
48.8602
20
-52.2604
11
48.8519
21
-52.2473
0
LINE
8
Black
10
48.8519
20
-52.2473
11
48.6857
21
-51.8452
0
LINE
8
Black
10
48.6857
20
-51.8452
11
48.4169
21
-51.5759
0
LINE
8
Black
10
48.4169
20
-51.5759
11
48.4128
21
-51.57
0
LINE
8
Black
10
48.4128
20
-51.57
11
48.4076
21
-51.5651
0
LINE
8
Black
10
48.4076
20
-51.5651
11
48.4028
21
-51.5557
0
LINE
8
Black
10
48.4028
20
-51.5557
11
48.3967
21
-51.547
0
LINE
8
Black
10
48.3967
20
-51.547
11
48.3949
21
-51.5401
0
LINE
8
Black
10
48.3949
20
-51.5401
11
48.3916
21
-51.5337
0
LINE
8
Black
10
48.3916
20
-51.5337
11
48.3904
21
-51.5231
0
LINE
8
Black
10
48.3904
20
-51.5231
11
48.3876
21
-51.5129
0
LINE
8
Black
10
48.3876
20
-51.5129
11
48.3883
21
-51.5058
0
LINE
8
Black
10
48.3883
20
-51.5058
11
48.3874
21
-51.4986
0
LINE
8
Black
10
48.3874
20
-51.4986
11
48.3898
21
-51.4883
0
LINE
8
Black
10
48.3898
20
-51.4883
11
48.3907
21
-51.4778
0
LINE
8
Black
10
48.3907
20
-51.4778
11
48.3938
21
-51.4713
0
LINE
8
Black
10
48.3938
20
-51.4713
11
48.3954
21
-51.4643
0
LINE
8
Black
10
48.3954
20
-51.4643
11
48.4727
21
-51.283
0
LINE
8
Black
10
48.4727
20
-51.283
11
48.1496
21
-50.9599
0
LINE
8
Black
10
48.1496
20
-50.9599
11
47.9619
21
-51.0683
0
LINE
8
Black
10
47.9619
20
-51.0683
11
47.5869
21
-51.1344
0
LINE
8
Black
10
47.5869
20
-51.1344
11
47.2119
21
-51.0683
0
LINE
8
Black
10
47.2119
20
-51.0683
11
47.1609
21
-51.0388
0
LINE
8
Black
10
47.1609
20
-51.0388
11
46.7655
21
-51.4341
0
LINE
8
Black
10
46.7655
20
-51.4341
11
46.7785
21
-51.4645
0
LINE
8
Black
10
46.7785
20
-51.4645
11
46.7801
21
-51.4715
0
LINE
8
Black
10
46.7801
20
-51.4715
11
46.7832
21
-51.4781
0
LINE
8
Black
10
46.7832
20
-51.4781
11
46.7841
21
-51.4886
0
LINE
8
Black
10
46.7841
20
-51.4886
11
46.7865
21
-51.4988
0
LINE
8
Black
10
46.7865
20
-51.4988
11
46.7856
21
-51.5061
0
LINE
8
Black
10
46.7856
20
-51.5061
11
46.7863
21
-51.5133
0
LINE
8
Black
10
46.7863
20
-51.5133
11
46.7835
21
-51.5234
0
LINE
8
Black
10
46.7835
20
-51.5234
11
46.7823
21
-51.5339
0
LINE
8
Black
10
46.7823
20
-51.5339
11
46.779
21
-51.5403
0
LINE
8
Black
10
46.779
20
-51.5403
11
46.7771
21
-51.5474
0
LINE
8
Black
10
46.7771
20
-51.5474
11
46.771
21
-51.556
0
LINE
8
Black
10
46.771
20
-51.556
11
46.7663
21
-51.5653
0
LINE
8
Black
10
46.7663
20
-51.5653
11
46.761
21
-51.5703
0
LINE
8
Black
10
46.761
20
-51.5703
11
46.7568
21
-51.5762
0
LINE
8
Black
10
46.7568
20
-51.5762
11
46.5911
21
-51.7417
0
LINE
8
Black
10
46.5911
20
-51.7417
11
46.4894
21
-51.8433
0
LINE
8
Black
10
46.4894
20
-51.8433
11
46.2917
21
-52.3192
0
LINE
8
Black
10
46.2917
20
-52.3192
11
46.2913
21
-52.8345
0
LINE
8
Black
10
46.2913
20
-52.8345
11
46.4881
21
-53.3108
0
LINE
8
Black
10
46.4881
20
-53.3108
11
46.8522
21
-53.6755
0
LINE
8
Black
10
46.8522
20
-53.6755
11
47.3281
21
-53.8732
0
LINE
8
Black
10
47.3281
20
-53.8732
11
47.8434
21
-53.8736
0
LINE
8
Black
10
47.8434
20
-53.8736
11
48.3197
21
-53.6768
0
LINE
8
Black
10
48.3197
20
-53.6768
11
48.6844
21
-53.3127
0
LINE
8
Black
10
48.6844
20
-53.3127
11
48.852
21
-52.9093
0
LINE
8
Black
10
48.852
20
-52.9093
11
48.8603
21
-52.8963
0
LINE
8
Black
10
48.8603
20
-52.8963
11
48.868
21
-52.883
0
LINE
8
Black
10
48.868
20
-52.883
11
48.8697
21
-52.8815
0
LINE
8
Black
10
48.8697
20
-52.8815
11
48.871
21
-52.8796
0
LINE
8
Black
10
48.871
20
-52.8796
11
48.8832
21
-52.8702
0
LINE
8
Black
10
48.8832
20
-52.8702
11
48.895
21
-52.8603
0
LINE
8
Black
10
48.895
20
-52.8603
11
48.8971
21
-52.8595
0
LINE
8
Black
10
48.8971
20
-52.8595
11
48.899
21
-52.8581
0
LINE
8
Black
10
48.899
20
-52.8581
11
48.9137
21
-52.8535
0
LINE
8
Black
10
48.9137
20
-52.8535
11
48.9282
21
-52.8482
0
LINE
8
Black
10
48.9282
20
-52.8482
11
48.9304
21
-52.8482
0
LINE
8
Black
10
48.9304
20
-52.8482
11
48.9326
21
-52.8475
0
LINE
8
Black
10
48.9326
20
-52.8475
11
48.948
21
-52.8482
0
LINE
8
Black
10
48.948
20
-52.8482
11
48.9634
21
-52.8482
0
LINE
8
Black
10
48.9634
20
-52.8482
11
48.9656
21
-52.849
0
LINE
8
Black
10
48.9656
20
-52.849
11
48.9679
21
-52.8491
0
LINE
8
Black
10
48.9679
20
-52.8491
11
48.9821
21
-52.855
0
LINE
8
Black
10
48.9821
20
-52.855
11
48.9966
21
-52.8603
0
LINE
8
Black
10
48.9966
20
-52.8603
11
48.9984
21
-52.8618
0
LINE
8
Black
10
48.9984
20
-52.8618
11
49.0005
21
-52.8626
0
LINE
8
Black
10
49.0005
20
-52.8626
11
49.0118
21
-52.873
0
LINE
8
Black
10
49.0118
20
-52.873
11
49.0236
21
-52.883
0
LINE
8
Black
10
49.0236
20
-52.883
11
49.0248
21
-52.8849
0
LINE
8
Black
10
49.0248
20
-52.8849
11
49.0265
21
-52.8865
0
LINE
8
Black
10
49.0265
20
-52.8865
11
49.0336
21
-52.9002
0
LINE
8
Black
10
49.0336
20
-52.9002
11
49.0413
21
-52.9135
0
LINE
8
Black
10
49.0413
20
-52.9135
11
49.0417
21
-52.9158
0
LINE
8
Black
10
49.0417
20
-52.9158
11
49.0427
21
-52.9178
0
LINE
8
Black
10
49.0427
20
-52.9178
11
49.0447
21
-52.9331
0
LINE
8
Black
10
49.0447
20
-52.9331
11
49.0474
21
-52.9483
0
LINE
8
Black
10
49.0474
20
-52.9483
11
49.0474
21
-56.7103
0
LINE
8
Black
10
49.0474
20
-56.7103
11
49.0454
21
-56.7218
0
LINE
8
Black
10
49.0454
20
-56.7218
11
49.0448
21
-56.7333
0
LINE
8
Black
10
49.0448
20
-56.7333
11
49.0423
21
-56.739
0
LINE
8
Black
10
49.0423
20
-56.739
11
49.0413
21
-56.7451
0
LINE
8
Black
10
49.0413
20
-56.7451
11
49.0355
21
-56.7551
0
LINE
8
Black
10
49.0355
20
-56.7551
11
49.0309
21
-56.7658
0
LINE
8
Black
10
49.0309
20
-56.7658
11
49.0267
21
-56.7703
0
LINE
8
Black
10
49.0267
20
-56.7703
11
49.0236
21
-56.7756
0
LINE
8
Black
10
49.0236
20
-56.7756
11
49.0147
21
-56.7831
0
LINE
8
Black
10
49.0147
20
-56.7831
11
49.0068
21
-56.7916
0
LINE
8
Black
10
49.0068
20
-56.7916
11
49.0013
21
-56.7943
0
LINE
8
Black
10
49.0013
20
-56.7943
11
48.9966
21
-56.7983
0
LINE
8
Black
10
48.9966
20
-56.7983
11
48.9857
21
-56.8023
0
LINE
8
Black
10
48.9857
20
-56.8023
11
48.9753
21
-56.8075
0
LINE
8
Black
10
48.9753
20
-56.8075
11
48.9692
21
-56.8083
0
LINE
8
Black
10
48.9692
20
-56.8083
11
48.9634
21
-56.8104
0
LINE
8
Black
10
48.9634
20
-56.8104
11
48.9518
21
-56.8104
0
LINE
8
Black
10
48.9518
20
-56.8104
11
48.9403
21
-56.8118
0
LINE
8
Black
10
48.9403
20
-56.8118
11
48.9343
21
-56.8104
0
LINE
8
Black
10
48.9343
20
-56.8104
11
48.9282
21
-56.8104
0
LINE
8
Black
10
48.9282
20
-56.8104
11
48.9172
21
-56.8064
0
LINE
8
Black
10
48.9172
20
-56.8064
11
48.9059
21
-56.8038
0
LINE
8
Black
10
48.9059
20
-56.8038
11
48.8319
21
-56.7722
0
LINE
8
Black
10
48.8319
20
-56.7722
11
48.6649
21
-56.9392
0
LINE
8
Black
10
48.6649
20
-56.9392
11
48.5172
21
-57.0869
0
LINE
8
Black
10
48.5172
20
-57.0869
11
48.5364
21
-57.1098
0
LINE
8
Black
10
48.5364
20
-57.1098
11
48.6666
21
-57.4676
0
LINE
8
Black
10
48.6666
20
-57.4676
11
48.6666
21
-57.8484
0
LINE
8
Black
10
48.6666
20
-57.8484
11
48.5364
21
-58.2062
0
LINE
8
Black
10
48.5364
20
-58.2062
11
48.5172
21
-58.2291
0
LINE
8
Black
10
48.5172
20
-58.2291
11
48.8319
21
-58.5438
0
LINE
8
Black
10
48.8319
20
-58.5438
11
48.9059
21
-58.5122
0
LINE
8
Black
10
48.9059
20
-58.5122
11
48.9172
21
-58.5096
0
LINE
8
Black
10
48.9172
20
-58.5096
11
48.9282
21
-58.5056
0
LINE
8
Black
10
48.9282
20
-58.5056
11
48.9343
21
-58.5056
0
LINE
8
Black
10
48.9343
20
-58.5056
11
48.9403
21
-58.5042
0
LINE
8
Black
10
48.9403
20
-58.5042
11
48.9518
21
-58.5056
0
LINE
8
Black
10
48.9518
20
-58.5056
11
48.9634
21
-58.5056
0
LINE
8
Black
10
48.9634
20
-58.5056
11
48.9692
21
-58.5077
0
LINE
8
Black
10
48.9692
20
-58.5077
11
48.9753
21
-58.5085
0
LINE
8
Black
10
48.9753
20
-58.5085
11
48.9857
21
-58.5137
0
LINE
8
Black
10
48.9857
20
-58.5137
11
48.9966
21
-58.5177
0
LINE
8
Black
10
48.9966
20
-58.5177
11
49.0013
21
-58.5217
0
LINE
8
Black
10
49.0013
20
-58.5217
11
49.0068
21
-58.5244
0
LINE
8
Black
10
49.0068
20
-58.5244
11
49.0147
21
-58.5329
0
LINE
8
Black
10
49.0147
20
-58.5329
11
49.0236
21
-58.5404
0
LINE
8
Black
10
49.0236
20
-58.5404
11
49.0267
21
-58.5457
0
LINE
8
Black
10
49.0267
20
-58.5457
11
49.0309
21
-58.5502
0
LINE
8
Black
10
49.0309
20
-58.5502
11
49.0355
21
-58.5609
0
LINE
8
Black
10
49.0355
20
-58.5609
11
49.0413
21
-58.5709
0
LINE
8
Black
10
49.0413
20
-58.5709
11
49.0423
21
-58.577
0
LINE
8
Black
10
49.0423
20
-58.577
11
49.0448
21
-58.5827
0
LINE
8
Black
10
49.0448
20
-58.5827
11
49.0454
21
-58.5943
0
LINE
8
Black
10
49.0454
20
-58.5943
11
49.0474
21
-58.6057
0
LINE
8
Black
10
49.0474
20
-58.6057
11
49.0474
21
-59.8285
0
LINE
8
Black
10
49.0474
20
-59.8285
11
49.0447
21
-59.8438
0
LINE
8
Black
10
49.0447
20
-59.8438
11
49.0427
21
-59.8592
0
LINE
8
Black
10
49.0427
20
-59.8592
11
49.0417
21
-59.8611
0
LINE
8
Black
10
49.0417
20
-59.8611
11
49.0413
21
-59.8633
0
LINE
8
Black
10
49.0413
20
-59.8633
11
49.0335
21
-59.8767
0
LINE
8
Black
10
49.0335
20
-59.8767
11
49.0264
21
-59.8905
0
LINE
8
Black
10
49.0264
20
-59.8905
11
49.0247
21
-59.8919
0
LINE
8
Black
10
49.0247
20
-59.8919
11
49.0236
21
-59.8939
0
LINE
8
Black
10
49.0236
20
-59.8939
11
49.0118
21
-59.9038
0
LINE
8
Black
10
49.0118
20
-59.9038
11
49.0003
21
-59.9143
0
LINE
8
Black
10
49.0003
20
-59.9143
11
48.9983
21
-59.9151
0
LINE
8
Black
10
48.9983
20
-59.9151
11
48.9966
21
-59.9165
0
LINE
8
Black
10
48.9966
20
-59.9165
11
48.982
21
-59.9218
0
LINE
8
Black
10
48.982
20
-59.9218
11
48.9677
21
-59.9278
0
LINE
8
Black
10
48.9677
20
-59.9278
11
48.9655
21
-59.9278
0
LINE
8
Black
10
48.9655
20
-59.9278
11
48.9634
21
-59.9286
0
LINE
8
Black
10
48.9634
20
-59.9286
11
48.9479
21
-59.9286
0
LINE
8
Black
10
48.9479
20
-59.9286
11
48.9325
21
-59.9293
0
LINE
8
Black
10
48.9325
20
-59.9293
11
48.9304
21
-59.9286
0
LINE
8
Black
10
48.9304
20
-59.9286
11
48.9282
21
-59.9286
0
LINE
8
Black
10
48.9282
20
-59.9286
11
48.9136
21
-59.9233
0
LINE
8
Black
10
48.9136
20
-59.9233
11
48.8988
21
-59.9186
0
LINE
8
Black
10
48.8988
20
-59.9186
11
48.8971
21
-59.9173
0
LINE
8
Black
10
48.8971
20
-59.9173
11
48.895
21
-59.9165
0
LINE
8
Black
10
48.895
20
-59.9165
11
48.8831
21
-59.9066
0
LINE
8
Black
10
48.8831
20
-59.9066
11
48.8708
21
-59.8971
0
LINE
8
Black
10
48.8708
20
-59.8971
11
48.8697
21
-59.8953
0
LINE
8
Black
10
48.8697
20
-59.8953
11
48.868
21
-59.8939
0
LINE
8
Black
10
48.868
20
-59.8939
11
48.8602
21
-59.8804
0
LINE
8
Black
10
48.8602
20
-59.8804
11
48.8519
21
-59.8673
0
LINE
8
Black
10
48.8519
20
-59.8673
11
48.6857
21
-59.4652
0
LINE
8
Black
10
48.6857
20
-59.4652
11
48.4169
21
-59.1959
0
LINE
8
Black
10
48.4169
20
-59.1959
11
48.4128
21
-59.19
0
LINE
8
Black
10
48.4128
20
-59.19
11
48.4076
21
-59.1851
0
LINE
8
Black
10
48.4076
20
-59.1851
11
48.4028
21
-59.1757
0
LINE
8
Black
10
48.4028
20
-59.1757
11
48.3967
21
-59.167
0
LINE
8
Black
10
48.3967
20
-59.167
11
48.3949
21
-59.1601
0
LINE
8
Black
10
48.3949
20
-59.1601
11
48.3916
21
-59.1537
0
LINE
8
Black
10
48.3916
20
-59.1537
11
48.3904
21
-59.1431
0
LINE
8
Black
10
48.3904
20
-59.1431
11
48.3876
21
-59.1329
0
LINE
8
Black
10
48.3876
20
-59.1329
11
48.3883
21
-59.1258
0
LINE
8
Black
10
48.3883
20
-59.1258
11
48.3874
21
-59.1186
0
LINE
8
Black
10
48.3874
20
-59.1186
11
48.3898
21
-59.1083
0
LINE
8
Black
10
48.3898
20
-59.1083
11
48.3907
21
-59.0978
0
LINE
8
Black
10
48.3907
20
-59.0978
11
48.3938
21
-59.0913
0
LINE
8
Black
10
48.3938
20
-59.0913
11
48.3954
21
-59.0843
0
LINE
8
Black
10
48.3954
20
-59.0843
11
48.4727
21
-58.903
0
LINE
8
Black
10
48.4727
20
-58.903
11
48.1496
21
-58.5799
0
LINE
8
Black
10
48.1496
20
-58.5799
11
47.9619
21
-58.6883
0
LINE
8
Black
10
47.9619
20
-58.6883
11
47.5869
21
-58.7544
0
LINE
8
Black
10
47.5869
20
-58.7544
11
47.2119
21
-58.6883
0
LINE
8
Black
10
47.2119
20
-58.6883
11
47.1609
21
-58.6588
0
LINE
8
Black
10
47.1609
20
-58.6588
11
46.7655
21
-59.0541
0
LINE
8
Black
10
46.7655
20
-59.0541
11
46.7785
21
-59.0845
0
LINE
8
Black
10
46.7785
20
-59.0845
11
46.7801
21
-59.0915
0
LINE
8
Black
10
46.7801
20
-59.0915
11
46.7832
21
-59.0981
0
LINE
8
Black
10
46.7832
20
-59.0981
11
46.7841
21
-59.1086
0
LINE
8
Black
10
46.7841
20
-59.1086
11
46.7865
21
-59.1188
0
LINE
8
Black
10
46.7865
20
-59.1188
11
46.7856
21
-59.1261
0
LINE
8
Black
10
46.7856
20
-59.1261
11
46.7863
21
-59.1333
0
LINE
8
Black
10
46.7863
20
-59.1333
11
46.7835
21
-59.1434
0
LINE
8
Black
10
46.7835
20
-59.1434
11
46.7823
21
-59.1539
0
LINE
8
Black
10
46.7823
20
-59.1539
11
46.779
21
-59.1603
0
LINE
8
Black
10
46.779
20
-59.1603
11
46.7771
21
-59.1674
0
LINE
8
Black
10
46.7771
20
-59.1674
11
46.771
21
-59.176
0
LINE
8
Black
10
46.771
20
-59.176
11
46.7663
21
-59.1853
0
LINE
8
Black
10
46.7663
20
-59.1853
11
46.761
21
-59.1903
0
LINE
8
Black
10
46.761
20
-59.1903
11
46.7568
21
-59.1962
0
LINE
8
Black
10
46.7568
20
-59.1962
11
46.5911
21
-59.3617
0
LINE
8
Black
10
46.5911
20
-59.3617
11
46.4894
21
-59.4633
0
LINE
8
Black
10
46.4894
20
-59.4633
11
46.2917
21
-59.9392
0
LINE
8
Black
10
46.2917
20
-59.9392
11
46.2913
21
-60.4545
0
LINE
8
Black
10
46.2913
20
-60.4545
11
46.4881
21
-60.9308
0
LINE
8
Black
10
46.4881
20
-60.9308
11
46.8522
21
-61.2955
0
LINE
8
Black
10
46.8522
20
-61.2955
11
47.3281
21
-61.4932
0
LINE
8
Black
10
47.3281
20
-61.4932
11
47.8434
21
-61.4936
0
LINE
8
Black
10
47.8434
20
-61.4936
11
48.3197
21
-61.2968
0
LINE
8
Black
10
48.3197
20
-61.2968
11
48.6844
21
-60.9327
0
LINE
8
Black
10
48.6844
20
-60.9327
11
48.852
21
-60.5293
0
LINE
8
Black
10
48.852
20
-60.5293
11
48.8603
21
-60.5163
0
LINE
8
Black
10
48.8603
20
-60.5163
11
48.868
21
-60.503
0
LINE
8
Black
10
48.868
20
-60.503
11
48.8697
21
-60.5015
0
LINE
8
Black
10
48.8697
20
-60.5015
11
48.871
21
-60.4996
0
LINE
8
Black
10
48.871
20
-60.4996
11
48.8832
21
-60.4902
0
LINE
8
Black
10
48.8832
20
-60.4902
11
48.895
21
-60.4803
0
LINE
8
Black
10
48.895
20
-60.4803
11
48.8971
21
-60.4795
0
LINE
8
Black
10
48.8971
20
-60.4795
11
48.899
21
-60.4781
0
LINE
8
Black
10
48.899
20
-60.4781
11
48.9137
21
-60.4735
0
LINE
8
Black
10
48.9137
20
-60.4735
11
48.9282
21
-60.4682
0
LINE
8
Black
10
48.9282
20
-60.4682
11
48.9304
21
-60.4682
0
LINE
8
Black
10
48.9304
20
-60.4682
11
48.9326
21
-60.4675
0
LINE
8
Black
10
48.9326
20
-60.4675
11
48.948
21
-60.4682
0
LINE
8
Black
10
48.948
20
-60.4682
11
48.9634
21
-60.4682
0
LINE
8
Black
10
48.9634
20
-60.4682
11
48.9656
21
-60.469
0
LINE
8
Black
10
48.9656
20
-60.469
11
48.9679
21
-60.4691
0
LINE
8
Black
10
48.9679
20
-60.4691
11
48.9821
21
-60.475
0
LINE
8
Black
10
48.9821
20
-60.475
11
48.9966
21
-60.4803
0
LINE
8
Black
10
48.9966
20
-60.4803
11
48.9984
21
-60.4818
0
LINE
8
Black
10
48.9984
20
-60.4818
11
49.0005
21
-60.4826
0
LINE
8
Black
10
49.0005
20
-60.4826
11
49.0118
21
-60.493
0
LINE
8
Black
10
49.0118
20
-60.493
11
49.0236
21
-60.503
0
LINE
8
Black
10
49.0236
20
-60.503
11
49.0248
21
-60.5049
0
LINE
8
Black
10
49.0248
20
-60.5049
11
49.0265
21
-60.5065
0
LINE
8
Black
10
49.0265
20
-60.5065
11
49.0336
21
-60.5202
0
LINE
8
Black
10
49.0336
20
-60.5202
11
49.0413
21
-60.5335
0
LINE
8
Black
10
49.0413
20
-60.5335
11
49.0417
21
-60.5358
0
LINE
8
Black
10
49.0417
20
-60.5358
11
49.0427
21
-60.5378
0
LINE
8
Black
10
49.0427
20
-60.5378
11
49.0447
21
-60.5531
0
LINE
8
Black
10
49.0447
20
-60.5531
11
49.0474
21
-60.5683
0
LINE
8
Black
10
49.0474
20
-60.5683
11
49.0474
21
-64.3303
0
LINE
8
Black
10
49.0474
20
-64.3303
11
49.0454
21
-64.3418
0
LINE
8
Black
10
49.0454
20
-64.3418
11
49.0448
21
-64.3533
0
LINE
8
Black
10
49.0448
20
-64.3533
11
49.0423
21
-64.359
0
LINE
8
Black
10
49.0423
20
-64.359
11
49.0413
21
-64.3651
0
LINE
8
Black
10
49.0413
20
-64.3651
11
49.0355
21
-64.3751
0
LINE
8
Black
10
49.0355
20
-64.3751
11
49.0309
21
-64.3858
0
LINE
8
Black
10
49.0309
20
-64.3858
11
49.0267
21
-64.3903
0
LINE
8
Black
10
49.0267
20
-64.3903
11
49.0236
21
-64.3956
0
LINE
8
Black
10
49.0236
20
-64.3956
11
49.0147
21
-64.4031
0
LINE
8
Black
10
49.0147
20
-64.4031
11
49.0068
21
-64.4116
0
LINE
8
Black
10
49.0068
20
-64.4116
11
49.0013
21
-64.4143
0
LINE
8
Black
10
49.0013
20
-64.4143
11
48.9966
21
-64.4183
0
LINE
8
Black
10
48.9966
20
-64.4183
11
48.9857
21
-64.4223
0
LINE
8
Black
10
48.9857
20
-64.4223
11
48.9753
21
-64.4275
0
LINE
8
Black
10
48.9753
20
-64.4275
11
48.9692
21
-64.4283
0
LINE
8
Black
10
48.9692
20
-64.4283
11
48.9634
21
-64.4304
0
LINE
8
Black
10
48.9634
20
-64.4304
11
48.9518
21
-64.4304
0
LINE
8
Black
10
48.9518
20
-64.4304
11
48.9403
21
-64.4318
0
LINE
8
Black
10
48.9403
20
-64.4318
11
48.9343
21
-64.4304
0
LINE
8
Black
10
48.9343
20
-64.4304
11
48.9282
21
-64.4304
0
LINE
8
Black
10
48.9282
20
-64.4304
11
48.9172
21
-64.4264
0
LINE
8
Black
10
48.9172
20
-64.4264
11
48.9059
21
-64.4238
0
LINE
8
Black
10
48.9059
20
-64.4238
11
48.8319
21
-64.3922
0
LINE
8
Black
10
48.8319
20
-64.3922
11
48.6649
21
-64.5592
0
LINE
8
Black
10
48.6649
20
-64.5592
11
48.5172
21
-64.7069
0
LINE
8
Black
10
48.5172
20
-64.7069
11
48.5364
21
-64.7298
0
LINE
8
Black
10
48.5364
20
-64.7298
11
48.6666
21
-65.0876
0
LINE
8
Black
10
48.6666
20
-65.0876
11
48.6666
21
-65.4684
0
LINE
8
Black
10
48.6666
20
-65.4684
11
48.5364
21
-65.8262
0
LINE
8
Black
10
48.5364
20
-65.8262
11
48.5172
21
-65.8491
0
LINE
8
Black
10
48.5172
20
-65.8491
11
48.8319
21
-66.1638
0
LINE
8
Black
10
48.8319
20
-66.1638
11
48.9059
21
-66.1322
0
LINE
8
Black
10
48.9059
20
-66.1322
11
48.9172
21
-66.1296
0
LINE
8
Black
10
48.9172
20
-66.1296
11
48.9282
21
-66.1256
0
LINE
8
Black
10
48.9282
20
-66.1256
11
48.9343
21
-66.1256
0
LINE
8
Black
10
48.9343
20
-66.1256
11
48.9403
21
-66.1242
0
LINE
8
Black
10
48.9403
20
-66.1242
11
48.9518
21
-66.1256
0
LINE
8
Black
10
48.9518
20
-66.1256
11
48.9634
21
-66.1256
0
LINE
8
Black
10
48.9634
20
-66.1256
11
48.9692
21
-66.1277
0
LINE
8
Black
10
48.9692
20
-66.1277
11
48.9753
21
-66.1285
0
LINE
8
Black
10
48.9753
20
-66.1285
11
48.9857
21
-66.1337
0
LINE
8
Black
10
48.9857
20
-66.1337
11
48.9966
21
-66.1377
0
LINE
8
Black
10
48.9966
20
-66.1377
11
49.0013
21
-66.1417
0
LINE
8
Black
10
49.0013
20
-66.1417
11
49.0068
21
-66.1444
0
LINE
8
Black
10
49.0068
20
-66.1444
11
49.0147
21
-66.1529
0
LINE
8
Black
10
49.0147
20
-66.1529
11
49.0236
21
-66.1604
0
LINE
8
Black
10
49.0236
20
-66.1604
11
49.0267
21
-66.1657
0
LINE
8
Black
10
49.0267
20
-66.1657
11
49.0309
21
-66.1702
0
LINE
8
Black
10
49.0309
20
-66.1702
11
49.0355
21
-66.1809
0
LINE
8
Black
10
49.0355
20
-66.1809
11
49.0413
21
-66.1909
0
LINE
8
Black
10
49.0413
20
-66.1909
11
49.0423
21
-66.197
0
LINE
8
Black
10
49.0423
20
-66.197
11
49.0448
21
-66.2027
0
LINE
8
Black
10
49.0448
20
-66.2027
11
49.0454
21
-66.2143
0
LINE
8
Black
10
49.0454
20
-66.2143
11
49.0474
21
-66.2257
0
LINE
8
Black
10
49.0474
20
-66.2257
11
49.0474
21
-67.4485
0
LINE
8
Black
10
49.0474
20
-67.4485
11
49.0447
21
-67.4638
0
LINE
8
Black
10
49.0447
20
-67.4638
11
49.0427
21
-67.4792
0
LINE
8
Black
10
49.0427
20
-67.4792
11
49.0417
21
-67.4811
0
LINE
8
Black
10
49.0417
20
-67.4811
11
49.0413
21
-67.4833
0
LINE
8
Black
10
49.0413
20
-67.4833
11
49.0335
21
-67.4967
0
LINE
8
Black
10
49.0335
20
-67.4967
11
49.0264
21
-67.5105
0
LINE
8
Black
10
49.0264
20
-67.5105
11
49.0247
21
-67.5119
0
LINE
8
Black
10
49.0247
20
-67.5119
11
49.0236
21
-67.5139
0
LINE
8
Black
10
49.0236
20
-67.5139
11
49.0118
21
-67.5238
0
LINE
8
Black
10
49.0118
20
-67.5238
11
49.0003
21
-67.5343
0
LINE
8
Black
10
49.0003
20
-67.5343
11
48.9983
21
-67.5351
0
LINE
8
Black
10
48.9983
20
-67.5351
11
48.9966
21
-67.5365
0
LINE
8
Black
10
48.9966
20
-67.5365
11
48.982
21
-67.5418
0
LINE
8
Black
10
48.982
20
-67.5418
11
48.9677
21
-67.5478
0
LINE
8
Black
10
48.9677
20
-67.5478
11
48.9655
21
-67.5478
0
LINE
8
Black
10
48.9655
20
-67.5478
11
48.9634
21
-67.5486
0
LINE
8
Black
10
48.9634
20
-67.5486
11
48.9479
21
-67.5486
0
LINE
8
Black
10
48.9479
20
-67.5486
11
48.9325
21
-67.5493
0
LINE
8
Black
10
48.9325
20
-67.5493
11
48.9304
21
-67.5486
0
LINE
8
Black
10
48.9304
20
-67.5486
11
48.9282
21
-67.5486
0
LINE
8
Black
10
48.9282
20
-67.5486
11
48.9136
21
-67.5433
0
LINE
8
Black
10
48.9136
20
-67.5433
11
48.8988
21
-67.5386
0
LINE
8
Black
10
48.8988
20
-67.5386
11
48.8971
21
-67.5373
0
LINE
8
Black
10
48.8971
20
-67.5373
11
48.895
21
-67.5365
0
LINE
8
Black
10
48.895
20
-67.5365
11
48.8831
21
-67.5266
0
LINE
8
Black
10
48.8831
20
-67.5266
11
48.8708
21
-67.5171
0
LINE
8
Black
10
48.8708
20
-67.5171
11
48.8697
21
-67.5153
0
LINE
8
Black
10
48.8697
20
-67.5153
11
48.868
21
-67.5139
0
LINE
8
Black
10
48.868
20
-67.5139
11
48.8602
21
-67.5004
0
LINE
8
Black
10
48.8602
20
-67.5004
11
48.8519
21
-67.4873
0
LINE
8
Black
10
48.8519
20
-67.4873
11
48.6857
21
-67.0852
0
LINE
8
Black
10
48.6857
20
-67.0852
11
48.4169
21
-66.8159
0
LINE
8
Black
10
48.4169
20
-66.8159
11
48.4128
21
-66.81
0
LINE
8
Black
10
48.4128
20
-66.81
11
48.4076
21
-66.8051
0
LINE
8
Black
10
48.4076
20
-66.8051
11
48.4028
21
-66.7957
0
LINE
8
Black
10
48.4028
20
-66.7957
11
48.3967
21
-66.787
0
LINE
8
Black
10
48.3967
20
-66.787
11
48.3949
21
-66.7801
0
LINE
8
Black
10
48.3949
20
-66.7801
11
48.3916
21
-66.7737
0
LINE
8
Black
10
48.3916
20
-66.7737
11
48.3904
21
-66.7631
0
LINE
8
Black
10
48.3904
20
-66.7631
11
48.3876
21
-66.7529
0
LINE
8
Black
10
48.3876
20
-66.7529
11
48.3883
21
-66.7458
0
LINE
8
Black
10
48.3883
20
-66.7458
11
48.3874
21
-66.7386
0
LINE
8
Black
10
48.3874
20
-66.7386
11
48.3898
21
-66.7283
0
LINE
8
Black
10
48.3898
20
-66.7283
11
48.3907
21
-66.7178
0
LINE
8
Black
10
48.3907
20
-66.7178
11
48.3938
21
-66.7113
0
LINE
8
Black
10
48.3938
20
-66.7113
11
48.3954
21
-66.7043
0
LINE
8
Black
10
48.3954
20
-66.7043
11
48.4727
21
-66.523
0
LINE
8
Black
10
48.4727
20
-66.523
11
48.1496
21
-66.1999
0
LINE
8
Black
10
48.1496
20
-66.1999
11
47.9619
21
-66.3083
0
LINE
8
Black
10
47.9619
20
-66.3083
11
47.5869
21
-66.3744
0
LINE
8
Black
10
47.5869
20
-66.3744
11
47.2119
21
-66.3083
0
LINE
8
Black
10
47.2119
20
-66.3083
11
47.1609
21
-66.2788
0
LINE
8
Black
10
47.1609
20
-66.2788
11
46.7655
21
-66.6741
0
LINE
8
Black
10
46.7655
20
-66.6741
11
46.7785
21
-66.7045
0
LINE
8
Black
10
46.7785
20
-66.7045
11
46.7801
21
-66.7115
0
LINE
8
Black
10
46.7801
20
-66.7115
11
46.7832
21
-66.7181
0
LINE
8
Black
10
46.7832
20
-66.7181
11
46.7841
21
-66.7286
0
LINE
8
Black
10
46.7841
20
-66.7286
11
46.7865
21
-66.7388
0
LINE
8
Black
10
46.7865
20
-66.7388
11
46.7856
21
-66.7461
0
LINE
8
Black
10
46.7856
20
-66.7461
11
46.7863
21
-66.7533
0
LINE
8
Black
10
46.7863
20
-66.7533
11
46.7835
21
-66.7634
0
LINE
8
Black
10
46.7835
20
-66.7634
11
46.7823
21
-66.7739
0
LINE
8
Black
10
46.7823
20
-66.7739
11
46.779
21
-66.7803
0
LINE
8
Black
10
46.779
20
-66.7803
11
46.7771
21
-66.7874
0
LINE
8
Black
10
46.7771
20
-66.7874
11
46.771
21
-66.796
0
LINE
8
Black
10
46.771
20
-66.796
11
46.7663
21
-66.8053
0
LINE
8
Black
10
46.7663
20
-66.8053
11
46.761
21
-66.8103
0
LINE
8
Black
10
46.761
20
-66.8103
11
46.7568
21
-66.8162
0
LINE
8
Black
10
46.7568
20
-66.8162
11
46.5911
21
-66.9817
0
LINE
8
Black
10
46.5911
20
-66.9817
11
46.4894
21
-67.0833
0
LINE
8
Black
10
46.4894
20
-67.0833
11
46.2917
21
-67.5592
0
LINE
8
Black
10
46.2917
20
-67.5592
11
46.2913
21
-68.0745
0
LINE
8
Black
10
46.2913
20
-68.0745
11
46.4881
21
-68.5508
0
LINE
8
Black
10
46.4881
20
-68.5508
11
46.8522
21
-68.9155
0
LINE
8
Black
10
46.8522
20
-68.9155
11
47.3281
21
-69.1132
0
LINE
8
Black
10
47.3281
20
-69.1132
11
47.8434
21
-69.1136
0
LINE
8
Black
10
47.8434
20
-69.1136
11
48.3197
21
-68.9168
0
LINE
8
Black
10
48.3197
20
-68.9168
11
48.6844
21
-68.5527
0
LINE
8
Black
10
48.6844
20
-68.5527
11
48.852
21
-68.1493
0
LINE
8
Black
10
48.852
20
-68.1493
11
48.8603
21
-68.1363
0
LINE
8
Black
10
48.8603
20
-68.1363
11
48.868
21
-68.123
0
LINE
8
Black
10
48.868
20
-68.123
11
48.8697
21
-68.1215
0
LINE
8
Black
10
48.8697
20
-68.1215
11
48.871
21
-68.1196
0
LINE
8
Black
10
48.871
20
-68.1196
11
48.8832
21
-68.1102
0
LINE
8
Black
10
48.8832
20
-68.1102
11
48.895
21
-68.1003
0
LINE
8
Black
10
48.895
20
-68.1003
11
48.8971
21
-68.0995
0
LINE
8
Black
10
48.8971
20
-68.0995
11
48.899
21
-68.0981
0
LINE
8
Black
10
48.899
20
-68.0981
11
48.9137
21
-68.0935
0
LINE
8
Black
10
48.9137
20
-68.0935
11
48.9282
21
-68.0882
0
LINE
8
Black
10
48.9282
20
-68.0882
11
48.9304
21
-68.0882
0
LINE
8
Black
10
48.9304
20
-68.0882
11
48.9326
21
-68.0875
0
LINE
8
Black
10
48.9326
20
-68.0875
11
48.948
21
-68.0882
0
LINE
8
Black
10
48.948
20
-68.0882
11
48.9634
21
-68.0882
0
LINE
8
Black
10
48.9634
20
-68.0882
11
48.9656
21
-68.089
0
LINE
8
Black
10
48.9656
20
-68.089
11
48.9679
21
-68.0891
0
LINE
8
Black
10
48.9679
20
-68.0891
11
48.9821
21
-68.095
0
LINE
8
Black
10
48.9821
20
-68.095
11
48.9966
21
-68.1003
0
LINE
8
Black
10
48.9966
20
-68.1003
11
48.9984
21
-68.1018
0
LINE
8
Black
10
48.9984
20
-68.1018
11
49.0005
21
-68.1026
0
LINE
8
Black
10
49.0005
20
-68.1026
11
49.0118
21
-68.1131
0
LINE
8
Black
10
49.0118
20
-68.1131
11
49.0236
21
-68.123
0
LINE
8
Black
10
49.0236
20
-68.123
11
49.0248
21
-68.1249
0
LINE
8
Black
10
49.0248
20
-68.1249
11
49.0265
21
-68.1265
0
LINE
8
Black
10
49.0265
20
-68.1265
11
49.0336
21
-68.1402
0
LINE
8
Black
10
49.0336
20
-68.1402
11
49.0413
21
-68.1535
0
LINE
8
Black
10
49.0413
20
-68.1535
11
49.0417
21
-68.1558
0
LINE
8
Black
10
49.0417
20
-68.1558
11
49.0427
21
-68.1578
0
LINE
8
Black
10
49.0427
20
-68.1578
11
49.0447
21
-68.1731
0
LINE
8
Black
10
49.0447
20
-68.1731
11
49.0474
21
-68.1883
0
LINE
8
Black
10
49.0474
20
-68.1883
11
49.0474
21
-71.9503
0
LINE
8
Black
10
49.0474
20
-71.9503
11
49.0454
21
-71.9618
0
LINE
8
Black
10
49.0454
20
-71.9618
11
49.0448
21
-71.9733
0
LINE
8
Black
10
49.0448
20
-71.9733
11
49.0423
21
-71.979
0
LINE
8
Black
10
49.0423
20
-71.979
11
49.0413
21
-71.9851
0
LINE
8
Black
10
49.0413
20
-71.9851
11
49.0355
21
-71.9951
0
LINE
8
Black
10
49.0355
20
-71.9951
11
49.0309
21
-72.0058
0
LINE
8
Black
10
49.0309
20
-72.0058
11
49.0267
21
-72.0103
0
LINE
8
Black
10
49.0267
20
-72.0103
11
49.0236
21
-72.0156
0
LINE
8
Black
10
49.0236
20
-72.0156
11
49.0147
21
-72.0231
0
LINE
8
Black
10
49.0147
20
-72.0231
11
49.0068
21
-72.0316
0
LINE
8
Black
10
49.0068
20
-72.0316
11
49.0013
21
-72.0343
0
LINE
8
Black
10
49.0013
20
-72.0343
11
48.9966
21
-72.0383
0
LINE
8
Black
10
48.9966
20
-72.0383
11
48.9857
21
-72.0423
0
LINE
8
Black
10
48.9857
20
-72.0423
11
48.9753
21
-72.0475
0
LINE
8
Black
10
48.9753
20
-72.0475
11
48.9692
21
-72.0483
0
LINE
8
Black
10
48.9692
20
-72.0483
11
48.9634
21
-72.0504
0
LINE
8
Black
10
48.9634
20
-72.0504
11
48.9518
21
-72.0504
0
LINE
8
Black
10
48.9518
20
-72.0504
11
48.9403
21
-72.0518
0
LINE
8
Black
10
48.9403
20
-72.0518
11
48.9343
21
-72.0504
0
LINE
8
Black
10
48.9343
20
-72.0504
11
48.9282
21
-72.0504
0
LINE
8
Black
10
48.9282
20
-72.0504
11
48.9172
21
-72.0464
0
LINE
8
Black
10
48.9172
20
-72.0464
11
48.9059
21
-72.0438
0
LINE
8
Black
10
48.9059
20
-72.0438
11
48.8319
21
-72.0122
0
LINE
8
Black
10
48.8319
20
-72.0122
11
48.6649
21
-72.1792
0
LINE
8
Black
10
48.6649
20
-72.1792
11
48.5172
21
-72.3269
0
LINE
8
Black
10
48.5172
20
-72.3269
11
48.5364
21
-72.3498
0
LINE
8
Black
10
48.5364
20
-72.3498
11
48.6666
21
-72.7076
0
LINE
8
Black
10
48.6666
20
-72.7076
11
48.6666
21
-73.0884
0
LINE
8
Black
10
48.6666
20
-73.0884
11
48.5364
21
-73.4462
0
LINE
8
Black
10
48.5364
20
-73.4462
11
48.5172
21
-73.4691
0
LINE
8
Black
10
48.5172
20
-73.4691
11
48.8319
21
-73.7838
0
LINE
8
Black
10
48.8319
20
-73.7838
11
48.9059
21
-73.7522
0
LINE
8
Black
10
48.9059
20
-73.7522
11
48.9172
21
-73.7496
0
LINE
8
Black
10
48.9172
20
-73.7496
11
48.9282
21
-73.7456
0
LINE
8
Black
10
48.9282
20
-73.7456
11
48.9343
21
-73.7456
0
LINE
8
Black
10
48.9343
20
-73.7456
11
48.9403
21
-73.7442
0
LINE
8
Black
10
48.9403
20
-73.7442
11
48.9518
21
-73.7456
0
LINE
8
Black
10
48.9518
20
-73.7456
11
48.9634
21
-73.7456
0
LINE
8
Black
10
48.9634
20
-73.7456
11
48.9692
21
-73.7477
0
LINE
8
Black
10
48.9692
20
-73.7477
11
48.9753
21
-73.7485
0
LINE
8
Black
10
48.9753
20
-73.7485
11
48.9857
21
-73.7537
0
LINE
8
Black
10
48.9857
20
-73.7537
11
48.9966
21
-73.7577
0
LINE
8
Black
10
48.9966
20
-73.7577
11
49.0013
21
-73.7617
0
LINE
8
Black
10
49.0013
20
-73.7617
11
49.0068
21
-73.7644
0
LINE
8
Black
10
49.0068
20
-73.7644
11
49.0147
21
-73.7729
0
LINE
8
Black
10
49.0147
20
-73.7729
11
49.0236
21
-73.7804
0
LINE
8
Black
10
49.0236
20
-73.7804
11
49.0267
21
-73.7857
0
LINE
8
Black
10
49.0267
20
-73.7857
11
49.0309
21
-73.7902
0
LINE
8
Black
10
49.0309
20
-73.7902
11
49.0355
21
-73.8009
0
LINE
8
Black
10
49.0355
20
-73.8009
11
49.0413
21
-73.8109
0
LINE
8
Black
10
49.0413
20
-73.8109
11
49.0423
21
-73.817
0
LINE
8
Black
10
49.0423
20
-73.817
11
49.0448
21
-73.8227
0
LINE
8
Black
10
49.0448
20
-73.8227
11
49.0454
21
-73.8343
0
LINE
8
Black
10
49.0454
20
-73.8343
11
49.0474
21
-73.8457
0
LINE
8
Black
10
49.0474
20
-73.8457
11
49.0474
21
-75.0685
0
LINE
8
Black
10
49.0474
20
-75.0685
11
49.0447
21
-75.0838
0
LINE
8
Black
10
49.0447
20
-75.0838
11
49.0427
21
-75.0992
0
LINE
8
Black
10
49.0427
20
-75.0992
11
49.0417
21
-75.1011
0
LINE
8
Black
10
49.0417
20
-75.1011
11
49.0413
21
-75.1033
0
LINE
8
Black
10
49.0413
20
-75.1033
11
49.0335
21
-75.1167
0
LINE
8
Black
10
49.0335
20
-75.1167
11
49.0264
21
-75.1305
0
LINE
8
Black
10
49.0264
20
-75.1305
11
49.0247
21
-75.1319
0
LINE
8
Black
10
49.0247
20
-75.1319
11
49.0236
21
-75.1339
0
LINE
8
Black
10
49.0236
20
-75.1339
11
49.0118
21
-75.1438
0
LINE
8
Black
10
49.0118
20
-75.1438
11
49.0003
21
-75.1543
0
LINE
8
Black
10
49.0003
20
-75.1543
11
48.9983
21
-75.1551
0
LINE
8
Black
10
48.9983
20
-75.1551
11
48.9966
21
-75.1565
0
LINE
8
Black
10
48.9966
20
-75.1565
11
48.982
21
-75.1618
0
LINE
8
Black
10
48.982
20
-75.1618
11
48.9677
21
-75.1678
0
LINE
8
Black
10
48.9677
20
-75.1678
11
48.9655
21
-75.1678
0
LINE
8
Black
10
48.9655
20
-75.1678
11
48.9634
21
-75.1686
0
LINE
8
Black
10
48.9634
20
-75.1686
11
48.9479
21
-75.1686
0
LINE
8
Black
10
48.9479
20
-75.1686
11
48.9325
21
-75.1693
0
LINE
8
Black
10
48.9325
20
-75.1693
11
48.9304
21
-75.1686
0
LINE
8
Black
10
48.9304
20
-75.1686
11
48.9282
21
-75.1686
0
LINE
8
Black
10
48.9282
20
-75.1686
11
48.9136
21
-75.1633
0
LINE
8
Black
10
48.9136
20
-75.1633
11
48.8988
21
-75.1586
0
LINE
8
Black
10
48.8988
20
-75.1586
11
48.8971
21
-75.1573
0
LINE
8
Black
10
48.8971
20
-75.1573
11
48.895
21
-75.1565
0
LINE
8
Black
10
48.895
20
-75.1565
11
48.8831
21
-75.1466
0
LINE
8
Black
10
48.8831
20
-75.1466
11
48.8708
21
-75.1371
0
LINE
8
Black
10
48.8708
20
-75.1371
11
48.8697
21
-75.1353
0
LINE
8
Black
10
48.8697
20
-75.1353
11
48.868
21
-75.1339
0
LINE
8
Black
10
48.868
20
-75.1339
11
48.8602
21
-75.1204
0
LINE
8
Black
10
48.8602
20
-75.1204
11
48.8519
21
-75.1073
0
LINE
8
Black
10
48.8519
20
-75.1073
11
48.6857
21
-74.7052
0
LINE
8
Black
10
48.6857
20
-74.7052
11
48.4169
21
-74.4359
0
LINE
8
Black
10
48.4169
20
-74.4359
11
48.4128
21
-74.43
0
LINE
8
Black
10
48.4128
20
-74.43
11
48.4076
21
-74.4251
0
LINE
8
Black
10
48.4076
20
-74.4251
11
48.4028
21
-74.4157
0
LINE
8
Black
10
48.4028
20
-74.4157
11
48.3967
21
-74.407
0
LINE
8
Black
10
48.3967
20
-74.407
11
48.3949
21
-74.4001
0
LINE
8
Black
10
48.3949
20
-74.4001
11
48.3916
21
-74.3937
0
LINE
8
Black
10
48.3916
20
-74.3937
11
48.3904
21
-74.3831
0
LINE
8
Black
10
48.3904
20
-74.3831
11
48.3876
21
-74.3729
0
LINE
8
Black
10
48.3876
20
-74.3729
11
48.3883
21
-74.3658
0
LINE
8
Black
10
48.3883
20
-74.3658
11
48.3874
21
-74.3586
0
LINE
8
Black
10
48.3874
20
-74.3586
11
48.3898
21
-74.3483
0
LINE
8
Black
10
48.3898
20
-74.3483
11
48.3907
21
-74.3378
0
LINE
8
Black
10
48.3907
20
-74.3378
11
48.3938
21
-74.3313
0
LINE
8
Black
10
48.3938
20
-74.3313
11
48.3954
21
-74.3243
0
LINE
8
Black
10
48.3954
20
-74.3243
11
48.4727
21
-74.143
0
LINE
8
Black
10
48.4727
20
-74.143
11
48.1496
21
-73.8199
0
LINE
8
Black
10
48.1496
20
-73.8199
11
47.9619
21
-73.9283
0
LINE
8
Black
10
47.9619
20
-73.9283
11
47.5869
21
-73.9944
0
LINE
8
Black
10
47.5869
20
-73.9944
11
47.2119
21
-73.9283
0
LINE
8
Black
10
47.2119
20
-73.9283
11
47.1609
21
-73.8988
0
LINE
8
Black
10
47.1609
20
-73.8988
11
46.7655
21
-74.2941
0
LINE
8
Black
10
46.7655
20
-74.2941
11
46.7785
21
-74.3245
0
LINE
8
Black
10
46.7785
20
-74.3245
11
46.7801
21
-74.3315
0
LINE
8
Black
10
46.7801
20
-74.3315
11
46.7832
21
-74.3381
0
LINE
8
Black
10
46.7832
20
-74.3381
11
46.7841
21
-74.3486
0
LINE
8
Black
10
46.7841
20
-74.3486
11
46.7865
21
-74.3588
0
LINE
8
Black
10
46.7865
20
-74.3588
11
46.7856
21
-74.3661
0
LINE
8
Black
10
46.7856
20
-74.3661
11
46.7863
21
-74.3733
0
LINE
8
Black
10
46.7863
20
-74.3733
11
46.7835
21
-74.3834
0
LINE
8
Black
10
46.7835
20
-74.3834
11
46.7823
21
-74.3939
0
LINE
8
Black
10
46.7823
20
-74.3939
11
46.779
21
-74.4003
0
LINE
8
Black
10
46.779
20
-74.4003
11
46.7771
21
-74.4074
0
LINE
8
Black
10
46.7771
20
-74.4074
11
46.771
21
-74.416
0
LINE
8
Black
10
46.771
20
-74.416
11
46.7663
21
-74.4253
0
LINE
8
Black
10
46.7663
20
-74.4253
11
46.761
21
-74.4303
0
LINE
8
Black
10
46.761
20
-74.4303
11
46.7568
21
-74.4362
0
LINE
8
Black
10
46.7568
20
-74.4362
11
46.5911
21
-74.6017
0
LINE
8
Black
10
46.5911
20
-74.6017
11
46.4894
21
-74.7033
0
LINE
8
Black
10
46.4894
20
-74.7033
11
46.2917
21
-75.1792
0
LINE
8
Black
10
46.2917
20
-75.1792
11
46.2913
21
-75.6945
0
LINE
8
Black
10
46.2913
20
-75.6945
11
46.4881
21
-76.1708
0
LINE
8
Black
10
46.4881
20
-76.1708
11
46.8522
21
-76.5355
0
LINE
8
Black
10
46.8522
20
-76.5355
11
47.3281
21
-76.7332
0
LINE
8
Black
10
47.3281
20
-76.7332
11
47.8434
21
-76.7336
0
LINE
8
Black
10
47.8434
20
-76.7336
11
48.3197
21
-76.5368
0
LINE
8
Black
10
48.3197
20
-76.5368
11
48.6844
21
-76.1727
0
LINE
8
Black
10
48.6844
20
-76.1727
11
48.852
21
-75.7693
0
LINE
8
Black
10
48.852
20
-75.7693
11
48.8603
21
-75.7563
0
LINE
8
Black
10
48.8603
20
-75.7563
11
48.868
21
-75.743
0
LINE
8
Black
10
48.868
20
-75.743
11
48.8697
21
-75.7415
0
LINE
8
Black
10
48.8697
20
-75.7415
11
48.871
21
-75.7396
0
LINE
8
Black
10
48.871
20
-75.7396
11
48.8832
21
-75.7302
0
LINE
8
Black
10
48.8832
20
-75.7302
11
48.895
21
-75.7203
0
LINE
8
Black
10
48.895
20
-75.7203
11
48.8971
21
-75.7195
0
LINE
8
Black
10
48.8971
20
-75.7195
11
48.899
21
-75.7181
0
LINE
8
Black
10
48.899
20
-75.7181
11
48.9137
21
-75.7135
0
LINE
8
Black
10
48.9137
20
-75.7135
11
48.9282
21
-75.7082
0
LINE
8
Black
10
48.9282
20
-75.7082
11
48.9304
21
-75.7082
0
LINE
8
Black
10
48.9304
20
-75.7082
11
48.9326
21
-75.7075
0
LINE
8
Black
10
48.9326
20
-75.7075
11
48.948
21
-75.7082
0
LINE
8
Black
10
48.948
20
-75.7082
11
48.9634
21
-75.7082
0
LINE
8
Black
10
48.9634
20
-75.7082
11
48.9656
21
-75.709
0
LINE
8
Black
10
48.9656
20
-75.709
11
48.9679
21
-75.7091
0
LINE
8
Black
10
48.9679
20
-75.7091
11
48.9821
21
-75.715
0
LINE
8
Black
10
48.9821
20
-75.715
11
48.9966
21
-75.7203
0
LINE
8
Black
10
48.9966
20
-75.7203
11
48.9984
21
-75.7218
0
LINE
8
Black
10
48.9984
20
-75.7218
11
49.0005
21
-75.7226
0
LINE
8
Black
10
49.0005
20
-75.7226
11
49.0118
21
-75.733
0
LINE
8
Black
10
49.0118
20
-75.733
11
49.0236
21
-75.743
0
LINE
8
Black
10
49.0236
20
-75.743
11
49.0248
21
-75.7449
0
LINE
8
Black
10
49.0248
20
-75.7449
11
49.0265
21
-75.7465
0
LINE
8
Black
10
49.0265
20
-75.7465
11
49.0336
21
-75.7602
0
LINE
8
Black
10
49.0336
20
-75.7602
11
49.0413
21
-75.7735
0
LINE
8
Black
10
49.0413
20
-75.7735
11
49.0417
21
-75.7758
0
LINE
8
Black
10
49.0417
20
-75.7758
11
49.0427
21
-75.7778
0
LINE
8
Black
10
49.0427
20
-75.7778
11
49.0447
21
-75.7931
0
LINE
8
Black
10
49.0447
20
-75.7931
11
49.0474
21
-75.8083
0
LINE
8
Black
10
49.0474
20
-75.8083
11
49.0474
21
-79.5703
0
LINE
8
Black
10
49.0474
20
-79.5703
11
49.0454
21
-79.5818
0
LINE
8
Black
10
49.0454
20
-79.5818
11
49.0448
21
-79.5933
0
LINE
8
Black
10
49.0448
20
-79.5933
11
49.0423
21
-79.599
0
LINE
8
Black
10
49.0423
20
-79.599
11
49.0413
21
-79.6051
0
LINE
8
Black
10
49.0413
20
-79.6051
11
49.0355
21
-79.6151
0
LINE
8
Black
10
49.0355
20
-79.6151
11
49.0309
21
-79.6258
0
LINE
8
Black
10
49.0309
20
-79.6258
11
49.0267
21
-79.6303
0
LINE
8
Black
10
49.0267
20
-79.6303
11
49.0236
21
-79.6356
0
LINE
8
Black
10
49.0236
20
-79.6356
11
49.0147
21
-79.6431
0
LINE
8
Black
10
49.0147
20
-79.6431
11
49.0068
21
-79.6516
0
LINE
8
Black
10
49.0068
20
-79.6516
11
49.0013
21
-79.6543
0
LINE
8
Black
10
49.0013
20
-79.6543
11
48.9966
21
-79.6583
0
LINE
8
Black
10
48.9966
20
-79.6583
11
48.9857
21
-79.6623
0
LINE
8
Black
10
48.9857
20
-79.6623
11
48.9753
21
-79.6675
0
LINE
8
Black
10
48.9753
20
-79.6675
11
48.9692
21
-79.6683
0
LINE
8
Black
10
48.9692
20
-79.6683
11
48.9634
21
-79.6704
0
LINE
8
Black
10
48.9634
20
-79.6704
11
48.9518
21
-79.6704
0
LINE
8
Black
10
48.9518
20
-79.6704
11
48.9403
21
-79.6718
0
LINE
8
Black
10
48.9403
20
-79.6718
11
48.9343
21
-79.6704
0
LINE
8
Black
10
48.9343
20
-79.6704
11
48.9282
21
-79.6704
0
LINE
8
Black
10
48.9282
20
-79.6704
11
48.9172
21
-79.6664
0
LINE
8
Black
10
48.9172
20
-79.6664
11
48.9059
21
-79.6638
0
LINE
8
Black
10
48.9059
20
-79.6638
11
48.8319
21
-79.6322
0
LINE
8
Black
10
48.8319
20
-79.6322
11
48.6649
21
-79.7992
0
LINE
8
Black
10
48.6649
20
-79.7992
11
48.5172
21
-79.9469
0
LINE
8
Black
10
48.5172
20
-79.9469
11
48.5364
21
-79.9698
0
LINE
8
Black
10
48.5364
20
-79.9698
11
48.6666
21
-80.3276
0
LINE
8
Black
10
48.6666
20
-80.3276
11
48.6666
21
-80.7084
0
LINE
8
Black
10
48.6666
20
-80.7084
11
48.5364
21
-81.0662
0
LINE
8
Black
10
48.5364
20
-81.0662
11
48.5172
21
-81.0891
0
LINE
8
Black
10
48.5172
20
-81.0891
11
48.8319
21
-81.4038
0
LINE
8
Black
10
48.8319
20
-81.4038
11
48.9059
21
-81.3722
0
LINE
8
Black
10
48.9059
20
-81.3722
11
48.9172
21
-81.3696
0
LINE
8
Black
10
48.9172
20
-81.3696
11
48.9282
21
-81.3656
0
LINE
8
Black
10
48.9282
20
-81.3656
11
48.9343
21
-81.3656
0
LINE
8
Black
10
48.9343
20
-81.3656
11
48.9403
21
-81.3642
0
LINE
8
Black
10
48.9403
20
-81.3642
11
48.9518
21
-81.3656
0
LINE
8
Black
10
48.9518
20
-81.3656
11
48.9634
21
-81.3656
0
LINE
8
Black
10
48.9634
20
-81.3656
11
48.9692
21
-81.3677
0
LINE
8
Black
10
48.9692
20
-81.3677
11
48.9753
21
-81.3685
0
LINE
8
Black
10
48.9753
20
-81.3685
11
48.9857
21
-81.3737
0
LINE
8
Black
10
48.9857
20
-81.3737
11
48.9966
21
-81.3777
0
LINE
8
Black
10
48.9966
20
-81.3777
11
49.0013
21
-81.3817
0
LINE
8
Black
10
49.0013
20
-81.3817
11
49.0068
21
-81.3844
0
LINE
8
Black
10
49.0068
20
-81.3844
11
49.0147
21
-81.3929
0
LINE
8
Black
10
49.0147
20
-81.3929
11
49.0236
21
-81.4004
0
LINE
8
Black
10
49.0236
20
-81.4004
11
49.0267
21
-81.4057
0
LINE
8
Black
10
49.0267
20
-81.4057
11
49.0309
21
-81.4102
0
LINE
8
Black
10
49.0309
20
-81.4102
11
49.0355
21
-81.4209
0
LINE
8
Black
10
49.0355
20
-81.4209
11
49.0413
21
-81.4309
0
LINE
8
Black
10
49.0413
20
-81.4309
11
49.0423
21
-81.437
0
LINE
8
Black
10
49.0423
20
-81.437
11
49.0448
21
-81.4427
0
LINE
8
Black
10
49.0448
20
-81.4427
11
49.0454
21
-81.4543
0
LINE
8
Black
10
49.0454
20
-81.4543
11
49.0474
21
-81.4657
0
LINE
8
Black
10
49.0474
20
-81.4657
11
49.0474
21
-82.6885
0
LINE
8
Black
10
49.0474
20
-82.6885
11
49.0459
21
-82.6973
0
LINE
8
Black
10
49.0459
20
-82.6973
11
49.0459
21
-82.7062
0
LINE
8
Black
10
49.0459
20
-82.7062
11
49.0436
21
-82.7125
0
LINE
8
Black
10
49.0436
20
-82.7125
11
49.0427
21
-82.7192
0
LINE
8
Black
10
49.0427
20
-82.7192
11
49.0417
21
-82.7211
0
LINE
8
Black
10
49.0417
20
-82.7211
11
49.0413
21
-82.7233
0
LINE
8
Black
10
49.0413
20
-82.7233
11
49.0368
21
-82.731
0
LINE
8
Black
10
49.0368
20
-82.731
11
49.0338
21
-82.7393
0
LINE
8
Black
10
49.0338
20
-82.7393
11
49.0295
21
-82.7445
0
LINE
8
Black
10
49.0295
20
-82.7445
11
49.0264
21
-82.7505
0
LINE
8
Black
10
49.0264
20
-82.7505
11
49.0247
21
-82.7519
0
LINE
8
Black
10
49.0247
20
-82.7519
11
49.0236
21
-82.7539
0
LINE
8
Black
10
49.0236
20
-82.7539
11
49.0168
21
-82.7596
0
LINE
8
Black
10
49.0168
20
-82.7596
11
49.0111
21
-82.7664
0
LINE
8
Black
10
49.0111
20
-82.7664
11
49.0053
21
-82.7697
0
LINE
8
Black
10
49.0053
20
-82.7697
11
49.0003
21
-82.7743
0
LINE
8
Black
10
49.0003
20
-82.7743
11
48.9983
21
-82.7751
0
LINE
8
Black
10
48.9983
20
-82.7751
11
48.9966
21
-82.7765
0
LINE
8
Black
10
48.9966
20
-82.7765
11
48.9882
21
-82.7796
0
LINE
8
Black
10
48.9882
20
-82.7796
11
48.9805
21
-82.784
0
LINE
8
Black
10
48.9805
20
-82.784
11
48.9739
21
-82.7852
0
LINE
8
Black
10
48.9739
20
-82.7852
11
48.9677
21
-82.7878
0
LINE
8
Black
10
48.9677
20
-82.7878
11
48.9655
21
-82.7878
0
LINE
8
Black
10
48.9655
20
-82.7878
11
48.9634
21
-82.7886
0
LINE
8
Black
10
48.9634
20
-82.7886
11
48.9546
21
-82.7886
0
LINE
8
Black
10
48.9546
20
-82.7886
11
48.9458
21
-82.7901
0
LINE
8
Black
10
48.9458
20
-82.7901
11
48.9392
21
-82.789
0
LINE
8
Black
10
48.9392
20
-82.789
11
48.9325
21
-82.7893
0
LINE
8
Black
10
48.9325
20
-82.7893
11
48.9304
21
-82.7886
0
LINE
8
Black
10
48.9304
20
-82.7886
11
48.9282
21
-82.7886
0
LINE
8
Black
10
48.9282
20
-82.7886
11
48.9198
21
-82.7856
0
LINE
8
Black
10
48.9198
20
-82.7856
11
48.9111
21
-82.784
0
LINE
8
Black
10
48.9111
20
-82.784
11
48.9052
21
-82.7807
0
LINE
8
Black
10
48.9052
20
-82.7807
11
48.8988
21
-82.7786
0
LINE
8
Black
10
48.8988
20
-82.7786
11
48.8971
21
-82.7773
0
LINE
8
Black
10
48.8971
20
-82.7773
11
48.895
21
-82.7765
0
LINE
8
Black
10
48.895
20
-82.7765
11
48.8882
21
-82.7708
0
LINE
8
Black
10
48.8882
20
-82.7708
11
48.8805
21
-82.7664
0
LINE
8
Black
10
48.8805
20
-82.7664
11
48.8762
21
-82.7612
0
LINE
8
Black
10
48.8762
20
-82.7612
11
48.8708
21
-82.7571
0
LINE
8
Black
10
48.8708
20
-82.7571
11
48.8697
21
-82.7553
0
LINE
8
Black
10
48.8697
20
-82.7553
11
48.868
21
-82.7539
0
LINE
8
Black
10
48.868
20
-82.7539
11
48.8635
21
-82.7462
0
LINE
8
Black
10
48.8635
20
-82.7462
11
48.8578
21
-82.7393
0
LINE
8
Black
10
48.8578
20
-82.7393
11
48.8555
21
-82.733
0
LINE
8
Black
10
48.8555
20
-82.733
11
48.8519
21
-82.7273
0
LINE
8
Black
10
48.8519
20
-82.7273
11
48.6857
21
-82.3252
0
LINE
8
Black
10
48.6857
20
-82.3252
11
48.4169
21
-82.0559
0
LINE
8
Black
10
48.4169
20
-82.0559
11
48.4128
21
-82.05
0
LINE
8
Black
10
48.4128
20
-82.05
11
48.4076
21
-82.0451
0
LINE
8
Black
10
48.4076
20
-82.0451
11
48.4028
21
-82.0357
0
LINE
8
Black
10
48.4028
20
-82.0357
11
48.3967
21
-82.027
0
LINE
8
Black
10
48.3967
20
-82.027
11
48.3949
21
-82.0201
0
LINE
8
Black
10
48.3949
20
-82.0201
11
48.3916
21
-82.0137
0
LINE
8
Black
10
48.3916
20
-82.0137
11
48.3904
21
-82.0031
0
LINE
8
Black
10
48.3904
20
-82.0031
11
48.3876
21
-81.9929
0
LINE
8
Black
10
48.3876
20
-81.9929
11
48.3883
21
-81.9858
0
LINE
8
Black
10
48.3883
20
-81.9858
11
48.3874
21
-81.9786
0
LINE
8
Black
10
48.3874
20
-81.9786
11
48.3898
21
-81.9683
0
LINE
8
Black
10
48.3898
20
-81.9683
11
48.3907
21
-81.9578
0
LINE
8
Black
10
48.3907
20
-81.9578
11
48.3938
21
-81.9513
0
LINE
8
Black
10
48.3938
20
-81.9513
11
48.3954
21
-81.9443
0
LINE
8
Black
10
48.3954
20
-81.9443
11
48.4727
21
-81.763
0
LINE
8
Black
10
48.4727
20
-81.763
11
48.1496
21
-81.4399
0
LINE
8
Black
10
48.1496
20
-81.4399
11
47.9619
21
-81.5483
0
LINE
8
Black
10
47.9619
20
-81.5483
11
47.5869
21
-81.6144
0
LINE
8
Black
10
47.5869
20
-81.6144
11
47.2119
21
-81.5483
0
LINE
8
Black
10
47.2119
20
-81.5483
11
47.0242
21
-81.4399
0
LINE
8
Black
10
47.0242
20
-81.4399
11
46.7011
21
-81.763
0
LINE
8
Black
10
46.7011
20
-81.763
11
46.7785
21
-81.9445
0
LINE
8
Black
10
46.7785
20
-81.9445
11
46.7801
21
-81.9515
0
LINE
8
Black
10
46.7801
20
-81.9515
11
46.7832
21
-81.9581
0
LINE
8
Black
10
46.7832
20
-81.9581
11
46.7841
21
-81.9686
0
LINE
8
Black
10
46.7841
20
-81.9686
11
46.7865
21
-81.9788
0
LINE
8
Black
10
46.7865
20
-81.9788
11
46.7856
21
-81.9861
0
LINE
8
Black
10
46.7856
20
-81.9861
11
46.7863
21
-81.9933
0
LINE
8
Black
10
46.7863
20
-81.9933
11
46.7835
21
-82.0034
0
LINE
8
Black
10
46.7835
20
-82.0034
11
46.7823
21
-82.0139
0
LINE
8
Black
10
46.7823
20
-82.0139
11
46.779
21
-82.0203
0
LINE
8
Black
10
46.779
20
-82.0203
11
46.7771
21
-82.0274
0
LINE
8
Black
10
46.7771
20
-82.0274
11
46.771
21
-82.036
0
LINE
8
Black
10
46.771
20
-82.036
11
46.7663
21
-82.0453
0
LINE
8
Black
10
46.7663
20
-82.0453
11
46.761
21
-82.0503
0
LINE
8
Black
10
46.761
20
-82.0503
11
46.7568
21
-82.0562
0
LINE
8
Black
10
46.7568
20
-82.0562
11
46.6566
21
-82.1563
0
LINE
8
Black
10
46.6566
20
-82.1563
11
46.4894
21
-82.3233
0
LINE
8
Black
10
46.4894
20
-82.3233
11
46.2917
21
-82.7992
0
LINE
8
Black
10
46.2917
20
-82.7992
11
46.2913
21
-83.3145
0
LINE
8
Black
10
46.2913
20
-83.3145
11
46.4881
21
-83.7908
0
LINE
8
Black
10
46.4881
20
-83.7908
11
46.8522
21
-84.1555
0
LINE
8
Black
10
46.8522
20
-84.1555
11
47.2556
21
-84.3231
0
LINE
8
Black
10
47.2556
20
-84.3231
11
47.2686
21
-84.3314
0
LINE
8
Black
10
47.2686
20
-84.3314
11
47.2819
21
-84.3391
0
LINE
8
Black
10
47.2819
20
-84.3391
11
47.2834
21
-84.3408
0
LINE
8
Black
10
47.2834
20
-84.3408
11
47.2853
21
-84.3421
0
LINE
8
Black
10
47.2853
20
-84.3421
11
47.2947
21
-84.3543
0
LINE
8
Black
10
47.2947
20
-84.3543
11
47.3046
21
-84.3661
0
LINE
8
Black
10
47.3046
20
-84.3661
11
47.3054
21
-84.3682
0
LINE
8
Black
10
47.3054
20
-84.3682
11
47.3068
21
-84.3701
0
LINE
8
Black
10
47.3068
20
-84.3701
11
47.3114
21
-84.3848
0
LINE
8
Black
10
47.3114
20
-84.3848
11
47.3167
21
-84.3993
0
LINE
8
Black
10
47.3167
20
-84.3993
11
47.3167
21
-84.4015
0
LINE
8
Black
10
47.3167
20
-84.4015
11
47.3174
21
-84.4037
0
LINE
8
Black
10
47.3174
20
-84.4037
11
47.3167
21
-84.4191
0
LINE
8
Black
10
47.3167
20
-84.4191
11
47.3167
21
-84.4345
0
LINE
8
Black
10
47.3167
20
-84.4345
11
47.3159
21
-84.4367
0
LINE
8
Black
10
47.3159
20
-84.4367
11
47.3158
21
-84.439
0
LINE
8
Black
10
47.3158
20
-84.439
11
47.3099
21
-84.4532
0
LINE
8
Black
10
47.3099
20
-84.4532
11
47.3046
21
-84.4677
0
LINE
8
Black
10
47.3046
20
-84.4677
11
47.3031
21
-84.4695
0
LINE
8
Black
10
47.3031
20
-84.4695
11
47.3023
21
-84.4716
0
LINE
8
Black
10
47.3023
20
-84.4716
11
47.2918
21
-84.4829
0
LINE
8
Black
10
47.2918
20
-84.4829
11
47.2819
21
-84.4947
0
LINE
8
Black
10
47.2819
20
-84.4947
11
47.28
21
-84.4959
0
LINE
8
Black
10
47.28
20
-84.4959
11
47.2784
21
-84.4976
0
LINE
8
Black
10
47.2784
20
-84.4976
11
47.2647
21
-84.5047
0
LINE
8
Black
10
47.2647
20
-84.5047
11
47.2514
21
-84.5124
0
LINE
8
Black
10
47.2514
20
-84.5124
11
47.2491
21
-84.5128
0
LINE
8
Black
10
47.2491
20
-84.5128
11
47.2471
21
-84.5138
0
LINE
8
Black
10
47.2471
20
-84.5138
11
47.2318
21
-84.5158
0
LINE
8
Black
10
47.2318
20
-84.5158
11
47.2166
21
-84.5185
0
LINE
8
Black
10
47.2166
20
-84.5185
11
25.8191
21
-84.5185
0
LINE
8
Black
10
25.8191
20
-84.5185
11
25.8103
21
-84.517
0
LINE
8
Black
10
25.8103
20
-84.517
11
25.8015
21
-84.517
0
LINE
8
Black
10
25.8015
20
-84.517
11
25.7931
21
-84.5139
0
LINE
8
Black
10
25.7931
20
-84.5139
11
25.7844
21
-84.5124
0
LINE
8
Black
10
25.7844
20
-84.5124
11
25.7767
21
-84.5079
0
LINE
8
Black
10
25.7767
20
-84.5079
11
25.7683
21
-84.5049
0
LINE
8
Black
10
25.7683
20
-84.5049
11
25.7615
21
-84.4992
0
LINE
8
Black
10
25.7615
20
-84.4992
11
25.7538
21
-84.4947
0
LINE
8
Black
10
25.7538
20
-84.4947
11
25.7481
21
-84.4879
0
LINE
8
Black
10
25.7481
20
-84.4879
11
25.7413
21
-84.4822
0
LINE
8
Black
10
25.7413
20
-84.4822
11
25.7368
21
-84.4745
0
LINE
8
Black
10
25.7368
20
-84.4745
11
25.7311
21
-84.4677
0
LINE
8
Black
10
25.7311
20
-84.4677
11
25.7281
21
-84.4593
0
LINE
8
Black
10
25.7281
20
-84.4593
11
25.7236
21
-84.4516
0
LINE
8
Black
10
25.7236
20
-84.4516
11
25.7221
21
-84.4429
0
LINE
8
Black
10
25.7221
20
-84.4429
11
25.719
21
-84.4345
0
LINE
8
Black
10
25.719
20
-84.4345
11
25.719
21
-84.4257
0
LINE
8
Black
10
25.719
20
-84.4257
11
25.7175
21
-84.4169
0
LINE
8
Black
10
25.7175
20
-84.4169
11
25.7175
21
-25.8191
0
LINE
8
Black
10
25.7175
20
-25.8191
11
25.719
21
-25.8103
0
LINE
8
Black
10
25.719
20
-25.8103
11
25.719
21
-25.8015
0
LINE
8
Black
10
25.719
20
-25.8015
11
25.7221
21
-25.7931
0
LINE
8
Black
10
25.7221
20
-25.7931
11
25.7236
21
-25.7844
0
LINE
8
Black
10
25.7236
20
-25.7844
11
25.7281
21
-25.7767
0
LINE
8
Black
10
25.7281
20
-25.7767
11
25.7311
21
-25.7683
0
LINE
8
Black
10
25.7311
20
-25.7683
11
25.7368
21
-25.7615
0
LINE
8
Black
10
25.7368
20
-25.7615
11
25.7413
21
-25.7538
0
LINE
8
Black
10
25.7413
20
-25.7538
11
25.7481
21
-25.7481
0
LINE
8
Black
10
25.7481
20
-25.7481
11
25.7538
21
-25.7413
0
LINE
8
Black
10
25.7538
20
-25.7413
11
25.7615
21
-25.7368
0
LINE
8
Black
10
25.7615
20
-25.7368
11
25.7683
21
-25.7311
0
LINE
8
Black
10
25.7683
20
-25.7311
11
25.7767
21
-25.7281
0
LINE
8
Black
10
25.7767
20
-25.7281
11
25.7844
21
-25.7236
0
LINE
8
Black
10
25.7844
20
-25.7236
11
25.7931
21
-25.7221
0
LINE
8
Black
10
25.7931
20
-25.7221
11
25.8015
21
-25.719
0
LINE
8
Black
10
25.8015
20
-25.719
11
25.8103
21
-25.719
0
LINE
8
Black
10
25.8103
20
-25.719
11
25.8191
21
-25.7175
0
LINE
8
Black
10
25.8191
20
-25.7175
11
46.6392
21
-25.7175
0
LINE
8
Black
10
46.6392
20
-25.7175
11
46.6507
21
-25.7195
0
LINE
8
Black
10
46.6507
20
-25.7195
11
46.6622
21
-25.7201
0
LINE
8
Black
10
46.6622
20
-25.7201
11
46.6679
21
-25.7226
0
LINE
8
Black
10
46.6679
20
-25.7226
11
46.674
21
-25.7236
0
LINE
8
Black
10
46.674
20
-25.7236
11
46.684
21
-25.7294
0
LINE
8
Black
10
46.684
20
-25.7294
11
46.6947
21
-25.734
0
LINE
8
Black
10
46.6947
20
-25.734
11
46.6992
21
-25.7382
0
LINE
8
Black
10
46.6992
20
-25.7382
11
46.7045
21
-25.7413
0
LINE
8
Black
10
46.7045
20
-25.7413
11
46.712
21
-25.7502
0
LINE
8
Black
10
46.712
20
-25.7502
11
46.7205
21
-25.7581
0
LINE
8
Black
10
46.7205
20
-25.7581
11
46.7232
21
-25.7636
0
LINE
8
Black
10
46.7232
20
-25.7636
11
46.7272
21
-25.7683
0
LINE
8
Black
10
46.7272
20
-25.7683
11
46.7312
21
-25.7792
0
LINE
8
Black
10
46.7312
20
-25.7792
11
46.7364
21
-25.7896
0
LINE
8
Black
10
46.7364
20
-25.7896
11
46.7372
21
-25.7957
0
LINE
8
Black
10
46.7372
20
-25.7957
11
46.7393
21
-25.8015
0
LINE
8
Black
10
46.7393
20
-25.8015
11
46.7393
21
-25.8131
0
LINE
8
Black
10
46.7393
20
-25.8131
11
46.7407
21
-25.8246
0
LINE
8
Black
10
46.7407
20
-25.8246
11
46.7393
21
-25.8306
0
LINE
8
Black
10
46.7393
20
-25.8306
11
46.7393
21
-25.8367
0
LINE
8
Black
10
46.7393
20
-25.8367
11
46.7353
21
-25.8477
0
LINE
8
Black
10
46.7353
20
-25.8477
11
46.7327
21
-25.859
0
LINE
8
Black
10
46.7327
20
-25.859
11
46.7011
21
-25.933
0
LINE
8
Black
10
46.7011
20
-25.933
11
47.0242
21
-26.2561
0
LINE
8
Black
10
47.0242
20
-26.2561
11
47.2119
21
-26.1477
0
LINE
8
Black
10
47.2119
20
-26.1477
11
47.5869
21
-26.0816
0
LINE
8
Black
10
47.5869
20
-26.0816
11
47.9619
21
-26.1477
0
LINE
8
Black
10
47.9619
20
-26.1477
11
48.1496
21
-26.2561
0
LINE
8
Black
10
48.1496
20
-26.2561
11
48.4727
21
-25.933
0
LINE
8
Black
10
48.4727
20
-25.933
11
48.4411
21
-25.859
0
LINE
8
Black
10
48.4411
20
-25.859
11
48.4385
21
-25.8477
0
LINE
8
Black
10
48.4385
20
-25.8477
11
48.4345
21
-25.8367
0
LINE
8
Black
10
48.4345
20
-25.8367
11
48.4345
21
-25.8306
0
LINE
8
Black
10
48.4345
20
-25.8306
11
48.4331
21
-25.8246
0
LINE
8
Black
10
48.4331
20
-25.8246
11
48.4345
21
-25.8131
0
LINE
8
Black
10
48.4345
20
-25.8131
11
48.4345
21
-25.8015
0
LINE
8
Black
10
48.4345
20
-25.8015
11
48.4366
21
-25.7957
0
LINE
8
Black
10
48.4366
20
-25.7957
11
48.4374
21
-25.7896
0
LINE
8
Black
10
48.4374
20
-25.7896
11
48.4426
21
-25.7792
0
LINE
8
Black
10
48.4426
20
-25.7792
11
48.4466
21
-25.7683
0
LINE
8
Black
10
48.4466
20
-25.7683
11
48.4506
21
-25.7636
0
LINE
8
Black
10
48.4506
20
-25.7636
11
48.4533
21
-25.7581
0
LINE
8
Black
10
48.4533
20
-25.7581
11
48.4618
21
-25.7502
0
LINE
8
Black
10
48.4618
20
-25.7502
11
48.4693
21
-25.7413
0
LINE
8
Black
10
48.4693
20
-25.7413
11
48.4746
21
-25.7382
0
LINE
8
Black
10
48.4746
20
-25.7382
11
48.4791
21
-25.734
0
LINE
8
Black
10
48.4791
20
-25.734
11
48.4898
21
-25.7294
0
LINE
8
Black
10
48.4898
20
-25.7294
11
48.4998
21
-25.7236
0
LINE
8
Black
10
48.4998
20
-25.7236
11
48.5059
21
-25.7226
0
LINE
8
Black
10
48.5059
20
-25.7226
11
48.5116
21
-25.7201
0
LINE
8
Black
10
48.5116
20
-25.7201
11
48.5232
21
-25.7195
0
LINE
8
Black
10
48.5232
20
-25.7195
11
48.5346
21
-25.7175
0
LINE
8
Black
10
48.5346
20
-25.7175
11
48.9458
21
-25.7175
0
LINE
8
Black
10
48.9458
20
-25.7175
11
48.9546
21
-25.719
0
LINE
8
Black
10
48.9546
20
-25.719
11
48.9634
21
-25.719
0
LINE
8
Black
10
48.9634
20
-25.719
11
48.9718
21
-25.7221
0
LINE
8
Black
10
48.9718
20
-25.7221
11
48.9805
21
-25.7236
0
LINE
8
Black
10
48.9805
20
-25.7236
11
48.9882
21
-25.7281
0
LINE
8
Black
10
48.9882
20
-25.7281
11
48.9966
21
-25.7311
0
LINE
8
Black
10
48.9966
20
-25.7311
11
49.0034
21
-25.7368
0
LINE
8
Black
10
49.0034
20
-25.7368
11
49.0111
21
-25.7413
0
LINE
8
Black
10
49.0111
20
-25.7413
11
49.0168
21
-25.7481
0
LINE
8
Black
10
49.0168
20
-25.7481
11
49.0236
21
-25.7538
0
LINE
8
Black
10
49.0236
20
-25.7538
11
49.0281
21
-25.7615
0
LINE
8
Black
10
49.0281
20
-25.7615
11
49.0338
21
-25.7683
0
LINE
8
Black
10
49.0338
20
-25.7683
11
49.0368
21
-25.7767
0
LINE
8
Black
10
49.0368
20
-25.7767
11
49.0413
21
-25.7844
0
LINE
8
Black
10
49.0413
20
-25.7844
11
49.0428
21
-25.7931
0
LINE
8
Black
10
49.0428
20
-25.7931
11
49.0459
21
-25.8015
0
LINE
8
Black
10
49.0459
20
-25.8015
11
49.0459
21
-25.8103
0
LINE
8
Black
10
49.0459
20
-25.8103
11
49.0474
21
-25.8191
0
LINE
8
Black
10
49.0474
20
-25.8191
11
49.0474
21
-26.2303
0
LINE
8
Black
10
49.0474
20
-26.2303
11
49.0454
21
-26.2418
0
LINE
8
Black
10
49.0454
20
-26.2418
11
49.0448
21
-26.2533
0
LINE
8
Black
10
49.0448
20
-26.2533
11
49.0423
21
-26.259
0
LINE
8
Black
10
49.0423
20
-26.259
11
49.0413
21
-26.2651
0
LINE
8
Black
10
49.0413
20
-26.2651
11
49.0355
21
-26.2751
0
LINE
8
Black
10
49.0355
20
-26.2751
11
49.0309
21
-26.2858
0
LINE
8
Black
10
49.0309
20
-26.2858
11
49.0267
21
-26.2903
0
LINE
8
Black
10
49.0267
20
-26.2903
11
49.0236
21
-26.2956
0
LINE
8
Black
10
49.0236
20
-26.2956
11
49.0147
21
-26.3031
0
LINE
8
Black
10
49.0147
20
-26.3031
11
49.0068
21
-26.3116
0
LINE
8
Black
10
49.0068
20
-26.3116
11
49.0013
21
-26.3143
0
LINE
8
Black
10
49.0013
20
-26.3143
11
48.9966
21
-26.3183
0
LINE
8
Black
10
48.9966
20
-26.3183
11
48.9857
21
-26.3223
0
LINE
8
Black
10
48.9857
20
-26.3223
11
48.9753
21
-26.3275
0
LINE
8
Black
10
48.9753
20
-26.3275
11
48.9692
21
-26.3283
0
LINE
8
Black
10
48.9692
20
-26.3283
11
48.9634
21
-26.3304
0
LINE
8
Black
10
48.9634
20
-26.3304
11
48.9518
21
-26.3304
0
LINE
8
Black
10
48.9518
20
-26.3304
11
48.9403
21
-26.3318
0
LINE
8
Black
10
48.9403
20
-26.3318
11
48.9343
21
-26.3304
0
LINE
8
Black
10
48.9343
20
-26.3304
11
48.9282
21
-26.3304
0
LINE
8
Black
10
48.9282
20
-26.3304
11
48.9172
21
-26.3264
0
LINE
8
Black
10
48.9172
20
-26.3264
11
48.9059
21
-26.3238
0
LINE
8
Black
10
48.9059
20
-26.3238
11
48.8319
21
-26.2922
0
LINE
8
Black
10
48.8319
20
-26.2922
11
48.5172
21
-26.6069
0
LINE
8
Black
10
48.5172
20
-26.6069
11
48.5364
21
-26.6298
0
LINE
8
Black
10
48.5364
20
-26.6298
11
48.6666
21
-26.9876
0
LINE
8
Black
10
48.6666
20
-26.9876
11
48.6666
21
-27.3684
0
LINE
8
Black
10
48.6666
20
-27.3684
11
48.5364
21
-27.7262
0
LINE
8
Black
10
48.5364
20
-27.7262
11
48.5172
21
-27.7491
0
LINE
8
Black
10
48.5172
20
-27.7491
11
48.8319
21
-28.0638
0
LINE
8
Black
10
48.8319
20
-28.0638
11
48.9059
21
-28.0322
0
LINE
8
Black
10
48.9059
20
-28.0322
11
48.9172
21
-28.0296
0
LINE
8
Black
10
48.9172
20
-28.0296
11
48.9282
21
-28.0256
0
LINE
8
Black
10
48.9282
20
-28.0256
11
48.9343
21
-28.0256
0
LINE
8
Black
10
48.9343
20
-28.0256
11
48.9403
21
-28.0242
0
LINE
8
Black
10
48.9403
20
-28.0242
11
48.9518
21
-28.0256
0
LINE
8
Black
10
48.9518
20
-28.0256
11
48.9634
21
-28.0256
0
LINE
8
Black
10
48.9634
20
-28.0256
11
48.9692
21
-28.0277
0
LINE
8
Black
10
48.9692
20
-28.0277
11
48.9753
21
-28.0285
0
LINE
8
Black
10
48.9753
20
-28.0285
11
48.9857
21
-28.0337
0
LINE
8
Black
10
48.9857
20
-28.0337
11
48.9966
21
-28.0377
0
LINE
8
Black
10
48.9966
20
-28.0377
11
49.0013
21
-28.0417
0
LINE
8
Black
10
49.0013
20
-28.0417
11
49.0068
21
-28.0444
0
LINE
8
Black
10
49.0068
20
-28.0444
11
49.0147
21
-28.0529
0
LINE
8
Black
10
49.0147
20
-28.0529
11
49.0236
21
-28.0604
0
LINE
8
Black
10
49.0236
20
-28.0604
11
49.0267
21
-28.0657
0
LINE
8
Black
10
49.0267
20
-28.0657
11
49.0309
21
-28.0702
0
LINE
8
Black
10
49.0309
20
-28.0702
11
49.0355
21
-28.0809
0
LINE
8
Black
10
49.0355
20
-28.0809
11
49.0413
21
-28.0909
0
LINE
8
Black
10
49.0413
20
-28.0909
11
49.0423
21
-28.097
0
LINE
8
Black
10
49.0423
20
-28.097
11
49.0448
21
-28.1027
0
LINE
8
Black
10
49.0448
20
-28.1027
11
49.0454
21
-28.1143
0
LINE
8
Black
10
49.0454
20
-28.1143
11
49.0474
21
-28.1257
0
LINE
8
Black
10
49.0474
20
-28.1257
11
49.0474
21
-29.3485
0
LINE
8
Black
10
49.0474
20
-29.3485
11
49.0447
21
-29.3638
0
LINE
8
Black
10
49.0447
20
-29.3638
11
49.0427
21
-29.3792
0
LINE
8
Black
10
49.0427
20
-29.3792
11
49.0417
21
-29.3811
0
LINE
8
Black
10
49.0417
20
-29.3811
11
49.0413
21
-29.3833
0
LINE
8
Black
10
49.0413
20
-29.3833
11
49.0335
21
-29.3967
0
LINE
8
Black
10
49.0335
20
-29.3967
11
49.0264
21
-29.4105
0
LINE
8
Black
10
49.0264
20
-29.4105
11
49.0247
21
-29.4119
0
LINE
8
Black
10
49.0247
20
-29.4119
11
49.0236
21
-29.4139
0
LINE
8
Black
10
49.0236
20
-29.4139
11
49.0118
21
-29.4238
0
LINE
8
Black
10
49.0118
20
-29.4238
11
49.0003
21
-29.4343
0
LINE
8
Black
10
49.0003
20
-29.4343
11
48.9983
21
-29.4351
0
LINE
8
Black
10
48.9983
20
-29.4351
11
48.9966
21
-29.4365
0
LINE
8
Black
10
48.9966
20
-29.4365
11
48.982
21
-29.4418
0
LINE
8
Black
10
48.982
20
-29.4418
11
48.9677
21
-29.4478
0
LINE
8
Black
10
48.9677
20
-29.4478
11
48.9655
21
-29.4478
0
LINE
8
Black
10
48.9655
20
-29.4478
11
48.9634
21
-29.4486
0
LINE
8
Black
10
48.9634
20
-29.4486
11
48.9479
21
-29.4486
0
LINE
8
Black
10
48.9479
20
-29.4486
11
48.9325
21
-29.4493
0
LINE
8
Black
10
48.9325
20
-29.4493
11
48.9304
21
-29.4486
0
LINE
8
Black
10
48.9304
20
-29.4486
11
48.9282
21
-29.4486
0
LINE
8
Black
10
48.9282
20
-29.4486
11
48.9136
21
-29.4433
0
LINE
8
Black
10
48.9136
20
-29.4433
11
48.8988
21
-29.4386
0
LINE
8
Black
10
48.8988
20
-29.4386
11
48.8971
21
-29.4373
0
LINE
8
Black
10
48.8971
20
-29.4373
11
48.895
21
-29.4365
0
LINE
8
Black
10
48.895
20
-29.4365
11
48.8831
21
-29.4266
0
LINE
8
Black
10
48.8831
20
-29.4266
11
48.8708
21
-29.4171
0
LINE
8
Black
10
48.8708
20
-29.4171
11
48.8697
21
-29.4153
0
LINE
8
Black
10
48.8697
20
-29.4153
11
48.868
21
-29.4139
0
LINE
8
Black
10
48.868
20
-29.4139
11
48.8602
21
-29.4004
0
LINE
8
Black
10
48.8602
20
-29.4004
11
48.8519
21
-29.3873
0
LINE
8
Black
10
48.8519
20
-29.3873
11
48.6857
21
-28.9852
0
LINE
8
Black
10
48.6857
20
-28.9852
11
48.4169
21
-28.7159
0
LINE
8
Black
10
48.4169
20
-28.7159
11
48.4128
21
-28.71
0
LINE
8
Black
10
48.4128
20
-28.71
11
48.4076
21
-28.7051
0
LINE
8
Black
10
48.4076
20
-28.7051
11
48.4028
21
-28.6957
0
LINE
8
Black
10
48.4028
20
-28.6957
11
48.3967
21
-28.687
0
LINE
8
Black
10
48.3967
20
-28.687
11
48.3949
21
-28.6801
0
LINE
8
Black
10
48.3949
20
-28.6801
11
48.3916
21
-28.6737
0
LINE
8
Black
10
48.3916
20
-28.6737
11
48.3904
21
-28.6631
0
LINE
8
Black
10
48.3904
20
-28.6631
11
48.3876
21
-28.6529
0
LINE
8
Black
10
48.3876
20
-28.6529
11
48.3883
21
-28.6458
0
LINE
8
Black
10
48.3883
20
-28.6458
11
48.3874
21
-28.6386
0
LINE
8
Black
10
48.3874
20
-28.6386
11
48.3898
21
-28.6283
0
LINE
8
Black
10
48.3898
20
-28.6283
11
48.3907
21
-28.6178
0
LINE
8
Black
10
48.3907
20
-28.6178
11
48.3938
21
-28.6113
0
LINE
8
Black
10
48.3938
20
-28.6113
11
48.3954
21
-28.6043
0
LINE
8
Black
10
48.3954
20
-28.6043
11
48.4727
21
-28.423
0
LINE
8
Black
10
48.4727
20
-28.423
11
48.1496
21
-28.0999
0
LINE
8
Black
10
48.1496
20
-28.0999
11
47.9619
21
-28.2083
0
LINE
8
Black
10
47.9619
20
-28.2083
11
47.5869
21
-28.2744
0
LINE
8
Black
10
47.5869
20
-28.2744
11
47.2119
21
-28.2083
0
LINE
8
Black
10
47.2119
20
-28.2083
11
47.1609
21
-28.1788
0
LINE
8
Black
10
47.1609
20
-28.1788
11
46.7655
21
-28.5741
0
LINE
8
Black
10
46.7655
20
-28.5741
11
46.7785
21
-28.6045
0
LINE
8
Black
10
46.7785
20
-28.6045
11
46.7801
21
-28.6115
0
LINE
8
Black
10
46.7801
20
-28.6115
11
46.7832
21
-28.6181
0
LINE
8
Black
10
46.7832
20
-28.6181
11
46.7841
21
-28.6286
0
LINE
8
Black
10
46.7841
20
-28.6286
11
46.7865
21
-28.6388
0
LINE
8
Black
10
46.7865
20
-28.6388
11
46.7856
21
-28.6461
0
LINE
8
Black
10
46.7856
20
-28.6461
11
46.7863
21
-28.6533
0
LINE
8
Black
10
46.7863
20
-28.6533
11
46.7835
21
-28.6634
0
LINE
8
Black
10
46.7835
20
-28.6634
11
46.7823
21
-28.6739
0
LINE
8
Black
10
46.7823
20
-28.6739
11
46.779
21
-28.6803
0
LINE
8
Black
10
46.779
20
-28.6803
11
46.7771
21
-28.6874
0
LINE
8
Black
10
46.7771
20
-28.6874
11
46.771
21
-28.696
0
LINE
8
Black
10
46.771
20
-28.696
11
46.7663
21
-28.7053
0
LINE
8
Black
10
46.7663
20
-28.7053
11
46.761
21
-28.7103
0
LINE
8
Black
10
46.761
20
-28.7103
11
46.7568
21
-28.7162
0
LINE
8
Black
10
46.7568
20
-28.7162
11
46.6566
21
-28.8163
0
LINE
8
Black
10
46.6566
20
-28.8163
11
46.4894
21
-28.9833
0
LINE
8
Black
10
46.4894
20
-28.9833
11
46.2917
21
-29.4592
0
LINE
8
Black
10
46.2917
20
-29.4592
11
46.2913
21
-29.9745
0
LINE
8
Black
10
46.2913
20
-29.9745
11
46.4881
21
-30.4508
0
LINE
8
Black
10
46.4881
20
-30.4508
11
46.8522
21
-30.8155
0
LINE
8
Black
10
46.8522
20
-30.8155
11
47.3281
21
-31.0132
0
LINE
8
Black
10
47.3281
20
-31.0132
11
47.8434
21
-31.0136
0
LINE
8
Black
10
47.8434
20
-31.0136
11
48.3197
21
-30.8168
0
LINE
8
Black
10
48.3197
20
-30.8168
11
48.6844
21
-30.4527
0
LINE
8
Black
10
48.6844
20
-30.4527
11
48.852
21
-30.0493
0
LINE
8
Black
10
48.852
20
-30.0493
11
48.8603
21
-30.0363
0
LINE
8
Black
10
48.8603
20
-30.0363
11
48.868
21
-30.023
0
LINE
8
Black
10
48.868
20
-30.023
11
48.8697
21
-30.0215
0
LINE
8
Black
10
48.8697
20
-30.0215
11
48.871
21
-30.0196
0
LINE
8
Black
10
48.871
20
-30.0196
11
48.8832
21
-30.0102
0
LINE
8
Black
10
48.8832
20
-30.0102
11
48.895
21
-30.0003
0
LINE
8
Black
10
48.895
20
-30.0003
11
48.8971
21
-29.9995
0
LINE
8
Black
10
48.8971
20
-29.9995
11
48.899
21
-29.9981
0
LINE
8
Black
10
48.899
20
-29.9981
11
48.9137
21
-29.9935
0
LINE
8
Black
10
48.9137
20
-29.9935
11
48.9282
21
-29.9882
0
LINE
8
Black
10
48.9282
20
-29.9882
11
48.9304
21
-29.9882
0
LINE
8
Black
10
48.9304
20
-29.9882
11
48.9326
21
-29.9875
0
LINE
8
Black
10
48.9326
20
-29.9875
11
48.948
21
-29.9882
0
LINE
8
Black
10
48.948
20
-29.9882
11
48.9634
21
-29.9882
0
LINE
8
Black
10
48.9634
20
-29.9882
11
48.9656
21
-29.989
0
LINE
8
Black
10
48.9656
20
-29.989
11
48.9679
21
-29.9891
0
LINE
8
Black
10
48.9679
20
-29.9891
11
48.9821
21
-29.995
0
LINE
8
Black
10
48.9821
20
-29.995
11
48.9966
21
-30.0003
0
LINE
8
Black
10
48.9966
20
-30.0003
11
48.9984
21
-30.0018
0
LINE
8
Black
10
48.9984
20
-30.0018
11
49.0005
21
-30.0026
0
LINE
8
Black
10
49.0005
20
-30.0026
11
49.0118
21
-30.013
0
LINE
8
Black
10
49.0118
20
-30.013
11
49.0236
21
-30.023
0
LINE
8
Black
10
49.0236
20
-30.023
11
49.0248
21
-30.0249
0
LINE
8
Black
10
49.0248
20
-30.0249
11
49.0265
21
-30.0265
0
LINE
8
Black
10
49.0265
20
-30.0265
11
49.0336
21
-30.0402
0
LINE
8
Black
10
49.0336
20
-30.0402
11
49.0413
21
-30.0535
0
LINE
8
Black
10
49.0413
20
-30.0535
11
49.0417
21
-30.0558
0
LINE
8
Black
10
49.0417
20
-30.0558
11
49.0427
21
-30.0578
0
LINE
8
Black
10
49.0427
20
-30.0578
11
49.0447
21
-30.0731
0
LINE
8
Black
10
49.0447
20
-30.0731
11
49.0474
21
-30.0883
0
LINE
8
Black
10
49.0474
20
-30.0883
11
49.0474
21
-33.8503
0
LINE
8
Black
10
49.0474
20
-33.8503
11
49.0454
21
-33.8618
0
LINE
8
Black
10
49.0454
20
-33.8618
11
49.0448
21
-33.8733
0
LINE
8
Black
10
49.0448
20
-33.8733
11
49.0423
21
-33.879
0
LINE
8
Black
10
49.0423
20
-33.879
11
49.0413
21
-33.8851
0
LINE
8
Black
10
49.0413
20
-33.8851
11
49.0355
21
-33.8951
0
LINE
8
Black
10
49.0355
20
-33.8951
11
49.0309
21
-33.9058
0
LINE
8
Black
10
49.0309
20
-33.9058
11
49.0267
21
-33.9103
0
LINE
8
Black
10
49.0267
20
-33.9103
11
49.0236
21
-33.9156
0
LINE
8
Black
10
49.0236
20
-33.9156
11
49.0147
21
-33.9231
0
LINE
8
Black
10
49.0147
20
-33.9231
11
49.0068
21
-33.9316
0
LINE
8
Black
10
49.0068
20
-33.9316
11
49.0013
21
-33.9343
0
LINE
8
Black
10
49.0013
20
-33.9343
11
48.9966
21
-33.9383
0
LINE
8
Black
10
48.9966
20
-33.9383
11
48.9857
21
-33.9423
0
LINE
8
Black
10
48.9857
20
-33.9423
11
48.9753
21
-33.9475
0
LINE
8
Black
10
48.9753
20
-33.9475
11
48.9692
21
-33.9483
0
LINE
8
Black
10
48.9692
20
-33.9483
11
48.9634
21
-33.9504
0
LINE
8
Black
10
48.9634
20
-33.9504
11
48.9518
21
-33.9504
0
LINE
8
Black
10
48.9518
20
-33.9504
11
48.9403
21
-33.9518
0
LINE
8
Black
10
48.9403
20
-33.9518
11
48.9343
21
-33.9504
0
LINE
8
Black
10
48.9343
20
-33.9504
11
48.9282
21
-33.9504
0
LINE
8
Black
10
48.9282
20
-33.9504
11
48.9172
21
-33.9464
0
LINE
8
Black
10
48.9172
20
-33.9464
11
48.9059
21
-33.9438
0
LINE
8
Black
10
48.9059
20
-33.9438
11
48.8319
21
-33.9122
0
LINE
8
Black
10
48.8319
20
-33.9122
11
48.6649
21
-34.0792
0
LINE
8
Black
10
48.6649
20
-34.0792
11
48.5172
21
-34.2269
0
LINE
8
Black
10
48.5172
20
-34.2269
11
48.5364
21
-34.2498
0
LINE
8
Black
10
48.5364
20
-34.2498
11
48.6666
21
-34.6076
0
LINE
8
Black
10
48.6666
20
-34.6076
11
48.6666
21
-34.9884
0
LINE
8
Black
10
48.6666
20
-34.9884
11
48.5364
21
-35.3462
0
LINE
8
Black
10
48.5364
20
-35.3462
11
48.5172
21
-35.3691
0
LINE
8
Black
10
48.5172
20
-35.3691
11
48.8319
21
-35.6838
0
LINE
8
Black
10
48.8319
20
-35.6838
11
48.9059
21
-35.6522
0
LINE
8
Black
10
48.9059
20
-35.6522
11
48.9172
21
-35.6496
0
LINE
8
Black
10
48.9172
20
-35.6496
11
48.9282
21
-35.6456
0
LINE
8
Black
10
48.9282
20
-35.6456
11
48.9343
21
-35.6456
0
LINE
8
Black
10
48.9343
20
-35.6456
11
48.9403
21
-35.6442
0
LINE
8
Black
10
48.9403
20
-35.6442
11
48.9518
21
-35.6456
0
LINE
8
Black
10
48.9518
20
-35.6456
11
48.9634
21
-35.6456
0
LINE
8
Black
10
48.9634
20
-35.6456
11
48.9692
21
-35.6477
0
LINE
8
Black
10
48.9692
20
-35.6477
11
48.9753
21
-35.6485
0
LINE
8
Black
10
48.9753
20
-35.6485
11
48.9857
21
-35.6537
0
LINE
8
Black
10
48.9857
20
-35.6537
11
48.9966
21
-35.6577
0
LINE
8
Black
10
48.9966
20
-35.6577
11
49.0013
21
-35.6617
0
LINE
8
Black
10
49.0013
20
-35.6617
11
49.0068
21
-35.6644
0
LINE
8
Black
10
49.0068
20
-35.6644
11
49.0147
21
-35.6729
0
LINE
8
Black
10
49.0147
20
-35.6729
11
49.0236
21
-35.6804
0
LINE
8
Black
10
49.0236
20
-35.6804
11
49.0267
21
-35.6857
0
LINE
8
Black
10
49.0267
20
-35.6857
11
49.0309
21
-35.6902
0
LINE
8
Black
10
49.0309
20
-35.6902
11
49.0355
21
-35.7009
0
LINE
8
Black
10
49.0355
20
-35.7009
11
49.0413
21
-35.7109
0
LINE
8
Black
10
49.0413
20
-35.7109
11
49.0423
21
-35.717
0
LINE
8
Black
10
49.0423
20
-35.717
11
49.0448
21
-35.7227
0
LINE
8
Black
10
49.0448
20
-35.7227
11
49.0454
21
-35.7343
0
LINE
8
Black
10
49.0454
20
-35.7343
11
49.0474
21
-35.7457
0
LINE
8
Black
10
49.0474
20
-35.7457
11
49.0474
21
-36.9685
0
LINE
8
Black
10
49.0474
20
-36.9685
11
49.0447
21
-36.9838
0
LINE
8
Black
10
49.0447
20
-36.9838
11
49.0427
21
-36.9992
0
LINE
8
Black
10
49.0427
20
-36.9992
11
49.0417
21
-37.0011
0
LINE
8
Black
10
49.0417
20
-37.0011
11
49.0413
21
-37.0033
0
LINE
8
Black
10
49.0413
20
-37.0033
11
49.0335
21
-37.0167
0
LINE
8
Black
10
49.0335
20
-37.0167
11
49.0264
21
-37.0305
0
LINE
8
Black
10
49.0264
20
-37.0305
11
49.0247
21
-37.0319
0
LINE
8
Black
10
49.0247
20
-37.0319
11
49.0236
21
-37.0339
0
LINE
8
Black
10
49.0236
20
-37.0339
11
49.0118
21
-37.0438
0
LINE
8
Black
10
49.0118
20
-37.0438
11
49.0003
21
-37.0543
0
LINE
8
Black
10
49.0003
20
-37.0543
11
48.9983
21
-37.0551
0
LINE
8
Black
10
48.9983
20
-37.0551
11
48.9966
21
-37.0565
0
LINE
8
Black
10
48.9966
20
-37.0565
11
48.982
21
-37.0618
0
LINE
8
Black
10
48.982
20
-37.0618
11
48.9677
21
-37.0678
0
LINE
8
Black
10
48.9677
20
-37.0678
11
48.9655
21
-37.0678
0
LINE
8
Black
10
48.9655
20
-37.0678
11
48.9634
21
-37.0686
0
LINE
8
Black
10
48.9634
20
-37.0686
11
48.9479
21
-37.0686
0
LINE
8
Black
10
48.9479
20
-37.0686
11
48.9325
21
-37.0693
0
LINE
8
Black
10
48.9325
20
-37.0693
11
48.9304
21
-37.0686
0
LINE
8
Black
10
48.9304
20
-37.0686
11
48.9282
21
-37.0686
0
LINE
8
Black
10
48.9282
20
-37.0686
11
48.9136
21
-37.0633
0
LINE
8
Black
10
48.9136
20
-37.0633
11
48.8988
21
-37.0586
0
LINE
8
Black
10
48.8988
20
-37.0586
11
48.8971
21
-37.0573
0
LINE
8
Black
10
48.8971
20
-37.0573
11
48.895
21
-37.0565
0
LINE
8
Black
10
48.895
20
-37.0565
11
48.8831
21
-37.0466
0
LINE
8
Black
10
48.8831
20
-37.0466
11
48.8708
21
-37.0371
0
LINE
8
Black
10
48.8708
20
-37.0371
11
48.8697
21
-37.0353
0
LINE
8
Black
10
48.8697
20
-37.0353
11
48.868
21
-37.0339
0
LINE
8
Black
10
48.868
20
-37.0339
11
48.8602
21
-37.0204
0
LINE
8
Black
10
48.8602
20
-37.0204
11
48.8519
21
-37.0073
0
LINE
8
Black
10
48.8519
20
-37.0073
11
48.6857
21
-36.6052
0
LINE
8
Black
10
48.6857
20
-36.6052
11
48.4169
21
-36.3359
0
LINE
8
Black
10
48.4169
20
-36.3359
11
48.4128
21
-36.33
0
LINE
8
Black
10
48.4128
20
-36.33
11
48.4076
21
-36.3251
0
LINE
8
Black
10
48.4076
20
-36.3251
11
48.4028
21
-36.3157
0
LINE
8
Black
10
48.4028
20
-36.3157
11
48.3967
21
-36.307
0
LINE
8
Black
10
48.3967
20
-36.307
11
48.3949
21
-36.3001
0
LINE
8
Black
10
48.3949
20
-36.3001
11
48.3916
21
-36.2937
0
LINE
8
Black
10
48.3916
20
-36.2937
11
48.3904
21
-36.2831
0
LINE
8
Black
10
48.3904
20
-36.2831
11
48.3876
21
-36.2729
0
LINE
8
Black
10
48.3876
20
-36.2729
11
48.3883
21
-36.2658
0
LINE
8
Black
10
48.3883
20
-36.2658
11
48.3874
21
-36.2586
0
LINE
8
Black
10
48.3874
20
-36.2586
11
48.3898
21
-36.2483
0
LINE
8
Black
10
48.3898
20
-36.2483
11
48.3907
21
-36.2378
0
LINE
8
Black
10
48.3907
20
-36.2378
11
48.3938
21
-36.2313
0
LINE
8
Black
10
48.3938
20
-36.2313
11
48.3954
21
-36.2243
0
LINE
8
Black
10
48.3954
20
-36.2243
11
48.4727
21
-36.043
0
LINE
8
Black
10
48.4727
20
-36.043
11
48.1496
21
-35.7199
0
LINE
8
Black
10
48.1496
20
-35.7199
11
47.9619
21
-35.8283
0
LINE
8
Black
10
47.1886
20
-78.9353
11
46.7714
21
-79.1081
0
LINE
8
Black
10
46.7714
20
-79.1081
11
46.7655
21
-79.1219
0
LINE
8
Black
10
46.7655
20
-79.1219
11
47.1609
21
-79.5172
0
LINE
8
Black
10
47.1609
20
-79.5172
11
47.2119
21
-79.4877
0
LINE
8
Black
10
47.2119
20
-79.4877
11
47.5869
21
-79.4216
0
LINE
8
Black
10
47.5869
20
-79.4216
11
47.9619
21
-79.4877
0
LINE
8
Black
10
47.9619
20
-79.4877
11
48.1496
21
-79.5961
0
LINE
8
Black
10
48.1496
20
-79.5961
11
48.4727
21
-79.273
0
LINE
8
Black
10
48.4727
20
-79.273
11
48.4035
21
-79.1108
0
LINE
8
Black
10
48.4035
20
-79.1108
11
47.827
21
-78.9042
0
LINE
8
Black
10
47.827
20
-78.9042
11
47.1886
21
-78.9353
0
LINE
8
Black
10
37.2423
20
-72.8122
11
36.6544
21
-72.5681
0
LINE
8
Black
10
36.6544
20
-72.5681
11
36.0178
21
-72.5675
0
LINE
8
Black
10
36.0178
20
-72.5675
11
35.4294
21
-72.8106
0
LINE
8
Black
10
35.4294
20
-72.8106
11
34.9789
21
-73.2604
0
LINE
8
Black
10
34.9789
20
-73.2604
11
34.7348
21
-73.8483
0
LINE
8
Black
10
34.7348
20
-73.8483
11
34.7342
21
-74.4849
0
LINE
8
Black
10
34.7342
20
-74.4849
11
34.9773
21
-75.0733
0
LINE
8
Black
10
34.9773
20
-75.0733
11
35.4271
21
-75.5238
0
LINE
8
Black
10
35.4271
20
-75.5238
11
36.015
21
-75.7679
0
LINE
8
Black
10
36.015
20
-75.7679
11
36.6516
21
-75.7685
0
LINE
8
Black
10
36.6516
20
-75.7685
11
37.24
21
-75.5254
0
LINE
8
Black
10
37.24
20
-75.5254
11
37.6905
21
-75.0756
0
LINE
8
Black
10
37.6905
20
-75.0756
11
37.9346
21
-74.4877
0
LINE
8
Black
10
37.9346
20
-74.4877
11
37.9352
21
-73.8511
0
LINE
8
Black
10
37.9352
20
-73.8511
11
37.6921
21
-73.2627
0
LINE
8
Black
10
37.6921
20
-73.2627
11
37.2423
21
-72.8122
0
LINE
8
Black
10
47.1886
20
-71.3153
11
46.7714
21
-71.4881
0
LINE
8
Black
10
46.7714
20
-71.4881
11
46.7655
21
-71.5019
0
LINE
8
Black
10
46.7655
20
-71.5019
11
47.1609
21
-71.8972
0
LINE
8
Black
10
47.1609
20
-71.8972
11
47.2119
21
-71.8677
0
LINE
8
Black
10
47.2119
20
-71.8677
11
47.5869
21
-71.8016
0
LINE
8
Black
10
47.5869
20
-71.8016
11
47.9619
21
-71.8677
0
LINE
8
Black
10
47.9619
20
-71.8677
11
48.1496
21
-71.9761
0
LINE
8
Black
10
48.1496
20
-71.9761
11
48.4727
21
-71.653
0
LINE
8
Black
10
48.4727
20
-71.653
11
48.4035
21
-71.4908
0
LINE
8
Black
10
48.4035
20
-71.4908
11
47.827
21
-71.2842
0
LINE
8
Black
10
47.827
20
-71.2842
11
47.1886
21
-71.3153
0
LINE
8
Black
10
47.1886
20
-63.6953
11
46.7714
21
-63.8681
0
LINE
8
Black
10
46.7714
20
-63.8681
11
46.7655
21
-63.8819
0
LINE
8
Black
10
46.7655
20
-63.8819
11
47.1609
21
-64.2772
0
LINE
8
Black
10
47.1609
20
-64.2772
11
47.2119
21
-64.2477
0
LINE
8
Black
10
47.2119
20
-64.2477
11
47.5869
21
-64.1816
0
LINE
8
Black
10
47.5869
20
-64.1816
11
47.9619
21
-64.2477
0
LINE
8
Black
10
47.9619
20
-64.2477
11
48.1496
21
-64.3561
0
LINE
8
Black
10
48.1496
20
-64.3561
11
48.4727
21
-64.033
0
LINE
8
Black
10
48.4727
20
-64.033
11
48.4035
21
-63.8708
0
LINE
8
Black
10
48.4035
20
-63.8708
11
47.827
21
-63.6642
0
LINE
8
Black
10
47.827
20
-63.6642
11
47.1886
21
-63.6953
0
LINE
8
Black
10
47.1886
20
-56.0753
11
46.7714
21
-56.2481
0
LINE
8
Black
10
46.7714
20
-56.2481
11
46.7655
21
-56.2619
0
LINE
8
Black
10
46.7655
20
-56.2619
11
47.1609
21
-56.6572
0
LINE
8
Black
10
47.1609
20
-56.6572
11
47.2119
21
-56.6277
0
LINE
8
Black
10
47.2119
20
-56.6277
11
47.5869
21
-56.5616
0
LINE
8
Black
10
47.5869
20
-56.5616
11
47.9619
21
-56.6277
0
LINE
8
Black
10
47.9619
20
-56.6277
11
48.1496
21
-56.7361
0
LINE
8
Black
10
48.1496
20
-56.7361
11
48.4727
21
-56.413
0
LINE
8
Black
10
48.4727
20
-56.413
11
48.4035
21
-56.2508
0
LINE
8
Black
10
48.4035
20
-56.2508
11
47.827
21
-56.0442
0
LINE
8
Black
10
47.827
20
-56.0442
11
47.1886
21
-56.0753
0
LINE
8
Black
10
47.1886
20
-48.4553
11
46.7714
21
-48.6281
0
LINE
8
Black
10
46.7714
20
-48.6281
11
46.7655
21
-48.6419
0
LINE
8
Black
10
46.7655
20
-48.6419
11
47.1609
21
-49.0372
0
LINE
8
Black
10
47.1609
20
-49.0372
11
47.2119
21
-49.0077
0
LINE
8
Black
10
47.2119
20
-49.0077
11
47.5869
21
-48.9416
0
LINE
8
Black
10
47.5869
20
-48.9416
11
47.9619
21
-49.0077
0
LINE
8
Black
10
47.9619
20
-49.0077
11
48.1496
21
-49.1161
0
LINE
8
Black
10
48.1496
20
-49.1161
11
48.4727
21
-48.793
0
LINE
8
Black
10
48.4727
20
-48.793
11
48.4035
21
-48.6308
0
LINE
8
Black
10
48.4035
20
-48.6308
11
47.827
21
-48.4242
0
LINE
8
Black
10
47.827
20
-48.4242
11
47.1886
21
-48.4553
0
LINE
8
Black
10
47.1886
20
-40.8353
11
46.7714
21
-41.0081
0
LINE
8
Black
10
46.7714
20
-41.0081
11
46.7655
21
-41.0219
0
LINE
8
Black
10
46.7655
20
-41.0219
11
47.1609
21
-41.4172
0
LINE
8
Black
10
47.1609
20
-41.4172
11
47.2119
21
-41.3877
0
LINE
8
Black
10
47.2119
20
-41.3877
11
47.5869
21
-41.3216
0
LINE
8
Black
10
47.5869
20
-41.3216
11
47.9619
21
-41.3877
0
LINE
8
Black
10
47.9619
20
-41.3877
11
48.1496
21
-41.4961
0
LINE
8
Black
10
48.1496
20
-41.4961
11
48.4727
21
-41.173
0
LINE
8
Black
10
48.4727
20
-41.173
11
48.4035
21
-41.0108
0
LINE
8
Black
10
48.4035
20
-41.0108
11
47.827
21
-40.8042
0
LINE
8
Black
10
47.827
20
-40.8042
11
47.1886
21
-40.8353
0
LINE
8
Black
10
35.4294
20
-34.7106
11
34.9789
21
-35.1604
0
LINE
8
Black
10
34.9789
20
-35.1604
11
34.7348
21
-35.7483
0
LINE
8
Black
10
34.7348
20
-35.7483
11
34.7342
21
-36.3849
0
LINE
8
Black
10
34.7342
20
-36.3849
11
34.9773
21
-36.9733
0
LINE
8
Black
10
34.9773
20
-36.9733
11
35.4271
21
-37.4238
0
LINE
8
Black
10
35.4271
20
-37.4238
11
36.015
21
-37.6679
0
LINE
8
Black
10
36.015
20
-37.6679
11
36.6516
21
-37.6685
0
LINE
8
Black
10
36.6516
20
-37.6685
11
37.24
21
-37.4254
0
LINE
8
Black
10
37.24
20
-37.4254
11
37.6905
21
-36.9756
0
LINE
8
Black
10
37.6905
20
-36.9756
11
37.9346
21
-36.3877
0
LINE
8
Black
10
37.9346
20
-36.3877
11
37.9352
21
-35.7511
0
LINE
8
Black
10
37.9352
20
-35.7511
11
37.6921
21
-35.1627
0
LINE
8
Black
10
37.6921
20
-35.1627
11
37.2423
21
-34.7122
0
LINE
8
Black
10
37.2423
20
-34.7122
11
36.6544
21
-34.4681
0
LINE
8
Black
10
36.6544
20
-34.4681
11
36.0178
21
-34.4675
0
LINE
8
Black
10
36.0178
20
-34.4675
11
35.4294
21
-34.7106
0
LINE
8
Black
10
47.1886
20
-33.2153
11
46.7714
21
-33.3881
0
LINE
8
Black
10
46.7714
20
-33.3881
11
46.7655
21
-33.4019
0
LINE
8
Black
10
46.7655
20
-33.4019
11
47.1609
21
-33.7972
0
LINE
8
Black
10
47.1609
20
-33.7972
11
47.2119
21
-33.7677
0
LINE
8
Black
10
47.2119
20
-33.7677
11
47.5869
21
-33.7016
0
LINE
8
Black
10
47.5869
20
-33.7016
11
47.9619
21
-33.7677
0
LINE
8
Black
10
47.9619
20
-33.7677
11
48.1496
21
-33.8761
0
LINE
8
Black
10
48.1496
20
-33.8761
11
48.4727
21
-33.553
0
LINE
8
Black
10
48.4727
20
-33.553
11
48.4035
21
-33.3908
0
LINE
8
Black
10
48.4035
20
-33.3908
11
47.827
21
-33.1842
0
LINE
8
Black
10
47.827
20
-33.1842
11
47.1886
21
-33.2153
0
LINE
8
Black
10
46.5072
20
-80.7084
11
46.5072
21
-80.3276
0
LINE
8
Black
10
46.5072
20
-80.3276
11
46.5911
21
-80.097
0
LINE
8
Black
10
46.5911
20
-80.097
11
46.1908
21
-79.6966
0
LINE
8
Black
10
46.1908
20
-79.6966
11
46.1797
21
-79.7014
0
LINE
8
Black
10
46.1797
20
-79.7014
11
45.9731
21
-80.2779
0
LINE
8
Black
10
45.9731
20
-80.2779
11
46.0042
21
-80.9163
0
LINE
8
Black
10
46.0042
20
-80.9163
11
46.177
21
-81.3335
0
LINE
8
Black
10
46.177
20
-81.3335
11
46.3419
21
-81.4038
0
LINE
8
Black
10
46.3419
20
-81.4038
11
46.6566
21
-81.0891
0
LINE
8
Black
10
46.6566
20
-81.0891
11
46.6374
21
-81.0662
0
LINE
8
Black
10
46.6374
20
-81.0662
11
46.5072
21
-80.7084
0
LINE
8
Black
10
46.5072
20
-72.7076
11
46.5911
21
-72.477
0
LINE
8
Black
10
46.5911
20
-72.477
11
46.1908
21
-72.0766
0
LINE
8
Black
10
46.1908
20
-72.0766
11
46.1797
21
-72.0814
0
LINE
8
Black
10
46.1797
20
-72.0814
11
45.9731
21
-72.6579
0
LINE
8
Black
10
45.9731
20
-72.6579
11
46.0042
21
-73.2963
0
LINE
8
Black
10
46.0042
20
-73.2963
11
46.177
21
-73.7135
0
LINE
8
Black
10
46.177
20
-73.7135
11
46.1908
21
-73.7194
0
LINE
8
Black
10
46.1908
20
-73.7194
11
46.5911
21
-73.319
0
LINE
8
Black
10
46.5911
20
-73.319
11
46.5072
21
-73.0884
0
LINE
8
Black
10
46.5072
20
-73.0884
11
46.5072
21
-72.7076
0
LINE
8
Black
10
46.5072
20
-65.0876
11
46.5911
21
-64.857
0
LINE
8
Black
10
46.5911
20
-64.857
11
46.1908
21
-64.4566
0
LINE
8
Black
10
46.1908
20
-64.4566
11
46.1797
21
-64.4614
0
LINE
8
Black
10
46.1797
20
-64.4614
11
45.9731
21
-65.0379
0
LINE
8
Black
10
45.9731
20
-65.0379
11
46.0042
21
-65.6763
0
LINE
8
Black
10
46.0042
20
-65.6763
11
46.177
21
-66.0935
0
LINE
8
Black
10
46.177
20
-66.0935
11
46.1908
21
-66.0994
0
LINE
8
Black
10
46.1908
20
-66.0994
11
46.5911
21
-65.699
0
LINE
8
Black
10
46.5911
20
-65.699
11
46.5072
21
-65.4684
0
LINE
8
Black
10
46.5072
20
-65.4684
11
46.5072
21
-65.0876
0
LINE
8
Black
10
46.5072
20
-57.4676
11
46.5911
21
-57.237
0
LINE
8
Black
10
46.5911
20
-57.237
11
46.1908
21
-56.8366
0
LINE
8
Black
10
46.1908
20
-56.8366
11
46.1797
21
-56.8414
0
LINE
8
Black
10
46.1797
20
-56.8414
11
45.9731
21
-57.4179
0
LINE
8
Black
10
45.9731
20
-57.4179
11
46.0042
21
-58.0563
0
LINE
8
Black
10
46.0042
20
-58.0563
11
46.177
21
-58.4735
0
LINE
8
Black
10
46.177
20
-58.4735
11
46.1908
21
-58.4794
0
LINE
8
Black
10
46.1908
20
-58.4794
11
46.5911
21
-58.079
0
LINE
8
Black
10
46.5911
20
-58.079
11
46.5072
21
-57.8484
0
LINE
8
Black
10
46.5072
20
-57.8484
11
46.5072
21
-57.4676
0
LINE
8
Black
10
46.5072
20
-49.8476
11
46.5911
21
-49.617
0
LINE
8
Black
10
46.5911
20
-49.617
11
46.1908
21
-49.2166
0
LINE
8
Black
10
46.1908
20
-49.2166
11
46.1797
21
-49.2214
0
LINE
8
Black
10
46.1797
20
-49.2214
11
45.9731
21
-49.7979
0
LINE
8
Black
10
45.9731
20
-49.7979
11
46.0042
21
-50.4363
0
LINE
8
Black
10
46.0042
20
-50.4363
11
46.177
21
-50.8535
0
LINE
8
Black
10
46.177
20
-50.8535
11
46.1908
21
-50.8594
0
LINE
8
Black
10
46.1908
20
-50.8594
11
46.5911
21
-50.459
0
LINE
8
Black
10
46.5911
20
-50.459
11
46.5072
21
-50.2284
0
LINE
8
Black
10
46.5072
20
-50.2284
11
46.5072
21
-49.8476
0
LINE
8
Black
10
46.5072
20
-42.2276
11
46.5911
21
-41.997
0
LINE
8
Black
10
46.5911
20
-41.997
11
46.1908
21
-41.5966
0
LINE
8
Black
10
46.1908
20
-41.5966
11
46.1797
21
-41.6014
0
LINE
8
Black
10
46.1797
20
-41.6014
11
45.9731
21
-42.1779
0
LINE
8
Black
10
45.9731
20
-42.1779
11
46.0042
21
-42.8163
0
LINE
8
Black
10
46.0042
20
-42.8163
11
46.177
21
-43.2335
0
LINE
8
Black
10
46.177
20
-43.2335
11
46.1908
21
-43.2394
0
LINE
8
Black
10
46.1908
20
-43.2394
11
46.5911
21
-42.839
0
LINE
8
Black
10
46.5911
20
-42.839
11
46.5072
21
-42.6084
0
LINE
8
Black
10
46.5072
20
-42.6084
11
46.5072
21
-42.2276
0
LINE
8
Black
10
46.5072
20
-34.6076
11
46.5911
21
-34.377
0
LINE
8
Black
10
46.5911
20
-34.377
11
46.1908
21
-33.9766
0
LINE
8
Black
10
46.1908
20
-33.9766
11
46.1797
21
-33.9814
0
LINE
8
Black
10
46.1797
20
-33.9814
11
45.9731
21
-34.5579
0
LINE
8
Black
10
45.9731
20
-34.5579
11
46.0042
21
-35.1963
0
LINE
8
Black
10
46.0042
20
-35.1963
11
46.177
21
-35.6135
0
LINE
8
Black
10
46.177
20
-35.6135
11
46.1908
21
-35.6194
0
LINE
8
Black
10
46.1908
20
-35.6194
11
46.5911
21
-35.219
0
LINE
8
Black
10
46.5911
20
-35.219
11
46.5072
21
-34.9884
0
LINE
8
Black
10
46.5072
20
-34.9884
11
46.5072
21
-34.6076
0
LINE
8
Black
10
46.1797
20
-26.3614
11
45.9731
21
-26.9379
0
LINE
8
Black
10
45.9731
20
-26.9379
11
46.0042
21
-27.5763
0
LINE
8
Black
10
46.0042
20
-27.5763
11
46.177
21
-27.9935
0
LINE
8
Black
10
46.177
20
-27.9935
11
46.1908
21
-27.9994
0
LINE
8
Black
10
46.1908
20
-27.9994
11
46.5911
21
-27.599
0
LINE
8
Black
10
46.5911
20
-27.599
11
46.5072
21
-27.3684
0
LINE
8
Black
10
46.5072
20
-27.3684
11
46.5072
21
-26.9876
0
LINE
8
Black
10
46.5072
20
-26.9876
11
46.6374
21
-26.6298
0
LINE
8
Black
10
46.6374
20
-26.6298
11
46.6566
21
-26.6069
0
LINE
8
Black
10
46.6566
20
-26.6069
11
46.3419
21
-26.2922
0
LINE
8
Black
10
46.3419
20
-26.2922
11
46.1797
21
-26.3614
0
CIRCLE
8
Black
10
31.75
20
-61.3408
40
0.3175
  0
ENDSEC
  0
EOF
