  0
SECTION
  2
HEADER
  9
$ANGBASE
  50
0.0
  9
$ANGDIR
  70
  1
  9
$MEASUREMENT
  70
0
  0
ENDSEC
  0
SECTION
  2
TABLES
  0
TABLE
  2
LTYPE
  70
1
  0
LTYPE
  2
CONTINUOUS
  70
0
  3
Solid line
  72
65
  73
0
  40
0.0
  0
ENDTAB
  0
TABLE
  2
STYLE
  70
4
  0
STYLE
  2
KICAD
  70
0
  40
0
  41
1
  42
1
  50
0
  71
0
  3
isocp.shx
  0
STYLE
  2
KICADB
  70
0
  40
0
  41
1
  42
1
  50
0
  71
0
  3
isocp.shx
  0
STYLE
  2
KICADI
  70
0
  40
0
  41
1
  42
1
  50
15
  71
0
  3
isocp.shx
  0
STYLE
  2
KICADBI
  70
0
  40
0
  41
1
  42
1
  50
15
  71
0
  3
isocp.shx
  0
ENDTAB
  0
TABLE
  2
LAYER
  70
30
  0
LAYER
  2
BLACK
  70
0
  62
7
  6
CONTINUOUS
  0
LAYER
  2
GRAY1
  70
0
  62
251
  6
CONTINUOUS
  0
LAYER
  2
GRAY2
  70
0
  62
8
  6
CONTINUOUS
  0
LAYER
  2
GRAY3
  70
0
  62
9
  6
CONTINUOUS
  0
LAYER
  2
WHITE
  70
0
  62
7
  6
CONTINUOUS
  0
LAYER
  2
LYELLOW
  70
0
  62
51
  6
CONTINUOUS
  0
LAYER
  2
BLUE1
  70
0
  62
178
  6
CONTINUOUS
  0
LAYER
  2
GREEN1
  70
0
  62
98
  6
CONTINUOUS
  0
LAYER
  2
CYAN1
  70
0
  62
138
  6
CONTINUOUS
  0
LAYER
  2
RED1
  70
0
  62
18
  6
CONTINUOUS
  0
LAYER
  2
MAGENTA1
  70
0
  62
228
  6
CONTINUOUS
  0
LAYER
  2
BROWN1
  70
0
  62
58
  6
CONTINUOUS
  0
LAYER
  2
BLUE2
  70
0
  62
5
  6
CONTINUOUS
  0
LAYER
  2
GREEN2
  70
0
  62
3
  6
CONTINUOUS
  0
LAYER
  2
CYAN2
  70
0
  62
4
  6
CONTINUOUS
  0
LAYER
  2
RED2
  70
0
  62
1
  6
CONTINUOUS
  0
LAYER
  2
MAGENTA2
  70
0
  62
6
  6
CONTINUOUS
  0
LAYER
  2
BROWN2
  70
0
  62
54
  6
CONTINUOUS
  0
LAYER
  2
BLUE3
  70
0
  62
171
  6
CONTINUOUS
  0
LAYER
  2
GREEN3
  70
0
  62
91
  6
CONTINUOUS
  0
LAYER
  2
CYAN3
  70
0
  62
131
  6
CONTINUOUS
  0
LAYER
  2
RED3
  70
0
  62
11
  6
CONTINUOUS
  0
LAYER
  2
MAGENTA3
  70
0
  62
221
  6
CONTINUOUS
  0
LAYER
  2
YELLOW3
  70
0
  62
2
  6
CONTINUOUS
  0
LAYER
  2
BLUE4
  70
0
  62
5
  6
CONTINUOUS
  0
LAYER
  2
GREEN4
  70
0
  62
3
  6
CONTINUOUS
  0
LAYER
  2
CYAN4
  70
0
  62
4
  6
CONTINUOUS
  0
LAYER
  2
RED4
  70
0
  62
1
  6
CONTINUOUS
  0
LAYER
  2
MAGENTA4
  70
0
  62
6
  6
CONTINUOUS
  0
LAYER
  2
YELLOW4
  70
0
  62
2
  6
CONTINUOUS
  0
ENDTAB
  0
ENDSEC
  0
SECTION
  2
ENTITIES
0
LINE
8
Black
10
59.9486
20
-32.1919
11
61.3242
21
-32.9861
0
LINE
8
Black
10
61.3242
20
-32.9861
11
62.3452
21
-34.2028
0
LINE
8
Black
10
62.3452
20
-34.2028
11
62.8884
21
-35.6954
0
LINE
8
Black
10
62.8884
20
-35.6954
11
62.8884
21
-37.2838
0
LINE
8
Black
10
62.8884
20
-37.2838
11
62.3452
21
-38.7764
0
LINE
8
Black
10
62.3452
20
-38.7764
11
61.3242
21
-39.9931
0
LINE
8
Black
10
61.3242
20
-39.9931
11
59.9486
21
-40.7873
0
LINE
8
Black
10
59.9486
20
-40.7873
11
58.3844
21
-41.0631
0
LINE
8
Black
10
58.3844
20
-41.0631
11
56.8202
21
-40.7873
0
LINE
8
Black
10
56.8202
20
-40.7873
11
55.4446
21
-39.9931
0
LINE
8
Black
10
55.4446
20
-39.9931
11
54.4236
21
-38.7764
0
LINE
8
Black
10
54.4236
20
-38.7764
11
53.8804
21
-37.2838
0
LINE
8
Black
10
53.8804
20
-37.2838
11
53.8804
21
-35.6954
0
LINE
8
Black
10
53.8804
20
-35.6954
11
54.4236
21
-34.2028
0
LINE
8
Black
10
54.4236
20
-34.2028
11
55.4446
21
-32.9861
0
LINE
8
Black
10
55.4446
20
-32.9861
11
56.8202
21
-32.1919
0
LINE
8
Black
10
56.8202
20
-32.1919
11
58.3844
21
-31.9161
0
LINE
8
Black
10
58.3844
20
-31.9161
11
59.9486
21
-32.1919
0
LINE
8
Black
10
59.9486
20
-69.7535
11
61.3242
21
-70.5477
0
LINE
8
Black
10
61.3242
20
-70.5477
11
62.3452
21
-71.7644
0
LINE
8
Black
10
62.3452
20
-71.7644
11
62.8884
21
-73.257
0
LINE
8
Black
10
62.8884
20
-73.257
11
62.8884
21
-74.8454
0
LINE
8
Black
10
62.8884
20
-74.8454
11
62.3452
21
-76.338
0
LINE
8
Black
10
62.3452
20
-76.338
11
61.3242
21
-77.5547
0
LINE
8
Black
10
61.3242
20
-77.5547
11
59.9486
21
-78.3489
0
LINE
8
Black
10
59.9486
20
-78.3489
11
58.3844
21
-78.6247
0
LINE
8
Black
10
58.3844
20
-78.6247
11
56.8202
21
-78.3489
0
LINE
8
Black
10
56.8202
20
-78.3489
11
55.4446
21
-77.5547
0
LINE
8
Black
10
55.4446
20
-77.5547
11
54.4236
21
-76.338
0
LINE
8
Black
10
54.4236
20
-76.338
11
53.8804
21
-74.8454
0
LINE
8
Black
10
53.8804
20
-74.8454
11
53.8804
21
-73.257
0
LINE
8
Black
10
53.8804
20
-73.257
11
54.4236
21
-71.7644
0
LINE
8
Black
10
54.4236
20
-71.7644
11
55.4446
21
-70.5477
0
LINE
8
Black
10
55.4446
20
-70.5477
11
56.8202
21
-69.7535
0
LINE
8
Black
10
56.8202
20
-69.7535
11
58.3844
21
-69.4777
0
LINE
8
Black
10
58.3844
20
-69.4777
11
59.9486
21
-69.7535
0
LINE
8
Black
10
59.9486
20
-107.315
11
61.3242
21
-108.109
0
LINE
8
Black
10
61.3242
20
-108.109
11
62.3452
21
-109.326
0
LINE
8
Black
10
62.3452
20
-109.326
11
62.8884
21
-110.819
0
LINE
8
Black
10
62.8884
20
-110.819
11
62.8884
21
-112.407
0
LINE
8
Black
10
62.8884
20
-112.407
11
62.3452
21
-113.9
0
LINE
8
Black
10
62.3452
20
-113.9
11
61.3242
21
-115.117
0
LINE
8
Black
10
61.3242
20
-115.117
11
59.9486
21
-115.911
0
LINE
8
Black
10
59.9486
20
-115.911
11
58.3844
21
-116.187
0
LINE
8
Black
10
58.3844
20
-116.187
11
56.8202
21
-115.911
0
LINE
8
Black
10
56.8202
20
-115.911
11
55.4446
21
-115.117
0
LINE
8
Black
10
55.4446
20
-115.117
11
54.4236
21
-113.9
0
LINE
8
Black
10
54.4236
20
-113.9
11
53.8804
21
-112.407
0
LINE
8
Black
10
53.8804
20
-112.407
11
53.8804
21
-110.819
0
LINE
8
Black
10
53.8804
20
-110.819
11
54.4236
21
-109.326
0
LINE
8
Black
10
54.4236
20
-109.326
11
55.4446
21
-108.109
0
LINE
8
Black
10
55.4446
20
-108.109
11
56.8202
21
-107.315
0
LINE
8
Black
10
56.8202
20
-107.315
11
58.3844
21
-107.039
0
LINE
8
Black
10
58.3844
20
-107.039
11
59.9486
21
-107.315
0
LINE
8
Black
10
67.443
20
-26.3155
11
68.0402
21
-26.6603
0
LINE
8
Black
10
68.0402
20
-26.6603
11
68.4834
21
-27.1885
0
LINE
8
Black
10
68.4834
20
-27.1885
11
68.7193
21
-27.8365
0
LINE
8
Black
10
68.7193
20
-27.8365
11
68.7193
21
-28.5261
0
LINE
8
Black
10
68.7193
20
-28.5261
11
68.4834
21
-29.1741
0
LINE
8
Black
10
68.4834
20
-29.1741
11
68.0402
21
-29.7023
0
LINE
8
Black
10
68.0402
20
-29.7023
11
67.443
21
-30.0471
0
LINE
8
Black
10
67.443
20
-30.0471
11
66.7639
21
-30.1669
0
LINE
8
Black
10
66.7639
20
-30.1669
11
66.0848
21
-30.0471
0
LINE
8
Black
10
66.0848
20
-30.0471
11
65.4876
21
-29.7023
0
LINE
8
Black
10
65.4876
20
-29.7023
11
65.0444
21
-29.1741
0
LINE
8
Black
10
65.0444
20
-29.1741
11
64.8085
21
-28.5261
0
LINE
8
Black
10
64.8085
20
-28.5261
11
64.8085
21
-27.8365
0
LINE
8
Black
10
64.8085
20
-27.8365
11
65.0444
21
-27.1885
0
LINE
8
Black
10
65.0444
20
-27.1885
11
65.4876
21
-26.6603
0
LINE
8
Black
10
65.4876
20
-26.6603
11
66.0848
21
-26.3155
0
LINE
8
Black
10
66.0848
20
-26.3155
11
66.7639
21
-26.1957
0
LINE
8
Black
10
66.7639
20
-26.1957
11
67.443
21
-26.3155
0
LINE
8
Black
10
67.443
20
-63.877
11
68.0402
21
-64.2218
0
LINE
8
Black
10
68.0402
20
-64.2218
11
68.4834
21
-64.75
0
LINE
8
Black
10
68.4834
20
-64.75
11
68.7193
21
-65.398
0
LINE
8
Black
10
68.7193
20
-65.398
11
68.7193
21
-66.0876
0
LINE
8
Black
10
68.7193
20
-66.0876
11
68.4834
21
-66.7356
0
LINE
8
Black
10
68.4834
20
-66.7356
11
68.0402
21
-67.2638
0
LINE
8
Black
10
68.0402
20
-67.2638
11
67.443
21
-67.6086
0
LINE
8
Black
10
67.443
20
-67.6086
11
66.7639
21
-67.7284
0
LINE
8
Black
10
66.7639
20
-67.7284
11
66.0848
21
-67.6086
0
LINE
8
Black
10
66.0848
20
-67.6086
11
65.4876
21
-67.2638
0
LINE
8
Black
10
65.4876
20
-67.2638
11
65.0444
21
-66.7356
0
LINE
8
Black
10
65.0444
20
-66.7356
11
64.8085
21
-66.0876
0
LINE
8
Black
10
64.8085
20
-66.0876
11
64.8085
21
-65.398
0
LINE
8
Black
10
64.8085
20
-65.398
11
65.0444
21
-64.75
0
LINE
8
Black
10
65.0444
20
-64.75
11
65.4876
21
-64.2218
0
LINE
8
Black
10
65.4876
20
-64.2218
11
66.0848
21
-63.877
0
LINE
8
Black
10
66.0848
20
-63.877
11
66.7639
21
-63.7572
0
LINE
8
Black
10
66.7639
20
-63.7572
11
67.443
21
-63.877
0
LINE
8
Black
10
67.443
20
-118.055
11
68.0402
21
-118.4
0
LINE
8
Black
10
68.0402
20
-118.4
11
68.4834
21
-118.928
0
LINE
8
Black
10
68.4834
20
-118.928
11
68.7193
21
-119.576
0
LINE
8
Black
10
68.7193
20
-119.576
11
68.7193
21
-120.266
0
LINE
8
Black
10
68.7193
20
-120.266
11
68.4834
21
-120.914
0
LINE
8
Black
10
68.4834
20
-120.914
11
68.0402
21
-121.442
0
LINE
8
Black
10
68.0402
20
-121.442
11
67.443
21
-121.787
0
LINE
8
Black
10
67.443
20
-121.787
11
66.7639
21
-121.907
0
LINE
8
Black
10
66.7639
20
-121.907
11
66.0848
21
-121.787
0
LINE
8
Black
10
66.0848
20
-121.787
11
65.4876
21
-121.442
0
LINE
8
Black
10
65.4876
20
-121.442
11
65.0444
21
-120.914
0
LINE
8
Black
10
65.0444
20
-120.914
11
64.8085
21
-120.266
0
LINE
8
Black
10
64.8085
20
-120.266
11
64.8085
21
-119.576
0
LINE
8
Black
10
64.8085
20
-119.576
11
65.0444
21
-118.928
0
LINE
8
Black
10
65.0444
20
-118.928
11
65.4876
21
-118.4
0
LINE
8
Black
10
65.4876
20
-118.4
11
66.0848
21
-118.055
0
LINE
8
Black
10
66.0848
20
-118.055
11
66.7639
21
-117.935
0
LINE
8
Black
10
66.7639
20
-117.935
11
67.443
21
-118.055
0
LINE
8
Black
10
71.131
20
-32.4674
11
72.4184
21
-33.2107
0
LINE
8
Black
10
72.4184
20
-33.2107
11
73.3739
21
-34.3495
0
LINE
8
Black
10
73.3739
20
-34.3495
11
73.8824
21
-35.7463
0
LINE
8
Black
10
73.8824
20
-35.7463
11
73.8824
21
-37.2329
0
LINE
8
Black
10
73.8824
20
-37.2329
11
73.3739
21
-38.6297
0
LINE
8
Black
10
73.3739
20
-38.6297
11
72.4184
21
-39.7685
0
LINE
8
Black
10
72.4184
20
-39.7685
11
71.131
21
-40.5118
0
LINE
8
Black
10
71.131
20
-40.5118
11
69.6671
21
-40.7699
0
LINE
8
Black
10
69.6671
20
-40.7699
11
68.2032
21
-40.5118
0
LINE
8
Black
10
68.2032
20
-40.5118
11
66.9158
21
-39.7685
0
LINE
8
Black
10
66.9158
20
-39.7685
11
65.9603
21
-38.6297
0
LINE
8
Black
10
65.9603
20
-38.6297
11
65.4518
21
-37.2329
0
LINE
8
Black
10
65.4518
20
-37.2329
11
65.4518
21
-35.7463
0
LINE
8
Black
10
65.4518
20
-35.7463
11
65.9603
21
-34.3495
0
LINE
8
Black
10
65.9603
20
-34.3495
11
66.9158
21
-33.2107
0
LINE
8
Black
10
66.9158
20
-33.2107
11
68.2032
21
-32.4674
0
LINE
8
Black
10
68.2032
20
-32.4674
11
69.6671
21
-32.2093
0
LINE
8
Black
10
69.6671
20
-32.2093
11
71.131
21
-32.4674
0
LINE
8
Black
10
71.131
20
-70.029
11
72.4184
21
-70.7723
0
LINE
8
Black
10
72.4184
20
-70.7723
11
73.3739
21
-71.9111
0
LINE
8
Black
10
73.3739
20
-71.9111
11
73.8824
21
-73.3079
0
LINE
8
Black
10
73.8824
20
-73.3079
11
73.8824
21
-74.7945
0
LINE
8
Black
10
73.8824
20
-74.7945
11
73.3739
21
-76.1913
0
LINE
8
Black
10
73.3739
20
-76.1913
11
72.4184
21
-77.3301
0
LINE
8
Black
10
72.4184
20
-77.3301
11
71.131
21
-78.0734
0
LINE
8
Black
10
71.131
20
-78.0734
11
69.6671
21
-78.3315
0
LINE
8
Black
10
69.6671
20
-78.3315
11
68.2032
21
-78.0734
0
LINE
8
Black
10
68.2032
20
-78.0734
11
66.9158
21
-77.3301
0
LINE
8
Black
10
66.9158
20
-77.3301
11
65.9603
21
-76.1913
0
LINE
8
Black
10
65.9603
20
-76.1913
11
65.4518
21
-74.7945
0
LINE
8
Black
10
65.4518
20
-74.7945
11
65.4518
21
-73.3079
0
LINE
8
Black
10
65.4518
20
-73.3079
11
65.9603
21
-71.9111
0
LINE
8
Black
10
65.9603
20
-71.9111
11
66.9158
21
-70.7723
0
LINE
8
Black
10
66.9158
20
-70.7723
11
68.2032
21
-70.029
0
LINE
8
Black
10
68.2032
20
-70.029
11
69.6671
21
-69.7709
0
LINE
8
Black
10
69.6671
20
-69.7709
11
71.131
21
-70.029
0
LINE
8
Black
10
71.131
20
-107.591
11
72.4184
21
-108.334
0
LINE
8
Black
10
72.4184
20
-108.334
11
73.3739
21
-109.473
0
LINE
8
Black
10
73.3739
20
-109.473
11
73.8824
21
-110.87
0
LINE
8
Black
10
73.8824
20
-110.87
11
73.8824
21
-112.356
0
LINE
8
Black
10
73.8824
20
-112.356
11
73.3739
21
-113.753
0
LINE
8
Black
10
73.3739
20
-113.753
11
72.4184
21
-114.892
0
LINE
8
Black
10
72.4184
20
-114.892
11
71.131
21
-115.635
0
LINE
8
Black
10
71.131
20
-115.635
11
69.6671
21
-115.893
0
LINE
8
Black
10
69.6671
20
-115.893
11
68.2032
21
-115.635
0
LINE
8
Black
10
68.2032
20
-115.635
11
66.9158
21
-114.892
0
LINE
8
Black
10
66.9158
20
-114.892
11
65.9603
21
-113.753
0
LINE
8
Black
10
65.9603
20
-113.753
11
65.4518
21
-112.356
0
LINE
8
Black
10
65.4518
20
-112.356
11
65.4518
21
-110.87
0
LINE
8
Black
10
65.4518
20
-110.87
11
65.9603
21
-109.473
0
LINE
8
Black
10
65.9603
20
-109.473
11
66.9158
21
-108.334
0
LINE
8
Black
10
66.9158
20
-108.334
11
68.2032
21
-107.591
0
LINE
8
Black
10
68.2032
20
-107.591
11
69.6671
21
-107.333
0
LINE
8
Black
10
69.6671
20
-107.333
11
71.131
21
-107.591
0
LINE
8
Black
10
76.273
20
-38.3889
11
75.1719
21
-38.3889
0
LINE
8
Black
10
75.1719
20
-38.3889
11
75.1719
21
-36.9881
0
LINE
8
Black
10
75.1719
20
-36.9881
11
76.273
21
-36.9881
0
LINE
8
Black
10
76.273
20
-36.9881
11
76.273
21
-38.3889
0
LINE
8
Black
10
76.273
20
-75.9505
11
75.1719
21
-75.9505
0
LINE
8
Black
10
75.1719
20
-75.9505
11
75.1719
21
-74.5497
0
LINE
8
Black
10
75.1719
20
-74.5497
11
76.273
21
-74.5497
0
LINE
8
Black
10
76.273
20
-74.5497
11
76.273
21
-75.9505
0
LINE
8
Black
10
76.273
20
-113.512
11
75.1719
21
-113.512
0
LINE
8
Black
10
75.1719
20
-113.512
11
75.1719
21
-112.111
0
LINE
8
Black
10
75.1719
20
-112.111
11
76.273
21
-112.111
0
LINE
8
Black
10
76.273
20
-112.111
11
76.273
21
-113.512
0
LINE
8
Black
10
77.2229
20
-35.9911
11
76.1219
21
-35.9911
0
LINE
8
Black
10
76.1219
20
-35.9911
11
76.1219
21
-34.5903
0
LINE
8
Black
10
76.1219
20
-34.5903
11
77.2229
21
-34.5903
0
LINE
8
Black
10
77.2229
20
-34.5903
11
77.2229
21
-35.9911
0
LINE
8
Black
10
77.2229
20
-73.5527
11
76.1219
21
-73.5527
0
LINE
8
Black
10
76.1219
20
-73.5527
11
76.1219
21
-72.1519
0
LINE
8
Black
10
76.1219
20
-72.1519
11
77.2229
21
-72.1519
0
LINE
8
Black
10
77.2229
20
-72.1519
11
77.2229
21
-73.5527
0
LINE
8
Black
10
77.2229
20
-111.114
11
76.1219
21
-111.114
0
LINE
8
Black
10
76.1219
20
-111.114
11
76.1219
21
-109.714
0
LINE
8
Black
10
76.1219
20
-109.714
11
77.2229
21
-109.714
0
LINE
8
Black
10
77.2229
20
-109.714
11
77.2229
21
-111.114
0
LINE
8
Black
10
78.1729
20
-38.3889
11
77.0718
21
-38.3889
0
LINE
8
Black
10
77.0718
20
-38.3889
11
77.0718
21
-36.9881
0
LINE
8
Black
10
77.0718
20
-36.9881
11
78.1729
21
-36.9881
0
LINE
8
Black
10
78.1729
20
-36.9881
11
78.1729
21
-38.3889
0
LINE
8
Black
10
78.1729
20
-75.9505
11
77.0718
21
-75.9505
0
LINE
8
Black
10
77.0718
20
-75.9505
11
77.0718
21
-74.5497
0
LINE
8
Black
10
77.0718
20
-74.5497
11
78.1729
21
-74.5497
0
LINE
8
Black
10
78.1729
20
-74.5497
11
78.1729
21
-75.9505
0
LINE
8
Black
10
78.1729
20
-113.512
11
77.0718
21
-113.512
0
LINE
8
Black
10
77.0718
20
-113.512
11
77.0718
21
-112.111
0
LINE
8
Black
10
77.0718
20
-112.111
11
78.1729
21
-112.111
0
LINE
8
Black
10
78.1729
20
-112.111
11
78.1729
21
-113.512
0
LINE
8
Black
10
93.1005
20
-144.554
11
91.6997
21
-144.554
0
LINE
8
Black
10
91.6997
20
-144.554
11
91.6997
21
-143.453
0
LINE
8
Black
10
91.6997
20
-143.453
11
93.1005
21
-143.453
0
LINE
8
Black
10
93.1005
20
-143.453
11
93.1005
21
-144.554
0
LINE
8
Black
10
93.1005
20
-146.453
11
91.6997
21
-146.453
0
LINE
8
Black
10
91.6997
20
-146.453
11
91.6997
21
-145.352
0
LINE
8
Black
10
91.6997
20
-145.352
11
93.1005
21
-145.352
0
LINE
8
Black
10
93.1005
20
-145.352
11
93.1005
21
-146.453
0
LINE
8
Black
10
92.7389
20
-135.262
11
93.0993
21
-135.47
0
LINE
8
Black
10
93.0993
20
-135.47
11
93.3668
21
-135.789
0
LINE
8
Black
10
93.3668
20
-135.789
11
93.5092
21
-136.18
0
LINE
8
Black
10
93.5092
20
-136.18
11
93.5092
21
-136.596
0
LINE
8
Black
10
93.5092
20
-136.596
11
93.3668
21
-136.987
0
LINE
8
Black
10
93.3668
20
-136.987
11
93.0993
21
-137.306
0
LINE
8
Black
10
93.0993
20
-137.306
11
92.7389
21
-137.514
0
LINE
8
Black
10
92.7389
20
-137.514
11
92.329
21
-137.586
0
LINE
8
Black
10
92.329
20
-137.586
11
91.9191
21
-137.514
0
LINE
8
Black
10
91.9191
20
-137.514
11
91.5587
21
-137.306
0
LINE
8
Black
10
91.5587
20
-137.306
11
91.2912
21
-136.987
0
LINE
8
Black
10
91.2912
20
-136.987
11
91.1488
21
-136.596
0
LINE
8
Black
10
91.1488
20
-136.596
11
91.1488
21
-136.18
0
LINE
8
Black
10
91.1488
20
-136.18
11
91.2912
21
-135.789
0
LINE
8
Black
10
91.2912
20
-135.789
11
91.5587
21
-135.47
0
LINE
8
Black
10
91.5587
20
-135.47
11
91.9191
21
-135.262
0
LINE
8
Black
10
91.9191
20
-135.262
11
92.329
21
-135.19
0
LINE
8
Black
10
92.329
20
-135.19
11
92.7389
21
-135.262
0
LINE
8
Black
10
95.4983
20
-145.504
11
94.0975
21
-145.504
0
LINE
8
Black
10
94.0975
20
-145.504
11
94.0975
21
-144.402
0
LINE
8
Black
10
94.0975
20
-144.402
11
95.4983
21
-144.402
0
LINE
8
Black
10
95.4983
20
-144.402
11
95.4983
21
-145.504
0
LINE
8
Black
10
95.2789
20
-135.262
11
95.6393
21
-135.47
0
LINE
8
Black
10
95.6393
20
-135.47
11
95.9068
21
-135.789
0
LINE
8
Black
10
95.9068
20
-135.789
11
96.0492
21
-136.18
0
LINE
8
Black
10
96.0492
20
-136.18
11
96.0492
21
-136.596
0
LINE
8
Black
10
96.0492
20
-136.596
11
95.9068
21
-136.987
0
LINE
8
Black
10
95.9068
20
-136.987
11
95.6393
21
-137.306
0
LINE
8
Black
10
95.6393
20
-137.306
11
95.2789
21
-137.514
0
LINE
8
Black
10
95.2789
20
-137.514
11
94.869
21
-137.586
0
LINE
8
Black
10
94.869
20
-137.586
11
94.4591
21
-137.514
0
LINE
8
Black
10
94.4591
20
-137.514
11
94.0987
21
-137.306
0
LINE
8
Black
10
94.0987
20
-137.306
11
93.8312
21
-136.987
0
LINE
8
Black
10
93.8312
20
-136.987
11
93.6888
21
-136.596
0
LINE
8
Black
10
93.6888
20
-136.596
11
93.6888
21
-136.18
0
LINE
8
Black
10
93.6888
20
-136.18
11
93.8312
21
-135.789
0
LINE
8
Black
10
93.8312
20
-135.789
11
94.0987
21
-135.47
0
LINE
8
Black
10
94.0987
20
-135.47
11
94.4591
21
-135.262
0
LINE
8
Black
10
94.4591
20
-135.262
11
94.869
21
-135.19
0
LINE
8
Black
10
94.869
20
-135.19
11
95.2789
21
-135.262
0
LINE
8
Black
10
95.0629
20
-147.936
11
96.3503
21
-148.679
0
LINE
8
Black
10
96.3503
20
-148.679
11
97.3058
21
-149.818
0
LINE
8
Black
10
97.3058
20
-149.818
11
97.8143
21
-151.215
0
LINE
8
Black
10
97.8143
20
-151.215
11
97.8143
21
-152.701
0
LINE
8
Black
10
97.8143
20
-152.701
11
97.3058
21
-154.098
0
LINE
8
Black
10
97.3058
20
-154.098
11
96.3503
21
-155.237
0
LINE
8
Black
10
96.3503
20
-155.237
11
95.0629
21
-155.98
0
LINE
8
Black
10
95.0629
20
-155.98
11
93.599
21
-156.238
0
LINE
8
Black
10
93.599
20
-156.238
11
92.1351
21
-155.98
0
LINE
8
Black
10
92.1351
20
-155.98
11
90.8477
21
-155.237
0
LINE
8
Black
10
90.8477
20
-155.237
11
89.8922
21
-154.098
0
LINE
8
Black
10
89.8922
20
-154.098
11
89.3837
21
-152.701
0
LINE
8
Black
10
89.3837
20
-152.701
11
89.3837
21
-151.215
0
LINE
8
Black
10
89.3837
20
-151.215
11
89.8922
21
-149.818
0
LINE
8
Black
10
89.8922
20
-149.818
11
90.8477
21
-148.679
0
LINE
8
Black
10
90.8477
20
-148.679
11
92.1351
21
-147.936
0
LINE
8
Black
10
92.1351
20
-147.936
11
93.599
21
-147.678
0
LINE
8
Black
10
93.599
20
-147.678
11
95.0629
21
-147.936
0
LINE
8
Black
10
110.129
20
-38.3889
11
109.028
21
-38.3889
0
LINE
8
Black
10
109.028
20
-38.3889
11
109.028
21
-36.9881
0
LINE
8
Black
10
109.028
20
-36.9881
11
110.129
21
-36.9881
0
LINE
8
Black
10
110.129
20
-36.9881
11
110.129
21
-38.3889
0
LINE
8
Black
10
110.129
20
-75.9505
11
109.028
21
-75.9505
0
LINE
8
Black
10
109.028
20
-75.9505
11
109.028
21
-74.5497
0
LINE
8
Black
10
109.028
20
-74.5497
11
110.129
21
-74.5497
0
LINE
8
Black
10
110.129
20
-74.5497
11
110.129
21
-75.9505
0
LINE
8
Black
10
110.129
20
-113.512
11
109.028
21
-113.512
0
LINE
8
Black
10
109.028
20
-113.512
11
109.028
21
-112.111
0
LINE
8
Black
10
109.028
20
-112.111
11
110.129
21
-112.111
0
LINE
8
Black
10
110.129
20
-112.111
11
110.129
21
-113.512
0
LINE
8
Black
10
111.079
20
-35.9911
11
109.977
21
-35.9911
0
LINE
8
Black
10
109.977
20
-35.9911
11
109.977
21
-34.5903
0
LINE
8
Black
10
109.977
20
-34.5903
11
111.079
21
-34.5903
0
LINE
8
Black
10
111.079
20
-34.5903
11
111.079
21
-35.9911
0
LINE
8
Black
10
111.079
20
-73.5527
11
109.977
21
-73.5527
0
LINE
8
Black
10
109.977
20
-73.5527
11
109.977
21
-72.1519
0
LINE
8
Black
10
109.977
20
-72.1519
11
111.079
21
-72.1519
0
LINE
8
Black
10
111.079
20
-72.1519
11
111.079
21
-73.5527
0
LINE
8
Black
10
111.079
20
-111.114
11
109.977
21
-111.114
0
LINE
8
Black
10
109.977
20
-111.114
11
109.977
21
-109.714
0
LINE
8
Black
10
109.977
20
-109.714
11
111.079
21
-109.714
0
LINE
8
Black
10
111.079
20
-109.714
11
111.079
21
-111.114
0
LINE
8
Black
10
112.028
20
-38.3889
11
110.927
21
-38.3889
0
LINE
8
Black
10
110.927
20
-38.3889
11
110.927
21
-36.9881
0
LINE
8
Black
10
110.927
20
-36.9881
11
112.028
21
-36.9881
0
LINE
8
Black
10
112.028
20
-36.9881
11
112.028
21
-38.3889
0
LINE
8
Black
10
112.028
20
-75.9505
11
110.927
21
-75.9505
0
LINE
8
Black
10
110.927
20
-75.9505
11
110.927
21
-74.5497
0
LINE
8
Black
10
110.927
20
-74.5497
11
112.028
21
-74.5497
0
LINE
8
Black
10
112.028
20
-74.5497
11
112.028
21
-75.9505
0
LINE
8
Black
10
112.028
20
-113.512
11
110.927
21
-113.512
0
LINE
8
Black
10
110.927
20
-113.512
11
110.927
21
-112.111
0
LINE
8
Black
10
110.927
20
-112.111
11
112.028
21
-112.111
0
LINE
8
Black
10
112.028
20
-112.111
11
112.028
21
-113.512
0
LINE
8
Black
10
118.997
20
-32.4674
11
120.284
21
-33.2107
0
LINE
8
Black
10
120.284
20
-33.2107
11
121.24
21
-34.3495
0
LINE
8
Black
10
121.24
20
-34.3495
11
121.748
21
-35.7463
0
LINE
8
Black
10
121.748
20
-35.7463
11
121.748
21
-37.2329
0
LINE
8
Black
10
121.748
20
-37.2329
11
121.24
21
-38.6297
0
LINE
8
Black
10
121.24
20
-38.6297
11
120.284
21
-39.7685
0
LINE
8
Black
10
120.284
20
-39.7685
11
118.997
21
-40.5118
0
LINE
8
Black
10
118.997
20
-40.5118
11
117.533
21
-40.7699
0
LINE
8
Black
10
117.533
20
-40.7699
11
116.069
21
-40.5118
0
LINE
8
Black
10
116.069
20
-40.5118
11
114.782
21
-39.7685
0
LINE
8
Black
10
114.782
20
-39.7685
11
113.826
21
-38.6297
0
LINE
8
Black
10
113.826
20
-38.6297
11
113.318
21
-37.2329
0
LINE
8
Black
10
113.318
20
-37.2329
11
113.318
21
-35.7463
0
LINE
8
Black
10
113.318
20
-35.7463
11
113.826
21
-34.3495
0
LINE
8
Black
10
113.826
20
-34.3495
11
114.782
21
-33.2107
0
LINE
8
Black
10
114.782
20
-33.2107
11
116.069
21
-32.4674
0
LINE
8
Black
10
116.069
20
-32.4674
11
117.533
21
-32.2093
0
LINE
8
Black
10
117.533
20
-32.2093
11
118.997
21
-32.4674
0
LINE
8
Black
10
118.997
20
-70.029
11
120.284
21
-70.7723
0
LINE
8
Black
10
120.284
20
-70.7723
11
121.24
21
-71.9111
0
LINE
8
Black
10
121.24
20
-71.9111
11
121.748
21
-73.3079
0
LINE
8
Black
10
121.748
20
-73.3079
11
121.748
21
-74.7945
0
LINE
8
Black
10
121.748
20
-74.7945
11
121.24
21
-76.1913
0
LINE
8
Black
10
121.24
20
-76.1913
11
120.284
21
-77.3301
0
LINE
8
Black
10
120.284
20
-77.3301
11
118.997
21
-78.0734
0
LINE
8
Black
10
118.997
20
-78.0734
11
117.533
21
-78.3315
0
LINE
8
Black
10
117.533
20
-78.3315
11
116.069
21
-78.0734
0
LINE
8
Black
10
116.069
20
-78.0734
11
114.782
21
-77.3301
0
LINE
8
Black
10
114.782
20
-77.3301
11
113.826
21
-76.1913
0
LINE
8
Black
10
113.826
20
-76.1913
11
113.318
21
-74.7945
0
LINE
8
Black
10
113.318
20
-74.7945
11
113.318
21
-73.3079
0
LINE
8
Black
10
113.318
20
-73.3079
11
113.826
21
-71.9111
0
LINE
8
Black
10
113.826
20
-71.9111
11
114.782
21
-70.7723
0
LINE
8
Black
10
114.782
20
-70.7723
11
116.069
21
-70.029
0
LINE
8
Black
10
116.069
20
-70.029
11
117.533
21
-69.7709
0
LINE
8
Black
10
117.533
20
-69.7709
11
118.997
21
-70.029
0
LINE
8
Black
10
118.997
20
-107.591
11
120.284
21
-108.334
0
LINE
8
Black
10
120.284
20
-108.334
11
121.24
21
-109.473
0
LINE
8
Black
10
121.24
20
-109.473
11
121.748
21
-110.87
0
LINE
8
Black
10
121.748
20
-110.87
11
121.748
21
-112.356
0
LINE
8
Black
10
121.748
20
-112.356
11
121.24
21
-113.753
0
LINE
8
Black
10
121.24
20
-113.753
11
120.284
21
-114.892
0
LINE
8
Black
10
120.284
20
-114.892
11
118.997
21
-115.635
0
LINE
8
Black
10
118.997
20
-115.635
11
117.533
21
-115.893
0
LINE
8
Black
10
117.533
20
-115.893
11
116.069
21
-115.635
0
LINE
8
Black
10
116.069
20
-115.635
11
114.782
21
-114.892
0
LINE
8
Black
10
114.782
20
-114.892
11
113.826
21
-113.753
0
LINE
8
Black
10
113.826
20
-113.753
11
113.318
21
-112.356
0
LINE
8
Black
10
113.318
20
-112.356
11
113.318
21
-110.87
0
LINE
8
Black
10
113.318
20
-110.87
11
113.826
21
-109.473
0
LINE
8
Black
10
113.826
20
-109.473
11
114.782
21
-108.334
0
LINE
8
Black
10
114.782
20
-108.334
11
116.069
21
-107.591
0
LINE
8
Black
10
116.069
20
-107.591
11
117.533
21
-107.333
0
LINE
8
Black
10
117.533
20
-107.333
11
118.997
21
-107.591
0
LINE
8
Black
10
121.113
20
-26.3155
11
121.71
21
-26.6603
0
LINE
8
Black
10
121.71
20
-26.6603
11
122.154
21
-27.1885
0
LINE
8
Black
10
122.154
20
-27.1885
11
122.389
21
-27.8365
0
LINE
8
Black
10
122.389
20
-27.8365
11
122.389
21
-28.5261
0
LINE
8
Black
10
122.389
20
-28.5261
11
122.154
21
-29.1741
0
LINE
8
Black
10
122.154
20
-29.1741
11
121.71
21
-29.7023
0
LINE
8
Black
10
121.71
20
-29.7023
11
121.113
21
-30.0471
0
LINE
8
Black
10
121.113
20
-30.0471
11
120.434
21
-30.1669
0
LINE
8
Black
10
120.434
20
-30.1669
11
119.755
21
-30.0471
0
LINE
8
Black
10
119.755
20
-30.0471
11
119.158
21
-29.7023
0
LINE
8
Black
10
119.158
20
-29.7023
11
118.714
21
-29.1741
0
LINE
8
Black
10
118.714
20
-29.1741
11
118.479
21
-28.5261
0
LINE
8
Black
10
118.479
20
-28.5261
11
118.479
21
-27.8365
0
LINE
8
Black
10
118.479
20
-27.8365
11
118.714
21
-27.1885
0
LINE
8
Black
10
118.714
20
-27.1885
11
119.158
21
-26.6603
0
LINE
8
Black
10
119.158
20
-26.6603
11
119.755
21
-26.3155
0
LINE
8
Black
10
119.755
20
-26.3155
11
120.434
21
-26.1957
0
LINE
8
Black
10
120.434
20
-26.1957
11
121.113
21
-26.3155
0
LINE
8
Black
10
121.113
20
-63.877
11
121.71
21
-64.2218
0
LINE
8
Black
10
121.71
20
-64.2218
11
122.154
21
-64.75
0
LINE
8
Black
10
122.154
20
-64.75
11
122.389
21
-65.398
0
LINE
8
Black
10
122.389
20
-65.398
11
122.389
21
-66.0876
0
LINE
8
Black
10
122.389
20
-66.0876
11
122.154
21
-66.7356
0
LINE
8
Black
10
122.154
20
-66.7356
11
121.71
21
-67.2638
0
LINE
8
Black
10
121.71
20
-67.2638
11
121.113
21
-67.6086
0
LINE
8
Black
10
121.113
20
-67.6086
11
120.434
21
-67.7284
0
LINE
8
Black
10
120.434
20
-67.7284
11
119.755
21
-67.6086
0
LINE
8
Black
10
119.755
20
-67.6086
11
119.158
21
-67.2638
0
LINE
8
Black
10
119.158
20
-67.2638
11
118.714
21
-66.7356
0
LINE
8
Black
10
118.714
20
-66.7356
11
118.479
21
-66.0876
0
LINE
8
Black
10
118.479
20
-66.0876
11
118.479
21
-65.398
0
LINE
8
Black
10
118.479
20
-65.398
11
118.714
21
-64.75
0
LINE
8
Black
10
118.714
20
-64.75
11
119.158
21
-64.2218
0
LINE
8
Black
10
119.158
20
-64.2218
11
119.755
21
-63.877
0
LINE
8
Black
10
119.755
20
-63.877
11
120.434
21
-63.7572
0
LINE
8
Black
10
120.434
20
-63.7572
11
121.113
21
-63.877
0
LINE
8
Black
10
121.113
20
-118.055
11
121.71
21
-118.4
0
LINE
8
Black
10
121.71
20
-118.4
11
122.154
21
-118.928
0
LINE
8
Black
10
122.154
20
-118.928
11
122.389
21
-119.576
0
LINE
8
Black
10
122.389
20
-119.576
11
122.389
21
-120.266
0
LINE
8
Black
10
122.389
20
-120.266
11
122.154
21
-120.914
0
LINE
8
Black
10
122.154
20
-120.914
11
121.71
21
-121.442
0
LINE
8
Black
10
121.71
20
-121.442
11
121.113
21
-121.787
0
LINE
8
Black
10
121.113
20
-121.787
11
120.434
21
-121.907
0
LINE
8
Black
10
120.434
20
-121.907
11
119.755
21
-121.787
0
LINE
8
Black
10
119.755
20
-121.787
11
119.158
21
-121.442
0
LINE
8
Black
10
119.158
20
-121.442
11
118.714
21
-120.914
0
LINE
8
Black
10
118.714
20
-120.914
11
118.479
21
-120.266
0
LINE
8
Black
10
118.479
20
-120.266
11
118.479
21
-119.576
0
LINE
8
Black
10
118.479
20
-119.576
11
118.714
21
-118.928
0
LINE
8
Black
10
118.714
20
-118.928
11
119.158
21
-118.4
0
LINE
8
Black
10
119.158
20
-118.4
11
119.755
21
-118.055
0
LINE
8
Black
10
119.755
20
-118.055
11
120.434
21
-117.935
0
LINE
8
Black
10
120.434
20
-117.935
11
121.113
21
-118.055
0
LINE
8
Black
10
130.38
20
-32.1919
11
131.756
21
-32.9861
0
LINE
8
Black
10
131.756
20
-32.9861
11
132.777
21
-34.2028
0
LINE
8
Black
10
132.777
20
-34.2028
11
133.32
21
-35.6954
0
LINE
8
Black
10
133.32
20
-35.6954
11
133.32
21
-37.2838
0
LINE
8
Black
10
133.32
20
-37.2838
11
132.777
21
-38.7764
0
LINE
8
Black
10
132.777
20
-38.7764
11
131.756
21
-39.9931
0
LINE
8
Black
10
131.756
20
-39.9931
11
130.38
21
-40.7873
0
LINE
8
Black
10
130.38
20
-40.7873
11
128.816
21
-41.0631
0
LINE
8
Black
10
128.816
20
-41.0631
11
127.252
21
-40.7873
0
LINE
8
Black
10
127.252
20
-40.7873
11
125.876
21
-39.9931
0
LINE
8
Black
10
125.876
20
-39.9931
11
124.855
21
-38.7764
0
LINE
8
Black
10
124.855
20
-38.7764
11
124.312
21
-37.2838
0
LINE
8
Black
10
124.312
20
-37.2838
11
124.312
21
-35.6954
0
LINE
8
Black
10
124.312
20
-35.6954
11
124.855
21
-34.2028
0
LINE
8
Black
10
124.855
20
-34.2028
11
125.876
21
-32.9861
0
LINE
8
Black
10
125.876
20
-32.9861
11
127.252
21
-32.1919
0
LINE
8
Black
10
127.252
20
-32.1919
11
128.816
21
-31.9161
0
LINE
8
Black
10
128.816
20
-31.9161
11
130.38
21
-32.1919
0
LINE
8
Black
10
130.38
20
-69.7535
11
131.756
21
-70.5477
0
LINE
8
Black
10
131.756
20
-70.5477
11
132.777
21
-71.7644
0
LINE
8
Black
10
132.777
20
-71.7644
11
133.32
21
-73.257
0
LINE
8
Black
10
133.32
20
-73.257
11
133.32
21
-74.8454
0
LINE
8
Black
10
133.32
20
-74.8454
11
132.777
21
-76.338
0
LINE
8
Black
10
132.777
20
-76.338
11
131.756
21
-77.5547
0
LINE
8
Black
10
131.756
20
-77.5547
11
130.38
21
-78.3489
0
LINE
8
Black
10
130.38
20
-78.3489
11
128.816
21
-78.6247
0
LINE
8
Black
10
128.816
20
-78.6247
11
127.252
21
-78.3489
0
LINE
8
Black
10
127.252
20
-78.3489
11
125.876
21
-77.5547
0
LINE
8
Black
10
125.876
20
-77.5547
11
124.855
21
-76.338
0
LINE
8
Black
10
124.855
20
-76.338
11
124.312
21
-74.8454
0
LINE
8
Black
10
124.312
20
-74.8454
11
124.312
21
-73.257
0
LINE
8
Black
10
124.312
20
-73.257
11
124.855
21
-71.7644
0
LINE
8
Black
10
124.855
20
-71.7644
11
125.876
21
-70.5477
0
LINE
8
Black
10
125.876
20
-70.5477
11
127.252
21
-69.7535
0
LINE
8
Black
10
127.252
20
-69.7535
11
128.816
21
-69.4777
0
LINE
8
Black
10
128.816
20
-69.4777
11
130.38
21
-69.7535
0
LINE
8
Black
10
130.38
20
-107.315
11
131.756
21
-108.109
0
LINE
8
Black
10
131.756
20
-108.109
11
132.777
21
-109.326
0
LINE
8
Black
10
132.777
20
-109.326
11
133.32
21
-110.819
0
LINE
8
Black
10
133.32
20
-110.819
11
133.32
21
-112.407
0
LINE
8
Black
10
133.32
20
-112.407
11
132.777
21
-113.9
0
LINE
8
Black
10
132.777
20
-113.9
11
131.756
21
-115.117
0
LINE
8
Black
10
131.756
20
-115.117
11
130.38
21
-115.911
0
LINE
8
Black
10
130.38
20
-115.911
11
128.816
21
-116.187
0
LINE
8
Black
10
128.816
20
-116.187
11
127.252
21
-115.911
0
LINE
8
Black
10
127.252
20
-115.911
11
125.876
21
-115.117
0
LINE
8
Black
10
125.876
20
-115.117
11
124.855
21
-113.9
0
LINE
8
Black
10
124.855
20
-113.9
11
124.312
21
-112.407
0
LINE
8
Black
10
124.312
20
-112.407
11
124.312
21
-110.819
0
LINE
8
Black
10
124.312
20
-110.819
11
124.855
21
-109.326
0
LINE
8
Black
10
124.855
20
-109.326
11
125.876
21
-108.109
0
LINE
8
Black
10
125.876
20
-108.109
11
127.252
21
-107.315
0
LINE
8
Black
10
127.252
20
-107.315
11
128.816
21
-107.039
0
LINE
8
Black
10
128.816
20
-107.039
11
130.38
21
-107.315
0
LINE
8
Black
10
135.849
20
-121.766
11
135.823
21
-121.796
0
LINE
8
Black
10
135.823
20
-121.796
11
135.083
21
-122.417
0
LINE
8
Black
10
135.083
20
-122.417
11
135.049
21
-122.437
0
LINE
8
Black
10
135.049
20
-122.437
11
134.141
21
-122.767
0
LINE
8
Black
10
134.141
20
-122.767
11
134.127
21
-122.77
0
LINE
8
Black
10
134.127
20
-122.77
11
134.112
21
-122.774
0
LINE
8
Black
10
134.112
20
-122.774
11
133.629
21
-122.816
0
LINE
8
Black
10
133.629
20
-122.816
11
133.624
21
-122.816
0
LINE
8
Black
10
133.624
20
-122.816
11
133.619
21
-122.817
0
LINE
8
Black
10
133.619
20
-122.817
11
102.07
21
-122.817
0
LINE
8
Black
10
102.07
20
-122.817
11
101.607
21
-122.857
0
LINE
8
Black
10
101.607
20
-122.857
11
100.732
21
-123.175
0
LINE
8
Black
10
100.732
20
-123.175
11
100.023
21
-123.77
0
LINE
8
Black
10
100.023
20
-123.77
11
99.5603
21
-124.572
0
LINE
8
Black
10
99.5603
20
-124.572
11
99.3978
21
-125.494
0
LINE
8
Black
10
99.3978
20
-125.494
11
99.3978
21
-151.958
0
LINE
8
Black
10
99.3978
20
-151.958
11
99.3961
21
-151.968
0
LINE
8
Black
10
99.3961
20
-151.968
11
99.3961
21
-151.978
0
LINE
8
Black
10
99.3961
20
-151.978
11
99.0533
21
-153.922
0
LINE
8
Black
10
99.0533
20
-153.922
11
99.0397
21
-153.959
0
LINE
8
Black
10
99.0397
20
-153.959
11
98.0526
21
-155.669
0
LINE
8
Black
10
98.0526
20
-155.669
11
98.0271
21
-155.7
0
LINE
8
Black
10
98.0271
20
-155.7
11
98.0271
21
-155.7
0
LINE
8
Black
10
98.0271
20
-155.7
11
98.0271
21
-155.7
0
LINE
8
Black
10
98.0271
20
-155.7
11
96.5147
21
-156.969
0
LINE
8
Black
10
96.5147
20
-156.969
11
96.5147
21
-156.969
0
LINE
8
Black
10
96.5147
20
-156.969
11
96.4804
21
-156.988
0
LINE
8
Black
10
96.4804
20
-156.988
11
96.4804
21
-156.988
0
LINE
8
Black
10
96.4804
20
-156.988
11
94.6252
21
-157.664
0
LINE
8
Black
10
94.6252
20
-157.664
11
94.5861
21
-157.67
0
LINE
8
Black
10
94.5861
20
-157.67
11
92.6119
21
-157.67
0
LINE
8
Black
10
92.6119
20
-157.67
11
92.5728
21
-157.664
0
LINE
8
Black
10
92.5728
20
-157.664
11
90.7176
21
-156.988
0
LINE
8
Black
10
90.7176
20
-156.988
11
90.6833
21
-156.969
0
LINE
8
Black
10
90.6833
20
-156.969
11
89.1709
21
-155.7
0
LINE
8
Black
10
89.1709
20
-155.7
11
89.1454
21
-155.669
0
LINE
8
Black
10
89.1454
20
-155.669
11
88.1583
21
-153.959
0
LINE
8
Black
10
88.1583
20
-153.959
11
88.1447
21
-153.922
0
LINE
8
Black
10
88.1447
20
-153.922
11
88.1447
21
-153.922
0
LINE
8
Black
10
88.1447
20
-153.922
11
87.8019
21
-151.978
0
LINE
8
Black
10
87.8019
20
-151.978
11
87.8019
21
-151.938
0
LINE
8
Black
10
87.8019
20
-151.938
11
87.8027
21
-151.936
0
LINE
8
Black
10
87.8027
20
-151.936
11
87.8027
21
-125.489
0
LINE
8
Black
10
87.8027
20
-125.489
11
87.7622
21
-125.026
0
LINE
8
Black
10
87.7622
20
-125.026
11
87.4439
21
-124.151
0
LINE
8
Black
10
87.4439
20
-124.151
11
86.8489
21
-123.442
0
LINE
8
Black
10
86.8489
20
-123.442
11
86.0473
21
-122.979
0
LINE
8
Black
10
86.0473
20
-122.979
11
85.1257
21
-122.817
0
LINE
8
Black
10
85.1257
20
-122.817
11
53.5813
21
-122.817
0
LINE
8
Black
10
53.5813
20
-122.817
11
53.5715
21
-122.815
0
LINE
8
Black
10
53.5715
20
-122.815
11
53.5615
21
-122.815
0
LINE
8
Black
10
53.5615
20
-122.815
11
52.6102
21
-122.647
0
LINE
8
Black
10
52.6102
20
-122.647
11
52.5729
21
-122.634
0
LINE
8
Black
10
52.5729
20
-122.634
11
51.7364
21
-122.151
0
LINE
8
Black
10
51.7364
20
-122.151
11
51.706
21
-122.125
0
LINE
8
Black
10
51.706
20
-122.125
11
51.0851
21
-121.385
0
LINE
8
Black
10
51.0851
20
-121.385
11
51.0652
21
-121.351
0
LINE
8
Black
10
51.0652
20
-121.351
11
50.7348
21
-120.443
0
LINE
8
Black
10
50.7348
20
-120.443
11
50.7323
21
-120.428
0
LINE
8
Black
10
50.7323
20
-120.428
11
50.7284
21
-120.414
0
LINE
8
Black
10
50.7284
20
-120.414
11
50.6861
21
-119.931
0
LINE
8
Black
10
50.6861
20
-119.931
11
50.6866
21
-119.926
0
LINE
8
Black
10
50.6866
20
-119.926
11
50.6857
21
-119.921
0
LINE
8
Black
10
50.6857
20
-119.921
11
50.6857
21
-28.1813
0
LINE
8
Black
10
50.6857
20
-28.1813
11
50.6874
21
-28.1715
0
LINE
8
Black
10
50.6874
20
-28.1715
11
50.6874
21
-28.1615
0
LINE
8
Black
10
50.6874
20
-28.1615
11
50.8552
21
-27.2102
0
LINE
8
Black
10
50.8552
20
-27.2102
11
50.8552
21
-27.2102
0
LINE
8
Black
10
50.8552
20
-27.2102
11
50.8687
21
-27.1729
0
LINE
8
Black
10
50.8687
20
-27.1729
11
51.3517
21
-26.3364
0
LINE
8
Black
10
51.3517
20
-26.3364
11
51.3772
21
-26.306
0
LINE
8
Black
10
51.3772
20
-26.306
11
52.1172
21
-25.6851
0
LINE
8
Black
10
52.1172
20
-25.6851
11
52.1516
21
-25.6652
0
LINE
8
Black
10
52.1516
20
-25.6652
11
53.0592
21
-25.3348
0
LINE
8
Black
10
53.0592
20
-25.3348
11
53.0739
21
-25.3323
0
LINE
8
Black
10
53.0739
20
-25.3323
11
53.0884
21
-25.3284
0
LINE
8
Black
10
53.0884
20
-25.3284
11
53.5713
21
-25.2861
0
LINE
8
Black
10
53.5713
20
-25.2861
11
53.5763
21
-25.2866
0
LINE
8
Black
10
53.5763
20
-25.2866
11
53.5813
21
-25.2857
0
LINE
8
Black
10
53.5813
20
-25.2857
11
133.619
21
-25.2857
0
LINE
8
Black
10
133.619
20
-25.2857
11
133.629
21
-25.2874
0
LINE
8
Black
10
133.629
20
-25.2874
11
133.639
21
-25.2874
0
LINE
8
Black
10
133.639
20
-25.2874
11
134.59
21
-25.4552
0
LINE
8
Black
10
134.59
20
-25.4552
11
134.59
21
-25.4552
0
LINE
8
Black
10
134.59
20
-25.4552
11
134.628
21
-25.4687
0
LINE
8
Black
10
134.628
20
-25.4687
11
135.464
21
-25.9517
0
LINE
8
Black
10
135.464
20
-25.9517
11
135.495
21
-25.9772
0
LINE
8
Black
10
135.495
20
-25.9772
11
136.115
21
-26.7172
0
LINE
8
Black
10
136.115
20
-26.7172
11
136.135
21
-26.7516
0
LINE
8
Black
10
136.135
20
-26.7516
11
136.466
21
-27.6592
0
LINE
8
Black
10
136.466
20
-27.6592
11
136.468
21
-27.6739
0
LINE
8
Black
10
136.468
20
-27.6739
11
136.472
21
-27.6884
0
LINE
8
Black
10
136.472
20
-27.6884
11
136.514
21
-28.1713
0
LINE
8
Black
10
136.514
20
-28.1713
11
136.514
21
-28.1763
0
LINE
8
Black
10
136.514
20
-28.1763
11
136.515
21
-28.1813
0
LINE
8
Black
10
136.515
20
-28.1813
11
136.515
21
-119.921
0
LINE
8
Black
10
136.515
20
-119.921
11
136.513
21
-119.931
0
LINE
8
Black
10
136.513
20
-119.931
11
136.513
21
-119.941
0
LINE
8
Black
10
136.513
20
-119.941
11
136.345
21
-120.892
0
LINE
8
Black
10
136.345
20
-120.892
11
136.332
21
-120.929
0
LINE
8
Black
10
136.332
20
-120.929
11
136.286
21
-121.008
0
LINE
8
Black
10
136.286
20
-121.008
11
135.849
21
-121.766
0
LINE
8
Black
10
136.246
20
-27.7233
11
135.927
21
-26.8487
0
LINE
8
Black
10
135.927
20
-26.8487
11
135.332
21
-26.1396
0
LINE
8
Black
10
135.332
20
-26.1396
11
134.531
21
-25.6768
0
LINE
8
Black
10
134.531
20
-25.6768
11
133.609
21
-25.5143
0
LINE
8
Black
10
133.609
20
-25.5143
11
53.5863
21
-25.5143
0
LINE
8
Black
10
53.5863
20
-25.5143
11
53.1233
21
-25.5548
0
LINE
8
Black
10
53.1233
20
-25.5548
11
52.2487
21
-25.8731
0
LINE
8
Black
10
52.2487
20
-25.8731
11
51.5396
21
-26.4681
0
LINE
8
Black
10
51.5396
20
-26.4681
11
51.0768
21
-27.2697
0
LINE
8
Black
10
51.0768
20
-27.2697
11
50.9143
21
-28.1913
0
LINE
8
Black
10
50.9143
20
-28.1913
11
50.9143
21
-119.916
0
LINE
8
Black
10
50.9143
20
-119.916
11
50.9548
21
-120.379
0
LINE
8
Black
10
50.9548
20
-120.379
11
51.2731
21
-121.254
0
LINE
8
Black
10
51.2731
20
-121.254
11
51.8681
21
-121.963
0
LINE
8
Black
10
51.8681
20
-121.963
11
52.6697
21
-122.426
0
LINE
8
Black
10
52.6697
20
-122.426
11
53.5913
21
-122.588
0
LINE
8
Black
10
53.5913
20
-122.588
11
85.1357
21
-122.588
0
LINE
8
Black
10
85.1357
20
-122.588
11
85.1456
21
-122.59
0
LINE
8
Black
10
85.1456
20
-122.59
11
85.1556
21
-122.59
0
LINE
8
Black
10
85.1556
20
-122.59
11
86.1068
21
-122.757
0
LINE
8
Black
10
86.1068
20
-122.757
11
86.1068
21
-122.757
0
LINE
8
Black
10
86.1068
20
-122.757
11
86.1441
21
-122.771
0
LINE
8
Black
10
86.1441
20
-122.771
11
86.9807
21
-123.254
0
LINE
8
Black
10
86.9807
20
-123.254
11
87.0111
21
-123.28
0
LINE
8
Black
10
87.0111
20
-123.28
11
87.632
21
-124.019
0
LINE
8
Black
10
87.632
20
-124.019
11
87.6518
21
-124.054
0
LINE
8
Black
10
87.6518
20
-124.054
11
87.9822
21
-124.962
0
LINE
8
Black
10
87.9822
20
-124.962
11
87.9848
21
-124.976
0
LINE
8
Black
10
87.9848
20
-124.976
11
87.9886
21
-124.991
0
LINE
8
Black
10
87.9886
20
-124.991
11
88.0309
21
-125.474
0
LINE
8
Black
10
88.0309
20
-125.474
11
88.0304
21
-125.479
0
LINE
8
Black
10
88.0304
20
-125.479
11
88.0313
21
-125.484
0
LINE
8
Black
10
88.0313
20
-125.484
11
88.0313
21
-151.958
0
LINE
8
Black
10
88.0313
20
-151.958
11
88.0309
21
-151.96
0
LINE
8
Black
10
88.0309
20
-151.96
11
88.3664
21
-153.863
0
LINE
8
Black
10
88.3664
20
-153.863
11
89.3333
21
-155.537
0
LINE
8
Black
10
89.3333
20
-155.537
11
90.8148
21
-156.78
0
LINE
8
Black
10
90.8148
20
-156.78
11
92.632
21
-157.442
0
LINE
8
Black
10
92.632
20
-157.442
11
94.566
21
-157.442
0
LINE
8
Black
10
94.566
20
-157.442
11
96.3832
21
-156.78
0
LINE
8
Black
10
96.3832
20
-156.78
11
97.8647
21
-155.537
0
LINE
8
Black
10
97.8647
20
-155.537
11
98.8316
21
-153.863
0
LINE
8
Black
10
98.8316
20
-153.863
11
99.1692
21
-151.948
0
LINE
8
Black
10
99.1692
20
-151.948
11
99.1692
21
-125.484
0
LINE
8
Black
10
99.1692
20
-125.484
11
99.171
21
-125.474
0
LINE
8
Black
10
99.171
20
-125.474
11
99.171
21
-125.464
0
LINE
8
Black
10
99.171
20
-125.464
11
99.3387
21
-124.513
0
LINE
8
Black
10
99.3387
20
-124.513
11
99.3387
21
-124.513
0
LINE
8
Black
10
99.3387
20
-124.513
11
99.3523
21
-124.475
0
LINE
8
Black
10
99.3523
20
-124.475
11
99.8352
21
-123.639
0
LINE
8
Black
10
99.8352
20
-123.639
11
99.8607
21
-123.608
0
LINE
8
Black
10
99.8607
20
-123.608
11
100.601
21
-122.987
0
LINE
8
Black
10
100.601
20
-122.987
11
100.635
21
-122.968
0
LINE
8
Black
10
100.635
20
-122.968
11
101.543
21
-122.637
0
LINE
8
Black
10
101.543
20
-122.637
11
101.557
21
-122.635
0
LINE
8
Black
10
101.557
20
-122.635
11
101.572
21
-122.631
0
LINE
8
Black
10
101.572
20
-122.631
11
102.055
21
-122.588
0
LINE
8
Black
10
102.055
20
-122.588
11
102.06
21
-122.589
0
LINE
8
Black
10
102.06
20
-122.589
11
102.065
21
-122.588
0
LINE
8
Black
10
102.065
20
-122.588
11
133.614
21
-122.588
0
LINE
8
Black
10
133.614
20
-122.588
11
134.077
21
-122.548
0
LINE
8
Black
10
134.077
20
-122.548
11
134.952
21
-122.229
0
LINE
8
Black
10
134.952
20
-122.229
11
135.661
21
-121.634
0
LINE
8
Black
10
135.661
20
-121.634
11
136.124
21
-120.833
0
LINE
8
Black
10
136.124
20
-120.833
11
136.286
21
-119.911
0
LINE
8
Black
10
136.286
20
-119.911
11
136.286
21
-28.1863
0
LINE
8
Black
10
136.286
20
-28.1863
11
136.246
21
-27.7233
  0
ENDSEC
  0
EOF
