  0
SECTION
  2
HEADER
  9
$ANGBASE
  50
0.0
  9
$ANGDIR
  70
  1
  9
$MEASUREMENT
  70
0
  0
ENDSEC
  0
SECTION
  2
TABLES
  0
TABLE
  2
LTYPE
  70
1
  0
LTYPE
  2
CONTINUOUS
  70
0
  3
Solid line
  72
65
  73
0
  40
0.0
  0
ENDTAB
  0
TABLE
  2
STYLE
  70
4
  0
STYLE
  2
KICAD
  70
0
  40
0
  41
1
  42
1
  50
0
  71
0
  3
isocp.shx
  0
STYLE
  2
KICADB
  70
0
  40
0
  41
1
  42
1
  50
0
  71
0
  3
isocp.shx
  0
STYLE
  2
KICADI
  70
0
  40
0
  41
1
  42
1
  50
15
  71
0
  3
isocp.shx
  0
STYLE
  2
KICADBI
  70
0
  40
0
  41
1
  42
1
  50
15
  71
0
  3
isocp.shx
  0
ENDTAB
  0
TABLE
  2
LAYER
  70
30
  0
LAYER
  2
BLACK
  70
0
  62
7
  6
CONTINUOUS
  0
LAYER
  2
GRAY1
  70
0
  62
251
  6
CONTINUOUS
  0
LAYER
  2
GRAY2
  70
0
  62
8
  6
CONTINUOUS
  0
LAYER
  2
GRAY3
  70
0
  62
9
  6
CONTINUOUS
  0
LAYER
  2
WHITE
  70
0
  62
7
  6
CONTINUOUS
  0
LAYER
  2
LYELLOW
  70
0
  62
51
  6
CONTINUOUS
  0
LAYER
  2
BLUE1
  70
0
  62
178
  6
CONTINUOUS
  0
LAYER
  2
GREEN1
  70
0
  62
98
  6
CONTINUOUS
  0
LAYER
  2
CYAN1
  70
0
  62
138
  6
CONTINUOUS
  0
LAYER
  2
RED1
  70
0
  62
18
  6
CONTINUOUS
  0
LAYER
  2
MAGENTA1
  70
0
  62
228
  6
CONTINUOUS
  0
LAYER
  2
BROWN1
  70
0
  62
58
  6
CONTINUOUS
  0
LAYER
  2
BLUE2
  70
0
  62
5
  6
CONTINUOUS
  0
LAYER
  2
GREEN2
  70
0
  62
3
  6
CONTINUOUS
  0
LAYER
  2
CYAN2
  70
0
  62
4
  6
CONTINUOUS
  0
LAYER
  2
RED2
  70
0
  62
1
  6
CONTINUOUS
  0
LAYER
  2
MAGENTA2
  70
0
  62
6
  6
CONTINUOUS
  0
LAYER
  2
BROWN2
  70
0
  62
54
  6
CONTINUOUS
  0
LAYER
  2
BLUE3
  70
0
  62
171
  6
CONTINUOUS
  0
LAYER
  2
GREEN3
  70
0
  62
91
  6
CONTINUOUS
  0
LAYER
  2
CYAN3
  70
0
  62
131
  6
CONTINUOUS
  0
LAYER
  2
RED3
  70
0
  62
11
  6
CONTINUOUS
  0
LAYER
  2
MAGENTA3
  70
0
  62
221
  6
CONTINUOUS
  0
LAYER
  2
YELLOW3
  70
0
  62
2
  6
CONTINUOUS
  0
LAYER
  2
BLUE4
  70
0
  62
5
  6
CONTINUOUS
  0
LAYER
  2
GREEN4
  70
0
  62
3
  6
CONTINUOUS
  0
LAYER
  2
CYAN4
  70
0
  62
4
  6
CONTINUOUS
  0
LAYER
  2
RED4
  70
0
  62
1
  6
CONTINUOUS
  0
LAYER
  2
MAGENTA4
  70
0
  62
6
  6
CONTINUOUS
  0
LAYER
  2
YELLOW4
  70
0
  62
2
  6
CONTINUOUS
  0
ENDTAB
  0
ENDSEC
  0
SECTION
  2
ENTITIES
0
LINE
8
Black
10
27.921
20
-26.9189
11
26.2192
21
-26.9189
0
LINE
8
Black
10
26.2192
20
-26.9189
11
26.2192
21
-26.1671
0
LINE
8
Black
10
26.2192
20
-26.1671
11
27.921
21
-26.1671
0
LINE
8
Black
10
27.921
20
-26.1671
11
27.921
21
-26.9189
0
LINE
8
Black
10
27.921
20
-28.1889
11
26.2192
21
-28.1889
0
LINE
8
Black
10
26.2192
20
-28.1889
11
26.2192
21
-27.4371
0
LINE
8
Black
10
26.2192
20
-27.4371
11
27.921
21
-27.4371
0
LINE
8
Black
10
27.921
20
-27.4371
11
27.921
21
-28.1889
0
LINE
8
Black
10
27.921
20
-29.4589
11
26.2192
21
-29.4589
0
LINE
8
Black
10
26.2192
20
-29.4589
11
26.2192
21
-28.7071
0
LINE
8
Black
10
26.2192
20
-28.7071
11
27.921
21
-28.7071
0
LINE
8
Black
10
27.921
20
-28.7071
11
27.921
21
-29.4589
0
LINE
8
Black
10
27.921
20
-30.7289
11
26.2192
21
-30.7289
0
LINE
8
Black
10
26.2192
20
-30.7289
11
26.2192
21
-29.9771
0
LINE
8
Black
10
26.2192
20
-29.9771
11
27.921
21
-29.9771
0
LINE
8
Black
10
27.921
20
-29.9771
11
27.921
21
-30.7289
0
LINE
8
Black
10
27.921
20
-34.5389
11
26.2192
21
-34.5389
0
LINE
8
Black
10
26.2192
20
-34.5389
11
26.2192
21
-33.7871
0
LINE
8
Black
10
26.2192
20
-33.7871
11
27.921
21
-33.7871
0
LINE
8
Black
10
27.921
20
-33.7871
11
27.921
21
-34.5389
0
LINE
8
Black
10
27.921
20
-35.8089
11
26.2192
21
-35.8089
0
LINE
8
Black
10
26.2192
20
-35.8089
11
26.2192
21
-35.0571
0
LINE
8
Black
10
26.2192
20
-35.0571
11
27.921
21
-35.0571
0
LINE
8
Black
10
27.921
20
-35.0571
11
27.921
21
-35.8089
0
LINE
8
Black
10
27.921
20
-37.0789
11
26.2192
21
-37.0789
0
LINE
8
Black
10
26.2192
20
-37.0789
11
26.2192
21
-36.3271
0
LINE
8
Black
10
26.2192
20
-36.3271
11
27.921
21
-36.3271
0
LINE
8
Black
10
27.921
20
-36.3271
11
27.921
21
-37.0789
0
LINE
8
Black
10
27.921
20
-38.3489
11
26.2192
21
-38.3489
0
LINE
8
Black
10
26.2192
20
-38.3489
11
26.2192
21
-37.5971
0
LINE
8
Black
10
26.2192
20
-37.5971
11
27.921
21
-37.5971
0
LINE
8
Black
10
27.921
20
-37.5971
11
27.921
21
-38.3489
0
LINE
8
Black
10
27.921
20
-42.1589
11
26.2192
21
-42.1589
0
LINE
8
Black
10
26.2192
20
-42.1589
11
26.2192
21
-41.4071
0
LINE
8
Black
10
26.2192
20
-41.4071
11
27.921
21
-41.4071
0
LINE
8
Black
10
27.921
20
-41.4071
11
27.921
21
-42.1589
0
LINE
8
Black
10
27.921
20
-43.4289
11
26.2192
21
-43.4289
0
LINE
8
Black
10
26.2192
20
-43.4289
11
26.2192
21
-42.6771
0
LINE
8
Black
10
26.2192
20
-42.6771
11
27.921
21
-42.6771
0
LINE
8
Black
10
27.921
20
-42.6771
11
27.921
21
-43.4289
0
LINE
8
Black
10
27.921
20
-44.6989
11
26.2192
21
-44.6989
0
LINE
8
Black
10
26.2192
20
-44.6989
11
26.2192
21
-43.9471
0
LINE
8
Black
10
26.2192
20
-43.9471
11
27.921
21
-43.9471
0
LINE
8
Black
10
27.921
20
-43.9471
11
27.921
21
-44.6989
0
LINE
8
Black
10
27.921
20
-45.9689
11
26.2192
21
-45.9689
0
LINE
8
Black
10
26.2192
20
-45.9689
11
26.2192
21
-45.2171
0
LINE
8
Black
10
26.2192
20
-45.2171
11
27.921
21
-45.2171
0
LINE
8
Black
10
27.921
20
-45.2171
11
27.921
21
-45.9689
0
LINE
8
Black
10
27.921
20
-49.7789
11
26.2192
21
-49.7789
0
LINE
8
Black
10
26.2192
20
-49.7789
11
26.2192
21
-49.0271
0
LINE
8
Black
10
26.2192
20
-49.0271
11
27.921
21
-49.0271
0
LINE
8
Black
10
27.921
20
-49.0271
11
27.921
21
-49.7789
0
LINE
8
Black
10
27.921
20
-51.0489
11
26.2192
21
-51.0489
0
LINE
8
Black
10
26.2192
20
-51.0489
11
26.2192
21
-50.2971
0
LINE
8
Black
10
26.2192
20
-50.2971
11
27.921
21
-50.2971
0
LINE
8
Black
10
27.921
20
-50.2971
11
27.921
21
-51.0489
0
LINE
8
Black
10
27.921
20
-52.3189
11
26.2192
21
-52.3189
0
LINE
8
Black
10
26.2192
20
-52.3189
11
26.2192
21
-51.5671
0
LINE
8
Black
10
26.2192
20
-51.5671
11
27.921
21
-51.5671
0
LINE
8
Black
10
27.921
20
-51.5671
11
27.921
21
-52.3189
0
LINE
8
Black
10
27.921
20
-53.5889
11
26.2192
21
-53.5889
0
LINE
8
Black
10
26.2192
20
-53.5889
11
26.2192
21
-52.8371
0
LINE
8
Black
10
26.2192
20
-52.8371
11
27.921
21
-52.8371
0
LINE
8
Black
10
27.921
20
-52.8371
11
27.921
21
-53.5889
0
LINE
8
Black
10
27.921
20
-57.3989
11
26.2192
21
-57.3989
0
LINE
8
Black
10
26.2192
20
-57.3989
11
26.2192
21
-56.6471
0
LINE
8
Black
10
26.2192
20
-56.6471
11
27.921
21
-56.6471
0
LINE
8
Black
10
27.921
20
-56.6471
11
27.921
21
-57.3989
0
LINE
8
Black
10
27.921
20
-58.6689
11
26.2192
21
-58.6689
0
LINE
8
Black
10
26.2192
20
-58.6689
11
26.2192
21
-57.9171
0
LINE
8
Black
10
26.2192
20
-57.9171
11
27.921
21
-57.9171
0
LINE
8
Black
10
27.921
20
-57.9171
11
27.921
21
-58.6689
0
LINE
8
Black
10
27.921
20
-59.9389
11
26.2192
21
-59.9389
0
LINE
8
Black
10
26.2192
20
-59.9389
11
26.2192
21
-59.1871
0
LINE
8
Black
10
26.2192
20
-59.1871
11
27.921
21
-59.1871
0
LINE
8
Black
10
27.921
20
-59.1871
11
27.921
21
-59.9389
0
LINE
8
Black
10
27.921
20
-61.2089
11
26.2192
21
-61.2089
0
LINE
8
Black
10
26.2192
20
-61.2089
11
26.2192
21
-60.4571
0
LINE
8
Black
10
26.2192
20
-60.4571
11
27.921
21
-60.4571
0
LINE
8
Black
10
27.921
20
-60.4571
11
27.921
21
-61.2089
0
LINE
8
Black
10
27.921
20
-65.0189
11
26.2192
21
-65.0189
0
LINE
8
Black
10
26.2192
20
-65.0189
11
26.2192
21
-64.2671
0
LINE
8
Black
10
26.2192
20
-64.2671
11
27.921
21
-64.2671
0
LINE
8
Black
10
27.921
20
-64.2671
11
27.921
21
-65.0189
0
LINE
8
Black
10
27.921
20
-66.2889
11
26.2192
21
-66.2889
0
LINE
8
Black
10
26.2192
20
-66.2889
11
26.2192
21
-65.5371
0
LINE
8
Black
10
26.2192
20
-65.5371
11
27.921
21
-65.5371
0
LINE
8
Black
10
27.921
20
-65.5371
11
27.921
21
-66.2889
0
LINE
8
Black
10
27.921
20
-67.5589
11
26.2192
21
-67.5589
0
LINE
8
Black
10
26.2192
20
-67.5589
11
26.2192
21
-66.8071
0
LINE
8
Black
10
26.2192
20
-66.8071
11
27.921
21
-66.8071
0
LINE
8
Black
10
27.921
20
-66.8071
11
27.921
21
-67.5589
0
LINE
8
Black
10
27.921
20
-68.8289
11
26.2192
21
-68.8289
0
LINE
8
Black
10
26.2192
20
-68.8289
11
26.2192
21
-68.0771
0
LINE
8
Black
10
26.2192
20
-68.0771
11
27.921
21
-68.0771
0
LINE
8
Black
10
27.921
20
-68.0771
11
27.921
21
-68.8289
0
LINE
8
Black
10
27.921
20
-72.6389
11
26.2192
21
-72.6389
0
LINE
8
Black
10
26.2192
20
-72.6389
11
26.2192
21
-71.8871
0
LINE
8
Black
10
26.2192
20
-71.8871
11
27.921
21
-71.8871
0
LINE
8
Black
10
27.921
20
-71.8871
11
27.921
21
-72.6389
0
LINE
8
Black
10
27.921
20
-73.9089
11
26.2192
21
-73.9089
0
LINE
8
Black
10
26.2192
20
-73.9089
11
26.2192
21
-73.1571
0
LINE
8
Black
10
26.2192
20
-73.1571
11
27.921
21
-73.1571
0
LINE
8
Black
10
27.921
20
-73.1571
11
27.921
21
-73.9089
0
LINE
8
Black
10
27.921
20
-75.1789
11
26.2192
21
-75.1789
0
LINE
8
Black
10
26.2192
20
-75.1789
11
26.2192
21
-74.4271
0
LINE
8
Black
10
26.2192
20
-74.4271
11
27.921
21
-74.4271
0
LINE
8
Black
10
27.921
20
-74.4271
11
27.921
21
-75.1789
0
LINE
8
Black
10
27.921
20
-76.4489
11
26.2192
21
-76.4489
0
LINE
8
Black
10
26.2192
20
-76.4489
11
26.2192
21
-75.6971
0
LINE
8
Black
10
26.2192
20
-75.6971
11
27.921
21
-75.6971
0
LINE
8
Black
10
27.921
20
-75.6971
11
27.921
21
-76.4489
0
LINE
8
Black
10
27.921
20
-80.2589
11
26.2192
21
-80.2589
0
LINE
8
Black
10
26.2192
20
-80.2589
11
26.2192
21
-79.5071
0
LINE
8
Black
10
26.2192
20
-79.5071
11
27.921
21
-79.5071
0
LINE
8
Black
10
27.921
20
-79.5071
11
27.921
21
-80.2589
0
LINE
8
Black
10
27.921
20
-81.5289
11
26.2192
21
-81.5289
0
LINE
8
Black
10
26.2192
20
-81.5289
11
26.2192
21
-80.7771
0
LINE
8
Black
10
26.2192
20
-80.7771
11
27.921
21
-80.7771
0
LINE
8
Black
10
27.921
20
-80.7771
11
27.921
21
-81.5289
0
LINE
8
Black
10
27.921
20
-82.7989
11
26.2192
21
-82.7989
0
LINE
8
Black
10
26.2192
20
-82.7989
11
26.2192
21
-82.0471
0
LINE
8
Black
10
26.2192
20
-82.0471
11
27.921
21
-82.0471
0
LINE
8
Black
10
27.921
20
-82.0471
11
27.921
21
-82.7989
0
LINE
8
Black
10
27.921
20
-84.0689
11
26.2192
21
-84.0689
0
LINE
8
Black
10
26.2192
20
-84.0689
11
26.2192
21
-83.3171
0
LINE
8
Black
10
26.2192
20
-83.3171
11
27.921
21
-83.3171
0
LINE
8
Black
10
27.921
20
-83.3171
11
27.921
21
-84.0689
0
LINE
8
Black
10
33.3058
20
-26.9189
11
31.604
21
-26.9189
0
LINE
8
Black
10
31.604
20
-26.9189
11
31.604
21
-26.1671
0
LINE
8
Black
10
31.604
20
-26.1671
11
33.3058
21
-26.1671
0
LINE
8
Black
10
33.3058
20
-26.1671
11
33.3058
21
-26.9189
0
LINE
8
Black
10
33.3058
20
-28.1889
11
31.604
21
-28.1889
0
LINE
8
Black
10
31.604
20
-28.1889
11
31.604
21
-27.4371
0
LINE
8
Black
10
31.604
20
-27.4371
11
33.3058
21
-27.4371
0
LINE
8
Black
10
33.3058
20
-27.4371
11
33.3058
21
-28.1889
0
LINE
8
Black
10
33.3058
20
-29.4589
11
31.604
21
-29.4589
0
LINE
8
Black
10
31.604
20
-29.4589
11
31.604
21
-28.7071
0
LINE
8
Black
10
31.604
20
-28.7071
11
33.3058
21
-28.7071
0
LINE
8
Black
10
33.3058
20
-28.7071
11
33.3058
21
-29.4589
0
LINE
8
Black
10
33.3058
20
-30.7289
11
31.604
21
-30.7289
0
LINE
8
Black
10
31.604
20
-30.7289
11
31.604
21
-29.9771
0
LINE
8
Black
10
31.604
20
-29.9771
11
33.3058
21
-29.9771
0
LINE
8
Black
10
33.3058
20
-29.9771
11
33.3058
21
-30.7289
0
LINE
8
Black
10
33.3058
20
-34.5389
11
31.604
21
-34.5389
0
LINE
8
Black
10
31.604
20
-34.5389
11
31.604
21
-33.7871
0
LINE
8
Black
10
31.604
20
-33.7871
11
33.3058
21
-33.7871
0
LINE
8
Black
10
33.3058
20
-33.7871
11
33.3058
21
-34.5389
0
LINE
8
Black
10
33.3058
20
-35.8089
11
31.604
21
-35.8089
0
LINE
8
Black
10
31.604
20
-35.8089
11
31.604
21
-35.0571
0
LINE
8
Black
10
31.604
20
-35.0571
11
33.3058
21
-35.0571
0
LINE
8
Black
10
33.3058
20
-35.0571
11
33.3058
21
-35.8089
0
LINE
8
Black
10
33.3058
20
-37.0789
11
31.604
21
-37.0789
0
LINE
8
Black
10
31.604
20
-37.0789
11
31.604
21
-36.3271
0
LINE
8
Black
10
31.604
20
-36.3271
11
33.3058
21
-36.3271
0
LINE
8
Black
10
33.3058
20
-36.3271
11
33.3058
21
-37.0789
0
LINE
8
Black
10
33.3058
20
-38.3489
11
31.604
21
-38.3489
0
LINE
8
Black
10
31.604
20
-38.3489
11
31.604
21
-37.5971
0
LINE
8
Black
10
31.604
20
-37.5971
11
33.3058
21
-37.5971
0
LINE
8
Black
10
33.3058
20
-37.5971
11
33.3058
21
-38.3489
0
LINE
8
Black
10
33.3058
20
-42.1589
11
31.604
21
-42.1589
0
LINE
8
Black
10
31.604
20
-42.1589
11
31.604
21
-41.4071
0
LINE
8
Black
10
31.604
20
-41.4071
11
33.3058
21
-41.4071
0
LINE
8
Black
10
33.3058
20
-41.4071
11
33.3058
21
-42.1589
0
LINE
8
Black
10
33.3058
20
-43.4289
11
31.604
21
-43.4289
0
LINE
8
Black
10
31.604
20
-43.4289
11
31.604
21
-42.6771
0
LINE
8
Black
10
31.604
20
-42.6771
11
33.3058
21
-42.6771
0
LINE
8
Black
10
33.3058
20
-42.6771
11
33.3058
21
-43.4289
0
LINE
8
Black
10
33.3058
20
-44.6989
11
31.604
21
-44.6989
0
LINE
8
Black
10
31.604
20
-44.6989
11
31.604
21
-43.9471
0
LINE
8
Black
10
31.604
20
-43.9471
11
33.3058
21
-43.9471
0
LINE
8
Black
10
33.3058
20
-43.9471
11
33.3058
21
-44.6989
0
LINE
8
Black
10
33.3058
20
-45.9689
11
31.604
21
-45.9689
0
LINE
8
Black
10
31.604
20
-45.9689
11
31.604
21
-45.2171
0
LINE
8
Black
10
31.604
20
-45.2171
11
33.3058
21
-45.2171
0
LINE
8
Black
10
33.3058
20
-45.2171
11
33.3058
21
-45.9689
0
LINE
8
Black
10
33.3058
20
-49.7789
11
31.604
21
-49.7789
0
LINE
8
Black
10
31.604
20
-49.7789
11
31.604
21
-49.0271
0
LINE
8
Black
10
31.604
20
-49.0271
11
33.3058
21
-49.0271
0
LINE
8
Black
10
33.3058
20
-49.0271
11
33.3058
21
-49.7789
0
LINE
8
Black
10
33.3058
20
-51.0489
11
31.604
21
-51.0489
0
LINE
8
Black
10
31.604
20
-51.0489
11
31.604
21
-50.2971
0
LINE
8
Black
10
31.604
20
-50.2971
11
33.3058
21
-50.2971
0
LINE
8
Black
10
33.3058
20
-50.2971
11
33.3058
21
-51.0489
0
LINE
8
Black
10
33.3058
20
-52.3189
11
31.604
21
-52.3189
0
LINE
8
Black
10
31.604
20
-52.3189
11
31.604
21
-51.5671
0
LINE
8
Black
10
31.604
20
-51.5671
11
33.3058
21
-51.5671
0
LINE
8
Black
10
33.3058
20
-51.5671
11
33.3058
21
-52.3189
0
LINE
8
Black
10
33.3058
20
-53.5889
11
31.604
21
-53.5889
0
LINE
8
Black
10
31.604
20
-53.5889
11
31.604
21
-52.8371
0
LINE
8
Black
10
31.604
20
-52.8371
11
33.3058
21
-52.8371
0
LINE
8
Black
10
33.3058
20
-52.8371
11
33.3058
21
-53.5889
0
LINE
8
Black
10
33.3058
20
-57.3989
11
31.604
21
-57.3989
0
LINE
8
Black
10
31.604
20
-57.3989
11
31.604
21
-56.6471
0
LINE
8
Black
10
31.604
20
-56.6471
11
33.3058
21
-56.6471
0
LINE
8
Black
10
33.3058
20
-56.6471
11
33.3058
21
-57.3989
0
LINE
8
Black
10
33.3058
20
-58.6689
11
31.604
21
-58.6689
0
LINE
8
Black
10
31.604
20
-58.6689
11
31.604
21
-57.9171
0
LINE
8
Black
10
31.604
20
-57.9171
11
33.3058
21
-57.9171
0
LINE
8
Black
10
33.3058
20
-57.9171
11
33.3058
21
-58.6689
0
LINE
8
Black
10
33.3058
20
-59.9389
11
31.604
21
-59.9389
0
LINE
8
Black
10
31.604
20
-59.9389
11
31.604
21
-59.1871
0
LINE
8
Black
10
31.604
20
-59.1871
11
33.3058
21
-59.1871
0
LINE
8
Black
10
33.3058
20
-59.1871
11
33.3058
21
-59.9389
0
LINE
8
Black
10
33.3058
20
-61.2089
11
31.604
21
-61.2089
0
LINE
8
Black
10
31.604
20
-61.2089
11
31.604
21
-60.4571
0
LINE
8
Black
10
31.604
20
-60.4571
11
33.3058
21
-60.4571
0
LINE
8
Black
10
33.3058
20
-60.4571
11
33.3058
21
-61.2089
0
LINE
8
Black
10
33.3058
20
-65.0189
11
31.604
21
-65.0189
0
LINE
8
Black
10
31.604
20
-65.0189
11
31.604
21
-64.2671
0
LINE
8
Black
10
31.604
20
-64.2671
11
33.3058
21
-64.2671
0
LINE
8
Black
10
33.3058
20
-64.2671
11
33.3058
21
-65.0189
0
LINE
8
Black
10
33.3058
20
-66.2889
11
31.604
21
-66.2889
0
LINE
8
Black
10
31.604
20
-66.2889
11
31.604
21
-65.5371
0
LINE
8
Black
10
31.604
20
-65.5371
11
33.3058
21
-65.5371
0
LINE
8
Black
10
33.3058
20
-65.5371
11
33.3058
21
-66.2889
0
LINE
8
Black
10
33.3058
20
-67.5589
11
31.604
21
-67.5589
0
LINE
8
Black
10
31.604
20
-67.5589
11
31.604
21
-66.8071
0
LINE
8
Black
10
31.604
20
-66.8071
11
33.3058
21
-66.8071
0
LINE
8
Black
10
33.3058
20
-66.8071
11
33.3058
21
-67.5589
0
LINE
8
Black
10
33.3058
20
-68.8289
11
31.604
21
-68.8289
0
LINE
8
Black
10
31.604
20
-68.8289
11
31.604
21
-68.0771
0
LINE
8
Black
10
31.604
20
-68.0771
11
33.3058
21
-68.0771
0
LINE
8
Black
10
33.3058
20
-68.0771
11
33.3058
21
-68.8289
0
LINE
8
Black
10
33.3058
20
-72.6389
11
31.604
21
-72.6389
0
LINE
8
Black
10
31.604
20
-72.6389
11
31.604
21
-71.8871
0
LINE
8
Black
10
31.604
20
-71.8871
11
33.3058
21
-71.8871
0
LINE
8
Black
10
33.3058
20
-71.8871
11
33.3058
21
-72.6389
0
LINE
8
Black
10
33.3058
20
-73.9089
11
31.604
21
-73.9089
0
LINE
8
Black
10
31.604
20
-73.9089
11
31.604
21
-73.1571
0
LINE
8
Black
10
31.604
20
-73.1571
11
33.3058
21
-73.1571
0
LINE
8
Black
10
33.3058
20
-73.1571
11
33.3058
21
-73.9089
0
LINE
8
Black
10
33.3058
20
-75.1789
11
31.604
21
-75.1789
0
LINE
8
Black
10
31.604
20
-75.1789
11
31.604
21
-74.4271
0
LINE
8
Black
10
31.604
20
-74.4271
11
33.3058
21
-74.4271
0
LINE
8
Black
10
33.3058
20
-74.4271
11
33.3058
21
-75.1789
0
LINE
8
Black
10
33.3058
20
-76.4489
11
31.604
21
-76.4489
0
LINE
8
Black
10
31.604
20
-76.4489
11
31.604
21
-75.6971
0
LINE
8
Black
10
31.604
20
-75.6971
11
33.3058
21
-75.6971
0
LINE
8
Black
10
33.3058
20
-75.6971
11
33.3058
21
-76.4489
0
LINE
8
Black
10
33.3058
20
-80.2589
11
31.604
21
-80.2589
0
LINE
8
Black
10
31.604
20
-80.2589
11
31.604
21
-79.5071
0
LINE
8
Black
10
31.604
20
-79.5071
11
33.3058
21
-79.5071
0
LINE
8
Black
10
33.3058
20
-79.5071
11
33.3058
21
-80.2589
0
LINE
8
Black
10
33.3058
20
-81.5289
11
31.604
21
-81.5289
0
LINE
8
Black
10
31.604
20
-81.5289
11
31.604
21
-80.7771
0
LINE
8
Black
10
31.604
20
-80.7771
11
33.3058
21
-80.7771
0
LINE
8
Black
10
33.3058
20
-80.7771
11
33.3058
21
-81.5289
0
LINE
8
Black
10
33.3058
20
-82.7989
11
31.604
21
-82.7989
0
LINE
8
Black
10
31.604
20
-82.7989
11
31.604
21
-82.0471
0
LINE
8
Black
10
31.604
20
-82.0471
11
33.3058
21
-82.0471
0
LINE
8
Black
10
33.3058
20
-82.0471
11
33.3058
21
-82.7989
0
LINE
8
Black
10
33.3058
20
-84.0689
11
31.604
21
-84.0689
0
LINE
8
Black
10
31.604
20
-84.0689
11
31.604
21
-83.3171
0
LINE
8
Black
10
31.604
20
-83.3171
11
33.3058
21
-83.3171
0
LINE
8
Black
10
33.3058
20
-83.3171
11
33.3058
21
-84.0689
0
LINE
8
Black
10
35.2031
20
-29.6291
11
34.4817
21
-29.6291
0
LINE
8
Black
10
34.4817
20
-29.6291
11
34.4817
21
-28.9077
0
LINE
8
Black
10
34.4817
20
-28.9077
11
35.2031
21
-28.9077
0
LINE
8
Black
10
35.2031
20
-28.9077
11
35.2031
21
-29.6291
0
LINE
8
Black
10
35.2031
20
-30.5283
11
34.4817
21
-30.5283
0
LINE
8
Black
10
34.4817
20
-30.5283
11
34.4817
21
-29.8069
0
LINE
8
Black
10
34.4817
20
-29.8069
11
35.2031
21
-29.8069
0
LINE
8
Black
10
35.2031
20
-29.8069
11
35.2031
21
-30.5283
0
LINE
8
Black
10
35.2031
20
-39.7891
11
34.4817
21
-39.7891
0
LINE
8
Black
10
34.4817
20
-39.7891
11
34.4817
21
-39.0677
0
LINE
8
Black
10
34.4817
20
-39.0677
11
35.2031
21
-39.0677
0
LINE
8
Black
10
35.2031
20
-39.0677
11
35.2031
21
-39.7891
0
LINE
8
Black
10
35.2031
20
-40.6883
11
34.4817
21
-40.6883
0
LINE
8
Black
10
34.4817
20
-40.6883
11
34.4817
21
-39.9669
0
LINE
8
Black
10
34.4817
20
-39.9669
11
35.2031
21
-39.9669
0
LINE
8
Black
10
35.2031
20
-39.9669
11
35.2031
21
-40.6883
0
LINE
8
Black
10
35.2031
20
-44.8691
11
34.4817
21
-44.8691
0
LINE
8
Black
10
34.4817
20
-44.8691
11
34.4817
21
-44.1477
0
LINE
8
Black
10
34.4817
20
-44.1477
11
35.2031
21
-44.1477
0
LINE
8
Black
10
35.2031
20
-44.1477
11
35.2031
21
-44.8691
0
LINE
8
Black
10
35.2031
20
-45.7683
11
34.4817
21
-45.7683
0
LINE
8
Black
10
34.4817
20
-45.7683
11
34.4817
21
-45.0469
0
LINE
8
Black
10
34.4817
20
-45.0469
11
35.2031
21
-45.0469
0
LINE
8
Black
10
35.2031
20
-45.0469
11
35.2031
21
-45.7683
0
LINE
8
Black
10
35.2031
20
-52.4891
11
34.4817
21
-52.4891
0
LINE
8
Black
10
34.4817
20
-52.4891
11
34.4817
21
-51.7677
0
LINE
8
Black
10
34.4817
20
-51.7677
11
35.2031
21
-51.7677
0
LINE
8
Black
10
35.2031
20
-51.7677
11
35.2031
21
-52.4891
0
LINE
8
Black
10
35.2031
20
-53.3883
11
34.4817
21
-53.3883
0
LINE
8
Black
10
34.4817
20
-53.3883
11
34.4817
21
-52.6669
0
LINE
8
Black
10
34.4817
20
-52.6669
11
35.2031
21
-52.6669
0
LINE
8
Black
10
35.2031
20
-52.6669
11
35.2031
21
-53.3883
0
LINE
8
Black
10
35.2031
20
-60.1091
11
34.4817
21
-60.1091
0
LINE
8
Black
10
34.4817
20
-60.1091
11
34.4817
21
-59.3877
0
LINE
8
Black
10
34.4817
20
-59.3877
11
35.2031
21
-59.3877
0
LINE
8
Black
10
35.2031
20
-59.3877
11
35.2031
21
-60.1091
0
LINE
8
Black
10
35.2031
20
-61.0083
11
34.4817
21
-61.0083
0
LINE
8
Black
10
34.4817
20
-61.0083
11
34.4817
21
-60.2869
0
LINE
8
Black
10
34.4817
20
-60.2869
11
35.2031
21
-60.2869
0
LINE
8
Black
10
35.2031
20
-60.2869
11
35.2031
21
-61.0083
0
LINE
8
Black
10
35.2031
20
-67.7291
11
34.4817
21
-67.7291
0
LINE
8
Black
10
34.4817
20
-67.7291
11
34.4817
21
-67.0077
0
LINE
8
Black
10
34.4817
20
-67.0077
11
35.2031
21
-67.0077
0
LINE
8
Black
10
35.2031
20
-67.0077
11
35.2031
21
-67.7291
0
LINE
8
Black
10
35.2031
20
-68.6283
11
34.4817
21
-68.6283
0
LINE
8
Black
10
34.4817
20
-68.6283
11
34.4817
21
-67.9069
0
LINE
8
Black
10
34.4817
20
-67.9069
11
35.2031
21
-67.9069
0
LINE
8
Black
10
35.2031
20
-67.9069
11
35.2031
21
-68.6283
0
LINE
8
Black
10
35.2031
20
-77.8891
11
34.4817
21
-77.8891
0
LINE
8
Black
10
34.4817
20
-77.8891
11
34.4817
21
-77.1677
0
LINE
8
Black
10
34.4817
20
-77.1677
11
35.2031
21
-77.1677
0
LINE
8
Black
10
35.2031
20
-77.1677
11
35.2031
21
-77.8891
0
LINE
8
Black
10
35.2031
20
-78.7883
11
34.4817
21
-78.7883
0
LINE
8
Black
10
34.4817
20
-78.7883
11
34.4817
21
-78.0669
0
LINE
8
Black
10
34.4817
20
-78.0669
11
35.2031
21
-78.0669
0
LINE
8
Black
10
35.2031
20
-78.0669
11
35.2031
21
-78.7883
0
LINE
8
Black
10
35.2031
20
-82.9691
11
34.4817
21
-82.9691
0
LINE
8
Black
10
34.4817
20
-82.9691
11
34.4817
21
-82.2477
0
LINE
8
Black
10
34.4817
20
-82.2477
11
35.2031
21
-82.2477
0
LINE
8
Black
10
35.2031
20
-82.2477
11
35.2031
21
-82.9691
0
LINE
8
Black
10
35.2031
20
-83.8683
11
34.4817
21
-83.8683
0
LINE
8
Black
10
34.4817
20
-83.8683
11
34.4817
21
-83.1469
0
LINE
8
Black
10
34.4817
20
-83.1469
11
35.2031
21
-83.1469
0
LINE
8
Black
10
35.2031
20
-83.1469
11
35.2031
21
-83.8683
0
LINE
8
Black
10
37.1081
20
-29.6291
11
36.3867
21
-29.6291
0
LINE
8
Black
10
36.3867
20
-29.6291
11
36.3867
21
-28.9077
0
LINE
8
Black
10
36.3867
20
-28.9077
11
37.1081
21
-28.9077
0
LINE
8
Black
10
37.1081
20
-28.9077
11
37.1081
21
-29.6291
0
LINE
8
Black
10
37.1081
20
-30.5283
11
36.3867
21
-30.5283
0
LINE
8
Black
10
36.3867
20
-30.5283
11
36.3867
21
-29.8069
0
LINE
8
Black
10
36.3867
20
-29.8069
11
37.1081
21
-29.8069
0
LINE
8
Black
10
37.1081
20
-29.8069
11
37.1081
21
-30.5283
0
LINE
8
Black
10
37.1081
20
-39.7891
11
36.3867
21
-39.7891
0
LINE
8
Black
10
36.3867
20
-39.7891
11
36.3867
21
-39.0677
0
LINE
8
Black
10
36.3867
20
-39.0677
11
37.1081
21
-39.0677
0
LINE
8
Black
10
37.1081
20
-39.0677
11
37.1081
21
-39.7891
0
LINE
8
Black
10
37.1081
20
-40.6883
11
36.3867
21
-40.6883
0
LINE
8
Black
10
36.3867
20
-40.6883
11
36.3867
21
-39.9669
0
LINE
8
Black
10
36.3867
20
-39.9669
11
37.1081
21
-39.9669
0
LINE
8
Black
10
37.1081
20
-39.9669
11
37.1081
21
-40.6883
0
LINE
8
Black
10
37.1081
20
-44.8691
11
36.3867
21
-44.8691
0
LINE
8
Black
10
36.3867
20
-44.8691
11
36.3867
21
-44.1477
0
LINE
8
Black
10
36.3867
20
-44.1477
11
37.1081
21
-44.1477
0
LINE
8
Black
10
37.1081
20
-44.1477
11
37.1081
21
-44.8691
0
LINE
8
Black
10
37.1081
20
-45.7683
11
36.3867
21
-45.7683
0
LINE
8
Black
10
36.3867
20
-45.7683
11
36.3867
21
-45.0469
0
LINE
8
Black
10
36.3867
20
-45.0469
11
37.1081
21
-45.0469
0
LINE
8
Black
10
37.1081
20
-45.0469
11
37.1081
21
-45.7683
0
LINE
8
Black
10
37.1081
20
-52.4891
11
36.3867
21
-52.4891
0
LINE
8
Black
10
36.3867
20
-52.4891
11
36.3867
21
-51.7677
0
LINE
8
Black
10
36.3867
20
-51.7677
11
37.1081
21
-51.7677
0
LINE
8
Black
10
37.1081
20
-51.7677
11
37.1081
21
-52.4891
0
LINE
8
Black
10
37.1081
20
-53.3883
11
36.3867
21
-53.3883
0
LINE
8
Black
10
36.3867
20
-53.3883
11
36.3867
21
-52.6669
0
LINE
8
Black
10
36.3867
20
-52.6669
11
37.1081
21
-52.6669
0
LINE
8
Black
10
37.1081
20
-52.6669
11
37.1081
21
-53.3883
0
LINE
8
Black
10
37.1081
20
-60.1091
11
36.3867
21
-60.1091
0
LINE
8
Black
10
36.3867
20
-60.1091
11
36.3867
21
-59.3877
0
LINE
8
Black
10
36.3867
20
-59.3877
11
37.1081
21
-59.3877
0
LINE
8
Black
10
37.1081
20
-59.3877
11
37.1081
21
-60.1091
0
LINE
8
Black
10
37.1081
20
-61.0083
11
36.3867
21
-61.0083
0
LINE
8
Black
10
36.3867
20
-61.0083
11
36.3867
21
-60.2869
0
LINE
8
Black
10
36.3867
20
-60.2869
11
37.1081
21
-60.2869
0
LINE
8
Black
10
37.1081
20
-60.2869
11
37.1081
21
-61.0083
0
LINE
8
Black
10
37.1081
20
-67.7291
11
36.3867
21
-67.7291
0
LINE
8
Black
10
36.3867
20
-67.7291
11
36.3867
21
-67.0077
0
LINE
8
Black
10
36.3867
20
-67.0077
11
37.1081
21
-67.0077
0
LINE
8
Black
10
37.1081
20
-67.0077
11
37.1081
21
-67.7291
0
LINE
8
Black
10
37.1081
20
-68.6283
11
36.3867
21
-68.6283
0
LINE
8
Black
10
36.3867
20
-68.6283
11
36.3867
21
-67.9069
0
LINE
8
Black
10
36.3867
20
-67.9069
11
37.1081
21
-67.9069
0
LINE
8
Black
10
37.1081
20
-67.9069
11
37.1081
21
-68.6283
0
LINE
8
Black
10
37.1081
20
-77.8891
11
36.3867
21
-77.8891
0
LINE
8
Black
10
36.3867
20
-77.8891
11
36.3867
21
-77.1677
0
LINE
8
Black
10
36.3867
20
-77.1677
11
37.1081
21
-77.1677
0
LINE
8
Black
10
37.1081
20
-77.1677
11
37.1081
21
-77.8891
0
LINE
8
Black
10
37.1081
20
-78.7883
11
36.3867
21
-78.7883
0
LINE
8
Black
10
36.3867
20
-78.7883
11
36.3867
21
-78.0669
0
LINE
8
Black
10
36.3867
20
-78.0669
11
37.1081
21
-78.0669
0
LINE
8
Black
10
37.1081
20
-78.0669
11
37.1081
21
-78.7883
0
LINE
8
Black
10
37.1081
20
-82.9691
11
36.3867
21
-82.9691
0
LINE
8
Black
10
36.3867
20
-82.9691
11
36.3867
21
-82.2477
0
LINE
8
Black
10
36.3867
20
-82.2477
11
37.1081
21
-82.2477
0
LINE
8
Black
10
37.1081
20
-82.2477
11
37.1081
21
-82.9691
0
LINE
8
Black
10
37.1081
20
-83.8683
11
36.3867
21
-83.8683
0
LINE
8
Black
10
36.3867
20
-83.8683
11
36.3867
21
-83.1469
0
LINE
8
Black
10
36.3867
20
-83.1469
11
37.1081
21
-83.1469
0
LINE
8
Black
10
37.1081
20
-83.1469
11
37.1081
21
-83.8683
0
LINE
8
Black
10
36.8579
20
-34.6304
11
37.318
21
-34.8961
0
LINE
8
Black
10
37.318
20
-34.8961
11
37.6596
21
-35.3031
0
LINE
8
Black
10
37.6596
20
-35.3031
11
37.8413
21
-35.8023
0
LINE
8
Black
10
37.8413
20
-35.8023
11
37.8413
21
-36.3337
0
LINE
8
Black
10
37.8413
20
-36.3337
11
37.6596
21
-36.8329
0
LINE
8
Black
10
37.6596
20
-36.8329
11
37.318
21
-37.2399
0
LINE
8
Black
10
37.318
20
-37.2399
11
36.8579
21
-37.5056
0
LINE
8
Black
10
36.8579
20
-37.5056
11
36.3347
21
-37.5978
0
LINE
8
Black
10
36.3347
20
-37.5978
11
35.8115
21
-37.5056
0
LINE
8
Black
10
35.8115
20
-37.5056
11
35.3513
21
-37.2399
0
LINE
8
Black
10
35.3513
20
-37.2399
11
35.0098
21
-36.8329
0
LINE
8
Black
10
35.0098
20
-36.8329
11
34.8281
21
-36.3337
0
LINE
8
Black
10
34.8281
20
-36.3337
11
34.8281
21
-35.8023
0
LINE
8
Black
10
34.8281
20
-35.8023
11
35.0098
21
-35.3031
0
LINE
8
Black
10
35.0098
20
-35.3031
11
35.3513
21
-34.8961
0
LINE
8
Black
10
35.3513
20
-34.8961
11
35.8115
21
-34.6304
0
LINE
8
Black
10
35.8115
20
-34.6304
11
36.3347
21
-34.5382
0
LINE
8
Black
10
36.3347
20
-34.5382
11
36.8579
21
-34.6304
0
LINE
8
Black
10
36.8579
20
-72.7304
11
37.318
21
-72.9961
0
LINE
8
Black
10
37.318
20
-72.9961
11
37.6596
21
-73.4031
0
LINE
8
Black
10
37.6596
20
-73.4031
11
37.8413
21
-73.9023
0
LINE
8
Black
10
37.8413
20
-73.9023
11
37.8413
21
-74.4337
0
LINE
8
Black
10
37.8413
20
-74.4337
11
37.6596
21
-74.9329
0
LINE
8
Black
10
37.6596
20
-74.9329
11
37.318
21
-75.3399
0
LINE
8
Black
10
37.318
20
-75.3399
11
36.8579
21
-75.6056
0
LINE
8
Black
10
36.8579
20
-75.6056
11
36.3347
21
-75.6978
0
LINE
8
Black
10
36.3347
20
-75.6978
11
35.8115
21
-75.6056
0
LINE
8
Black
10
35.8115
20
-75.6056
11
35.3513
21
-75.3399
0
LINE
8
Black
10
35.3513
20
-75.3399
11
35.0098
21
-74.9329
0
LINE
8
Black
10
35.0098
20
-74.9329
11
34.8281
21
-74.4337
0
LINE
8
Black
10
34.8281
20
-74.4337
11
34.8281
21
-73.9023
0
LINE
8
Black
10
34.8281
20
-73.9023
11
35.0098
21
-73.4031
0
LINE
8
Black
10
35.0098
20
-73.4031
11
35.3513
21
-72.9961
0
LINE
8
Black
10
35.3513
20
-72.9961
11
35.8115
21
-72.7304
0
LINE
8
Black
10
35.8115
20
-72.7304
11
36.3347
21
-72.6382
0
LINE
8
Black
10
36.3347
20
-72.6382
11
36.8579
21
-72.7304
0
LINE
8
Black
10
39.0131
20
-29.6291
11
38.2917
21
-29.6291
0
LINE
8
Black
10
38.2917
20
-29.6291
11
38.2917
21
-28.9077
0
LINE
8
Black
10
38.2917
20
-28.9077
11
39.0131
21
-28.9077
0
LINE
8
Black
10
39.0131
20
-28.9077
11
39.0131
21
-29.6291
0
LINE
8
Black
10
39.0131
20
-30.5283
11
38.2917
21
-30.5283
0
LINE
8
Black
10
38.2917
20
-30.5283
11
38.2917
21
-29.8069
0
LINE
8
Black
10
38.2917
20
-29.8069
11
39.0131
21
-29.8069
0
LINE
8
Black
10
39.0131
20
-29.8069
11
39.0131
21
-30.5283
0
LINE
8
Black
10
39.0131
20
-39.7891
11
38.2917
21
-39.7891
0
LINE
8
Black
10
38.2917
20
-39.7891
11
38.2917
21
-39.0677
0
LINE
8
Black
10
38.2917
20
-39.0677
11
39.0131
21
-39.0677
0
LINE
8
Black
10
39.0131
20
-39.0677
11
39.0131
21
-39.7891
0
LINE
8
Black
10
39.0131
20
-40.6883
11
38.2917
21
-40.6883
0
LINE
8
Black
10
38.2917
20
-40.6883
11
38.2917
21
-39.9669
0
LINE
8
Black
10
38.2917
20
-39.9669
11
39.0131
21
-39.9669
0
LINE
8
Black
10
39.0131
20
-39.9669
11
39.0131
21
-40.6883
0
LINE
8
Black
10
39.0131
20
-44.8691
11
38.2917
21
-44.8691
0
LINE
8
Black
10
38.2917
20
-44.8691
11
38.2917
21
-44.1477
0
LINE
8
Black
10
38.2917
20
-44.1477
11
39.0131
21
-44.1477
0
LINE
8
Black
10
39.0131
20
-44.1477
11
39.0131
21
-44.8691
0
LINE
8
Black
10
39.0131
20
-45.7683
11
38.2917
21
-45.7683
0
LINE
8
Black
10
38.2917
20
-45.7683
11
38.2917
21
-45.0469
0
LINE
8
Black
10
38.2917
20
-45.0469
11
39.0131
21
-45.0469
0
LINE
8
Black
10
39.0131
20
-45.0469
11
39.0131
21
-45.7683
0
LINE
8
Black
10
39.0131
20
-52.4891
11
38.2917
21
-52.4891
0
LINE
8
Black
10
38.2917
20
-52.4891
11
38.2917
21
-51.7677
0
LINE
8
Black
10
38.2917
20
-51.7677
11
39.0131
21
-51.7677
0
LINE
8
Black
10
39.0131
20
-51.7677
11
39.0131
21
-52.4891
0
LINE
8
Black
10
39.0131
20
-53.3883
11
38.2917
21
-53.3883
0
LINE
8
Black
10
38.2917
20
-53.3883
11
38.2917
21
-52.6669
0
LINE
8
Black
10
38.2917
20
-52.6669
11
39.0131
21
-52.6669
0
LINE
8
Black
10
39.0131
20
-52.6669
11
39.0131
21
-53.3883
0
LINE
8
Black
10
39.0131
20
-60.1091
11
38.2917
21
-60.1091
0
LINE
8
Black
10
38.2917
20
-60.1091
11
38.2917
21
-59.3877
0
LINE
8
Black
10
38.2917
20
-59.3877
11
39.0131
21
-59.3877
0
LINE
8
Black
10
39.0131
20
-59.3877
11
39.0131
21
-60.1091
0
LINE
8
Black
10
39.0131
20
-61.0083
11
38.2917
21
-61.0083
0
LINE
8
Black
10
38.2917
20
-61.0083
11
38.2917
21
-60.2869
0
LINE
8
Black
10
38.2917
20
-60.2869
11
39.0131
21
-60.2869
0
LINE
8
Black
10
39.0131
20
-60.2869
11
39.0131
21
-61.0083
0
LINE
8
Black
10
39.0131
20
-67.7291
11
38.2917
21
-67.7291
0
LINE
8
Black
10
38.2917
20
-67.7291
11
38.2917
21
-67.0077
0
LINE
8
Black
10
38.2917
20
-67.0077
11
39.0131
21
-67.0077
0
LINE
8
Black
10
39.0131
20
-67.0077
11
39.0131
21
-67.7291
0
LINE
8
Black
10
39.0131
20
-68.6283
11
38.2917
21
-68.6283
0
LINE
8
Black
10
38.2917
20
-68.6283
11
38.2917
21
-67.9069
0
LINE
8
Black
10
38.2917
20
-67.9069
11
39.0131
21
-67.9069
0
LINE
8
Black
10
39.0131
20
-67.9069
11
39.0131
21
-68.6283
0
LINE
8
Black
10
39.0131
20
-77.8891
11
38.2917
21
-77.8891
0
LINE
8
Black
10
38.2917
20
-77.8891
11
38.2917
21
-77.1677
0
LINE
8
Black
10
38.2917
20
-77.1677
11
39.0131
21
-77.1677
0
LINE
8
Black
10
39.0131
20
-77.1677
11
39.0131
21
-77.8891
0
LINE
8
Black
10
39.0131
20
-78.7883
11
38.2917
21
-78.7883
0
LINE
8
Black
10
38.2917
20
-78.7883
11
38.2917
21
-78.0669
0
LINE
8
Black
10
38.2917
20
-78.0669
11
39.0131
21
-78.0669
0
LINE
8
Black
10
39.0131
20
-78.0669
11
39.0131
21
-78.7883
0
LINE
8
Black
10
39.0131
20
-82.9691
11
38.2917
21
-82.9691
0
LINE
8
Black
10
38.2917
20
-82.9691
11
38.2917
21
-82.2477
0
LINE
8
Black
10
38.2917
20
-82.2477
11
39.0131
21
-82.2477
0
LINE
8
Black
10
39.0131
20
-82.2477
11
39.0131
21
-82.9691
0
LINE
8
Black
10
39.0131
20
-83.8683
11
38.2917
21
-83.8683
0
LINE
8
Black
10
38.2917
20
-83.8683
11
38.2917
21
-83.1469
0
LINE
8
Black
10
38.2917
20
-83.1469
11
39.0131
21
-83.1469
0
LINE
8
Black
10
39.0131
20
-83.1469
11
39.0131
21
-83.8683
0
LINE
8
Black
10
43.2847
20
-28.1781
11
42.0973
21
-28.1781
0
LINE
8
Black
10
42.0973
20
-28.1781
11
42.0973
21
-26.1779
0
LINE
8
Black
10
42.0973
20
-26.1779
11
43.2847
21
-26.1779
0
LINE
8
Black
10
43.2847
20
-26.1779
11
43.2847
21
-28.1781
0
LINE
8
Black
10
43.2847
20
-30.7181
11
42.0973
21
-30.7181
0
LINE
8
Black
10
42.0973
20
-30.7181
11
42.0973
21
-28.7179
0
LINE
8
Black
10
42.0973
20
-28.7179
11
43.2847
21
-28.7179
0
LINE
8
Black
10
43.2847
20
-28.7179
11
43.2847
21
-30.7181
0
LINE
8
Black
10
43.2847
20
-35.7981
11
42.0973
21
-35.7981
0
LINE
8
Black
10
42.0973
20
-35.7981
11
42.0973
21
-33.7979
0
LINE
8
Black
10
42.0973
20
-33.7979
11
43.2847
21
-33.7979
0
LINE
8
Black
10
43.2847
20
-33.7979
11
43.2847
21
-35.7981
0
LINE
8
Black
10
43.2847
20
-38.3381
11
42.0973
21
-38.3381
0
LINE
8
Black
10
42.0973
20
-38.3381
11
42.0973
21
-36.3379
0
LINE
8
Black
10
42.0973
20
-36.3379
11
43.2847
21
-36.3379
0
LINE
8
Black
10
43.2847
20
-36.3379
11
43.2847
21
-38.3381
0
LINE
8
Black
10
43.2847
20
-43.4181
11
42.0973
21
-43.4181
0
LINE
8
Black
10
42.0973
20
-43.4181
11
42.0973
21
-41.4179
0
LINE
8
Black
10
42.0973
20
-41.4179
11
43.2847
21
-41.4179
0
LINE
8
Black
10
43.2847
20
-41.4179
11
43.2847
21
-43.4181
0
LINE
8
Black
10
43.2847
20
-45.9581
11
42.0973
21
-45.9581
0
LINE
8
Black
10
42.0973
20
-45.9581
11
42.0973
21
-43.9579
0
LINE
8
Black
10
42.0973
20
-43.9579
11
43.2847
21
-43.9579
0
LINE
8
Black
10
43.2847
20
-43.9579
11
43.2847
21
-45.9581
0
LINE
8
Black
10
43.2847
20
-51.0381
11
42.0973
21
-51.0381
0
LINE
8
Black
10
42.0973
20
-51.0381
11
42.0973
21
-49.0379
0
LINE
8
Black
10
42.0973
20
-49.0379
11
43.2847
21
-49.0379
0
LINE
8
Black
10
43.2847
20
-49.0379
11
43.2847
21
-51.0381
0
LINE
8
Black
10
43.2847
20
-53.5781
11
42.0973
21
-53.5781
0
LINE
8
Black
10
42.0973
20
-53.5781
11
42.0973
21
-51.5779
0
LINE
8
Black
10
42.0973
20
-51.5779
11
43.2847
21
-51.5779
0
LINE
8
Black
10
43.2847
20
-51.5779
11
43.2847
21
-53.5781
0
LINE
8
Black
10
43.2847
20
-58.6581
11
42.0973
21
-58.6581
0
LINE
8
Black
10
42.0973
20
-58.6581
11
42.0973
21
-56.6579
0
LINE
8
Black
10
42.0973
20
-56.6579
11
43.2847
21
-56.6579
0
LINE
8
Black
10
43.2847
20
-56.6579
11
43.2847
21
-58.6581
0
LINE
8
Black
10
43.2847
20
-61.1981
11
42.0973
21
-61.1981
0
LINE
8
Black
10
42.0973
20
-61.1981
11
42.0973
21
-59.1979
0
LINE
8
Black
10
42.0973
20
-59.1979
11
43.2847
21
-59.1979
0
LINE
8
Black
10
43.2847
20
-59.1979
11
43.2847
21
-61.1981
0
LINE
8
Black
10
43.2847
20
-66.2781
11
42.0973
21
-66.2781
0
LINE
8
Black
10
42.0973
20
-66.2781
11
42.0973
21
-64.2779
0
LINE
8
Black
10
42.0973
20
-64.2779
11
43.2847
21
-64.2779
0
LINE
8
Black
10
43.2847
20
-64.2779
11
43.2847
21
-66.2781
0
LINE
8
Black
10
43.2847
20
-68.8181
11
42.0973
21
-68.8181
0
LINE
8
Black
10
42.0973
20
-68.8181
11
42.0973
21
-66.8179
0
LINE
8
Black
10
42.0973
20
-66.8179
11
43.2847
21
-66.8179
0
LINE
8
Black
10
43.2847
20
-66.8179
11
43.2847
21
-68.8181
0
LINE
8
Black
10
43.2847
20
-73.8981
11
42.0973
21
-73.8981
0
LINE
8
Black
10
42.0973
20
-73.8981
11
42.0973
21
-71.8979
0
LINE
8
Black
10
42.0973
20
-71.8979
11
43.2847
21
-71.8979
0
LINE
8
Black
10
43.2847
20
-71.8979
11
43.2847
21
-73.8981
0
LINE
8
Black
10
43.2847
20
-76.4381
11
42.0973
21
-76.4381
0
LINE
8
Black
10
42.0973
20
-76.4381
11
42.0973
21
-74.4379
0
LINE
8
Black
10
42.0973
20
-74.4379
11
43.2847
21
-74.4379
0
LINE
8
Black
10
43.2847
20
-74.4379
11
43.2847
21
-76.4381
0
LINE
8
Black
10
43.2847
20
-81.5181
11
42.0973
21
-81.5181
0
LINE
8
Black
10
42.0973
20
-81.5181
11
42.0973
21
-79.5179
0
LINE
8
Black
10
42.0973
20
-79.5179
11
43.2847
21
-79.5179
0
LINE
8
Black
10
43.2847
20
-79.5179
11
43.2847
21
-81.5181
0
LINE
8
Black
10
43.2847
20
-84.0581
11
42.0973
21
-84.0581
0
LINE
8
Black
10
42.0973
20
-84.0581
11
42.0973
21
-82.0579
0
LINE
8
Black
10
42.0973
20
-82.0579
11
43.2847
21
-82.0579
0
LINE
8
Black
10
43.2847
20
-82.0579
11
43.2847
21
-84.0581
0
LINE
8
Black
10
45.3675
20
-28.1781
11
44.1801
21
-28.1781
0
LINE
8
Black
10
44.1801
20
-28.1781
11
44.1801
21
-26.1779
0
LINE
8
Black
10
44.1801
20
-26.1779
11
45.3675
21
-26.1779
0
LINE
8
Black
10
45.3675
20
-26.1779
11
45.3675
21
-28.1781
0
LINE
8
Black
10
45.3675
20
-30.7181
11
44.1801
21
-30.7181
0
LINE
8
Black
10
44.1801
20
-30.7181
11
44.1801
21
-28.7179
0
LINE
8
Black
10
44.1801
20
-28.7179
11
45.3675
21
-28.7179
0
LINE
8
Black
10
45.3675
20
-28.7179
11
45.3675
21
-30.7181
0
LINE
8
Black
10
45.3675
20
-35.7981
11
44.1801
21
-35.7981
0
LINE
8
Black
10
44.1801
20
-35.7981
11
44.1801
21
-33.7979
0
LINE
8
Black
10
44.1801
20
-33.7979
11
45.3675
21
-33.7979
0
LINE
8
Black
10
45.3675
20
-33.7979
11
45.3675
21
-35.7981
0
LINE
8
Black
10
45.3675
20
-38.3381
11
44.1801
21
-38.3381
0
LINE
8
Black
10
44.1801
20
-38.3381
11
44.1801
21
-36.3379
0
LINE
8
Black
10
44.1801
20
-36.3379
11
45.3675
21
-36.3379
0
LINE
8
Black
10
45.3675
20
-36.3379
11
45.3675
21
-38.3381
0
LINE
8
Black
10
45.3675
20
-43.4181
11
44.1801
21
-43.4181
0
LINE
8
Black
10
44.1801
20
-43.4181
11
44.1801
21
-41.4179
0
LINE
8
Black
10
44.1801
20
-41.4179
11
45.3675
21
-41.4179
0
LINE
8
Black
10
45.3675
20
-41.4179
11
45.3675
21
-43.4181
0
LINE
8
Black
10
45.3675
20
-45.9581
11
44.1801
21
-45.9581
0
LINE
8
Black
10
44.1801
20
-45.9581
11
44.1801
21
-43.9579
0
LINE
8
Black
10
44.1801
20
-43.9579
11
45.3675
21
-43.9579
0
LINE
8
Black
10
45.3675
20
-43.9579
11
45.3675
21
-45.9581
0
LINE
8
Black
10
45.3675
20
-51.0381
11
44.1801
21
-51.0381
0
LINE
8
Black
10
44.1801
20
-51.0381
11
44.1801
21
-49.0379
0
LINE
8
Black
10
44.1801
20
-49.0379
11
45.3675
21
-49.0379
0
LINE
8
Black
10
45.3675
20
-49.0379
11
45.3675
21
-51.0381
0
LINE
8
Black
10
45.3675
20
-53.5781
11
44.1801
21
-53.5781
0
LINE
8
Black
10
44.1801
20
-53.5781
11
44.1801
21
-51.5779
0
LINE
8
Black
10
44.1801
20
-51.5779
11
45.3675
21
-51.5779
0
LINE
8
Black
10
45.3675
20
-51.5779
11
45.3675
21
-53.5781
0
LINE
8
Black
10
45.3675
20
-58.6581
11
44.1801
21
-58.6581
0
LINE
8
Black
10
44.1801
20
-58.6581
11
44.1801
21
-56.6579
0
LINE
8
Black
10
44.1801
20
-56.6579
11
45.3675
21
-56.6579
0
LINE
8
Black
10
45.3675
20
-56.6579
11
45.3675
21
-58.6581
0
LINE
8
Black
10
45.3675
20
-61.1981
11
44.1801
21
-61.1981
0
LINE
8
Black
10
44.1801
20
-61.1981
11
44.1801
21
-59.1979
0
LINE
8
Black
10
44.1801
20
-59.1979
11
45.3675
21
-59.1979
0
LINE
8
Black
10
45.3675
20
-59.1979
11
45.3675
21
-61.1981
0
LINE
8
Black
10
45.3675
20
-66.2781
11
44.1801
21
-66.2781
0
LINE
8
Black
10
44.1801
20
-66.2781
11
44.1801
21
-64.2779
0
LINE
8
Black
10
44.1801
20
-64.2779
11
45.3675
21
-64.2779
0
LINE
8
Black
10
45.3675
20
-64.2779
11
45.3675
21
-66.2781
0
LINE
8
Black
10
45.3675
20
-68.8181
11
44.1801
21
-68.8181
0
LINE
8
Black
10
44.1801
20
-68.8181
11
44.1801
21
-66.8179
0
LINE
8
Black
10
44.1801
20
-66.8179
11
45.3675
21
-66.8179
0
LINE
8
Black
10
45.3675
20
-66.8179
11
45.3675
21
-68.8181
0
LINE
8
Black
10
45.3675
20
-73.8981
11
44.1801
21
-73.8981
0
LINE
8
Black
10
44.1801
20
-73.8981
11
44.1801
21
-71.8979
0
LINE
8
Black
10
44.1801
20
-71.8979
11
45.3675
21
-71.8979
0
LINE
8
Black
10
45.3675
20
-71.8979
11
45.3675
21
-73.8981
0
LINE
8
Black
10
45.3675
20
-76.4381
11
44.1801
21
-76.4381
0
LINE
8
Black
10
44.1801
20
-76.4381
11
44.1801
21
-74.4379
0
LINE
8
Black
10
44.1801
20
-74.4379
11
45.3675
21
-74.4379
0
LINE
8
Black
10
45.3675
20
-74.4379
11
45.3675
21
-76.4381
0
LINE
8
Black
10
45.3675
20
-81.5181
11
44.1801
21
-81.5181
0
LINE
8
Black
10
44.1801
20
-81.5181
11
44.1801
21
-79.5179
0
LINE
8
Black
10
44.1801
20
-79.5179
11
45.3675
21
-79.5179
0
LINE
8
Black
10
45.3675
20
-79.5179
11
45.3675
21
-81.5181
0
LINE
8
Black
10
45.3675
20
-84.0581
11
44.1801
21
-84.0581
0
LINE
8
Black
10
44.1801
20
-84.0581
11
44.1801
21
-82.0579
0
LINE
8
Black
10
44.1801
20
-82.0579
11
45.3675
21
-82.0579
0
LINE
8
Black
10
45.3675
20
-82.0579
11
45.3675
21
-84.0581
0
LINE
8
Black
10
48.0055
20
-26.028
11
48.3736
21
-26.2405
0
LINE
8
Black
10
48.3736
20
-26.2405
11
48.6468
21
-26.5661
0
LINE
8
Black
10
48.6468
20
-26.5661
11
48.7922
21
-26.9655
0
LINE
8
Black
10
48.7922
20
-26.9655
11
48.7922
21
-27.3905
0
LINE
8
Black
10
48.7922
20
-27.3905
11
48.6468
21
-27.7899
0
LINE
8
Black
10
48.6468
20
-27.7899
11
48.3736
21
-28.1155
0
LINE
8
Black
10
48.3736
20
-28.1155
11
48.0055
21
-28.328
0
LINE
8
Black
10
48.0055
20
-28.328
11
47.5869
21
-28.4019
0
LINE
8
Black
10
47.5869
20
-28.4019
11
47.1683
21
-28.328
0
LINE
8
Black
10
47.1683
20
-28.328
11
46.8002
21
-28.1155
0
LINE
8
Black
10
46.8002
20
-28.1155
11
46.527
21
-27.7899
0
LINE
8
Black
10
46.527
20
-27.7899
11
46.3816
21
-27.3905
0
LINE
8
Black
10
46.3816
20
-27.3905
11
46.3816
21
-26.9655
0
LINE
8
Black
10
46.3816
20
-26.9655
11
46.527
21
-26.5661
0
LINE
8
Black
10
46.527
20
-26.5661
11
46.8002
21
-26.2405
0
LINE
8
Black
10
46.8002
20
-26.2405
11
47.1683
21
-26.028
0
LINE
8
Black
10
47.1683
20
-26.028
11
47.5869
21
-25.9541
0
LINE
8
Black
10
47.5869
20
-25.9541
11
48.0055
21
-26.028
0
LINE
8
Black
10
48.0055
20
-28.568
11
48.3736
21
-28.7805
0
LINE
8
Black
10
48.3736
20
-28.7805
11
48.6468
21
-29.1061
0
LINE
8
Black
10
48.6468
20
-29.1061
11
48.7922
21
-29.5055
0
LINE
8
Black
10
48.7922
20
-29.5055
11
48.7922
21
-29.9305
0
LINE
8
Black
10
48.7922
20
-29.9305
11
48.6468
21
-30.3299
0
LINE
8
Black
10
48.6468
20
-30.3299
11
48.3736
21
-30.6555
0
LINE
8
Black
10
48.3736
20
-30.6555
11
48.0055
21
-30.868
0
LINE
8
Black
10
48.0055
20
-30.868
11
47.5869
21
-30.9419
0
LINE
8
Black
10
47.5869
20
-30.9419
11
47.1683
21
-30.868
0
LINE
8
Black
10
47.1683
20
-30.868
11
46.8002
21
-30.6555
0
LINE
8
Black
10
46.8002
20
-30.6555
11
46.527
21
-30.3299
0
LINE
8
Black
10
46.527
20
-30.3299
11
46.3816
21
-29.9305
0
LINE
8
Black
10
46.3816
20
-29.9305
11
46.3816
21
-29.5055
0
LINE
8
Black
10
46.3816
20
-29.5055
11
46.527
21
-29.1061
0
LINE
8
Black
10
46.527
20
-29.1061
11
46.8002
21
-28.7805
0
LINE
8
Black
10
46.8002
20
-28.7805
11
47.1683
21
-28.568
0
LINE
8
Black
10
47.1683
20
-28.568
11
47.5869
21
-28.4941
0
LINE
8
Black
10
47.5869
20
-28.4941
11
48.0055
21
-28.568
0
LINE
8
Black
10
48.0055
20
-33.648
11
48.3736
21
-33.8605
0
LINE
8
Black
10
48.3736
20
-33.8605
11
48.6468
21
-34.1861
0
LINE
8
Black
10
48.6468
20
-34.1861
11
48.7922
21
-34.5855
0
LINE
8
Black
10
48.7922
20
-34.5855
11
48.7922
21
-35.0105
0
LINE
8
Black
10
48.7922
20
-35.0105
11
48.6468
21
-35.4099
0
LINE
8
Black
10
48.6468
20
-35.4099
11
48.3736
21
-35.7355
0
LINE
8
Black
10
48.3736
20
-35.7355
11
48.0055
21
-35.948
0
LINE
8
Black
10
48.0055
20
-35.948
11
47.5869
21
-36.0219
0
LINE
8
Black
10
47.5869
20
-36.0219
11
47.1683
21
-35.948
0
LINE
8
Black
10
47.1683
20
-35.948
11
46.8002
21
-35.7355
0
LINE
8
Black
10
46.8002
20
-35.7355
11
46.527
21
-35.4099
0
LINE
8
Black
10
46.527
20
-35.4099
11
46.3816
21
-35.0105
0
LINE
8
Black
10
46.3816
20
-35.0105
11
46.3816
21
-34.5855
0
LINE
8
Black
10
46.3816
20
-34.5855
11
46.527
21
-34.1861
0
LINE
8
Black
10
46.527
20
-34.1861
11
46.8002
21
-33.8605
0
LINE
8
Black
10
46.8002
20
-33.8605
11
47.1683
21
-33.648
0
LINE
8
Black
10
47.1683
20
-33.648
11
47.5869
21
-33.5741
0
LINE
8
Black
10
47.5869
20
-33.5741
11
48.0055
21
-33.648
0
LINE
8
Black
10
48.0055
20
-36.188
11
48.3736
21
-36.4005
0
LINE
8
Black
10
48.3736
20
-36.4005
11
48.6468
21
-36.7261
0
LINE
8
Black
10
48.6468
20
-36.7261
11
48.7922
21
-37.1255
0
LINE
8
Black
10
48.7922
20
-37.1255
11
48.7922
21
-37.5505
0
LINE
8
Black
10
48.7922
20
-37.5505
11
48.6468
21
-37.9499
0
LINE
8
Black
10
48.6468
20
-37.9499
11
48.3736
21
-38.2755
0
LINE
8
Black
10
48.3736
20
-38.2755
11
48.0055
21
-38.488
0
LINE
8
Black
10
48.0055
20
-38.488
11
47.5869
21
-38.5619
0
LINE
8
Black
10
47.5869
20
-38.5619
11
47.1683
21
-38.488
0
LINE
8
Black
10
47.1683
20
-38.488
11
46.8002
21
-38.2755
0
LINE
8
Black
10
46.8002
20
-38.2755
11
46.527
21
-37.9499
0
LINE
8
Black
10
46.527
20
-37.9499
11
46.3816
21
-37.5505
0
LINE
8
Black
10
46.3816
20
-37.5505
11
46.3816
21
-37.1255
0
LINE
8
Black
10
46.3816
20
-37.1255
11
46.527
21
-36.7261
0
LINE
8
Black
10
46.527
20
-36.7261
11
46.8002
21
-36.4005
0
LINE
8
Black
10
46.8002
20
-36.4005
11
47.1683
21
-36.188
0
LINE
8
Black
10
47.1683
20
-36.188
11
47.5869
21
-36.1141
0
LINE
8
Black
10
47.5869
20
-36.1141
11
48.0055
21
-36.188
0
LINE
8
Black
10
48.0055
20
-41.268
11
48.3736
21
-41.4805
0
LINE
8
Black
10
48.3736
20
-41.4805
11
48.6468
21
-41.8061
0
LINE
8
Black
10
48.6468
20
-41.8061
11
48.7922
21
-42.2055
0
LINE
8
Black
10
48.7922
20
-42.2055
11
48.7922
21
-42.6305
0
LINE
8
Black
10
48.7922
20
-42.6305
11
48.6468
21
-43.0299
0
LINE
8
Black
10
48.6468
20
-43.0299
11
48.3736
21
-43.3555
0
LINE
8
Black
10
48.3736
20
-43.3555
11
48.0055
21
-43.568
0
LINE
8
Black
10
48.0055
20
-43.568
11
47.5869
21
-43.6419
0
LINE
8
Black
10
47.5869
20
-43.6419
11
47.1683
21
-43.568
0
LINE
8
Black
10
47.1683
20
-43.568
11
46.8002
21
-43.3555
0
LINE
8
Black
10
46.8002
20
-43.3555
11
46.527
21
-43.0299
0
LINE
8
Black
10
46.527
20
-43.0299
11
46.3816
21
-42.6305
0
LINE
8
Black
10
46.3816
20
-42.6305
11
46.3816
21
-42.2055
0
LINE
8
Black
10
46.3816
20
-42.2055
11
46.527
21
-41.8061
0
LINE
8
Black
10
46.527
20
-41.8061
11
46.8002
21
-41.4805
0
LINE
8
Black
10
46.8002
20
-41.4805
11
47.1683
21
-41.268
0
LINE
8
Black
10
47.1683
20
-41.268
11
47.5869
21
-41.1941
0
LINE
8
Black
10
47.5869
20
-41.1941
11
48.0055
21
-41.268
0
LINE
8
Black
10
48.0055
20
-43.808
11
48.3736
21
-44.0205
0
LINE
8
Black
10
48.3736
20
-44.0205
11
48.6468
21
-44.3461
0
LINE
8
Black
10
48.6468
20
-44.3461
11
48.7922
21
-44.7455
0
LINE
8
Black
10
48.7922
20
-44.7455
11
48.7922
21
-45.1705
0
LINE
8
Black
10
48.7922
20
-45.1705
11
48.6468
21
-45.5699
0
LINE
8
Black
10
48.6468
20
-45.5699
11
48.3736
21
-45.8955
0
LINE
8
Black
10
48.3736
20
-45.8955
11
48.0055
21
-46.108
0
LINE
8
Black
10
48.0055
20
-46.108
11
47.5869
21
-46.1819
0
LINE
8
Black
10
47.5869
20
-46.1819
11
47.1683
21
-46.108
0
LINE
8
Black
10
47.1683
20
-46.108
11
46.8002
21
-45.8955
0
LINE
8
Black
10
46.8002
20
-45.8955
11
46.527
21
-45.5699
0
LINE
8
Black
10
46.527
20
-45.5699
11
46.3816
21
-45.1705
0
LINE
8
Black
10
46.3816
20
-45.1705
11
46.3816
21
-44.7455
0
LINE
8
Black
10
46.3816
20
-44.7455
11
46.527
21
-44.3461
0
LINE
8
Black
10
46.527
20
-44.3461
11
46.8002
21
-44.0205
0
LINE
8
Black
10
46.8002
20
-44.0205
11
47.1683
21
-43.808
0
LINE
8
Black
10
47.1683
20
-43.808
11
47.5869
21
-43.7341
0
LINE
8
Black
10
47.5869
20
-43.7341
11
48.0055
21
-43.808
0
LINE
8
Black
10
48.0055
20
-48.888
11
48.3736
21
-49.1005
0
LINE
8
Black
10
48.3736
20
-49.1005
11
48.6468
21
-49.4261
0
LINE
8
Black
10
48.6468
20
-49.4261
11
48.7922
21
-49.8255
0
LINE
8
Black
10
48.7922
20
-49.8255
11
48.7922
21
-50.2505
0
LINE
8
Black
10
48.7922
20
-50.2505
11
48.6468
21
-50.6499
0
LINE
8
Black
10
48.6468
20
-50.6499
11
48.3736
21
-50.9755
0
LINE
8
Black
10
48.3736
20
-50.9755
11
48.0055
21
-51.188
0
LINE
8
Black
10
48.0055
20
-51.188
11
47.5869
21
-51.2619
0
LINE
8
Black
10
47.5869
20
-51.2619
11
47.1683
21
-51.188
0
LINE
8
Black
10
47.1683
20
-51.188
11
46.8002
21
-50.9755
0
LINE
8
Black
10
46.8002
20
-50.9755
11
46.527
21
-50.6499
0
LINE
8
Black
10
46.527
20
-50.6499
11
46.3816
21
-50.2505
0
LINE
8
Black
10
46.3816
20
-50.2505
11
46.3816
21
-49.8255
0
LINE
8
Black
10
46.3816
20
-49.8255
11
46.527
21
-49.4261
0
LINE
8
Black
10
46.527
20
-49.4261
11
46.8002
21
-49.1005
0
LINE
8
Black
10
46.8002
20
-49.1005
11
47.1683
21
-48.888
0
LINE
8
Black
10
47.1683
20
-48.888
11
47.5869
21
-48.8141
0
LINE
8
Black
10
47.5869
20
-48.8141
11
48.0055
21
-48.888
0
LINE
8
Black
10
48.0055
20
-51.428
11
48.3736
21
-51.6405
0
LINE
8
Black
10
48.3736
20
-51.6405
11
48.6468
21
-51.9661
0
LINE
8
Black
10
48.6468
20
-51.9661
11
48.7922
21
-52.3655
0
LINE
8
Black
10
48.7922
20
-52.3655
11
48.7922
21
-52.7905
0
LINE
8
Black
10
48.7922
20
-52.7905
11
48.6468
21
-53.1899
0
LINE
8
Black
10
48.6468
20
-53.1899
11
48.3736
21
-53.5155
0
LINE
8
Black
10
48.3736
20
-53.5155
11
48.0055
21
-53.728
0
LINE
8
Black
10
48.0055
20
-53.728
11
47.5869
21
-53.8019
0
LINE
8
Black
10
47.5869
20
-53.8019
11
47.1683
21
-53.728
0
LINE
8
Black
10
47.1683
20
-53.728
11
46.8002
21
-53.5155
0
LINE
8
Black
10
46.8002
20
-53.5155
11
46.527
21
-53.1899
0
LINE
8
Black
10
46.527
20
-53.1899
11
46.3816
21
-52.7905
0
LINE
8
Black
10
46.3816
20
-52.7905
11
46.3816
21
-52.3655
0
LINE
8
Black
10
46.3816
20
-52.3655
11
46.527
21
-51.9661
0
LINE
8
Black
10
46.527
20
-51.9661
11
46.8002
21
-51.6405
0
LINE
8
Black
10
46.8002
20
-51.6405
11
47.1683
21
-51.428
0
LINE
8
Black
10
47.1683
20
-51.428
11
47.5869
21
-51.3541
0
LINE
8
Black
10
47.5869
20
-51.3541
11
48.0055
21
-51.428
0
LINE
8
Black
10
48.0055
20
-56.508
11
48.3736
21
-56.7205
0
LINE
8
Black
10
48.3736
20
-56.7205
11
48.6468
21
-57.0461
0
LINE
8
Black
10
48.6468
20
-57.0461
11
48.7922
21
-57.4455
0
LINE
8
Black
10
48.7922
20
-57.4455
11
48.7922
21
-57.8705
0
LINE
8
Black
10
48.7922
20
-57.8705
11
48.6468
21
-58.2699
0
LINE
8
Black
10
48.6468
20
-58.2699
11
48.3736
21
-58.5955
0
LINE
8
Black
10
48.3736
20
-58.5955
11
48.0055
21
-58.808
0
LINE
8
Black
10
48.0055
20
-58.808
11
47.5869
21
-58.8819
0
LINE
8
Black
10
47.5869
20
-58.8819
11
47.1683
21
-58.808
0
LINE
8
Black
10
47.1683
20
-58.808
11
46.8002
21
-58.5955
0
LINE
8
Black
10
46.8002
20
-58.5955
11
46.527
21
-58.2699
0
LINE
8
Black
10
46.527
20
-58.2699
11
46.3816
21
-57.8705
0
LINE
8
Black
10
46.3816
20
-57.8705
11
46.3816
21
-57.4455
0
LINE
8
Black
10
46.3816
20
-57.4455
11
46.527
21
-57.0461
0
LINE
8
Black
10
46.527
20
-57.0461
11
46.8002
21
-56.7205
0
LINE
8
Black
10
46.8002
20
-56.7205
11
47.1683
21
-56.508
0
LINE
8
Black
10
47.1683
20
-56.508
11
47.5869
21
-56.4341
0
LINE
8
Black
10
47.5869
20
-56.4341
11
48.0055
21
-56.508
0
LINE
8
Black
10
48.0055
20
-59.048
11
48.3736
21
-59.2605
0
LINE
8
Black
10
48.3736
20
-59.2605
11
48.6468
21
-59.5861
0
LINE
8
Black
10
48.6468
20
-59.5861
11
48.7922
21
-59.9855
0
LINE
8
Black
10
48.7922
20
-59.9855
11
48.7922
21
-60.4105
0
LINE
8
Black
10
48.7922
20
-60.4105
11
48.6468
21
-60.8099
0
LINE
8
Black
10
48.6468
20
-60.8099
11
48.3736
21
-61.1355
0
LINE
8
Black
10
48.3736
20
-61.1355
11
48.0055
21
-61.348
0
LINE
8
Black
10
48.0055
20
-61.348
11
47.5869
21
-61.4219
0
LINE
8
Black
10
47.5869
20
-61.4219
11
47.1683
21
-61.348
0
LINE
8
Black
10
47.1683
20
-61.348
11
46.8002
21
-61.1355
0
LINE
8
Black
10
46.8002
20
-61.1355
11
46.527
21
-60.8099
0
LINE
8
Black
10
46.527
20
-60.8099
11
46.3816
21
-60.4105
0
LINE
8
Black
10
46.3816
20
-60.4105
11
46.3816
21
-59.9855
0
LINE
8
Black
10
46.3816
20
-59.9855
11
46.527
21
-59.5861
0
LINE
8
Black
10
46.527
20
-59.5861
11
46.8002
21
-59.2605
0
LINE
8
Black
10
46.8002
20
-59.2605
11
47.1683
21
-59.048
0
LINE
8
Black
10
47.1683
20
-59.048
11
47.5869
21
-58.9741
0
LINE
8
Black
10
47.5869
20
-58.9741
11
48.0055
21
-59.048
0
LINE
8
Black
10
48.0055
20
-64.128
11
48.3736
21
-64.3405
0
LINE
8
Black
10
48.3736
20
-64.3405
11
48.6468
21
-64.6661
0
LINE
8
Black
10
48.6468
20
-64.6661
11
48.7922
21
-65.0655
0
LINE
8
Black
10
48.7922
20
-65.0655
11
48.7922
21
-65.4905
0
LINE
8
Black
10
48.7922
20
-65.4905
11
48.6468
21
-65.8899
0
LINE
8
Black
10
48.6468
20
-65.8899
11
48.3736
21
-66.2155
0
LINE
8
Black
10
48.3736
20
-66.2155
11
48.0055
21
-66.428
0
LINE
8
Black
10
48.0055
20
-66.428
11
47.5869
21
-66.5019
0
LINE
8
Black
10
47.5869
20
-66.5019
11
47.1683
21
-66.428
0
LINE
8
Black
10
47.1683
20
-66.428
11
46.8002
21
-66.2155
0
LINE
8
Black
10
46.8002
20
-66.2155
11
46.527
21
-65.8899
0
LINE
8
Black
10
46.527
20
-65.8899
11
46.3816
21
-65.4905
0
LINE
8
Black
10
46.3816
20
-65.4905
11
46.3816
21
-65.0655
0
LINE
8
Black
10
46.3816
20
-65.0655
11
46.527
21
-64.6661
0
LINE
8
Black
10
46.527
20
-64.6661
11
46.8002
21
-64.3405
0
LINE
8
Black
10
46.8002
20
-64.3405
11
47.1683
21
-64.128
0
LINE
8
Black
10
47.1683
20
-64.128
11
47.5869
21
-64.0541
0
LINE
8
Black
10
47.5869
20
-64.0541
11
48.0055
21
-64.128
0
LINE
8
Black
10
48.0055
20
-66.668
11
48.3736
21
-66.8805
0
LINE
8
Black
10
48.3736
20
-66.8805
11
48.6468
21
-67.2061
0
LINE
8
Black
10
48.6468
20
-67.2061
11
48.7922
21
-67.6055
0
LINE
8
Black
10
48.7922
20
-67.6055
11
48.7922
21
-68.0305
0
LINE
8
Black
10
48.7922
20
-68.0305
11
48.6468
21
-68.4299
0
LINE
8
Black
10
48.6468
20
-68.4299
11
48.3736
21
-68.7555
0
LINE
8
Black
10
48.3736
20
-68.7555
11
48.0055
21
-68.968
0
LINE
8
Black
10
48.0055
20
-68.968
11
47.5869
21
-69.0419
0
LINE
8
Black
10
47.5869
20
-69.0419
11
47.1683
21
-68.968
0
LINE
8
Black
10
47.1683
20
-68.968
11
46.8002
21
-68.7555
0
LINE
8
Black
10
46.8002
20
-68.7555
11
46.527
21
-68.4299
0
LINE
8
Black
10
46.527
20
-68.4299
11
46.3816
21
-68.0305
0
LINE
8
Black
10
46.3816
20
-68.0305
11
46.3816
21
-67.6055
0
LINE
8
Black
10
46.3816
20
-67.6055
11
46.527
21
-67.2061
0
LINE
8
Black
10
46.527
20
-67.2061
11
46.8002
21
-66.8805
0
LINE
8
Black
10
46.8002
20
-66.8805
11
47.1683
21
-66.668
0
LINE
8
Black
10
47.1683
20
-66.668
11
47.5869
21
-66.5941
0
LINE
8
Black
10
47.5869
20
-66.5941
11
48.0055
21
-66.668
0
LINE
8
Black
10
48.0055
20
-71.748
11
48.3736
21
-71.9605
0
LINE
8
Black
10
48.3736
20
-71.9605
11
48.6468
21
-72.2861
0
LINE
8
Black
10
48.6468
20
-72.2861
11
48.7922
21
-72.6855
0
LINE
8
Black
10
48.7922
20
-72.6855
11
48.7922
21
-73.1105
0
LINE
8
Black
10
48.7922
20
-73.1105
11
48.6468
21
-73.5099
0
LINE
8
Black
10
48.6468
20
-73.5099
11
48.3736
21
-73.8355
0
LINE
8
Black
10
48.3736
20
-73.8355
11
48.0055
21
-74.048
0
LINE
8
Black
10
48.0055
20
-74.048
11
47.5869
21
-74.1219
0
LINE
8
Black
10
47.5869
20
-74.1219
11
47.1683
21
-74.048
0
LINE
8
Black
10
47.1683
20
-74.048
11
46.8002
21
-73.8355
0
LINE
8
Black
10
46.8002
20
-73.8355
11
46.527
21
-73.5099
0
LINE
8
Black
10
46.527
20
-73.5099
11
46.3816
21
-73.1105
0
LINE
8
Black
10
46.3816
20
-73.1105
11
46.3816
21
-72.6855
0
LINE
8
Black
10
46.3816
20
-72.6855
11
46.527
21
-72.2861
0
LINE
8
Black
10
46.527
20
-72.2861
11
46.8002
21
-71.9605
0
LINE
8
Black
10
46.8002
20
-71.9605
11
47.1683
21
-71.748
0
LINE
8
Black
10
47.1683
20
-71.748
11
47.5869
21
-71.6741
0
LINE
8
Black
10
47.5869
20
-71.6741
11
48.0055
21
-71.748
0
LINE
8
Black
10
48.0055
20
-74.288
11
48.3736
21
-74.5005
0
LINE
8
Black
10
48.3736
20
-74.5005
11
48.6468
21
-74.8261
0
LINE
8
Black
10
48.6468
20
-74.8261
11
48.7922
21
-75.2255
0
LINE
8
Black
10
48.7922
20
-75.2255
11
48.7922
21
-75.6505
0
LINE
8
Black
10
48.7922
20
-75.6505
11
48.6468
21
-76.0499
0
LINE
8
Black
10
48.6468
20
-76.0499
11
48.3736
21
-76.3755
0
LINE
8
Black
10
48.3736
20
-76.3755
11
48.0055
21
-76.588
0
LINE
8
Black
10
48.0055
20
-76.588
11
47.5869
21
-76.6619
0
LINE
8
Black
10
47.5869
20
-76.6619
11
47.1683
21
-76.588
0
LINE
8
Black
10
47.1683
20
-76.588
11
46.8002
21
-76.3755
0
LINE
8
Black
10
46.8002
20
-76.3755
11
46.527
21
-76.0499
0
LINE
8
Black
10
46.527
20
-76.0499
11
46.3816
21
-75.6505
0
LINE
8
Black
10
46.3816
20
-75.6505
11
46.3816
21
-75.2255
0
LINE
8
Black
10
46.3816
20
-75.2255
11
46.527
21
-74.8261
0
LINE
8
Black
10
46.527
20
-74.8261
11
46.8002
21
-74.5005
0
LINE
8
Black
10
46.8002
20
-74.5005
11
47.1683
21
-74.288
0
LINE
8
Black
10
47.1683
20
-74.288
11
47.5869
21
-74.2141
0
LINE
8
Black
10
47.5869
20
-74.2141
11
48.0055
21
-74.288
0
LINE
8
Black
10
48.0055
20
-79.368
11
48.3736
21
-79.5805
0
LINE
8
Black
10
48.3736
20
-79.5805
11
48.6468
21
-79.9061
0
LINE
8
Black
10
48.6468
20
-79.9061
11
48.7922
21
-80.3055
0
LINE
8
Black
10
48.7922
20
-80.3055
11
48.7922
21
-80.7305
0
LINE
8
Black
10
48.7922
20
-80.7305
11
48.6468
21
-81.1299
0
LINE
8
Black
10
48.6468
20
-81.1299
11
48.3736
21
-81.4555
0
LINE
8
Black
10
48.3736
20
-81.4555
11
48.0055
21
-81.668
0
LINE
8
Black
10
48.0055
20
-81.668
11
47.5869
21
-81.7419
0
LINE
8
Black
10
47.5869
20
-81.7419
11
47.1683
21
-81.668
0
LINE
8
Black
10
47.1683
20
-81.668
11
46.8002
21
-81.4555
0
LINE
8
Black
10
46.8002
20
-81.4555
11
46.527
21
-81.1299
0
LINE
8
Black
10
46.527
20
-81.1299
11
46.3816
21
-80.7305
0
LINE
8
Black
10
46.3816
20
-80.7305
11
46.3816
21
-80.3055
0
LINE
8
Black
10
46.3816
20
-80.3055
11
46.527
21
-79.9061
0
LINE
8
Black
10
46.527
20
-79.9061
11
46.8002
21
-79.5805
0
LINE
8
Black
10
46.8002
20
-79.5805
11
47.1683
21
-79.368
0
LINE
8
Black
10
47.1683
20
-79.368
11
47.5869
21
-79.2941
0
LINE
8
Black
10
47.5869
20
-79.2941
11
48.0055
21
-79.368
0
LINE
8
Black
10
48.0055
20
-81.908
11
48.3736
21
-82.1205
0
LINE
8
Black
10
48.3736
20
-82.1205
11
48.6468
21
-82.4461
0
LINE
8
Black
10
48.6468
20
-82.4461
11
48.7922
21
-82.8455
0
LINE
8
Black
10
48.7922
20
-82.8455
11
48.7922
21
-83.2705
0
LINE
8
Black
10
48.7922
20
-83.2705
11
48.6468
21
-83.6699
0
LINE
8
Black
10
48.6468
20
-83.6699
11
48.3736
21
-83.9955
0
LINE
8
Black
10
48.3736
20
-83.9955
11
48.0055
21
-84.208
0
LINE
8
Black
10
48.0055
20
-84.208
11
47.5869
21
-84.2819
0
LINE
8
Black
10
47.5869
20
-84.2819
11
47.1683
21
-84.208
0
LINE
8
Black
10
47.1683
20
-84.208
11
46.8002
21
-83.9955
0
LINE
8
Black
10
46.8002
20
-83.9955
11
46.527
21
-83.6699
0
LINE
8
Black
10
46.527
20
-83.6699
11
46.3816
21
-83.2705
0
LINE
8
Black
10
46.3816
20
-83.2705
11
46.3816
21
-82.8455
0
LINE
8
Black
10
46.3816
20
-82.8455
11
46.527
21
-82.4461
0
LINE
8
Black
10
46.527
20
-82.4461
11
46.8002
21
-82.1205
0
LINE
8
Black
10
46.8002
20
-82.1205
11
47.1683
21
-81.908
0
LINE
8
Black
10
47.1683
20
-81.908
11
47.5869
21
-81.8341
0
LINE
8
Black
10
47.5869
20
-81.8341
11
48.0055
21
-81.908
0
LINE
8
Black
10
25.3902
20
-84.9486
11
25.3802
21
-84.9486
0
LINE
8
Black
10
25.3802
20
-84.9486
11
25.3708
21
-84.9451
0
LINE
8
Black
10
25.3708
20
-84.9451
11
25.3609
21
-84.9434
0
LINE
8
Black
10
25.3609
20
-84.9434
11
25.3522
21
-84.9384
0
LINE
8
Black
10
25.3522
20
-84.9384
11
25.3428
21
-84.935
0
LINE
8
Black
10
25.3428
20
-84.935
11
25.3352
21
-84.9286
0
LINE
8
Black
10
25.3352
20
-84.9286
11
25.3265
21
-84.9236
0
LINE
8
Black
10
25.3265
20
-84.9236
11
25.3201
21
-84.9159
0
LINE
8
Black
10
25.3201
20
-84.9159
11
25.3124
21
-84.9095
0
LINE
8
Black
10
25.3124
20
-84.9095
11
25.3074
21
-84.9008
0
LINE
8
Black
10
25.3074
20
-84.9008
11
25.301
21
-84.8931
0
LINE
8
Black
10
25.301
20
-84.8931
11
25.2976
21
-84.8838
0
LINE
8
Black
10
25.2976
20
-84.8838
11
25.2926
21
-84.8751
0
LINE
8
Black
10
25.2926
20
-84.8751
11
25.2909
21
-84.8652
0
LINE
8
Black
10
25.2909
20
-84.8652
11
25.2874
21
-84.8558
0
LINE
8
Black
10
25.2874
20
-84.8558
11
25.2874
21
-84.8458
0
LINE
8
Black
10
25.2874
20
-84.8458
11
25.2857
21
-84.836
0
LINE
8
Black
10
25.2857
20
-84.836
11
25.2857
21
-25.4
0
LINE
8
Black
10
25.2857
20
-25.4
11
25.2874
21
-25.3902
0
LINE
8
Black
10
25.2874
20
-25.3902
11
25.2874
21
-25.3802
0
LINE
8
Black
10
25.2874
20
-25.3802
11
25.2909
21
-25.3708
0
LINE
8
Black
10
25.2909
20
-25.3708
11
25.2926
21
-25.3609
0
LINE
8
Black
10
25.2926
20
-25.3609
11
25.2976
21
-25.3522
0
LINE
8
Black
10
25.2976
20
-25.3522
11
25.301
21
-25.3428
0
LINE
8
Black
10
25.301
20
-25.3428
11
25.3074
21
-25.3352
0
LINE
8
Black
10
25.3074
20
-25.3352
11
25.3124
21
-25.3265
0
LINE
8
Black
10
25.3124
20
-25.3265
11
25.3201
21
-25.3201
0
LINE
8
Black
10
25.3201
20
-25.3201
11
25.3265
21
-25.3124
0
LINE
8
Black
10
25.3265
20
-25.3124
11
25.3352
21
-25.3074
0
LINE
8
Black
10
25.3352
20
-25.3074
11
25.3428
21
-25.301
0
LINE
8
Black
10
25.3428
20
-25.301
11
25.3522
21
-25.2976
0
LINE
8
Black
10
25.3522
20
-25.2976
11
25.3609
21
-25.2926
0
LINE
8
Black
10
25.3609
20
-25.2926
11
25.3708
21
-25.2909
0
LINE
8
Black
10
25.3708
20
-25.2909
11
25.3802
21
-25.2874
0
LINE
8
Black
10
25.3802
20
-25.2874
11
25.3902
21
-25.2874
0
LINE
8
Black
10
25.3902
20
-25.2874
11
25.4
21
-25.2857
0
LINE
8
Black
10
25.4
20
-25.2857
11
49.3649
21
-25.2857
0
LINE
8
Black
10
49.3649
20
-25.2857
11
49.3747
21
-25.2874
0
LINE
8
Black
10
49.3747
20
-25.2874
11
49.3847
21
-25.2874
0
LINE
8
Black
10
49.3847
20
-25.2874
11
49.3941
21
-25.2909
0
LINE
8
Black
10
49.3941
20
-25.2909
11
49.404
21
-25.2926
0
LINE
8
Black
10
49.404
20
-25.2926
11
49.4127
21
-25.2976
0
LINE
8
Black
10
49.4127
20
-25.2976
11
49.422
21
-25.301
0
LINE
8
Black
10
49.422
20
-25.301
11
49.4297
21
-25.3074
0
LINE
8
Black
10
49.4297
20
-25.3074
11
49.4384
21
-25.3124
0
LINE
8
Black
10
49.4384
20
-25.3124
11
49.4448
21
-25.3201
0
LINE
8
Black
10
49.4448
20
-25.3201
11
49.4525
21
-25.3265
0
LINE
8
Black
10
49.4525
20
-25.3265
11
49.4575
21
-25.3352
0
LINE
8
Black
10
49.4575
20
-25.3352
11
49.4639
21
-25.3428
0
LINE
8
Black
10
49.4639
20
-25.3428
11
49.4673
21
-25.3522
0
LINE
8
Black
10
49.4673
20
-25.3522
11
49.4723
21
-25.3609
0
LINE
8
Black
10
49.4723
20
-25.3609
11
49.474
21
-25.3708
0
LINE
8
Black
10
49.474
20
-25.3708
11
49.4775
21
-25.3802
0
LINE
8
Black
10
49.4775
20
-25.3802
11
49.4775
21
-25.3902
0
LINE
8
Black
10
49.4775
20
-25.3902
11
49.4792
21
-25.4
0
LINE
8
Black
10
49.4792
20
-25.4
11
49.4792
21
-84.836
0
LINE
8
Black
10
49.4792
20
-84.836
11
49.4775
21
-84.8458
0
LINE
8
Black
10
49.4775
20
-84.8458
11
49.4775
21
-84.8558
0
LINE
8
Black
10
49.4775
20
-84.8558
11
49.474
21
-84.8652
0
LINE
8
Black
10
49.474
20
-84.8652
11
49.4723
21
-84.8751
0
LINE
8
Black
10
49.4723
20
-84.8751
11
49.4673
21
-84.8838
0
LINE
8
Black
10
49.4673
20
-84.8838
11
49.4639
21
-84.8931
0
LINE
8
Black
10
49.4639
20
-84.8931
11
49.4575
21
-84.9008
0
LINE
8
Black
10
49.4575
20
-84.9008
11
49.4525
21
-84.9095
0
LINE
8
Black
10
49.4525
20
-84.9095
11
49.4448
21
-84.9159
0
LINE
8
Black
10
49.4448
20
-84.9159
11
49.4384
21
-84.9236
0
LINE
8
Black
10
49.4384
20
-84.9236
11
49.4297
21
-84.9286
0
LINE
8
Black
10
49.4297
20
-84.9286
11
49.422
21
-84.935
0
LINE
8
Black
10
49.422
20
-84.935
11
49.4127
21
-84.9384
0
LINE
8
Black
10
49.4127
20
-84.9384
11
49.404
21
-84.9434
0
LINE
8
Black
10
49.404
20
-84.9434
11
49.3941
21
-84.9451
0
LINE
8
Black
10
49.3941
20
-84.9451
11
49.3847
21
-84.9486
0
LINE
8
Black
10
49.3847
20
-84.9486
11
49.3747
21
-84.9486
0
LINE
8
Black
10
49.3747
20
-84.9486
11
49.3649
21
-84.9503
0
LINE
8
Black
10
49.3649
20
-84.9503
11
25.4
21
-84.9503
0
LINE
8
Black
10
25.4
20
-84.9503
11
25.3902
21
-84.9486
0
LINE
8
Black
10
49.2506
20
-25.5143
11
25.5143
21
-25.5143
0
LINE
8
Black
10
25.5143
20
-25.5143
11
25.5143
21
-84.7217
0
LINE
8
Black
10
25.5143
20
-84.7217
11
49.2506
21
-84.7217
0
LINE
8
Black
10
49.2506
20
-84.7217
11
49.2506
21
-25.5143
  0
ENDSEC
  0
EOF
