  0
SECTION
  2
HEADER
  9
$ANGBASE
  50
0.0
  9
$ANGDIR
  70
  1
  9
$MEASUREMENT
  70
0
  0
ENDSEC
  0
SECTION
  2
TABLES
  0
TABLE
  2
LTYPE
  70
1
  0
LTYPE
  2
CONTINUOUS
  70
0
  3
Solid line
  72
65
  73
0
  40
0.0
  0
ENDTAB
  0
TABLE
  2
STYLE
  70
4
  0
STYLE
  2
KICAD
  70
0
  40
0
  41
1
  42
1
  50
0
  71
0
  3
isocp.shx
  0
STYLE
  2
KICADB
  70
0
  40
0
  41
1
  42
1
  50
0
  71
0
  3
isocp.shx
  0
STYLE
  2
KICADI
  70
0
  40
0
  41
1
  42
1
  50
15
  71
0
  3
isocp.shx
  0
STYLE
  2
KICADBI
  70
0
  40
0
  41
1
  42
1
  50
15
  71
0
  3
isocp.shx
  0
ENDTAB
  0
TABLE
  2
LAYER
  70
30
  0
LAYER
  2
BLACK
  70
0
  62
7
  6
CONTINUOUS
  0
LAYER
  2
GRAY1
  70
0
  62
251
  6
CONTINUOUS
  0
LAYER
  2
GRAY2
  70
0
  62
8
  6
CONTINUOUS
  0
LAYER
  2
GRAY3
  70
0
  62
9
  6
CONTINUOUS
  0
LAYER
  2
WHITE
  70
0
  62
7
  6
CONTINUOUS
  0
LAYER
  2
LYELLOW
  70
0
  62
51
  6
CONTINUOUS
  0
LAYER
  2
BLUE1
  70
0
  62
178
  6
CONTINUOUS
  0
LAYER
  2
GREEN1
  70
0
  62
98
  6
CONTINUOUS
  0
LAYER
  2
CYAN1
  70
0
  62
138
  6
CONTINUOUS
  0
LAYER
  2
RED1
  70
0
  62
18
  6
CONTINUOUS
  0
LAYER
  2
MAGENTA1
  70
0
  62
228
  6
CONTINUOUS
  0
LAYER
  2
BROWN1
  70
0
  62
58
  6
CONTINUOUS
  0
LAYER
  2
BLUE2
  70
0
  62
5
  6
CONTINUOUS
  0
LAYER
  2
GREEN2
  70
0
  62
3
  6
CONTINUOUS
  0
LAYER
  2
CYAN2
  70
0
  62
4
  6
CONTINUOUS
  0
LAYER
  2
RED2
  70
0
  62
1
  6
CONTINUOUS
  0
LAYER
  2
MAGENTA2
  70
0
  62
6
  6
CONTINUOUS
  0
LAYER
  2
BROWN2
  70
0
  62
54
  6
CONTINUOUS
  0
LAYER
  2
BLUE3
  70
0
  62
171
  6
CONTINUOUS
  0
LAYER
  2
GREEN3
  70
0
  62
91
  6
CONTINUOUS
  0
LAYER
  2
CYAN3
  70
0
  62
131
  6
CONTINUOUS
  0
LAYER
  2
RED3
  70
0
  62
11
  6
CONTINUOUS
  0
LAYER
  2
MAGENTA3
  70
0
  62
221
  6
CONTINUOUS
  0
LAYER
  2
YELLOW3
  70
0
  62
2
  6
CONTINUOUS
  0
LAYER
  2
BLUE4
  70
0
  62
5
  6
CONTINUOUS
  0
LAYER
  2
GREEN4
  70
0
  62
3
  6
CONTINUOUS
  0
LAYER
  2
CYAN4
  70
0
  62
4
  6
CONTINUOUS
  0
LAYER
  2
RED4
  70
0
  62
1
  6
CONTINUOUS
  0
LAYER
  2
MAGENTA4
  70
0
  62
6
  6
CONTINUOUS
  0
LAYER
  2
YELLOW4
  70
0
  62
2
  6
CONTINUOUS
  0
ENDTAB
  0
ENDSEC
  0
SECTION
  2
ENTITIES
0
LINE
8
Black
10
36.8656
20
-34.6095
11
37.3324
21
-34.879
0
LINE
8
Black
10
37.3324
20
-34.879
11
37.6789
21
-35.2919
0
LINE
8
Black
10
37.6789
20
-35.2919
11
37.8632
21
-35.7985
0
LINE
8
Black
10
37.8632
20
-35.7985
11
37.8632
21
-36.3375
0
LINE
8
Black
10
37.8632
20
-36.3375
11
37.6789
21
-36.8441
0
LINE
8
Black
10
37.6789
20
-36.8441
11
37.3324
21
-37.257
0
LINE
8
Black
10
37.3324
20
-37.257
11
36.8656
21
-37.5265
0
LINE
8
Black
10
36.8656
20
-37.5265
11
36.3347
21
-37.6201
0
LINE
8
Black
10
36.3347
20
-37.6201
11
35.8038
21
-37.5265
0
LINE
8
Black
10
35.8038
20
-37.5265
11
35.337
21
-37.257
0
LINE
8
Black
10
35.337
20
-37.257
11
34.9905
21
-36.8441
0
LINE
8
Black
10
34.9905
20
-36.8441
11
34.8062
21
-36.3375
0
LINE
8
Black
10
34.8062
20
-36.3375
11
34.8062
21
-35.7985
0
LINE
8
Black
10
34.8062
20
-35.7985
11
34.9905
21
-35.2919
0
LINE
8
Black
10
34.9905
20
-35.2919
11
35.337
21
-34.879
0
LINE
8
Black
10
35.337
20
-34.879
11
35.8038
21
-34.6095
0
LINE
8
Black
10
35.8038
20
-34.6095
11
36.3347
21
-34.5159
0
LINE
8
Black
10
36.3347
20
-34.5159
11
36.8656
21
-34.6095
0
LINE
8
Black
10
36.8656
20
-72.7095
11
37.3324
21
-72.979
0
LINE
8
Black
10
37.3324
20
-72.979
11
37.6789
21
-73.3919
0
LINE
8
Black
10
37.6789
20
-73.3919
11
37.8632
21
-73.8985
0
LINE
8
Black
10
37.8632
20
-73.8985
11
37.8632
21
-74.4375
0
LINE
8
Black
10
37.8632
20
-74.4375
11
37.6789
21
-74.9441
0
LINE
8
Black
10
37.6789
20
-74.9441
11
37.3324
21
-75.357
0
LINE
8
Black
10
37.3324
20
-75.357
11
36.8656
21
-75.6265
0
LINE
8
Black
10
36.8656
20
-75.6265
11
36.3347
21
-75.7201
0
LINE
8
Black
10
36.3347
20
-75.7201
11
35.8038
21
-75.6265
0
LINE
8
Black
10
35.8038
20
-75.6265
11
35.337
21
-75.357
0
LINE
8
Black
10
35.337
20
-75.357
11
34.9905
21
-74.9441
0
LINE
8
Black
10
34.9905
20
-74.9441
11
34.8062
21
-74.4375
0
LINE
8
Black
10
34.8062
20
-74.4375
11
34.8062
21
-73.8985
0
LINE
8
Black
10
34.8062
20
-73.8985
11
34.9905
21
-73.3919
0
LINE
8
Black
10
34.9905
20
-73.3919
11
35.337
21
-72.979
0
LINE
8
Black
10
35.337
20
-72.979
11
35.8038
21
-72.7095
0
LINE
8
Black
10
35.8038
20
-72.7095
11
36.3347
21
-72.6159
0
LINE
8
Black
10
36.3347
20
-72.6159
11
36.8656
21
-72.7095
0
LINE
8
Black
10
47.9968
20
-26.0519
11
48.3572
21
-26.26
0
LINE
8
Black
10
48.3572
20
-26.26
11
48.6247
21
-26.5788
0
LINE
8
Black
10
48.6247
20
-26.5788
11
48.7671
21
-26.9699
0
LINE
8
Black
10
48.7671
20
-26.9699
11
48.7671
21
-27.3861
0
LINE
8
Black
10
48.7671
20
-27.3861
11
48.6247
21
-27.7772
0
LINE
8
Black
10
48.6247
20
-27.7772
11
48.3572
21
-28.096
0
LINE
8
Black
10
48.3572
20
-28.096
11
47.9968
21
-28.3041
0
LINE
8
Black
10
47.9968
20
-28.3041
11
47.5869
21
-28.3764
0
LINE
8
Black
10
47.5869
20
-28.3764
11
47.177
21
-28.3041
0
LINE
8
Black
10
47.177
20
-28.3041
11
46.8166
21
-28.096
0
LINE
8
Black
10
46.8166
20
-28.096
11
46.5491
21
-27.7772
0
LINE
8
Black
10
46.5491
20
-27.7772
11
46.4067
21
-27.3861
0
LINE
8
Black
10
46.4067
20
-27.3861
11
46.4067
21
-26.9699
0
LINE
8
Black
10
46.4067
20
-26.9699
11
46.5491
21
-26.5788
0
LINE
8
Black
10
46.5491
20
-26.5788
11
46.8166
21
-26.26
0
LINE
8
Black
10
46.8166
20
-26.26
11
47.177
21
-26.0519
0
LINE
8
Black
10
47.177
20
-26.0519
11
47.5869
21
-25.9796
0
LINE
8
Black
10
47.5869
20
-25.9796
11
47.9968
21
-26.0519
0
LINE
8
Black
10
47.9968
20
-28.5919
11
48.3572
21
-28.8
0
LINE
8
Black
10
48.3572
20
-28.8
11
48.6247
21
-29.1188
0
LINE
8
Black
10
48.6247
20
-29.1188
11
48.7671
21
-29.5099
0
LINE
8
Black
10
48.7671
20
-29.5099
11
48.7671
21
-29.9261
0
LINE
8
Black
10
48.7671
20
-29.9261
11
48.6247
21
-30.3172
0
LINE
8
Black
10
48.6247
20
-30.3172
11
48.3572
21
-30.636
0
LINE
8
Black
10
48.3572
20
-30.636
11
47.9968
21
-30.8441
0
LINE
8
Black
10
47.9968
20
-30.8441
11
47.5869
21
-30.9164
0
LINE
8
Black
10
47.5869
20
-30.9164
11
47.177
21
-30.8441
0
LINE
8
Black
10
47.177
20
-30.8441
11
46.8166
21
-30.636
0
LINE
8
Black
10
46.8166
20
-30.636
11
46.5491
21
-30.3172
0
LINE
8
Black
10
46.5491
20
-30.3172
11
46.4067
21
-29.9261
0
LINE
8
Black
10
46.4067
20
-29.9261
11
46.4067
21
-29.5099
0
LINE
8
Black
10
46.4067
20
-29.5099
11
46.5491
21
-29.1188
0
LINE
8
Black
10
46.5491
20
-29.1188
11
46.8166
21
-28.8
0
LINE
8
Black
10
46.8166
20
-28.8
11
47.177
21
-28.5919
0
LINE
8
Black
10
47.177
20
-28.5919
11
47.5869
21
-28.5196
0
LINE
8
Black
10
47.5869
20
-28.5196
11
47.9968
21
-28.5919
0
LINE
8
Black
10
47.9968
20
-33.6719
11
48.3572
21
-33.88
0
LINE
8
Black
10
48.3572
20
-33.88
11
48.6247
21
-34.1988
0
LINE
8
Black
10
48.6247
20
-34.1988
11
48.7671
21
-34.5899
0
LINE
8
Black
10
48.7671
20
-34.5899
11
48.7671
21
-35.0061
0
LINE
8
Black
10
48.7671
20
-35.0061
11
48.6247
21
-35.3972
0
LINE
8
Black
10
48.6247
20
-35.3972
11
48.3572
21
-35.716
0
LINE
8
Black
10
48.3572
20
-35.716
11
47.9968
21
-35.9241
0
LINE
8
Black
10
47.9968
20
-35.9241
11
47.5869
21
-35.9964
0
LINE
8
Black
10
47.5869
20
-35.9964
11
47.177
21
-35.9241
0
LINE
8
Black
10
47.177
20
-35.9241
11
46.8166
21
-35.716
0
LINE
8
Black
10
46.8166
20
-35.716
11
46.5491
21
-35.3972
0
LINE
8
Black
10
46.5491
20
-35.3972
11
46.4067
21
-35.0061
0
LINE
8
Black
10
46.4067
20
-35.0061
11
46.4067
21
-34.5899
0
LINE
8
Black
10
46.4067
20
-34.5899
11
46.5491
21
-34.1988
0
LINE
8
Black
10
46.5491
20
-34.1988
11
46.8166
21
-33.88
0
LINE
8
Black
10
46.8166
20
-33.88
11
47.177
21
-33.6719
0
LINE
8
Black
10
47.177
20
-33.6719
11
47.5869
21
-33.5996
0
LINE
8
Black
10
47.5869
20
-33.5996
11
47.9968
21
-33.6719
0
LINE
8
Black
10
47.9968
20
-36.2119
11
48.3572
21
-36.42
0
LINE
8
Black
10
48.3572
20
-36.42
11
48.6247
21
-36.7388
0
LINE
8
Black
10
48.6247
20
-36.7388
11
48.7671
21
-37.1299
0
LINE
8
Black
10
48.7671
20
-37.1299
11
48.7671
21
-37.5461
0
LINE
8
Black
10
48.7671
20
-37.5461
11
48.6247
21
-37.9372
0
LINE
8
Black
10
48.6247
20
-37.9372
11
48.3572
21
-38.256
0
LINE
8
Black
10
48.3572
20
-38.256
11
47.9968
21
-38.4641
0
LINE
8
Black
10
47.9968
20
-38.4641
11
47.5869
21
-38.5364
0
LINE
8
Black
10
47.5869
20
-38.5364
11
47.177
21
-38.4641
0
LINE
8
Black
10
47.177
20
-38.4641
11
46.8166
21
-38.256
0
LINE
8
Black
10
46.8166
20
-38.256
11
46.5491
21
-37.9372
0
LINE
8
Black
10
46.5491
20
-37.9372
11
46.4067
21
-37.5461
0
LINE
8
Black
10
46.4067
20
-37.5461
11
46.4067
21
-37.1299
0
LINE
8
Black
10
46.4067
20
-37.1299
11
46.5491
21
-36.7388
0
LINE
8
Black
10
46.5491
20
-36.7388
11
46.8166
21
-36.42
0
LINE
8
Black
10
46.8166
20
-36.42
11
47.177
21
-36.2119
0
LINE
8
Black
10
47.177
20
-36.2119
11
47.5869
21
-36.1396
0
LINE
8
Black
10
47.5869
20
-36.1396
11
47.9968
21
-36.2119
0
LINE
8
Black
10
47.9968
20
-41.2919
11
48.3572
21
-41.5
0
LINE
8
Black
10
48.3572
20
-41.5
11
48.6247
21
-41.8188
0
LINE
8
Black
10
48.6247
20
-41.8188
11
48.7671
21
-42.2099
0
LINE
8
Black
10
48.7671
20
-42.2099
11
48.7671
21
-42.6261
0
LINE
8
Black
10
48.7671
20
-42.6261
11
48.6247
21
-43.0172
0
LINE
8
Black
10
48.6247
20
-43.0172
11
48.3572
21
-43.336
0
LINE
8
Black
10
48.3572
20
-43.336
11
47.9968
21
-43.5441
0
LINE
8
Black
10
47.9968
20
-43.5441
11
47.5869
21
-43.6164
0
LINE
8
Black
10
47.5869
20
-43.6164
11
47.177
21
-43.5441
0
LINE
8
Black
10
47.177
20
-43.5441
11
46.8166
21
-43.336
0
LINE
8
Black
10
46.8166
20
-43.336
11
46.5491
21
-43.0172
0
LINE
8
Black
10
46.5491
20
-43.0172
11
46.4067
21
-42.6261
0
LINE
8
Black
10
46.4067
20
-42.6261
11
46.4067
21
-42.2099
0
LINE
8
Black
10
46.4067
20
-42.2099
11
46.5491
21
-41.8188
0
LINE
8
Black
10
46.5491
20
-41.8188
11
46.8166
21
-41.5
0
LINE
8
Black
10
46.8166
20
-41.5
11
47.177
21
-41.2919
0
LINE
8
Black
10
47.177
20
-41.2919
11
47.5869
21
-41.2196
0
LINE
8
Black
10
47.5869
20
-41.2196
11
47.9968
21
-41.2919
0
LINE
8
Black
10
47.9968
20
-43.8319
11
48.3572
21
-44.04
0
LINE
8
Black
10
48.3572
20
-44.04
11
48.6247
21
-44.3588
0
LINE
8
Black
10
48.6247
20
-44.3588
11
48.7671
21
-44.7499
0
LINE
8
Black
10
48.7671
20
-44.7499
11
48.7671
21
-45.1661
0
LINE
8
Black
10
48.7671
20
-45.1661
11
48.6247
21
-45.5572
0
LINE
8
Black
10
48.6247
20
-45.5572
11
48.3572
21
-45.876
0
LINE
8
Black
10
48.3572
20
-45.876
11
47.9968
21
-46.0841
0
LINE
8
Black
10
47.9968
20
-46.0841
11
47.5869
21
-46.1564
0
LINE
8
Black
10
47.5869
20
-46.1564
11
47.177
21
-46.0841
0
LINE
8
Black
10
47.177
20
-46.0841
11
46.8166
21
-45.876
0
LINE
8
Black
10
46.8166
20
-45.876
11
46.5491
21
-45.5572
0
LINE
8
Black
10
46.5491
20
-45.5572
11
46.4067
21
-45.1661
0
LINE
8
Black
10
46.4067
20
-45.1661
11
46.4067
21
-44.7499
0
LINE
8
Black
10
46.4067
20
-44.7499
11
46.5491
21
-44.3588
0
LINE
8
Black
10
46.5491
20
-44.3588
11
46.8166
21
-44.04
0
LINE
8
Black
10
46.8166
20
-44.04
11
47.177
21
-43.8319
0
LINE
8
Black
10
47.177
20
-43.8319
11
47.5869
21
-43.7596
0
LINE
8
Black
10
47.5869
20
-43.7596
11
47.9968
21
-43.8319
0
LINE
8
Black
10
47.9968
20
-48.9119
11
48.3572
21
-49.12
0
LINE
8
Black
10
48.3572
20
-49.12
11
48.6247
21
-49.4388
0
LINE
8
Black
10
48.6247
20
-49.4388
11
48.7671
21
-49.8299
0
LINE
8
Black
10
48.7671
20
-49.8299
11
48.7671
21
-50.2461
0
LINE
8
Black
10
48.7671
20
-50.2461
11
48.6247
21
-50.6372
0
LINE
8
Black
10
48.6247
20
-50.6372
11
48.3572
21
-50.956
0
LINE
8
Black
10
48.3572
20
-50.956
11
47.9968
21
-51.1641
0
LINE
8
Black
10
47.9968
20
-51.1641
11
47.5869
21
-51.2364
0
LINE
8
Black
10
47.5869
20
-51.2364
11
47.177
21
-51.1641
0
LINE
8
Black
10
47.177
20
-51.1641
11
46.8166
21
-50.956
0
LINE
8
Black
10
46.8166
20
-50.956
11
46.5491
21
-50.6372
0
LINE
8
Black
10
46.5491
20
-50.6372
11
46.4067
21
-50.2461
0
LINE
8
Black
10
46.4067
20
-50.2461
11
46.4067
21
-49.8299
0
LINE
8
Black
10
46.4067
20
-49.8299
11
46.5491
21
-49.4388
0
LINE
8
Black
10
46.5491
20
-49.4388
11
46.8166
21
-49.12
0
LINE
8
Black
10
46.8166
20
-49.12
11
47.177
21
-48.9119
0
LINE
8
Black
10
47.177
20
-48.9119
11
47.5869
21
-48.8396
0
LINE
8
Black
10
47.5869
20
-48.8396
11
47.9968
21
-48.9119
0
LINE
8
Black
10
47.9968
20
-51.4519
11
48.3572
21
-51.66
0
LINE
8
Black
10
48.3572
20
-51.66
11
48.6247
21
-51.9788
0
LINE
8
Black
10
48.6247
20
-51.9788
11
48.7671
21
-52.3699
0
LINE
8
Black
10
48.7671
20
-52.3699
11
48.7671
21
-52.7861
0
LINE
8
Black
10
48.7671
20
-52.7861
11
48.6247
21
-53.1772
0
LINE
8
Black
10
48.6247
20
-53.1772
11
48.3572
21
-53.496
0
LINE
8
Black
10
48.3572
20
-53.496
11
47.9968
21
-53.7041
0
LINE
8
Black
10
47.9968
20
-53.7041
11
47.5869
21
-53.7764
0
LINE
8
Black
10
47.5869
20
-53.7764
11
47.177
21
-53.7041
0
LINE
8
Black
10
47.177
20
-53.7041
11
46.8166
21
-53.496
0
LINE
8
Black
10
46.8166
20
-53.496
11
46.5491
21
-53.1772
0
LINE
8
Black
10
46.5491
20
-53.1772
11
46.4067
21
-52.7861
0
LINE
8
Black
10
46.4067
20
-52.7861
11
46.4067
21
-52.3699
0
LINE
8
Black
10
46.4067
20
-52.3699
11
46.5491
21
-51.9788
0
LINE
8
Black
10
46.5491
20
-51.9788
11
46.8166
21
-51.66
0
LINE
8
Black
10
46.8166
20
-51.66
11
47.177
21
-51.4519
0
LINE
8
Black
10
47.177
20
-51.4519
11
47.5869
21
-51.3796
0
LINE
8
Black
10
47.5869
20
-51.3796
11
47.9968
21
-51.4519
0
LINE
8
Black
10
47.9968
20
-56.5319
11
48.3572
21
-56.74
0
LINE
8
Black
10
48.3572
20
-56.74
11
48.6247
21
-57.0588
0
LINE
8
Black
10
48.6247
20
-57.0588
11
48.7671
21
-57.4499
0
LINE
8
Black
10
48.7671
20
-57.4499
11
48.7671
21
-57.8661
0
LINE
8
Black
10
48.7671
20
-57.8661
11
48.6247
21
-58.2572
0
LINE
8
Black
10
48.6247
20
-58.2572
11
48.3572
21
-58.576
0
LINE
8
Black
10
48.3572
20
-58.576
11
47.9968
21
-58.7841
0
LINE
8
Black
10
47.9968
20
-58.7841
11
47.5869
21
-58.8564
0
LINE
8
Black
10
47.5869
20
-58.8564
11
47.177
21
-58.7841
0
LINE
8
Black
10
47.177
20
-58.7841
11
46.8166
21
-58.576
0
LINE
8
Black
10
46.8166
20
-58.576
11
46.5491
21
-58.2572
0
LINE
8
Black
10
46.5491
20
-58.2572
11
46.4067
21
-57.8661
0
LINE
8
Black
10
46.4067
20
-57.8661
11
46.4067
21
-57.4499
0
LINE
8
Black
10
46.4067
20
-57.4499
11
46.5491
21
-57.0588
0
LINE
8
Black
10
46.5491
20
-57.0588
11
46.8166
21
-56.74
0
LINE
8
Black
10
46.8166
20
-56.74
11
47.177
21
-56.5319
0
LINE
8
Black
10
47.177
20
-56.5319
11
47.5869
21
-56.4596
0
LINE
8
Black
10
47.5869
20
-56.4596
11
47.9968
21
-56.5319
0
LINE
8
Black
10
47.9968
20
-59.0719
11
48.3572
21
-59.28
0
LINE
8
Black
10
48.3572
20
-59.28
11
48.6247
21
-59.5988
0
LINE
8
Black
10
48.6247
20
-59.5988
11
48.7671
21
-59.9899
0
LINE
8
Black
10
48.7671
20
-59.9899
11
48.7671
21
-60.4061
0
LINE
8
Black
10
48.7671
20
-60.4061
11
48.6247
21
-60.7972
0
LINE
8
Black
10
48.6247
20
-60.7972
11
48.3572
21
-61.116
0
LINE
8
Black
10
48.3572
20
-61.116
11
47.9968
21
-61.3241
0
LINE
8
Black
10
47.9968
20
-61.3241
11
47.5869
21
-61.3964
0
LINE
8
Black
10
47.5869
20
-61.3964
11
47.177
21
-61.3241
0
LINE
8
Black
10
47.177
20
-61.3241
11
46.8166
21
-61.116
0
LINE
8
Black
10
46.8166
20
-61.116
11
46.5491
21
-60.7972
0
LINE
8
Black
10
46.5491
20
-60.7972
11
46.4067
21
-60.4061
0
LINE
8
Black
10
46.4067
20
-60.4061
11
46.4067
21
-59.9899
0
LINE
8
Black
10
46.4067
20
-59.9899
11
46.5491
21
-59.5988
0
LINE
8
Black
10
46.5491
20
-59.5988
11
46.8166
21
-59.28
0
LINE
8
Black
10
46.8166
20
-59.28
11
47.177
21
-59.0719
0
LINE
8
Black
10
47.177
20
-59.0719
11
47.5869
21
-58.9996
0
LINE
8
Black
10
47.5869
20
-58.9996
11
47.9968
21
-59.0719
0
LINE
8
Black
10
47.9968
20
-64.1519
11
48.3572
21
-64.36
0
LINE
8
Black
10
48.3572
20
-64.36
11
48.6247
21
-64.6788
0
LINE
8
Black
10
48.6247
20
-64.6788
11
48.7671
21
-65.0699
0
LINE
8
Black
10
48.7671
20
-65.0699
11
48.7671
21
-65.4861
0
LINE
8
Black
10
48.7671
20
-65.4861
11
48.6247
21
-65.8772
0
LINE
8
Black
10
48.6247
20
-65.8772
11
48.3572
21
-66.196
0
LINE
8
Black
10
48.3572
20
-66.196
11
47.9968
21
-66.4041
0
LINE
8
Black
10
47.9968
20
-66.4041
11
47.5869
21
-66.4764
0
LINE
8
Black
10
47.5869
20
-66.4764
11
47.177
21
-66.4041
0
LINE
8
Black
10
47.177
20
-66.4041
11
46.8166
21
-66.196
0
LINE
8
Black
10
46.8166
20
-66.196
11
46.5491
21
-65.8772
0
LINE
8
Black
10
46.5491
20
-65.8772
11
46.4067
21
-65.4861
0
LINE
8
Black
10
46.4067
20
-65.4861
11
46.4067
21
-65.0699
0
LINE
8
Black
10
46.4067
20
-65.0699
11
46.5491
21
-64.6788
0
LINE
8
Black
10
46.5491
20
-64.6788
11
46.8166
21
-64.36
0
LINE
8
Black
10
46.8166
20
-64.36
11
47.177
21
-64.1519
0
LINE
8
Black
10
47.177
20
-64.1519
11
47.5869
21
-64.0796
0
LINE
8
Black
10
47.5869
20
-64.0796
11
47.9968
21
-64.1519
0
LINE
8
Black
10
47.9968
20
-66.6919
11
48.3572
21
-66.9
0
LINE
8
Black
10
48.3572
20
-66.9
11
48.6247
21
-67.2188
0
LINE
8
Black
10
48.6247
20
-67.2188
11
48.7671
21
-67.6099
0
LINE
8
Black
10
48.7671
20
-67.6099
11
48.7671
21
-68.0261
0
LINE
8
Black
10
48.7671
20
-68.0261
11
48.6247
21
-68.4172
0
LINE
8
Black
10
48.6247
20
-68.4172
11
48.3572
21
-68.736
0
LINE
8
Black
10
48.3572
20
-68.736
11
47.9968
21
-68.9441
0
LINE
8
Black
10
47.9968
20
-68.9441
11
47.5869
21
-69.0164
0
LINE
8
Black
10
47.5869
20
-69.0164
11
47.177
21
-68.9441
0
LINE
8
Black
10
47.177
20
-68.9441
11
46.8166
21
-68.736
0
LINE
8
Black
10
46.8166
20
-68.736
11
46.5491
21
-68.4172
0
LINE
8
Black
10
46.5491
20
-68.4172
11
46.4067
21
-68.0261
0
LINE
8
Black
10
46.4067
20
-68.0261
11
46.4067
21
-67.6099
0
LINE
8
Black
10
46.4067
20
-67.6099
11
46.5491
21
-67.2188
0
LINE
8
Black
10
46.5491
20
-67.2188
11
46.8166
21
-66.9
0
LINE
8
Black
10
46.8166
20
-66.9
11
47.177
21
-66.6919
0
LINE
8
Black
10
47.177
20
-66.6919
11
47.5869
21
-66.6196
0
LINE
8
Black
10
47.5869
20
-66.6196
11
47.9968
21
-66.6919
0
LINE
8
Black
10
47.9968
20
-71.7719
11
48.3572
21
-71.98
0
LINE
8
Black
10
48.3572
20
-71.98
11
48.6247
21
-72.2988
0
LINE
8
Black
10
48.6247
20
-72.2988
11
48.7671
21
-72.6899
0
LINE
8
Black
10
48.7671
20
-72.6899
11
48.7671
21
-73.1061
0
LINE
8
Black
10
48.7671
20
-73.1061
11
48.6247
21
-73.4972
0
LINE
8
Black
10
48.6247
20
-73.4972
11
48.3572
21
-73.816
0
LINE
8
Black
10
48.3572
20
-73.816
11
47.9968
21
-74.0241
0
LINE
8
Black
10
47.9968
20
-74.0241
11
47.5869
21
-74.0964
0
LINE
8
Black
10
47.5869
20
-74.0964
11
47.177
21
-74.0241
0
LINE
8
Black
10
47.177
20
-74.0241
11
46.8166
21
-73.816
0
LINE
8
Black
10
46.8166
20
-73.816
11
46.5491
21
-73.4972
0
LINE
8
Black
10
46.5491
20
-73.4972
11
46.4067
21
-73.1061
0
LINE
8
Black
10
46.4067
20
-73.1061
11
46.4067
21
-72.6899
0
LINE
8
Black
10
46.4067
20
-72.6899
11
46.5491
21
-72.2988
0
LINE
8
Black
10
46.5491
20
-72.2988
11
46.8166
21
-71.98
0
LINE
8
Black
10
46.8166
20
-71.98
11
47.177
21
-71.7719
0
LINE
8
Black
10
47.177
20
-71.7719
11
47.5869
21
-71.6996
0
LINE
8
Black
10
47.5869
20
-71.6996
11
47.9968
21
-71.7719
0
LINE
8
Black
10
47.9968
20
-74.3119
11
48.3572
21
-74.52
0
LINE
8
Black
10
48.3572
20
-74.52
11
48.6247
21
-74.8388
0
LINE
8
Black
10
48.6247
20
-74.8388
11
48.7671
21
-75.2299
0
LINE
8
Black
10
48.7671
20
-75.2299
11
48.7671
21
-75.6461
0
LINE
8
Black
10
48.7671
20
-75.6461
11
48.6247
21
-76.0372
0
LINE
8
Black
10
48.6247
20
-76.0372
11
48.3572
21
-76.356
0
LINE
8
Black
10
48.3572
20
-76.356
11
47.9968
21
-76.5641
0
LINE
8
Black
10
47.9968
20
-76.5641
11
47.5869
21
-76.6364
0
LINE
8
Black
10
47.5869
20
-76.6364
11
47.177
21
-76.5641
0
LINE
8
Black
10
47.177
20
-76.5641
11
46.8166
21
-76.356
0
LINE
8
Black
10
46.8166
20
-76.356
11
46.5491
21
-76.0372
0
LINE
8
Black
10
46.5491
20
-76.0372
11
46.4067
21
-75.6461
0
LINE
8
Black
10
46.4067
20
-75.6461
11
46.4067
21
-75.2299
0
LINE
8
Black
10
46.4067
20
-75.2299
11
46.5491
21
-74.8388
0
LINE
8
Black
10
46.5491
20
-74.8388
11
46.8166
21
-74.52
0
LINE
8
Black
10
46.8166
20
-74.52
11
47.177
21
-74.3119
0
LINE
8
Black
10
47.177
20
-74.3119
11
47.5869
21
-74.2396
0
LINE
8
Black
10
47.5869
20
-74.2396
11
47.9968
21
-74.3119
0
LINE
8
Black
10
47.9968
20
-79.3919
11
48.3572
21
-79.6
0
LINE
8
Black
10
48.3572
20
-79.6
11
48.6247
21
-79.9188
0
LINE
8
Black
10
48.6247
20
-79.9188
11
48.7671
21
-80.3099
0
LINE
8
Black
10
48.7671
20
-80.3099
11
48.7671
21
-80.7261
0
LINE
8
Black
10
48.7671
20
-80.7261
11
48.6247
21
-81.1172
0
LINE
8
Black
10
48.6247
20
-81.1172
11
48.3572
21
-81.436
0
LINE
8
Black
10
48.3572
20
-81.436
11
47.9968
21
-81.6441
0
LINE
8
Black
10
47.9968
20
-81.6441
11
47.5869
21
-81.7164
0
LINE
8
Black
10
47.5869
20
-81.7164
11
47.177
21
-81.6441
0
LINE
8
Black
10
47.177
20
-81.6441
11
46.8166
21
-81.436
0
LINE
8
Black
10
46.8166
20
-81.436
11
46.5491
21
-81.1172
0
LINE
8
Black
10
46.5491
20
-81.1172
11
46.4067
21
-80.7261
0
LINE
8
Black
10
46.4067
20
-80.7261
11
46.4067
21
-80.3099
0
LINE
8
Black
10
46.4067
20
-80.3099
11
46.5491
21
-79.9188
0
LINE
8
Black
10
46.5491
20
-79.9188
11
46.8166
21
-79.6
0
LINE
8
Black
10
46.8166
20
-79.6
11
47.177
21
-79.3919
0
LINE
8
Black
10
47.177
20
-79.3919
11
47.5869
21
-79.3196
0
LINE
8
Black
10
47.5869
20
-79.3196
11
47.9968
21
-79.3919
0
LINE
8
Black
10
47.9968
20
-81.9319
11
48.3572
21
-82.14
0
LINE
8
Black
10
48.3572
20
-82.14
11
48.6247
21
-82.4588
0
LINE
8
Black
10
48.6247
20
-82.4588
11
48.7671
21
-82.8499
0
LINE
8
Black
10
48.7671
20
-82.8499
11
48.7671
21
-83.2661
0
LINE
8
Black
10
48.7671
20
-83.2661
11
48.6247
21
-83.6572
0
LINE
8
Black
10
48.6247
20
-83.6572
11
48.3572
21
-83.976
0
LINE
8
Black
10
48.3572
20
-83.976
11
47.9968
21
-84.1841
0
LINE
8
Black
10
47.9968
20
-84.1841
11
47.5869
21
-84.2564
0
LINE
8
Black
10
47.5869
20
-84.2564
11
47.177
21
-84.1841
0
LINE
8
Black
10
47.177
20
-84.1841
11
46.8166
21
-83.976
0
LINE
8
Black
10
46.8166
20
-83.976
11
46.5491
21
-83.6572
0
LINE
8
Black
10
46.5491
20
-83.6572
11
46.4067
21
-83.2661
0
LINE
8
Black
10
46.4067
20
-83.2661
11
46.4067
21
-82.8499
0
LINE
8
Black
10
46.4067
20
-82.8499
11
46.5491
21
-82.4588
0
LINE
8
Black
10
46.5491
20
-82.4588
11
46.8166
21
-82.14
0
LINE
8
Black
10
46.8166
20
-82.14
11
47.177
21
-81.9319
0
LINE
8
Black
10
47.177
20
-81.9319
11
47.5869
21
-81.8596
0
LINE
8
Black
10
47.5869
20
-81.8596
11
47.9968
21
-81.9319
0
LINE
8
Black
10
25.3902
20
-84.9486
11
25.3802
21
-84.9486
0
LINE
8
Black
10
25.3802
20
-84.9486
11
25.3708
21
-84.9451
0
LINE
8
Black
10
25.3708
20
-84.9451
11
25.3609
21
-84.9434
0
LINE
8
Black
10
25.3609
20
-84.9434
11
25.3522
21
-84.9384
0
LINE
8
Black
10
25.3522
20
-84.9384
11
25.3428
21
-84.935
0
LINE
8
Black
10
25.3428
20
-84.935
11
25.3352
21
-84.9286
0
LINE
8
Black
10
25.3352
20
-84.9286
11
25.3265
21
-84.9236
0
LINE
8
Black
10
25.3265
20
-84.9236
11
25.3201
21
-84.9159
0
LINE
8
Black
10
25.3201
20
-84.9159
11
25.3124
21
-84.9095
0
LINE
8
Black
10
25.3124
20
-84.9095
11
25.3074
21
-84.9008
0
LINE
8
Black
10
25.3074
20
-84.9008
11
25.301
21
-84.8931
0
LINE
8
Black
10
25.301
20
-84.8931
11
25.2976
21
-84.8838
0
LINE
8
Black
10
25.2976
20
-84.8838
11
25.2926
21
-84.8751
0
LINE
8
Black
10
25.2926
20
-84.8751
11
25.2909
21
-84.8652
0
LINE
8
Black
10
25.2909
20
-84.8652
11
25.2874
21
-84.8558
0
LINE
8
Black
10
25.2874
20
-84.8558
11
25.2874
21
-84.8458
0
LINE
8
Black
10
25.2874
20
-84.8458
11
25.2857
21
-84.836
0
LINE
8
Black
10
25.2857
20
-84.836
11
25.2857
21
-25.4
0
LINE
8
Black
10
25.2857
20
-25.4
11
25.2874
21
-25.3902
0
LINE
8
Black
10
25.2874
20
-25.3902
11
25.2874
21
-25.3802
0
LINE
8
Black
10
25.2874
20
-25.3802
11
25.2909
21
-25.3708
0
LINE
8
Black
10
25.2909
20
-25.3708
11
25.2926
21
-25.3609
0
LINE
8
Black
10
25.2926
20
-25.3609
11
25.2976
21
-25.3522
0
LINE
8
Black
10
25.2976
20
-25.3522
11
25.301
21
-25.3428
0
LINE
8
Black
10
25.301
20
-25.3428
11
25.3074
21
-25.3352
0
LINE
8
Black
10
25.3074
20
-25.3352
11
25.3124
21
-25.3265
0
LINE
8
Black
10
25.3124
20
-25.3265
11
25.3201
21
-25.3201
0
LINE
8
Black
10
25.3201
20
-25.3201
11
25.3265
21
-25.3124
0
LINE
8
Black
10
25.3265
20
-25.3124
11
25.3352
21
-25.3074
0
LINE
8
Black
10
25.3352
20
-25.3074
11
25.3428
21
-25.301
0
LINE
8
Black
10
25.3428
20
-25.301
11
25.3522
21
-25.2976
0
LINE
8
Black
10
25.3522
20
-25.2976
11
25.3609
21
-25.2926
0
LINE
8
Black
10
25.3609
20
-25.2926
11
25.3708
21
-25.2909
0
LINE
8
Black
10
25.3708
20
-25.2909
11
25.3802
21
-25.2874
0
LINE
8
Black
10
25.3802
20
-25.2874
11
25.3902
21
-25.2874
0
LINE
8
Black
10
25.3902
20
-25.2874
11
25.4
21
-25.2857
0
LINE
8
Black
10
25.4
20
-25.2857
11
49.3649
21
-25.2857
0
LINE
8
Black
10
49.3649
20
-25.2857
11
49.3747
21
-25.2874
0
LINE
8
Black
10
49.3747
20
-25.2874
11
49.3847
21
-25.2874
0
LINE
8
Black
10
49.3847
20
-25.2874
11
49.3941
21
-25.2909
0
LINE
8
Black
10
49.3941
20
-25.2909
11
49.404
21
-25.2926
0
LINE
8
Black
10
49.404
20
-25.2926
11
49.4127
21
-25.2976
0
LINE
8
Black
10
49.4127
20
-25.2976
11
49.422
21
-25.301
0
LINE
8
Black
10
49.422
20
-25.301
11
49.4297
21
-25.3074
0
LINE
8
Black
10
49.4297
20
-25.3074
11
49.4384
21
-25.3124
0
LINE
8
Black
10
49.4384
20
-25.3124
11
49.4448
21
-25.3201
0
LINE
8
Black
10
49.4448
20
-25.3201
11
49.4525
21
-25.3265
0
LINE
8
Black
10
49.4525
20
-25.3265
11
49.4575
21
-25.3352
0
LINE
8
Black
10
49.4575
20
-25.3352
11
49.4639
21
-25.3428
0
LINE
8
Black
10
49.4639
20
-25.3428
11
49.4673
21
-25.3522
0
LINE
8
Black
10
49.4673
20
-25.3522
11
49.4723
21
-25.3609
0
LINE
8
Black
10
49.4723
20
-25.3609
11
49.474
21
-25.3708
0
LINE
8
Black
10
49.474
20
-25.3708
11
49.4775
21
-25.3802
0
LINE
8
Black
10
49.4775
20
-25.3802
11
49.4775
21
-25.3902
0
LINE
8
Black
10
49.4775
20
-25.3902
11
49.4792
21
-25.4
0
LINE
8
Black
10
49.4792
20
-25.4
11
49.4792
21
-84.836
0
LINE
8
Black
10
49.4792
20
-84.836
11
49.4775
21
-84.8458
0
LINE
8
Black
10
49.4775
20
-84.8458
11
49.4775
21
-84.8558
0
LINE
8
Black
10
49.4775
20
-84.8558
11
49.474
21
-84.8652
0
LINE
8
Black
10
49.474
20
-84.8652
11
49.4723
21
-84.8751
0
LINE
8
Black
10
49.4723
20
-84.8751
11
49.4673
21
-84.8838
0
LINE
8
Black
10
49.4673
20
-84.8838
11
49.4639
21
-84.8931
0
LINE
8
Black
10
49.4639
20
-84.8931
11
49.4575
21
-84.9008
0
LINE
8
Black
10
49.4575
20
-84.9008
11
49.4525
21
-84.9095
0
LINE
8
Black
10
49.4525
20
-84.9095
11
49.4448
21
-84.9159
0
LINE
8
Black
10
49.4448
20
-84.9159
11
49.4384
21
-84.9236
0
LINE
8
Black
10
49.4384
20
-84.9236
11
49.4297
21
-84.9286
0
LINE
8
Black
10
49.4297
20
-84.9286
11
49.422
21
-84.935
0
LINE
8
Black
10
49.422
20
-84.935
11
49.4127
21
-84.9384
0
LINE
8
Black
10
49.4127
20
-84.9384
11
49.404
21
-84.9434
0
LINE
8
Black
10
49.404
20
-84.9434
11
49.3941
21
-84.9451
0
LINE
8
Black
10
49.3941
20
-84.9451
11
49.3847
21
-84.9486
0
LINE
8
Black
10
49.3847
20
-84.9486
11
49.3747
21
-84.9486
0
LINE
8
Black
10
49.3747
20
-84.9486
11
49.3649
21
-84.9503
0
LINE
8
Black
10
49.3649
20
-84.9503
11
25.4
21
-84.9503
0
LINE
8
Black
10
25.4
20
-84.9503
11
25.3902
21
-84.9486
0
LINE
8
Black
10
49.2506
20
-25.5143
11
25.5143
21
-25.5143
0
LINE
8
Black
10
25.5143
20
-25.5143
11
25.5143
21
-84.7217
0
LINE
8
Black
10
25.5143
20
-84.7217
11
49.2506
21
-84.7217
0
LINE
8
Black
10
49.2506
20
-84.7217
11
49.2506
21
-25.5143
  0
ENDSEC
  0
EOF
