G04 #@! TF.FileFunction,Copper,L1,Top,Signal*
%FSLAX46Y46*%
G04 Gerber Fmt 4.6, Leading zero omitted, Abs format (unit mm)*
G04 Created by KiCad (PCBNEW no-vcs-found-product) date Thu 23 Jul 2015 11:14:11 AM EDT*
%MOMM*%
G01*
G04 APERTURE LIST*
%ADD10C,0.100000*%
%ADD11C,0.228600*%
%ADD12R,4.495800X1.016000*%
%ADD13R,1.193800X1.193800*%
%ADD14C,1.930400*%
%ADD15O,3.556000X4.572000*%
%ADD16O,5.080000X4.064000*%
%ADD17O,3.556000X5.080000*%
%ADD18O,1.524000X2.540000*%
%ADD19R,1.600200X0.787400*%
%ADD20C,3.556000*%
%ADD21C,0.889000*%
%ADD22C,0.812800*%
%ADD23C,0.406400*%
%ADD24C,0.508000*%
%ADD25C,0.203200*%
G04 APERTURE END LIST*
D10*
D11*
X107569000Y-162951160D02*
X107569000Y-53731160D01*
X165989000Y-162951160D02*
X107569000Y-162951160D01*
X165989000Y-53731160D02*
X165989000Y-162951160D01*
X107569000Y-53731160D02*
X165989000Y-53731160D01*
D12*
X120726200Y-132471000D03*
X114731800Y-132471000D03*
X120726200Y-129931000D03*
X114731800Y-129931000D03*
X120726200Y-127391000D03*
X114731800Y-127391000D03*
X120726200Y-124851000D03*
X114731800Y-124851000D03*
X120726200Y-122311000D03*
X114731800Y-122311000D03*
D13*
X144399000Y-155546900D03*
X144399000Y-157655100D03*
D12*
X158826200Y-132471000D03*
X152831800Y-132471000D03*
X158826200Y-129931000D03*
X152831800Y-129931000D03*
X158826200Y-127391000D03*
X152831800Y-127391000D03*
X158826200Y-124851000D03*
X152831800Y-124851000D03*
X158826200Y-122311000D03*
X152831800Y-122311000D03*
D14*
X136779000Y-159953800D03*
D15*
X136779000Y-156448600D03*
D16*
X136779000Y-150962200D03*
D17*
X141274800Y-157947200D03*
X132283200Y-157947200D03*
D12*
X120726200Y-94371200D03*
X114731800Y-94371200D03*
X120726200Y-91831200D03*
X114731800Y-91831200D03*
X120726200Y-89291200D03*
X114731800Y-89291200D03*
X120726200Y-86751200D03*
X114731800Y-86751200D03*
X120726200Y-84211200D03*
X114731800Y-84211200D03*
X158826200Y-94371200D03*
X152831800Y-94371200D03*
X158826200Y-91831200D03*
X152831800Y-91831200D03*
X158826200Y-89291200D03*
X152831800Y-89291200D03*
X158826200Y-86751200D03*
X152831800Y-86751200D03*
X158826200Y-84211200D03*
X152831800Y-84211200D03*
D18*
X135509000Y-145171000D03*
X132969000Y-145171000D03*
X130429000Y-145171000D03*
X127889000Y-145171000D03*
X140589000Y-145171000D03*
X143129000Y-145171000D03*
X145669000Y-145171000D03*
D19*
X144399000Y-150479600D03*
X144399000Y-152562400D03*
D20*
X111379000Y-57541200D03*
X162179000Y-57541200D03*
X111379000Y-159141000D03*
X162179000Y-159141000D03*
D21*
X116756800Y-60330900D03*
X111663600Y-73044200D03*
X111101900Y-85922600D03*
X111161100Y-99013000D03*
X112278000Y-111490800D03*
X111634300Y-123812600D03*
X120726200Y-121059500D03*
X119578900Y-106656100D03*
X128086100Y-112484400D03*
X117975700Y-128437900D03*
X110647900Y-118515700D03*
X117678500Y-142210700D03*
X110507800Y-132719600D03*
X117941100Y-133582200D03*
X110315300Y-129229100D03*
X149837900Y-133312200D03*
X118030200Y-74053600D03*
X118030200Y-82845900D03*
X135326300Y-66847500D03*
X141851100Y-73771300D03*
X133670600Y-88237900D03*
X140819000Y-97851900D03*
X133401400Y-90166300D03*
X131363800Y-122541600D03*
X139524900Y-132539000D03*
X145320400Y-138777800D03*
X148521000Y-113421000D03*
X162722900Y-130348400D03*
X148449200Y-87990300D03*
X119547300Y-102226200D03*
X121597500Y-107536400D03*
X122687200Y-138766700D03*
X135108400Y-100922600D03*
X141172900Y-92421200D03*
X148425500Y-75215300D03*
X122687200Y-133771800D03*
X140183400Y-62597500D03*
X119151900Y-75316900D03*
X123703700Y-63024000D03*
X119181200Y-82842900D03*
X145224800Y-114667600D03*
X145276900Y-77202800D03*
X145276900Y-90438500D03*
X139114100Y-68825300D03*
X139144600Y-117376600D03*
X140067700Y-93687900D03*
X140759600Y-107706200D03*
X129097400Y-65345900D03*
X145463900Y-127282000D03*
X134213900Y-60630800D03*
X122255300Y-97717000D03*
X124474400Y-96954500D03*
X130681200Y-104791500D03*
X141957900Y-117866000D03*
X141901500Y-124548900D03*
X137658200Y-133285000D03*
X150526300Y-64774200D03*
X149624300Y-80018800D03*
X161531600Y-88210700D03*
X161531700Y-100902700D03*
X155626500Y-112035000D03*
X161609900Y-128436400D03*
X162133800Y-85699100D03*
X120971200Y-72104500D03*
X129389200Y-74075900D03*
X121559400Y-81933200D03*
X128597600Y-86039600D03*
X148416200Y-116275300D03*
X143065300Y-110819800D03*
X148413400Y-127927900D03*
X140864100Y-120971800D03*
X129925100Y-58725400D03*
X129925100Y-56683900D03*
D22*
X144399000Y-150479600D02*
X144399000Y-149425200D01*
X140322000Y-150962200D02*
X136779000Y-150962200D01*
X143129000Y-148155200D02*
X140322000Y-150962200D01*
X143129000Y-145171000D02*
X143129000Y-148155200D01*
X143129000Y-148155200D02*
X144399000Y-149425200D01*
D23*
X120726200Y-129931000D02*
X118020800Y-129931000D01*
X108371600Y-68716100D02*
X116756800Y-60330900D01*
X108371600Y-125563400D02*
X108371600Y-68716100D01*
X111293000Y-128484800D02*
X108371600Y-125563400D01*
X111293000Y-130135900D02*
X111293000Y-128484800D01*
X112053600Y-130896500D02*
X111293000Y-130135900D01*
X117176100Y-130896500D02*
X112053600Y-130896500D01*
X118020800Y-130051800D02*
X117176100Y-130896500D01*
X118020800Y-129931000D02*
X118020800Y-130051800D01*
X114731800Y-129931000D02*
X112026400Y-129931000D01*
X109032400Y-75675400D02*
X111663600Y-73044200D01*
X109032400Y-125289700D02*
X109032400Y-75675400D01*
X112026400Y-128283700D02*
X109032400Y-125289700D01*
X112026400Y-129931000D02*
X112026400Y-128283700D01*
X123431600Y-115885100D02*
X123431600Y-127391000D01*
X113180100Y-105633600D02*
X123431600Y-115885100D01*
X113180100Y-99442500D02*
X113180100Y-105633600D01*
X109957300Y-96219700D02*
X113180100Y-99442500D01*
X109957300Y-87067200D02*
X109957300Y-96219700D01*
X111101900Y-85922600D02*
X109957300Y-87067200D01*
X120726200Y-127391000D02*
X123431600Y-127391000D01*
X109698400Y-100475700D02*
X111161100Y-99013000D01*
X109698400Y-124521900D02*
X109698400Y-100475700D01*
X112567500Y-127391000D02*
X109698400Y-124521900D01*
X114731800Y-127391000D02*
X112567500Y-127391000D01*
X120726200Y-124851000D02*
X118020800Y-124851000D01*
X118020800Y-117233600D02*
X118020800Y-124851000D01*
X112278000Y-111490800D02*
X118020800Y-117233600D01*
X114731800Y-124851000D02*
X112026400Y-124851000D01*
X112026400Y-124204700D02*
X111634300Y-123812600D01*
X112026400Y-124851000D02*
X112026400Y-124204700D01*
X120726200Y-122311000D02*
X120726200Y-121059500D01*
D24*
X144399000Y-158855200D02*
X144399000Y-157655100D01*
X142251500Y-161002700D02*
X144399000Y-158855200D01*
X140324200Y-161002700D02*
X142251500Y-161002700D01*
X136779000Y-157457500D02*
X140324200Y-161002700D01*
X136779000Y-156956600D02*
X136779000Y-157457500D01*
D23*
X144399000Y-152562400D02*
X144399000Y-155546900D01*
X119578900Y-106793500D02*
X119578900Y-106656100D01*
X125269800Y-112484400D02*
X119578900Y-106793500D01*
X128086100Y-112484400D02*
X125269800Y-112484400D01*
X110647900Y-124469500D02*
X110647900Y-118515700D01*
X112147000Y-125968600D02*
X110647900Y-124469500D01*
X116764400Y-125968600D02*
X112147000Y-125968600D01*
X117975700Y-127179900D02*
X116764400Y-125968600D01*
X117975700Y-128437900D02*
X117975700Y-127179900D01*
X110507800Y-135040000D02*
X110507800Y-132719600D01*
X117678500Y-142210700D02*
X110507800Y-135040000D01*
D24*
X130429000Y-145171000D02*
X130429000Y-143392700D01*
X114731800Y-132471000D02*
X111975600Y-132471000D01*
X114731800Y-132471000D02*
X117488000Y-132471000D01*
X117941100Y-132924100D02*
X117488000Y-132471000D01*
X117941100Y-133582200D02*
X117941100Y-132924100D01*
X152831800Y-132471000D02*
X150075600Y-132471000D01*
X125881800Y-143392700D02*
X130429000Y-143392700D01*
X117941100Y-135452000D02*
X125881800Y-143392700D01*
X117941100Y-133582200D02*
X117941100Y-135452000D01*
X150075600Y-133074500D02*
X149837900Y-133312200D01*
X150075600Y-132471000D02*
X150075600Y-133074500D01*
X118030200Y-74053600D02*
X118030200Y-82845900D01*
X110315300Y-130810700D02*
X110315300Y-129229100D01*
X111975600Y-132471000D02*
X110315300Y-130810700D01*
D23*
X120726200Y-91831200D02*
X123431600Y-91831200D01*
X135326300Y-89517100D02*
X135326300Y-66847500D01*
X133012200Y-91831200D02*
X135326300Y-89517100D01*
X123431600Y-91831200D02*
X133012200Y-91831200D01*
X114731800Y-91831200D02*
X117437200Y-91831200D01*
X141851100Y-83926700D02*
X141851100Y-73771300D01*
X132981100Y-92796700D02*
X141851100Y-83926700D01*
X118281900Y-92796700D02*
X132981100Y-92796700D01*
X117437200Y-91952000D02*
X118281900Y-92796700D01*
X117437200Y-91831200D02*
X117437200Y-91952000D01*
X120726200Y-89291200D02*
X123431600Y-89291200D01*
X124484900Y-88237900D02*
X133670600Y-88237900D01*
X123431600Y-89291200D02*
X124484900Y-88237900D01*
X114731800Y-89291200D02*
X112026400Y-89291200D01*
X138983900Y-96016800D02*
X140819000Y-97851900D01*
X112959700Y-96016800D02*
X138983900Y-96016800D01*
X112026400Y-95083500D02*
X112959700Y-96016800D01*
X112026400Y-89291200D02*
X112026400Y-95083500D01*
X120726200Y-86751200D02*
X123431600Y-86751200D01*
X123736400Y-87056000D02*
X123431600Y-86751200D01*
X133786200Y-87056000D02*
X123736400Y-87056000D01*
X134615100Y-87884900D02*
X133786200Y-87056000D01*
X134615100Y-88952600D02*
X134615100Y-87884900D01*
X133401400Y-90166300D02*
X134615100Y-88952600D01*
X110651700Y-88125900D02*
X112026400Y-86751200D01*
X110651700Y-95979600D02*
X110651700Y-88125900D01*
X114335900Y-99663800D02*
X110651700Y-95979600D01*
X114335900Y-105513700D02*
X114335900Y-99663800D01*
X131363800Y-122541600D02*
X114335900Y-105513700D01*
X114731800Y-86751200D02*
X112026400Y-86751200D01*
X120726200Y-84211200D02*
X118020800Y-84211200D01*
X118020800Y-86881900D02*
X118020800Y-84211200D01*
X116693100Y-88209600D02*
X118020800Y-86881900D01*
X112115500Y-88209600D02*
X116693100Y-88209600D01*
X111327200Y-88997900D02*
X112115500Y-88209600D01*
X111327200Y-95384500D02*
X111327200Y-88997900D01*
X117616300Y-101673600D02*
X111327200Y-95384500D01*
X117616300Y-107518500D02*
X117616300Y-101673600D01*
X139524900Y-129427100D02*
X117616300Y-107518500D01*
X139524900Y-132539000D02*
X139524900Y-129427100D01*
D22*
X132969000Y-145171000D02*
X132969000Y-143240300D01*
X162722900Y-132296900D02*
X162722900Y-130348400D01*
X156242000Y-138777800D02*
X162722900Y-132296900D01*
X145320400Y-138777800D02*
X156242000Y-138777800D01*
X140857900Y-143240300D02*
X132969000Y-143240300D01*
X145320400Y-138777800D02*
X140857900Y-143240300D01*
X148449200Y-75239000D02*
X148425500Y-75215300D01*
X148449200Y-87990300D02*
X148449200Y-75239000D01*
X122687200Y-138766700D02*
X122687200Y-133771800D01*
X128495400Y-138766700D02*
X122687200Y-138766700D01*
X132969000Y-143240300D02*
X128495400Y-138766700D01*
X121597500Y-103813700D02*
X121597500Y-107536400D01*
X121134800Y-103813700D02*
X119547300Y-102226200D01*
X121597500Y-103813700D02*
X121134800Y-103813700D01*
X148449200Y-88876300D02*
X148449200Y-87990300D01*
X144904300Y-92421200D02*
X148449200Y-88876300D01*
X141172900Y-92421200D02*
X144904300Y-92421200D01*
X148425500Y-72599600D02*
X148425500Y-75215300D01*
X139303400Y-63477500D02*
X148425500Y-72599600D01*
X139303400Y-63477500D02*
X140183400Y-62597500D01*
X123703700Y-63477500D02*
X139303400Y-63477500D01*
X123703700Y-63477500D02*
X123703700Y-63024000D01*
X119151900Y-68029300D02*
X123703700Y-63477500D01*
X119151900Y-75316900D02*
X119151900Y-68029300D01*
X119181200Y-75346200D02*
X119181200Y-82842900D01*
X119151900Y-75316900D02*
X119181200Y-75346200D01*
X121724900Y-103686300D02*
X121597500Y-103813700D01*
X135108400Y-103686300D02*
X121724900Y-103686300D01*
X138786300Y-103686300D02*
X135108400Y-103686300D01*
X148521000Y-113421000D02*
X138786300Y-103686300D01*
X135108400Y-103686300D02*
X135108400Y-100922600D01*
X145276900Y-74988100D02*
X139114100Y-68825300D01*
X145276900Y-77202800D02*
X145276900Y-74988100D01*
X145276900Y-90438500D02*
X145276900Y-77202800D01*
X140067700Y-91961600D02*
X140067700Y-93687900D01*
X141590800Y-90438500D02*
X140067700Y-91961600D01*
X145276900Y-90438500D02*
X141590800Y-90438500D01*
X145224800Y-114667600D02*
X141853600Y-114667600D01*
X141853600Y-108800200D02*
X140759600Y-107706200D01*
X141853600Y-114667600D02*
X141853600Y-108800200D01*
X135634700Y-65345900D02*
X139114100Y-68825300D01*
X129097400Y-65345900D02*
X135634700Y-65345900D01*
X141853600Y-114667600D02*
X139144600Y-117376600D01*
X145463900Y-123695900D02*
X145463900Y-127282000D01*
X139144600Y-117376600D02*
X145463900Y-123695900D01*
D23*
X125175300Y-134214700D02*
X123431600Y-132471000D01*
X154497800Y-134214700D02*
X125175300Y-134214700D01*
X156120800Y-132591700D02*
X154497800Y-134214700D01*
X156120800Y-132471000D02*
X156120800Y-132591700D01*
X158826200Y-132471000D02*
X156120800Y-132471000D01*
X120726200Y-132471000D02*
X123431600Y-132471000D01*
X158826200Y-129931000D02*
X161531600Y-129931000D01*
X163795000Y-127667600D02*
X161531600Y-129931000D01*
X163795000Y-76764900D02*
X163795000Y-127667600D01*
X147660900Y-60630800D02*
X163795000Y-76764900D01*
X134213900Y-60630800D02*
X147660900Y-60630800D01*
X152831800Y-129931000D02*
X150126400Y-129931000D01*
X149763500Y-130293900D02*
X150126400Y-129931000D01*
X141910900Y-130293900D02*
X149763500Y-130293900D01*
X118615100Y-106998100D02*
X141910900Y-130293900D01*
X118615100Y-101357200D02*
X118615100Y-106998100D01*
X122255300Y-97717000D02*
X118615100Y-101357200D01*
X158826200Y-127391000D02*
X161531600Y-127391000D01*
X137848700Y-96954500D02*
X124474400Y-96954500D01*
X162193400Y-121299200D02*
X137848700Y-96954500D01*
X162193400Y-126729200D02*
X162193400Y-121299200D01*
X161531600Y-127391000D02*
X162193400Y-126729200D01*
X152831800Y-127391000D02*
X150126400Y-127391000D01*
X150126400Y-127490600D02*
X150126400Y-127391000D01*
X148031000Y-129586000D02*
X150126400Y-127490600D01*
X144579600Y-129586000D02*
X148031000Y-129586000D01*
X130681200Y-115687600D02*
X144579600Y-129586000D01*
X130681200Y-104791500D02*
X130681200Y-115687600D01*
X158826200Y-124851000D02*
X161531600Y-124851000D01*
X161531600Y-121571900D02*
X161531600Y-124851000D01*
X157825700Y-117866000D02*
X161531600Y-121571900D01*
X141957900Y-117866000D02*
X157825700Y-117866000D01*
X149586900Y-124851000D02*
X152831800Y-124851000D01*
X146210600Y-128227300D02*
X149586900Y-124851000D01*
X145102900Y-128227300D02*
X146210600Y-128227300D01*
X141901500Y-125025900D02*
X145102900Y-128227300D01*
X141901500Y-124548900D02*
X141901500Y-125025900D01*
X158826200Y-122311000D02*
X156120800Y-122311000D01*
X137818500Y-133445300D02*
X137658200Y-133285000D01*
X146796100Y-133445300D02*
X137818500Y-133445300D01*
X148736000Y-131505400D02*
X146796100Y-133445300D01*
X154687200Y-131505400D02*
X148736000Y-131505400D01*
X156120800Y-130071800D02*
X154687200Y-131505400D01*
X156120800Y-122311000D02*
X156120800Y-130071800D01*
X158826200Y-94371200D02*
X156120800Y-94371200D01*
X156120800Y-94250400D02*
X156120800Y-94371200D01*
X155276100Y-93405700D02*
X156120800Y-94250400D01*
X143428500Y-93405700D02*
X155276100Y-93405700D01*
X142218400Y-94615800D02*
X143428500Y-93405700D01*
X123676200Y-94615800D02*
X142218400Y-94615800D01*
X123431600Y-94371200D02*
X123676200Y-94615800D01*
X120726200Y-94371200D02*
X123431600Y-94371200D01*
X152831800Y-94371200D02*
X150126400Y-94371200D01*
X114731800Y-94371200D02*
X117437200Y-94371200D01*
X149160900Y-95336700D02*
X150126400Y-94371200D01*
X118281900Y-95336700D02*
X149160900Y-95336700D01*
X117437200Y-94492000D02*
X118281900Y-95336700D01*
X117437200Y-94371200D02*
X117437200Y-94492000D01*
X158826200Y-91831200D02*
X156120800Y-91831200D01*
X150526300Y-80392500D02*
X150526300Y-64774200D01*
X150126300Y-80792500D02*
X150526300Y-80392500D01*
X150126300Y-90026000D02*
X150126300Y-80792500D01*
X150357100Y-90256800D02*
X150126300Y-90026000D01*
X154674700Y-90256800D02*
X150357100Y-90256800D01*
X156120800Y-91702900D02*
X154674700Y-90256800D01*
X156120800Y-91831200D02*
X156120800Y-91702900D01*
X149465500Y-91170300D02*
X150126400Y-91831200D01*
X149465500Y-80177600D02*
X149465500Y-91170300D01*
X149624300Y-80018800D02*
X149465500Y-80177600D01*
X152831800Y-91831200D02*
X150126400Y-91831200D01*
X158826200Y-89291200D02*
X161531600Y-89291200D01*
X161531600Y-88210700D02*
X161531600Y-89291200D01*
X161531700Y-91124400D02*
X161531700Y-100902700D01*
X161049700Y-90642400D02*
X161531700Y-91124400D01*
X156684700Y-90642400D02*
X161049700Y-90642400D01*
X155537200Y-89494900D02*
X156684700Y-90642400D01*
X155537200Y-89291200D02*
X155537200Y-89494900D01*
X152831800Y-89291200D02*
X155537200Y-89291200D01*
X158826200Y-86751200D02*
X161531600Y-86751200D01*
X162433700Y-87653300D02*
X161531600Y-86751200D01*
X162433700Y-105227800D02*
X162433700Y-87653300D01*
X155626500Y-112035000D02*
X162433700Y-105227800D01*
X152831800Y-86751200D02*
X155537200Y-86751200D01*
X155537200Y-84029200D02*
X155537200Y-86751200D01*
X156320800Y-83245600D02*
X155537200Y-84029200D01*
X161519600Y-83245600D02*
X156320800Y-83245600D01*
X163121400Y-84847400D02*
X161519600Y-83245600D01*
X163121400Y-126924900D02*
X163121400Y-84847400D01*
X161609900Y-128436400D02*
X163121400Y-126924900D01*
X161531600Y-85096900D02*
X161531600Y-84211200D01*
X162133800Y-85699100D02*
X161531600Y-85096900D01*
X158826200Y-84211200D02*
X161531600Y-84211200D01*
X122942600Y-74075900D02*
X120971200Y-72104500D01*
X129389200Y-74075900D02*
X122942600Y-74075900D01*
X124491200Y-81933200D02*
X121559400Y-81933200D01*
X128597600Y-86039600D02*
X124491200Y-81933200D01*
X143065300Y-110924400D02*
X143065300Y-110819800D01*
X148416200Y-116275300D02*
X143065300Y-110924400D01*
X147453100Y-128888200D02*
X148413400Y-127927900D01*
X144827800Y-128888200D02*
X147453100Y-128888200D01*
X140864100Y-124924500D02*
X144827800Y-128888200D01*
X140864100Y-120971800D02*
X140864100Y-124924500D01*
X129925100Y-58725400D02*
X129925100Y-56683900D01*
D25*
G36*
X165569900Y-162532060D02*
X107988100Y-162532060D01*
X107988100Y-159563537D01*
X109245030Y-159563537D01*
X109569167Y-160348009D01*
X110168835Y-160948724D01*
X110952739Y-161274229D01*
X111801537Y-161274970D01*
X112586009Y-160950833D01*
X113186724Y-160351165D01*
X113512229Y-159567261D01*
X113512970Y-158718463D01*
X113188833Y-157933991D01*
X112589165Y-157333276D01*
X112095942Y-157128472D01*
X130149600Y-157128472D01*
X130149600Y-158765928D01*
X130312011Y-159582421D01*
X130774517Y-160274611D01*
X131466707Y-160737117D01*
X132283200Y-160899528D01*
X133099693Y-160737117D01*
X133791883Y-160274611D01*
X134254389Y-159582421D01*
X134416800Y-158765928D01*
X134416800Y-157128472D01*
X134254389Y-156311979D01*
X133971663Y-155888848D01*
X134645400Y-155888848D01*
X134645400Y-157008352D01*
X134807811Y-157824845D01*
X135270317Y-158517035D01*
X135916338Y-158948692D01*
X135659933Y-159204650D01*
X135458430Y-159689924D01*
X135457971Y-160215371D01*
X135658627Y-160700996D01*
X136029850Y-161072867D01*
X136515124Y-161274370D01*
X137040571Y-161274829D01*
X137526196Y-161074173D01*
X137898067Y-160702950D01*
X138099570Y-160217676D01*
X138100029Y-159692229D01*
X138063699Y-159604303D01*
X139893148Y-161433752D01*
X140090916Y-161565897D01*
X140324200Y-161612300D01*
X142251500Y-161612300D01*
X142484784Y-161565897D01*
X142682552Y-161433752D01*
X144552767Y-159563537D01*
X160045030Y-159563537D01*
X160369167Y-160348009D01*
X160968835Y-160948724D01*
X161752739Y-161274229D01*
X162601537Y-161274970D01*
X163386009Y-160950833D01*
X163986724Y-160351165D01*
X164312229Y-159567261D01*
X164312970Y-158718463D01*
X163988833Y-157933991D01*
X163389165Y-157333276D01*
X162605261Y-157007771D01*
X161756463Y-157007030D01*
X160971991Y-157331167D01*
X160371276Y-157930835D01*
X160045771Y-158714739D01*
X160045030Y-159563537D01*
X144552767Y-159563537D01*
X144830053Y-159286252D01*
X144909267Y-159167698D01*
X144962197Y-159088484D01*
X145008600Y-158855200D01*
X145008600Y-158560307D01*
X145112119Y-158540222D01*
X145214265Y-158473123D01*
X145282641Y-158371827D01*
X145306671Y-158252000D01*
X145306671Y-157058200D01*
X145284122Y-156941981D01*
X145217023Y-156839835D01*
X145115727Y-156771459D01*
X144995900Y-156747429D01*
X143802100Y-156747429D01*
X143685881Y-156769978D01*
X143583735Y-156837077D01*
X143515359Y-156938373D01*
X143491329Y-157058200D01*
X143491329Y-158252000D01*
X143513878Y-158368219D01*
X143580977Y-158470365D01*
X143682273Y-158538741D01*
X143789400Y-158560224D01*
X143789400Y-158602695D01*
X143354328Y-159037768D01*
X143408400Y-158765928D01*
X143408400Y-157128472D01*
X143245989Y-156311979D01*
X142783483Y-155619789D01*
X142091293Y-155157283D01*
X141274800Y-154994872D01*
X140458307Y-155157283D01*
X139766117Y-155619789D01*
X139303611Y-156311979D01*
X139141200Y-157128472D01*
X139141200Y-158765928D01*
X139188792Y-159005188D01*
X138453090Y-158269486D01*
X138750189Y-157824845D01*
X138912600Y-157008352D01*
X138912600Y-155888848D01*
X138750189Y-155072355D01*
X138287683Y-154380165D01*
X137595493Y-153917659D01*
X136779000Y-153755248D01*
X135962507Y-153917659D01*
X135270317Y-154380165D01*
X134807811Y-155072355D01*
X134645400Y-155888848D01*
X133971663Y-155888848D01*
X133791883Y-155619789D01*
X133099693Y-155157283D01*
X132283200Y-154994872D01*
X131466707Y-155157283D01*
X130774517Y-155619789D01*
X130312011Y-156311979D01*
X130149600Y-157128472D01*
X112095942Y-157128472D01*
X111805261Y-157007771D01*
X110956463Y-157007030D01*
X110171991Y-157331167D01*
X109571276Y-157930835D01*
X109245771Y-158714739D01*
X109245030Y-159563537D01*
X107988100Y-159563537D01*
X107988100Y-150962200D01*
X133826672Y-150962200D01*
X134008417Y-151875895D01*
X134525984Y-152650488D01*
X135300577Y-153168055D01*
X136214272Y-153349800D01*
X137343728Y-153349800D01*
X138257423Y-153168055D01*
X139032016Y-152650488D01*
X139353936Y-152168700D01*
X143236333Y-152168700D01*
X143236333Y-152956100D01*
X143262641Y-153091689D01*
X143340923Y-153210859D01*
X143459101Y-153290631D01*
X143598900Y-153318667D01*
X143840200Y-153318667D01*
X143840200Y-154639229D01*
X143802100Y-154639229D01*
X143685881Y-154661778D01*
X143583735Y-154728877D01*
X143515359Y-154830173D01*
X143491329Y-154950000D01*
X143491329Y-156143800D01*
X143513878Y-156260019D01*
X143580977Y-156362165D01*
X143682273Y-156430541D01*
X143802100Y-156454571D01*
X144995900Y-156454571D01*
X145112119Y-156432022D01*
X145214265Y-156364923D01*
X145282641Y-156263627D01*
X145306671Y-156143800D01*
X145306671Y-154950000D01*
X145284122Y-154833781D01*
X145217023Y-154731635D01*
X145115727Y-154663259D01*
X144995900Y-154639229D01*
X144957800Y-154639229D01*
X144957800Y-153318667D01*
X145199100Y-153318667D01*
X145334689Y-153292359D01*
X145453859Y-153214077D01*
X145533631Y-153095899D01*
X145561667Y-152956100D01*
X145561667Y-152168700D01*
X145535359Y-152033111D01*
X145457077Y-151913941D01*
X145338899Y-151834169D01*
X145199100Y-151806133D01*
X143598900Y-151806133D01*
X143463311Y-151832441D01*
X143344141Y-151910723D01*
X143264369Y-152028901D01*
X143236333Y-152168700D01*
X139353936Y-152168700D01*
X139549583Y-151875895D01*
X139579757Y-151724200D01*
X140322000Y-151724200D01*
X140613605Y-151666196D01*
X140860815Y-151501015D01*
X143129000Y-149232831D01*
X143619502Y-149723333D01*
X143598900Y-149723333D01*
X143463311Y-149749641D01*
X143344141Y-149827923D01*
X143264369Y-149946101D01*
X143236333Y-150085900D01*
X143236333Y-150873300D01*
X143262641Y-151008889D01*
X143340923Y-151128059D01*
X143459101Y-151207831D01*
X143598900Y-151235867D01*
X144370178Y-151235867D01*
X144399000Y-151241600D01*
X144427822Y-151235867D01*
X145199100Y-151235867D01*
X145334689Y-151209559D01*
X145453859Y-151131277D01*
X145533631Y-151013099D01*
X145561667Y-150873300D01*
X145561667Y-150085900D01*
X145535359Y-149950311D01*
X145457077Y-149831141D01*
X145338899Y-149751369D01*
X145199100Y-149723333D01*
X145161000Y-149723333D01*
X145161000Y-149425200D01*
X145102996Y-149133595D01*
X144937815Y-148886384D01*
X143891000Y-147839570D01*
X143891000Y-146452733D01*
X144114595Y-146118099D01*
X144195800Y-145709852D01*
X144195800Y-144632148D01*
X144602200Y-144632148D01*
X144602200Y-145709852D01*
X144683405Y-146118099D01*
X144914658Y-146464194D01*
X145260753Y-146695447D01*
X145669000Y-146776652D01*
X146077247Y-146695447D01*
X146423342Y-146464194D01*
X146654595Y-146118099D01*
X146735800Y-145709852D01*
X146735800Y-144632148D01*
X146654595Y-144223901D01*
X146423342Y-143877806D01*
X146077247Y-143646553D01*
X145669000Y-143565348D01*
X145260753Y-143646553D01*
X144914658Y-143877806D01*
X144683405Y-144223901D01*
X144602200Y-144632148D01*
X144195800Y-144632148D01*
X144195800Y-144632148D01*
X144114595Y-144223901D01*
X143883342Y-143877806D01*
X143537247Y-143646553D01*
X143129000Y-143565348D01*
X142720753Y-143646553D01*
X142374658Y-143877806D01*
X142143405Y-144223901D01*
X142062200Y-144632148D01*
X142062200Y-145709852D01*
X142143405Y-146118099D01*
X142367000Y-146452733D01*
X142367000Y-147839569D01*
X140006370Y-150200200D01*
X139579757Y-150200200D01*
X139549583Y-150048505D01*
X139032016Y-149273912D01*
X138257423Y-148756345D01*
X137343728Y-148574600D01*
X136214272Y-148574600D01*
X135300577Y-148756345D01*
X134525984Y-149273912D01*
X134008417Y-150048505D01*
X133826672Y-150962200D01*
X107988100Y-150962200D01*
X107988100Y-144631153D01*
X126771400Y-144631153D01*
X126771400Y-145710847D01*
X126856472Y-146138534D01*
X127098737Y-146501110D01*
X127461313Y-146743375D01*
X127889000Y-146828447D01*
X128316687Y-146743375D01*
X128679263Y-146501110D01*
X128921528Y-146138534D01*
X129006600Y-145710847D01*
X129006600Y-145323400D01*
X129057400Y-145323400D01*
X129057400Y-145831400D01*
X129220128Y-146344688D01*
X129566896Y-146756631D01*
X130065239Y-147001484D01*
X130276600Y-146888637D01*
X130276600Y-145323400D01*
X130581400Y-145323400D01*
X130581400Y-146888637D01*
X130792761Y-147001484D01*
X131291104Y-146756631D01*
X131637872Y-146344688D01*
X131800600Y-145831400D01*
X131800600Y-145323400D01*
X130581400Y-145323400D01*
X130276600Y-145323400D01*
X130276600Y-145323400D01*
X129057400Y-145323400D01*
X129006600Y-145323400D01*
X129006600Y-144631153D01*
X128982621Y-144510600D01*
X129057400Y-144510600D01*
X129057400Y-145018600D01*
X130276600Y-145018600D01*
X130276600Y-143453363D01*
X130581400Y-143453363D01*
X130581400Y-145018600D01*
X131800600Y-145018600D01*
X131800600Y-144510600D01*
X131637872Y-143997312D01*
X131291104Y-143585369D01*
X130792761Y-143340516D01*
X130581400Y-143453363D01*
X130276600Y-143453363D01*
X130276600Y-143453363D01*
X130065239Y-143340516D01*
X129566896Y-143585369D01*
X129220128Y-143997312D01*
X129057400Y-144510600D01*
X128982621Y-144510600D01*
X128921528Y-144203466D01*
X128679263Y-143840890D01*
X128316687Y-143598625D01*
X127889000Y-143513553D01*
X127461313Y-143598625D01*
X127098737Y-143840890D01*
X126856472Y-144203466D01*
X126771400Y-144631153D01*
X107988100Y-144631153D01*
X107988100Y-132878052D01*
X109707561Y-132878052D01*
X109829113Y-133172228D01*
X109949000Y-133292325D01*
X109949000Y-135040000D01*
X109991536Y-135253844D01*
X110112669Y-135435131D01*
X116878408Y-142200870D01*
X116878261Y-142369152D01*
X116999813Y-142663328D01*
X117224688Y-142888596D01*
X117518652Y-143010661D01*
X117836952Y-143010939D01*
X118131128Y-142889387D01*
X118356396Y-142664512D01*
X118478461Y-142370548D01*
X118478739Y-142052248D01*
X118357187Y-141758072D01*
X118132312Y-141532804D01*
X117838348Y-141410739D01*
X117668653Y-141410591D01*
X111066600Y-134808538D01*
X111066600Y-133292300D01*
X111185696Y-133173412D01*
X111307761Y-132879448D01*
X111307851Y-132775800D01*
X111874300Y-132775800D01*
X111874300Y-133100257D01*
X111967106Y-133324311D01*
X112138589Y-133495794D01*
X112362643Y-133588600D01*
X114427000Y-133588600D01*
X114579400Y-133436200D01*
X114579400Y-132623400D01*
X114884200Y-132623400D01*
X114884200Y-133436200D01*
X115036600Y-133588600D01*
X117100957Y-133588600D01*
X117325011Y-133495794D01*
X117496494Y-133324311D01*
X117589300Y-133100257D01*
X117589300Y-132775800D01*
X117436900Y-132623400D01*
X114884200Y-132623400D01*
X114579400Y-132623400D01*
X114579400Y-132623400D01*
X112026700Y-132623400D01*
X111874300Y-132775800D01*
X111307851Y-132775800D01*
X111308039Y-132561148D01*
X111186487Y-132266972D01*
X110961612Y-132041704D01*
X110667648Y-131919639D01*
X110349348Y-131919361D01*
X110055172Y-132040913D01*
X109829904Y-132265788D01*
X109707839Y-132559752D01*
X109707561Y-132878052D01*
X107988100Y-132878052D01*
X107988100Y-125970162D01*
X110734200Y-128716263D01*
X110734200Y-130135900D01*
X110776736Y-130349744D01*
X110870319Y-130489800D01*
X110897869Y-130531031D01*
X111658469Y-131291631D01*
X111839756Y-131412764D01*
X112053600Y-131455300D01*
X112129495Y-131455300D01*
X111967106Y-131617689D01*
X111874300Y-131841743D01*
X111874300Y-132166200D01*
X112026700Y-132318600D01*
X114579400Y-132318600D01*
X114579400Y-132298600D01*
X114884200Y-132298600D01*
X114884200Y-132318600D01*
X117436900Y-132318600D01*
X117589300Y-132166200D01*
X117589300Y-131841743D01*
X117496494Y-131617689D01*
X117325011Y-131446206D01*
X117291533Y-131432339D01*
X117389944Y-131412764D01*
X117571231Y-131291631D01*
X118200016Y-130662846D01*
X118220323Y-130693759D01*
X118338501Y-130773531D01*
X118478300Y-130801567D01*
X122974100Y-130801567D01*
X123109689Y-130775259D01*
X123228859Y-130696977D01*
X123308631Y-130578799D01*
X123336667Y-130439000D01*
X123336667Y-129423000D01*
X123310359Y-129287411D01*
X123232077Y-129168241D01*
X123113899Y-129088469D01*
X122974100Y-129060433D01*
X118484580Y-129060433D01*
X118653596Y-128891712D01*
X118775661Y-128597748D01*
X118775939Y-128279448D01*
X118768551Y-128261567D01*
X122974100Y-128261567D01*
X123109689Y-128235259D01*
X123228859Y-128156977D01*
X123308631Y-128038799D01*
X123326479Y-127949800D01*
X123431600Y-127949800D01*
X123645444Y-127907264D01*
X123826731Y-127786131D01*
X123947864Y-127604844D01*
X123990400Y-127391000D01*
X123990400Y-115958462D01*
X130563708Y-122531770D01*
X130563561Y-122700052D01*
X130685113Y-122994228D01*
X130909988Y-123219496D01*
X131203952Y-123341561D01*
X131522252Y-123341839D01*
X131816428Y-123220287D01*
X132041696Y-122995412D01*
X132118349Y-122810811D01*
X138966100Y-129658562D01*
X138966100Y-131966300D01*
X138847004Y-132085188D01*
X138724939Y-132379152D01*
X138724661Y-132697452D01*
X138802775Y-132886500D01*
X138359252Y-132886500D01*
X138336887Y-132832372D01*
X138112012Y-132607104D01*
X137818048Y-132485039D01*
X137499748Y-132484761D01*
X137205572Y-132606313D01*
X136980304Y-132831188D01*
X136858239Y-133125152D01*
X136857961Y-133443452D01*
X136945743Y-133655900D01*
X125406762Y-133655900D01*
X123826731Y-132075869D01*
X123774416Y-132040913D01*
X123645444Y-131954736D01*
X123431600Y-131912200D01*
X123326810Y-131912200D01*
X123310359Y-131827411D01*
X123232077Y-131708241D01*
X123113899Y-131628469D01*
X122974100Y-131600433D01*
X118478300Y-131600433D01*
X118342711Y-131626741D01*
X118223541Y-131705023D01*
X118143769Y-131823201D01*
X118115733Y-131963000D01*
X118115733Y-132979000D01*
X118142041Y-133114589D01*
X118220323Y-133233759D01*
X118338501Y-133313531D01*
X118478300Y-133341567D01*
X121999513Y-133341567D01*
X121887239Y-133611952D01*
X121886961Y-133930252D01*
X121925200Y-134022797D01*
X121925200Y-138515432D01*
X121887239Y-138606852D01*
X121886961Y-138925152D01*
X122008513Y-139219328D01*
X122233388Y-139444596D01*
X122527352Y-139566661D01*
X122845652Y-139566939D01*
X122938197Y-139528700D01*
X128179770Y-139528700D01*
X132207000Y-143555931D01*
X132207000Y-143822005D01*
X132178737Y-143840890D01*
X131936472Y-144203466D01*
X131851400Y-144631153D01*
X131851400Y-145710847D01*
X131936472Y-146138534D01*
X132178737Y-146501110D01*
X132541313Y-146743375D01*
X132969000Y-146828447D01*
X133396687Y-146743375D01*
X133759263Y-146501110D01*
X134001528Y-146138534D01*
X134086600Y-145710847D01*
X134086600Y-144631153D01*
X134001528Y-144203466D01*
X133867113Y-144002300D01*
X134610887Y-144002300D01*
X134476472Y-144203466D01*
X134391400Y-144631153D01*
X134391400Y-145710847D01*
X134476472Y-146138534D01*
X134718737Y-146501110D01*
X135081313Y-146743375D01*
X135509000Y-146828447D01*
X135936687Y-146743375D01*
X136299263Y-146501110D01*
X136541528Y-146138534D01*
X136626600Y-145710847D01*
X136626600Y-144631153D01*
X136541528Y-144203466D01*
X136407113Y-144002300D01*
X139751474Y-144002300D01*
X139603405Y-144223901D01*
X139522200Y-144632148D01*
X139522200Y-145709852D01*
X139603405Y-146118099D01*
X139834658Y-146464194D01*
X140180753Y-146695447D01*
X140589000Y-146776652D01*
X140997247Y-146695447D01*
X141343342Y-146464194D01*
X141574595Y-146118099D01*
X141655800Y-145709852D01*
X141655800Y-144632148D01*
X141574595Y-144223901D01*
X141343342Y-143877806D01*
X141296178Y-143846292D01*
X141396715Y-143779115D01*
X145636030Y-139539800D01*
X156242000Y-139539800D01*
X156533605Y-139481796D01*
X156780815Y-139316615D01*
X163261716Y-132835715D01*
X163362525Y-132684843D01*
X163426896Y-132588505D01*
X163484900Y-132296900D01*
X163484900Y-130599668D01*
X163522861Y-130508248D01*
X163523139Y-130189948D01*
X163401587Y-129895772D01*
X163176712Y-129670504D01*
X162882748Y-129548439D01*
X162704579Y-129548283D01*
X164190131Y-128062731D01*
X164202647Y-128044000D01*
X164311264Y-127881444D01*
X164353800Y-127667600D01*
X164353800Y-76764900D01*
X164311264Y-76551056D01*
X164190131Y-76369769D01*
X148056031Y-60235669D01*
X147968209Y-60176988D01*
X147874744Y-60114536D01*
X147660900Y-60072000D01*
X134786600Y-60072000D01*
X134667712Y-59952904D01*
X134373748Y-59830839D01*
X134055448Y-59830561D01*
X133761272Y-59952113D01*
X133536004Y-60176988D01*
X133413939Y-60470952D01*
X133413661Y-60789252D01*
X133535213Y-61083428D01*
X133760088Y-61308696D01*
X134054052Y-61430761D01*
X134372352Y-61431039D01*
X134666528Y-61309487D01*
X134786625Y-61189600D01*
X147429438Y-61189600D01*
X150258840Y-64019002D01*
X150073672Y-64095513D01*
X149848404Y-64320388D01*
X149726339Y-64614352D01*
X149726061Y-64932652D01*
X149847613Y-65226828D01*
X149967500Y-65346925D01*
X149967500Y-79294974D01*
X149784148Y-79218839D01*
X149465848Y-79218561D01*
X149211200Y-79323780D01*
X149211200Y-75409492D01*
X149225461Y-75375148D01*
X149225739Y-75056848D01*
X149187500Y-74964303D01*
X149187500Y-72599600D01*
X149164784Y-72485400D01*
X149129497Y-72307996D01*
X148964316Y-72060785D01*
X140381030Y-63477500D01*
X140544541Y-63313989D01*
X140636028Y-63276187D01*
X140861296Y-63051312D01*
X140983361Y-62757348D01*
X140983639Y-62439048D01*
X140862087Y-62144872D01*
X140637212Y-61919604D01*
X140343248Y-61797539D01*
X140024948Y-61797261D01*
X139730772Y-61918813D01*
X139505504Y-62143688D01*
X139467103Y-62236167D01*
X138987770Y-62715500D01*
X124441940Y-62715500D01*
X124382387Y-62571372D01*
X124157512Y-62346104D01*
X123863548Y-62224039D01*
X123545248Y-62223761D01*
X123251072Y-62345313D01*
X123025804Y-62570188D01*
X122903739Y-62864152D01*
X122903461Y-63182452D01*
X122908623Y-63194946D01*
X118613085Y-67490485D01*
X118447904Y-67737695D01*
X118389900Y-68029300D01*
X118389900Y-75065632D01*
X118351939Y-75157052D01*
X118351661Y-75475352D01*
X118419200Y-75638808D01*
X118419200Y-82591632D01*
X118381239Y-82683052D01*
X118380961Y-83001352D01*
X118502513Y-83295528D01*
X118547539Y-83340633D01*
X118478300Y-83340633D01*
X118342711Y-83366941D01*
X118223541Y-83445223D01*
X118143769Y-83563401D01*
X118125921Y-83652400D01*
X118020800Y-83652400D01*
X117806956Y-83694936D01*
X117625669Y-83816069D01*
X117504536Y-83997356D01*
X117462000Y-84211200D01*
X117462000Y-86650437D01*
X117342267Y-86770170D01*
X117342267Y-86243200D01*
X117315959Y-86107611D01*
X117237677Y-85988441D01*
X117119499Y-85908669D01*
X116979700Y-85880633D01*
X112483900Y-85880633D01*
X112348311Y-85906941D01*
X112229141Y-85985223D01*
X112149369Y-86103401D01*
X112131521Y-86192400D01*
X112026400Y-86192400D01*
X111840882Y-86229302D01*
X111901861Y-86082448D01*
X111902139Y-85764148D01*
X111780587Y-85469972D01*
X111555712Y-85244704D01*
X111261748Y-85122639D01*
X110943448Y-85122361D01*
X110649272Y-85243913D01*
X110424004Y-85468788D01*
X110301939Y-85762752D01*
X110301791Y-85932447D01*
X109591200Y-86643038D01*
X109591200Y-83703200D01*
X112121333Y-83703200D01*
X112121333Y-84719200D01*
X112147641Y-84854789D01*
X112225923Y-84973959D01*
X112344101Y-85053731D01*
X112483900Y-85081767D01*
X116979700Y-85081767D01*
X117115289Y-85055459D01*
X117234459Y-84977177D01*
X117314231Y-84858999D01*
X117342267Y-84719200D01*
X117342267Y-83703200D01*
X117315959Y-83567611D01*
X117237677Y-83448441D01*
X117119499Y-83368669D01*
X116979700Y-83340633D01*
X112483900Y-83340633D01*
X112348311Y-83366941D01*
X112229141Y-83445223D01*
X112149369Y-83563401D01*
X112121333Y-83703200D01*
X109591200Y-83703200D01*
X109591200Y-75906862D01*
X111653770Y-73844292D01*
X111822052Y-73844439D01*
X112116228Y-73722887D01*
X112341496Y-73498012D01*
X112463561Y-73204048D01*
X112463839Y-72885748D01*
X112342287Y-72591572D01*
X112117412Y-72366304D01*
X111823448Y-72244239D01*
X111505148Y-72243961D01*
X111210972Y-72365513D01*
X110985704Y-72590388D01*
X110863639Y-72884352D01*
X110863491Y-73054047D01*
X108930400Y-74987138D01*
X108930400Y-68947562D01*
X116746971Y-61130992D01*
X116915252Y-61131139D01*
X117209428Y-61009587D01*
X117434696Y-60784712D01*
X117556761Y-60490748D01*
X117557039Y-60172448D01*
X117435487Y-59878272D01*
X117210612Y-59653004D01*
X116916648Y-59530939D01*
X116598348Y-59530661D01*
X116304172Y-59652213D01*
X116078904Y-59877088D01*
X115956839Y-60171052D01*
X115956691Y-60340746D01*
X107988100Y-68309338D01*
X107988100Y-57963737D01*
X109245030Y-57963737D01*
X109569167Y-58748209D01*
X110168835Y-59348924D01*
X110952739Y-59674429D01*
X111801537Y-59675170D01*
X112586009Y-59351033D01*
X113186724Y-58751365D01*
X113512229Y-57967461D01*
X113512970Y-57118663D01*
X113398801Y-56842352D01*
X129124861Y-56842352D01*
X129246413Y-57136528D01*
X129366300Y-57256625D01*
X129366300Y-58152700D01*
X129247204Y-58271588D01*
X129125139Y-58565552D01*
X129124861Y-58883852D01*
X129246413Y-59178028D01*
X129471288Y-59403296D01*
X129765252Y-59525361D01*
X130083552Y-59525639D01*
X130377728Y-59404087D01*
X130602996Y-59179212D01*
X130725061Y-58885248D01*
X130725339Y-58566948D01*
X130603787Y-58272772D01*
X130483900Y-58152675D01*
X130483900Y-57963737D01*
X160045030Y-57963737D01*
X160369167Y-58748209D01*
X160968835Y-59348924D01*
X161752739Y-59674429D01*
X162601537Y-59675170D01*
X163386009Y-59351033D01*
X163986724Y-58751365D01*
X164312229Y-57967461D01*
X164312970Y-57118663D01*
X163988833Y-56334191D01*
X163389165Y-55733476D01*
X162605261Y-55407971D01*
X161756463Y-55407230D01*
X160971991Y-55731367D01*
X160371276Y-56331035D01*
X160045771Y-57114939D01*
X160045030Y-57963737D01*
X130483900Y-57963737D01*
X130483900Y-57256600D01*
X130602996Y-57137712D01*
X130725061Y-56843748D01*
X130725339Y-56525448D01*
X130603787Y-56231272D01*
X130378912Y-56006004D01*
X130084948Y-55883939D01*
X129766648Y-55883661D01*
X129472472Y-56005213D01*
X129247204Y-56230088D01*
X129125139Y-56524052D01*
X129124861Y-56842352D01*
X113398801Y-56842352D01*
X113188833Y-56334191D01*
X112589165Y-55733476D01*
X111805261Y-55407971D01*
X110956463Y-55407230D01*
X110171991Y-55731367D01*
X109571276Y-56331035D01*
X109245771Y-57114939D01*
X109245030Y-57963737D01*
X107988100Y-57963737D01*
X107988100Y-54150260D01*
X165569900Y-54150260D01*
X165569900Y-162532060D01*
X165569900Y-162532060D01*
G37*
X165569900Y-162532060D02*
X107988100Y-162532060D01*
X107988100Y-159563537D01*
X109245030Y-159563537D01*
X109569167Y-160348009D01*
X110168835Y-160948724D01*
X110952739Y-161274229D01*
X111801537Y-161274970D01*
X112586009Y-160950833D01*
X113186724Y-160351165D01*
X113512229Y-159567261D01*
X113512970Y-158718463D01*
X113188833Y-157933991D01*
X112589165Y-157333276D01*
X112095942Y-157128472D01*
X130149600Y-157128472D01*
X130149600Y-158765928D01*
X130312011Y-159582421D01*
X130774517Y-160274611D01*
X131466707Y-160737117D01*
X132283200Y-160899528D01*
X133099693Y-160737117D01*
X133791883Y-160274611D01*
X134254389Y-159582421D01*
X134416800Y-158765928D01*
X134416800Y-157128472D01*
X134254389Y-156311979D01*
X133971663Y-155888848D01*
X134645400Y-155888848D01*
X134645400Y-157008352D01*
X134807811Y-157824845D01*
X135270317Y-158517035D01*
X135916338Y-158948692D01*
X135659933Y-159204650D01*
X135458430Y-159689924D01*
X135457971Y-160215371D01*
X135658627Y-160700996D01*
X136029850Y-161072867D01*
X136515124Y-161274370D01*
X137040571Y-161274829D01*
X137526196Y-161074173D01*
X137898067Y-160702950D01*
X138099570Y-160217676D01*
X138100029Y-159692229D01*
X138063699Y-159604303D01*
X139893148Y-161433752D01*
X140090916Y-161565897D01*
X140324200Y-161612300D01*
X142251500Y-161612300D01*
X142484784Y-161565897D01*
X142682552Y-161433752D01*
X144552767Y-159563537D01*
X160045030Y-159563537D01*
X160369167Y-160348009D01*
X160968835Y-160948724D01*
X161752739Y-161274229D01*
X162601537Y-161274970D01*
X163386009Y-160950833D01*
X163986724Y-160351165D01*
X164312229Y-159567261D01*
X164312970Y-158718463D01*
X163988833Y-157933991D01*
X163389165Y-157333276D01*
X162605261Y-157007771D01*
X161756463Y-157007030D01*
X160971991Y-157331167D01*
X160371276Y-157930835D01*
X160045771Y-158714739D01*
X160045030Y-159563537D01*
X144552767Y-159563537D01*
X144830053Y-159286252D01*
X144909267Y-159167698D01*
X144962197Y-159088484D01*
X145008600Y-158855200D01*
X145008600Y-158560307D01*
X145112119Y-158540222D01*
X145214265Y-158473123D01*
X145282641Y-158371827D01*
X145306671Y-158252000D01*
X145306671Y-157058200D01*
X145284122Y-156941981D01*
X145217023Y-156839835D01*
X145115727Y-156771459D01*
X144995900Y-156747429D01*
X143802100Y-156747429D01*
X143685881Y-156769978D01*
X143583735Y-156837077D01*
X143515359Y-156938373D01*
X143491329Y-157058200D01*
X143491329Y-158252000D01*
X143513878Y-158368219D01*
X143580977Y-158470365D01*
X143682273Y-158538741D01*
X143789400Y-158560224D01*
X143789400Y-158602695D01*
X143354328Y-159037768D01*
X143408400Y-158765928D01*
X143408400Y-157128472D01*
X143245989Y-156311979D01*
X142783483Y-155619789D01*
X142091293Y-155157283D01*
X141274800Y-154994872D01*
X140458307Y-155157283D01*
X139766117Y-155619789D01*
X139303611Y-156311979D01*
X139141200Y-157128472D01*
X139141200Y-158765928D01*
X139188792Y-159005188D01*
X138453090Y-158269486D01*
X138750189Y-157824845D01*
X138912600Y-157008352D01*
X138912600Y-155888848D01*
X138750189Y-155072355D01*
X138287683Y-154380165D01*
X137595493Y-153917659D01*
X136779000Y-153755248D01*
X135962507Y-153917659D01*
X135270317Y-154380165D01*
X134807811Y-155072355D01*
X134645400Y-155888848D01*
X133971663Y-155888848D01*
X133791883Y-155619789D01*
X133099693Y-155157283D01*
X132283200Y-154994872D01*
X131466707Y-155157283D01*
X130774517Y-155619789D01*
X130312011Y-156311979D01*
X130149600Y-157128472D01*
X112095942Y-157128472D01*
X111805261Y-157007771D01*
X110956463Y-157007030D01*
X110171991Y-157331167D01*
X109571276Y-157930835D01*
X109245771Y-158714739D01*
X109245030Y-159563537D01*
X107988100Y-159563537D01*
X107988100Y-150962200D01*
X133826672Y-150962200D01*
X134008417Y-151875895D01*
X134525984Y-152650488D01*
X135300577Y-153168055D01*
X136214272Y-153349800D01*
X137343728Y-153349800D01*
X138257423Y-153168055D01*
X139032016Y-152650488D01*
X139353936Y-152168700D01*
X143236333Y-152168700D01*
X143236333Y-152956100D01*
X143262641Y-153091689D01*
X143340923Y-153210859D01*
X143459101Y-153290631D01*
X143598900Y-153318667D01*
X143840200Y-153318667D01*
X143840200Y-154639229D01*
X143802100Y-154639229D01*
X143685881Y-154661778D01*
X143583735Y-154728877D01*
X143515359Y-154830173D01*
X143491329Y-154950000D01*
X143491329Y-156143800D01*
X143513878Y-156260019D01*
X143580977Y-156362165D01*
X143682273Y-156430541D01*
X143802100Y-156454571D01*
X144995900Y-156454571D01*
X145112119Y-156432022D01*
X145214265Y-156364923D01*
X145282641Y-156263627D01*
X145306671Y-156143800D01*
X145306671Y-154950000D01*
X145284122Y-154833781D01*
X145217023Y-154731635D01*
X145115727Y-154663259D01*
X144995900Y-154639229D01*
X144957800Y-154639229D01*
X144957800Y-153318667D01*
X145199100Y-153318667D01*
X145334689Y-153292359D01*
X145453859Y-153214077D01*
X145533631Y-153095899D01*
X145561667Y-152956100D01*
X145561667Y-152168700D01*
X145535359Y-152033111D01*
X145457077Y-151913941D01*
X145338899Y-151834169D01*
X145199100Y-151806133D01*
X143598900Y-151806133D01*
X143463311Y-151832441D01*
X143344141Y-151910723D01*
X143264369Y-152028901D01*
X143236333Y-152168700D01*
X139353936Y-152168700D01*
X139549583Y-151875895D01*
X139579757Y-151724200D01*
X140322000Y-151724200D01*
X140613605Y-151666196D01*
X140860815Y-151501015D01*
X143129000Y-149232831D01*
X143619502Y-149723333D01*
X143598900Y-149723333D01*
X143463311Y-149749641D01*
X143344141Y-149827923D01*
X143264369Y-149946101D01*
X143236333Y-150085900D01*
X143236333Y-150873300D01*
X143262641Y-151008889D01*
X143340923Y-151128059D01*
X143459101Y-151207831D01*
X143598900Y-151235867D01*
X144370178Y-151235867D01*
X144399000Y-151241600D01*
X144427822Y-151235867D01*
X145199100Y-151235867D01*
X145334689Y-151209559D01*
X145453859Y-151131277D01*
X145533631Y-151013099D01*
X145561667Y-150873300D01*
X145561667Y-150085900D01*
X145535359Y-149950311D01*
X145457077Y-149831141D01*
X145338899Y-149751369D01*
X145199100Y-149723333D01*
X145161000Y-149723333D01*
X145161000Y-149425200D01*
X145102996Y-149133595D01*
X144937815Y-148886384D01*
X143891000Y-147839570D01*
X143891000Y-146452733D01*
X144114595Y-146118099D01*
X144195800Y-145709852D01*
X144195800Y-144632148D01*
X144602200Y-144632148D01*
X144602200Y-145709852D01*
X144683405Y-146118099D01*
X144914658Y-146464194D01*
X145260753Y-146695447D01*
X145669000Y-146776652D01*
X146077247Y-146695447D01*
X146423342Y-146464194D01*
X146654595Y-146118099D01*
X146735800Y-145709852D01*
X146735800Y-144632148D01*
X146654595Y-144223901D01*
X146423342Y-143877806D01*
X146077247Y-143646553D01*
X145669000Y-143565348D01*
X145260753Y-143646553D01*
X144914658Y-143877806D01*
X144683405Y-144223901D01*
X144602200Y-144632148D01*
X144195800Y-144632148D01*
X144195800Y-144632148D01*
X144114595Y-144223901D01*
X143883342Y-143877806D01*
X143537247Y-143646553D01*
X143129000Y-143565348D01*
X142720753Y-143646553D01*
X142374658Y-143877806D01*
X142143405Y-144223901D01*
X142062200Y-144632148D01*
X142062200Y-145709852D01*
X142143405Y-146118099D01*
X142367000Y-146452733D01*
X142367000Y-147839569D01*
X140006370Y-150200200D01*
X139579757Y-150200200D01*
X139549583Y-150048505D01*
X139032016Y-149273912D01*
X138257423Y-148756345D01*
X137343728Y-148574600D01*
X136214272Y-148574600D01*
X135300577Y-148756345D01*
X134525984Y-149273912D01*
X134008417Y-150048505D01*
X133826672Y-150962200D01*
X107988100Y-150962200D01*
X107988100Y-144631153D01*
X126771400Y-144631153D01*
X126771400Y-145710847D01*
X126856472Y-146138534D01*
X127098737Y-146501110D01*
X127461313Y-146743375D01*
X127889000Y-146828447D01*
X128316687Y-146743375D01*
X128679263Y-146501110D01*
X128921528Y-146138534D01*
X129006600Y-145710847D01*
X129006600Y-145323400D01*
X129057400Y-145323400D01*
X129057400Y-145831400D01*
X129220128Y-146344688D01*
X129566896Y-146756631D01*
X130065239Y-147001484D01*
X130276600Y-146888637D01*
X130276600Y-145323400D01*
X130581400Y-145323400D01*
X130581400Y-146888637D01*
X130792761Y-147001484D01*
X131291104Y-146756631D01*
X131637872Y-146344688D01*
X131800600Y-145831400D01*
X131800600Y-145323400D01*
X130581400Y-145323400D01*
X130276600Y-145323400D01*
X130276600Y-145323400D01*
X129057400Y-145323400D01*
X129006600Y-145323400D01*
X129006600Y-144631153D01*
X128982621Y-144510600D01*
X129057400Y-144510600D01*
X129057400Y-145018600D01*
X130276600Y-145018600D01*
X130276600Y-143453363D01*
X130581400Y-143453363D01*
X130581400Y-145018600D01*
X131800600Y-145018600D01*
X131800600Y-144510600D01*
X131637872Y-143997312D01*
X131291104Y-143585369D01*
X130792761Y-143340516D01*
X130581400Y-143453363D01*
X130276600Y-143453363D01*
X130276600Y-143453363D01*
X130065239Y-143340516D01*
X129566896Y-143585369D01*
X129220128Y-143997312D01*
X129057400Y-144510600D01*
X128982621Y-144510600D01*
X128921528Y-144203466D01*
X128679263Y-143840890D01*
X128316687Y-143598625D01*
X127889000Y-143513553D01*
X127461313Y-143598625D01*
X127098737Y-143840890D01*
X126856472Y-144203466D01*
X126771400Y-144631153D01*
X107988100Y-144631153D01*
X107988100Y-132878052D01*
X109707561Y-132878052D01*
X109829113Y-133172228D01*
X109949000Y-133292325D01*
X109949000Y-135040000D01*
X109991536Y-135253844D01*
X110112669Y-135435131D01*
X116878408Y-142200870D01*
X116878261Y-142369152D01*
X116999813Y-142663328D01*
X117224688Y-142888596D01*
X117518652Y-143010661D01*
X117836952Y-143010939D01*
X118131128Y-142889387D01*
X118356396Y-142664512D01*
X118478461Y-142370548D01*
X118478739Y-142052248D01*
X118357187Y-141758072D01*
X118132312Y-141532804D01*
X117838348Y-141410739D01*
X117668653Y-141410591D01*
X111066600Y-134808538D01*
X111066600Y-133292300D01*
X111185696Y-133173412D01*
X111307761Y-132879448D01*
X111307851Y-132775800D01*
X111874300Y-132775800D01*
X111874300Y-133100257D01*
X111967106Y-133324311D01*
X112138589Y-133495794D01*
X112362643Y-133588600D01*
X114427000Y-133588600D01*
X114579400Y-133436200D01*
X114579400Y-132623400D01*
X114884200Y-132623400D01*
X114884200Y-133436200D01*
X115036600Y-133588600D01*
X117100957Y-133588600D01*
X117325011Y-133495794D01*
X117496494Y-133324311D01*
X117589300Y-133100257D01*
X117589300Y-132775800D01*
X117436900Y-132623400D01*
X114884200Y-132623400D01*
X114579400Y-132623400D01*
X114579400Y-132623400D01*
X112026700Y-132623400D01*
X111874300Y-132775800D01*
X111307851Y-132775800D01*
X111308039Y-132561148D01*
X111186487Y-132266972D01*
X110961612Y-132041704D01*
X110667648Y-131919639D01*
X110349348Y-131919361D01*
X110055172Y-132040913D01*
X109829904Y-132265788D01*
X109707839Y-132559752D01*
X109707561Y-132878052D01*
X107988100Y-132878052D01*
X107988100Y-125970162D01*
X110734200Y-128716263D01*
X110734200Y-130135900D01*
X110776736Y-130349744D01*
X110870319Y-130489800D01*
X110897869Y-130531031D01*
X111658469Y-131291631D01*
X111839756Y-131412764D01*
X112053600Y-131455300D01*
X112129495Y-131455300D01*
X111967106Y-131617689D01*
X111874300Y-131841743D01*
X111874300Y-132166200D01*
X112026700Y-132318600D01*
X114579400Y-132318600D01*
X114579400Y-132298600D01*
X114884200Y-132298600D01*
X114884200Y-132318600D01*
X117436900Y-132318600D01*
X117589300Y-132166200D01*
X117589300Y-131841743D01*
X117496494Y-131617689D01*
X117325011Y-131446206D01*
X117291533Y-131432339D01*
X117389944Y-131412764D01*
X117571231Y-131291631D01*
X118200016Y-130662846D01*
X118220323Y-130693759D01*
X118338501Y-130773531D01*
X118478300Y-130801567D01*
X122974100Y-130801567D01*
X123109689Y-130775259D01*
X123228859Y-130696977D01*
X123308631Y-130578799D01*
X123336667Y-130439000D01*
X123336667Y-129423000D01*
X123310359Y-129287411D01*
X123232077Y-129168241D01*
X123113899Y-129088469D01*
X122974100Y-129060433D01*
X118484580Y-129060433D01*
X118653596Y-128891712D01*
X118775661Y-128597748D01*
X118775939Y-128279448D01*
X118768551Y-128261567D01*
X122974100Y-128261567D01*
X123109689Y-128235259D01*
X123228859Y-128156977D01*
X123308631Y-128038799D01*
X123326479Y-127949800D01*
X123431600Y-127949800D01*
X123645444Y-127907264D01*
X123826731Y-127786131D01*
X123947864Y-127604844D01*
X123990400Y-127391000D01*
X123990400Y-115958462D01*
X130563708Y-122531770D01*
X130563561Y-122700052D01*
X130685113Y-122994228D01*
X130909988Y-123219496D01*
X131203952Y-123341561D01*
X131522252Y-123341839D01*
X131816428Y-123220287D01*
X132041696Y-122995412D01*
X132118349Y-122810811D01*
X138966100Y-129658562D01*
X138966100Y-131966300D01*
X138847004Y-132085188D01*
X138724939Y-132379152D01*
X138724661Y-132697452D01*
X138802775Y-132886500D01*
X138359252Y-132886500D01*
X138336887Y-132832372D01*
X138112012Y-132607104D01*
X137818048Y-132485039D01*
X137499748Y-132484761D01*
X137205572Y-132606313D01*
X136980304Y-132831188D01*
X136858239Y-133125152D01*
X136857961Y-133443452D01*
X136945743Y-133655900D01*
X125406762Y-133655900D01*
X123826731Y-132075869D01*
X123774416Y-132040913D01*
X123645444Y-131954736D01*
X123431600Y-131912200D01*
X123326810Y-131912200D01*
X123310359Y-131827411D01*
X123232077Y-131708241D01*
X123113899Y-131628469D01*
X122974100Y-131600433D01*
X118478300Y-131600433D01*
X118342711Y-131626741D01*
X118223541Y-131705023D01*
X118143769Y-131823201D01*
X118115733Y-131963000D01*
X118115733Y-132979000D01*
X118142041Y-133114589D01*
X118220323Y-133233759D01*
X118338501Y-133313531D01*
X118478300Y-133341567D01*
X121999513Y-133341567D01*
X121887239Y-133611952D01*
X121886961Y-133930252D01*
X121925200Y-134022797D01*
X121925200Y-138515432D01*
X121887239Y-138606852D01*
X121886961Y-138925152D01*
X122008513Y-139219328D01*
X122233388Y-139444596D01*
X122527352Y-139566661D01*
X122845652Y-139566939D01*
X122938197Y-139528700D01*
X128179770Y-139528700D01*
X132207000Y-143555931D01*
X132207000Y-143822005D01*
X132178737Y-143840890D01*
X131936472Y-144203466D01*
X131851400Y-144631153D01*
X131851400Y-145710847D01*
X131936472Y-146138534D01*
X132178737Y-146501110D01*
X132541313Y-146743375D01*
X132969000Y-146828447D01*
X133396687Y-146743375D01*
X133759263Y-146501110D01*
X134001528Y-146138534D01*
X134086600Y-145710847D01*
X134086600Y-144631153D01*
X134001528Y-144203466D01*
X133867113Y-144002300D01*
X134610887Y-144002300D01*
X134476472Y-144203466D01*
X134391400Y-144631153D01*
X134391400Y-145710847D01*
X134476472Y-146138534D01*
X134718737Y-146501110D01*
X135081313Y-146743375D01*
X135509000Y-146828447D01*
X135936687Y-146743375D01*
X136299263Y-146501110D01*
X136541528Y-146138534D01*
X136626600Y-145710847D01*
X136626600Y-144631153D01*
X136541528Y-144203466D01*
X136407113Y-144002300D01*
X139751474Y-144002300D01*
X139603405Y-144223901D01*
X139522200Y-144632148D01*
X139522200Y-145709852D01*
X139603405Y-146118099D01*
X139834658Y-146464194D01*
X140180753Y-146695447D01*
X140589000Y-146776652D01*
X140997247Y-146695447D01*
X141343342Y-146464194D01*
X141574595Y-146118099D01*
X141655800Y-145709852D01*
X141655800Y-144632148D01*
X141574595Y-144223901D01*
X141343342Y-143877806D01*
X141296178Y-143846292D01*
X141396715Y-143779115D01*
X145636030Y-139539800D01*
X156242000Y-139539800D01*
X156533605Y-139481796D01*
X156780815Y-139316615D01*
X163261716Y-132835715D01*
X163362525Y-132684843D01*
X163426896Y-132588505D01*
X163484900Y-132296900D01*
X163484900Y-130599668D01*
X163522861Y-130508248D01*
X163523139Y-130189948D01*
X163401587Y-129895772D01*
X163176712Y-129670504D01*
X162882748Y-129548439D01*
X162704579Y-129548283D01*
X164190131Y-128062731D01*
X164202647Y-128044000D01*
X164311264Y-127881444D01*
X164353800Y-127667600D01*
X164353800Y-76764900D01*
X164311264Y-76551056D01*
X164190131Y-76369769D01*
X148056031Y-60235669D01*
X147968209Y-60176988D01*
X147874744Y-60114536D01*
X147660900Y-60072000D01*
X134786600Y-60072000D01*
X134667712Y-59952904D01*
X134373748Y-59830839D01*
X134055448Y-59830561D01*
X133761272Y-59952113D01*
X133536004Y-60176988D01*
X133413939Y-60470952D01*
X133413661Y-60789252D01*
X133535213Y-61083428D01*
X133760088Y-61308696D01*
X134054052Y-61430761D01*
X134372352Y-61431039D01*
X134666528Y-61309487D01*
X134786625Y-61189600D01*
X147429438Y-61189600D01*
X150258840Y-64019002D01*
X150073672Y-64095513D01*
X149848404Y-64320388D01*
X149726339Y-64614352D01*
X149726061Y-64932652D01*
X149847613Y-65226828D01*
X149967500Y-65346925D01*
X149967500Y-79294974D01*
X149784148Y-79218839D01*
X149465848Y-79218561D01*
X149211200Y-79323780D01*
X149211200Y-75409492D01*
X149225461Y-75375148D01*
X149225739Y-75056848D01*
X149187500Y-74964303D01*
X149187500Y-72599600D01*
X149164784Y-72485400D01*
X149129497Y-72307996D01*
X148964316Y-72060785D01*
X140381030Y-63477500D01*
X140544541Y-63313989D01*
X140636028Y-63276187D01*
X140861296Y-63051312D01*
X140983361Y-62757348D01*
X140983639Y-62439048D01*
X140862087Y-62144872D01*
X140637212Y-61919604D01*
X140343248Y-61797539D01*
X140024948Y-61797261D01*
X139730772Y-61918813D01*
X139505504Y-62143688D01*
X139467103Y-62236167D01*
X138987770Y-62715500D01*
X124441940Y-62715500D01*
X124382387Y-62571372D01*
X124157512Y-62346104D01*
X123863548Y-62224039D01*
X123545248Y-62223761D01*
X123251072Y-62345313D01*
X123025804Y-62570188D01*
X122903739Y-62864152D01*
X122903461Y-63182452D01*
X122908623Y-63194946D01*
X118613085Y-67490485D01*
X118447904Y-67737695D01*
X118389900Y-68029300D01*
X118389900Y-75065632D01*
X118351939Y-75157052D01*
X118351661Y-75475352D01*
X118419200Y-75638808D01*
X118419200Y-82591632D01*
X118381239Y-82683052D01*
X118380961Y-83001352D01*
X118502513Y-83295528D01*
X118547539Y-83340633D01*
X118478300Y-83340633D01*
X118342711Y-83366941D01*
X118223541Y-83445223D01*
X118143769Y-83563401D01*
X118125921Y-83652400D01*
X118020800Y-83652400D01*
X117806956Y-83694936D01*
X117625669Y-83816069D01*
X117504536Y-83997356D01*
X117462000Y-84211200D01*
X117462000Y-86650437D01*
X117342267Y-86770170D01*
X117342267Y-86243200D01*
X117315959Y-86107611D01*
X117237677Y-85988441D01*
X117119499Y-85908669D01*
X116979700Y-85880633D01*
X112483900Y-85880633D01*
X112348311Y-85906941D01*
X112229141Y-85985223D01*
X112149369Y-86103401D01*
X112131521Y-86192400D01*
X112026400Y-86192400D01*
X111840882Y-86229302D01*
X111901861Y-86082448D01*
X111902139Y-85764148D01*
X111780587Y-85469972D01*
X111555712Y-85244704D01*
X111261748Y-85122639D01*
X110943448Y-85122361D01*
X110649272Y-85243913D01*
X110424004Y-85468788D01*
X110301939Y-85762752D01*
X110301791Y-85932447D01*
X109591200Y-86643038D01*
X109591200Y-83703200D01*
X112121333Y-83703200D01*
X112121333Y-84719200D01*
X112147641Y-84854789D01*
X112225923Y-84973959D01*
X112344101Y-85053731D01*
X112483900Y-85081767D01*
X116979700Y-85081767D01*
X117115289Y-85055459D01*
X117234459Y-84977177D01*
X117314231Y-84858999D01*
X117342267Y-84719200D01*
X117342267Y-83703200D01*
X117315959Y-83567611D01*
X117237677Y-83448441D01*
X117119499Y-83368669D01*
X116979700Y-83340633D01*
X112483900Y-83340633D01*
X112348311Y-83366941D01*
X112229141Y-83445223D01*
X112149369Y-83563401D01*
X112121333Y-83703200D01*
X109591200Y-83703200D01*
X109591200Y-75906862D01*
X111653770Y-73844292D01*
X111822052Y-73844439D01*
X112116228Y-73722887D01*
X112341496Y-73498012D01*
X112463561Y-73204048D01*
X112463839Y-72885748D01*
X112342287Y-72591572D01*
X112117412Y-72366304D01*
X111823448Y-72244239D01*
X111505148Y-72243961D01*
X111210972Y-72365513D01*
X110985704Y-72590388D01*
X110863639Y-72884352D01*
X110863491Y-73054047D01*
X108930400Y-74987138D01*
X108930400Y-68947562D01*
X116746971Y-61130992D01*
X116915252Y-61131139D01*
X117209428Y-61009587D01*
X117434696Y-60784712D01*
X117556761Y-60490748D01*
X117557039Y-60172448D01*
X117435487Y-59878272D01*
X117210612Y-59653004D01*
X116916648Y-59530939D01*
X116598348Y-59530661D01*
X116304172Y-59652213D01*
X116078904Y-59877088D01*
X115956839Y-60171052D01*
X115956691Y-60340746D01*
X107988100Y-68309338D01*
X107988100Y-57963737D01*
X109245030Y-57963737D01*
X109569167Y-58748209D01*
X110168835Y-59348924D01*
X110952739Y-59674429D01*
X111801537Y-59675170D01*
X112586009Y-59351033D01*
X113186724Y-58751365D01*
X113512229Y-57967461D01*
X113512970Y-57118663D01*
X113398801Y-56842352D01*
X129124861Y-56842352D01*
X129246413Y-57136528D01*
X129366300Y-57256625D01*
X129366300Y-58152700D01*
X129247204Y-58271588D01*
X129125139Y-58565552D01*
X129124861Y-58883852D01*
X129246413Y-59178028D01*
X129471288Y-59403296D01*
X129765252Y-59525361D01*
X130083552Y-59525639D01*
X130377728Y-59404087D01*
X130602996Y-59179212D01*
X130725061Y-58885248D01*
X130725339Y-58566948D01*
X130603787Y-58272772D01*
X130483900Y-58152675D01*
X130483900Y-57963737D01*
X160045030Y-57963737D01*
X160369167Y-58748209D01*
X160968835Y-59348924D01*
X161752739Y-59674429D01*
X162601537Y-59675170D01*
X163386009Y-59351033D01*
X163986724Y-58751365D01*
X164312229Y-57967461D01*
X164312970Y-57118663D01*
X163988833Y-56334191D01*
X163389165Y-55733476D01*
X162605261Y-55407971D01*
X161756463Y-55407230D01*
X160971991Y-55731367D01*
X160371276Y-56331035D01*
X160045771Y-57114939D01*
X160045030Y-57963737D01*
X130483900Y-57963737D01*
X130483900Y-57256600D01*
X130602996Y-57137712D01*
X130725061Y-56843748D01*
X130725339Y-56525448D01*
X130603787Y-56231272D01*
X130378912Y-56006004D01*
X130084948Y-55883939D01*
X129766648Y-55883661D01*
X129472472Y-56005213D01*
X129247204Y-56230088D01*
X129125139Y-56524052D01*
X129124861Y-56842352D01*
X113398801Y-56842352D01*
X113188833Y-56334191D01*
X112589165Y-55733476D01*
X111805261Y-55407971D01*
X110956463Y-55407230D01*
X110171991Y-55731367D01*
X109571276Y-56331035D01*
X109245771Y-57114939D01*
X109245030Y-57963737D01*
X107988100Y-57963737D01*
X107988100Y-54150260D01*
X165569900Y-54150260D01*
X165569900Y-162532060D01*
G36*
X149974300Y-132166200D02*
X150126700Y-132318600D01*
X152679400Y-132318600D01*
X152679400Y-132298600D01*
X152984200Y-132298600D01*
X152984200Y-132318600D01*
X153004200Y-132318600D01*
X153004200Y-132623400D01*
X152984200Y-132623400D01*
X152984200Y-133436200D01*
X153136600Y-133588600D01*
X154333638Y-133588600D01*
X154266338Y-133655900D01*
X147375762Y-133655900D01*
X148255862Y-132775800D01*
X149974300Y-132775800D01*
X149974300Y-133100257D01*
X150067106Y-133324311D01*
X150238589Y-133495794D01*
X150462643Y-133588600D01*
X152527000Y-133588600D01*
X152679400Y-133436200D01*
X152679400Y-132623400D01*
X150126700Y-132623400D01*
X149974300Y-132775800D01*
X148255862Y-132775800D01*
X148967462Y-132064200D01*
X149974300Y-132064200D01*
X149974300Y-132166200D01*
X149974300Y-132166200D01*
G37*
X149974300Y-132166200D02*
X150126700Y-132318600D01*
X152679400Y-132318600D01*
X152679400Y-132298600D01*
X152984200Y-132298600D01*
X152984200Y-132318600D01*
X153004200Y-132318600D01*
X153004200Y-132623400D01*
X152984200Y-132623400D01*
X152984200Y-133436200D01*
X153136600Y-133588600D01*
X154333638Y-133588600D01*
X154266338Y-133655900D01*
X147375762Y-133655900D01*
X148255862Y-132775800D01*
X149974300Y-132775800D01*
X149974300Y-133100257D01*
X150067106Y-133324311D01*
X150238589Y-133495794D01*
X150462643Y-133588600D01*
X152527000Y-133588600D01*
X152679400Y-133436200D01*
X152679400Y-132623400D01*
X150126700Y-132623400D01*
X149974300Y-132775800D01*
X148255862Y-132775800D01*
X148967462Y-132064200D01*
X149974300Y-132064200D01*
X149974300Y-132166200D01*
M02*
