G04 #@! TF.FileFunction,Soldermask,Bot*
%FSLAX46Y46*%
G04 Gerber Fmt 4.6, Leading zero omitted, Abs format (unit mm)*
G04 Created by KiCad (PCBNEW no-vcs-found-product) date Thu 23 Jul 2015 11:14:11 AM EDT*
%MOMM*%
G01*
G04 APERTURE LIST*
%ADD10C,0.100000*%
%ADD11C,0.228600*%
%ADD12R,2.940000X1.670000*%
%ADD13C,2.330400*%
%ADD14O,3.956000X4.972000*%
%ADD15O,5.480000X4.464000*%
%ADD16O,3.956000X5.480000*%
%ADD17O,1.924000X2.940000*%
%ADD18O,1.625600X2.641600*%
%ADD19R,2.000200X1.187400*%
%ADD20R,1.187400X2.000200*%
%ADD21C,3.956000*%
%ADD22R,1.924000X1.035000*%
G04 APERTURE END LIST*
D10*
D11*
X107569000Y-162951160D02*
X107569000Y-53731160D01*
X165989000Y-162951160D02*
X107569000Y-162951160D01*
X165989000Y-53731160D02*
X165989000Y-162951160D01*
X107569000Y-53731160D02*
X165989000Y-53731160D01*
D12*
X116459000Y-154315000D03*
X116459000Y-151267000D03*
X116459000Y-147965000D03*
X116459000Y-144917000D03*
D13*
X136779000Y-159953800D03*
D14*
X136779000Y-156448600D03*
D15*
X136779000Y-150962200D03*
D16*
X141274800Y-157947200D03*
X132283200Y-157947200D03*
D17*
X135509000Y-145171000D03*
X132969000Y-145171000D03*
X130429000Y-145171000D03*
X127889000Y-145171000D03*
D18*
X140589000Y-145171000D03*
X143129000Y-145171000D03*
X145669000Y-145171000D03*
D19*
X159639000Y-134782400D03*
X159639000Y-132699600D03*
D20*
X144170400Y-135011000D03*
X142087600Y-135011000D03*
D19*
X159639000Y-139049600D03*
X159639000Y-141132400D03*
D20*
X142087600Y-132471000D03*
X144170400Y-132471000D03*
D19*
X159639000Y-122082400D03*
X159639000Y-119999600D03*
D20*
X144170400Y-122311000D03*
X142087600Y-122311000D03*
D19*
X159639000Y-126349600D03*
X159639000Y-128432400D03*
D20*
X142087600Y-119771000D03*
X144170400Y-119771000D03*
D19*
X159639000Y-109382400D03*
X159639000Y-107299600D03*
D20*
X144170400Y-109611000D03*
X142087600Y-109611000D03*
D19*
X159639000Y-113649600D03*
X159639000Y-115732400D03*
D20*
X142087600Y-107071000D03*
X144170400Y-107071000D03*
D19*
X159639000Y-96682600D03*
X159639000Y-94599800D03*
D20*
X144170400Y-96911200D03*
X142087600Y-96911200D03*
D19*
X159639000Y-100949600D03*
X159639000Y-103032400D03*
D20*
X142087600Y-94371200D03*
X144170400Y-94371200D03*
D19*
X159639000Y-83982600D03*
X159639000Y-81899800D03*
D20*
X144170400Y-84211200D03*
X142087600Y-84211200D03*
D19*
X159639000Y-88249800D03*
X159639000Y-90332600D03*
D20*
X142087600Y-81671200D03*
X144170400Y-81671200D03*
D19*
X159639000Y-71282600D03*
X159639000Y-69199800D03*
D20*
X144170400Y-71511200D03*
X142087600Y-71511200D03*
D19*
X159639000Y-75549800D03*
X159639000Y-77632600D03*
D20*
X142087600Y-68971200D03*
X144170400Y-68971200D03*
D19*
X154559000Y-58582600D03*
X154559000Y-56499800D03*
D20*
X139090400Y-58811200D03*
X137007600Y-58811200D03*
D19*
X154559000Y-62849800D03*
X154559000Y-64932600D03*
D20*
X137007600Y-56271200D03*
X139090400Y-56271200D03*
D19*
X129159000Y-134782400D03*
X129159000Y-132699600D03*
D20*
X113690400Y-135011000D03*
X111607600Y-135011000D03*
D19*
X129159000Y-139049600D03*
X129159000Y-141132400D03*
D20*
X111607600Y-132471000D03*
X113690400Y-132471000D03*
D19*
X129159000Y-122082400D03*
X129159000Y-119999600D03*
D20*
X113690400Y-122311000D03*
X111607600Y-122311000D03*
D19*
X129159000Y-126349600D03*
X129159000Y-128432400D03*
D20*
X111607600Y-119771000D03*
X113690400Y-119771000D03*
D19*
X129159000Y-109382400D03*
X129159000Y-107299600D03*
D20*
X113690400Y-109611000D03*
X111607600Y-109611000D03*
D19*
X129159000Y-113649600D03*
X129159000Y-115732400D03*
D20*
X111607600Y-107071000D03*
X113690400Y-107071000D03*
D19*
X129159000Y-96682600D03*
X129159000Y-94599800D03*
D20*
X113690400Y-96911200D03*
X111607600Y-96911200D03*
D19*
X129159000Y-100949600D03*
X129159000Y-103032400D03*
D20*
X111607600Y-94371200D03*
X113690400Y-94371200D03*
D19*
X129159000Y-83982600D03*
X129159000Y-81899800D03*
D20*
X113690400Y-84211200D03*
X111607600Y-84211200D03*
D19*
X129159000Y-88249800D03*
X129159000Y-90332600D03*
D20*
X111607600Y-81671200D03*
X113690400Y-81671200D03*
D19*
X129159000Y-71282600D03*
X129159000Y-69199800D03*
D20*
X113690400Y-71511200D03*
X111607600Y-71511200D03*
D19*
X129159000Y-75549800D03*
X129159000Y-77632600D03*
D20*
X111607600Y-68971200D03*
X113690400Y-68971200D03*
D19*
X134239000Y-58582600D03*
X134239000Y-56499800D03*
D20*
X118770400Y-58811200D03*
X116687600Y-58811200D03*
D19*
X134239000Y-62849800D03*
X134239000Y-64932600D03*
D20*
X116687600Y-56271200D03*
X118770400Y-56271200D03*
X142087600Y-141361000D03*
X144170400Y-141361000D03*
X144170400Y-138821000D03*
X142087600Y-138821000D03*
X142087600Y-128661000D03*
X144170400Y-128661000D03*
X144170400Y-126121000D03*
X142087600Y-126121000D03*
X142087600Y-115961000D03*
X144170400Y-115961000D03*
X144170400Y-113421000D03*
X142087600Y-113421000D03*
X142087600Y-103261000D03*
X144170400Y-103261000D03*
X144170400Y-100721000D03*
X142087600Y-100721000D03*
X142087600Y-90561200D03*
X144170400Y-90561200D03*
X144170400Y-88021200D03*
X142087600Y-88021200D03*
X142087600Y-77861200D03*
X144170400Y-77861200D03*
X144170400Y-75321200D03*
X142087600Y-75321200D03*
X137007600Y-65161200D03*
X139090400Y-65161200D03*
X139090400Y-62621200D03*
X137007600Y-62621200D03*
X111607600Y-141361000D03*
X113690400Y-141361000D03*
X113690400Y-138821000D03*
X111607600Y-138821000D03*
X111607600Y-128661000D03*
X113690400Y-128661000D03*
X113690400Y-126121000D03*
X111607600Y-126121000D03*
X111607600Y-115961000D03*
X113690400Y-115961000D03*
X113690400Y-113421000D03*
X111607600Y-113421000D03*
X111607600Y-103261000D03*
X113690400Y-103261000D03*
X113690400Y-100721000D03*
X111607600Y-100721000D03*
X111607600Y-90561200D03*
X113690400Y-90561200D03*
X113690400Y-88021200D03*
X111607600Y-88021200D03*
X111607600Y-77861200D03*
X113690400Y-77861200D03*
X113690400Y-75321200D03*
X111607600Y-75321200D03*
X116687600Y-65161200D03*
X118770400Y-65161200D03*
X118770400Y-62621200D03*
X116687600Y-62621200D03*
D21*
X111379000Y-57541200D03*
X162179000Y-57541200D03*
X111379000Y-159141000D03*
X162179000Y-159141000D03*
D22*
X157099000Y-132471000D03*
X157099000Y-133741000D03*
X157099000Y-135011000D03*
X157099000Y-136281000D03*
X157099000Y-137551000D03*
X157099000Y-138821000D03*
X157099000Y-140091000D03*
X157099000Y-141361000D03*
X146939000Y-141361000D03*
X146939000Y-140091000D03*
X146939000Y-138821000D03*
X146939000Y-137551000D03*
X146939000Y-136281000D03*
X146939000Y-135011000D03*
X146939000Y-133741000D03*
X146939000Y-132471000D03*
X157099000Y-119771000D03*
X157099000Y-121041000D03*
X157099000Y-122311000D03*
X157099000Y-123581000D03*
X157099000Y-124851000D03*
X157099000Y-126121000D03*
X157099000Y-127391000D03*
X157099000Y-128661000D03*
X146939000Y-128661000D03*
X146939000Y-127391000D03*
X146939000Y-126121000D03*
X146939000Y-124851000D03*
X146939000Y-123581000D03*
X146939000Y-122311000D03*
X146939000Y-121041000D03*
X146939000Y-119771000D03*
X157099000Y-107071000D03*
X157099000Y-108341000D03*
X157099000Y-109611000D03*
X157099000Y-110881000D03*
X157099000Y-112151000D03*
X157099000Y-113421000D03*
X157099000Y-114691000D03*
X157099000Y-115961000D03*
X146939000Y-115961000D03*
X146939000Y-114691000D03*
X146939000Y-113421000D03*
X146939000Y-112151000D03*
X146939000Y-110881000D03*
X146939000Y-109611000D03*
X146939000Y-108341000D03*
X146939000Y-107071000D03*
X157099000Y-94371200D03*
X157099000Y-95641200D03*
X157099000Y-96911200D03*
X157099000Y-98181200D03*
X157099000Y-99451200D03*
X157099000Y-100721200D03*
X157099000Y-101991200D03*
X157099000Y-103261200D03*
X146939000Y-103261200D03*
X146939000Y-101991200D03*
X146939000Y-100721200D03*
X146939000Y-99451200D03*
X146939000Y-98181200D03*
X146939000Y-96911200D03*
X146939000Y-95641200D03*
X146939000Y-94371200D03*
X157099000Y-81671200D03*
X157099000Y-82941200D03*
X157099000Y-84211200D03*
X157099000Y-85481200D03*
X157099000Y-86751200D03*
X157099000Y-88021200D03*
X157099000Y-89291200D03*
X157099000Y-90561200D03*
X146939000Y-90561200D03*
X146939000Y-89291200D03*
X146939000Y-88021200D03*
X146939000Y-86751200D03*
X146939000Y-85481200D03*
X146939000Y-84211200D03*
X146939000Y-82941200D03*
X146939000Y-81671200D03*
X157099000Y-68971200D03*
X157099000Y-70241200D03*
X157099000Y-71511200D03*
X157099000Y-72781200D03*
X157099000Y-74051200D03*
X157099000Y-75321200D03*
X157099000Y-76591200D03*
X157099000Y-77861200D03*
X146939000Y-77861200D03*
X146939000Y-76591200D03*
X146939000Y-75321200D03*
X146939000Y-74051200D03*
X146939000Y-72781200D03*
X146939000Y-71511200D03*
X146939000Y-70241200D03*
X146939000Y-68971200D03*
X152019000Y-56271200D03*
X152019000Y-57541200D03*
X152019000Y-58811200D03*
X152019000Y-60081200D03*
X152019000Y-61351200D03*
X152019000Y-62621200D03*
X152019000Y-63891200D03*
X152019000Y-65161200D03*
X141859000Y-65161200D03*
X141859000Y-63891200D03*
X141859000Y-62621200D03*
X141859000Y-61351200D03*
X141859000Y-60081200D03*
X141859000Y-58811200D03*
X141859000Y-57541200D03*
X141859000Y-56271200D03*
X126619000Y-132471000D03*
X126619000Y-133741000D03*
X126619000Y-135011000D03*
X126619000Y-136281000D03*
X126619000Y-137551000D03*
X126619000Y-138821000D03*
X126619000Y-140091000D03*
X126619000Y-141361000D03*
X116459000Y-141361000D03*
X116459000Y-140091000D03*
X116459000Y-138821000D03*
X116459000Y-137551000D03*
X116459000Y-136281000D03*
X116459000Y-135011000D03*
X116459000Y-133741000D03*
X116459000Y-132471000D03*
X126619000Y-119771000D03*
X126619000Y-121041000D03*
X126619000Y-122311000D03*
X126619000Y-123581000D03*
X126619000Y-124851000D03*
X126619000Y-126121000D03*
X126619000Y-127391000D03*
X126619000Y-128661000D03*
X116459000Y-128661000D03*
X116459000Y-127391000D03*
X116459000Y-126121000D03*
X116459000Y-124851000D03*
X116459000Y-123581000D03*
X116459000Y-122311000D03*
X116459000Y-121041000D03*
X116459000Y-119771000D03*
X126619000Y-107071000D03*
X126619000Y-108341000D03*
X126619000Y-109611000D03*
X126619000Y-110881000D03*
X126619000Y-112151000D03*
X126619000Y-113421000D03*
X126619000Y-114691000D03*
X126619000Y-115961000D03*
X116459000Y-115961000D03*
X116459000Y-114691000D03*
X116459000Y-113421000D03*
X116459000Y-112151000D03*
X116459000Y-110881000D03*
X116459000Y-109611000D03*
X116459000Y-108341000D03*
X116459000Y-107071000D03*
X126619000Y-94371200D03*
X126619000Y-95641200D03*
X126619000Y-96911200D03*
X126619000Y-98181200D03*
X126619000Y-99451200D03*
X126619000Y-100721200D03*
X126619000Y-101991200D03*
X126619000Y-103261200D03*
X116459000Y-103261200D03*
X116459000Y-101991200D03*
X116459000Y-100721200D03*
X116459000Y-99451200D03*
X116459000Y-98181200D03*
X116459000Y-96911200D03*
X116459000Y-95641200D03*
X116459000Y-94371200D03*
X126619000Y-81671200D03*
X126619000Y-82941200D03*
X126619000Y-84211200D03*
X126619000Y-85481200D03*
X126619000Y-86751200D03*
X126619000Y-88021200D03*
X126619000Y-89291200D03*
X126619000Y-90561200D03*
X116459000Y-90561200D03*
X116459000Y-89291200D03*
X116459000Y-88021200D03*
X116459000Y-86751200D03*
X116459000Y-85481200D03*
X116459000Y-84211200D03*
X116459000Y-82941200D03*
X116459000Y-81671200D03*
X126619000Y-68971200D03*
X126619000Y-70241200D03*
X126619000Y-71511200D03*
X126619000Y-72781200D03*
X126619000Y-74051200D03*
X126619000Y-75321200D03*
X126619000Y-76591200D03*
X126619000Y-77861200D03*
X116459000Y-77861200D03*
X116459000Y-76591200D03*
X116459000Y-75321200D03*
X116459000Y-74051200D03*
X116459000Y-72781200D03*
X116459000Y-71511200D03*
X116459000Y-70241200D03*
X116459000Y-68971200D03*
X131699000Y-56271200D03*
X131699000Y-57541200D03*
X131699000Y-58811200D03*
X131699000Y-60081200D03*
X131699000Y-61351200D03*
X131699000Y-62621200D03*
X131699000Y-63891200D03*
X131699000Y-65161200D03*
X121539000Y-65161200D03*
X121539000Y-63891200D03*
X121539000Y-62621200D03*
X121539000Y-61351200D03*
X121539000Y-60081200D03*
X121539000Y-58811200D03*
X121539000Y-57541200D03*
X121539000Y-56271200D03*
D12*
X122809000Y-147965000D03*
X122809000Y-144917000D03*
X122809000Y-154315000D03*
X122809000Y-151267000D03*
X144399000Y-149997000D03*
X144399000Y-153045000D03*
M02*
