M48
;DRILL file {KiCad no-vcs-found-product} date Thu 23 Jul 2015 11:14:17 AM EDT
;FORMAT={-:-/ absolute / inch / decimal}
FMAT,2
INCH,TZ
T1C0.025
T2C0.045
T3C0.063
T4C0.106
T5C0.112
T6C0.124
%
G90
G05
M72
T1
X4.3431Y-5.0878
X4.3507Y-5.2252
X4.3562Y-4.666
X4.3741Y-3.3828
X4.3764Y-3.8981
X4.3951Y-4.8745
X4.3962Y-2.8758
X4.4204Y-4.3894
X4.5967Y-2.3752
X4.633Y-5.5988
X4.6434Y-5.2591
X4.6447Y-5.0566
X4.6469Y-2.9155
X4.6469Y-3.2616
X4.691Y-2.9652
X4.6922Y-3.2615
X4.7066Y-4.0247
X4.7078Y-4.1991
X4.753Y-4.7661
X4.7626Y-2.8388
X4.7858Y-3.2257
X4.7873Y-4.2337
X4.8132Y-3.8471
X4.8302Y-5.2666
X4.8302Y-5.4633
X4.8702Y-2.4813
X4.9006Y-3.8171
X5.0428Y-4.4285
X5.0629Y-3.3874
X5.0826Y-2.5727
X5.0941Y-2.9164
X5.1152Y-2.2316
X5.1152Y-2.312
X5.1449Y-4.1256
X5.1718Y-4.8245
X5.252Y-3.5499
X5.2626Y-3.4739
X5.284Y-2.387
X5.3192Y-3.9733
X5.3278Y-2.6318
X5.4196Y-5.2474
X5.4769Y-2.7097
X5.4781Y-4.6211
X5.4931Y-5.2181
X5.5145Y-3.6885
X5.519Y-2.4645
X5.5417Y-4.2404
X5.5441Y-3.8524
X5.5458Y-4.7627
X5.558Y-3.6386
X5.5847Y-2.9044
X5.5867Y-4.9035
X5.5889Y-4.6404
X5.6325Y-4.363
X5.7175Y-4.5145
X5.7196Y-3.0395
X5.7196Y-3.5606
X5.7213Y-5.4637
X5.7269Y-5.0111
X5.843Y-5.0365
X5.8432Y-4.5778
X5.8435Y-2.9612
X5.8445Y-3.4642
X5.8473Y-4.4654
X5.8907Y-3.1503
X5.8991Y-5.2485
X5.9262Y-2.5502
X6.127Y-4.4108
X6.3595Y-3.4729
X6.3595Y-3.9725
X6.3626Y-5.0566
X6.3832Y-3.374
X6.4064Y-5.1318
T2
X5.035Y-5.7154
X5.135Y-5.7154
X5.235Y-5.7154
X5.335Y-5.7154
X5.535Y-5.7154
X5.635Y-5.7154
X5.735Y-5.7154
T3
X5.385Y-6.2974
T4
X5.208Y-6.2184
X5.385Y-6.1794
X5.562Y-6.2184
T5
X4.385Y-2.2654
X4.385Y-6.2654
X6.385Y-2.2654
X6.385Y-6.2654
T6
X5.385Y-5.9434
T0
M30
