  0
SECTION
  2
HEADER
  9
$ANGBASE
  50
0.0
  9
$ANGDIR
  70
  1
  9
$MEASUREMENT
  70
0
  0
ENDSEC
  0
SECTION
  2
TABLES
  0
TABLE
  2
LTYPE
  70
1
  0
LTYPE
  2
CONTINUOUS
  70
0
  3
Solid line
  72
65
  73
0
  40
0.0
  0
ENDTAB
  0
TABLE
  2
STYLE
  70
4
  0
STYLE
  2
KICAD
  70
0
  40
0
  41
1
  42
1
  50
0
  71
0
  3
isocp.shx
  0
STYLE
  2
KICADB
  70
0
  40
0
  41
1
  42
1
  50
0
  71
0
  3
isocp.shx
  0
STYLE
  2
KICADI
  70
0
  40
0
  41
1
  42
1
  50
15
  71
0
  3
isocp.shx
  0
STYLE
  2
KICADBI
  70
0
  40
0
  41
1
  42
1
  50
15
  71
0
  3
isocp.shx
  0
ENDTAB
  0
TABLE
  2
LAYER
  70
30
  0
LAYER
  2
BLACK
  70
0
  62
7
  6
CONTINUOUS
  0
LAYER
  2
GRAY1
  70
0
  62
251
  6
CONTINUOUS
  0
LAYER
  2
GRAY2
  70
0
  62
8
  6
CONTINUOUS
  0
LAYER
  2
GRAY3
  70
0
  62
9
  6
CONTINUOUS
  0
LAYER
  2
WHITE
  70
0
  62
7
  6
CONTINUOUS
  0
LAYER
  2
LYELLOW
  70
0
  62
51
  6
CONTINUOUS
  0
LAYER
  2
BLUE1
  70
0
  62
178
  6
CONTINUOUS
  0
LAYER
  2
GREEN1
  70
0
  62
98
  6
CONTINUOUS
  0
LAYER
  2
CYAN1
  70
0
  62
138
  6
CONTINUOUS
  0
LAYER
  2
RED1
  70
0
  62
18
  6
CONTINUOUS
  0
LAYER
  2
MAGENTA1
  70
0
  62
228
  6
CONTINUOUS
  0
LAYER
  2
BROWN1
  70
0
  62
58
  6
CONTINUOUS
  0
LAYER
  2
BLUE2
  70
0
  62
5
  6
CONTINUOUS
  0
LAYER
  2
GREEN2
  70
0
  62
3
  6
CONTINUOUS
  0
LAYER
  2
CYAN2
  70
0
  62
4
  6
CONTINUOUS
  0
LAYER
  2
RED2
  70
0
  62
1
  6
CONTINUOUS
  0
LAYER
  2
MAGENTA2
  70
0
  62
6
  6
CONTINUOUS
  0
LAYER
  2
BROWN2
  70
0
  62
54
  6
CONTINUOUS
  0
LAYER
  2
BLUE3
  70
0
  62
171
  6
CONTINUOUS
  0
LAYER
  2
GREEN3
  70
0
  62
91
  6
CONTINUOUS
  0
LAYER
  2
CYAN3
  70
0
  62
131
  6
CONTINUOUS
  0
LAYER
  2
RED3
  70
0
  62
11
  6
CONTINUOUS
  0
LAYER
  2
MAGENTA3
  70
0
  62
221
  6
CONTINUOUS
  0
LAYER
  2
YELLOW3
  70
0
  62
2
  6
CONTINUOUS
  0
LAYER
  2
BLUE4
  70
0
  62
5
  6
CONTINUOUS
  0
LAYER
  2
GREEN4
  70
0
  62
3
  6
CONTINUOUS
  0
LAYER
  2
CYAN4
  70
0
  62
4
  6
CONTINUOUS
  0
LAYER
  2
RED4
  70
0
  62
1
  6
CONTINUOUS
  0
LAYER
  2
MAGENTA4
  70
0
  62
6
  6
CONTINUOUS
  0
LAYER
  2
YELLOW4
  70
0
  62
2
  6
CONTINUOUS
  0
ENDTAB
  0
ENDSEC
  0
SECTION
  2
ENTITIES
0
LINE
8
Black
10
31.2007
20
-48.206
11
26.3049
21
-48.206
0
LINE
8
Black
10
26.3049
20
-48.206
11
26.3049
21
-46.79
0
LINE
8
Black
10
26.3049
20
-46.79
11
31.2007
21
-46.79
0
LINE
8
Black
10
31.2007
20
-46.79
11
31.2007
21
-48.206
0
LINE
8
Black
10
31.2007
20
-50.746
11
26.3049
21
-50.746
0
LINE
8
Black
10
26.3049
20
-50.746
11
26.3049
21
-49.33
0
LINE
8
Black
10
26.3049
20
-49.33
11
31.2007
21
-49.33
0
LINE
8
Black
10
31.2007
20
-49.33
11
31.2007
21
-50.746
0
LINE
8
Black
10
31.2007
20
-53.286
11
26.3049
21
-53.286
0
LINE
8
Black
10
26.3049
20
-53.286
11
26.3049
21
-51.87
0
LINE
8
Black
10
26.3049
20
-51.87
11
31.2007
21
-51.87
0
LINE
8
Black
10
31.2007
20
-51.87
11
31.2007
21
-53.286
0
LINE
8
Black
10
31.2007
20
-55.826
11
26.3049
21
-55.826
0
LINE
8
Black
10
26.3049
20
-55.826
11
26.3049
21
-54.41
0
LINE
8
Black
10
26.3049
20
-54.41
11
31.2007
21
-54.41
0
LINE
8
Black
10
31.2007
20
-54.41
11
31.2007
21
-55.826
0
LINE
8
Black
10
31.2007
20
-58.366
11
26.3049
21
-58.366
0
LINE
8
Black
10
26.3049
20
-58.366
11
26.3049
21
-56.95
0
LINE
8
Black
10
26.3049
20
-56.95
11
31.2007
21
-56.95
0
LINE
8
Black
10
31.2007
20
-56.95
11
31.2007
21
-58.366
0
LINE
8
Black
10
31.2007
20
-60.906
11
26.3049
21
-60.906
0
LINE
8
Black
10
26.3049
20
-60.906
11
26.3049
21
-59.49
0
LINE
8
Black
10
26.3049
20
-59.49
11
31.2007
21
-59.49
0
LINE
8
Black
10
31.2007
20
-59.49
11
31.2007
21
-60.906
0
LINE
8
Black
10
31.2007
20
-63.446
11
26.3049
21
-63.446
0
LINE
8
Black
10
26.3049
20
-63.446
11
26.3049
21
-62.03
0
LINE
8
Black
10
26.3049
20
-62.03
11
31.2007
21
-62.03
0
LINE
8
Black
10
31.2007
20
-62.03
11
31.2007
21
-63.446
0
LINE
8
Black
10
37.1951
20
-48.206
11
32.2993
21
-48.206
0
LINE
8
Black
10
32.2993
20
-48.206
11
32.2993
21
-46.79
0
LINE
8
Black
10
32.2993
20
-46.79
11
37.1951
21
-46.79
0
LINE
8
Black
10
37.1951
20
-46.79
11
37.1951
21
-48.206
0
LINE
8
Black
10
37.1951
20
-50.746
11
32.2993
21
-50.746
0
LINE
8
Black
10
32.2993
20
-50.746
11
32.2993
21
-49.33
0
LINE
8
Black
10
32.2993
20
-49.33
11
37.1951
21
-49.33
0
LINE
8
Black
10
37.1951
20
-49.33
11
37.1951
21
-50.746
0
LINE
8
Black
10
37.1951
20
-53.286
11
32.2993
21
-53.286
0
LINE
8
Black
10
32.2993
20
-53.286
11
32.2993
21
-51.87
0
LINE
8
Black
10
32.2993
20
-51.87
11
37.1951
21
-51.87
0
LINE
8
Black
10
37.1951
20
-51.87
11
37.1951
21
-53.286
0
LINE
8
Black
10
37.1951
20
-55.826
11
32.2993
21
-55.826
0
LINE
8
Black
10
32.2993
20
-55.826
11
32.2993
21
-54.41
0
LINE
8
Black
10
32.2993
20
-54.41
11
37.1951
21
-54.41
0
LINE
8
Black
10
37.1951
20
-54.41
11
37.1951
21
-55.826
0
LINE
8
Black
10
37.1951
20
-58.366
11
32.2993
21
-58.366
0
LINE
8
Black
10
32.2993
20
-58.366
11
32.2993
21
-56.95
0
LINE
8
Black
10
32.2993
20
-56.95
11
37.1951
21
-56.95
0
LINE
8
Black
10
37.1951
20
-56.95
11
37.1951
21
-58.366
0
LINE
8
Black
10
37.1951
20
-60.906
11
32.2993
21
-60.906
0
LINE
8
Black
10
32.2993
20
-60.906
11
32.2993
21
-59.49
0
LINE
8
Black
10
32.2993
20
-59.49
11
37.1951
21
-59.49
0
LINE
8
Black
10
37.1951
20
-59.49
11
37.1951
21
-60.906
0
LINE
8
Black
10
37.1951
20
-63.446
11
32.2993
21
-63.446
0
LINE
8
Black
10
32.2993
20
-63.446
11
32.2993
21
-62.03
0
LINE
8
Black
10
32.2993
20
-62.03
11
37.1951
21
-62.03
0
LINE
8
Black
10
37.1951
20
-62.03
11
37.1951
21
-63.446
0
LINE
8
Black
10
36.8579
20
-34.6304
11
37.318
21
-34.8961
0
LINE
8
Black
10
37.318
20
-34.8961
11
37.6596
21
-35.3031
0
LINE
8
Black
10
37.6596
20
-35.3031
11
37.8413
21
-35.8023
0
LINE
8
Black
10
37.8413
20
-35.8023
11
37.8413
21
-36.3337
0
LINE
8
Black
10
37.8413
20
-36.3337
11
37.6596
21
-36.8329
0
LINE
8
Black
10
37.6596
20
-36.8329
11
37.318
21
-37.2399
0
LINE
8
Black
10
37.318
20
-37.2399
11
36.8579
21
-37.5056
0
LINE
8
Black
10
36.8579
20
-37.5056
11
36.3347
21
-37.5978
0
LINE
8
Black
10
36.3347
20
-37.5978
11
35.8115
21
-37.5056
0
LINE
8
Black
10
35.8115
20
-37.5056
11
35.3513
21
-37.2399
0
LINE
8
Black
10
35.3513
20
-37.2399
11
35.0098
21
-36.8329
0
LINE
8
Black
10
35.0098
20
-36.8329
11
34.8281
21
-36.3337
0
LINE
8
Black
10
34.8281
20
-36.3337
11
34.8281
21
-35.8023
0
LINE
8
Black
10
34.8281
20
-35.8023
11
35.0098
21
-35.3031
0
LINE
8
Black
10
35.0098
20
-35.3031
11
35.3513
21
-34.8961
0
LINE
8
Black
10
35.3513
20
-34.8961
11
35.8115
21
-34.6304
0
LINE
8
Black
10
35.8115
20
-34.6304
11
36.3347
21
-34.5382
0
LINE
8
Black
10
36.3347
20
-34.5382
11
36.8579
21
-34.6304
0
LINE
8
Black
10
36.8579
20
-72.7304
11
37.318
21
-72.9961
0
LINE
8
Black
10
37.318
20
-72.9961
11
37.6596
21
-73.4031
0
LINE
8
Black
10
37.6596
20
-73.4031
11
37.8413
21
-73.9023
0
LINE
8
Black
10
37.8413
20
-73.9023
11
37.8413
21
-74.4337
0
LINE
8
Black
10
37.8413
20
-74.4337
11
37.6596
21
-74.9329
0
LINE
8
Black
10
37.6596
20
-74.9329
11
37.318
21
-75.3399
0
LINE
8
Black
10
37.318
20
-75.3399
11
36.8579
21
-75.6056
0
LINE
8
Black
10
36.8579
20
-75.6056
11
36.3347
21
-75.6978
0
LINE
8
Black
10
36.3347
20
-75.6978
11
35.8115
21
-75.6056
0
LINE
8
Black
10
35.8115
20
-75.6056
11
35.3513
21
-75.3399
0
LINE
8
Black
10
35.3513
20
-75.3399
11
35.0098
21
-74.9329
0
LINE
8
Black
10
35.0098
20
-74.9329
11
34.8281
21
-74.4337
0
LINE
8
Black
10
34.8281
20
-74.4337
11
34.8281
21
-73.9023
0
LINE
8
Black
10
34.8281
20
-73.9023
11
35.0098
21
-73.4031
0
LINE
8
Black
10
35.0098
20
-73.4031
11
35.3513
21
-72.9961
0
LINE
8
Black
10
35.3513
20
-72.9961
11
35.8115
21
-72.7304
0
LINE
8
Black
10
35.8115
20
-72.7304
11
36.3347
21
-72.6382
0
LINE
8
Black
10
36.3347
20
-72.6382
11
36.8579
21
-72.7304
0
LINE
8
Black
10
38.5635
20
-82.1487
11
37.8421
21
-82.1487
0
LINE
8
Black
10
37.8421
20
-82.1487
11
37.8421
21
-81.4273
0
LINE
8
Black
10
37.8421
20
-81.4273
11
38.5635
21
-81.4273
0
LINE
8
Black
10
38.5635
20
-81.4273
11
38.5635
21
-82.1487
0
LINE
8
Black
10
39.4627
20
-82.1487
11
38.7413
21
-82.1487
0
LINE
8
Black
10
38.7413
20
-82.1487
11
38.7413
21
-81.4273
0
LINE
8
Black
10
38.7413
20
-81.4273
11
39.4627
21
-81.4273
0
LINE
8
Black
10
39.4627
20
-81.4273
11
39.4627
21
-82.1487
0
LINE
8
Black
10
40.9181
20
-31.5341
11
40.1967
21
-31.5341
0
LINE
8
Black
10
40.1967
20
-31.5341
11
40.1967
21
-30.8127
0
LINE
8
Black
10
40.1967
20
-30.8127
11
40.9181
21
-30.8127
0
LINE
8
Black
10
40.9181
20
-30.8127
11
40.9181
21
-31.5341
0
LINE
8
Black
10
40.9181
20
-32.4333
11
40.1967
21
-32.4333
0
LINE
8
Black
10
40.1967
20
-32.4333
11
40.1967
21
-31.7119
0
LINE
8
Black
10
40.1967
20
-31.7119
11
40.9181
21
-31.7119
0
LINE
8
Black
10
40.9181
20
-31.7119
11
40.9181
21
-32.4333
0
LINE
8
Black
10
40.9181
20
-39.1541
11
40.1967
21
-39.1541
0
LINE
8
Black
10
40.1967
20
-39.1541
11
40.1967
21
-38.4327
0
LINE
8
Black
10
40.1967
20
-38.4327
11
40.9181
21
-38.4327
0
LINE
8
Black
10
40.9181
20
-38.4327
11
40.9181
21
-39.1541
0
LINE
8
Black
10
40.9181
20
-40.0533
11
40.1967
21
-40.0533
0
LINE
8
Black
10
40.1967
20
-40.0533
11
40.1967
21
-39.3319
0
LINE
8
Black
10
40.1967
20
-39.3319
11
40.9181
21
-39.3319
0
LINE
8
Black
10
40.9181
20
-39.3319
11
40.9181
21
-40.0533
0
LINE
8
Black
10
40.9181
20
-46.7741
11
40.1967
21
-46.7741
0
LINE
8
Black
10
40.1967
20
-46.7741
11
40.1967
21
-46.0527
0
LINE
8
Black
10
40.1967
20
-46.0527
11
40.9181
21
-46.0527
0
LINE
8
Black
10
40.9181
20
-46.0527
11
40.9181
21
-46.7741
0
LINE
8
Black
10
40.9181
20
-47.6733
11
40.1967
21
-47.6733
0
LINE
8
Black
10
40.1967
20
-47.6733
11
40.1967
21
-46.9519
0
LINE
8
Black
10
40.1967
20
-46.9519
11
40.9181
21
-46.9519
0
LINE
8
Black
10
40.9181
20
-46.9519
11
40.9181
21
-47.6733
0
LINE
8
Black
10
40.9181
20
-54.3941
11
40.1967
21
-54.3941
0
LINE
8
Black
10
40.1967
20
-54.3941
11
40.1967
21
-53.6727
0
LINE
8
Black
10
40.1967
20
-53.6727
11
40.9181
21
-53.6727
0
LINE
8
Black
10
40.9181
20
-53.6727
11
40.9181
21
-54.3941
0
LINE
8
Black
10
40.9181
20
-55.2933
11
40.1967
21
-55.2933
0
LINE
8
Black
10
40.1967
20
-55.2933
11
40.1967
21
-54.5719
0
LINE
8
Black
10
40.1967
20
-54.5719
11
40.9181
21
-54.5719
0
LINE
8
Black
10
40.9181
20
-54.5719
11
40.9181
21
-55.2933
0
LINE
8
Black
10
40.9181
20
-62.0141
11
40.1967
21
-62.0141
0
LINE
8
Black
10
40.1967
20
-62.0141
11
40.1967
21
-61.2927
0
LINE
8
Black
10
40.1967
20
-61.2927
11
40.9181
21
-61.2927
0
LINE
8
Black
10
40.9181
20
-61.2927
11
40.9181
21
-62.0141
0
LINE
8
Black
10
40.9181
20
-62.9133
11
40.1967
21
-62.9133
0
LINE
8
Black
10
40.1967
20
-62.9133
11
40.1967
21
-62.1919
0
LINE
8
Black
10
40.1967
20
-62.1919
11
40.9181
21
-62.1919
0
LINE
8
Black
10
40.9181
20
-62.1919
11
40.9181
21
-62.9133
0
LINE
8
Black
10
40.9181
20
-69.6341
11
40.1967
21
-69.6341
0
LINE
8
Black
10
40.1967
20
-69.6341
11
40.1967
21
-68.9127
0
LINE
8
Black
10
40.1967
20
-68.9127
11
40.9181
21
-68.9127
0
LINE
8
Black
10
40.9181
20
-68.9127
11
40.9181
21
-69.6341
0
LINE
8
Black
10
40.9181
20
-70.5333
11
40.1967
21
-70.5333
0
LINE
8
Black
10
40.1967
20
-70.5333
11
40.1967
21
-69.8119
0
LINE
8
Black
10
40.1967
20
-69.8119
11
40.9181
21
-69.8119
0
LINE
8
Black
10
40.9181
20
-69.8119
11
40.9181
21
-70.5333
0
LINE
8
Black
10
40.9181
20
-77.2541
11
40.1967
21
-77.2541
0
LINE
8
Black
10
40.1967
20
-77.2541
11
40.1967
21
-76.5327
0
LINE
8
Black
10
40.1967
20
-76.5327
11
40.9181
21
-76.5327
0
LINE
8
Black
10
40.9181
20
-76.5327
11
40.9181
21
-77.2541
0
LINE
8
Black
10
40.9181
20
-78.1533
11
40.1967
21
-78.1533
0
LINE
8
Black
10
40.1967
20
-78.1533
11
40.1967
21
-77.4319
0
LINE
8
Black
10
40.1967
20
-77.4319
11
40.9181
21
-77.4319
0
LINE
8
Black
10
40.9181
20
-77.4319
11
40.9181
21
-78.1533
0
LINE
8
Black
10
41.2051
20
-28.0416
11
39.9097
21
-28.0416
0
LINE
8
Black
10
39.9097
20
-28.0416
11
39.9097
21
-26.7462
0
LINE
8
Black
10
39.9097
20
-26.7462
11
41.2051
21
-26.7462
0
LINE
8
Black
10
41.2051
20
-26.7462
11
41.2051
21
-28.0416
0
LINE
8
Black
10
41.2051
20
-30.1498
11
39.9097
21
-30.1498
0
LINE
8
Black
10
39.9097
20
-30.1498
11
39.9097
21
-28.8544
0
LINE
8
Black
10
39.9097
20
-28.8544
11
41.2051
21
-28.8544
0
LINE
8
Black
10
41.2051
20
-28.8544
11
41.2051
21
-30.1498
0
LINE
8
Black
10
41.2051
20
-35.6616
11
39.9097
21
-35.6616
0
LINE
8
Black
10
39.9097
20
-35.6616
11
39.9097
21
-34.3662
0
LINE
8
Black
10
39.9097
20
-34.3662
11
41.2051
21
-34.3662
0
LINE
8
Black
10
41.2051
20
-34.3662
11
41.2051
21
-35.6616
0
LINE
8
Black
10
41.2051
20
-37.7698
11
39.9097
21
-37.7698
0
LINE
8
Black
10
39.9097
20
-37.7698
11
39.9097
21
-36.4744
0
LINE
8
Black
10
39.9097
20
-36.4744
11
41.2051
21
-36.4744
0
LINE
8
Black
10
41.2051
20
-36.4744
11
41.2051
21
-37.7698
0
LINE
8
Black
10
41.2051
20
-43.2816
11
39.9097
21
-43.2816
0
LINE
8
Black
10
39.9097
20
-43.2816
11
39.9097
21
-41.9862
0
LINE
8
Black
10
39.9097
20
-41.9862
11
41.2051
21
-41.9862
0
LINE
8
Black
10
41.2051
20
-41.9862
11
41.2051
21
-43.2816
0
LINE
8
Black
10
41.2051
20
-45.3898
11
39.9097
21
-45.3898
0
LINE
8
Black
10
39.9097
20
-45.3898
11
39.9097
21
-44.0944
0
LINE
8
Black
10
39.9097
20
-44.0944
11
41.2051
21
-44.0944
0
LINE
8
Black
10
41.2051
20
-44.0944
11
41.2051
21
-45.3898
0
LINE
8
Black
10
41.2051
20
-50.9016
11
39.9097
21
-50.9016
0
LINE
8
Black
10
39.9097
20
-50.9016
11
39.9097
21
-49.6062
0
LINE
8
Black
10
39.9097
20
-49.6062
11
41.2051
21
-49.6062
0
LINE
8
Black
10
41.2051
20
-49.6062
11
41.2051
21
-50.9016
0
LINE
8
Black
10
41.2051
20
-53.0098
11
39.9097
21
-53.0098
0
LINE
8
Black
10
39.9097
20
-53.0098
11
39.9097
21
-51.7144
0
LINE
8
Black
10
39.9097
20
-51.7144
11
41.2051
21
-51.7144
0
LINE
8
Black
10
41.2051
20
-51.7144
11
41.2051
21
-53.0098
0
LINE
8
Black
10
41.2051
20
-58.5216
11
39.9097
21
-58.5216
0
LINE
8
Black
10
39.9097
20
-58.5216
11
39.9097
21
-57.2262
0
LINE
8
Black
10
39.9097
20
-57.2262
11
41.2051
21
-57.2262
0
LINE
8
Black
10
41.2051
20
-57.2262
11
41.2051
21
-58.5216
0
LINE
8
Black
10
41.2051
20
-60.6298
11
39.9097
21
-60.6298
0
LINE
8
Black
10
39.9097
20
-60.6298
11
39.9097
21
-59.3344
0
LINE
8
Black
10
39.9097
20
-59.3344
11
41.2051
21
-59.3344
0
LINE
8
Black
10
41.2051
20
-59.3344
11
41.2051
21
-60.6298
0
LINE
8
Black
10
41.2051
20
-66.1416
11
39.9097
21
-66.1416
0
LINE
8
Black
10
39.9097
20
-66.1416
11
39.9097
21
-64.8462
0
LINE
8
Black
10
39.9097
20
-64.8462
11
41.2051
21
-64.8462
0
LINE
8
Black
10
41.2051
20
-64.8462
11
41.2051
21
-66.1416
0
LINE
8
Black
10
41.2051
20
-68.2498
11
39.9097
21
-68.2498
0
LINE
8
Black
10
39.9097
20
-68.2498
11
39.9097
21
-66.9544
0
LINE
8
Black
10
39.9097
20
-66.9544
11
41.2051
21
-66.9544
0
LINE
8
Black
10
41.2051
20
-66.9544
11
41.2051
21
-68.2498
0
LINE
8
Black
10
41.2051
20
-73.7616
11
39.9097
21
-73.7616
0
LINE
8
Black
10
39.9097
20
-73.7616
11
39.9097
21
-72.4662
0
LINE
8
Black
10
39.9097
20
-72.4662
11
41.2051
21
-72.4662
0
LINE
8
Black
10
41.2051
20
-72.4662
11
41.2051
21
-73.7616
0
LINE
8
Black
10
41.2051
20
-75.8698
11
39.9097
21
-75.8698
0
LINE
8
Black
10
39.9097
20
-75.8698
11
39.9097
21
-74.5744
0
LINE
8
Black
10
39.9097
20
-74.5744
11
41.2051
21
-74.5744
0
LINE
8
Black
10
41.2051
20
-74.5744
11
41.2051
21
-75.8698
0
LINE
8
Black
10
41.2051
20
-81.3816
11
39.9097
21
-81.3816
0
LINE
8
Black
10
39.9097
20
-81.3816
11
39.9097
21
-80.0862
0
LINE
8
Black
10
39.9097
20
-80.0862
11
41.2051
21
-80.0862
0
LINE
8
Black
10
41.2051
20
-80.0862
11
41.2051
21
-81.3816
0
LINE
8
Black
10
41.2051
20
-83.4898
11
39.9097
21
-83.4898
0
LINE
8
Black
10
39.9097
20
-83.4898
11
39.9097
21
-82.1944
0
LINE
8
Black
10
39.9097
20
-82.1944
11
41.2051
21
-82.1944
0
LINE
8
Black
10
41.2051
20
-82.1944
11
41.2051
21
-83.4898
0
LINE
8
Black
10
48.0055
20
-26.028
11
48.3736
21
-26.2405
0
LINE
8
Black
10
48.3736
20
-26.2405
11
48.6468
21
-26.5661
0
LINE
8
Black
10
48.6468
20
-26.5661
11
48.7922
21
-26.9655
0
LINE
8
Black
10
48.7922
20
-26.9655
11
48.7922
21
-27.3905
0
LINE
8
Black
10
48.7922
20
-27.3905
11
48.6468
21
-27.7899
0
LINE
8
Black
10
48.6468
20
-27.7899
11
48.3736
21
-28.1155
0
LINE
8
Black
10
48.3736
20
-28.1155
11
48.0055
21
-28.328
0
LINE
8
Black
10
48.0055
20
-28.328
11
47.5869
21
-28.4019
0
LINE
8
Black
10
47.5869
20
-28.4019
11
47.1683
21
-28.328
0
LINE
8
Black
10
47.1683
20
-28.328
11
46.8002
21
-28.1155
0
LINE
8
Black
10
46.8002
20
-28.1155
11
46.527
21
-27.7899
0
LINE
8
Black
10
46.527
20
-27.7899
11
46.3816
21
-27.3905
0
LINE
8
Black
10
46.3816
20
-27.3905
11
46.3816
21
-26.9655
0
LINE
8
Black
10
46.3816
20
-26.9655
11
46.527
21
-26.5661
0
LINE
8
Black
10
46.527
20
-26.5661
11
46.8002
21
-26.2405
0
LINE
8
Black
10
46.8002
20
-26.2405
11
47.1683
21
-26.028
0
LINE
8
Black
10
47.1683
20
-26.028
11
47.5869
21
-25.9541
0
LINE
8
Black
10
47.5869
20
-25.9541
11
48.0055
21
-26.028
0
LINE
8
Black
10
48.0055
20
-28.568
11
48.3736
21
-28.7805
0
LINE
8
Black
10
48.3736
20
-28.7805
11
48.6468
21
-29.1061
0
LINE
8
Black
10
48.6468
20
-29.1061
11
48.7922
21
-29.5055
0
LINE
8
Black
10
48.7922
20
-29.5055
11
48.7922
21
-29.9305
0
LINE
8
Black
10
48.7922
20
-29.9305
11
48.6468
21
-30.3299
0
LINE
8
Black
10
48.6468
20
-30.3299
11
48.3736
21
-30.6555
0
LINE
8
Black
10
48.3736
20
-30.6555
11
48.0055
21
-30.868
0
LINE
8
Black
10
48.0055
20
-30.868
11
47.5869
21
-30.9419
0
LINE
8
Black
10
47.5869
20
-30.9419
11
47.1683
21
-30.868
0
LINE
8
Black
10
47.1683
20
-30.868
11
46.8002
21
-30.6555
0
LINE
8
Black
10
46.8002
20
-30.6555
11
46.527
21
-30.3299
0
LINE
8
Black
10
46.527
20
-30.3299
11
46.3816
21
-29.9305
0
LINE
8
Black
10
46.3816
20
-29.9305
11
46.3816
21
-29.5055
0
LINE
8
Black
10
46.3816
20
-29.5055
11
46.527
21
-29.1061
0
LINE
8
Black
10
46.527
20
-29.1061
11
46.8002
21
-28.7805
0
LINE
8
Black
10
46.8002
20
-28.7805
11
47.1683
21
-28.568
0
LINE
8
Black
10
47.1683
20
-28.568
11
47.5869
21
-28.4941
0
LINE
8
Black
10
47.5869
20
-28.4941
11
48.0055
21
-28.568
0
LINE
8
Black
10
48.0055
20
-33.648
11
48.3736
21
-33.8605
0
LINE
8
Black
10
48.3736
20
-33.8605
11
48.6468
21
-34.1861
0
LINE
8
Black
10
48.6468
20
-34.1861
11
48.7922
21
-34.5855
0
LINE
8
Black
10
48.7922
20
-34.5855
11
48.7922
21
-35.0105
0
LINE
8
Black
10
48.7922
20
-35.0105
11
48.6468
21
-35.4099
0
LINE
8
Black
10
48.6468
20
-35.4099
11
48.3736
21
-35.7355
0
LINE
8
Black
10
48.3736
20
-35.7355
11
48.0055
21
-35.948
0
LINE
8
Black
10
48.0055
20
-35.948
11
47.5869
21
-36.0219
0
LINE
8
Black
10
47.5869
20
-36.0219
11
47.1683
21
-35.948
0
LINE
8
Black
10
47.1683
20
-35.948
11
46.8002
21
-35.7355
0
LINE
8
Black
10
46.8002
20
-35.7355
11
46.527
21
-35.4099
0
LINE
8
Black
10
46.527
20
-35.4099
11
46.3816
21
-35.0105
0
LINE
8
Black
10
46.3816
20
-35.0105
11
46.3816
21
-34.5855
0
LINE
8
Black
10
46.3816
20
-34.5855
11
46.527
21
-34.1861
0
LINE
8
Black
10
46.527
20
-34.1861
11
46.8002
21
-33.8605
0
LINE
8
Black
10
46.8002
20
-33.8605
11
47.1683
21
-33.648
0
LINE
8
Black
10
47.1683
20
-33.648
11
47.5869
21
-33.5741
0
LINE
8
Black
10
47.5869
20
-33.5741
11
48.0055
21
-33.648
0
LINE
8
Black
10
48.0055
20
-36.188
11
48.3736
21
-36.4005
0
LINE
8
Black
10
48.3736
20
-36.4005
11
48.6468
21
-36.7261
0
LINE
8
Black
10
48.6468
20
-36.7261
11
48.7922
21
-37.1255
0
LINE
8
Black
10
48.7922
20
-37.1255
11
48.7922
21
-37.5505
0
LINE
8
Black
10
48.7922
20
-37.5505
11
48.6468
21
-37.9499
0
LINE
8
Black
10
48.6468
20
-37.9499
11
48.3736
21
-38.2755
0
LINE
8
Black
10
48.3736
20
-38.2755
11
48.0055
21
-38.488
0
LINE
8
Black
10
48.0055
20
-38.488
11
47.5869
21
-38.5619
0
LINE
8
Black
10
47.5869
20
-38.5619
11
47.1683
21
-38.488
0
LINE
8
Black
10
47.1683
20
-38.488
11
46.8002
21
-38.2755
0
LINE
8
Black
10
46.8002
20
-38.2755
11
46.527
21
-37.9499
0
LINE
8
Black
10
46.527
20
-37.9499
11
46.3816
21
-37.5505
0
LINE
8
Black
10
46.3816
20
-37.5505
11
46.3816
21
-37.1255
0
LINE
8
Black
10
46.3816
20
-37.1255
11
46.527
21
-36.7261
0
LINE
8
Black
10
46.527
20
-36.7261
11
46.8002
21
-36.4005
0
LINE
8
Black
10
46.8002
20
-36.4005
11
47.1683
21
-36.188
0
LINE
8
Black
10
47.1683
20
-36.188
11
47.5869
21
-36.1141
0
LINE
8
Black
10
47.5869
20
-36.1141
11
48.0055
21
-36.188
0
LINE
8
Black
10
48.0055
20
-41.268
11
48.3736
21
-41.4805
0
LINE
8
Black
10
48.3736
20
-41.4805
11
48.6468
21
-41.8061
0
LINE
8
Black
10
48.6468
20
-41.8061
11
48.7922
21
-42.2055
0
LINE
8
Black
10
48.7922
20
-42.2055
11
48.7922
21
-42.6305
0
LINE
8
Black
10
48.7922
20
-42.6305
11
48.6468
21
-43.0299
0
LINE
8
Black
10
48.6468
20
-43.0299
11
48.3736
21
-43.3555
0
LINE
8
Black
10
48.3736
20
-43.3555
11
48.0055
21
-43.568
0
LINE
8
Black
10
48.0055
20
-43.568
11
47.5869
21
-43.6419
0
LINE
8
Black
10
47.5869
20
-43.6419
11
47.1683
21
-43.568
0
LINE
8
Black
10
47.1683
20
-43.568
11
46.8002
21
-43.3555
0
LINE
8
Black
10
46.8002
20
-43.3555
11
46.527
21
-43.0299
0
LINE
8
Black
10
46.527
20
-43.0299
11
46.3816
21
-42.6305
0
LINE
8
Black
10
46.3816
20
-42.6305
11
46.3816
21
-42.2055
0
LINE
8
Black
10
46.3816
20
-42.2055
11
46.527
21
-41.8061
0
LINE
8
Black
10
46.527
20
-41.8061
11
46.8002
21
-41.4805
0
LINE
8
Black
10
46.8002
20
-41.4805
11
47.1683
21
-41.268
0
LINE
8
Black
10
47.1683
20
-41.268
11
47.5869
21
-41.1941
0
LINE
8
Black
10
47.5869
20
-41.1941
11
48.0055
21
-41.268
0
LINE
8
Black
10
48.0055
20
-43.808
11
48.3736
21
-44.0205
0
LINE
8
Black
10
48.3736
20
-44.0205
11
48.6468
21
-44.3461
0
LINE
8
Black
10
48.6468
20
-44.3461
11
48.7922
21
-44.7455
0
LINE
8
Black
10
48.7922
20
-44.7455
11
48.7922
21
-45.1705
0
LINE
8
Black
10
48.7922
20
-45.1705
11
48.6468
21
-45.5699
0
LINE
8
Black
10
48.6468
20
-45.5699
11
48.3736
21
-45.8955
0
LINE
8
Black
10
48.3736
20
-45.8955
11
48.0055
21
-46.108
0
LINE
8
Black
10
48.0055
20
-46.108
11
47.5869
21
-46.1819
0
LINE
8
Black
10
47.5869
20
-46.1819
11
47.1683
21
-46.108
0
LINE
8
Black
10
47.1683
20
-46.108
11
46.8002
21
-45.8955
0
LINE
8
Black
10
46.8002
20
-45.8955
11
46.527
21
-45.5699
0
LINE
8
Black
10
46.527
20
-45.5699
11
46.3816
21
-45.1705
0
LINE
8
Black
10
46.3816
20
-45.1705
11
46.3816
21
-44.7455
0
LINE
8
Black
10
46.3816
20
-44.7455
11
46.527
21
-44.3461
0
LINE
8
Black
10
46.527
20
-44.3461
11
46.8002
21
-44.0205
0
LINE
8
Black
10
46.8002
20
-44.0205
11
47.1683
21
-43.808
0
LINE
8
Black
10
47.1683
20
-43.808
11
47.5869
21
-43.7341
0
LINE
8
Black
10
47.5869
20
-43.7341
11
48.0055
21
-43.808
0
LINE
8
Black
10
48.0055
20
-48.888
11
48.3736
21
-49.1005
0
LINE
8
Black
10
48.3736
20
-49.1005
11
48.6468
21
-49.4261
0
LINE
8
Black
10
48.6468
20
-49.4261
11
48.7922
21
-49.8255
0
LINE
8
Black
10
48.7922
20
-49.8255
11
48.7922
21
-50.2505
0
LINE
8
Black
10
48.7922
20
-50.2505
11
48.6468
21
-50.6499
0
LINE
8
Black
10
48.6468
20
-50.6499
11
48.3736
21
-50.9755
0
LINE
8
Black
10
48.3736
20
-50.9755
11
48.0055
21
-51.188
0
LINE
8
Black
10
48.0055
20
-51.188
11
47.5869
21
-51.2619
0
LINE
8
Black
10
47.5869
20
-51.2619
11
47.1683
21
-51.188
0
LINE
8
Black
10
47.1683
20
-51.188
11
46.8002
21
-50.9755
0
LINE
8
Black
10
46.8002
20
-50.9755
11
46.527
21
-50.6499
0
LINE
8
Black
10
46.527
20
-50.6499
11
46.3816
21
-50.2505
0
LINE
8
Black
10
46.3816
20
-50.2505
11
46.3816
21
-49.8255
0
LINE
8
Black
10
46.3816
20
-49.8255
11
46.527
21
-49.4261
0
LINE
8
Black
10
46.527
20
-49.4261
11
46.8002
21
-49.1005
0
LINE
8
Black
10
46.8002
20
-49.1005
11
47.1683
21
-48.888
0
LINE
8
Black
10
47.1683
20
-48.888
11
47.5869
21
-48.8141
0
LINE
8
Black
10
47.5869
20
-48.8141
11
48.0055
21
-48.888
0
LINE
8
Black
10
48.0055
20
-51.428
11
48.3736
21
-51.6405
0
LINE
8
Black
10
48.3736
20
-51.6405
11
48.6468
21
-51.9661
0
LINE
8
Black
10
48.6468
20
-51.9661
11
48.7922
21
-52.3655
0
LINE
8
Black
10
48.7922
20
-52.3655
11
48.7922
21
-52.7905
0
LINE
8
Black
10
48.7922
20
-52.7905
11
48.6468
21
-53.1899
0
LINE
8
Black
10
48.6468
20
-53.1899
11
48.3736
21
-53.5155
0
LINE
8
Black
10
48.3736
20
-53.5155
11
48.0055
21
-53.728
0
LINE
8
Black
10
48.0055
20
-53.728
11
47.5869
21
-53.8019
0
LINE
8
Black
10
47.5869
20
-53.8019
11
47.1683
21
-53.728
0
LINE
8
Black
10
47.1683
20
-53.728
11
46.8002
21
-53.5155
0
LINE
8
Black
10
46.8002
20
-53.5155
11
46.527
21
-53.1899
0
LINE
8
Black
10
46.527
20
-53.1899
11
46.3816
21
-52.7905
0
LINE
8
Black
10
46.3816
20
-52.7905
11
46.3816
21
-52.3655
0
LINE
8
Black
10
46.3816
20
-52.3655
11
46.527
21
-51.9661
0
LINE
8
Black
10
46.527
20
-51.9661
11
46.8002
21
-51.6405
0
LINE
8
Black
10
46.8002
20
-51.6405
11
47.1683
21
-51.428
0
LINE
8
Black
10
47.1683
20
-51.428
11
47.5869
21
-51.3541
0
LINE
8
Black
10
47.5869
20
-51.3541
11
48.0055
21
-51.428
0
LINE
8
Black
10
48.0055
20
-56.508
11
48.3736
21
-56.7205
0
LINE
8
Black
10
48.3736
20
-56.7205
11
48.6468
21
-57.0461
0
LINE
8
Black
10
48.6468
20
-57.0461
11
48.7922
21
-57.4455
0
LINE
8
Black
10
48.7922
20
-57.4455
11
48.7922
21
-57.8705
0
LINE
8
Black
10
48.7922
20
-57.8705
11
48.6468
21
-58.2699
0
LINE
8
Black
10
48.6468
20
-58.2699
11
48.3736
21
-58.5955
0
LINE
8
Black
10
48.3736
20
-58.5955
11
48.0055
21
-58.808
0
LINE
8
Black
10
48.0055
20
-58.808
11
47.5869
21
-58.8819
0
LINE
8
Black
10
47.5869
20
-58.8819
11
47.1683
21
-58.808
0
LINE
8
Black
10
47.1683
20
-58.808
11
46.8002
21
-58.5955
0
LINE
8
Black
10
46.8002
20
-58.5955
11
46.527
21
-58.2699
0
LINE
8
Black
10
46.527
20
-58.2699
11
46.3816
21
-57.8705
0
LINE
8
Black
10
46.3816
20
-57.8705
11
46.3816
21
-57.4455
0
LINE
8
Black
10
46.3816
20
-57.4455
11
46.527
21
-57.0461
0
LINE
8
Black
10
46.527
20
-57.0461
11
46.8002
21
-56.7205
0
LINE
8
Black
10
46.8002
20
-56.7205
11
47.1683
21
-56.508
0
LINE
8
Black
10
47.1683
20
-56.508
11
47.5869
21
-56.4341
0
LINE
8
Black
10
47.5869
20
-56.4341
11
48.0055
21
-56.508
0
LINE
8
Black
10
48.0055
20
-59.048
11
48.3736
21
-59.2605
0
LINE
8
Black
10
48.3736
20
-59.2605
11
48.6468
21
-59.5861
0
LINE
8
Black
10
48.6468
20
-59.5861
11
48.7922
21
-59.9855
0
LINE
8
Black
10
48.7922
20
-59.9855
11
48.7922
21
-60.4105
0
LINE
8
Black
10
48.7922
20
-60.4105
11
48.6468
21
-60.8099
0
LINE
8
Black
10
48.6468
20
-60.8099
11
48.3736
21
-61.1355
0
LINE
8
Black
10
48.3736
20
-61.1355
11
48.0055
21
-61.348
0
LINE
8
Black
10
48.0055
20
-61.348
11
47.5869
21
-61.4219
0
LINE
8
Black
10
47.5869
20
-61.4219
11
47.1683
21
-61.348
0
LINE
8
Black
10
47.1683
20
-61.348
11
46.8002
21
-61.1355
0
LINE
8
Black
10
46.8002
20
-61.1355
11
46.527
21
-60.8099
0
LINE
8
Black
10
46.527
20
-60.8099
11
46.3816
21
-60.4105
0
LINE
8
Black
10
46.3816
20
-60.4105
11
46.3816
21
-59.9855
0
LINE
8
Black
10
46.3816
20
-59.9855
11
46.527
21
-59.5861
0
LINE
8
Black
10
46.527
20
-59.5861
11
46.8002
21
-59.2605
0
LINE
8
Black
10
46.8002
20
-59.2605
11
47.1683
21
-59.048
0
LINE
8
Black
10
47.1683
20
-59.048
11
47.5869
21
-58.9741
0
LINE
8
Black
10
47.5869
20
-58.9741
11
48.0055
21
-59.048
0
LINE
8
Black
10
48.0055
20
-64.128
11
48.3736
21
-64.3405
0
LINE
8
Black
10
48.3736
20
-64.3405
11
48.6468
21
-64.6661
0
LINE
8
Black
10
48.6468
20
-64.6661
11
48.7922
21
-65.0655
0
LINE
8
Black
10
48.7922
20
-65.0655
11
48.7922
21
-65.4905
0
LINE
8
Black
10
48.7922
20
-65.4905
11
48.6468
21
-65.8899
0
LINE
8
Black
10
48.6468
20
-65.8899
11
48.3736
21
-66.2155
0
LINE
8
Black
10
48.3736
20
-66.2155
11
48.0055
21
-66.428
0
LINE
8
Black
10
48.0055
20
-66.428
11
47.5869
21
-66.5019
0
LINE
8
Black
10
47.5869
20
-66.5019
11
47.1683
21
-66.428
0
LINE
8
Black
10
47.1683
20
-66.428
11
46.8002
21
-66.2155
0
LINE
8
Black
10
46.8002
20
-66.2155
11
46.527
21
-65.8899
0
LINE
8
Black
10
46.527
20
-65.8899
11
46.3816
21
-65.4905
0
LINE
8
Black
10
46.3816
20
-65.4905
11
46.3816
21
-65.0655
0
LINE
8
Black
10
46.3816
20
-65.0655
11
46.527
21
-64.6661
0
LINE
8
Black
10
46.527
20
-64.6661
11
46.8002
21
-64.3405
0
LINE
8
Black
10
46.8002
20
-64.3405
11
47.1683
21
-64.128
0
LINE
8
Black
10
47.1683
20
-64.128
11
47.5869
21
-64.0541
0
LINE
8
Black
10
47.5869
20
-64.0541
11
48.0055
21
-64.128
0
LINE
8
Black
10
48.0055
20
-66.668
11
48.3736
21
-66.8805
0
LINE
8
Black
10
48.3736
20
-66.8805
11
48.6468
21
-67.2061
0
LINE
8
Black
10
48.6468
20
-67.2061
11
48.7922
21
-67.6055
0
LINE
8
Black
10
48.7922
20
-67.6055
11
48.7922
21
-68.0305
0
LINE
8
Black
10
48.7922
20
-68.0305
11
48.6468
21
-68.4299
0
LINE
8
Black
10
48.6468
20
-68.4299
11
48.3736
21
-68.7555
0
LINE
8
Black
10
48.3736
20
-68.7555
11
48.0055
21
-68.968
0
LINE
8
Black
10
48.0055
20
-68.968
11
47.5869
21
-69.0419
0
LINE
8
Black
10
47.5869
20
-69.0419
11
47.1683
21
-68.968
0
LINE
8
Black
10
47.1683
20
-68.968
11
46.8002
21
-68.7555
0
LINE
8
Black
10
46.8002
20
-68.7555
11
46.527
21
-68.4299
0
LINE
8
Black
10
46.527
20
-68.4299
11
46.3816
21
-68.0305
0
LINE
8
Black
10
46.3816
20
-68.0305
11
46.3816
21
-67.6055
0
LINE
8
Black
10
46.3816
20
-67.6055
11
46.527
21
-67.2061
0
LINE
8
Black
10
46.527
20
-67.2061
11
46.8002
21
-66.8805
0
LINE
8
Black
10
46.8002
20
-66.8805
11
47.1683
21
-66.668
0
LINE
8
Black
10
47.1683
20
-66.668
11
47.5869
21
-66.5941
0
LINE
8
Black
10
47.5869
20
-66.5941
11
48.0055
21
-66.668
0
LINE
8
Black
10
48.0055
20
-71.748
11
48.3736
21
-71.9605
0
LINE
8
Black
10
48.3736
20
-71.9605
11
48.6468
21
-72.2861
0
LINE
8
Black
10
48.6468
20
-72.2861
11
48.7922
21
-72.6855
0
LINE
8
Black
10
48.7922
20
-72.6855
11
48.7922
21
-73.1105
0
LINE
8
Black
10
48.7922
20
-73.1105
11
48.6468
21
-73.5099
0
LINE
8
Black
10
48.6468
20
-73.5099
11
48.3736
21
-73.8355
0
LINE
8
Black
10
48.3736
20
-73.8355
11
48.0055
21
-74.048
0
LINE
8
Black
10
48.0055
20
-74.048
11
47.5869
21
-74.1219
0
LINE
8
Black
10
47.5869
20
-74.1219
11
47.1683
21
-74.048
0
LINE
8
Black
10
47.1683
20
-74.048
11
46.8002
21
-73.8355
0
LINE
8
Black
10
46.8002
20
-73.8355
11
46.527
21
-73.5099
0
LINE
8
Black
10
46.527
20
-73.5099
11
46.3816
21
-73.1105
0
LINE
8
Black
10
46.3816
20
-73.1105
11
46.3816
21
-72.6855
0
LINE
8
Black
10
46.3816
20
-72.6855
11
46.527
21
-72.2861
0
LINE
8
Black
10
46.527
20
-72.2861
11
46.8002
21
-71.9605
0
LINE
8
Black
10
46.8002
20
-71.9605
11
47.1683
21
-71.748
0
LINE
8
Black
10
47.1683
20
-71.748
11
47.5869
21
-71.6741
0
LINE
8
Black
10
47.5869
20
-71.6741
11
48.0055
21
-71.748
0
LINE
8
Black
10
48.0055
20
-74.288
11
48.3736
21
-74.5005
0
LINE
8
Black
10
48.3736
20
-74.5005
11
48.6468
21
-74.8261
0
LINE
8
Black
10
48.6468
20
-74.8261
11
48.7922
21
-75.2255
0
LINE
8
Black
10
48.7922
20
-75.2255
11
48.7922
21
-75.6505
0
LINE
8
Black
10
48.7922
20
-75.6505
11
48.6468
21
-76.0499
0
LINE
8
Black
10
48.6468
20
-76.0499
11
48.3736
21
-76.3755
0
LINE
8
Black
10
48.3736
20
-76.3755
11
48.0055
21
-76.588
0
LINE
8
Black
10
48.0055
20
-76.588
11
47.5869
21
-76.6619
0
LINE
8
Black
10
47.5869
20
-76.6619
11
47.1683
21
-76.588
0
LINE
8
Black
10
47.1683
20
-76.588
11
46.8002
21
-76.3755
0
LINE
8
Black
10
46.8002
20
-76.3755
11
46.527
21
-76.0499
0
LINE
8
Black
10
46.527
20
-76.0499
11
46.3816
21
-75.6505
0
LINE
8
Black
10
46.3816
20
-75.6505
11
46.3816
21
-75.2255
0
LINE
8
Black
10
46.3816
20
-75.2255
11
46.527
21
-74.8261
0
LINE
8
Black
10
46.527
20
-74.8261
11
46.8002
21
-74.5005
0
LINE
8
Black
10
46.8002
20
-74.5005
11
47.1683
21
-74.288
0
LINE
8
Black
10
47.1683
20
-74.288
11
47.5869
21
-74.2141
0
LINE
8
Black
10
47.5869
20
-74.2141
11
48.0055
21
-74.288
0
LINE
8
Black
10
48.0055
20
-79.368
11
48.3736
21
-79.5805
0
LINE
8
Black
10
48.3736
20
-79.5805
11
48.6468
21
-79.9061
0
LINE
8
Black
10
48.6468
20
-79.9061
11
48.7922
21
-80.3055
0
LINE
8
Black
10
48.7922
20
-80.3055
11
48.7922
21
-80.7305
0
LINE
8
Black
10
48.7922
20
-80.7305
11
48.6468
21
-81.1299
0
LINE
8
Black
10
48.6468
20
-81.1299
11
48.3736
21
-81.4555
0
LINE
8
Black
10
48.3736
20
-81.4555
11
48.0055
21
-81.668
0
LINE
8
Black
10
48.0055
20
-81.668
11
47.5869
21
-81.7419
0
LINE
8
Black
10
47.5869
20
-81.7419
11
47.1683
21
-81.668
0
LINE
8
Black
10
47.1683
20
-81.668
11
46.8002
21
-81.4555
0
LINE
8
Black
10
46.8002
20
-81.4555
11
46.527
21
-81.1299
0
LINE
8
Black
10
46.527
20
-81.1299
11
46.3816
21
-80.7305
0
LINE
8
Black
10
46.3816
20
-80.7305
11
46.3816
21
-80.3055
0
LINE
8
Black
10
46.3816
20
-80.3055
11
46.527
21
-79.9061
0
LINE
8
Black
10
46.527
20
-79.9061
11
46.8002
21
-79.5805
0
LINE
8
Black
10
46.8002
20
-79.5805
11
47.1683
21
-79.368
0
LINE
8
Black
10
47.1683
20
-79.368
11
47.5869
21
-79.2941
0
LINE
8
Black
10
47.5869
20
-79.2941
11
48.0055
21
-79.368
0
LINE
8
Black
10
48.0055
20
-81.908
11
48.3736
21
-82.1205
0
LINE
8
Black
10
48.3736
20
-82.1205
11
48.6468
21
-82.4461
0
LINE
8
Black
10
48.6468
20
-82.4461
11
48.7922
21
-82.8455
0
LINE
8
Black
10
48.7922
20
-82.8455
11
48.7922
21
-83.2705
0
LINE
8
Black
10
48.7922
20
-83.2705
11
48.6468
21
-83.6699
0
LINE
8
Black
10
48.6468
20
-83.6699
11
48.3736
21
-83.9955
0
LINE
8
Black
10
48.3736
20
-83.9955
11
48.0055
21
-84.208
0
LINE
8
Black
10
48.0055
20
-84.208
11
47.5869
21
-84.2819
0
LINE
8
Black
10
47.5869
20
-84.2819
11
47.1683
21
-84.208
0
LINE
8
Black
10
47.1683
20
-84.208
11
46.8002
21
-83.9955
0
LINE
8
Black
10
46.8002
20
-83.9955
11
46.527
21
-83.6699
0
LINE
8
Black
10
46.527
20
-83.6699
11
46.3816
21
-83.2705
0
LINE
8
Black
10
46.3816
20
-83.2705
11
46.3816
21
-82.8455
0
LINE
8
Black
10
46.3816
20
-82.8455
11
46.527
21
-82.4461
0
LINE
8
Black
10
46.527
20
-82.4461
11
46.8002
21
-82.1205
0
LINE
8
Black
10
46.8002
20
-82.1205
11
47.1683
21
-81.908
0
LINE
8
Black
10
47.1683
20
-81.908
11
47.5869
21
-81.8341
0
LINE
8
Black
10
47.5869
20
-81.8341
11
48.0055
21
-81.908
0
LINE
8
Black
10
25.3902
20
-84.9486
11
25.3802
21
-84.9486
0
LINE
8
Black
10
25.3802
20
-84.9486
11
25.3708
21
-84.9451
0
LINE
8
Black
10
25.3708
20
-84.9451
11
25.3609
21
-84.9434
0
LINE
8
Black
10
25.3609
20
-84.9434
11
25.3522
21
-84.9384
0
LINE
8
Black
10
25.3522
20
-84.9384
11
25.3428
21
-84.935
0
LINE
8
Black
10
25.3428
20
-84.935
11
25.3352
21
-84.9286
0
LINE
8
Black
10
25.3352
20
-84.9286
11
25.3265
21
-84.9236
0
LINE
8
Black
10
25.3265
20
-84.9236
11
25.3201
21
-84.9159
0
LINE
8
Black
10
25.3201
20
-84.9159
11
25.3124
21
-84.9095
0
LINE
8
Black
10
25.3124
20
-84.9095
11
25.3074
21
-84.9008
0
LINE
8
Black
10
25.3074
20
-84.9008
11
25.301
21
-84.8931
0
LINE
8
Black
10
25.301
20
-84.8931
11
25.2976
21
-84.8838
0
LINE
8
Black
10
25.2976
20
-84.8838
11
25.2926
21
-84.8751
0
LINE
8
Black
10
25.2926
20
-84.8751
11
25.2909
21
-84.8652
0
LINE
8
Black
10
25.2909
20
-84.8652
11
25.2874
21
-84.8558
0
LINE
8
Black
10
25.2874
20
-84.8558
11
25.2874
21
-84.8458
0
LINE
8
Black
10
25.2874
20
-84.8458
11
25.2857
21
-84.836
0
LINE
8
Black
10
25.2857
20
-84.836
11
25.2857
21
-25.4
0
LINE
8
Black
10
25.2857
20
-25.4
11
25.2874
21
-25.3902
0
LINE
8
Black
10
25.2874
20
-25.3902
11
25.2874
21
-25.3802
0
LINE
8
Black
10
25.2874
20
-25.3802
11
25.2909
21
-25.3708
0
LINE
8
Black
10
25.2909
20
-25.3708
11
25.2926
21
-25.3609
0
LINE
8
Black
10
25.2926
20
-25.3609
11
25.2976
21
-25.3522
0
LINE
8
Black
10
25.2976
20
-25.3522
11
25.301
21
-25.3428
0
LINE
8
Black
10
25.301
20
-25.3428
11
25.3074
21
-25.3352
0
LINE
8
Black
10
25.3074
20
-25.3352
11
25.3124
21
-25.3265
0
LINE
8
Black
10
25.3124
20
-25.3265
11
25.3201
21
-25.3201
0
LINE
8
Black
10
25.3201
20
-25.3201
11
25.3265
21
-25.3124
0
LINE
8
Black
10
25.3265
20
-25.3124
11
25.3352
21
-25.3074
0
LINE
8
Black
10
25.3352
20
-25.3074
11
25.3428
21
-25.301
0
LINE
8
Black
10
25.3428
20
-25.301
11
25.3522
21
-25.2976
0
LINE
8
Black
10
25.3522
20
-25.2976
11
25.3609
21
-25.2926
0
LINE
8
Black
10
25.3609
20
-25.2926
11
25.3708
21
-25.2909
0
LINE
8
Black
10
25.3708
20
-25.2909
11
25.3802
21
-25.2874
0
LINE
8
Black
10
25.3802
20
-25.2874
11
25.3902
21
-25.2874
0
LINE
8
Black
10
25.3902
20
-25.2874
11
25.4
21
-25.2857
0
LINE
8
Black
10
25.4
20
-25.2857
11
49.3649
21
-25.2857
0
LINE
8
Black
10
49.3649
20
-25.2857
11
49.3747
21
-25.2874
0
LINE
8
Black
10
49.3747
20
-25.2874
11
49.3847
21
-25.2874
0
LINE
8
Black
10
49.3847
20
-25.2874
11
49.3941
21
-25.2909
0
LINE
8
Black
10
49.3941
20
-25.2909
11
49.404
21
-25.2926
0
LINE
8
Black
10
49.404
20
-25.2926
11
49.4127
21
-25.2976
0
LINE
8
Black
10
49.4127
20
-25.2976
11
49.422
21
-25.301
0
LINE
8
Black
10
49.422
20
-25.301
11
49.4297
21
-25.3074
0
LINE
8
Black
10
49.4297
20
-25.3074
11
49.4384
21
-25.3124
0
LINE
8
Black
10
49.4384
20
-25.3124
11
49.4448
21
-25.3201
0
LINE
8
Black
10
49.4448
20
-25.3201
11
49.4525
21
-25.3265
0
LINE
8
Black
10
49.4525
20
-25.3265
11
49.4575
21
-25.3352
0
LINE
8
Black
10
49.4575
20
-25.3352
11
49.4639
21
-25.3428
0
LINE
8
Black
10
49.4639
20
-25.3428
11
49.4673
21
-25.3522
0
LINE
8
Black
10
49.4673
20
-25.3522
11
49.4723
21
-25.3609
0
LINE
8
Black
10
49.4723
20
-25.3609
11
49.474
21
-25.3708
0
LINE
8
Black
10
49.474
20
-25.3708
11
49.4775
21
-25.3802
0
LINE
8
Black
10
49.4775
20
-25.3802
11
49.4775
21
-25.3902
0
LINE
8
Black
10
49.4775
20
-25.3902
11
49.4792
21
-25.4
0
LINE
8
Black
10
49.4792
20
-25.4
11
49.4792
21
-84.836
0
LINE
8
Black
10
49.4792
20
-84.836
11
49.4775
21
-84.8458
0
LINE
8
Black
10
49.4775
20
-84.8458
11
49.4775
21
-84.8558
0
LINE
8
Black
10
49.4775
20
-84.8558
11
49.474
21
-84.8652
0
LINE
8
Black
10
49.474
20
-84.8652
11
49.4723
21
-84.8751
0
LINE
8
Black
10
49.4723
20
-84.8751
11
49.4673
21
-84.8838
0
LINE
8
Black
10
49.4673
20
-84.8838
11
49.4639
21
-84.8931
0
LINE
8
Black
10
49.4639
20
-84.8931
11
49.4575
21
-84.9008
0
LINE
8
Black
10
49.4575
20
-84.9008
11
49.4525
21
-84.9095
0
LINE
8
Black
10
49.4525
20
-84.9095
11
49.4448
21
-84.9159
0
LINE
8
Black
10
49.4448
20
-84.9159
11
49.4384
21
-84.9236
0
LINE
8
Black
10
49.4384
20
-84.9236
11
49.4297
21
-84.9286
0
LINE
8
Black
10
49.4297
20
-84.9286
11
49.422
21
-84.935
0
LINE
8
Black
10
49.422
20
-84.935
11
49.4127
21
-84.9384
0
LINE
8
Black
10
49.4127
20
-84.9384
11
49.404
21
-84.9434
0
LINE
8
Black
10
49.404
20
-84.9434
11
49.3941
21
-84.9451
0
LINE
8
Black
10
49.3941
20
-84.9451
11
49.3847
21
-84.9486
0
LINE
8
Black
10
49.3847
20
-84.9486
11
49.3747
21
-84.9486
0
LINE
8
Black
10
49.3747
20
-84.9486
11
49.3649
21
-84.9503
0
LINE
8
Black
10
49.3649
20
-84.9503
11
25.4
21
-84.9503
0
LINE
8
Black
10
25.4
20
-84.9503
11
25.3902
21
-84.9486
0
LINE
8
Black
10
49.2506
20
-25.5143
11
25.5143
21
-25.5143
0
LINE
8
Black
10
25.5143
20
-25.5143
11
25.5143
21
-84.7217
0
LINE
8
Black
10
25.5143
20
-84.7217
11
49.2506
21
-84.7217
0
LINE
8
Black
10
49.2506
20
-84.7217
11
49.2506
21
-25.5143
  0
ENDSEC
  0
EOF
