G04 #@! TF.FileFunction,Soldermask,Top*
%FSLAX46Y46*%
G04 Gerber Fmt 4.6, Leading zero omitted, Abs format (unit mm)*
G04 Created by KiCad (PCBNEW 0.201504221001+5618~22~ubuntu14.04.1-product) date Fri 01 May 2015 10:17:24 AM EDT*
%MOMM*%
G01*
G04 APERTURE LIST*
%ADD10C,0.100000*%
%ADD11C,0.228600*%
%ADD12R,4.895800X1.416000*%
%ADD13C,2.387600*%
%ADD14R,2.940000X1.924000*%
%ADD15C,3.092400*%
G04 APERTURE END LIST*
D10*
D11*
X25400000Y-84836000D02*
X49364900Y-84836000D01*
X49364900Y-25400000D02*
X49364900Y-84836000D01*
X25400000Y-25400000D02*
X25400000Y-84836000D01*
X25400000Y-25400000D02*
X49364900Y-25400000D01*
D12*
X28752800Y-46228000D03*
X34747200Y-46228000D03*
X28752800Y-48768000D03*
X34747200Y-48768000D03*
X28752800Y-51308000D03*
X34747200Y-51308000D03*
X28752800Y-53848000D03*
X34747200Y-53848000D03*
X28752800Y-56388000D03*
X34747200Y-56388000D03*
X28752800Y-58928000D03*
X34747200Y-58928000D03*
X28752800Y-61468000D03*
X34747200Y-61468000D03*
X28752800Y-64008000D03*
X34747200Y-64008000D03*
D13*
X47586900Y-80518000D03*
X47586900Y-83058000D03*
X47586900Y-72898000D03*
X47586900Y-75438000D03*
X47586900Y-65278000D03*
X47586900Y-67818000D03*
X47586900Y-57658000D03*
X47586900Y-60198000D03*
X47586900Y-50038000D03*
X47586900Y-52578000D03*
X47586900Y-42418000D03*
X47586900Y-44958000D03*
X47586900Y-34798000D03*
X47586900Y-37338000D03*
X47586900Y-27178000D03*
X47586900Y-29718000D03*
D14*
X27222500Y-27178000D03*
X34842500Y-27178000D03*
X27222500Y-29718000D03*
X34842500Y-29718000D03*
X27222500Y-32258000D03*
X34842500Y-32258000D03*
X27222500Y-39878000D03*
X34842500Y-39878000D03*
X27222500Y-70358000D03*
X34842500Y-70358000D03*
X27222500Y-77978000D03*
X34842500Y-77978000D03*
X27222500Y-80518000D03*
X34842500Y-80518000D03*
X27222500Y-83058000D03*
X34842500Y-83058000D03*
D15*
X36334700Y-74168000D03*
X36334700Y-36068000D03*
M02*
