G04 #@! TF.FileFunction,Legend,Bot*
%FSLAX46Y46*%
G04 Gerber Fmt 4.6, Leading zero omitted, Abs format (unit mm)*
G04 Created by KiCad (PCBNEW 0.201504221001+5618~22~ubuntu14.04.1-product) date Thu 30 Apr 2015 05:03:49 PM EDT*
%MOMM*%
G01*
G04 APERTURE LIST*
%ADD10C,0.100000*%
%ADD11C,0.228600*%
%ADD12C,0.254000*%
%ADD13C,2.387600*%
%ADD14C,3.092400*%
G04 APERTURE END LIST*
D10*
D11*
X25400000Y-84836000D02*
X49364900Y-84836000D01*
X49364900Y-25400000D02*
X49364900Y-84836000D01*
X25400000Y-25400000D02*
X25400000Y-84836000D01*
X25400000Y-25400000D02*
X49364900Y-25400000D01*
D12*
X29612469Y-44183907D02*
X28596469Y-44183907D01*
X29612469Y-44619335D02*
X29080279Y-44619335D01*
X28983517Y-44570954D01*
X28935136Y-44474192D01*
X28935136Y-44329050D01*
X28983517Y-44232288D01*
X29031898Y-44183907D01*
X28935136Y-45006383D02*
X29612469Y-45248288D01*
X28935136Y-45490192D02*
X29612469Y-45248288D01*
X29854374Y-45151526D01*
X29902755Y-45103145D01*
X29951136Y-45006383D01*
X29612469Y-45877240D02*
X28596469Y-45877240D01*
X28983517Y-45877240D02*
X28935136Y-45974002D01*
X28935136Y-46167525D01*
X28983517Y-46264287D01*
X29031898Y-46312668D01*
X29128660Y-46361049D01*
X29418945Y-46361049D01*
X29515707Y-46312668D01*
X29564088Y-46264287D01*
X29612469Y-46167525D01*
X29612469Y-45974002D01*
X29564088Y-45877240D01*
X29612469Y-46796478D02*
X28935136Y-46796478D01*
X29128660Y-46796478D02*
X29031898Y-46844859D01*
X28983517Y-46893240D01*
X28935136Y-46990002D01*
X28935136Y-47086763D01*
X29612469Y-47425430D02*
X28935136Y-47425430D01*
X28596469Y-47425430D02*
X28644850Y-47377049D01*
X28693231Y-47425430D01*
X28644850Y-47473811D01*
X28596469Y-47425430D01*
X28693231Y-47425430D01*
X29612469Y-48344668D02*
X28596469Y-48344668D01*
X29564088Y-48344668D02*
X29612469Y-48247906D01*
X29612469Y-48054383D01*
X29564088Y-47957621D01*
X29515707Y-47909240D01*
X29418945Y-47860859D01*
X29128660Y-47860859D01*
X29031898Y-47909240D01*
X28983517Y-47957621D01*
X28935136Y-48054383D01*
X28935136Y-48247906D01*
X28983517Y-48344668D01*
X29612469Y-48828478D02*
X28935136Y-48828478D01*
X28596469Y-48828478D02*
X28644850Y-48780097D01*
X28693231Y-48828478D01*
X28644850Y-48876859D01*
X28596469Y-48828478D01*
X28693231Y-48828478D01*
X28935136Y-49215526D02*
X28935136Y-49747716D01*
X29612469Y-49215526D01*
X29612469Y-49747716D01*
X29564088Y-50521811D02*
X29612469Y-50425049D01*
X29612469Y-50231526D01*
X29564088Y-50134764D01*
X29467326Y-50086383D01*
X29080279Y-50086383D01*
X28983517Y-50134764D01*
X28935136Y-50231526D01*
X28935136Y-50425049D01*
X28983517Y-50521811D01*
X29080279Y-50570192D01*
X29177040Y-50570192D01*
X29273802Y-50086383D01*
X29612469Y-51005621D02*
X28935136Y-51005621D01*
X29128660Y-51005621D02*
X29031898Y-51054002D01*
X28983517Y-51102383D01*
X28935136Y-51199145D01*
X28935136Y-51295906D01*
X29709231Y-51392668D02*
X29709231Y-52166763D01*
X29612469Y-52408668D02*
X28935136Y-52408668D01*
X29031898Y-52408668D02*
X28983517Y-52457049D01*
X28935136Y-52553811D01*
X28935136Y-52698953D01*
X28983517Y-52795715D01*
X29080279Y-52844096D01*
X29612469Y-52844096D01*
X29080279Y-52844096D02*
X28983517Y-52892477D01*
X28935136Y-52989239D01*
X28935136Y-53134382D01*
X28983517Y-53231144D01*
X29080279Y-53279525D01*
X29612469Y-53279525D01*
X29612469Y-54198763D02*
X29080279Y-54198763D01*
X28983517Y-54150382D01*
X28935136Y-54053620D01*
X28935136Y-53860097D01*
X28983517Y-53763335D01*
X29564088Y-54198763D02*
X29612469Y-54102001D01*
X29612469Y-53860097D01*
X29564088Y-53763335D01*
X29467326Y-53714954D01*
X29370564Y-53714954D01*
X29273802Y-53763335D01*
X29225421Y-53860097D01*
X29225421Y-54102001D01*
X29177040Y-54198763D01*
X28935136Y-54682573D02*
X29612469Y-54682573D01*
X29031898Y-54682573D02*
X28983517Y-54730954D01*
X28935136Y-54827716D01*
X28935136Y-54972858D01*
X28983517Y-55069620D01*
X29080279Y-55118001D01*
X29612469Y-55118001D01*
X29612469Y-55601811D02*
X28935136Y-55601811D01*
X28596469Y-55601811D02*
X28644850Y-55553430D01*
X28693231Y-55601811D01*
X28644850Y-55650192D01*
X28596469Y-55601811D01*
X28693231Y-55601811D01*
X28935136Y-55940478D02*
X28935136Y-56327526D01*
X29612469Y-56085621D02*
X28741612Y-56085621D01*
X28644850Y-56134002D01*
X28596469Y-56230764D01*
X28596469Y-56327526D01*
X29612469Y-56811335D02*
X29564088Y-56714573D01*
X29515707Y-56666192D01*
X29418945Y-56617811D01*
X29128660Y-56617811D01*
X29031898Y-56666192D01*
X28983517Y-56714573D01*
X28935136Y-56811335D01*
X28935136Y-56956477D01*
X28983517Y-57053239D01*
X29031898Y-57101620D01*
X29128660Y-57150001D01*
X29418945Y-57150001D01*
X29515707Y-57101620D01*
X29564088Y-57053239D01*
X29612469Y-56956477D01*
X29612469Y-56811335D01*
X29612469Y-57730573D02*
X29564088Y-57633811D01*
X29467326Y-57585430D01*
X28596469Y-57585430D01*
X29612469Y-58553048D02*
X28596469Y-58553048D01*
X29564088Y-58553048D02*
X29612469Y-58456286D01*
X29612469Y-58262763D01*
X29564088Y-58166001D01*
X29515707Y-58117620D01*
X29418945Y-58069239D01*
X29128660Y-58069239D01*
X29031898Y-58117620D01*
X28983517Y-58166001D01*
X28935136Y-58262763D01*
X28935136Y-58456286D01*
X28983517Y-58553048D01*
X29709231Y-58794953D02*
X29709231Y-59569048D01*
X29612469Y-59810953D02*
X28935136Y-59810953D01*
X28596469Y-59810953D02*
X28644850Y-59762572D01*
X28693231Y-59810953D01*
X28644850Y-59859334D01*
X28596469Y-59810953D01*
X28693231Y-59810953D01*
X28935136Y-60294763D02*
X29612469Y-60294763D01*
X29031898Y-60294763D02*
X28983517Y-60343144D01*
X28935136Y-60439906D01*
X28935136Y-60585048D01*
X28983517Y-60681810D01*
X29080279Y-60730191D01*
X29612469Y-60730191D01*
X28935136Y-61068858D02*
X28935136Y-61455906D01*
X28596469Y-61214001D02*
X29467326Y-61214001D01*
X29564088Y-61262382D01*
X29612469Y-61359144D01*
X29612469Y-61455906D01*
X29564088Y-62181619D02*
X29612469Y-62084857D01*
X29612469Y-61891334D01*
X29564088Y-61794572D01*
X29467326Y-61746191D01*
X29080279Y-61746191D01*
X28983517Y-61794572D01*
X28935136Y-61891334D01*
X28935136Y-62084857D01*
X28983517Y-62181619D01*
X29080279Y-62230000D01*
X29177040Y-62230000D01*
X29273802Y-61746191D01*
X29612469Y-62665429D02*
X28935136Y-62665429D01*
X29128660Y-62665429D02*
X29031898Y-62713810D01*
X28983517Y-62762191D01*
X28935136Y-62858953D01*
X28935136Y-62955714D01*
X28935136Y-63149238D02*
X28935136Y-63536286D01*
X29612469Y-63294381D02*
X28741612Y-63294381D01*
X28644850Y-63342762D01*
X28596469Y-63439524D01*
X28596469Y-63536286D01*
X29612469Y-64310380D02*
X29080279Y-64310380D01*
X28983517Y-64261999D01*
X28935136Y-64165237D01*
X28935136Y-63971714D01*
X28983517Y-63874952D01*
X29564088Y-64310380D02*
X29612469Y-64213618D01*
X29612469Y-63971714D01*
X29564088Y-63874952D01*
X29467326Y-63826571D01*
X29370564Y-63826571D01*
X29273802Y-63874952D01*
X29225421Y-63971714D01*
X29225421Y-64213618D01*
X29177040Y-64310380D01*
X29564088Y-65229618D02*
X29612469Y-65132856D01*
X29612469Y-64939333D01*
X29564088Y-64842571D01*
X29515707Y-64794190D01*
X29418945Y-64745809D01*
X29128660Y-64745809D01*
X29031898Y-64794190D01*
X28983517Y-64842571D01*
X28935136Y-64939333D01*
X28935136Y-65132856D01*
X28983517Y-65229618D01*
X29564088Y-66052094D02*
X29612469Y-65955332D01*
X29612469Y-65761809D01*
X29564088Y-65665047D01*
X29467326Y-65616666D01*
X29080279Y-65616666D01*
X28983517Y-65665047D01*
X28935136Y-65761809D01*
X28935136Y-65955332D01*
X28983517Y-66052094D01*
X29080279Y-66100475D01*
X29177040Y-66100475D01*
X29273802Y-65616666D01*
X30272869Y-45732096D02*
X30998583Y-45732096D01*
X31143726Y-45683716D01*
X31240488Y-45586954D01*
X31288869Y-45441811D01*
X31288869Y-45345049D01*
X31288869Y-46651334D02*
X30756679Y-46651334D01*
X30659917Y-46602953D01*
X30611536Y-46506191D01*
X30611536Y-46312668D01*
X30659917Y-46215906D01*
X31240488Y-46651334D02*
X31288869Y-46554572D01*
X31288869Y-46312668D01*
X31240488Y-46215906D01*
X31143726Y-46167525D01*
X31046964Y-46167525D01*
X30950202Y-46215906D01*
X30901821Y-46312668D01*
X30901821Y-46554572D01*
X30853440Y-46651334D01*
X30611536Y-47135144D02*
X31288869Y-47135144D01*
X30708298Y-47135144D02*
X30659917Y-47183525D01*
X30611536Y-47280287D01*
X30611536Y-47425429D01*
X30659917Y-47522191D01*
X30756679Y-47570572D01*
X31288869Y-47570572D01*
X31240488Y-48441429D02*
X31288869Y-48344667D01*
X31288869Y-48151144D01*
X31240488Y-48054382D01*
X31143726Y-48006001D01*
X30756679Y-48006001D01*
X30659917Y-48054382D01*
X30611536Y-48151144D01*
X30611536Y-48344667D01*
X30659917Y-48441429D01*
X30756679Y-48489810D01*
X30853440Y-48489810D01*
X30950202Y-48006001D01*
X31288869Y-49070382D02*
X31240488Y-48973620D01*
X31143726Y-48925239D01*
X30272869Y-48925239D01*
X31288869Y-49457429D02*
X30611536Y-49457429D01*
X30272869Y-49457429D02*
X30321250Y-49409048D01*
X30369631Y-49457429D01*
X30321250Y-49505810D01*
X30272869Y-49457429D01*
X30369631Y-49457429D01*
X31288869Y-50376667D02*
X30756679Y-50376667D01*
X30659917Y-50328286D01*
X30611536Y-50231524D01*
X30611536Y-50038001D01*
X30659917Y-49941239D01*
X31240488Y-50376667D02*
X31288869Y-50279905D01*
X31288869Y-50038001D01*
X31240488Y-49941239D01*
X31143726Y-49892858D01*
X31046964Y-49892858D01*
X30950202Y-49941239D01*
X30901821Y-50038001D01*
X30901821Y-50279905D01*
X30853440Y-50376667D01*
X31288869Y-52215143D02*
X30805060Y-51876477D01*
X31288869Y-51634572D02*
X30272869Y-51634572D01*
X30272869Y-52021619D01*
X30321250Y-52118381D01*
X30369631Y-52166762D01*
X30466393Y-52215143D01*
X30611536Y-52215143D01*
X30708298Y-52166762D01*
X30756679Y-52118381D01*
X30805060Y-52021619D01*
X30805060Y-51634572D01*
X31240488Y-53037619D02*
X31288869Y-52940857D01*
X31288869Y-52747334D01*
X31240488Y-52650572D01*
X31143726Y-52602191D01*
X30756679Y-52602191D01*
X30659917Y-52650572D01*
X30611536Y-52747334D01*
X30611536Y-52940857D01*
X30659917Y-53037619D01*
X30756679Y-53086000D01*
X30853440Y-53086000D01*
X30950202Y-52602191D01*
X31240488Y-53473048D02*
X31288869Y-53569810D01*
X31288869Y-53763334D01*
X31240488Y-53860095D01*
X31143726Y-53908476D01*
X31095345Y-53908476D01*
X30998583Y-53860095D01*
X30950202Y-53763334D01*
X30950202Y-53618191D01*
X30901821Y-53521429D01*
X30805060Y-53473048D01*
X30756679Y-53473048D01*
X30659917Y-53521429D01*
X30611536Y-53618191D01*
X30611536Y-53763334D01*
X30659917Y-53860095D01*
X31240488Y-54730952D02*
X31288869Y-54634190D01*
X31288869Y-54440667D01*
X31240488Y-54343905D01*
X31143726Y-54295524D01*
X30756679Y-54295524D01*
X30659917Y-54343905D01*
X30611536Y-54440667D01*
X30611536Y-54634190D01*
X30659917Y-54730952D01*
X30756679Y-54779333D01*
X30853440Y-54779333D01*
X30950202Y-54295524D01*
X31288869Y-55650190D02*
X30756679Y-55650190D01*
X30659917Y-55601809D01*
X30611536Y-55505047D01*
X30611536Y-55311524D01*
X30659917Y-55214762D01*
X31240488Y-55650190D02*
X31288869Y-55553428D01*
X31288869Y-55311524D01*
X31240488Y-55214762D01*
X31143726Y-55166381D01*
X31046964Y-55166381D01*
X30950202Y-55214762D01*
X30901821Y-55311524D01*
X30901821Y-55553428D01*
X30853440Y-55650190D01*
X31288869Y-56134000D02*
X30611536Y-56134000D01*
X30805060Y-56134000D02*
X30708298Y-56182381D01*
X30659917Y-56230762D01*
X30611536Y-56327524D01*
X30611536Y-56424285D01*
X31240488Y-57198380D02*
X31288869Y-57101618D01*
X31288869Y-56908095D01*
X31240488Y-56811333D01*
X31192107Y-56762952D01*
X31095345Y-56714571D01*
X30805060Y-56714571D01*
X30708298Y-56762952D01*
X30659917Y-56811333D01*
X30611536Y-56908095D01*
X30611536Y-57101618D01*
X30659917Y-57198380D01*
X31288869Y-57633809D02*
X30272869Y-57633809D01*
X31288869Y-58069237D02*
X30756679Y-58069237D01*
X30659917Y-58020856D01*
X30611536Y-57924094D01*
X30611536Y-57778952D01*
X30659917Y-57682190D01*
X30708298Y-57633809D01*
X31192107Y-59907713D02*
X31240488Y-59859332D01*
X31288869Y-59714189D01*
X31288869Y-59617427D01*
X31240488Y-59472285D01*
X31143726Y-59375523D01*
X31046964Y-59327142D01*
X30853440Y-59278761D01*
X30708298Y-59278761D01*
X30514774Y-59327142D01*
X30418012Y-59375523D01*
X30321250Y-59472285D01*
X30272869Y-59617427D01*
X30272869Y-59714189D01*
X30321250Y-59859332D01*
X30369631Y-59907713D01*
X31288869Y-60778570D02*
X30756679Y-60778570D01*
X30659917Y-60730189D01*
X30611536Y-60633427D01*
X30611536Y-60439904D01*
X30659917Y-60343142D01*
X31240488Y-60778570D02*
X31288869Y-60681808D01*
X31288869Y-60439904D01*
X31240488Y-60343142D01*
X31143726Y-60294761D01*
X31046964Y-60294761D01*
X30950202Y-60343142D01*
X30901821Y-60439904D01*
X30901821Y-60681808D01*
X30853440Y-60778570D01*
X31288869Y-61262380D02*
X30611536Y-61262380D01*
X30708298Y-61262380D02*
X30659917Y-61310761D01*
X30611536Y-61407523D01*
X30611536Y-61552665D01*
X30659917Y-61649427D01*
X30756679Y-61697808D01*
X31288869Y-61697808D01*
X30756679Y-61697808D02*
X30659917Y-61746189D01*
X30611536Y-61842951D01*
X30611536Y-61988094D01*
X30659917Y-62084856D01*
X30756679Y-62133237D01*
X31288869Y-62133237D01*
X30611536Y-62617047D02*
X31627536Y-62617047D01*
X30659917Y-62617047D02*
X30611536Y-62713809D01*
X30611536Y-62907332D01*
X30659917Y-63004094D01*
X30708298Y-63052475D01*
X30805060Y-63100856D01*
X31095345Y-63100856D01*
X31192107Y-63052475D01*
X31240488Y-63004094D01*
X31288869Y-62907332D01*
X31288869Y-62713809D01*
X31240488Y-62617047D01*
X30611536Y-63971713D02*
X31288869Y-63971713D01*
X30611536Y-63536285D02*
X31143726Y-63536285D01*
X31240488Y-63584666D01*
X31288869Y-63681428D01*
X31288869Y-63826570D01*
X31240488Y-63923332D01*
X31192107Y-63971713D01*
X31240488Y-64407142D02*
X31288869Y-64503904D01*
X31288869Y-64697428D01*
X31240488Y-64794189D01*
X31143726Y-64842570D01*
X31095345Y-64842570D01*
X30998583Y-64794189D01*
X30950202Y-64697428D01*
X30950202Y-64552285D01*
X30901821Y-64455523D01*
X30805060Y-64407142D01*
X30756679Y-64407142D01*
X30659917Y-64455523D01*
X30611536Y-64552285D01*
X30611536Y-64697428D01*
X30659917Y-64794189D01*
X31949269Y-47425430D02*
X31949269Y-47522191D01*
X31997650Y-47618953D01*
X32046031Y-47667334D01*
X32142793Y-47715715D01*
X32336317Y-47764096D01*
X32578221Y-47764096D01*
X32771745Y-47715715D01*
X32868507Y-47667334D01*
X32916888Y-47618953D01*
X32965269Y-47522191D01*
X32965269Y-47425430D01*
X32916888Y-47328668D01*
X32868507Y-47280287D01*
X32771745Y-47231906D01*
X32578221Y-47183525D01*
X32336317Y-47183525D01*
X32142793Y-47231906D01*
X32046031Y-47280287D01*
X31997650Y-47328668D01*
X31949269Y-47425430D01*
X32287936Y-48634953D02*
X32965269Y-48634953D01*
X31900888Y-48393049D02*
X32626602Y-48151144D01*
X32626602Y-48780096D01*
X31900888Y-49892858D02*
X33207174Y-49022001D01*
X32046031Y-50183144D02*
X31997650Y-50231525D01*
X31949269Y-50328287D01*
X31949269Y-50570191D01*
X31997650Y-50666953D01*
X32046031Y-50715334D01*
X32142793Y-50763715D01*
X32239555Y-50763715D01*
X32384698Y-50715334D01*
X32965269Y-50134763D01*
X32965269Y-50763715D01*
X31949269Y-51392668D02*
X31949269Y-51489429D01*
X31997650Y-51586191D01*
X32046031Y-51634572D01*
X32142793Y-51682953D01*
X32336317Y-51731334D01*
X32578221Y-51731334D01*
X32771745Y-51682953D01*
X32868507Y-51634572D01*
X32916888Y-51586191D01*
X32965269Y-51489429D01*
X32965269Y-51392668D01*
X32916888Y-51295906D01*
X32868507Y-51247525D01*
X32771745Y-51199144D01*
X32578221Y-51150763D01*
X32336317Y-51150763D01*
X32142793Y-51199144D01*
X32046031Y-51247525D01*
X31997650Y-51295906D01*
X31949269Y-51392668D01*
X32965269Y-52698953D02*
X32965269Y-52118382D01*
X32965269Y-52408668D02*
X31949269Y-52408668D01*
X32094412Y-52311906D01*
X32191174Y-52215144D01*
X32239555Y-52118382D01*
X31949269Y-53618191D02*
X31949269Y-53134382D01*
X32433079Y-53086001D01*
X32384698Y-53134382D01*
X32336317Y-53231144D01*
X32336317Y-53473048D01*
X32384698Y-53569810D01*
X32433079Y-53618191D01*
X32529840Y-53666572D01*
X32771745Y-53666572D01*
X32868507Y-53618191D01*
X32916888Y-53569810D01*
X32965269Y-53473048D01*
X32965269Y-53231144D01*
X32916888Y-53134382D01*
X32868507Y-53086001D01*
X32287936Y-54779334D02*
X32965269Y-55021239D01*
X32287936Y-55263143D01*
X32916888Y-56037238D02*
X32965269Y-55940476D01*
X32965269Y-55746953D01*
X32916888Y-55650191D01*
X32820126Y-55601810D01*
X32433079Y-55601810D01*
X32336317Y-55650191D01*
X32287936Y-55746953D01*
X32287936Y-55940476D01*
X32336317Y-56037238D01*
X32433079Y-56085619D01*
X32529840Y-56085619D01*
X32626602Y-55601810D01*
X32965269Y-56521048D02*
X32287936Y-56521048D01*
X32481460Y-56521048D02*
X32384698Y-56569429D01*
X32336317Y-56617810D01*
X32287936Y-56714572D01*
X32287936Y-56811333D01*
X32916888Y-57101619D02*
X32965269Y-57198381D01*
X32965269Y-57391905D01*
X32916888Y-57488666D01*
X32820126Y-57537047D01*
X32771745Y-57537047D01*
X32674983Y-57488666D01*
X32626602Y-57391905D01*
X32626602Y-57246762D01*
X32578221Y-57150000D01*
X32481460Y-57101619D01*
X32433079Y-57101619D01*
X32336317Y-57150000D01*
X32287936Y-57246762D01*
X32287936Y-57391905D01*
X32336317Y-57488666D01*
X32965269Y-57972476D02*
X32287936Y-57972476D01*
X31949269Y-57972476D02*
X31997650Y-57924095D01*
X32046031Y-57972476D01*
X31997650Y-58020857D01*
X31949269Y-57972476D01*
X32046031Y-57972476D01*
X32965269Y-58601429D02*
X32916888Y-58504667D01*
X32868507Y-58456286D01*
X32771745Y-58407905D01*
X32481460Y-58407905D01*
X32384698Y-58456286D01*
X32336317Y-58504667D01*
X32287936Y-58601429D01*
X32287936Y-58746571D01*
X32336317Y-58843333D01*
X32384698Y-58891714D01*
X32481460Y-58940095D01*
X32771745Y-58940095D01*
X32868507Y-58891714D01*
X32916888Y-58843333D01*
X32965269Y-58746571D01*
X32965269Y-58601429D01*
X32287936Y-59375524D02*
X32965269Y-59375524D01*
X32384698Y-59375524D02*
X32336317Y-59423905D01*
X32287936Y-59520667D01*
X32287936Y-59665809D01*
X32336317Y-59762571D01*
X32433079Y-59810952D01*
X32965269Y-59810952D01*
X32965269Y-61601047D02*
X32965269Y-61020476D01*
X32965269Y-61310762D02*
X31949269Y-61310762D01*
X32094412Y-61214000D01*
X32191174Y-61117238D01*
X32239555Y-61020476D01*
X32868507Y-62036476D02*
X32916888Y-62084857D01*
X32965269Y-62036476D01*
X32916888Y-61988095D01*
X32868507Y-62036476D01*
X32965269Y-62036476D01*
X31949269Y-62713810D02*
X31949269Y-62810571D01*
X31997650Y-62907333D01*
X32046031Y-62955714D01*
X32142793Y-63004095D01*
X32336317Y-63052476D01*
X32578221Y-63052476D01*
X32771745Y-63004095D01*
X32868507Y-62955714D01*
X32916888Y-62907333D01*
X32965269Y-62810571D01*
X32965269Y-62713810D01*
X32916888Y-62617048D01*
X32868507Y-62568667D01*
X32771745Y-62520286D01*
X32578221Y-62471905D01*
X32336317Y-62471905D01*
X32142793Y-62520286D01*
X32046031Y-62568667D01*
X31997650Y-62617048D01*
X31949269Y-62713810D01*
X33625669Y-52360286D02*
X34351383Y-52360286D01*
X34496526Y-52311906D01*
X34593288Y-52215144D01*
X34641669Y-52070001D01*
X34641669Y-51973239D01*
X33625669Y-53037620D02*
X33625669Y-53134381D01*
X33674050Y-53231143D01*
X33722431Y-53279524D01*
X33819193Y-53327905D01*
X34012717Y-53376286D01*
X34254621Y-53376286D01*
X34448145Y-53327905D01*
X34544907Y-53279524D01*
X34593288Y-53231143D01*
X34641669Y-53134381D01*
X34641669Y-53037620D01*
X34593288Y-52940858D01*
X34544907Y-52892477D01*
X34448145Y-52844096D01*
X34254621Y-52795715D01*
X34012717Y-52795715D01*
X33819193Y-52844096D01*
X33722431Y-52892477D01*
X33674050Y-52940858D01*
X33625669Y-53037620D01*
X33625669Y-54005239D02*
X33625669Y-54102000D01*
X33674050Y-54198762D01*
X33722431Y-54247143D01*
X33819193Y-54295524D01*
X34012717Y-54343905D01*
X34254621Y-54343905D01*
X34448145Y-54295524D01*
X34544907Y-54247143D01*
X34593288Y-54198762D01*
X34641669Y-54102000D01*
X34641669Y-54005239D01*
X34593288Y-53908477D01*
X34544907Y-53860096D01*
X34448145Y-53811715D01*
X34254621Y-53763334D01*
X34012717Y-53763334D01*
X33819193Y-53811715D01*
X33722431Y-53860096D01*
X33674050Y-53908477D01*
X33625669Y-54005239D01*
X33625669Y-55263143D02*
X33625669Y-54779334D01*
X34109479Y-54730953D01*
X34061098Y-54779334D01*
X34012717Y-54876096D01*
X34012717Y-55118000D01*
X34061098Y-55214762D01*
X34109479Y-55263143D01*
X34206240Y-55311524D01*
X34448145Y-55311524D01*
X34544907Y-55263143D01*
X34593288Y-55214762D01*
X34641669Y-55118000D01*
X34641669Y-54876096D01*
X34593288Y-54779334D01*
X34544907Y-54730953D01*
X34641669Y-56279143D02*
X34641669Y-55698572D01*
X34641669Y-55988858D02*
X33625669Y-55988858D01*
X33770812Y-55892096D01*
X33867574Y-55795334D01*
X33915955Y-55698572D01*
X33625669Y-57150000D02*
X33625669Y-56956477D01*
X33674050Y-56859715D01*
X33722431Y-56811334D01*
X33867574Y-56714572D01*
X34061098Y-56666191D01*
X34448145Y-56666191D01*
X34544907Y-56714572D01*
X34593288Y-56762953D01*
X34641669Y-56859715D01*
X34641669Y-57053238D01*
X34593288Y-57150000D01*
X34544907Y-57198381D01*
X34448145Y-57246762D01*
X34206240Y-57246762D01*
X34109479Y-57198381D01*
X34061098Y-57150000D01*
X34012717Y-57053238D01*
X34012717Y-56859715D01*
X34061098Y-56762953D01*
X34109479Y-56714572D01*
X34206240Y-56666191D01*
X33625669Y-58117619D02*
X33625669Y-57924096D01*
X33674050Y-57827334D01*
X33722431Y-57778953D01*
X33867574Y-57682191D01*
X34061098Y-57633810D01*
X34448145Y-57633810D01*
X34544907Y-57682191D01*
X34593288Y-57730572D01*
X34641669Y-57827334D01*
X34641669Y-58020857D01*
X34593288Y-58117619D01*
X34544907Y-58166000D01*
X34448145Y-58214381D01*
X34206240Y-58214381D01*
X34109479Y-58166000D01*
X34061098Y-58117619D01*
X34012717Y-58020857D01*
X34012717Y-57827334D01*
X34061098Y-57730572D01*
X34109479Y-57682191D01*
X34206240Y-57633810D01*
%LPC*%
D13*
X47586900Y-80518000D03*
X47586900Y-83058000D03*
X47586900Y-72898000D03*
X47586900Y-75438000D03*
X47586900Y-65278000D03*
X47586900Y-67818000D03*
X47586900Y-57658000D03*
X47586900Y-60198000D03*
X47586900Y-50038000D03*
X47586900Y-52578000D03*
X47586900Y-42418000D03*
X47586900Y-44958000D03*
X47586900Y-34798000D03*
X47586900Y-37338000D03*
X47586900Y-27178000D03*
X47586900Y-29718000D03*
D14*
X36334700Y-74168000D03*
X36334700Y-36068000D03*
M02*
