G04 #@! TF.FileFunction,Copper,L2,Bot,Signal*
%FSLAX46Y46*%
G04 Gerber Fmt 4.6, Leading zero omitted, Abs format (unit mm)*
G04 Created by KiCad (PCBNEW 0.201504221001+5618~22~ubuntu14.04.1-product) date Fri 01 May 2015 10:17:24 AM EDT*
%MOMM*%
G01*
G04 APERTURE LIST*
%ADD10C,0.100000*%
%ADD11C,0.228600*%
%ADD12C,2.184400*%
%ADD13C,2.692400*%
%ADD14C,0.889000*%
%ADD15C,0.812800*%
%ADD16C,0.203200*%
G04 APERTURE END LIST*
D10*
D11*
X25400000Y-84836000D02*
X49364900Y-84836000D01*
X49364900Y-25400000D02*
X49364900Y-84836000D01*
X25400000Y-25400000D02*
X25400000Y-84836000D01*
X25400000Y-25400000D02*
X49364900Y-25400000D01*
D12*
X47586900Y-80518000D03*
X47586900Y-83058000D03*
X47586900Y-72898000D03*
X47586900Y-75438000D03*
X47586900Y-65278000D03*
X47586900Y-67818000D03*
X47586900Y-57658000D03*
X47586900Y-60198000D03*
X47586900Y-50038000D03*
X47586900Y-52578000D03*
X47586900Y-42418000D03*
X47586900Y-44958000D03*
X47586900Y-34798000D03*
X47586900Y-37338000D03*
X47586900Y-27178000D03*
X47586900Y-29718000D03*
D13*
X36334700Y-74168000D03*
X36334700Y-36068000D03*
D14*
X31750000Y-61340800D03*
D15*
X45834000Y-74650900D02*
X47586900Y-72898000D01*
X45834000Y-78765100D02*
X45834000Y-74650900D01*
X47586900Y-80518000D02*
X45834000Y-78765100D01*
X45833900Y-71145000D02*
X47586900Y-72898000D01*
X45833900Y-67031000D02*
X45833900Y-71145000D01*
X47586900Y-65278000D02*
X45833900Y-67031000D01*
X31750000Y-61340800D02*
X45833900Y-61340800D01*
X45833900Y-63525000D02*
X45833900Y-61340800D01*
X47586900Y-65278000D02*
X45833900Y-63525000D01*
X45833900Y-59411000D02*
X47586900Y-57658000D01*
X45833900Y-61340800D02*
X45833900Y-59411000D01*
X45833900Y-51791000D02*
X47586900Y-50038000D01*
X45833900Y-55905000D02*
X45833900Y-51791000D01*
X47586900Y-57658000D02*
X45833900Y-55905000D01*
X45833900Y-44171000D02*
X47586900Y-42418000D01*
X45833900Y-48285000D02*
X45833900Y-44171000D01*
X47586900Y-50038000D02*
X45833900Y-48285000D01*
X45833900Y-33045000D02*
X47586900Y-34798000D01*
X45833900Y-28931000D02*
X45833900Y-33045000D01*
X47586900Y-27178000D02*
X45833900Y-28931000D01*
X45833900Y-36551000D02*
X47586900Y-34798000D01*
X45833900Y-40665000D02*
X45833900Y-36551000D01*
X47586900Y-42418000D02*
X45833900Y-40665000D01*
D16*
G36*
X48945800Y-82688544D02*
X48771910Y-82267697D01*
X48488842Y-81984135D01*
X48593103Y-81739729D01*
X47586900Y-80733526D01*
X47371374Y-80949052D01*
X47371374Y-80518000D01*
X46365171Y-79511797D01*
X46098990Y-79625346D01*
X45870646Y-80262694D01*
X45903587Y-80938910D01*
X46098990Y-81410654D01*
X46365171Y-81524203D01*
X47371374Y-80518000D01*
X47371374Y-80949052D01*
X46580697Y-81739729D01*
X46685046Y-81984345D01*
X46403271Y-82265630D01*
X46190143Y-82778900D01*
X46189658Y-83334661D01*
X46401890Y-83848303D01*
X46794530Y-84241629D01*
X47216630Y-84416900D01*
X38036795Y-84416900D01*
X38036795Y-73830976D01*
X38036795Y-35730976D01*
X37778257Y-35105267D01*
X37299951Y-34626126D01*
X36674694Y-34366496D01*
X35997676Y-34365905D01*
X35371967Y-34624443D01*
X34892826Y-35102749D01*
X34633196Y-35728006D01*
X34632605Y-36405024D01*
X34891143Y-37030733D01*
X35369449Y-37509874D01*
X35994706Y-37769504D01*
X36671724Y-37770095D01*
X37297433Y-37511557D01*
X37776574Y-37033251D01*
X38036204Y-36407994D01*
X38036795Y-35730976D01*
X38036795Y-73830976D01*
X37778257Y-73205267D01*
X37299951Y-72726126D01*
X36674694Y-72466496D01*
X35997676Y-72465905D01*
X35371967Y-72724443D01*
X34892826Y-73202749D01*
X34633196Y-73828006D01*
X34632605Y-74505024D01*
X34891143Y-75130733D01*
X35369449Y-75609874D01*
X35994706Y-75869504D01*
X36671724Y-75870095D01*
X37297433Y-75611557D01*
X37776574Y-75133251D01*
X38036204Y-74507994D01*
X38036795Y-73830976D01*
X38036795Y-84416900D01*
X25819100Y-84416900D01*
X25819100Y-25819100D01*
X46639212Y-25819100D01*
X46580697Y-25956271D01*
X47586900Y-26962474D01*
X48593103Y-25956271D01*
X48534587Y-25819100D01*
X48945800Y-25819100D01*
X48945800Y-26230312D01*
X48808629Y-26171797D01*
X47802426Y-27178000D01*
X48808629Y-28184203D01*
X48945800Y-28125687D01*
X48945800Y-29348544D01*
X48771910Y-28927697D01*
X48488842Y-28644135D01*
X48593103Y-28399729D01*
X47586900Y-27393526D01*
X47371374Y-27609052D01*
X47371374Y-27178000D01*
X46365171Y-26171797D01*
X46098990Y-26285346D01*
X45870646Y-26922694D01*
X45903587Y-27598910D01*
X46098990Y-28070654D01*
X46365171Y-28184203D01*
X47371374Y-27178000D01*
X47371374Y-27609052D01*
X46580697Y-28399729D01*
X46685046Y-28644345D01*
X46403271Y-28925630D01*
X46190143Y-29438900D01*
X46189658Y-29994661D01*
X46401890Y-30508303D01*
X46794530Y-30901629D01*
X47307800Y-31114757D01*
X47863561Y-31115242D01*
X48377203Y-30903010D01*
X48770529Y-30510370D01*
X48945800Y-30088269D01*
X48945800Y-33850312D01*
X48808629Y-33791797D01*
X48593103Y-34007323D01*
X48593103Y-33576271D01*
X48479554Y-33310090D01*
X47842206Y-33081746D01*
X47165990Y-33114687D01*
X46694246Y-33310090D01*
X46580697Y-33576271D01*
X47586900Y-34582474D01*
X48593103Y-33576271D01*
X48593103Y-34007323D01*
X47802426Y-34798000D01*
X48808629Y-35804203D01*
X48945800Y-35745687D01*
X48945800Y-36968544D01*
X48771910Y-36547697D01*
X48488842Y-36264135D01*
X48593103Y-36019729D01*
X47586900Y-35013526D01*
X47371374Y-35229052D01*
X47371374Y-34798000D01*
X46365171Y-33791797D01*
X46098990Y-33905346D01*
X45870646Y-34542694D01*
X45903587Y-35218910D01*
X46098990Y-35690654D01*
X46365171Y-35804203D01*
X47371374Y-34798000D01*
X47371374Y-35229052D01*
X46580697Y-36019729D01*
X46685046Y-36264345D01*
X46403271Y-36545630D01*
X46190143Y-37058900D01*
X46189658Y-37614661D01*
X46401890Y-38128303D01*
X46794530Y-38521629D01*
X47307800Y-38734757D01*
X47863561Y-38735242D01*
X48377203Y-38523010D01*
X48770529Y-38130370D01*
X48945800Y-37708269D01*
X48945800Y-41470312D01*
X48808629Y-41411797D01*
X48593103Y-41627323D01*
X48593103Y-41196271D01*
X48479554Y-40930090D01*
X47842206Y-40701746D01*
X47165990Y-40734687D01*
X46694246Y-40930090D01*
X46580697Y-41196271D01*
X47586900Y-42202474D01*
X48593103Y-41196271D01*
X48593103Y-41627323D01*
X47802426Y-42418000D01*
X48808629Y-43424203D01*
X48945800Y-43365687D01*
X48945800Y-44588544D01*
X48771910Y-44167697D01*
X48488842Y-43884135D01*
X48593103Y-43639729D01*
X47586900Y-42633526D01*
X47371374Y-42849052D01*
X47371374Y-42418000D01*
X46365171Y-41411797D01*
X46098990Y-41525346D01*
X45870646Y-42162694D01*
X45903587Y-42838910D01*
X46098990Y-43310654D01*
X46365171Y-43424203D01*
X47371374Y-42418000D01*
X47371374Y-42849052D01*
X46580697Y-43639729D01*
X46685046Y-43884345D01*
X46403271Y-44165630D01*
X46190143Y-44678900D01*
X46189658Y-45234661D01*
X46401890Y-45748303D01*
X46794530Y-46141629D01*
X47307800Y-46354757D01*
X47863561Y-46355242D01*
X48377203Y-46143010D01*
X48770529Y-45750370D01*
X48945800Y-45328269D01*
X48945800Y-49090312D01*
X48808629Y-49031797D01*
X48593103Y-49247323D01*
X48593103Y-48816271D01*
X48479554Y-48550090D01*
X47842206Y-48321746D01*
X47165990Y-48354687D01*
X46694246Y-48550090D01*
X46580697Y-48816271D01*
X47586900Y-49822474D01*
X48593103Y-48816271D01*
X48593103Y-49247323D01*
X47802426Y-50038000D01*
X48808629Y-51044203D01*
X48945800Y-50985687D01*
X48945800Y-52208544D01*
X48771910Y-51787697D01*
X48488842Y-51504135D01*
X48593103Y-51259729D01*
X47586900Y-50253526D01*
X47371374Y-50469052D01*
X47371374Y-50038000D01*
X46365171Y-49031797D01*
X46098990Y-49145346D01*
X45870646Y-49782694D01*
X45903587Y-50458910D01*
X46098990Y-50930654D01*
X46365171Y-51044203D01*
X47371374Y-50038000D01*
X47371374Y-50469052D01*
X46580697Y-51259729D01*
X46685046Y-51504345D01*
X46403271Y-51785630D01*
X46190143Y-52298900D01*
X46189658Y-52854661D01*
X46401890Y-53368303D01*
X46794530Y-53761629D01*
X47307800Y-53974757D01*
X47863561Y-53975242D01*
X48377203Y-53763010D01*
X48770529Y-53370370D01*
X48945800Y-52948269D01*
X48945800Y-56710312D01*
X48808629Y-56651797D01*
X48593103Y-56867323D01*
X48593103Y-56436271D01*
X48479554Y-56170090D01*
X47842206Y-55941746D01*
X47165990Y-55974687D01*
X46694246Y-56170090D01*
X46580697Y-56436271D01*
X47586900Y-57442474D01*
X48593103Y-56436271D01*
X48593103Y-56867323D01*
X47802426Y-57658000D01*
X48808629Y-58664203D01*
X48945800Y-58605687D01*
X48945800Y-59828544D01*
X48771910Y-59407697D01*
X48488842Y-59124135D01*
X48593103Y-58879729D01*
X47586900Y-57873526D01*
X47371374Y-58089052D01*
X47371374Y-57658000D01*
X46365171Y-56651797D01*
X46098990Y-56765346D01*
X45870646Y-57402694D01*
X45903587Y-58078910D01*
X46098990Y-58550654D01*
X46365171Y-58664203D01*
X47371374Y-57658000D01*
X47371374Y-58089052D01*
X46580697Y-58879729D01*
X46685046Y-59124345D01*
X46403271Y-59405630D01*
X46190143Y-59918900D01*
X46189658Y-60474661D01*
X46401890Y-60988303D01*
X46794530Y-61381629D01*
X47307800Y-61594757D01*
X47863561Y-61595242D01*
X48377203Y-61383010D01*
X48770529Y-60990370D01*
X48945800Y-60568269D01*
X48945800Y-64330312D01*
X48808629Y-64271797D01*
X48593103Y-64487323D01*
X48593103Y-64056271D01*
X48479554Y-63790090D01*
X47842206Y-63561746D01*
X47165990Y-63594687D01*
X46694246Y-63790090D01*
X46580697Y-64056271D01*
X47586900Y-65062474D01*
X48593103Y-64056271D01*
X48593103Y-64487323D01*
X47802426Y-65278000D01*
X48808629Y-66284203D01*
X48945800Y-66225687D01*
X48945800Y-67448544D01*
X48771910Y-67027697D01*
X48488842Y-66744135D01*
X48593103Y-66499729D01*
X47586900Y-65493526D01*
X47371374Y-65709052D01*
X47371374Y-65278000D01*
X46365171Y-64271797D01*
X46098990Y-64385346D01*
X45870646Y-65022694D01*
X45903587Y-65698910D01*
X46098990Y-66170654D01*
X46365171Y-66284203D01*
X47371374Y-65278000D01*
X47371374Y-65709052D01*
X46580697Y-66499729D01*
X46685046Y-66744345D01*
X46403271Y-67025630D01*
X46190143Y-67538900D01*
X46189658Y-68094661D01*
X46401890Y-68608303D01*
X46794530Y-69001629D01*
X47307800Y-69214757D01*
X47863561Y-69215242D01*
X48377203Y-69003010D01*
X48770529Y-68610370D01*
X48945800Y-68188269D01*
X48945800Y-71950312D01*
X48808629Y-71891797D01*
X48593103Y-72107323D01*
X48593103Y-71676271D01*
X48479554Y-71410090D01*
X47842206Y-71181746D01*
X47165990Y-71214687D01*
X46694246Y-71410090D01*
X46580697Y-71676271D01*
X47586900Y-72682474D01*
X48593103Y-71676271D01*
X48593103Y-72107323D01*
X47802426Y-72898000D01*
X48808629Y-73904203D01*
X48945800Y-73845687D01*
X48945800Y-75068544D01*
X48771910Y-74647697D01*
X48488842Y-74364135D01*
X48593103Y-74119729D01*
X47586900Y-73113526D01*
X47371374Y-73329052D01*
X47371374Y-72898000D01*
X46365171Y-71891797D01*
X46098990Y-72005346D01*
X45870646Y-72642694D01*
X45903587Y-73318910D01*
X46098990Y-73790654D01*
X46365171Y-73904203D01*
X47371374Y-72898000D01*
X47371374Y-73329052D01*
X46580697Y-74119729D01*
X46685046Y-74364345D01*
X46403271Y-74645630D01*
X46190143Y-75158900D01*
X46189658Y-75714661D01*
X46401890Y-76228303D01*
X46794530Y-76621629D01*
X47307800Y-76834757D01*
X47863561Y-76835242D01*
X48377203Y-76623010D01*
X48770529Y-76230370D01*
X48945800Y-75808269D01*
X48945800Y-79570312D01*
X48808629Y-79511797D01*
X48593103Y-79727323D01*
X48593103Y-79296271D01*
X48479554Y-79030090D01*
X47842206Y-78801746D01*
X47165990Y-78834687D01*
X46694246Y-79030090D01*
X46580697Y-79296271D01*
X47586900Y-80302474D01*
X48593103Y-79296271D01*
X48593103Y-79727323D01*
X47802426Y-80518000D01*
X48808629Y-81524203D01*
X48945800Y-81465687D01*
X48945800Y-82688544D01*
X48945800Y-82688544D01*
G37*
X48945800Y-82688544D02*
X48771910Y-82267697D01*
X48488842Y-81984135D01*
X48593103Y-81739729D01*
X47586900Y-80733526D01*
X47371374Y-80949052D01*
X47371374Y-80518000D01*
X46365171Y-79511797D01*
X46098990Y-79625346D01*
X45870646Y-80262694D01*
X45903587Y-80938910D01*
X46098990Y-81410654D01*
X46365171Y-81524203D01*
X47371374Y-80518000D01*
X47371374Y-80949052D01*
X46580697Y-81739729D01*
X46685046Y-81984345D01*
X46403271Y-82265630D01*
X46190143Y-82778900D01*
X46189658Y-83334661D01*
X46401890Y-83848303D01*
X46794530Y-84241629D01*
X47216630Y-84416900D01*
X38036795Y-84416900D01*
X38036795Y-73830976D01*
X38036795Y-35730976D01*
X37778257Y-35105267D01*
X37299951Y-34626126D01*
X36674694Y-34366496D01*
X35997676Y-34365905D01*
X35371967Y-34624443D01*
X34892826Y-35102749D01*
X34633196Y-35728006D01*
X34632605Y-36405024D01*
X34891143Y-37030733D01*
X35369449Y-37509874D01*
X35994706Y-37769504D01*
X36671724Y-37770095D01*
X37297433Y-37511557D01*
X37776574Y-37033251D01*
X38036204Y-36407994D01*
X38036795Y-35730976D01*
X38036795Y-73830976D01*
X37778257Y-73205267D01*
X37299951Y-72726126D01*
X36674694Y-72466496D01*
X35997676Y-72465905D01*
X35371967Y-72724443D01*
X34892826Y-73202749D01*
X34633196Y-73828006D01*
X34632605Y-74505024D01*
X34891143Y-75130733D01*
X35369449Y-75609874D01*
X35994706Y-75869504D01*
X36671724Y-75870095D01*
X37297433Y-75611557D01*
X37776574Y-75133251D01*
X38036204Y-74507994D01*
X38036795Y-73830976D01*
X38036795Y-84416900D01*
X25819100Y-84416900D01*
X25819100Y-25819100D01*
X46639212Y-25819100D01*
X46580697Y-25956271D01*
X47586900Y-26962474D01*
X48593103Y-25956271D01*
X48534587Y-25819100D01*
X48945800Y-25819100D01*
X48945800Y-26230312D01*
X48808629Y-26171797D01*
X47802426Y-27178000D01*
X48808629Y-28184203D01*
X48945800Y-28125687D01*
X48945800Y-29348544D01*
X48771910Y-28927697D01*
X48488842Y-28644135D01*
X48593103Y-28399729D01*
X47586900Y-27393526D01*
X47371374Y-27609052D01*
X47371374Y-27178000D01*
X46365171Y-26171797D01*
X46098990Y-26285346D01*
X45870646Y-26922694D01*
X45903587Y-27598910D01*
X46098990Y-28070654D01*
X46365171Y-28184203D01*
X47371374Y-27178000D01*
X47371374Y-27609052D01*
X46580697Y-28399729D01*
X46685046Y-28644345D01*
X46403271Y-28925630D01*
X46190143Y-29438900D01*
X46189658Y-29994661D01*
X46401890Y-30508303D01*
X46794530Y-30901629D01*
X47307800Y-31114757D01*
X47863561Y-31115242D01*
X48377203Y-30903010D01*
X48770529Y-30510370D01*
X48945800Y-30088269D01*
X48945800Y-33850312D01*
X48808629Y-33791797D01*
X48593103Y-34007323D01*
X48593103Y-33576271D01*
X48479554Y-33310090D01*
X47842206Y-33081746D01*
X47165990Y-33114687D01*
X46694246Y-33310090D01*
X46580697Y-33576271D01*
X47586900Y-34582474D01*
X48593103Y-33576271D01*
X48593103Y-34007323D01*
X47802426Y-34798000D01*
X48808629Y-35804203D01*
X48945800Y-35745687D01*
X48945800Y-36968544D01*
X48771910Y-36547697D01*
X48488842Y-36264135D01*
X48593103Y-36019729D01*
X47586900Y-35013526D01*
X47371374Y-35229052D01*
X47371374Y-34798000D01*
X46365171Y-33791797D01*
X46098990Y-33905346D01*
X45870646Y-34542694D01*
X45903587Y-35218910D01*
X46098990Y-35690654D01*
X46365171Y-35804203D01*
X47371374Y-34798000D01*
X47371374Y-35229052D01*
X46580697Y-36019729D01*
X46685046Y-36264345D01*
X46403271Y-36545630D01*
X46190143Y-37058900D01*
X46189658Y-37614661D01*
X46401890Y-38128303D01*
X46794530Y-38521629D01*
X47307800Y-38734757D01*
X47863561Y-38735242D01*
X48377203Y-38523010D01*
X48770529Y-38130370D01*
X48945800Y-37708269D01*
X48945800Y-41470312D01*
X48808629Y-41411797D01*
X48593103Y-41627323D01*
X48593103Y-41196271D01*
X48479554Y-40930090D01*
X47842206Y-40701746D01*
X47165990Y-40734687D01*
X46694246Y-40930090D01*
X46580697Y-41196271D01*
X47586900Y-42202474D01*
X48593103Y-41196271D01*
X48593103Y-41627323D01*
X47802426Y-42418000D01*
X48808629Y-43424203D01*
X48945800Y-43365687D01*
X48945800Y-44588544D01*
X48771910Y-44167697D01*
X48488842Y-43884135D01*
X48593103Y-43639729D01*
X47586900Y-42633526D01*
X47371374Y-42849052D01*
X47371374Y-42418000D01*
X46365171Y-41411797D01*
X46098990Y-41525346D01*
X45870646Y-42162694D01*
X45903587Y-42838910D01*
X46098990Y-43310654D01*
X46365171Y-43424203D01*
X47371374Y-42418000D01*
X47371374Y-42849052D01*
X46580697Y-43639729D01*
X46685046Y-43884345D01*
X46403271Y-44165630D01*
X46190143Y-44678900D01*
X46189658Y-45234661D01*
X46401890Y-45748303D01*
X46794530Y-46141629D01*
X47307800Y-46354757D01*
X47863561Y-46355242D01*
X48377203Y-46143010D01*
X48770529Y-45750370D01*
X48945800Y-45328269D01*
X48945800Y-49090312D01*
X48808629Y-49031797D01*
X48593103Y-49247323D01*
X48593103Y-48816271D01*
X48479554Y-48550090D01*
X47842206Y-48321746D01*
X47165990Y-48354687D01*
X46694246Y-48550090D01*
X46580697Y-48816271D01*
X47586900Y-49822474D01*
X48593103Y-48816271D01*
X48593103Y-49247323D01*
X47802426Y-50038000D01*
X48808629Y-51044203D01*
X48945800Y-50985687D01*
X48945800Y-52208544D01*
X48771910Y-51787697D01*
X48488842Y-51504135D01*
X48593103Y-51259729D01*
X47586900Y-50253526D01*
X47371374Y-50469052D01*
X47371374Y-50038000D01*
X46365171Y-49031797D01*
X46098990Y-49145346D01*
X45870646Y-49782694D01*
X45903587Y-50458910D01*
X46098990Y-50930654D01*
X46365171Y-51044203D01*
X47371374Y-50038000D01*
X47371374Y-50469052D01*
X46580697Y-51259729D01*
X46685046Y-51504345D01*
X46403271Y-51785630D01*
X46190143Y-52298900D01*
X46189658Y-52854661D01*
X46401890Y-53368303D01*
X46794530Y-53761629D01*
X47307800Y-53974757D01*
X47863561Y-53975242D01*
X48377203Y-53763010D01*
X48770529Y-53370370D01*
X48945800Y-52948269D01*
X48945800Y-56710312D01*
X48808629Y-56651797D01*
X48593103Y-56867323D01*
X48593103Y-56436271D01*
X48479554Y-56170090D01*
X47842206Y-55941746D01*
X47165990Y-55974687D01*
X46694246Y-56170090D01*
X46580697Y-56436271D01*
X47586900Y-57442474D01*
X48593103Y-56436271D01*
X48593103Y-56867323D01*
X47802426Y-57658000D01*
X48808629Y-58664203D01*
X48945800Y-58605687D01*
X48945800Y-59828544D01*
X48771910Y-59407697D01*
X48488842Y-59124135D01*
X48593103Y-58879729D01*
X47586900Y-57873526D01*
X47371374Y-58089052D01*
X47371374Y-57658000D01*
X46365171Y-56651797D01*
X46098990Y-56765346D01*
X45870646Y-57402694D01*
X45903587Y-58078910D01*
X46098990Y-58550654D01*
X46365171Y-58664203D01*
X47371374Y-57658000D01*
X47371374Y-58089052D01*
X46580697Y-58879729D01*
X46685046Y-59124345D01*
X46403271Y-59405630D01*
X46190143Y-59918900D01*
X46189658Y-60474661D01*
X46401890Y-60988303D01*
X46794530Y-61381629D01*
X47307800Y-61594757D01*
X47863561Y-61595242D01*
X48377203Y-61383010D01*
X48770529Y-60990370D01*
X48945800Y-60568269D01*
X48945800Y-64330312D01*
X48808629Y-64271797D01*
X48593103Y-64487323D01*
X48593103Y-64056271D01*
X48479554Y-63790090D01*
X47842206Y-63561746D01*
X47165990Y-63594687D01*
X46694246Y-63790090D01*
X46580697Y-64056271D01*
X47586900Y-65062474D01*
X48593103Y-64056271D01*
X48593103Y-64487323D01*
X47802426Y-65278000D01*
X48808629Y-66284203D01*
X48945800Y-66225687D01*
X48945800Y-67448544D01*
X48771910Y-67027697D01*
X48488842Y-66744135D01*
X48593103Y-66499729D01*
X47586900Y-65493526D01*
X47371374Y-65709052D01*
X47371374Y-65278000D01*
X46365171Y-64271797D01*
X46098990Y-64385346D01*
X45870646Y-65022694D01*
X45903587Y-65698910D01*
X46098990Y-66170654D01*
X46365171Y-66284203D01*
X47371374Y-65278000D01*
X47371374Y-65709052D01*
X46580697Y-66499729D01*
X46685046Y-66744345D01*
X46403271Y-67025630D01*
X46190143Y-67538900D01*
X46189658Y-68094661D01*
X46401890Y-68608303D01*
X46794530Y-69001629D01*
X47307800Y-69214757D01*
X47863561Y-69215242D01*
X48377203Y-69003010D01*
X48770529Y-68610370D01*
X48945800Y-68188269D01*
X48945800Y-71950312D01*
X48808629Y-71891797D01*
X48593103Y-72107323D01*
X48593103Y-71676271D01*
X48479554Y-71410090D01*
X47842206Y-71181746D01*
X47165990Y-71214687D01*
X46694246Y-71410090D01*
X46580697Y-71676271D01*
X47586900Y-72682474D01*
X48593103Y-71676271D01*
X48593103Y-72107323D01*
X47802426Y-72898000D01*
X48808629Y-73904203D01*
X48945800Y-73845687D01*
X48945800Y-75068544D01*
X48771910Y-74647697D01*
X48488842Y-74364135D01*
X48593103Y-74119729D01*
X47586900Y-73113526D01*
X47371374Y-73329052D01*
X47371374Y-72898000D01*
X46365171Y-71891797D01*
X46098990Y-72005346D01*
X45870646Y-72642694D01*
X45903587Y-73318910D01*
X46098990Y-73790654D01*
X46365171Y-73904203D01*
X47371374Y-72898000D01*
X47371374Y-73329052D01*
X46580697Y-74119729D01*
X46685046Y-74364345D01*
X46403271Y-74645630D01*
X46190143Y-75158900D01*
X46189658Y-75714661D01*
X46401890Y-76228303D01*
X46794530Y-76621629D01*
X47307800Y-76834757D01*
X47863561Y-76835242D01*
X48377203Y-76623010D01*
X48770529Y-76230370D01*
X48945800Y-75808269D01*
X48945800Y-79570312D01*
X48808629Y-79511797D01*
X48593103Y-79727323D01*
X48593103Y-79296271D01*
X48479554Y-79030090D01*
X47842206Y-78801746D01*
X47165990Y-78834687D01*
X46694246Y-79030090D01*
X46580697Y-79296271D01*
X47586900Y-80302474D01*
X48593103Y-79296271D01*
X48593103Y-79727323D01*
X47802426Y-80518000D01*
X48808629Y-81524203D01*
X48945800Y-81465687D01*
X48945800Y-82688544D01*
M02*
