  0
SECTION
  2
HEADER
  9
$ANGBASE
  50
0.0
  9
$ANGDIR
  70
  1
  9
$MEASUREMENT
  70
0
  0
ENDSEC
  0
SECTION
  2
TABLES
  0
TABLE
  2
LTYPE
  70
1
  0
LTYPE
  2
CONTINUOUS
  70
0
  3
Solid line
  72
65
  73
0
  40
0.0
  0
ENDTAB
  0
TABLE
  2
STYLE
  70
4
  0
STYLE
  2
KICAD
  70
0
  40
0
  41
1
  42
1
  50
0
  71
0
  3
isocp.shx
  0
STYLE
  2
KICADB
  70
0
  40
0
  41
1
  42
1
  50
0
  71
0
  3
isocp.shx
  0
STYLE
  2
KICADI
  70
0
  40
0
  41
1
  42
1
  50
15
  71
0
  3
isocp.shx
  0
STYLE
  2
KICADBI
  70
0
  40
0
  41
1
  42
1
  50
15
  71
0
  3
isocp.shx
  0
ENDTAB
  0
TABLE
  2
LAYER
  70
30
  0
LAYER
  2
BLACK
  70
0
  62
7
  6
CONTINUOUS
  0
LAYER
  2
GRAY1
  70
0
  62
251
  6
CONTINUOUS
  0
LAYER
  2
GRAY2
  70
0
  62
8
  6
CONTINUOUS
  0
LAYER
  2
GRAY3
  70
0
  62
9
  6
CONTINUOUS
  0
LAYER
  2
WHITE
  70
0
  62
7
  6
CONTINUOUS
  0
LAYER
  2
LYELLOW
  70
0
  62
51
  6
CONTINUOUS
  0
LAYER
  2
BLUE1
  70
0
  62
178
  6
CONTINUOUS
  0
LAYER
  2
GREEN1
  70
0
  62
98
  6
CONTINUOUS
  0
LAYER
  2
CYAN1
  70
0
  62
138
  6
CONTINUOUS
  0
LAYER
  2
RED1
  70
0
  62
18
  6
CONTINUOUS
  0
LAYER
  2
MAGENTA1
  70
0
  62
228
  6
CONTINUOUS
  0
LAYER
  2
BROWN1
  70
0
  62
58
  6
CONTINUOUS
  0
LAYER
  2
BLUE2
  70
0
  62
5
  6
CONTINUOUS
  0
LAYER
  2
GREEN2
  70
0
  62
3
  6
CONTINUOUS
  0
LAYER
  2
CYAN2
  70
0
  62
4
  6
CONTINUOUS
  0
LAYER
  2
RED2
  70
0
  62
1
  6
CONTINUOUS
  0
LAYER
  2
MAGENTA2
  70
0
  62
6
  6
CONTINUOUS
  0
LAYER
  2
BROWN2
  70
0
  62
54
  6
CONTINUOUS
  0
LAYER
  2
BLUE3
  70
0
  62
171
  6
CONTINUOUS
  0
LAYER
  2
GREEN3
  70
0
  62
91
  6
CONTINUOUS
  0
LAYER
  2
CYAN3
  70
0
  62
131
  6
CONTINUOUS
  0
LAYER
  2
RED3
  70
0
  62
11
  6
CONTINUOUS
  0
LAYER
  2
MAGENTA3
  70
0
  62
221
  6
CONTINUOUS
  0
LAYER
  2
YELLOW3
  70
0
  62
2
  6
CONTINUOUS
  0
LAYER
  2
BLUE4
  70
0
  62
5
  6
CONTINUOUS
  0
LAYER
  2
GREEN4
  70
0
  62
3
  6
CONTINUOUS
  0
LAYER
  2
CYAN4
  70
0
  62
4
  6
CONTINUOUS
  0
LAYER
  2
RED4
  70
0
  62
1
  6
CONTINUOUS
  0
LAYER
  2
MAGENTA4
  70
0
  62
6
  6
CONTINUOUS
  0
LAYER
  2
YELLOW4
  70
0
  62
2
  6
CONTINUOUS
  0
ENDTAB
  0
ENDSEC
  0
SECTION
  2
ENTITIES
0
LINE
8
Black
10
76.073
20
-38.1889
11
75.3719
21
-38.1889
0
LINE
8
Black
10
75.3719
20
-38.1889
11
75.3719
21
-37.1881
0
LINE
8
Black
10
75.3719
20
-37.1881
11
76.073
21
-37.1881
0
LINE
8
Black
10
76.073
20
-37.1881
11
76.073
21
-38.1889
0
LINE
8
Black
10
76.073
20
-75.7505
11
75.3719
21
-75.7505
0
LINE
8
Black
10
75.3719
20
-75.7505
11
75.3719
21
-74.7497
0
LINE
8
Black
10
75.3719
20
-74.7497
11
76.073
21
-74.7497
0
LINE
8
Black
10
76.073
20
-74.7497
11
76.073
21
-75.7505
0
LINE
8
Black
10
76.073
20
-113.312
11
75.3719
21
-113.312
0
LINE
8
Black
10
75.3719
20
-113.312
11
75.3719
21
-112.311
0
LINE
8
Black
10
75.3719
20
-112.311
11
76.073
21
-112.311
0
LINE
8
Black
10
76.073
20
-112.311
11
76.073
21
-113.312
0
LINE
8
Black
10
75.6633
20
-76.0367
11
75.6785
21
-76.0367
0
LINE
8
Black
10
75.6785
20
-76.0367
11
75.6851
21
-76.0392
0
LINE
8
Black
10
75.6851
20
-76.0392
11
75.6921
21
-76.0399
0
LINE
8
Black
10
75.6921
20
-76.0399
11
75.7057
21
-76.0466
0
LINE
8
Black
10
75.7057
20
-76.0466
11
75.7199
21
-76.0518
0
LINE
8
Black
10
75.7199
20
-76.0518
11
75.7253
21
-76.0564
0
LINE
8
Black
10
75.7253
20
-76.0564
11
75.7316
21
-76.0595
0
LINE
8
Black
10
75.7316
20
-76.0595
11
75.7421
21
-76.0704
0
LINE
8
Black
10
75.7421
20
-76.0704
11
75.7537
21
-76.0802
0
LINE
8
Black
10
75.7537
20
-76.0802
11
75.7572
21
-76.0863
0
LINE
8
Black
10
75.7572
20
-76.0863
11
75.7621
21
-76.0914
0
LINE
8
Black
10
75.7621
20
-76.0914
11
75.8519
21
-76.226
0
LINE
8
Black
10
75.8519
20
-76.226
11
75.9252
21
-76.2993
0
LINE
8
Black
10
75.9252
20
-76.2993
11
76.0035
21
-76.3385
0
LINE
8
Black
10
76.0035
20
-76.3385
11
76.0389
21
-76.3648
0
LINE
8
Black
10
76.0389
20
-76.3648
11
76.0632
21
-76.4016
0
LINE
8
Black
10
76.0632
20
-76.4016
11
76.0735
21
-76.4445
0
LINE
8
Black
10
76.0735
20
-76.4445
11
76.0684
21
-76.4883
0
LINE
8
Black
10
76.0684
20
-76.4883
11
76.0487
21
-76.5278
0
LINE
8
Black
10
76.0487
20
-76.5278
11
76.0167
21
-76.5581
0
LINE
8
Black
10
76.0167
20
-76.5581
11
75.9762
21
-76.5756
0
LINE
8
Black
10
75.9762
20
-76.5756
11
75.9322
21
-76.5783
0
LINE
8
Black
10
75.9322
20
-76.5783
11
75.8899
21
-76.5657
0
LINE
8
Black
10
75.8899
20
-76.5657
11
75.7931
21
-76.5173
0
LINE
8
Black
10
75.7931
20
-76.5173
11
75.7834
21
-76.5101
0
LINE
8
Black
10
75.7834
20
-76.5101
11
75.7834
21
-77.0508
0
LINE
8
Black
10
75.7834
20
-77.0508
11
75.9467
21
-77.0508
0
LINE
8
Black
10
75.9467
20
-77.0508
11
75.9901
21
-77.0585
0
LINE
8
Black
10
75.9901
20
-77.0585
11
76.0283
21
-77.0805
0
LINE
8
Black
10
76.0283
20
-77.0805
11
76.0567
21
-77.1143
0
LINE
8
Black
10
76.0567
20
-77.1143
11
76.0718
21
-77.1558
0
LINE
8
Black
10
76.0718
20
-77.1558
11
76.0718
21
-77.1999
0
LINE
8
Black
10
76.0718
20
-77.1999
11
76.0567
21
-77.2413
0
LINE
8
Black
10
76.0567
20
-77.2413
11
76.0283
21
-77.2751
0
LINE
8
Black
10
76.0283
20
-77.2751
11
75.9901
21
-77.2972
0
LINE
8
Black
10
75.9901
20
-77.2972
11
75.9467
21
-77.3048
0
LINE
8
Black
10
75.9467
20
-77.3048
11
75.3661
21
-77.3048
0
LINE
8
Black
10
75.3661
20
-77.3048
11
75.3227
21
-77.2972
0
LINE
8
Black
10
75.3227
20
-77.2972
11
75.2845
21
-77.2751
0
LINE
8
Black
10
75.2845
20
-77.2751
11
75.2561
21
-77.2413
0
LINE
8
Black
10
75.2561
20
-77.2413
11
75.241
21
-77.1999
0
LINE
8
Black
10
75.241
20
-77.1999
11
75.241
21
-77.1558
0
LINE
8
Black
10
75.241
20
-77.1558
11
75.2561
21
-77.1143
0
LINE
8
Black
10
75.2561
20
-77.1143
11
75.2845
21
-77.0805
0
LINE
8
Black
10
75.2845
20
-77.0805
11
75.3227
21
-77.0585
0
LINE
8
Black
10
75.3227
20
-77.0585
11
75.3661
21
-77.0508
0
LINE
8
Black
10
75.3661
20
-77.0508
11
75.5294
21
-77.0508
0
LINE
8
Black
10
75.5294
20
-77.0508
11
75.5294
21
-76.1618
0
LINE
8
Black
10
75.5294
20
-76.1618
11
75.5306
21
-76.1549
0
LINE
8
Black
10
75.5306
20
-76.1549
11
75.5302
21
-76.1479
0
LINE
8
Black
10
75.5302
20
-76.1479
11
75.5344
21
-76.1333
0
LINE
8
Black
10
75.5344
20
-76.1333
11
75.5371
21
-76.1184
0
LINE
8
Black
10
75.5371
20
-76.1184
11
75.5406
21
-76.1123
0
LINE
8
Black
10
75.5406
20
-76.1123
11
75.5426
21
-76.1055
0
LINE
8
Black
10
75.5426
20
-76.1055
11
75.5515
21
-76.0933
0
LINE
8
Black
10
75.5515
20
-76.0933
11
75.5591
21
-76.0802
0
LINE
8
Black
10
75.5591
20
-76.0802
11
75.5645
21
-76.0757
0
LINE
8
Black
10
75.5645
20
-76.0757
11
75.5687
21
-76.07
0
LINE
8
Black
10
75.5687
20
-76.07
11
75.5813
21
-76.0616
0
LINE
8
Black
10
75.5813
20
-76.0616
11
75.5929
21
-76.0518
0
LINE
8
Black
10
75.5929
20
-76.0518
11
75.5995
21
-76.0494
0
LINE
8
Black
10
75.5995
20
-76.0494
11
75.6054
21
-76.0455
0
LINE
8
Black
10
75.6054
20
-76.0455
11
75.6201
21
-76.0419
0
LINE
8
Black
10
75.6201
20
-76.0419
11
75.6343
21
-76.0367
0
LINE
8
Black
10
75.6343
20
-76.0367
11
75.6414
21
-76.0367
0
LINE
8
Black
10
75.6414
20
-76.0367
11
75.6482
21
-76.0351
0
LINE
8
Black
10
75.6482
20
-76.0351
11
75.6633
21
-76.0367
0
LINE
8
Black
10
76.0385
20
-113.604
11
76.0767
21
-113.626
0
LINE
8
Black
10
76.0767
20
-113.626
11
76.1051
21
-113.66
0
LINE
8
Black
10
76.1051
20
-113.66
11
76.1201
21
-113.702
0
LINE
8
Black
10
76.1201
20
-113.702
11
76.1201
21
-113.746
0
LINE
8
Black
10
76.1201
20
-113.746
11
76.1051
21
-113.787
0
LINE
8
Black
10
76.1051
20
-113.787
11
76.0767
21
-113.821
0
LINE
8
Black
10
76.0767
20
-113.821
11
76.0385
21
-113.843
0
LINE
8
Black
10
76.0385
20
-113.843
11
75.9951
21
-113.851
0
LINE
8
Black
10
75.9951
20
-113.851
11
75.646
21
-113.851
0
LINE
8
Black
10
75.646
20
-113.851
11
75.8004
21
-114.027
0
LINE
8
Black
10
75.8004
20
-114.027
11
75.8068
21
-114.038
0
LINE
8
Black
10
75.8068
20
-114.038
11
75.8148
21
-114.047
0
LINE
8
Black
10
75.8148
20
-114.047
11
75.8181
21
-114.056
0
LINE
8
Black
10
75.8181
20
-114.056
11
75.8232
21
-114.065
0
LINE
8
Black
10
75.8232
20
-114.065
11
75.8256
21
-114.077
0
LINE
8
Black
10
75.8256
20
-114.077
11
75.8299
21
-114.089
0
LINE
8
Black
10
75.8299
20
-114.089
11
75.8299
21
-114.098
0
LINE
8
Black
10
75.8299
20
-114.098
11
75.8318
21
-114.108
0
LINE
8
Black
10
75.8318
20
-114.108
11
75.8299
21
-114.12
0
LINE
8
Black
10
75.8299
20
-114.12
11
75.8299
21
-114.133
0
LINE
8
Black
10
75.8299
20
-114.133
11
75.8265
21
-114.142
0
LINE
8
Black
10
75.8265
20
-114.142
11
75.825
21
-114.152
0
LINE
8
Black
10
75.825
20
-114.152
11
75.819
21
-114.162
0
LINE
8
Black
10
75.819
20
-114.162
11
75.8148
21
-114.174
0
LINE
8
Black
10
75.8148
20
-114.174
11
75.8085
21
-114.182
0
LINE
8
Black
10
75.8085
20
-114.182
11
75.8037
21
-114.19
0
LINE
8
Black
10
75.8037
20
-114.19
11
75.7944
21
-114.198
0
LINE
8
Black
10
75.7944
20
-114.198
11
75.7864
21
-114.208
0
LINE
8
Black
10
75.7864
20
-114.208
11
75.7779
21
-114.213
0
LINE
8
Black
10
75.7779
20
-114.213
11
75.7705
21
-114.219
0
LINE
8
Black
10
75.7705
20
-114.219
11
75.759
21
-114.224
0
LINE
8
Black
10
75.759
20
-114.224
11
75.7482
21
-114.23
0
LINE
8
Black
10
75.7482
20
-114.23
11
75.7386
21
-114.232
0
LINE
8
Black
10
75.7386
20
-114.232
11
75.7294
21
-114.235
0
LINE
8
Black
10
75.7294
20
-114.235
11
75.717
21
-114.236
0
LINE
8
Black
10
75.717
20
-114.236
11
75.7048
21
-114.238
0
LINE
8
Black
10
75.7048
20
-114.238
11
75.5896
21
-114.238
0
LINE
8
Black
10
75.5896
20
-114.238
11
75.5381
21
-114.263
0
LINE
8
Black
10
75.5381
20
-114.263
11
75.5189
21
-114.283
0
LINE
8
Black
10
75.5189
20
-114.283
11
75.4931
21
-114.334
0
LINE
8
Black
10
75.4931
20
-114.334
11
75.4931
21
-114.516
0
LINE
8
Black
10
75.4931
20
-114.516
11
75.5189
21
-114.568
0
LINE
8
Black
10
75.5189
20
-114.568
11
75.5381
21
-114.587
0
LINE
8
Black
10
75.5381
20
-114.587
11
75.5896
21
-114.613
0
LINE
8
Black
10
75.5896
20
-114.613
11
75.8199
21
-114.613
0
LINE
8
Black
10
75.8199
20
-114.613
11
75.8715
21
-114.587
0
LINE
8
Black
10
75.8715
20
-114.587
11
75.9053
21
-114.553
0
LINE
8
Black
10
75.9053
20
-114.553
11
75.9414
21
-114.528
0
LINE
8
Black
10
75.9414
20
-114.528
11
75.984
21
-114.516
0
LINE
8
Black
10
75.984
20
-114.516
11
76.0279
21
-114.52
0
LINE
8
Black
10
76.0279
20
-114.52
11
76.0679
21
-114.539
0
LINE
8
Black
10
76.0679
20
-114.539
11
76.0991
21
-114.57
0
LINE
8
Black
10
76.0991
20
-114.57
11
76.1177
21
-114.61
0
LINE
8
Black
10
76.1177
20
-114.61
11
76.1216
21
-114.654
0
LINE
8
Black
10
76.1216
20
-114.654
11
76.1102
21
-114.697
0
LINE
8
Black
10
76.1102
20
-114.697
11
76.0849
21
-114.733
0
LINE
8
Black
10
76.0849
20
-114.733
11
76.0365
21
-114.781
0
LINE
8
Black
10
76.0365
20
-114.781
11
76.0198
21
-114.793
0
LINE
8
Black
10
76.0198
20
-114.793
11
76.0035
21
-114.805
0
LINE
8
Black
10
76.0035
20
-114.805
11
75.9067
21
-114.853
0
LINE
8
Black
10
75.9067
20
-114.853
11
75.8997
21
-114.855
0
LINE
8
Black
10
75.8997
20
-114.855
11
75.8934
21
-114.859
0
LINE
8
Black
10
75.8934
20
-114.859
11
75.8787
21
-114.862
0
LINE
8
Black
10
75.8787
20
-114.862
11
75.8644
21
-114.866
0
LINE
8
Black
10
75.8644
20
-114.866
11
75.8571
21
-114.865
0
LINE
8
Black
10
75.8571
20
-114.865
11
75.8499
21
-114.867
0
LINE
8
Black
10
75.8499
20
-114.867
11
75.5596
21
-114.867
0
LINE
8
Black
10
75.5596
20
-114.867
11
75.5524
21
-114.865
0
LINE
8
Black
10
75.5524
20
-114.865
11
75.5451
21
-114.866
0
LINE
8
Black
10
75.5451
20
-114.866
11
75.5309
21
-114.862
0
LINE
8
Black
10
75.5309
20
-114.862
11
75.5162
21
-114.859
0
LINE
8
Black
10
75.5162
20
-114.859
11
75.5099
21
-114.855
0
LINE
8
Black
10
75.5099
20
-114.855
11
75.5028
21
-114.853
0
LINE
8
Black
10
75.5028
20
-114.853
11
75.4061
21
-114.805
0
LINE
8
Black
10
75.4061
20
-114.805
11
75.3897
21
-114.793
0
LINE
8
Black
10
75.3897
20
-114.793
11
75.3731
21
-114.781
0
LINE
8
Black
10
75.3731
20
-114.781
11
75.3247
21
-114.733
0
LINE
8
Black
10
75.3247
20
-114.733
11
75.313
21
-114.716
0
LINE
8
Black
10
75.313
20
-114.716
11
75.3009
21
-114.7
0
LINE
8
Black
10
75.3009
20
-114.7
11
75.2525
21
-114.603
0
LINE
8
Black
10
75.2525
20
-114.603
11
75.2504
21
-114.596
0
LINE
8
Black
10
75.2504
20
-114.596
11
75.2468
21
-114.59
0
LINE
8
Black
10
75.2468
20
-114.59
11
75.2442
21
-114.575
0
LINE
8
Black
10
75.2442
20
-114.575
11
75.2399
21
-114.561
0
LINE
8
Black
10
75.2399
20
-114.561
11
75.2404
21
-114.553
0
LINE
8
Black
10
75.2404
20
-114.553
11
75.2391
21
-114.546
0
LINE
8
Black
10
75.2391
20
-114.546
11
75.2391
21
-114.304
0
LINE
8
Black
10
75.2391
20
-114.304
11
75.2404
21
-114.297
0
LINE
8
Black
10
75.2404
20
-114.297
11
75.2399
21
-114.29
0
LINE
8
Black
10
75.2399
20
-114.29
11
75.2442
21
-114.275
0
LINE
8
Black
10
75.2442
20
-114.275
11
75.2468
21
-114.261
0
LINE
8
Black
10
75.2468
20
-114.261
11
75.2504
21
-114.254
0
LINE
8
Black
10
75.2504
20
-114.254
11
75.2525
21
-114.247
0
LINE
8
Black
10
75.2525
20
-114.247
11
75.3009
21
-114.151
0
LINE
8
Black
10
75.3009
20
-114.151
11
75.313
21
-114.134
0
LINE
8
Black
10
75.313
20
-114.134
11
75.3247
21
-114.118
0
LINE
8
Black
10
75.3247
20
-114.118
11
75.3731
21
-114.069
0
LINE
8
Black
10
75.3731
20
-114.069
11
75.3897
21
-114.058
0
LINE
8
Black
10
75.3897
20
-114.058
11
75.4061
21
-114.045
0
LINE
8
Black
10
75.4061
20
-114.045
11
75.4568
21
-114.02
0
LINE
8
Black
10
75.4568
20
-114.02
11
75.2705
21
-113.807
0
LINE
8
Black
10
75.2705
20
-113.807
11
75.2641
21
-113.797
0
LINE
8
Black
10
75.2641
20
-113.797
11
75.2561
21
-113.787
0
LINE
8
Black
10
75.2561
20
-113.787
11
75.2528
21
-113.778
0
LINE
8
Black
10
75.2528
20
-113.778
11
75.2477
21
-113.77
0
LINE
8
Black
10
75.2477
20
-113.77
11
75.2453
21
-113.757
0
LINE
8
Black
10
75.2453
20
-113.757
11
75.241
21
-113.746
0
LINE
8
Black
10
75.241
20
-113.746
11
75.241
21
-113.736
0
LINE
8
Black
10
75.241
20
-113.736
11
75.2391
21
-113.726
0
LINE
8
Black
10
75.2391
20
-113.726
11
75.241
21
-113.714
0
LINE
8
Black
10
75.241
20
-113.714
11
75.241
21
-113.702
0
LINE
8
Black
10
75.241
20
-113.702
11
75.2444
21
-113.692
0
LINE
8
Black
10
75.2444
20
-113.692
11
75.2459
21
-113.683
0
LINE
8
Black
10
75.2459
20
-113.683
11
75.2519
21
-113.672
0
LINE
8
Black
10
75.2519
20
-113.672
11
75.2561
21
-113.66
0
LINE
8
Black
10
75.2561
20
-113.66
11
75.2624
21
-113.653
0
LINE
8
Black
10
75.2624
20
-113.653
11
75.2672
21
-113.644
0
LINE
8
Black
10
75.2672
20
-113.644
11
75.2765
21
-113.636
0
LINE
8
Black
10
75.2765
20
-113.636
11
75.2845
21
-113.626
0
LINE
8
Black
10
75.2845
20
-113.626
11
75.293
21
-113.621
0
LINE
8
Black
10
75.293
20
-113.621
11
75.3004
21
-113.615
0
LINE
8
Black
10
75.3004
20
-113.615
11
75.3119
21
-113.61
0
LINE
8
Black
10
75.3119
20
-113.61
11
75.3227
21
-113.604
0
LINE
8
Black
10
75.3227
20
-113.604
11
75.3323
21
-113.603
0
LINE
8
Black
10
75.3323
20
-113.603
11
75.3415
21
-113.599
0
LINE
8
Black
10
75.3415
20
-113.599
11
75.3539
21
-113.599
0
LINE
8
Black
10
75.3539
20
-113.599
11
75.3661
21
-113.597
0
LINE
8
Black
10
75.3661
20
-113.597
11
75.9951
21
-113.597
0
LINE
8
Black
10
75.9951
20
-113.597
11
76.0385
21
-113.604
0
LINE
8
Black
10
76.2867
20
-39.3448
11
76.2804
21
-39.3485
0
LINE
8
Black
10
76.2804
20
-39.3485
11
76.2657
21
-39.3511
0
LINE
8
Black
10
76.2657
20
-39.3511
11
76.2515
21
-39.3553
0
LINE
8
Black
10
76.2515
20
-39.3553
11
76.2442
21
-39.3549
0
LINE
8
Black
10
76.2442
20
-39.3549
11
76.237
21
-39.3562
0
LINE
8
Black
10
76.237
20
-39.3562
11
76.0434
21
-39.3562
0
LINE
8
Black
10
76.0434
20
-39.3562
11
76.0382
21
-39.3553
0
LINE
8
Black
10
76.0382
20
-39.3553
11
76.0938
21
-39.4385
0
LINE
8
Black
10
76.0938
20
-39.4385
11
76.1187
21
-39.4635
0
LINE
8
Black
10
76.1187
20
-39.4635
11
76.1702
21
-39.4892
0
LINE
8
Black
10
76.1702
20
-39.4892
11
76.3337
21
-39.4892
0
LINE
8
Black
10
76.3337
20
-39.4892
11
76.3772
21
-39.4969
0
LINE
8
Black
10
76.3772
20
-39.4969
11
76.4154
21
-39.5189
0
LINE
8
Black
10
76.4154
20
-39.5189
11
76.4437
21
-39.5527
0
LINE
8
Black
10
76.4437
20
-39.5527
11
76.4588
21
-39.5942
0
LINE
8
Black
10
76.4588
20
-39.5942
11
76.4588
21
-39.6383
0
LINE
8
Black
10
76.4588
20
-39.6383
11
76.4437
21
-39.6797
0
LINE
8
Black
10
76.4437
20
-39.6797
11
76.4154
21
-39.7135
0
LINE
8
Black
10
76.4154
20
-39.7135
11
76.3772
21
-39.7356
0
LINE
8
Black
10
76.3772
20
-39.7356
11
76.3337
21
-39.7432
0
LINE
8
Black
10
76.3337
20
-39.7432
11
76.1402
21
-39.7432
0
LINE
8
Black
10
76.1402
20
-39.7432
11
76.133
21
-39.7419
0
LINE
8
Black
10
76.133
20
-39.7419
11
76.1257
21
-39.7424
0
LINE
8
Black
10
76.1257
20
-39.7424
11
76.1114
21
-39.7381
0
LINE
8
Black
10
76.1114
20
-39.7381
11
76.0968
21
-39.7356
0
LINE
8
Black
10
76.0968
20
-39.7356
11
76.0904
21
-39.7319
0
LINE
8
Black
10
76.0904
20
-39.7319
11
76.0834
21
-39.7298
0
LINE
8
Black
10
76.0834
20
-39.7298
11
75.9867
21
-39.6814
0
LINE
8
Black
10
75.9867
20
-39.6814
11
75.9703
21
-39.6693
0
LINE
8
Black
10
75.9703
20
-39.6693
11
75.9536
21
-39.6576
0
LINE
8
Black
10
75.9536
20
-39.6576
11
75.9053
21
-39.6093
0
LINE
8
Black
10
75.9053
20
-39.6093
11
75.8981
21
-39.599
0
LINE
8
Black
10
75.8981
20
-39.599
11
75.8894
21
-39.5899
0
LINE
8
Black
10
75.8894
20
-39.5899
11
75.7926
21
-39.4448
0
LINE
8
Black
10
75.7926
20
-39.4448
11
75.7839
21
-39.425
0
LINE
8
Black
10
75.7839
20
-39.425
11
75.7751
21
-39.4051
0
LINE
8
Black
10
75.7751
20
-39.4051
11
75.7267
21
-39.2116
0
LINE
8
Black
10
75.7267
20
-39.2116
11
75.7256
21
-39.1961
0
LINE
8
Black
10
75.7256
20
-39.1961
11
75.7229
21
-39.1808
0
LINE
8
Black
10
75.7229
20
-39.1808
11
75.7229
21
-38.7937
0
LINE
8
Black
10
75.7229
20
-38.7937
11
75.7242
21
-38.7865
0
LINE
8
Black
10
75.7242
20
-38.7865
11
75.7238
21
-38.7792
0
LINE
8
Black
10
75.7238
20
-38.7792
11
75.728
21
-38.765
0
LINE
8
Black
10
75.728
20
-38.765
11
75.7306
21
-38.7503
0
LINE
8
Black
10
75.7306
20
-38.7503
11
75.7342
21
-38.744
0
LINE
8
Black
10
75.7342
20
-38.744
11
75.7363
21
-38.7369
0
LINE
8
Black
10
75.7363
20
-38.7369
11
75.7847
21
-38.6402
0
LINE
8
Black
10
75.7847
20
-38.6402
11
75.7968
21
-38.6239
0
LINE
8
Black
10
75.7968
20
-38.6239
11
75.8085
21
-38.6072
0
LINE
8
Black
10
75.8085
20
-38.6072
11
75.8569
21
-38.5588
0
LINE
8
Black
10
75.8569
20
-38.5588
11
75.8736
21
-38.5471
0
LINE
8
Black
10
75.8736
20
-38.5471
11
75.8899
21
-38.535
0
LINE
8
Black
10
75.8899
20
-38.535
11
75.9867
21
-38.4866
0
LINE
8
Black
10
75.9867
20
-38.4866
11
75.9937
21
-38.4845
0
LINE
8
Black
10
75.9937
20
-38.4845
11
76
21
-38.4809
0
LINE
8
Black
10
76
20
-38.4809
11
76.0147
21
-38.4783
0
LINE
8
Black
10
76.0147
20
-38.4783
11
76.0289
21
-38.4741
0
LINE
8
Black
10
76.0289
20
-38.4741
11
76.0362
21
-38.4745
0
LINE
8
Black
10
76.0362
20
-38.4745
11
76.0434
21
-38.4732
0
LINE
8
Black
10
76.0434
20
-38.4732
11
76.237
21
-38.4732
0
LINE
8
Black
10
76.237
20
-38.4732
11
76.2442
21
-38.4745
0
LINE
8
Black
10
76.2442
20
-38.4745
11
76.2515
21
-38.4741
0
LINE
8
Black
10
76.2515
20
-38.4741
11
76.2657
21
-38.4783
0
LINE
8
Black
10
76.2657
20
-38.4783
11
76.2804
21
-38.4809
0
LINE
8
Black
10
76.2804
20
-38.4809
11
76.2867
21
-38.4845
0
LINE
8
Black
10
76.2867
20
-38.4845
11
76.2938
21
-38.4866
0
LINE
8
Black
10
76.2938
20
-38.4866
11
76.3905
21
-38.535
0
LINE
8
Black
10
76.3905
20
-38.535
11
76.4069
21
-38.5471
0
LINE
8
Black
10
76.4069
20
-38.5471
11
76.4235
21
-38.5588
0
LINE
8
Black
10
76.4235
20
-38.5588
11
76.4719
21
-38.6072
0
LINE
8
Black
10
76.4719
20
-38.6072
11
76.4836
21
-38.6239
0
LINE
8
Black
10
76.4836
20
-38.6239
11
76.4957
21
-38.6402
0
LINE
8
Black
10
76.4957
20
-38.6402
11
76.5441
21
-38.7369
0
LINE
8
Black
10
76.5441
20
-38.7369
11
76.5462
21
-38.744
0
LINE
8
Black
10
76.5462
20
-38.744
11
76.5498
21
-38.7503
0
LINE
8
Black
10
76.5498
20
-38.7503
11
76.5524
21
-38.765
0
LINE
8
Black
10
76.5524
20
-38.765
11
76.5567
21
-38.7792
0
LINE
8
Black
10
76.5567
20
-38.7792
11
76.5562
21
-38.7865
0
LINE
8
Black
10
76.5562
20
-38.7865
11
76.5575
21
-38.7937
0
LINE
8
Black
10
76.5575
20
-38.7937
11
76.5575
21
-39.0356
0
LINE
8
Black
10
76.5575
20
-39.0356
11
76.5562
21
-39.0429
0
LINE
8
Black
10
76.5562
20
-39.0429
11
76.5567
21
-39.0502
0
LINE
8
Black
10
76.5567
20
-39.0502
11
76.5524
21
-39.0644
0
LINE
8
Black
10
76.5524
20
-39.0644
11
76.5498
21
-39.0791
0
LINE
8
Black
10
76.5498
20
-39.0791
11
76.5462
21
-39.0854
0
LINE
8
Black
10
76.5462
20
-39.0854
11
76.5441
21
-39.0924
0
LINE
8
Black
10
76.5441
20
-39.0924
11
76.4957
21
-39.1892
0
LINE
8
Black
10
76.4957
20
-39.1892
11
76.4836
21
-39.2055
0
LINE
8
Black
10
76.4836
20
-39.2055
11
76.4719
21
-39.2222
0
LINE
8
Black
10
76.4719
20
-39.2222
11
76.4235
21
-39.2706
0
LINE
8
Black
10
76.4235
20
-39.2706
11
76.4069
21
-39.2823
0
LINE
8
Black
10
76.4069
20
-39.2823
11
76.3905
21
-39.2944
0
LINE
8
Black
10
76.3905
20
-39.2944
11
76.2938
21
-39.3428
0
LINE
8
Black
10
76.2938
20
-39.3428
11
76.2867
21
-39.3448
0
LINE
8
Black
10
76.2777
20
-38.7722
11
76.2585
21
-38.753
0
LINE
8
Black
10
76.2585
20
-38.753
11
76.207
21
-38.7272
0
LINE
8
Black
10
76.207
20
-38.7272
11
76.0734
21
-38.7272
0
LINE
8
Black
10
76.0734
20
-38.7272
11
76.0219
21
-38.753
0
LINE
8
Black
10
76.0219
20
-38.753
11
76.0027
21
-38.7722
0
LINE
8
Black
10
76.0027
20
-38.7722
11
75.9769
21
-38.8237
0
LINE
8
Black
10
75.9769
20
-38.8237
11
75.9769
21
-39.0057
0
LINE
8
Black
10
75.9769
20
-39.0057
11
76.0027
21
-39.0572
0
LINE
8
Black
10
76.0027
20
-39.0572
11
76.0219
21
-39.0764
0
LINE
8
Black
10
76.0219
20
-39.0764
11
76.0734
21
-39.1022
0
LINE
8
Black
10
76.0734
20
-39.1022
11
76.207
21
-39.1022
0
LINE
8
Black
10
76.207
20
-39.1022
11
76.2585
21
-39.0764
0
LINE
8
Black
10
76.2585
20
-39.0764
11
76.2777
21
-39.0572
0
LINE
8
Black
10
76.2777
20
-39.0572
11
76.3035
21
-39.0057
0
LINE
8
Black
10
76.3035
20
-39.0057
11
76.3035
21
-38.8237
0
LINE
8
Black
10
76.3035
20
-38.8237
11
76.2777
21
-38.7722
0
LINE
8
Black
10
77.0229
20
-35.7911
11
76.3219
21
-35.7911
0
LINE
8
Black
10
76.3219
20
-35.7911
11
76.3219
21
-34.7903
0
LINE
8
Black
10
76.3219
20
-34.7903
11
77.0229
21
-34.7903
0
LINE
8
Black
10
77.0229
20
-34.7903
11
77.0229
21
-35.7911
0
LINE
8
Black
10
77.0229
20
-73.3527
11
76.3219
21
-73.3527
0
LINE
8
Black
10
76.3219
20
-73.3527
11
76.3219
21
-72.3519
0
LINE
8
Black
10
76.3219
20
-72.3519
11
77.0229
21
-72.3519
0
LINE
8
Black
10
77.0229
20
-72.3519
11
77.0229
21
-73.3527
0
LINE
8
Black
10
77.0229
20
-110.914
11
76.3219
21
-110.914
0
LINE
8
Black
10
76.3219
20
-110.914
11
76.3219
21
-109.914
0
LINE
8
Black
10
76.3219
20
-109.914
11
77.0229
21
-109.914
0
LINE
8
Black
10
77.0229
20
-109.914
11
77.0229
21
-110.914
0
LINE
8
Black
10
76.6309
20
-76.0367
11
76.6461
21
-76.0367
0
LINE
8
Black
10
76.6461
20
-76.0367
11
76.6527
21
-76.0392
0
LINE
8
Black
10
76.6527
20
-76.0392
11
76.6597
21
-76.0399
0
LINE
8
Black
10
76.6597
20
-76.0399
11
76.6733
21
-76.0466
0
LINE
8
Black
10
76.6733
20
-76.0466
11
76.6875
21
-76.0518
0
LINE
8
Black
10
76.6875
20
-76.0518
11
76.6929
21
-76.0564
0
LINE
8
Black
10
76.6929
20
-76.0564
11
76.6992
21
-76.0595
0
LINE
8
Black
10
76.6992
20
-76.0595
11
76.7097
21
-76.0704
0
LINE
8
Black
10
76.7097
20
-76.0704
11
76.7213
21
-76.0802
0
LINE
8
Black
10
76.7213
20
-76.0802
11
76.7248
21
-76.0863
0
LINE
8
Black
10
76.7248
20
-76.0863
11
76.7297
21
-76.0914
0
LINE
8
Black
10
76.7297
20
-76.0914
11
76.8195
21
-76.226
0
LINE
8
Black
10
76.8195
20
-76.226
11
76.8928
21
-76.2993
0
LINE
8
Black
10
76.8928
20
-76.2993
11
76.9711
21
-76.3385
0
LINE
8
Black
10
76.9711
20
-76.3385
11
77.0065
21
-76.3648
0
LINE
8
Black
10
77.0065
20
-76.3648
11
77.0308
21
-76.4016
0
LINE
8
Black
10
77.0308
20
-76.4016
11
77.0411
21
-76.4445
0
LINE
8
Black
10
77.0411
20
-76.4445
11
77.036
21
-76.4883
0
LINE
8
Black
10
77.036
20
-76.4883
11
77.0163
21
-76.5278
0
LINE
8
Black
10
77.0163
20
-76.5278
11
76.9843
21
-76.5581
0
LINE
8
Black
10
76.9843
20
-76.5581
11
76.9438
21
-76.5756
0
LINE
8
Black
10
76.9438
20
-76.5756
11
76.8998
21
-76.5783
0
LINE
8
Black
10
76.8998
20
-76.5783
11
76.8575
21
-76.5657
0
LINE
8
Black
10
76.8575
20
-76.5657
11
76.7607
21
-76.5173
0
LINE
8
Black
10
76.7607
20
-76.5173
11
76.751
21
-76.5101
0
LINE
8
Black
10
76.751
20
-76.5101
11
76.751
21
-77.0508
0
LINE
8
Black
10
76.751
20
-77.0508
11
76.9143
21
-77.0508
0
LINE
8
Black
10
76.9143
20
-77.0508
11
76.9577
21
-77.0585
0
LINE
8
Black
10
76.9577
20
-77.0585
11
76.9959
21
-77.0805
0
LINE
8
Black
10
76.9959
20
-77.0805
11
77.0243
21
-77.1143
0
LINE
8
Black
10
77.0243
20
-77.1143
11
77.0394
21
-77.1558
0
LINE
8
Black
10
77.0394
20
-77.1558
11
77.0394
21
-77.1999
0
LINE
8
Black
10
77.0394
20
-77.1999
11
77.0243
21
-77.2413
0
LINE
8
Black
10
77.0243
20
-77.2413
11
76.9959
21
-77.2751
0
LINE
8
Black
10
76.9959
20
-77.2751
11
76.9577
21
-77.2972
0
LINE
8
Black
10
76.9577
20
-77.2972
11
76.9143
21
-77.3048
0
LINE
8
Black
10
76.9143
20
-77.3048
11
76.3337
21
-77.3048
0
LINE
8
Black
10
76.3337
20
-77.3048
11
76.2903
21
-77.2972
0
LINE
8
Black
10
76.2903
20
-77.2972
11
76.2521
21
-77.2751
0
LINE
8
Black
10
76.2521
20
-77.2751
11
76.2237
21
-77.2413
0
LINE
8
Black
10
76.2237
20
-77.2413
11
76.2087
21
-77.1999
0
LINE
8
Black
10
76.2087
20
-77.1999
11
76.2087
21
-77.1558
0
LINE
8
Black
10
76.2087
20
-77.1558
11
76.2237
21
-77.1143
0
LINE
8
Black
10
76.2237
20
-77.1143
11
76.2521
21
-77.0805
0
LINE
8
Black
10
76.2521
20
-77.0805
11
76.2903
21
-77.0585
0
LINE
8
Black
10
76.2903
20
-77.0585
11
76.3337
21
-77.0508
0
LINE
8
Black
10
76.3337
20
-77.0508
11
76.497
21
-77.0508
0
LINE
8
Black
10
76.497
20
-77.0508
11
76.497
21
-76.1618
0
LINE
8
Black
10
76.497
20
-76.1618
11
76.4982
21
-76.1549
0
LINE
8
Black
10
76.4982
20
-76.1549
11
76.4978
21
-76.1479
0
LINE
8
Black
10
76.4978
20
-76.1479
11
76.502
21
-76.1333
0
LINE
8
Black
10
76.502
20
-76.1333
11
76.5047
21
-76.1184
0
LINE
8
Black
10
76.5047
20
-76.1184
11
76.5082
21
-76.1123
0
LINE
8
Black
10
76.5082
20
-76.1123
11
76.5102
21
-76.1055
0
LINE
8
Black
10
76.5102
20
-76.1055
11
76.5191
21
-76.0933
0
LINE
8
Black
10
76.5191
20
-76.0933
11
76.5267
21
-76.0802
0
LINE
8
Black
10
76.5267
20
-76.0802
11
76.5321
21
-76.0757
0
LINE
8
Black
10
76.5321
20
-76.0757
11
76.5363
21
-76.07
0
LINE
8
Black
10
76.5363
20
-76.07
11
76.5489
21
-76.0616
0
LINE
8
Black
10
76.5489
20
-76.0616
11
76.5605
21
-76.0518
0
LINE
8
Black
10
76.5605
20
-76.0518
11
76.5671
21
-76.0494
0
LINE
8
Black
10
76.5671
20
-76.0494
11
76.573
21
-76.0455
0
LINE
8
Black
10
76.573
20
-76.0455
11
76.5877
21
-76.0419
0
LINE
8
Black
10
76.5877
20
-76.0419
11
76.602
21
-76.0367
0
LINE
8
Black
10
76.602
20
-76.0367
11
76.609
21
-76.0367
0
LINE
8
Black
10
76.609
20
-76.0367
11
76.6158
21
-76.0351
0
LINE
8
Black
10
76.6158
20
-76.0351
11
76.6309
21
-76.0367
0
LINE
8
Black
10
76.6309
20
-113.599
11
76.6461
21
-113.599
0
LINE
8
Black
10
76.6461
20
-113.599
11
76.6527
21
-113.601
0
LINE
8
Black
10
76.6527
20
-113.601
11
76.6597
21
-113.602
0
LINE
8
Black
10
76.6597
20
-113.602
11
76.6733
21
-113.608
0
LINE
8
Black
10
76.6733
20
-113.608
11
76.6875
21
-113.614
0
LINE
8
Black
10
76.6875
20
-113.614
11
76.6929
21
-113.618
0
LINE
8
Black
10
76.6929
20
-113.618
11
76.6992
21
-113.621
0
LINE
8
Black
10
76.6992
20
-113.621
11
76.7097
21
-113.632
0
LINE
8
Black
10
76.7097
20
-113.632
11
76.7213
21
-113.642
0
LINE
8
Black
10
76.7213
20
-113.642
11
76.7248
21
-113.648
0
LINE
8
Black
10
76.7248
20
-113.648
11
76.7297
21
-113.653
0
LINE
8
Black
10
76.7297
20
-113.653
11
76.8195
21
-113.788
0
LINE
8
Black
10
76.8195
20
-113.788
11
76.8928
21
-113.861
0
LINE
8
Black
10
76.8928
20
-113.861
11
76.9711
21
-113.9
0
LINE
8
Black
10
76.9711
20
-113.9
11
77.0065
21
-113.927
0
LINE
8
Black
10
77.0065
20
-113.927
11
77.0308
21
-113.963
0
LINE
8
Black
10
77.0308
20
-113.963
11
77.0411
21
-114.006
0
LINE
8
Black
10
77.0411
20
-114.006
11
77.036
21
-114.05
0
LINE
8
Black
10
77.036
20
-114.05
11
77.0163
21
-114.09
0
LINE
8
Black
10
77.0163
20
-114.09
11
76.9843
21
-114.12
0
LINE
8
Black
10
76.9843
20
-114.12
11
76.9438
21
-114.137
0
LINE
8
Black
10
76.9438
20
-114.137
11
76.8998
21
-114.14
0
LINE
8
Black
10
76.8998
20
-114.14
11
76.8575
21
-114.127
0
LINE
8
Black
10
76.8575
20
-114.127
11
76.7607
21
-114.079
0
LINE
8
Black
10
76.7607
20
-114.079
11
76.751
21
-114.072
0
LINE
8
Black
10
76.751
20
-114.072
11
76.751
21
-114.613
0
LINE
8
Black
10
76.751
20
-114.613
11
76.9143
21
-114.613
0
LINE
8
Black
10
76.9143
20
-114.613
11
76.9577
21
-114.62
0
LINE
8
Black
10
76.9577
20
-114.62
11
76.9959
21
-114.642
0
LINE
8
Black
10
76.9959
20
-114.642
11
77.0243
21
-114.676
0
LINE
8
Black
10
77.0243
20
-114.676
11
77.0394
21
-114.718
0
LINE
8
Black
10
77.0394
20
-114.718
11
77.0394
21
-114.762
0
LINE
8
Black
10
77.0394
20
-114.762
11
77.0243
21
-114.803
0
LINE
8
Black
10
77.0243
20
-114.803
11
76.9959
21
-114.837
0
LINE
8
Black
10
76.9959
20
-114.837
11
76.9577
21
-114.859
0
LINE
8
Black
10
76.9577
20
-114.859
11
76.9143
21
-114.867
0
LINE
8
Black
10
76.9143
20
-114.867
11
76.3337
21
-114.867
0
LINE
8
Black
10
76.3337
20
-114.867
11
76.2903
21
-114.859
0
LINE
8
Black
10
76.2903
20
-114.859
11
76.2521
21
-114.837
0
LINE
8
Black
10
76.2521
20
-114.837
11
76.2237
21
-114.803
0
LINE
8
Black
10
76.2237
20
-114.803
11
76.2087
21
-114.762
0
LINE
8
Black
10
76.2087
20
-114.762
11
76.2087
21
-114.718
0
LINE
8
Black
10
76.2087
20
-114.718
11
76.2237
21
-114.676
0
LINE
8
Black
10
76.2237
20
-114.676
11
76.2521
21
-114.642
0
LINE
8
Black
10
76.2521
20
-114.642
11
76.2903
21
-114.62
0
LINE
8
Black
10
76.2903
20
-114.62
11
76.3337
21
-114.613
0
LINE
8
Black
10
76.3337
20
-114.613
11
76.497
21
-114.613
0
LINE
8
Black
10
76.497
20
-114.613
11
76.497
21
-113.724
0
LINE
8
Black
10
76.497
20
-113.724
11
76.4982
21
-113.717
0
LINE
8
Black
10
76.4982
20
-113.717
11
76.4978
21
-113.71
0
LINE
8
Black
10
76.4978
20
-113.71
11
76.502
21
-113.695
0
LINE
8
Black
10
76.502
20
-113.695
11
76.5047
21
-113.68
0
LINE
8
Black
10
76.5047
20
-113.68
11
76.5082
21
-113.674
0
LINE
8
Black
10
76.5082
20
-113.674
11
76.5102
21
-113.667
0
LINE
8
Black
10
76.5102
20
-113.667
11
76.5191
21
-113.655
0
LINE
8
Black
10
76.5191
20
-113.655
11
76.5267
21
-113.642
0
LINE
8
Black
10
76.5267
20
-113.642
11
76.5321
21
-113.637
0
LINE
8
Black
10
76.5321
20
-113.637
11
76.5363
21
-113.632
0
LINE
8
Black
10
76.5363
20
-113.632
11
76.5489
21
-113.623
0
LINE
8
Black
10
76.5489
20
-113.623
11
76.5605
21
-113.614
0
LINE
8
Black
10
76.5605
20
-113.614
11
76.5671
21
-113.611
0
LINE
8
Black
10
76.5671
20
-113.611
11
76.573
21
-113.607
0
LINE
8
Black
10
76.573
20
-113.607
11
76.5877
21
-113.604
0
LINE
8
Black
10
76.5877
20
-113.604
11
76.602
21
-113.599
0
LINE
8
Black
10
76.602
20
-113.599
11
76.609
21
-113.599
0
LINE
8
Black
10
76.609
20
-113.599
11
76.6158
21
-113.597
0
LINE
8
Black
10
76.6158
20
-113.597
11
76.6309
21
-113.599
0
LINE
8
Black
10
76.9294
20
-38.4902
11
76.9632
21
-38.5186
0
LINE
8
Black
10
76.9632
20
-38.5186
11
76.9853
21
-38.5568
0
LINE
8
Black
10
76.9853
20
-38.5568
11
76.9929
21
-38.6002
0
LINE
8
Black
10
76.9929
20
-38.6002
11
76.9929
21
-39.3927
0
LINE
8
Black
10
76.9929
20
-39.3927
11
77.0187
21
-39.4442
0
LINE
8
Black
10
77.0187
20
-39.4442
11
77.0379
21
-39.4635
0
LINE
8
Black
10
77.0379
20
-39.4635
11
77.0894
21
-39.4892
0
LINE
8
Black
10
77.0894
20
-39.4892
11
77.223
21
-39.4892
0
LINE
8
Black
10
77.223
20
-39.4892
11
77.2745
21
-39.4635
0
LINE
8
Black
10
77.2745
20
-39.4635
11
77.2937
21
-39.4442
0
LINE
8
Black
10
77.2937
20
-39.4442
11
77.3195
21
-39.3927
0
LINE
8
Black
10
77.3195
20
-39.3927
11
77.3195
21
-38.6002
0
LINE
8
Black
10
77.3195
20
-38.6002
11
77.3272
21
-38.5568
0
LINE
8
Black
10
77.3272
20
-38.5568
11
77.3492
21
-38.5186
0
LINE
8
Black
10
77.3492
20
-38.5186
11
77.383
21
-38.4902
0
LINE
8
Black
10
77.383
20
-38.4902
11
77.4244
21
-38.4751
0
LINE
8
Black
10
77.4244
20
-38.4751
11
77.4685
21
-38.4751
0
LINE
8
Black
10
77.4685
20
-38.4751
11
77.51
21
-38.4902
0
LINE
8
Black
10
77.51
20
-38.4902
11
77.5438
21
-38.5186
0
LINE
8
Black
10
77.5438
20
-38.5186
11
77.5658
21
-38.5568
0
LINE
8
Black
10
77.5658
20
-38.5568
11
77.5735
21
-38.6002
0
LINE
8
Black
10
77.5735
20
-38.6002
11
77.5735
21
-39.4227
0
LINE
8
Black
10
77.5735
20
-39.4227
11
77.5722
21
-39.4299
0
LINE
8
Black
10
77.5722
20
-39.4299
11
77.5727
21
-39.4372
0
LINE
8
Black
10
77.5727
20
-39.4372
11
77.5684
21
-39.4515
0
LINE
8
Black
10
77.5684
20
-39.4515
11
77.5658
21
-39.4661
0
LINE
8
Black
10
77.5658
20
-39.4661
11
77.5622
21
-39.4725
0
LINE
8
Black
10
77.5622
20
-39.4725
11
77.5601
21
-39.4795
0
LINE
8
Black
10
77.5601
20
-39.4795
11
77.5117
21
-39.5763
0
LINE
8
Black
10
77.5117
20
-39.5763
11
77.4996
21
-39.5926
0
LINE
8
Black
10
77.4996
20
-39.5926
11
77.4879
21
-39.6093
0
LINE
8
Black
10
77.4879
20
-39.6093
11
77.4395
21
-39.6576
0
LINE
8
Black
10
77.4395
20
-39.6576
11
77.4229
21
-39.6693
0
LINE
8
Black
10
77.4229
20
-39.6693
11
77.4065
21
-39.6814
0
LINE
8
Black
10
77.4065
20
-39.6814
11
77.3098
21
-39.7298
0
LINE
8
Black
10
77.3098
20
-39.7298
11
77.3028
21
-39.7319
0
LINE
8
Black
10
77.3028
20
-39.7319
11
77.2964
21
-39.7356
0
LINE
8
Black
10
77.2964
20
-39.7356
11
77.2818
21
-39.7381
0
LINE
8
Black
10
77.2818
20
-39.7381
11
77.2675
21
-39.7424
0
LINE
8
Black
10
77.2675
20
-39.7424
11
77.2602
21
-39.7419
0
LINE
8
Black
10
77.2602
20
-39.7419
11
77.253
21
-39.7432
0
LINE
8
Black
10
77.253
20
-39.7432
11
77.0594
21
-39.7432
0
LINE
8
Black
10
77.0594
20
-39.7432
11
77.0522
21
-39.7419
0
LINE
8
Black
10
77.0522
20
-39.7419
11
77.0449
21
-39.7424
0
LINE
8
Black
10
77.0449
20
-39.7424
11
77.0307
21
-39.7381
0
LINE
8
Black
10
77.0307
20
-39.7381
11
77.016
21
-39.7356
0
LINE
8
Black
10
77.016
20
-39.7356
11
77.0097
21
-39.7319
0
LINE
8
Black
10
77.0097
20
-39.7319
11
77.0027
21
-39.7298
0
LINE
8
Black
10
77.0027
20
-39.7298
11
76.9059
21
-39.6814
0
LINE
8
Black
10
76.9059
20
-39.6814
11
76.8896
21
-39.6693
0
LINE
8
Black
10
76.8896
20
-39.6693
11
76.8729
21
-39.6576
0
LINE
8
Black
10
76.8729
20
-39.6576
11
76.8245
21
-39.6093
0
LINE
8
Black
10
76.8245
20
-39.6093
11
76.8128
21
-39.5926
0
LINE
8
Black
10
76.8128
20
-39.5926
11
76.8007
21
-39.5763
0
LINE
8
Black
10
76.8007
20
-39.5763
11
76.7523
21
-39.4795
0
LINE
8
Black
10
76.7523
20
-39.4795
11
76.7502
21
-39.4725
0
LINE
8
Black
10
76.7502
20
-39.4725
11
76.7466
21
-39.4661
0
LINE
8
Black
10
76.7466
20
-39.4661
11
76.744
21
-39.4515
0
LINE
8
Black
10
76.744
20
-39.4515
11
76.7398
21
-39.4372
0
LINE
8
Black
10
76.7398
20
-39.4372
11
76.7402
21
-39.4299
0
LINE
8
Black
10
76.7402
20
-39.4299
11
76.7389
21
-39.4227
0
LINE
8
Black
10
76.7389
20
-39.4227
11
76.7389
21
-38.6002
0
LINE
8
Black
10
76.7389
20
-38.6002
11
76.7466
21
-38.5568
0
LINE
8
Black
10
76.7466
20
-38.5568
11
76.7686
21
-38.5186
0
LINE
8
Black
10
76.7686
20
-38.5186
11
76.8024
21
-38.4902
0
LINE
8
Black
10
76.8024
20
-38.4902
11
76.8439
21
-38.4751
0
LINE
8
Black
10
76.8439
20
-38.4751
11
76.888
21
-38.4751
0
LINE
8
Black
10
76.888
20
-38.4751
11
76.9294
21
-38.4902
0
LINE
8
Black
10
77.9729
20
-38.1889
11
77.2718
21
-38.1889
0
LINE
8
Black
10
77.2718
20
-38.1889
11
77.2718
21
-37.1881
0
LINE
8
Black
10
77.2718
20
-37.1881
11
77.9729
21
-37.1881
0
LINE
8
Black
10
77.9729
20
-37.1881
11
77.9729
21
-38.1889
0
LINE
8
Black
10
77.9729
20
-75.7505
11
77.2718
21
-75.7505
0
LINE
8
Black
10
77.2718
20
-75.7505
11
77.2718
21
-74.7497
0
LINE
8
Black
10
77.2718
20
-74.7497
11
77.9729
21
-74.7497
0
LINE
8
Black
10
77.9729
20
-74.7497
11
77.9729
21
-75.7505
0
LINE
8
Black
10
77.9729
20
-113.312
11
77.2718
21
-113.312
0
LINE
8
Black
10
77.2718
20
-113.312
11
77.2718
21
-112.311
0
LINE
8
Black
10
77.2718
20
-112.311
11
77.9729
21
-112.311
0
LINE
8
Black
10
77.9729
20
-112.311
11
77.9729
21
-113.312
0
LINE
8
Black
10
77.9681
20
-36.4191
11
77.9906
21
-36.4321
0
LINE
8
Black
10
77.9906
20
-36.4321
11
78.0074
21
-36.4521
0
LINE
8
Black
10
78.0074
20
-36.4521
11
78.0163
21
-36.4766
0
LINE
8
Black
10
78.0163
20
-36.4766
11
78.0163
21
-36.5026
0
LINE
8
Black
10
78.0163
20
-36.5026
11
78.0074
21
-36.5271
0
LINE
8
Black
10
78.0074
20
-36.5271
11
77.9906
21
-36.5471
0
LINE
8
Black
10
77.9906
20
-36.5471
11
77.9681
21
-36.5601
0
LINE
8
Black
10
77.9681
20
-36.5601
11
77.9424
21
-36.5646
0
LINE
8
Black
10
77.9424
20
-36.5646
11
75.4024
21
-36.5646
0
LINE
8
Black
10
75.4024
20
-36.5646
11
75.3767
21
-36.5601
0
LINE
8
Black
10
75.3767
20
-36.5601
11
75.3542
21
-36.5471
0
LINE
8
Black
10
75.3542
20
-36.5471
11
75.3374
21
-36.5271
0
LINE
8
Black
10
75.3374
20
-36.5271
11
75.3285
21
-36.5026
0
LINE
8
Black
10
75.3285
20
-36.5026
11
75.3285
21
-36.4766
0
LINE
8
Black
10
75.3285
20
-36.4766
11
75.3374
21
-36.4521
0
LINE
8
Black
10
75.3374
20
-36.4521
11
75.3542
21
-36.4321
0
LINE
8
Black
10
75.3542
20
-36.4321
11
75.3767
21
-36.4191
0
LINE
8
Black
10
75.3767
20
-36.4191
11
75.4024
21
-36.4146
0
LINE
8
Black
10
75.4024
20
-36.4146
11
77.9424
21
-36.4146
0
LINE
8
Black
10
77.9424
20
-36.4146
11
77.9681
21
-36.4191
0
LINE
8
Black
10
77.9681
20
-73.9807
11
77.9906
21
-73.9937
0
LINE
8
Black
10
77.9906
20
-73.9937
11
78.0074
21
-74.0137
0
LINE
8
Black
10
78.0074
20
-74.0137
11
78.0163
21
-74.0382
0
LINE
8
Black
10
78.0163
20
-74.0382
11
78.0163
21
-74.0642
0
LINE
8
Black
10
78.0163
20
-74.0642
11
78.0074
21
-74.0887
0
LINE
8
Black
10
78.0074
20
-74.0887
11
77.9906
21
-74.1087
0
LINE
8
Black
10
77.9906
20
-74.1087
11
77.9681
21
-74.1217
0
LINE
8
Black
10
77.9681
20
-74.1217
11
77.9424
21
-74.1262
0
LINE
8
Black
10
77.9424
20
-74.1262
11
75.4024
21
-74.1262
0
LINE
8
Black
10
75.4024
20
-74.1262
11
75.3767
21
-74.1217
0
LINE
8
Black
10
75.3767
20
-74.1217
11
75.3542
21
-74.1087
0
LINE
8
Black
10
75.3542
20
-74.1087
11
75.3374
21
-74.0887
0
LINE
8
Black
10
75.3374
20
-74.0887
11
75.3285
21
-74.0642
0
LINE
8
Black
10
75.3285
20
-74.0642
11
75.3285
21
-74.0382
0
LINE
8
Black
10
75.3285
20
-74.0382
11
75.3374
21
-74.0137
0
LINE
8
Black
10
75.3374
20
-74.0137
11
75.3542
21
-73.9937
0
LINE
8
Black
10
75.3542
20
-73.9937
11
75.3767
21
-73.9807
0
LINE
8
Black
10
75.3767
20
-73.9807
11
75.4024
21
-73.9762
0
LINE
8
Black
10
75.4024
20
-73.9762
11
77.9424
21
-73.9762
0
LINE
8
Black
10
77.9424
20
-73.9762
11
77.9681
21
-73.9807
0
LINE
8
Black
10
77.9681
20
-111.543
11
77.9906
21
-111.556
0
LINE
8
Black
10
77.9906
20
-111.556
11
78.0074
21
-111.575
0
LINE
8
Black
10
78.0074
20
-111.575
11
78.0163
21
-111.6
0
LINE
8
Black
10
78.0163
20
-111.6
11
78.0163
21
-111.626
0
LINE
8
Black
10
78.0163
20
-111.626
11
78.0074
21
-111.65
0
LINE
8
Black
10
78.0074
20
-111.65
11
77.9906
21
-111.67
0
LINE
8
Black
10
77.9906
20
-111.67
11
77.9681
21
-111.683
0
LINE
8
Black
10
77.9681
20
-111.683
11
77.9424
21
-111.688
0
LINE
8
Black
10
77.9424
20
-111.688
11
75.4024
21
-111.688
0
LINE
8
Black
10
75.4024
20
-111.688
11
75.3767
21
-111.683
0
LINE
8
Black
10
75.3767
20
-111.683
11
75.3542
21
-111.67
0
LINE
8
Black
10
75.3542
20
-111.67
11
75.3374
21
-111.65
0
LINE
8
Black
10
75.3374
20
-111.65
11
75.3285
21
-111.626
0
LINE
8
Black
10
75.3285
20
-111.626
11
75.3285
21
-111.6
0
LINE
8
Black
10
75.3285
20
-111.6
11
75.3374
21
-111.575
0
LINE
8
Black
10
75.3374
20
-111.575
11
75.3542
21
-111.556
0
LINE
8
Black
10
75.3542
20
-111.556
11
75.3767
21
-111.543
0
LINE
8
Black
10
75.3767
20
-111.543
11
75.4024
21
-111.538
0
LINE
8
Black
10
75.4024
20
-111.538
11
77.9424
21
-111.538
0
LINE
8
Black
10
77.9424
20
-111.538
11
77.9681
21
-111.543
0
LINE
8
Black
10
77.4132
20
-76.0518
11
77.447
21
-76.0802
0
LINE
8
Black
10
77.447
20
-76.0802
11
77.4691
21
-76.1184
0
LINE
8
Black
10
77.4691
20
-76.1184
11
77.4767
21
-76.1618
0
LINE
8
Black
10
77.4767
20
-76.1618
11
77.4767
21
-76.9543
0
LINE
8
Black
10
77.4767
20
-76.9543
11
77.5025
21
-77.0058
0
LINE
8
Black
10
77.5025
20
-77.0058
11
77.5217
21
-77.0251
0
LINE
8
Black
10
77.5217
20
-77.0251
11
77.5732
21
-77.0508
0
LINE
8
Black
10
77.5732
20
-77.0508
11
77.7068
21
-77.0508
0
LINE
8
Black
10
77.7068
20
-77.0508
11
77.7583
21
-77.0251
0
LINE
8
Black
10
77.7583
20
-77.0251
11
77.7775
21
-77.0058
0
LINE
8
Black
10
77.7775
20
-77.0058
11
77.8033
21
-76.9543
0
LINE
8
Black
10
77.8033
20
-76.9543
11
77.8033
21
-76.1618
0
LINE
8
Black
10
77.8033
20
-76.1618
11
77.811
21
-76.1184
0
LINE
8
Black
10
77.811
20
-76.1184
11
77.833
21
-76.0802
0
LINE
8
Black
10
77.833
20
-76.0802
11
77.8668
21
-76.0518
0
LINE
8
Black
10
77.8668
20
-76.0518
11
77.9083
21
-76.0367
0
LINE
8
Black
10
77.9083
20
-76.0367
11
77.9524
21
-76.0367
0
LINE
8
Black
10
77.9524
20
-76.0367
11
77.9938
21
-76.0518
0
LINE
8
Black
10
77.9938
20
-76.0518
11
78.0276
21
-76.0802
0
LINE
8
Black
10
78.0276
20
-76.0802
11
78.0496
21
-76.1184
0
LINE
8
Black
10
78.0496
20
-76.1184
11
78.0573
21
-76.1618
0
LINE
8
Black
10
78.0573
20
-76.1618
11
78.0573
21
-76.9843
0
LINE
8
Black
10
78.0573
20
-76.9843
11
78.056
21
-76.9915
0
LINE
8
Black
10
78.056
20
-76.9915
11
78.0565
21
-76.9988
0
LINE
8
Black
10
78.0565
20
-76.9988
11
78.0522
21
-77.0131
0
LINE
8
Black
10
78.0522
20
-77.0131
11
78.0496
21
-77.0277
0
LINE
8
Black
10
78.0496
20
-77.0277
11
78.046
21
-77.0341
0
LINE
8
Black
10
78.046
20
-77.0341
11
78.0439
21
-77.0411
0
LINE
8
Black
10
78.0439
20
-77.0411
11
77.9955
21
-77.1379
0
LINE
8
Black
10
77.9955
20
-77.1379
11
77.9834
21
-77.1542
0
LINE
8
Black
10
77.9834
20
-77.1542
11
77.9717
21
-77.1709
0
LINE
8
Black
10
77.9717
20
-77.1709
11
77.9233
21
-77.2192
0
LINE
8
Black
10
77.9233
20
-77.2192
11
77.9067
21
-77.2309
0
LINE
8
Black
10
77.9067
20
-77.2309
11
77.8903
21
-77.243
0
LINE
8
Black
10
77.8903
20
-77.243
11
77.7936
21
-77.2914
0
LINE
8
Black
10
77.7936
20
-77.2914
11
77.7866
21
-77.2935
0
LINE
8
Black
10
77.7866
20
-77.2935
11
77.7802
21
-77.2972
0
LINE
8
Black
10
77.7802
20
-77.2972
11
77.7656
21
-77.2997
0
LINE
8
Black
10
77.7656
20
-77.2997
11
77.7513
21
-77.304
0
LINE
8
Black
10
77.7513
20
-77.304
11
77.744
21
-77.3035
0
LINE
8
Black
10
77.744
20
-77.3035
11
77.7368
21
-77.3048
0
LINE
8
Black
10
77.7368
20
-77.3048
11
77.5433
21
-77.3048
0
LINE
8
Black
10
77.5433
20
-77.3048
11
77.536
21
-77.3035
0
LINE
8
Black
10
77.536
20
-77.3035
11
77.5287
21
-77.304
0
LINE
8
Black
10
77.5287
20
-77.304
11
77.5145
21
-77.2997
0
LINE
8
Black
10
77.5145
20
-77.2997
11
77.4998
21
-77.2972
0
LINE
8
Black
10
77.4998
20
-77.2972
11
77.4935
21
-77.2935
0
LINE
8
Black
10
77.4935
20
-77.2935
11
77.4865
21
-77.2914
0
LINE
8
Black
10
77.4865
20
-77.2914
11
77.3897
21
-77.243
0
LINE
8
Black
10
77.3897
20
-77.243
11
77.3734
21
-77.2309
0
LINE
8
Black
10
77.3734
20
-77.2309
11
77.3567
21
-77.2192
0
LINE
8
Black
10
77.3567
20
-77.2192
11
77.3083
21
-77.1709
0
LINE
8
Black
10
77.3083
20
-77.1709
11
77.2966
21
-77.1542
0
LINE
8
Black
10
77.2966
20
-77.1542
11
77.2845
21
-77.1379
0
LINE
8
Black
10
77.2845
20
-77.1379
11
77.2361
21
-77.0411
0
LINE
8
Black
10
77.2361
20
-77.0411
11
77.2341
21
-77.0341
0
LINE
8
Black
10
77.2341
20
-77.0341
11
77.2304
21
-77.0277
0
LINE
8
Black
10
77.2304
20
-77.0277
11
77.2278
21
-77.0131
0
LINE
8
Black
10
77.2278
20
-77.0131
11
77.2236
21
-76.9988
0
LINE
8
Black
10
77.2236
20
-76.9988
11
77.224
21
-76.9915
0
LINE
8
Black
10
77.224
20
-76.9915
11
77.2227
21
-76.9843
0
LINE
8
Black
10
77.2227
20
-76.9843
11
77.2227
21
-76.1618
0
LINE
8
Black
10
77.2227
20
-76.1618
11
77.2304
21
-76.1184
0
LINE
8
Black
10
77.2304
20
-76.1184
11
77.2524
21
-76.0802
0
LINE
8
Black
10
77.2524
20
-76.0802
11
77.2862
21
-76.0518
0
LINE
8
Black
10
77.2862
20
-76.0518
11
77.3277
21
-76.0367
0
LINE
8
Black
10
77.3277
20
-76.0367
11
77.3718
21
-76.0367
0
LINE
8
Black
10
77.3718
20
-76.0367
11
77.4132
21
-76.0518
0
LINE
8
Black
10
77.4132
20
-113.614
11
77.447
21
-113.642
0
LINE
8
Black
10
77.447
20
-113.642
11
77.4691
21
-113.68
0
LINE
8
Black
10
77.4691
20
-113.68
11
77.4767
21
-113.724
0
LINE
8
Black
10
77.4767
20
-113.724
11
77.4767
21
-114.516
0
LINE
8
Black
10
77.4767
20
-114.516
11
77.5025
21
-114.568
0
LINE
8
Black
10
77.5025
20
-114.568
11
77.5217
21
-114.587
0
LINE
8
Black
10
77.5217
20
-114.587
11
77.5732
21
-114.613
0
LINE
8
Black
10
77.5732
20
-114.613
11
77.7068
21
-114.613
0
LINE
8
Black
10
77.7068
20
-114.613
11
77.7583
21
-114.587
0
LINE
8
Black
10
77.7583
20
-114.587
11
77.7775
21
-114.568
0
LINE
8
Black
10
77.7775
20
-114.568
11
77.8033
21
-114.516
0
LINE
8
Black
10
77.8033
20
-114.516
11
77.8033
21
-113.724
0
LINE
8
Black
10
77.8033
20
-113.724
11
77.811
21
-113.68
0
LINE
8
Black
10
77.811
20
-113.68
11
77.833
21
-113.642
0
LINE
8
Black
10
77.833
20
-113.642
11
77.8668
21
-113.614
0
LINE
8
Black
10
77.8668
20
-113.614
11
77.9083
21
-113.599
0
LINE
8
Black
10
77.9083
20
-113.599
11
77.9524
21
-113.599
0
LINE
8
Black
10
77.9524
20
-113.599
11
77.9938
21
-113.614
0
LINE
8
Black
10
77.9938
20
-113.614
11
78.0276
21
-113.642
0
LINE
8
Black
10
78.0276
20
-113.642
11
78.0496
21
-113.68
0
LINE
8
Black
10
78.0496
20
-113.68
11
78.0573
21
-113.724
0
LINE
8
Black
10
78.0573
20
-113.724
11
78.0573
21
-114.546
0
LINE
8
Black
10
78.0573
20
-114.546
11
78.056
21
-114.553
0
LINE
8
Black
10
78.056
20
-114.553
11
78.0565
21
-114.561
0
LINE
8
Black
10
78.0565
20
-114.561
11
78.0522
21
-114.575
0
LINE
8
Black
10
78.0522
20
-114.575
11
78.0496
21
-114.59
0
LINE
8
Black
10
78.0496
20
-114.59
11
78.046
21
-114.596
0
LINE
8
Black
10
78.046
20
-114.596
11
78.0439
21
-114.603
0
LINE
8
Black
10
78.0439
20
-114.603
11
77.9955
21
-114.7
0
LINE
8
Black
10
77.9955
20
-114.7
11
77.9834
21
-114.716
0
LINE
8
Black
10
77.9834
20
-114.716
11
77.9717
21
-114.733
0
LINE
8
Black
10
77.9717
20
-114.733
11
77.9233
21
-114.781
0
LINE
8
Black
10
77.9233
20
-114.781
11
77.9067
21
-114.793
0
LINE
8
Black
10
77.9067
20
-114.793
11
77.8903
21
-114.805
0
LINE
8
Black
10
77.8903
20
-114.805
11
77.7936
21
-114.853
0
LINE
8
Black
10
77.7936
20
-114.853
11
77.7866
21
-114.855
0
LINE
8
Black
10
77.7866
20
-114.855
11
77.7802
21
-114.859
0
LINE
8
Black
10
77.7802
20
-114.859
11
77.7656
21
-114.862
0
LINE
8
Black
10
77.7656
20
-114.862
11
77.7513
21
-114.866
0
LINE
8
Black
10
77.7513
20
-114.866
11
77.744
21
-114.865
0
LINE
8
Black
10
77.744
20
-114.865
11
77.7368
21
-114.867
0
LINE
8
Black
10
77.7368
20
-114.867
11
77.5433
21
-114.867
0
LINE
8
Black
10
77.5433
20
-114.867
11
77.536
21
-114.865
0
LINE
8
Black
10
77.536
20
-114.865
11
77.5287
21
-114.866
0
LINE
8
Black
10
77.5287
20
-114.866
11
77.5145
21
-114.862
0
LINE
8
Black
10
77.5145
20
-114.862
11
77.4998
21
-114.859
0
LINE
8
Black
10
77.4998
20
-114.859
11
77.4935
21
-114.855
0
LINE
8
Black
10
77.4935
20
-114.855
11
77.4865
21
-114.853
0
LINE
8
Black
10
77.4865
20
-114.853
11
77.3897
21
-114.805
0
LINE
8
Black
10
77.3897
20
-114.805
11
77.3734
21
-114.793
0
LINE
8
Black
10
77.3734
20
-114.793
11
77.3567
21
-114.781
0
LINE
8
Black
10
77.3567
20
-114.781
11
77.3083
21
-114.733
0
LINE
8
Black
10
77.3083
20
-114.733
11
77.2966
21
-114.716
0
LINE
8
Black
10
77.2966
20
-114.716
11
77.2845
21
-114.7
0
LINE
8
Black
10
77.2845
20
-114.7
11
77.2361
21
-114.603
0
LINE
8
Black
10
77.2361
20
-114.603
11
77.2341
21
-114.596
0
LINE
8
Black
10
77.2341
20
-114.596
11
77.2304
21
-114.59
0
LINE
8
Black
10
77.2304
20
-114.59
11
77.2278
21
-114.575
0
LINE
8
Black
10
77.2278
20
-114.575
11
77.2236
21
-114.561
0
LINE
8
Black
10
77.2236
20
-114.561
11
77.224
21
-114.553
0
LINE
8
Black
10
77.224
20
-114.553
11
77.2227
21
-114.546
0
LINE
8
Black
10
77.2227
20
-114.546
11
77.2227
21
-113.724
0
LINE
8
Black
10
77.2227
20
-113.724
11
77.2304
21
-113.68
0
LINE
8
Black
10
77.2304
20
-113.68
11
77.2524
21
-113.642
0
LINE
8
Black
10
77.2524
20
-113.642
11
77.2862
21
-113.614
0
LINE
8
Black
10
77.2862
20
-113.614
11
77.3277
21
-113.599
0
LINE
8
Black
10
77.3277
20
-113.599
11
77.3718
21
-113.599
0
LINE
8
Black
10
77.3718
20
-113.599
11
77.4132
21
-113.614
0
LINE
8
Black
10
91.2053
20
-144.053
11
91.2126
21
-144.053
0
LINE
8
Black
10
91.2126
20
-144.053
11
91.2269
21
-144.057
0
LINE
8
Black
10
91.2269
20
-144.057
11
91.2415
21
-144.06
0
LINE
8
Black
10
91.2415
20
-144.06
11
91.2479
21
-144.063
0
LINE
8
Black
10
91.2479
20
-144.063
11
91.2549
21
-144.065
0
LINE
8
Black
10
91.2549
20
-144.065
11
91.3517
21
-144.114
0
LINE
8
Black
10
91.3517
20
-144.114
11
91.368
21
-144.126
0
LINE
8
Black
10
91.368
20
-144.126
11
91.3847
21
-144.137
0
LINE
8
Black
10
91.3847
20
-144.137
11
91.433
21
-144.186
0
LINE
8
Black
10
91.433
20
-144.186
11
91.4447
21
-144.203
0
LINE
8
Black
10
91.4447
20
-144.203
11
91.4568
21
-144.219
0
LINE
8
Black
10
91.4568
20
-144.219
11
91.5052
21
-144.316
0
LINE
8
Black
10
91.5052
20
-144.316
11
91.5073
21
-144.323
0
LINE
8
Black
10
91.5073
20
-144.323
11
91.511
21
-144.329
0
LINE
8
Black
10
91.511
20
-144.329
11
91.5135
21
-144.344
0
LINE
8
Black
10
91.5135
20
-144.344
11
91.5178
21
-144.358
0
LINE
8
Black
10
91.5178
20
-144.358
11
91.5173
21
-144.365
0
LINE
8
Black
10
91.5173
20
-144.365
11
91.5186
21
-144.372
0
LINE
8
Black
10
91.5186
20
-144.372
11
91.5186
21
-144.566
0
LINE
8
Black
10
91.5186
20
-144.566
11
91.5173
21
-144.573
0
LINE
8
Black
10
91.5173
20
-144.573
11
91.5178
21
-144.58
0
LINE
8
Black
10
91.5178
20
-144.58
11
91.5135
21
-144.595
0
LINE
8
Black
10
91.5135
20
-144.595
11
91.511
21
-144.609
0
LINE
8
Black
10
91.511
20
-144.609
11
91.5073
21
-144.616
0
LINE
8
Black
10
91.5073
20
-144.616
11
91.5052
21
-144.623
0
LINE
8
Black
10
91.5052
20
-144.623
11
91.4568
21
-144.72
0
LINE
8
Black
10
91.4568
20
-144.72
11
91.4447
21
-144.736
0
LINE
8
Black
10
91.4447
20
-144.736
11
91.433
21
-144.753
0
LINE
8
Black
10
91.433
20
-144.753
11
91.3847
21
-144.801
0
LINE
8
Black
10
91.3847
20
-144.801
11
91.368
21
-144.813
0
LINE
8
Black
10
91.368
20
-144.813
11
91.3517
21
-144.825
0
LINE
8
Black
10
91.3517
20
-144.825
11
91.2549
21
-144.873
0
LINE
8
Black
10
91.2549
20
-144.873
11
91.2479
21
-144.875
0
LINE
8
Black
10
91.2479
20
-144.875
11
91.2415
21
-144.879
0
LINE
8
Black
10
91.2415
20
-144.879
11
91.2269
21
-144.881
0
LINE
8
Black
10
91.2269
20
-144.881
11
91.2126
21
-144.886
0
LINE
8
Black
10
91.2126
20
-144.886
11
91.2053
21
-144.885
0
LINE
8
Black
10
91.2053
20
-144.885
11
91.1981
21
-144.886
0
LINE
8
Black
10
91.1981
20
-144.886
11
90.3756
21
-144.886
0
LINE
8
Black
10
90.3756
20
-144.886
11
90.3322
21
-144.879
0
LINE
8
Black
10
90.3322
20
-144.879
11
90.294
21
-144.857
0
LINE
8
Black
10
90.294
20
-144.857
11
90.2656
21
-144.823
0
LINE
8
Black
10
90.2656
20
-144.823
11
90.2505
21
-144.782
0
LINE
8
Black
10
90.2505
20
-144.782
11
90.2505
21
-144.737
0
LINE
8
Black
10
90.2505
20
-144.737
11
90.2656
21
-144.696
0
LINE
8
Black
10
90.2656
20
-144.696
11
90.294
21
-144.662
0
LINE
8
Black
10
90.294
20
-144.662
11
90.3322
21
-144.64
0
LINE
8
Black
10
90.3322
20
-144.64
11
90.3756
21
-144.632
0
LINE
8
Black
10
90.3756
20
-144.632
11
91.1681
21
-144.632
0
LINE
8
Black
10
91.1681
20
-144.632
11
91.2196
21
-144.607
0
LINE
8
Black
10
91.2196
20
-144.607
11
91.2389
21
-144.587
0
LINE
8
Black
10
91.2389
20
-144.587
11
91.2646
21
-144.536
0
LINE
8
Black
10
91.2646
20
-144.536
11
91.2646
21
-144.402
0
LINE
8
Black
10
91.2646
20
-144.402
11
91.2389
21
-144.351
0
LINE
8
Black
10
91.2389
20
-144.351
11
91.2196
21
-144.332
0
LINE
8
Black
10
91.2196
20
-144.332
11
91.1681
21
-144.306
0
LINE
8
Black
10
91.1681
20
-144.306
11
90.3756
21
-144.306
0
LINE
8
Black
10
90.3756
20
-144.306
11
90.3322
21
-144.298
0
LINE
8
Black
10
90.3322
20
-144.298
11
90.294
21
-144.276
0
LINE
8
Black
10
90.294
20
-144.276
11
90.2656
21
-144.242
0
LINE
8
Black
10
90.2656
20
-144.242
11
90.2505
21
-144.201
0
LINE
8
Black
10
90.2505
20
-144.201
11
90.2505
21
-144.157
0
LINE
8
Black
10
90.2505
20
-144.157
11
90.2656
21
-144.115
0
LINE
8
Black
10
90.2656
20
-144.115
11
90.294
21
-144.082
0
LINE
8
Black
10
90.294
20
-144.082
11
90.3322
21
-144.06
0
LINE
8
Black
10
90.3322
20
-144.06
11
90.3756
21
-144.052
0
LINE
8
Black
10
90.3756
20
-144.052
11
91.1981
21
-144.052
0
LINE
8
Black
10
91.1981
20
-144.052
11
91.2053
21
-144.053
0
LINE
8
Black
10
90.7021
20
-145.073
11
90.7416
21
-145.093
0
LINE
8
Black
10
90.7416
20
-145.093
11
90.7719
21
-145.125
0
LINE
8
Black
10
90.7719
20
-145.125
11
90.7894
21
-145.165
0
LINE
8
Black
10
90.7894
20
-145.165
11
90.7921
21
-145.209
0
LINE
8
Black
10
90.7921
20
-145.209
11
90.7795
21
-145.252
0
LINE
8
Black
10
90.7795
20
-145.252
11
90.7311
21
-145.348
0
LINE
8
Black
10
90.7311
20
-145.348
11
90.7239
21
-145.358
0
LINE
8
Black
10
90.7239
20
-145.358
11
91.2646
21
-145.358
0
LINE
8
Black
10
91.2646
20
-145.358
11
91.2646
21
-145.195
0
LINE
8
Black
10
91.2646
20
-145.195
11
91.2723
21
-145.151
0
LINE
8
Black
10
91.2723
20
-145.151
11
91.2943
21
-145.113
0
LINE
8
Black
10
91.2943
20
-145.113
11
91.3281
21
-145.085
0
LINE
8
Black
10
91.3281
20
-145.085
11
91.3696
21
-145.07
0
LINE
8
Black
10
91.3696
20
-145.07
11
91.4137
21
-145.07
0
LINE
8
Black
10
91.4137
20
-145.07
11
91.4551
21
-145.085
0
LINE
8
Black
10
91.4551
20
-145.085
11
91.4889
21
-145.113
0
LINE
8
Black
10
91.4889
20
-145.113
11
91.511
21
-145.151
0
LINE
8
Black
10
91.511
20
-145.151
11
91.5186
21
-145.195
0
LINE
8
Black
10
91.5186
20
-145.195
11
91.5186
21
-145.775
0
LINE
8
Black
10
91.5186
20
-145.775
11
91.511
21
-145.819
0
LINE
8
Black
10
91.511
20
-145.819
11
91.4889
21
-145.857
0
LINE
8
Black
10
91.4889
20
-145.857
11
91.4551
21
-145.885
0
LINE
8
Black
10
91.4551
20
-145.885
11
91.4137
21
-145.901
0
LINE
8
Black
10
91.4137
20
-145.901
11
91.3696
21
-145.901
0
LINE
8
Black
10
91.3696
20
-145.901
11
91.3281
21
-145.885
0
LINE
8
Black
10
91.3281
20
-145.885
11
91.2943
21
-145.857
0
LINE
8
Black
10
91.2943
20
-145.857
11
91.2723
21
-145.819
0
LINE
8
Black
10
91.2723
20
-145.819
11
91.2646
21
-145.775
0
LINE
8
Black
10
91.2646
20
-145.775
11
91.2646
21
-145.612
0
LINE
8
Black
10
91.2646
20
-145.612
11
90.3756
21
-145.612
0
LINE
8
Black
10
90.3756
20
-145.612
11
90.3687
21
-145.611
0
LINE
8
Black
10
90.3687
20
-145.611
11
90.3617
21
-145.611
0
LINE
8
Black
10
90.3617
20
-145.611
11
90.3471
21
-145.607
0
LINE
8
Black
10
90.3471
20
-145.607
11
90.3322
21
-145.605
0
LINE
8
Black
10
90.3322
20
-145.605
11
90.3261
21
-145.601
0
LINE
8
Black
10
90.3261
20
-145.601
11
90.3193
21
-145.599
0
LINE
8
Black
10
90.3193
20
-145.599
11
90.3071
21
-145.59
0
LINE
8
Black
10
90.3071
20
-145.59
11
90.294
21
-145.582
0
LINE
8
Black
10
90.294
20
-145.582
11
90.2895
21
-145.577
0
LINE
8
Black
10
90.2895
20
-145.577
11
90.2838
21
-145.573
0
LINE
8
Black
10
90.2838
20
-145.573
11
90.2754
21
-145.56
0
LINE
8
Black
10
90.2754
20
-145.56
11
90.2656
21
-145.549
0
LINE
8
Black
10
90.2656
20
-145.549
11
90.2632
21
-145.542
0
LINE
8
Black
10
90.2632
20
-145.542
11
90.2593
21
-145.536
0
LINE
8
Black
10
90.2593
20
-145.536
11
90.2557
21
-145.521
0
LINE
8
Black
10
90.2557
20
-145.521
11
90.2505
21
-145.507
0
LINE
8
Black
10
90.2505
20
-145.507
11
90.2505
21
-145.5
0
LINE
8
Black
10
90.2505
20
-145.5
11
90.2489
21
-145.493
0
LINE
8
Black
10
90.2489
20
-145.493
11
90.2505
21
-145.478
0
LINE
8
Black
10
90.2505
20
-145.478
11
90.2505
21
-145.463
0
LINE
8
Black
10
90.2505
20
-145.463
11
90.253
21
-145.457
0
LINE
8
Black
10
90.253
20
-145.457
11
90.2537
21
-145.45
0
LINE
8
Black
10
90.2537
20
-145.45
11
90.2604
21
-145.436
0
LINE
8
Black
10
90.2604
20
-145.436
11
90.2656
21
-145.422
0
LINE
8
Black
10
90.2656
20
-145.422
11
90.2702
21
-145.416
0
LINE
8
Black
10
90.2702
20
-145.416
11
90.2733
21
-145.41
0
LINE
8
Black
10
90.2733
20
-145.41
11
90.2842
21
-145.4
0
LINE
8
Black
10
90.2842
20
-145.4
11
90.294
21
-145.388
0
LINE
8
Black
10
90.294
20
-145.388
11
90.3001
21
-145.384
0
LINE
8
Black
10
90.3001
20
-145.384
11
90.3052
21
-145.38
0
LINE
8
Black
10
90.3052
20
-145.38
11
90.4398
21
-145.29
0
LINE
8
Black
10
90.4398
20
-145.29
11
90.5131
21
-145.216
0
LINE
8
Black
10
90.5131
20
-145.216
11
90.5523
21
-145.138
0
LINE
8
Black
10
90.5523
20
-145.138
11
90.5786
21
-145.103
0
LINE
8
Black
10
90.5786
20
-145.103
11
90.6154
21
-145.078
0
LINE
8
Black
10
90.6154
20
-145.078
11
90.6583
21
-145.068
0
LINE
8
Black
10
90.6583
20
-145.068
11
90.7021
21
-145.073
0
LINE
8
Black
10
92.9005
20
-144.354
11
91.8997
21
-144.354
0
LINE
8
Black
10
91.8997
20
-144.354
11
91.8997
21
-143.653
0
LINE
8
Black
10
91.8997
20
-143.653
11
92.9005
21
-143.653
0
LINE
8
Black
10
92.9005
20
-143.653
11
92.9005
21
-144.354
0
LINE
8
Black
10
92.9005
20
-146.253
11
91.8997
21
-146.253
0
LINE
8
Black
10
91.8997
20
-146.253
11
91.8997
21
-145.552
0
LINE
8
Black
10
91.8997
20
-145.552
11
92.9005
21
-145.552
0
LINE
8
Black
10
92.9005
20
-145.552
11
92.9005
21
-146.253
0
LINE
8
Black
10
93.6365
20
-143.618
11
93.6565
21
-143.635
0
LINE
8
Black
10
93.6565
20
-143.635
11
93.6695
21
-143.657
0
LINE
8
Black
10
93.6695
20
-143.657
11
93.674
21
-143.683
0
LINE
8
Black
10
93.674
20
-143.683
11
93.674
21
-146.223
0
LINE
8
Black
10
93.674
20
-146.223
11
93.6695
21
-146.249
0
LINE
8
Black
10
93.6695
20
-146.249
11
93.6565
21
-146.271
0
LINE
8
Black
10
93.6565
20
-146.271
11
93.6365
21
-146.288
0
LINE
8
Black
10
93.6365
20
-146.288
11
93.612
21
-146.297
0
LINE
8
Black
10
93.612
20
-146.297
11
93.586
21
-146.297
0
LINE
8
Black
10
93.586
20
-146.297
11
93.5615
21
-146.288
0
LINE
8
Black
10
93.5615
20
-146.288
11
93.5415
21
-146.271
0
LINE
8
Black
10
93.5415
20
-146.271
11
93.5285
21
-146.249
0
LINE
8
Black
10
93.5285
20
-146.249
11
93.524
21
-146.223
0
LINE
8
Black
10
93.524
20
-146.223
11
93.524
21
-143.683
0
LINE
8
Black
10
93.524
20
-143.683
11
93.5285
21
-143.657
0
LINE
8
Black
10
93.5285
20
-143.657
11
93.5415
21
-143.635
0
LINE
8
Black
10
93.5415
20
-143.635
11
93.5615
21
-143.618
0
LINE
8
Black
10
93.5615
20
-143.618
11
93.586
21
-143.609
0
LINE
8
Black
10
93.586
20
-143.609
11
93.612
21
-143.609
0
LINE
8
Black
10
93.612
20
-143.609
11
93.6365
21
-143.618
0
LINE
8
Black
10
95.2983
20
-145.304
11
94.2975
21
-145.304
0
LINE
8
Black
10
94.2975
20
-145.304
11
94.2975
21
-144.602
0
LINE
8
Black
10
94.2975
20
-144.602
11
95.2983
21
-144.602
0
LINE
8
Black
10
95.2983
20
-144.602
11
95.2983
21
-145.304
0
LINE
8
Black
10
109.929
20
-38.1889
11
109.228
21
-38.1889
0
LINE
8
Black
10
109.228
20
-38.1889
11
109.228
21
-37.1881
0
LINE
8
Black
10
109.228
20
-37.1881
11
109.929
21
-37.1881
0
LINE
8
Black
10
109.929
20
-37.1881
11
109.929
21
-38.1889
0
LINE
8
Black
10
109.929
20
-75.7505
11
109.228
21
-75.7505
0
LINE
8
Black
10
109.228
20
-75.7505
11
109.228
21
-74.7497
0
LINE
8
Black
10
109.228
20
-74.7497
11
109.929
21
-74.7497
0
LINE
8
Black
10
109.929
20
-74.7497
11
109.929
21
-75.7505
0
LINE
8
Black
10
109.929
20
-113.312
11
109.228
21
-113.312
0
LINE
8
Black
10
109.228
20
-113.312
11
109.228
21
-112.311
0
LINE
8
Black
10
109.228
20
-112.311
11
109.929
21
-112.311
0
LINE
8
Black
10
109.929
20
-112.311
11
109.929
21
-113.312
0
LINE
8
Black
10
110.242
20
-76.0357
11
110.247
21
-76.0352
0
LINE
8
Black
10
110.247
20
-76.0352
11
110.264
21
-76.0395
0
LINE
8
Black
10
110.264
20
-76.0395
11
110.281
21
-76.0425
0
LINE
8
Black
10
110.281
20
-76.0425
11
110.285
21
-76.0449
0
LINE
8
Black
10
110.285
20
-76.0449
11
110.29
21
-76.0461
0
LINE
8
Black
10
110.29
20
-76.0461
11
110.304
21
-76.0558
0
LINE
8
Black
10
110.304
20
-76.0558
11
110.319
21
-76.0645
0
LINE
8
Black
10
110.319
20
-76.0645
11
110.322
21
-76.0682
0
LINE
8
Black
10
110.322
20
-76.0682
11
110.326
21
-76.0709
0
LINE
8
Black
10
110.326
20
-76.0709
11
110.337
21
-76.085
0
LINE
8
Black
10
110.337
20
-76.085
11
110.348
21
-76.0983
0
LINE
8
Black
10
110.348
20
-76.0983
11
110.349
21
-76.1028
0
LINE
8
Black
10
110.349
20
-76.1028
11
110.352
21
-76.1067
0
LINE
8
Black
10
110.352
20
-76.1067
11
110.357
21
-76.1234
0
LINE
8
Black
10
110.357
20
-76.1234
11
110.363
21
-76.1398
0
LINE
8
Black
10
110.363
20
-76.1398
11
110.363
21
-76.1446
0
LINE
8
Black
10
110.363
20
-76.1446
11
110.364
21
-76.1492
0
LINE
8
Black
10
110.364
20
-76.1492
11
110.412
21
-76.633
0
LINE
8
Black
10
110.412
20
-76.633
11
110.412
21
-76.6338
0
LINE
8
Black
10
110.412
20
-76.6338
11
110.413
21
-76.6346
0
LINE
8
Black
10
110.413
20
-76.6346
11
110.411
21
-76.6557
0
LINE
8
Black
10
110.411
20
-76.6557
11
110.409
21
-76.677
0
LINE
8
Black
10
110.409
20
-76.677
11
110.409
21
-76.6777
0
LINE
8
Black
10
110.409
20
-76.6777
11
110.409
21
-76.6785
0
LINE
8
Black
10
110.409
20
-76.6785
11
110.4
21
-76.6977
0
LINE
8
Black
10
110.4
20
-76.6977
11
110.391
21
-76.7172
0
LINE
8
Black
10
110.391
20
-76.7172
11
110.39
21
-76.7177
0
LINE
8
Black
10
110.39
20
-76.7177
11
110.39
21
-76.7185
0
LINE
8
Black
10
110.39
20
-76.7185
11
110.375
21
-76.7335
0
LINE
8
Black
10
110.375
20
-76.7335
11
110.36
21
-76.7488
0
LINE
8
Black
10
110.36
20
-76.7488
11
110.36
21
-76.7491
0
LINE
8
Black
10
110.36
20
-76.7491
11
110.359
21
-76.7497
0
LINE
8
Black
10
110.359
20
-76.7497
11
110.34
21
-76.7586
0
LINE
8
Black
10
110.34
20
-76.7586
11
110.32
21
-76.7679
0
LINE
8
Black
10
110.32
20
-76.7679
11
110.32
21
-76.768
0
LINE
8
Black
10
110.32
20
-76.768
11
110.319
21
-76.7683
0
LINE
8
Black
10
110.319
20
-76.7683
11
110.298
21
-76.7702
0
LINE
8
Black
10
110.298
20
-76.7702
11
110.277
21
-76.7723
0
LINE
8
Black
10
110.277
20
-76.7723
11
110.276
21
-76.7721
0
LINE
8
Black
10
110.276
20
-76.7721
11
110.275
21
-76.7721
0
LINE
8
Black
10
110.275
20
-76.7721
11
110.255
21
-76.7666
0
LINE
8
Black
10
110.255
20
-76.7666
11
110.234
21
-76.7614
0
LINE
8
Black
10
110.234
20
-76.7614
11
110.233
21
-76.7609
0
LINE
8
Black
10
110.233
20
-76.7609
11
110.232
21
-76.7607
0
LINE
8
Black
10
110.232
20
-76.7607
11
110.215
21
-76.7485
0
LINE
8
Black
10
110.215
20
-76.7485
11
110.197
21
-76.7365
0
LINE
8
Black
10
110.197
20
-76.7365
11
110.197
21
-76.7359
0
LINE
8
Black
10
110.197
20
-76.7359
11
110.196
21
-76.7354
0
LINE
8
Black
10
110.196
20
-76.7354
11
110.162
21
-76.7016
0
LINE
8
Black
10
110.162
20
-76.7016
11
110.111
21
-76.6759
0
LINE
8
Black
10
110.111
20
-76.6759
11
109.929
21
-76.6759
0
LINE
8
Black
10
109.929
20
-76.6759
11
109.878
21
-76.7016
0
LINE
8
Black
10
109.878
20
-76.7016
11
109.858
21
-76.7209
0
LINE
8
Black
10
109.858
20
-76.7209
11
109.833
21
-76.7724
0
LINE
8
Black
10
109.833
20
-76.7724
11
109.833
21
-76.9543
0
LINE
8
Black
10
109.833
20
-76.9543
11
109.858
21
-77.0058
0
LINE
8
Black
10
109.858
20
-77.0058
11
109.878
21
-77.0251
0
LINE
8
Black
10
109.878
20
-77.0251
11
109.929
21
-77.0508
0
LINE
8
Black
10
109.929
20
-77.0508
11
110.111
21
-77.0508
0
LINE
8
Black
10
110.111
20
-77.0508
11
110.162
21
-77.0251
0
LINE
8
Black
10
110.162
20
-77.0251
11
110.196
21
-76.9913
0
LINE
8
Black
10
110.196
20
-76.9913
11
110.232
21
-76.966
0
LINE
8
Black
10
110.232
20
-76.966
11
110.275
21
-76.9545
0
LINE
8
Black
10
110.275
20
-76.9545
11
110.319
21
-76.9584
0
LINE
8
Black
10
110.319
20
-76.9584
11
110.359
21
-76.977
0
LINE
8
Black
10
110.359
20
-76.977
11
110.39
21
-77.0082
0
LINE
8
Black
10
110.39
20
-77.0082
11
110.409
21
-77.0482
0
LINE
8
Black
10
110.409
20
-77.0482
11
110.413
21
-77.0921
0
LINE
8
Black
10
110.413
20
-77.0921
11
110.401
21
-77.1347
0
LINE
8
Black
10
110.401
20
-77.1347
11
110.376
21
-77.1709
0
LINE
8
Black
10
110.376
20
-77.1709
11
110.328
21
-77.2192
0
LINE
8
Black
10
110.328
20
-77.2192
11
110.311
21
-77.2309
0
LINE
8
Black
10
110.311
20
-77.2309
11
110.295
21
-77.243
0
LINE
8
Black
10
110.295
20
-77.243
11
110.198
21
-77.2914
0
LINE
8
Black
10
110.198
20
-77.2914
11
110.191
21
-77.2935
0
LINE
8
Black
10
110.191
20
-77.2935
11
110.184
21
-77.2972
0
LINE
8
Black
10
110.184
20
-77.2972
11
110.17
21
-77.2997
0
LINE
8
Black
10
110.17
20
-77.2997
11
110.155
21
-77.304
0
LINE
8
Black
10
110.155
20
-77.304
11
110.148
21
-77.3035
0
LINE
8
Black
10
110.148
20
-77.3035
11
110.141
21
-77.3048
0
LINE
8
Black
10
110.141
20
-77.3048
11
109.899
21
-77.3048
0
LINE
8
Black
10
109.899
20
-77.3048
11
109.892
21
-77.3035
0
LINE
8
Black
10
109.892
20
-77.3035
11
109.885
21
-77.304
0
LINE
8
Black
10
109.885
20
-77.304
11
109.87
21
-77.2997
0
LINE
8
Black
10
109.87
20
-77.2997
11
109.856
21
-77.2972
0
LINE
8
Black
10
109.856
20
-77.2972
11
109.849
21
-77.2935
0
LINE
8
Black
10
109.849
20
-77.2935
11
109.842
21
-77.2914
0
LINE
8
Black
10
109.842
20
-77.2914
11
109.745
21
-77.243
0
LINE
8
Black
10
109.745
20
-77.243
11
109.729
21
-77.2309
0
LINE
8
Black
10
109.729
20
-77.2309
11
109.712
21
-77.2192
0
LINE
8
Black
10
109.712
20
-77.2192
11
109.664
21
-77.1709
0
LINE
8
Black
10
109.664
20
-77.1709
11
109.652
21
-77.1542
0
LINE
8
Black
10
109.652
20
-77.1542
11
109.64
21
-77.1379
0
LINE
8
Black
10
109.64
20
-77.1379
11
109.592
21
-77.0411
0
LINE
8
Black
10
109.592
20
-77.0411
11
109.59
21
-77.0341
0
LINE
8
Black
10
109.59
20
-77.0341
11
109.586
21
-77.0277
0
LINE
8
Black
10
109.586
20
-77.0277
11
109.584
21
-77.0131
0
LINE
8
Black
10
109.584
20
-77.0131
11
109.579
21
-76.9988
0
LINE
8
Black
10
109.579
20
-76.9988
11
109.58
21
-76.9915
0
LINE
8
Black
10
109.58
20
-76.9915
11
109.579
21
-76.9843
0
LINE
8
Black
10
109.579
20
-76.9843
11
109.579
21
-76.7424
0
LINE
8
Black
10
109.579
20
-76.7424
11
109.58
21
-76.7352
0
LINE
8
Black
10
109.58
20
-76.7352
11
109.579
21
-76.7279
0
LINE
8
Black
10
109.579
20
-76.7279
11
109.584
21
-76.7136
0
LINE
8
Black
10
109.584
20
-76.7136
11
109.586
21
-76.699
0
LINE
8
Black
10
109.586
20
-76.699
11
109.59
21
-76.6926
0
LINE
8
Black
10
109.59
20
-76.6926
11
109.592
21
-76.6856
0
LINE
8
Black
10
109.592
20
-76.6856
11
109.64
21
-76.5888
0
LINE
8
Black
10
109.64
20
-76.5888
11
109.652
21
-76.5725
0
LINE
8
Black
10
109.652
20
-76.5725
11
109.664
21
-76.5558
0
LINE
8
Black
10
109.664
20
-76.5558
11
109.712
21
-76.5074
0
LINE
8
Black
10
109.712
20
-76.5074
11
109.729
21
-76.4958
0
LINE
8
Black
10
109.729
20
-76.4958
11
109.745
21
-76.4837
0
LINE
8
Black
10
109.745
20
-76.4837
11
109.842
21
-76.4353
0
LINE
8
Black
10
109.842
20
-76.4353
11
109.849
21
-76.4332
0
LINE
8
Black
10
109.849
20
-76.4332
11
109.856
21
-76.4295
0
LINE
8
Black
10
109.856
20
-76.4295
11
109.87
21
-76.4269
0
LINE
8
Black
10
109.87
20
-76.4269
11
109.885
21
-76.4227
0
LINE
8
Black
10
109.885
20
-76.4227
11
109.892
21
-76.4231
0
LINE
8
Black
10
109.892
20
-76.4231
11
109.899
21
-76.4219
0
LINE
8
Black
10
109.899
20
-76.4219
11
110.136
21
-76.4219
0
LINE
8
Black
10
110.136
20
-76.4219
11
110.123
21
-76.2888
0
LINE
8
Black
10
110.123
20
-76.2888
11
109.754
21
-76.2888
0
LINE
8
Black
10
109.754
20
-76.2888
11
109.71
21
-76.2812
0
LINE
8
Black
10
109.71
20
-76.2812
11
109.672
21
-76.2591
0
LINE
8
Black
10
109.672
20
-76.2591
11
109.644
21
-76.2253
0
LINE
8
Black
10
109.644
20
-76.2253
11
109.629
21
-76.1839
0
LINE
8
Black
10
109.629
20
-76.1839
11
109.629
21
-76.1398
0
LINE
8
Black
10
109.629
20
-76.1398
11
109.644
21
-76.0983
0
LINE
8
Black
10
109.644
20
-76.0983
11
109.672
21
-76.0645
0
LINE
8
Black
10
109.672
20
-76.0645
11
109.71
21
-76.0425
0
LINE
8
Black
10
109.71
20
-76.0425
11
109.754
21
-76.0348
0
LINE
8
Black
10
109.754
20
-76.0348
11
110.238
21
-76.0348
0
LINE
8
Black
10
110.238
20
-76.0348
11
110.242
21
-76.0357
0
LINE
8
Black
10
110.378
20
-113.604
11
110.416
21
-113.626
0
LINE
8
Black
10
110.416
20
-113.626
11
110.444
21
-113.66
0
LINE
8
Black
10
110.444
20
-113.66
11
110.46
21
-113.702
0
LINE
8
Black
10
110.46
20
-113.702
11
110.46
21
-113.746
0
LINE
8
Black
10
110.46
20
-113.746
11
110.444
21
-113.787
0
LINE
8
Black
10
110.444
20
-113.787
11
110.416
21
-113.821
0
LINE
8
Black
10
110.416
20
-113.821
11
110.378
21
-113.843
0
LINE
8
Black
10
110.378
20
-113.843
11
110.334
21
-113.851
0
LINE
8
Black
10
110.334
20
-113.851
11
109.85
21
-113.851
0
LINE
8
Black
10
109.85
20
-113.851
11
110.209
21
-114.69
0
LINE
8
Black
10
110.209
20
-114.69
11
110.219
21
-114.733
0
LINE
8
Black
10
110.219
20
-114.733
11
110.214
21
-114.776
0
LINE
8
Black
10
110.214
20
-114.776
11
110.194
21
-114.816
0
LINE
8
Black
10
110.194
20
-114.816
11
110.162
21
-114.846
0
LINE
8
Black
10
110.162
20
-114.846
11
110.122
21
-114.863
0
LINE
8
Black
10
110.122
20
-114.863
11
110.078
21
-114.866
0
LINE
8
Black
10
110.078
20
-114.866
11
110.035
21
-114.853
0
LINE
8
Black
10
110.035
20
-114.853
11
110
21
-114.827
0
LINE
8
Black
10
110
20
-114.827
11
109.976
21
-114.79
0
LINE
8
Black
10
109.976
20
-114.79
11
109.54
21
-113.774
0
LINE
8
Black
10
109.54
20
-113.774
11
109.537
21
-113.759
0
LINE
8
Black
10
109.537
20
-113.759
11
109.532
21
-113.746
0
LINE
8
Black
10
109.532
20
-113.746
11
109.532
21
-113.738
0
LINE
8
Black
10
109.532
20
-113.738
11
109.53
21
-113.731
0
LINE
8
Black
10
109.53
20
-113.731
11
109.532
21
-113.716
0
LINE
8
Black
10
109.532
20
-113.716
11
109.532
21
-113.702
0
LINE
8
Black
10
109.532
20
-113.702
11
109.535
21
-113.694
0
LINE
8
Black
10
109.535
20
-113.694
11
109.536
21
-113.687
0
LINE
8
Black
10
109.536
20
-113.687
11
109.542
21
-113.674
0
LINE
8
Black
10
109.542
20
-113.674
11
109.547
21
-113.66
0
LINE
8
Black
10
109.547
20
-113.66
11
109.552
21
-113.654
0
LINE
8
Black
10
109.552
20
-113.654
11
109.555
21
-113.648
0
LINE
8
Black
10
109.555
20
-113.648
11
109.566
21
-113.638
0
LINE
8
Black
10
109.566
20
-113.638
11
109.576
21
-113.626
0
LINE
8
Black
10
109.576
20
-113.626
11
109.582
21
-113.623
0
LINE
8
Black
10
109.582
20
-113.623
11
109.588
21
-113.617
0
LINE
8
Black
10
109.588
20
-113.617
11
109.601
21
-113.612
0
LINE
8
Black
10
109.601
20
-113.612
11
109.614
21
-113.604
0
LINE
8
Black
10
109.614
20
-113.604
11
109.621
21
-113.603
0
LINE
8
Black
10
109.621
20
-113.603
11
109.628
21
-113.6
0
LINE
8
Black
10
109.628
20
-113.6
11
109.643
21
-113.599
0
LINE
8
Black
10
109.643
20
-113.599
11
109.657
21
-113.597
0
LINE
8
Black
10
109.657
20
-113.597
11
110.334
21
-113.597
0
LINE
8
Black
10
110.334
20
-113.597
11
110.378
21
-113.604
0
LINE
8
Black
10
110.378
20
-38.4809
11
110.416
21
-38.5029
0
LINE
8
Black
10
110.416
20
-38.5029
11
110.444
21
-38.5367
0
LINE
8
Black
10
110.444
20
-38.5367
11
110.46
21
-38.5782
0
LINE
8
Black
10
110.46
20
-38.5782
11
110.46
21
-38.6223
0
LINE
8
Black
10
110.46
20
-38.6223
11
110.444
21
-38.6637
0
LINE
8
Black
10
110.444
20
-38.6637
11
110.416
21
-38.6975
0
LINE
8
Black
10
110.416
20
-38.6975
11
110.378
21
-38.7196
0
LINE
8
Black
10
110.378
20
-38.7196
11
110.334
21
-38.7272
0
LINE
8
Black
10
110.334
20
-38.7272
11
109.985
21
-38.7272
0
LINE
8
Black
10
109.985
20
-38.7272
11
110.14
21
-38.9036
0
LINE
8
Black
10
110.14
20
-38.9036
11
110.146
21
-38.9143
0
LINE
8
Black
10
110.146
20
-38.9143
11
110.154
21
-38.9238
0
LINE
8
Black
10
110.154
20
-38.9238
11
110.158
21
-38.933
0
LINE
8
Black
10
110.158
20
-38.933
11
110.163
21
-38.9414
0
LINE
8
Black
10
110.163
20
-38.9414
11
110.165
21
-38.9535
0
LINE
8
Black
10
110.165
20
-38.9535
11
110.169
21
-38.9652
0
LINE
8
Black
10
110.169
20
-38.9652
11
110.169
21
-38.975
0
LINE
8
Black
10
110.169
20
-38.975
11
110.171
21
-38.9846
0
LINE
8
Black
10
110.171
20
-38.9846
11
110.169
21
-38.9969
0
LINE
8
Black
10
110.169
20
-38.9969
11
110.169
21
-39.0093
0
LINE
8
Black
10
110.169
20
-39.0093
11
110.166
21
-39.0185
0
LINE
8
Black
10
110.166
20
-39.0185
11
110.164
21
-39.0282
0
LINE
8
Black
10
110.164
20
-39.0282
11
110.158
21
-39.0391
0
LINE
8
Black
10
110.158
20
-39.0391
11
110.154
21
-39.0508
0
LINE
8
Black
10
110.154
20
-39.0508
11
110.148
21
-39.0583
0
LINE
8
Black
10
110.148
20
-39.0583
11
110.143
21
-39.0669
0
LINE
8
Black
10
110.143
20
-39.0669
11
110.134
21
-39.075
0
LINE
8
Black
10
110.134
20
-39.075
11
110.126
21
-39.0846
0
LINE
8
Black
10
110.126
20
-39.0846
11
110.117
21
-39.0895
0
LINE
8
Black
10
110.117
20
-39.0895
11
110.11
21
-39.0959
0
LINE
8
Black
10
110.11
20
-39.0959
11
110.098
21
-39.1004
0
LINE
8
Black
10
110.098
20
-39.1004
11
110.088
21
-39.1066
0
LINE
8
Black
10
110.088
20
-39.1066
11
110.078
21
-39.1083
0
LINE
8
Black
10
110.078
20
-39.1083
11
110.069
21
-39.1119
0
LINE
8
Black
10
110.069
20
-39.1119
11
110.056
21
-39.1121
0
LINE
8
Black
10
110.056
20
-39.1121
11
110.044
21
-39.1143
0
LINE
8
Black
10
110.044
20
-39.1143
11
109.929
21
-39.1143
0
LINE
8
Black
10
109.929
20
-39.1143
11
109.878
21
-39.14
0
LINE
8
Black
10
109.878
20
-39.14
11
109.858
21
-39.1593
0
LINE
8
Black
10
109.858
20
-39.1593
11
109.833
21
-39.2108
0
LINE
8
Black
10
109.833
20
-39.2108
11
109.833
21
-39.3927
0
LINE
8
Black
10
109.833
20
-39.3927
11
109.858
21
-39.4442
0
LINE
8
Black
10
109.858
20
-39.4442
11
109.878
21
-39.4635
0
LINE
8
Black
10
109.878
20
-39.4635
11
109.929
21
-39.4892
0
LINE
8
Black
10
109.929
20
-39.4892
11
110.159
21
-39.4892
0
LINE
8
Black
10
110.159
20
-39.4892
11
110.211
21
-39.4635
0
LINE
8
Black
10
110.211
20
-39.4635
11
110.245
21
-39.4297
0
LINE
8
Black
10
110.245
20
-39.4297
11
110.281
21
-39.4044
0
LINE
8
Black
10
110.281
20
-39.4044
11
110.323
21
-39.3929
0
LINE
8
Black
10
110.323
20
-39.3929
11
110.367
21
-39.3968
0
LINE
8
Black
10
110.367
20
-39.3968
11
110.407
21
-39.4154
0
LINE
8
Black
10
110.407
20
-39.4154
11
110.439
21
-39.4466
0
LINE
8
Black
10
110.439
20
-39.4466
11
110.457
21
-39.4866
0
LINE
8
Black
10
110.457
20
-39.4866
11
110.461
21
-39.5305
0
LINE
8
Black
10
110.461
20
-39.5305
11
110.45
21
-39.5731
0
LINE
8
Black
10
110.45
20
-39.5731
11
110.424
21
-39.6093
0
LINE
8
Black
10
110.424
20
-39.6093
11
110.376
21
-39.6576
0
LINE
8
Black
10
110.376
20
-39.6576
11
110.359
21
-39.6693
0
LINE
8
Black
10
110.359
20
-39.6693
11
110.343
21
-39.6814
0
LINE
8
Black
10
110.343
20
-39.6814
11
110.246
21
-39.7298
0
LINE
8
Black
10
110.246
20
-39.7298
11
110.239
21
-39.7319
0
LINE
8
Black
10
110.239
20
-39.7319
11
110.233
21
-39.7356
0
LINE
8
Black
10
110.233
20
-39.7356
11
110.218
21
-39.7381
0
LINE
8
Black
10
110.218
20
-39.7381
11
110.204
21
-39.7424
0
LINE
8
Black
10
110.204
20
-39.7424
11
110.197
21
-39.7419
0
LINE
8
Black
10
110.197
20
-39.7419
11
110.189
21
-39.7432
0
LINE
8
Black
10
110.189
20
-39.7432
11
109.899
21
-39.7432
0
LINE
8
Black
10
109.899
20
-39.7432
11
109.892
21
-39.7419
0
LINE
8
Black
10
109.892
20
-39.7419
11
109.885
21
-39.7424
0
LINE
8
Black
10
109.885
20
-39.7424
11
109.87
21
-39.7381
0
LINE
8
Black
10
109.87
20
-39.7381
11
109.856
21
-39.7356
0
LINE
8
Black
10
109.856
20
-39.7356
11
109.849
21
-39.7319
0
LINE
8
Black
10
109.849
20
-39.7319
11
109.842
21
-39.7298
0
LINE
8
Black
10
109.842
20
-39.7298
11
109.745
21
-39.6814
0
LINE
8
Black
10
109.745
20
-39.6814
11
109.729
21
-39.6693
0
LINE
8
Black
10
109.729
20
-39.6693
11
109.712
21
-39.6576
0
LINE
8
Black
10
109.712
20
-39.6576
11
109.664
21
-39.6093
0
LINE
8
Black
10
109.664
20
-39.6093
11
109.652
21
-39.5926
0
LINE
8
Black
10
109.652
20
-39.5926
11
109.64
21
-39.5763
0
LINE
8
Black
10
109.64
20
-39.5763
11
109.592
21
-39.4795
0
LINE
8
Black
10
109.592
20
-39.4795
11
109.59
21
-39.4725
0
LINE
8
Black
10
109.59
20
-39.4725
11
109.586
21
-39.4661
0
LINE
8
Black
10
109.586
20
-39.4661
11
109.584
21
-39.4515
0
LINE
8
Black
10
109.584
20
-39.4515
11
109.579
21
-39.4372
0
LINE
8
Black
10
109.579
20
-39.4372
11
109.58
21
-39.4299
0
LINE
8
Black
10
109.58
20
-39.4299
11
109.579
21
-39.4227
0
LINE
8
Black
10
109.579
20
-39.4227
11
109.579
21
-39.1808
0
LINE
8
Black
10
109.579
20
-39.1808
11
109.58
21
-39.1736
0
LINE
8
Black
10
109.58
20
-39.1736
11
109.579
21
-39.1663
0
LINE
8
Black
10
109.579
20
-39.1663
11
109.584
21
-39.152
0
LINE
8
Black
10
109.584
20
-39.152
11
109.586
21
-39.1374
0
LINE
8
Black
10
109.586
20
-39.1374
11
109.59
21
-39.131
0
LINE
8
Black
10
109.59
20
-39.131
11
109.592
21
-39.124
0
LINE
8
Black
10
109.592
20
-39.124
11
109.64
21
-39.0272
0
LINE
8
Black
10
109.64
20
-39.0272
11
109.652
21
-39.0109
0
LINE
8
Black
10
109.652
20
-39.0109
11
109.664
21
-38.9942
0
LINE
8
Black
10
109.664
20
-38.9942
11
109.712
21
-38.9458
0
LINE
8
Black
10
109.712
20
-38.9458
11
109.729
21
-38.9342
0
LINE
8
Black
10
109.729
20
-38.9342
11
109.745
21
-38.9221
0
LINE
8
Black
10
109.745
20
-38.9221
11
109.796
21
-38.8967
0
LINE
8
Black
10
109.796
20
-38.8967
11
109.61
21
-38.6838
0
LINE
8
Black
10
109.61
20
-38.6838
11
109.604
21
-38.6732
0
LINE
8
Black
10
109.604
20
-38.6732
11
109.596
21
-38.6637
0
LINE
8
Black
10
109.596
20
-38.6637
11
109.592
21
-38.6545
0
LINE
8
Black
10
109.592
20
-38.6545
11
109.587
21
-38.6461
0
LINE
8
Black
10
109.587
20
-38.6461
11
109.585
21
-38.6339
0
LINE
8
Black
10
109.585
20
-38.6339
11
109.58
21
-38.6223
0
LINE
8
Black
10
109.58
20
-38.6223
11
109.58
21
-38.6125
0
LINE
8
Black
10
109.58
20
-38.6125
11
109.579
21
-38.6028
0
LINE
8
Black
10
109.579
20
-38.6028
11
109.58
21
-38.5906
0
LINE
8
Black
10
109.58
20
-38.5906
11
109.58
21
-38.5782
0
LINE
8
Black
10
109.58
20
-38.5782
11
109.584
21
-38.5689
0
LINE
8
Black
10
109.584
20
-38.5689
11
109.585
21
-38.5593
0
LINE
8
Black
10
109.585
20
-38.5593
11
109.591
21
-38.5484
0
LINE
8
Black
10
109.591
20
-38.5484
11
109.596
21
-38.5367
0
LINE
8
Black
10
109.596
20
-38.5367
11
109.602
21
-38.5292
0
LINE
8
Black
10
109.602
20
-38.5292
11
109.607
21
-38.5206
0
LINE
8
Black
10
109.607
20
-38.5206
11
109.616
21
-38.5124
0
LINE
8
Black
10
109.616
20
-38.5124
11
109.624
21
-38.5029
0
LINE
8
Black
10
109.624
20
-38.5029
11
109.632
21
-38.498
0
LINE
8
Black
10
109.632
20
-38.498
11
109.64
21
-38.4916
0
LINE
8
Black
10
109.64
20
-38.4916
11
109.651
21
-38.4871
0
LINE
8
Black
10
109.651
20
-38.4871
11
109.662
21
-38.4809
0
LINE
8
Black
10
109.662
20
-38.4809
11
109.672
21
-38.4792
0
LINE
8
Black
10
109.672
20
-38.4792
11
109.681
21
-38.4756
0
LINE
8
Black
10
109.681
20
-38.4756
11
109.693
21
-38.4754
0
LINE
8
Black
10
109.693
20
-38.4754
11
109.706
21
-38.4732
0
LINE
8
Black
10
109.706
20
-38.4732
11
110.334
21
-38.4732
0
LINE
8
Black
10
110.334
20
-38.4732
11
110.378
21
-38.4809
0
LINE
8
Black
10
110.879
20
-35.7911
11
110.177
21
-35.7911
0
LINE
8
Black
10
110.177
20
-35.7911
11
110.177
21
-34.7903
0
LINE
8
Black
10
110.177
20
-34.7903
11
110.879
21
-34.7903
0
LINE
8
Black
10
110.879
20
-34.7903
11
110.879
21
-35.7911
0
LINE
8
Black
10
110.879
20
-73.3527
11
110.177
21
-73.3527
0
LINE
8
Black
10
110.177
20
-73.3527
11
110.177
21
-72.3519
0
LINE
8
Black
10
110.177
20
-72.3519
11
110.879
21
-72.3519
0
LINE
8
Black
10
110.879
20
-72.3519
11
110.879
21
-73.3527
0
LINE
8
Black
10
110.879
20
-110.914
11
110.177
21
-110.914
0
LINE
8
Black
10
110.177
20
-110.914
11
110.177
21
-109.914
0
LINE
8
Black
10
110.177
20
-109.914
11
110.879
21
-109.914
0
LINE
8
Black
10
110.879
20
-109.914
11
110.879
21
-110.914
0
LINE
8
Black
10
110.785
20
-38.4902
11
110.819
21
-38.5186
0
LINE
8
Black
10
110.819
20
-38.5186
11
110.841
21
-38.5568
0
LINE
8
Black
10
110.841
20
-38.5568
11
110.849
21
-38.6002
0
LINE
8
Black
10
110.849
20
-38.6002
11
110.849
21
-39.3927
0
LINE
8
Black
10
110.849
20
-39.3927
11
110.874
21
-39.4442
0
LINE
8
Black
10
110.874
20
-39.4442
11
110.894
21
-39.4635
0
LINE
8
Black
10
110.894
20
-39.4635
11
110.945
21
-39.4892
0
LINE
8
Black
10
110.945
20
-39.4892
11
111.079
21
-39.4892
0
LINE
8
Black
10
111.079
20
-39.4892
11
111.13
21
-39.4635
0
LINE
8
Black
10
111.13
20
-39.4635
11
111.149
21
-39.4442
0
LINE
8
Black
10
111.149
20
-39.4442
11
111.175
21
-39.3927
0
LINE
8
Black
10
111.175
20
-39.3927
11
111.175
21
-38.6002
0
LINE
8
Black
10
111.175
20
-38.6002
11
111.183
21
-38.5568
0
LINE
8
Black
10
111.183
20
-38.5568
11
111.205
21
-38.5186
0
LINE
8
Black
10
111.205
20
-38.5186
11
111.239
21
-38.4902
0
LINE
8
Black
10
111.239
20
-38.4902
11
111.28
21
-38.4751
0
LINE
8
Black
10
111.28
20
-38.4751
11
111.324
21
-38.4751
0
LINE
8
Black
10
111.324
20
-38.4751
11
111.366
21
-38.4902
0
LINE
8
Black
10
111.366
20
-38.4902
11
111.399
21
-38.5186
0
LINE
8
Black
10
111.399
20
-38.5186
11
111.421
21
-38.5568
0
LINE
8
Black
10
111.421
20
-38.5568
11
111.429
21
-38.6002
0
LINE
8
Black
10
111.429
20
-38.6002
11
111.429
21
-39.4227
0
LINE
8
Black
10
111.429
20
-39.4227
11
111.428
21
-39.4299
0
LINE
8
Black
10
111.428
20
-39.4299
11
111.428
21
-39.4372
0
LINE
8
Black
10
111.428
20
-39.4372
11
111.424
21
-39.4515
0
LINE
8
Black
10
111.424
20
-39.4515
11
111.421
21
-39.4661
0
LINE
8
Black
10
111.421
20
-39.4661
11
111.418
21
-39.4725
0
LINE
8
Black
10
111.418
20
-39.4725
11
111.416
21
-39.4795
0
LINE
8
Black
10
111.416
20
-39.4795
11
111.367
21
-39.5763
0
LINE
8
Black
10
111.367
20
-39.5763
11
111.355
21
-39.5926
0
LINE
8
Black
10
111.355
20
-39.5926
11
111.344
21
-39.6093
0
LINE
8
Black
10
111.344
20
-39.6093
11
111.295
21
-39.6576
0
LINE
8
Black
10
111.295
20
-39.6576
11
111.278
21
-39.6693
0
LINE
8
Black
10
111.278
20
-39.6693
11
111.262
21
-39.6814
0
LINE
8
Black
10
111.262
20
-39.6814
11
111.165
21
-39.7298
0
LINE
8
Black
10
111.165
20
-39.7298
11
111.158
21
-39.7319
0
LINE
8
Black
10
111.158
20
-39.7319
11
111.152
21
-39.7356
0
LINE
8
Black
10
111.152
20
-39.7356
11
111.137
21
-39.7381
0
LINE
8
Black
10
111.137
20
-39.7381
11
111.123
21
-39.7424
0
LINE
8
Black
10
111.123
20
-39.7424
11
111.116
21
-39.7419
0
LINE
8
Black
10
111.116
20
-39.7419
11
111.109
21
-39.7432
0
LINE
8
Black
10
111.109
20
-39.7432
11
110.915
21
-39.7432
0
LINE
8
Black
10
110.915
20
-39.7432
11
110.908
21
-39.7419
0
LINE
8
Black
10
110.908
20
-39.7419
11
110.901
21
-39.7424
0
LINE
8
Black
10
110.901
20
-39.7424
11
110.886
21
-39.7381
0
LINE
8
Black
10
110.886
20
-39.7381
11
110.872
21
-39.7356
0
LINE
8
Black
10
110.872
20
-39.7356
11
110.865
21
-39.7319
0
LINE
8
Black
10
110.865
20
-39.7319
11
110.858
21
-39.7298
0
LINE
8
Black
10
110.858
20
-39.7298
11
110.761
21
-39.6814
0
LINE
8
Black
10
110.761
20
-39.6814
11
110.745
21
-39.6693
0
LINE
8
Black
10
110.745
20
-39.6693
11
110.728
21
-39.6576
0
LINE
8
Black
10
110.728
20
-39.6576
11
110.68
21
-39.6093
0
LINE
8
Black
10
110.68
20
-39.6093
11
110.668
21
-39.5926
0
LINE
8
Black
10
110.668
20
-39.5926
11
110.656
21
-39.5763
0
LINE
8
Black
10
110.656
20
-39.5763
11
110.608
21
-39.4795
0
LINE
8
Black
10
110.608
20
-39.4795
11
110.606
21
-39.4725
0
LINE
8
Black
10
110.606
20
-39.4725
11
110.602
21
-39.4661
0
LINE
8
Black
10
110.602
20
-39.4661
11
110.6
21
-39.4515
0
LINE
8
Black
10
110.6
20
-39.4515
11
110.595
21
-39.4372
0
LINE
8
Black
10
110.595
20
-39.4372
11
110.596
21
-39.4299
0
LINE
8
Black
10
110.596
20
-39.4299
11
110.595
21
-39.4227
0
LINE
8
Black
10
110.595
20
-39.4227
11
110.595
21
-38.6002
0
LINE
8
Black
10
110.595
20
-38.6002
11
110.602
21
-38.5568
0
LINE
8
Black
10
110.602
20
-38.5568
11
110.624
21
-38.5186
0
LINE
8
Black
10
110.624
20
-38.5186
11
110.658
21
-38.4902
0
LINE
8
Black
10
110.658
20
-38.4902
11
110.699
21
-38.4751
0
LINE
8
Black
10
110.699
20
-38.4751
11
110.744
21
-38.4751
0
LINE
8
Black
10
110.744
20
-38.4751
11
110.785
21
-38.4902
0
LINE
8
Black
10
110.785
20
-76.0518
11
110.819
21
-76.0802
0
LINE
8
Black
10
110.819
20
-76.0802
11
110.841
21
-76.1184
0
LINE
8
Black
10
110.841
20
-76.1184
11
110.849
21
-76.1618
0
LINE
8
Black
10
110.849
20
-76.1618
11
110.849
21
-76.9543
0
LINE
8
Black
10
110.849
20
-76.9543
11
110.874
21
-77.0058
0
LINE
8
Black
10
110.874
20
-77.0058
11
110.894
21
-77.0251
0
LINE
8
Black
10
110.894
20
-77.0251
11
110.945
21
-77.0508
0
LINE
8
Black
10
110.945
20
-77.0508
11
111.079
21
-77.0508
0
LINE
8
Black
10
111.079
20
-77.0508
11
111.13
21
-77.0251
0
LINE
8
Black
10
111.13
20
-77.0251
11
111.149
21
-77.0058
0
LINE
8
Black
10
111.149
20
-77.0058
11
111.175
21
-76.9543
0
LINE
8
Black
10
111.175
20
-76.9543
11
111.175
21
-76.1618
0
LINE
8
Black
10
111.175
20
-76.1618
11
111.183
21
-76.1184
0
LINE
8
Black
10
111.183
20
-76.1184
11
111.205
21
-76.0802
0
LINE
8
Black
10
111.205
20
-76.0802
11
111.239
21
-76.0518
0
LINE
8
Black
10
111.239
20
-76.0518
11
111.28
21
-76.0367
0
LINE
8
Black
10
111.28
20
-76.0367
11
111.324
21
-76.0367
0
LINE
8
Black
10
111.324
20
-76.0367
11
111.366
21
-76.0518
0
LINE
8
Black
10
111.366
20
-76.0518
11
111.399
21
-76.0802
0
LINE
8
Black
10
111.399
20
-76.0802
11
111.421
21
-76.1184
0
LINE
8
Black
10
111.421
20
-76.1184
11
111.429
21
-76.1618
0
LINE
8
Black
10
111.429
20
-76.1618
11
111.429
21
-76.9843
0
LINE
8
Black
10
111.429
20
-76.9843
11
111.428
21
-76.9915
0
LINE
8
Black
10
111.428
20
-76.9915
11
111.428
21
-76.9988
0
LINE
8
Black
10
111.428
20
-76.9988
11
111.424
21
-77.0131
0
LINE
8
Black
10
111.424
20
-77.0131
11
111.421
21
-77.0277
0
LINE
8
Black
10
111.421
20
-77.0277
11
111.418
21
-77.0341
0
LINE
8
Black
10
111.418
20
-77.0341
11
111.416
21
-77.0411
0
LINE
8
Black
10
111.416
20
-77.0411
11
111.367
21
-77.1379
0
LINE
8
Black
10
111.367
20
-77.1379
11
111.355
21
-77.1542
0
LINE
8
Black
10
111.355
20
-77.1542
11
111.344
21
-77.1709
0
LINE
8
Black
10
111.344
20
-77.1709
11
111.295
21
-77.2192
0
LINE
8
Black
10
111.295
20
-77.2192
11
111.278
21
-77.2309
0
LINE
8
Black
10
111.278
20
-77.2309
11
111.262
21
-77.243
0
LINE
8
Black
10
111.262
20
-77.243
11
111.165
21
-77.2914
0
LINE
8
Black
10
111.165
20
-77.2914
11
111.158
21
-77.2935
0
LINE
8
Black
10
111.158
20
-77.2935
11
111.152
21
-77.2972
0
LINE
8
Black
10
111.152
20
-77.2972
11
111.137
21
-77.2997
0
LINE
8
Black
10
111.137
20
-77.2997
11
111.123
21
-77.304
0
LINE
8
Black
10
111.123
20
-77.304
11
111.116
21
-77.3035
0
LINE
8
Black
10
111.116
20
-77.3035
11
111.109
21
-77.3048
0
LINE
8
Black
10
111.109
20
-77.3048
11
110.915
21
-77.3048
0
LINE
8
Black
10
110.915
20
-77.3048
11
110.908
21
-77.3035
0
LINE
8
Black
10
110.908
20
-77.3035
11
110.901
21
-77.304
0
LINE
8
Black
10
110.901
20
-77.304
11
110.886
21
-77.2997
0
LINE
8
Black
10
110.886
20
-77.2997
11
110.872
21
-77.2972
0
LINE
8
Black
10
110.872
20
-77.2972
11
110.865
21
-77.2935
0
LINE
8
Black
10
110.865
20
-77.2935
11
110.858
21
-77.2914
0
LINE
8
Black
10
110.858
20
-77.2914
11
110.761
21
-77.243
0
LINE
8
Black
10
110.761
20
-77.243
11
110.745
21
-77.2309
0
LINE
8
Black
10
110.745
20
-77.2309
11
110.728
21
-77.2192
0
LINE
8
Black
10
110.728
20
-77.2192
11
110.68
21
-77.1709
0
LINE
8
Black
10
110.68
20
-77.1709
11
110.668
21
-77.1542
0
LINE
8
Black
10
110.668
20
-77.1542
11
110.656
21
-77.1379
0
LINE
8
Black
10
110.656
20
-77.1379
11
110.608
21
-77.0411
0
LINE
8
Black
10
110.608
20
-77.0411
11
110.606
21
-77.0341
0
LINE
8
Black
10
110.606
20
-77.0341
11
110.602
21
-77.0277
0
LINE
8
Black
10
110.602
20
-77.0277
11
110.6
21
-77.0131
0
LINE
8
Black
10
110.6
20
-77.0131
11
110.595
21
-76.9988
0
LINE
8
Black
10
110.595
20
-76.9988
11
110.596
21
-76.9915
0
LINE
8
Black
10
110.596
20
-76.9915
11
110.595
21
-76.9843
0
LINE
8
Black
10
110.595
20
-76.9843
11
110.595
21
-76.1618
0
LINE
8
Black
10
110.595
20
-76.1618
11
110.602
21
-76.1184
0
LINE
8
Black
10
110.602
20
-76.1184
11
110.624
21
-76.0802
0
LINE
8
Black
10
110.624
20
-76.0802
11
110.658
21
-76.0518
0
LINE
8
Black
10
110.658
20
-76.0518
11
110.699
21
-76.0367
0
LINE
8
Black
10
110.699
20
-76.0367
11
110.744
21
-76.0367
0
LINE
8
Black
10
110.744
20
-76.0367
11
110.785
21
-76.0518
0
LINE
8
Black
10
110.785
20
-113.614
11
110.819
21
-113.642
0
LINE
8
Black
10
110.819
20
-113.642
11
110.841
21
-113.68
0
LINE
8
Black
10
110.841
20
-113.68
11
110.849
21
-113.724
0
LINE
8
Black
10
110.849
20
-113.724
11
110.849
21
-114.516
0
LINE
8
Black
10
110.849
20
-114.516
11
110.874
21
-114.568
0
LINE
8
Black
10
110.874
20
-114.568
11
110.894
21
-114.587
0
LINE
8
Black
10
110.894
20
-114.587
11
110.945
21
-114.613
0
LINE
8
Black
10
110.945
20
-114.613
11
111.079
21
-114.613
0
LINE
8
Black
10
111.079
20
-114.613
11
111.13
21
-114.587
0
LINE
8
Black
10
111.13
20
-114.587
11
111.149
21
-114.568
0
LINE
8
Black
10
111.149
20
-114.568
11
111.175
21
-114.516
0
LINE
8
Black
10
111.175
20
-114.516
11
111.175
21
-113.724
0
LINE
8
Black
10
111.175
20
-113.724
11
111.183
21
-113.68
0
LINE
8
Black
10
111.183
20
-113.68
11
111.205
21
-113.642
0
LINE
8
Black
10
111.205
20
-113.642
11
111.239
21
-113.614
0
LINE
8
Black
10
111.239
20
-113.614
11
111.28
21
-113.599
0
LINE
8
Black
10
111.28
20
-113.599
11
111.324
21
-113.599
0
LINE
8
Black
10
111.324
20
-113.599
11
111.366
21
-113.614
0
LINE
8
Black
10
111.366
20
-113.614
11
111.399
21
-113.642
0
LINE
8
Black
10
111.399
20
-113.642
11
111.421
21
-113.68
0
LINE
8
Black
10
111.421
20
-113.68
11
111.429
21
-113.724
0
LINE
8
Black
10
111.429
20
-113.724
11
111.429
21
-114.546
0
LINE
8
Black
10
111.429
20
-114.546
11
111.428
21
-114.553
0
LINE
8
Black
10
111.428
20
-114.553
11
111.428
21
-114.561
0
LINE
8
Black
10
111.428
20
-114.561
11
111.424
21
-114.575
0
LINE
8
Black
10
111.424
20
-114.575
11
111.421
21
-114.59
0
LINE
8
Black
10
111.421
20
-114.59
11
111.418
21
-114.596
0
LINE
8
Black
10
111.418
20
-114.596
11
111.416
21
-114.603
0
LINE
8
Black
10
111.416
20
-114.603
11
111.367
21
-114.7
0
LINE
8
Black
10
111.367
20
-114.7
11
111.355
21
-114.716
0
LINE
8
Black
10
111.355
20
-114.716
11
111.344
21
-114.733
0
LINE
8
Black
10
111.344
20
-114.733
11
111.295
21
-114.781
0
LINE
8
Black
10
111.295
20
-114.781
11
111.278
21
-114.793
0
LINE
8
Black
10
111.278
20
-114.793
11
111.262
21
-114.805
0
LINE
8
Black
10
111.262
20
-114.805
11
111.165
21
-114.853
0
LINE
8
Black
10
111.165
20
-114.853
11
111.158
21
-114.855
0
LINE
8
Black
10
111.158
20
-114.855
11
111.152
21
-114.859
0
LINE
8
Black
10
111.152
20
-114.859
11
111.137
21
-114.862
0
LINE
8
Black
10
111.137
20
-114.862
11
111.123
21
-114.866
0
LINE
8
Black
10
111.123
20
-114.866
11
111.116
21
-114.865
0
LINE
8
Black
10
111.116
20
-114.865
11
111.109
21
-114.867
0
LINE
8
Black
10
111.109
20
-114.867
11
110.915
21
-114.867
0
LINE
8
Black
10
110.915
20
-114.867
11
110.908
21
-114.865
0
LINE
8
Black
10
110.908
20
-114.865
11
110.901
21
-114.866
0
LINE
8
Black
10
110.901
20
-114.866
11
110.886
21
-114.862
0
LINE
8
Black
10
110.886
20
-114.862
11
110.872
21
-114.859
0
LINE
8
Black
10
110.872
20
-114.859
11
110.865
21
-114.855
0
LINE
8
Black
10
110.865
20
-114.855
11
110.858
21
-114.853
0
LINE
8
Black
10
110.858
20
-114.853
11
110.761
21
-114.805
0
LINE
8
Black
10
110.761
20
-114.805
11
110.745
21
-114.793
0
LINE
8
Black
10
110.745
20
-114.793
11
110.728
21
-114.781
0
LINE
8
Black
10
110.728
20
-114.781
11
110.68
21
-114.733
0
LINE
8
Black
10
110.68
20
-114.733
11
110.668
21
-114.716
0
LINE
8
Black
10
110.668
20
-114.716
11
110.656
21
-114.7
0
LINE
8
Black
10
110.656
20
-114.7
11
110.608
21
-114.603
0
LINE
8
Black
10
110.608
20
-114.603
11
110.606
21
-114.596
0
LINE
8
Black
10
110.606
20
-114.596
11
110.602
21
-114.59
0
LINE
8
Black
10
110.602
20
-114.59
11
110.6
21
-114.575
0
LINE
8
Black
10
110.6
20
-114.575
11
110.595
21
-114.561
0
LINE
8
Black
10
110.595
20
-114.561
11
110.596
21
-114.553
0
LINE
8
Black
10
110.596
20
-114.553
11
110.595
21
-114.546
0
LINE
8
Black
10
110.595
20
-114.546
11
110.595
21
-113.724
0
LINE
8
Black
10
110.595
20
-113.724
11
110.602
21
-113.68
0
LINE
8
Black
10
110.602
20
-113.68
11
110.624
21
-113.642
0
LINE
8
Black
10
110.624
20
-113.642
11
110.658
21
-113.614
0
LINE
8
Black
10
110.658
20
-113.614
11
110.699
21
-113.599
0
LINE
8
Black
10
110.699
20
-113.599
11
110.744
21
-113.599
0
LINE
8
Black
10
110.744
20
-113.599
11
110.785
21
-113.614
0
LINE
8
Black
10
111.828
20
-38.1889
11
111.127
21
-38.1889
0
LINE
8
Black
10
111.127
20
-38.1889
11
111.127
21
-37.1881
0
LINE
8
Black
10
111.127
20
-37.1881
11
111.828
21
-37.1881
0
LINE
8
Black
10
111.828
20
-37.1881
11
111.828
21
-38.1889
0
LINE
8
Black
10
111.828
20
-75.7505
11
111.127
21
-75.7505
0
LINE
8
Black
10
111.127
20
-75.7505
11
111.127
21
-74.7497
0
LINE
8
Black
10
111.127
20
-74.7497
11
111.828
21
-74.7497
0
LINE
8
Black
10
111.828
20
-74.7497
11
111.828
21
-75.7505
0
LINE
8
Black
10
111.828
20
-113.312
11
111.127
21
-113.312
0
LINE
8
Black
10
111.127
20
-113.312
11
111.127
21
-112.311
0
LINE
8
Black
10
111.127
20
-112.311
11
111.828
21
-112.311
0
LINE
8
Black
10
111.828
20
-112.311
11
111.828
21
-113.312
0
LINE
8
Black
10
111.824
20
-36.4191
11
111.846
21
-36.4321
0
LINE
8
Black
10
111.846
20
-36.4321
11
111.863
21
-36.4521
0
LINE
8
Black
10
111.863
20
-36.4521
11
111.872
21
-36.4766
0
LINE
8
Black
10
111.872
20
-36.4766
11
111.872
21
-36.5026
0
LINE
8
Black
10
111.872
20
-36.5026
11
111.863
21
-36.5271
0
LINE
8
Black
10
111.863
20
-36.5271
11
111.846
21
-36.5471
0
LINE
8
Black
10
111.846
20
-36.5471
11
111.824
21
-36.5601
0
LINE
8
Black
10
111.824
20
-36.5601
11
111.798
21
-36.5646
0
LINE
8
Black
10
111.798
20
-36.5646
11
109.258
21
-36.5646
0
LINE
8
Black
10
109.258
20
-36.5646
11
109.232
21
-36.5601
0
LINE
8
Black
10
109.232
20
-36.5601
11
109.21
21
-36.5471
0
LINE
8
Black
10
109.21
20
-36.5471
11
109.193
21
-36.5271
0
LINE
8
Black
10
109.193
20
-36.5271
11
109.184
21
-36.5026
0
LINE
8
Black
10
109.184
20
-36.5026
11
109.184
21
-36.4766
0
LINE
8
Black
10
109.184
20
-36.4766
11
109.193
21
-36.4521
0
LINE
8
Black
10
109.193
20
-36.4521
11
109.21
21
-36.4321
0
LINE
8
Black
10
109.21
20
-36.4321
11
109.232
21
-36.4191
0
LINE
8
Black
10
109.232
20
-36.4191
11
109.258
21
-36.4146
0
LINE
8
Black
10
109.258
20
-36.4146
11
111.798
21
-36.4146
0
LINE
8
Black
10
111.798
20
-36.4146
11
111.824
21
-36.4191
0
LINE
8
Black
10
111.824
20
-73.9807
11
111.846
21
-73.9937
0
LINE
8
Black
10
111.846
20
-73.9937
11
111.863
21
-74.0137
0
LINE
8
Black
10
111.863
20
-74.0137
11
111.872
21
-74.0382
0
LINE
8
Black
10
111.872
20
-74.0382
11
111.872
21
-74.0642
0
LINE
8
Black
10
111.872
20
-74.0642
11
111.863
21
-74.0887
0
LINE
8
Black
10
111.863
20
-74.0887
11
111.846
21
-74.1087
0
LINE
8
Black
10
111.846
20
-74.1087
11
111.824
21
-74.1217
0
LINE
8
Black
10
111.824
20
-74.1217
11
111.798
21
-74.1262
0
LINE
8
Black
10
111.798
20
-74.1262
11
109.258
21
-74.1262
0
LINE
8
Black
10
109.258
20
-74.1262
11
109.232
21
-74.1217
0
LINE
8
Black
10
109.232
20
-74.1217
11
109.21
21
-74.1087
0
LINE
8
Black
10
109.21
20
-74.1087
11
109.193
21
-74.0887
0
LINE
8
Black
10
109.193
20
-74.0887
11
109.184
21
-74.0642
0
LINE
8
Black
10
109.184
20
-74.0642
11
109.184
21
-74.0382
0
LINE
8
Black
10
109.184
20
-74.0382
11
109.193
21
-74.0137
0
LINE
8
Black
10
109.193
20
-74.0137
11
109.21
21
-73.9937
0
LINE
8
Black
10
109.21
20
-73.9937
11
109.232
21
-73.9807
0
LINE
8
Black
10
109.232
20
-73.9807
11
109.258
21
-73.9762
0
LINE
8
Black
10
109.258
20
-73.9762
11
111.798
21
-73.9762
0
LINE
8
Black
10
111.798
20
-73.9762
11
111.824
21
-73.9807
0
LINE
8
Black
10
111.824
20
-111.543
11
111.846
21
-111.556
0
LINE
8
Black
10
111.846
20
-111.556
11
111.863
21
-111.575
0
LINE
8
Black
10
111.863
20
-111.575
11
111.872
21
-111.6
0
LINE
8
Black
10
111.872
20
-111.6
11
111.872
21
-111.626
0
LINE
8
Black
10
111.872
20
-111.626
11
111.863
21
-111.65
0
LINE
8
Black
10
111.863
20
-111.65
11
111.846
21
-111.67
0
LINE
8
Black
10
111.846
20
-111.67
11
111.824
21
-111.683
0
LINE
8
Black
10
111.824
20
-111.683
11
111.798
21
-111.688
0
LINE
8
Black
10
111.798
20
-111.688
11
109.258
21
-111.688
0
LINE
8
Black
10
109.258
20
-111.688
11
109.232
21
-111.683
0
LINE
8
Black
10
109.232
20
-111.683
11
109.21
21
-111.67
0
LINE
8
Black
10
109.21
20
-111.67
11
109.193
21
-111.65
0
LINE
8
Black
10
109.193
20
-111.65
11
109.184
21
-111.626
0
LINE
8
Black
10
109.184
20
-111.626
11
109.184
21
-111.6
0
LINE
8
Black
10
109.184
20
-111.6
11
109.193
21
-111.575
0
LINE
8
Black
10
109.193
20
-111.575
11
109.21
21
-111.556
0
LINE
8
Black
10
109.21
20
-111.556
11
109.232
21
-111.543
0
LINE
8
Black
10
109.232
20
-111.543
11
109.258
21
-111.538
0
LINE
8
Black
10
109.258
20
-111.538
11
111.798
21
-111.538
0
LINE
8
Black
10
111.798
20
-111.538
11
111.824
21
-111.543
0
LINE
8
Black
10
135.849
20
-121.766
11
135.823
21
-121.796
0
LINE
8
Black
10
135.823
20
-121.796
11
135.083
21
-122.417
0
LINE
8
Black
10
135.083
20
-122.417
11
135.049
21
-122.437
0
LINE
8
Black
10
135.049
20
-122.437
11
134.141
21
-122.767
0
LINE
8
Black
10
134.141
20
-122.767
11
134.127
21
-122.77
0
LINE
8
Black
10
134.127
20
-122.77
11
134.112
21
-122.774
0
LINE
8
Black
10
134.112
20
-122.774
11
133.629
21
-122.816
0
LINE
8
Black
10
133.629
20
-122.816
11
133.624
21
-122.816
0
LINE
8
Black
10
133.624
20
-122.816
11
133.619
21
-122.817
0
LINE
8
Black
10
133.619
20
-122.817
11
102.07
21
-122.817
0
LINE
8
Black
10
102.07
20
-122.817
11
101.607
21
-122.857
0
LINE
8
Black
10
101.607
20
-122.857
11
100.732
21
-123.175
0
LINE
8
Black
10
100.732
20
-123.175
11
100.023
21
-123.77
0
LINE
8
Black
10
100.023
20
-123.77
11
99.5603
21
-124.572
0
LINE
8
Black
10
99.5603
20
-124.572
11
99.3978
21
-125.494
0
LINE
8
Black
10
99.3978
20
-125.494
11
99.3978
21
-151.958
0
LINE
8
Black
10
99.3978
20
-151.958
11
99.3961
21
-151.968
0
LINE
8
Black
10
99.3961
20
-151.968
11
99.3961
21
-151.978
0
LINE
8
Black
10
99.3961
20
-151.978
11
99.0533
21
-153.922
0
LINE
8
Black
10
99.0533
20
-153.922
11
99.0397
21
-153.959
0
LINE
8
Black
10
99.0397
20
-153.959
11
98.0526
21
-155.669
0
LINE
8
Black
10
98.0526
20
-155.669
11
98.0271
21
-155.7
0
LINE
8
Black
10
98.0271
20
-155.7
11
98.0271
21
-155.7
0
LINE
8
Black
10
98.0271
20
-155.7
11
98.0271
21
-155.7
0
LINE
8
Black
10
98.0271
20
-155.7
11
96.5147
21
-156.969
0
LINE
8
Black
10
96.5147
20
-156.969
11
96.5147
21
-156.969
0
LINE
8
Black
10
96.5147
20
-156.969
11
96.4804
21
-156.988
0
LINE
8
Black
10
96.4804
20
-156.988
11
96.4804
21
-156.988
0
LINE
8
Black
10
96.4804
20
-156.988
11
94.6252
21
-157.664
0
LINE
8
Black
10
94.6252
20
-157.664
11
94.5861
21
-157.67
0
LINE
8
Black
10
94.5861
20
-157.67
11
92.6119
21
-157.67
0
LINE
8
Black
10
92.6119
20
-157.67
11
92.5728
21
-157.664
0
LINE
8
Black
10
92.5728
20
-157.664
11
90.7176
21
-156.988
0
LINE
8
Black
10
90.7176
20
-156.988
11
90.6833
21
-156.969
0
LINE
8
Black
10
90.6833
20
-156.969
11
89.1709
21
-155.7
0
LINE
8
Black
10
89.1709
20
-155.7
11
89.1454
21
-155.669
0
LINE
8
Black
10
89.1454
20
-155.669
11
88.1583
21
-153.959
0
LINE
8
Black
10
88.1583
20
-153.959
11
88.1447
21
-153.922
0
LINE
8
Black
10
88.1447
20
-153.922
11
88.1447
21
-153.922
0
LINE
8
Black
10
88.1447
20
-153.922
11
87.8019
21
-151.978
0
LINE
8
Black
10
87.8019
20
-151.978
11
87.8019
21
-151.938
0
LINE
8
Black
10
87.8019
20
-151.938
11
87.8027
21
-151.936
0
LINE
8
Black
10
87.8027
20
-151.936
11
87.8027
21
-125.489
0
LINE
8
Black
10
87.8027
20
-125.489
11
87.7622
21
-125.026
0
LINE
8
Black
10
87.7622
20
-125.026
11
87.4439
21
-124.151
0
LINE
8
Black
10
87.4439
20
-124.151
11
86.8489
21
-123.442
0
LINE
8
Black
10
86.8489
20
-123.442
11
86.0473
21
-122.979
0
LINE
8
Black
10
86.0473
20
-122.979
11
85.1257
21
-122.817
0
LINE
8
Black
10
85.1257
20
-122.817
11
53.5813
21
-122.817
0
LINE
8
Black
10
53.5813
20
-122.817
11
53.5715
21
-122.815
0
LINE
8
Black
10
53.5715
20
-122.815
11
53.5615
21
-122.815
0
LINE
8
Black
10
53.5615
20
-122.815
11
52.6102
21
-122.647
0
LINE
8
Black
10
52.6102
20
-122.647
11
52.5729
21
-122.634
0
LINE
8
Black
10
52.5729
20
-122.634
11
51.7364
21
-122.151
0
LINE
8
Black
10
51.7364
20
-122.151
11
51.706
21
-122.125
0
LINE
8
Black
10
51.706
20
-122.125
11
51.0851
21
-121.385
0
LINE
8
Black
10
51.0851
20
-121.385
11
51.0652
21
-121.351
0
LINE
8
Black
10
51.0652
20
-121.351
11
50.7348
21
-120.443
0
LINE
8
Black
10
50.7348
20
-120.443
11
50.7323
21
-120.428
0
LINE
8
Black
10
50.7323
20
-120.428
11
50.7284
21
-120.414
0
LINE
8
Black
10
50.7284
20
-120.414
11
50.6861
21
-119.931
0
LINE
8
Black
10
50.6861
20
-119.931
11
50.6866
21
-119.926
0
LINE
8
Black
10
50.6866
20
-119.926
11
50.6857
21
-119.921
0
LINE
8
Black
10
50.6857
20
-119.921
11
50.6857
21
-28.1813
0
LINE
8
Black
10
50.6857
20
-28.1813
11
50.6874
21
-28.1715
0
LINE
8
Black
10
50.6874
20
-28.1715
11
50.6874
21
-28.1615
0
LINE
8
Black
10
50.6874
20
-28.1615
11
50.8552
21
-27.2102
0
LINE
8
Black
10
50.8552
20
-27.2102
11
50.8552
21
-27.2102
0
LINE
8
Black
10
50.8552
20
-27.2102
11
50.8687
21
-27.1729
0
LINE
8
Black
10
50.8687
20
-27.1729
11
51.3517
21
-26.3364
0
LINE
8
Black
10
51.3517
20
-26.3364
11
51.3772
21
-26.306
0
LINE
8
Black
10
51.3772
20
-26.306
11
52.1172
21
-25.6851
0
LINE
8
Black
10
52.1172
20
-25.6851
11
52.1516
21
-25.6652
0
LINE
8
Black
10
52.1516
20
-25.6652
11
53.0592
21
-25.3348
0
LINE
8
Black
10
53.0592
20
-25.3348
11
53.0739
21
-25.3323
0
LINE
8
Black
10
53.0739
20
-25.3323
11
53.0884
21
-25.3284
0
LINE
8
Black
10
53.0884
20
-25.3284
11
53.5713
21
-25.2861
0
LINE
8
Black
10
53.5713
20
-25.2861
11
53.5763
21
-25.2866
0
LINE
8
Black
10
53.5763
20
-25.2866
11
53.5813
21
-25.2857
0
LINE
8
Black
10
53.5813
20
-25.2857
11
133.619
21
-25.2857
0
LINE
8
Black
10
133.619
20
-25.2857
11
133.629
21
-25.2874
0
LINE
8
Black
10
133.629
20
-25.2874
11
133.639
21
-25.2874
0
LINE
8
Black
10
133.639
20
-25.2874
11
134.59
21
-25.4552
0
LINE
8
Black
10
134.59
20
-25.4552
11
134.59
21
-25.4552
0
LINE
8
Black
10
134.59
20
-25.4552
11
134.628
21
-25.4687
0
LINE
8
Black
10
134.628
20
-25.4687
11
135.464
21
-25.9517
0
LINE
8
Black
10
135.464
20
-25.9517
11
135.495
21
-25.9772
0
LINE
8
Black
10
135.495
20
-25.9772
11
136.115
21
-26.7172
0
LINE
8
Black
10
136.115
20
-26.7172
11
136.135
21
-26.7516
0
LINE
8
Black
10
136.135
20
-26.7516
11
136.466
21
-27.6592
0
LINE
8
Black
10
136.466
20
-27.6592
11
136.468
21
-27.6739
0
LINE
8
Black
10
136.468
20
-27.6739
11
136.472
21
-27.6884
0
LINE
8
Black
10
136.472
20
-27.6884
11
136.514
21
-28.1713
0
LINE
8
Black
10
136.514
20
-28.1713
11
136.514
21
-28.1763
0
LINE
8
Black
10
136.514
20
-28.1763
11
136.515
21
-28.1813
0
LINE
8
Black
10
136.515
20
-28.1813
11
136.515
21
-119.921
0
LINE
8
Black
10
136.515
20
-119.921
11
136.513
21
-119.931
0
LINE
8
Black
10
136.513
20
-119.931
11
136.513
21
-119.941
0
LINE
8
Black
10
136.513
20
-119.941
11
136.345
21
-120.892
0
LINE
8
Black
10
136.345
20
-120.892
11
136.332
21
-120.929
0
LINE
8
Black
10
136.332
20
-120.929
11
136.286
21
-121.008
0
LINE
8
Black
10
136.286
20
-121.008
11
135.849
21
-121.766
0
LINE
8
Black
10
136.246
20
-27.7233
11
135.927
21
-26.8487
0
LINE
8
Black
10
135.927
20
-26.8487
11
135.332
21
-26.1396
0
LINE
8
Black
10
135.332
20
-26.1396
11
134.531
21
-25.6768
0
LINE
8
Black
10
134.531
20
-25.6768
11
133.609
21
-25.5143
0
LINE
8
Black
10
133.609
20
-25.5143
11
53.5863
21
-25.5143
0
LINE
8
Black
10
53.5863
20
-25.5143
11
53.1233
21
-25.5548
0
LINE
8
Black
10
53.1233
20
-25.5548
11
52.2487
21
-25.8731
0
LINE
8
Black
10
52.2487
20
-25.8731
11
51.5396
21
-26.4681
0
LINE
8
Black
10
51.5396
20
-26.4681
11
51.0768
21
-27.2697
0
LINE
8
Black
10
51.0768
20
-27.2697
11
50.9143
21
-28.1913
0
LINE
8
Black
10
50.9143
20
-28.1913
11
50.9143
21
-119.916
0
LINE
8
Black
10
50.9143
20
-119.916
11
50.9548
21
-120.379
0
LINE
8
Black
10
50.9548
20
-120.379
11
51.2731
21
-121.254
0
LINE
8
Black
10
51.2731
20
-121.254
11
51.8681
21
-121.963
0
LINE
8
Black
10
51.8681
20
-121.963
11
52.6697
21
-122.426
0
LINE
8
Black
10
52.6697
20
-122.426
11
53.5913
21
-122.588
0
LINE
8
Black
10
53.5913
20
-122.588
11
85.1357
21
-122.588
0
LINE
8
Black
10
85.1357
20
-122.588
11
85.1456
21
-122.59
0
LINE
8
Black
10
85.1456
20
-122.59
11
85.1556
21
-122.59
0
LINE
8
Black
10
85.1556
20
-122.59
11
86.1068
21
-122.757
0
LINE
8
Black
10
86.1068
20
-122.757
11
86.1068
21
-122.757
0
LINE
8
Black
10
86.1068
20
-122.757
11
86.1441
21
-122.771
0
LINE
8
Black
10
86.1441
20
-122.771
11
86.9807
21
-123.254
0
LINE
8
Black
10
86.9807
20
-123.254
11
87.0111
21
-123.28
0
LINE
8
Black
10
87.0111
20
-123.28
11
87.632
21
-124.019
0
LINE
8
Black
10
87.632
20
-124.019
11
87.6518
21
-124.054
0
LINE
8
Black
10
87.6518
20
-124.054
11
87.9822
21
-124.962
0
LINE
8
Black
10
87.9822
20
-124.962
11
87.9848
21
-124.976
0
LINE
8
Black
10
87.9848
20
-124.976
11
87.9886
21
-124.991
0
LINE
8
Black
10
87.9886
20
-124.991
11
88.0309
21
-125.474
0
LINE
8
Black
10
88.0309
20
-125.474
11
88.0304
21
-125.479
0
LINE
8
Black
10
88.0304
20
-125.479
11
88.0313
21
-125.484
0
LINE
8
Black
10
88.0313
20
-125.484
11
88.0313
21
-151.958
0
LINE
8
Black
10
88.0313
20
-151.958
11
88.0309
21
-151.96
0
LINE
8
Black
10
88.0309
20
-151.96
11
88.3664
21
-153.863
0
LINE
8
Black
10
88.3664
20
-153.863
11
89.3333
21
-155.537
0
LINE
8
Black
10
89.3333
20
-155.537
11
90.8148
21
-156.78
0
LINE
8
Black
10
90.8148
20
-156.78
11
92.632
21
-157.442
0
LINE
8
Black
10
92.632
20
-157.442
11
94.566
21
-157.442
0
LINE
8
Black
10
94.566
20
-157.442
11
96.3832
21
-156.78
0
LINE
8
Black
10
96.3832
20
-156.78
11
97.8647
21
-155.537
0
LINE
8
Black
10
97.8647
20
-155.537
11
98.8316
21
-153.863
0
LINE
8
Black
10
98.8316
20
-153.863
11
99.1692
21
-151.948
0
LINE
8
Black
10
99.1692
20
-151.948
11
99.1692
21
-125.484
0
LINE
8
Black
10
99.1692
20
-125.484
11
99.171
21
-125.474
0
LINE
8
Black
10
99.171
20
-125.474
11
99.171
21
-125.464
0
LINE
8
Black
10
99.171
20
-125.464
11
99.3387
21
-124.513
0
LINE
8
Black
10
99.3387
20
-124.513
11
99.3387
21
-124.513
0
LINE
8
Black
10
99.3387
20
-124.513
11
99.3523
21
-124.475
0
LINE
8
Black
10
99.3523
20
-124.475
11
99.8352
21
-123.639
0
LINE
8
Black
10
99.8352
20
-123.639
11
99.8607
21
-123.608
0
LINE
8
Black
10
99.8607
20
-123.608
11
100.601
21
-122.987
0
LINE
8
Black
10
100.601
20
-122.987
11
100.635
21
-122.968
0
LINE
8
Black
10
100.635
20
-122.968
11
101.543
21
-122.637
0
LINE
8
Black
10
101.543
20
-122.637
11
101.557
21
-122.635
0
LINE
8
Black
10
101.557
20
-122.635
11
101.572
21
-122.631
0
LINE
8
Black
10
101.572
20
-122.631
11
102.055
21
-122.588
0
LINE
8
Black
10
102.055
20
-122.588
11
102.06
21
-122.589
0
LINE
8
Black
10
102.06
20
-122.589
11
102.065
21
-122.588
0
LINE
8
Black
10
102.065
20
-122.588
11
133.614
21
-122.588
0
LINE
8
Black
10
133.614
20
-122.588
11
134.077
21
-122.548
0
LINE
8
Black
10
134.077
20
-122.548
11
134.952
21
-122.229
0
LINE
8
Black
10
134.952
20
-122.229
11
135.661
21
-121.634
0
LINE
8
Black
10
135.661
20
-121.634
11
136.124
21
-120.833
0
LINE
8
Black
10
136.124
20
-120.833
11
136.286
21
-119.911
0
LINE
8
Black
10
136.286
20
-119.911
11
136.286
21
-28.1863
0
LINE
8
Black
10
136.286
20
-28.1863
11
136.246
21
-27.7233
  0
ENDSEC
  0
EOF
