  0
SECTION
  2
HEADER
  9
$ANGBASE
  50
0.0
  9
$ANGDIR
  70
  1
  9
$MEASUREMENT
  70
0
  0
ENDSEC
  0
SECTION
  2
TABLES
  0
TABLE
  2
LTYPE
  70
1
  0
LTYPE
  2
CONTINUOUS
  70
0
  3
Solid line
  72
65
  73
0
  40
0.0
  0
ENDTAB
  0
TABLE
  2
STYLE
  70
4
  0
STYLE
  2
KICAD
  70
0
  40
0
  41
1
  42
1
  50
0
  71
0
  3
isocp.shx
  0
STYLE
  2
KICADB
  70
0
  40
0
  41
1
  42
1
  50
0
  71
0
  3
isocp.shx
  0
STYLE
  2
KICADI
  70
0
  40
0
  41
1
  42
1
  50
15
  71
0
  3
isocp.shx
  0
STYLE
  2
KICADBI
  70
0
  40
0
  41
1
  42
1
  50
15
  71
0
  3
isocp.shx
  0
ENDTAB
  0
TABLE
  2
LAYER
  70
30
  0
LAYER
  2
BLACK
  70
0
  62
7
  6
CONTINUOUS
  0
LAYER
  2
GRAY1
  70
0
  62
251
  6
CONTINUOUS
  0
LAYER
  2
GRAY2
  70
0
  62
8
  6
CONTINUOUS
  0
LAYER
  2
GRAY3
  70
0
  62
9
  6
CONTINUOUS
  0
LAYER
  2
WHITE
  70
0
  62
7
  6
CONTINUOUS
  0
LAYER
  2
LYELLOW
  70
0
  62
51
  6
CONTINUOUS
  0
LAYER
  2
BLUE1
  70
0
  62
178
  6
CONTINUOUS
  0
LAYER
  2
GREEN1
  70
0
  62
98
  6
CONTINUOUS
  0
LAYER
  2
CYAN1
  70
0
  62
138
  6
CONTINUOUS
  0
LAYER
  2
RED1
  70
0
  62
18
  6
CONTINUOUS
  0
LAYER
  2
MAGENTA1
  70
0
  62
228
  6
CONTINUOUS
  0
LAYER
  2
BROWN1
  70
0
  62
58
  6
CONTINUOUS
  0
LAYER
  2
BLUE2
  70
0
  62
5
  6
CONTINUOUS
  0
LAYER
  2
GREEN2
  70
0
  62
3
  6
CONTINUOUS
  0
LAYER
  2
CYAN2
  70
0
  62
4
  6
CONTINUOUS
  0
LAYER
  2
RED2
  70
0
  62
1
  6
CONTINUOUS
  0
LAYER
  2
MAGENTA2
  70
0
  62
6
  6
CONTINUOUS
  0
LAYER
  2
BROWN2
  70
0
  62
54
  6
CONTINUOUS
  0
LAYER
  2
BLUE3
  70
0
  62
171
  6
CONTINUOUS
  0
LAYER
  2
GREEN3
  70
0
  62
91
  6
CONTINUOUS
  0
LAYER
  2
CYAN3
  70
0
  62
131
  6
CONTINUOUS
  0
LAYER
  2
RED3
  70
0
  62
11
  6
CONTINUOUS
  0
LAYER
  2
MAGENTA3
  70
0
  62
221
  6
CONTINUOUS
  0
LAYER
  2
YELLOW3
  70
0
  62
2
  6
CONTINUOUS
  0
LAYER
  2
BLUE4
  70
0
  62
5
  6
CONTINUOUS
  0
LAYER
  2
GREEN4
  70
0
  62
3
  6
CONTINUOUS
  0
LAYER
  2
CYAN4
  70
0
  62
4
  6
CONTINUOUS
  0
LAYER
  2
RED4
  70
0
  62
1
  6
CONTINUOUS
  0
LAYER
  2
MAGENTA4
  70
0
  62
6
  6
CONTINUOUS
  0
LAYER
  2
YELLOW4
  70
0
  62
2
  6
CONTINUOUS
  0
ENDTAB
  0
ENDSEC
  0
SECTION
  2
ENTITIES
0
LINE
8
Black
10
55.4101
20
-118.862
11
54.6887
21
-118.862
0
LINE
8
Black
10
54.6887
20
-118.862
11
54.6887
21
-118.14
0
LINE
8
Black
10
54.6887
20
-118.14
11
55.4101
21
-118.14
0
LINE
8
Black
10
55.4101
20
-118.14
11
55.4101
21
-118.862
0
LINE
8
Black
10
56.3093
20
-118.862
11
55.5879
21
-118.862
0
LINE
8
Black
10
55.5879
20
-118.862
11
55.5879
21
-118.14
0
LINE
8
Black
10
55.5879
20
-118.14
11
56.3093
21
-118.14
0
LINE
8
Black
10
56.3093
20
-118.14
11
56.3093
21
-118.862
0
LINE
8
Black
10
57.4897
20
-86.1892
11
52.5939
21
-86.1892
0
LINE
8
Black
10
52.5939
20
-86.1892
11
52.5939
21
-84.7732
0
LINE
8
Black
10
52.5939
20
-84.7732
11
57.4897
21
-84.7732
0
LINE
8
Black
10
57.4897
20
-84.7732
11
57.4897
21
-86.1892
0
LINE
8
Black
10
57.4897
20
-88.7292
11
52.5939
21
-88.7292
0
LINE
8
Black
10
52.5939
20
-88.7292
11
52.5939
21
-87.3132
0
LINE
8
Black
10
52.5939
20
-87.3132
11
57.4897
21
-87.3132
0
LINE
8
Black
10
57.4897
20
-87.3132
11
57.4897
21
-88.7292
0
LINE
8
Black
10
57.4897
20
-91.2692
11
52.5939
21
-91.2692
0
LINE
8
Black
10
52.5939
20
-91.2692
11
52.5939
21
-89.8532
0
LINE
8
Black
10
52.5939
20
-89.8532
11
57.4897
21
-89.8532
0
LINE
8
Black
10
57.4897
20
-89.8532
11
57.4897
21
-91.2692
0
LINE
8
Black
10
57.4897
20
-93.8092
11
52.5939
21
-93.8092
0
LINE
8
Black
10
52.5939
20
-93.8092
11
52.5939
21
-92.3932
0
LINE
8
Black
10
52.5939
20
-92.3932
11
57.4897
21
-92.3932
0
LINE
8
Black
10
57.4897
20
-92.3932
11
57.4897
21
-93.8092
0
LINE
8
Black
10
57.4897
20
-96.3492
11
52.5939
21
-96.3492
0
LINE
8
Black
10
52.5939
20
-96.3492
11
52.5939
21
-94.9332
0
LINE
8
Black
10
52.5939
20
-94.9332
11
57.4897
21
-94.9332
0
LINE
8
Black
10
57.4897
20
-94.9332
11
57.4897
21
-96.3492
0
LINE
8
Black
10
57.4897
20
-98.8892
11
52.5939
21
-98.8892
0
LINE
8
Black
10
52.5939
20
-98.8892
11
52.5939
21
-97.4732
0
LINE
8
Black
10
52.5939
20
-97.4732
11
57.4897
21
-97.4732
0
LINE
8
Black
10
57.4897
20
-97.4732
11
57.4897
21
-98.8892
0
LINE
8
Black
10
57.4897
20
-101.429
11
52.5939
21
-101.429
0
LINE
8
Black
10
52.5939
20
-101.429
11
52.5939
21
-100.013
0
LINE
8
Black
10
52.5939
20
-100.013
11
57.4897
21
-100.013
0
LINE
8
Black
10
57.4897
20
-100.013
11
57.4897
21
-101.429
0
LINE
8
Black
10
58.2676
20
-119.149
11
56.9722
21
-119.149
0
LINE
8
Black
10
56.9722
20
-119.149
11
56.9722
21
-117.853
0
LINE
8
Black
10
56.9722
20
-117.853
11
58.2676
21
-117.853
0
LINE
8
Black
10
58.2676
20
-117.853
11
58.2676
21
-119.149
0
LINE
8
Black
10
60.3758
20
-119.149
11
59.0804
21
-119.149
0
LINE
8
Black
10
59.0804
20
-119.149
11
59.0804
21
-117.853
0
LINE
8
Black
10
59.0804
20
-117.853
11
60.3758
21
-117.853
0
LINE
8
Black
10
60.3758
20
-117.853
11
60.3758
21
-119.149
0
LINE
8
Black
10
59.9486
20
-32.1919
11
61.3242
21
-32.9861
0
LINE
8
Black
10
61.3242
20
-32.9861
11
62.3452
21
-34.2028
0
LINE
8
Black
10
62.3452
20
-34.2028
11
62.8884
21
-35.6954
0
LINE
8
Black
10
62.8884
20
-35.6954
11
62.8884
21
-37.2838
0
LINE
8
Black
10
62.8884
20
-37.2838
11
62.3452
21
-38.7764
0
LINE
8
Black
10
62.3452
20
-38.7764
11
61.3242
21
-39.9931
0
LINE
8
Black
10
61.3242
20
-39.9931
11
59.9486
21
-40.7873
0
LINE
8
Black
10
59.9486
20
-40.7873
11
58.3844
21
-41.0631
0
LINE
8
Black
10
58.3844
20
-41.0631
11
56.8202
21
-40.7873
0
LINE
8
Black
10
56.8202
20
-40.7873
11
55.4446
21
-39.9931
0
LINE
8
Black
10
55.4446
20
-39.9931
11
54.4236
21
-38.7764
0
LINE
8
Black
10
54.4236
20
-38.7764
11
53.8804
21
-37.2838
0
LINE
8
Black
10
53.8804
20
-37.2838
11
53.8804
21
-35.6954
0
LINE
8
Black
10
53.8804
20
-35.6954
11
54.4236
21
-34.2028
0
LINE
8
Black
10
54.4236
20
-34.2028
11
55.4446
21
-32.9861
0
LINE
8
Black
10
55.4446
20
-32.9861
11
56.8202
21
-32.1919
0
LINE
8
Black
10
56.8202
20
-32.1919
11
58.3844
21
-31.9161
0
LINE
8
Black
10
58.3844
20
-31.9161
11
59.9486
21
-32.1919
0
LINE
8
Black
10
59.9486
20
-69.7535
11
61.3242
21
-70.5477
0
LINE
8
Black
10
61.3242
20
-70.5477
11
62.3452
21
-71.7644
0
LINE
8
Black
10
62.3452
20
-71.7644
11
62.8884
21
-73.257
0
LINE
8
Black
10
62.8884
20
-73.257
11
62.8884
21
-74.8454
0
LINE
8
Black
10
62.8884
20
-74.8454
11
62.3452
21
-76.338
0
LINE
8
Black
10
62.3452
20
-76.338
11
61.3242
21
-77.5547
0
LINE
8
Black
10
61.3242
20
-77.5547
11
59.9486
21
-78.3489
0
LINE
8
Black
10
59.9486
20
-78.3489
11
58.3844
21
-78.6247
0
LINE
8
Black
10
58.3844
20
-78.6247
11
56.8202
21
-78.3489
0
LINE
8
Black
10
56.8202
20
-78.3489
11
55.4446
21
-77.5547
0
LINE
8
Black
10
55.4446
20
-77.5547
11
54.4236
21
-76.338
0
LINE
8
Black
10
54.4236
20
-76.338
11
53.8804
21
-74.8454
0
LINE
8
Black
10
53.8804
20
-74.8454
11
53.8804
21
-73.257
0
LINE
8
Black
10
53.8804
20
-73.257
11
54.4236
21
-71.7644
0
LINE
8
Black
10
54.4236
20
-71.7644
11
55.4446
21
-70.5477
0
LINE
8
Black
10
55.4446
20
-70.5477
11
56.8202
21
-69.7535
0
LINE
8
Black
10
56.8202
20
-69.7535
11
58.3844
21
-69.4777
0
LINE
8
Black
10
58.3844
20
-69.4777
11
59.9486
21
-69.7535
0
LINE
8
Black
10
59.9486
20
-107.315
11
61.3242
21
-108.109
0
LINE
8
Black
10
61.3242
20
-108.109
11
62.3452
21
-109.326
0
LINE
8
Black
10
62.3452
20
-109.326
11
62.8884
21
-110.819
0
LINE
8
Black
10
62.8884
20
-110.819
11
62.8884
21
-112.407
0
LINE
8
Black
10
62.8884
20
-112.407
11
62.3452
21
-113.9
0
LINE
8
Black
10
62.3452
20
-113.9
11
61.3242
21
-115.117
0
LINE
8
Black
10
61.3242
20
-115.117
11
59.9486
21
-115.911
0
LINE
8
Black
10
59.9486
20
-115.911
11
58.3844
21
-116.187
0
LINE
8
Black
10
58.3844
20
-116.187
11
56.8202
21
-115.911
0
LINE
8
Black
10
56.8202
20
-115.911
11
55.4446
21
-115.117
0
LINE
8
Black
10
55.4446
20
-115.117
11
54.4236
21
-113.9
0
LINE
8
Black
10
54.4236
20
-113.9
11
53.8804
21
-112.407
0
LINE
8
Black
10
53.8804
20
-112.407
11
53.8804
21
-110.819
0
LINE
8
Black
10
53.8804
20
-110.819
11
54.4236
21
-109.326
0
LINE
8
Black
10
54.4236
20
-109.326
11
55.4446
21
-108.109
0
LINE
8
Black
10
55.4446
20
-108.109
11
56.8202
21
-107.315
0
LINE
8
Black
10
56.8202
20
-107.315
11
58.3844
21
-107.039
0
LINE
8
Black
10
58.3844
20
-107.039
11
59.9486
21
-107.315
0
LINE
8
Black
10
63.4841
20
-86.1892
11
58.5883
21
-86.1892
0
LINE
8
Black
10
58.5883
20
-86.1892
11
58.5883
21
-84.7732
0
LINE
8
Black
10
58.5883
20
-84.7732
11
63.4841
21
-84.7732
0
LINE
8
Black
10
63.4841
20
-84.7732
11
63.4841
21
-86.1892
0
LINE
8
Black
10
63.4841
20
-88.7292
11
58.5883
21
-88.7292
0
LINE
8
Black
10
58.5883
20
-88.7292
11
58.5883
21
-87.3132
0
LINE
8
Black
10
58.5883
20
-87.3132
11
63.4841
21
-87.3132
0
LINE
8
Black
10
63.4841
20
-87.3132
11
63.4841
21
-88.7292
0
LINE
8
Black
10
63.4841
20
-91.2692
11
58.5883
21
-91.2692
0
LINE
8
Black
10
58.5883
20
-91.2692
11
58.5883
21
-89.8532
0
LINE
8
Black
10
58.5883
20
-89.8532
11
63.4841
21
-89.8532
0
LINE
8
Black
10
63.4841
20
-89.8532
11
63.4841
21
-91.2692
0
LINE
8
Black
10
63.4841
20
-93.8092
11
58.5883
21
-93.8092
0
LINE
8
Black
10
58.5883
20
-93.8092
11
58.5883
21
-92.3932
0
LINE
8
Black
10
58.5883
20
-92.3932
11
63.4841
21
-92.3932
0
LINE
8
Black
10
63.4841
20
-92.3932
11
63.4841
21
-93.8092
0
LINE
8
Black
10
63.4841
20
-96.3492
11
58.5883
21
-96.3492
0
LINE
8
Black
10
58.5883
20
-96.3492
11
58.5883
21
-94.9332
0
LINE
8
Black
10
58.5883
20
-94.9332
11
63.4841
21
-94.9332
0
LINE
8
Black
10
63.4841
20
-94.9332
11
63.4841
21
-96.3492
0
LINE
8
Black
10
63.4841
20
-98.8892
11
58.5883
21
-98.8892
0
LINE
8
Black
10
58.5883
20
-98.8892
11
58.5883
21
-97.4732
0
LINE
8
Black
10
58.5883
20
-97.4732
11
63.4841
21
-97.4732
0
LINE
8
Black
10
63.4841
20
-97.4732
11
63.4841
21
-98.8892
0
LINE
8
Black
10
63.4841
20
-101.429
11
58.5883
21
-101.429
0
LINE
8
Black
10
58.5883
20
-101.429
11
58.5883
21
-100.013
0
LINE
8
Black
10
58.5883
20
-100.013
11
63.4841
21
-100.013
0
LINE
8
Black
10
63.4841
20
-100.013
11
63.4841
21
-101.429
0
LINE
8
Black
10
64.3865
20
-33.3223
11
63.6651
21
-33.3223
0
LINE
8
Black
10
63.6651
20
-33.3223
11
63.6651
21
-32.6009
0
LINE
8
Black
10
63.6651
20
-32.6009
11
64.3865
21
-32.6009
0
LINE
8
Black
10
64.3865
20
-32.6009
11
64.3865
21
-33.3223
0
LINE
8
Black
10
64.3865
20
-34.2215
11
63.6651
21
-34.2215
0
LINE
8
Black
10
63.6651
20
-34.2215
11
63.6651
21
-33.5001
0
LINE
8
Black
10
63.6651
20
-33.5001
11
64.3865
21
-33.5001
0
LINE
8
Black
10
64.3865
20
-33.5001
11
64.3865
21
-34.2215
0
LINE
8
Black
10
64.3865
20
-70.7873
11
63.6651
21
-70.7873
0
LINE
8
Black
10
63.6651
20
-70.7873
11
63.6651
21
-70.0659
0
LINE
8
Black
10
63.6651
20
-70.0659
11
64.3865
21
-70.0659
0
LINE
8
Black
10
64.3865
20
-70.0659
11
64.3865
21
-70.7873
0
LINE
8
Black
10
64.3865
20
-71.6865
11
63.6651
21
-71.6865
0
LINE
8
Black
10
63.6651
20
-71.6865
11
63.6651
21
-70.9651
0
LINE
8
Black
10
63.6651
20
-70.9651
11
64.3865
21
-70.9651
0
LINE
8
Black
10
64.3865
20
-70.9651
11
64.3865
21
-71.6865
0
LINE
8
Black
10
64.3865
20
-108.252
11
63.6651
21
-108.252
0
LINE
8
Black
10
63.6651
20
-108.252
11
63.6651
21
-107.531
0
LINE
8
Black
10
63.6651
20
-107.531
11
64.3865
21
-107.531
0
LINE
8
Black
10
64.3865
20
-107.531
11
64.3865
21
-108.252
0
LINE
8
Black
10
64.3865
20
-109.151
11
63.6651
21
-109.151
0
LINE
8
Black
10
63.6651
20
-109.151
11
63.6651
21
-108.43
0
LINE
8
Black
10
63.6651
20
-108.43
11
64.3865
21
-108.43
0
LINE
8
Black
10
64.3865
20
-108.43
11
64.3865
21
-109.151
0
LINE
8
Black
10
64.6735
20
-36.0832
11
63.3781
21
-36.0832
0
LINE
8
Black
10
63.3781
20
-36.0832
11
63.3781
21
-34.7878
0
LINE
8
Black
10
63.3781
20
-34.7878
11
64.6735
21
-34.7878
0
LINE
8
Black
10
64.6735
20
-34.7878
11
64.6735
21
-36.0832
0
LINE
8
Black
10
64.6735
20
-38.1914
11
63.3781
21
-38.1914
0
LINE
8
Black
10
63.3781
20
-38.1914
11
63.3781
21
-36.896
0
LINE
8
Black
10
63.3781
20
-36.896
11
64.6735
21
-36.896
0
LINE
8
Black
10
64.6735
20
-36.896
11
64.6735
21
-38.1914
0
LINE
8
Black
10
64.6735
20
-73.6448
11
63.3781
21
-73.6448
0
LINE
8
Black
10
63.3781
20
-73.6448
11
63.3781
21
-72.3494
0
LINE
8
Black
10
63.3781
20
-72.3494
11
64.6735
21
-72.3494
0
LINE
8
Black
10
64.6735
20
-72.3494
11
64.6735
21
-73.6448
0
LINE
8
Black
10
64.6735
20
-75.753
11
63.3781
21
-75.753
0
LINE
8
Black
10
63.3781
20
-75.753
11
63.3781
21
-74.4576
0
LINE
8
Black
10
63.3781
20
-74.4576
11
64.6735
21
-74.4576
0
LINE
8
Black
10
64.6735
20
-74.4576
11
64.6735
21
-75.753
0
LINE
8
Black
10
64.6735
20
-111.207
11
63.3781
21
-111.207
0
LINE
8
Black
10
63.3781
20
-111.207
11
63.3781
21
-109.911
0
LINE
8
Black
10
63.3781
20
-109.911
11
64.6735
21
-109.911
0
LINE
8
Black
10
64.6735
20
-109.911
11
64.6735
21
-111.207
0
LINE
8
Black
10
64.6735
20
-113.315
11
63.3781
21
-113.315
0
LINE
8
Black
10
63.3781
20
-113.315
11
63.3781
21
-112.019
0
LINE
8
Black
10
63.3781
20
-112.019
11
64.6735
21
-112.019
0
LINE
8
Black
10
64.6735
20
-112.019
11
64.6735
21
-113.315
0
LINE
8
Black
10
67.443
20
-26.3155
11
68.0402
21
-26.6603
0
LINE
8
Black
10
68.0402
20
-26.6603
11
68.4834
21
-27.1885
0
LINE
8
Black
10
68.4834
20
-27.1885
11
68.7193
21
-27.8365
0
LINE
8
Black
10
68.7193
20
-27.8365
11
68.7193
21
-28.5261
0
LINE
8
Black
10
68.7193
20
-28.5261
11
68.4834
21
-29.1741
0
LINE
8
Black
10
68.4834
20
-29.1741
11
68.0402
21
-29.7023
0
LINE
8
Black
10
68.0402
20
-29.7023
11
67.443
21
-30.0471
0
LINE
8
Black
10
67.443
20
-30.0471
11
66.7639
21
-30.1669
0
LINE
8
Black
10
66.7639
20
-30.1669
11
66.0848
21
-30.0471
0
LINE
8
Black
10
66.0848
20
-30.0471
11
65.4876
21
-29.7023
0
LINE
8
Black
10
65.4876
20
-29.7023
11
65.0444
21
-29.1741
0
LINE
8
Black
10
65.0444
20
-29.1741
11
64.8085
21
-28.5261
0
LINE
8
Black
10
64.8085
20
-28.5261
11
64.8085
21
-27.8365
0
LINE
8
Black
10
64.8085
20
-27.8365
11
65.0444
21
-27.1885
0
LINE
8
Black
10
65.0444
20
-27.1885
11
65.4876
21
-26.6603
0
LINE
8
Black
10
65.4876
20
-26.6603
11
66.0848
21
-26.3155
0
LINE
8
Black
10
66.0848
20
-26.3155
11
66.7639
21
-26.1957
0
LINE
8
Black
10
66.7639
20
-26.1957
11
67.443
21
-26.3155
0
LINE
8
Black
10
67.443
20
-63.877
11
68.0402
21
-64.2218
0
LINE
8
Black
10
68.0402
20
-64.2218
11
68.4834
21
-64.75
0
LINE
8
Black
10
68.4834
20
-64.75
11
68.7193
21
-65.398
0
LINE
8
Black
10
68.7193
20
-65.398
11
68.7193
21
-66.0876
0
LINE
8
Black
10
68.7193
20
-66.0876
11
68.4834
21
-66.7356
0
LINE
8
Black
10
68.4834
20
-66.7356
11
68.0402
21
-67.2638
0
LINE
8
Black
10
68.0402
20
-67.2638
11
67.443
21
-67.6086
0
LINE
8
Black
10
67.443
20
-67.6086
11
66.7639
21
-67.7284
0
LINE
8
Black
10
66.7639
20
-67.7284
11
66.0848
21
-67.6086
0
LINE
8
Black
10
66.0848
20
-67.6086
11
65.4876
21
-67.2638
0
LINE
8
Black
10
65.4876
20
-67.2638
11
65.0444
21
-66.7356
0
LINE
8
Black
10
65.0444
20
-66.7356
11
64.8085
21
-66.0876
0
LINE
8
Black
10
64.8085
20
-66.0876
11
64.8085
21
-65.398
0
LINE
8
Black
10
64.8085
20
-65.398
11
65.0444
21
-64.75
0
LINE
8
Black
10
65.0444
20
-64.75
11
65.4876
21
-64.2218
0
LINE
8
Black
10
65.4876
20
-64.2218
11
66.0848
21
-63.877
0
LINE
8
Black
10
66.0848
20
-63.877
11
66.7639
21
-63.7572
0
LINE
8
Black
10
66.7639
20
-63.7572
11
67.443
21
-63.877
0
LINE
8
Black
10
67.443
20
-118.055
11
68.0402
21
-118.4
0
LINE
8
Black
10
68.0402
20
-118.4
11
68.4834
21
-118.928
0
LINE
8
Black
10
68.4834
20
-118.928
11
68.7193
21
-119.576
0
LINE
8
Black
10
68.7193
20
-119.576
11
68.7193
21
-120.266
0
LINE
8
Black
10
68.7193
20
-120.266
11
68.4834
21
-120.914
0
LINE
8
Black
10
68.4834
20
-120.914
11
68.0402
21
-121.442
0
LINE
8
Black
10
68.0402
20
-121.442
11
67.443
21
-121.787
0
LINE
8
Black
10
67.443
20
-121.787
11
66.7639
21
-121.907
0
LINE
8
Black
10
66.7639
20
-121.907
11
66.0848
21
-121.787
0
LINE
8
Black
10
66.0848
20
-121.787
11
65.4876
21
-121.442
0
LINE
8
Black
10
65.4876
20
-121.442
11
65.0444
21
-120.914
0
LINE
8
Black
10
65.0444
20
-120.914
11
64.8085
21
-120.266
0
LINE
8
Black
10
64.8085
20
-120.266
11
64.8085
21
-119.576
0
LINE
8
Black
10
64.8085
20
-119.576
11
65.0444
21
-118.928
0
LINE
8
Black
10
65.0444
20
-118.928
11
65.4876
21
-118.4
0
LINE
8
Black
10
65.4876
20
-118.4
11
66.0848
21
-118.055
0
LINE
8
Black
10
66.0848
20
-118.055
11
66.7639
21
-117.935
0
LINE
8
Black
10
66.7639
20
-117.935
11
67.443
21
-118.055
0
LINE
8
Black
10
68.78
20
-91.3962
11
67.11
21
-91.3962
0
LINE
8
Black
10
67.11
20
-91.3962
11
67.11
21
-88.4562
0
LINE
8
Black
10
67.11
20
-88.4562
11
68.78
21
-88.4562
0
LINE
8
Black
10
68.78
20
-88.4562
11
68.78
21
-91.3962
0
LINE
8
Black
10
68.78
20
-97.7462
11
67.11
21
-97.7462
0
LINE
8
Black
10
67.11
20
-97.7462
11
67.11
21
-94.8062
0
LINE
8
Black
10
67.11
20
-94.8062
11
68.78
21
-94.8062
0
LINE
8
Black
10
68.78
20
-94.8062
11
68.78
21
-97.7462
0
LINE
8
Black
10
69.034
20
-44.7237
11
67.364
21
-44.7237
0
LINE
8
Black
10
67.364
20
-44.7237
11
67.364
21
-41.3519
0
LINE
8
Black
10
67.364
20
-41.3519
11
69.034
21
-41.3519
0
LINE
8
Black
10
69.034
20
-41.3519
11
69.034
21
-44.7237
0
LINE
8
Black
10
69.034
20
-82.8237
11
67.364
21
-82.8237
0
LINE
8
Black
10
67.364
20
-82.8237
11
67.364
21
-79.4519
0
LINE
8
Black
10
67.364
20
-79.4519
11
69.034
21
-79.4519
0
LINE
8
Black
10
69.034
20
-79.4519
11
69.034
21
-82.8237
0
LINE
8
Black
10
69.034
20
-103.143
11
67.364
21
-103.143
0
LINE
8
Black
10
67.364
20
-103.143
11
67.364
21
-99.7717
0
LINE
8
Black
10
67.364
20
-99.7717
11
69.034
21
-99.7717
0
LINE
8
Black
10
69.034
20
-99.7717
11
69.034
21
-103.143
0
LINE
8
Black
10
71.574
20
-48.3305
11
69.904
21
-48.3305
0
LINE
8
Black
10
69.904
20
-48.3305
11
69.904
21
-44.9587
0
LINE
8
Black
10
69.904
20
-44.9587
11
71.574
21
-44.9587
0
LINE
8
Black
10
71.574
20
-44.9587
11
71.574
21
-48.3305
0
LINE
8
Black
10
71.574
20
-86.4305
11
69.904
21
-86.4305
0
LINE
8
Black
10
69.904
20
-86.4305
11
69.904
21
-83.0587
0
LINE
8
Black
10
69.904
20
-83.0587
11
71.574
21
-83.0587
0
LINE
8
Black
10
71.574
20
-83.0587
11
71.574
21
-86.4305
0
LINE
8
Black
10
71.574
20
-106.75
11
69.904
21
-106.75
0
LINE
8
Black
10
69.904
20
-106.75
11
69.904
21
-103.378
0
LINE
8
Black
10
69.904
20
-103.378
11
71.574
21
-103.378
0
LINE
8
Black
10
71.574
20
-103.378
11
71.574
21
-106.75
0
LINE
8
Black
10
71.828
20
-91.3962
11
70.158
21
-91.3962
0
LINE
8
Black
10
70.158
20
-91.3962
11
70.158
21
-88.4562
0
LINE
8
Black
10
70.158
20
-88.4562
11
71.828
21
-88.4562
0
LINE
8
Black
10
71.828
20
-88.4562
11
71.828
21
-91.3962
0
LINE
8
Black
10
71.828
20
-97.7462
11
70.158
21
-97.7462
0
LINE
8
Black
10
70.158
20
-97.7462
11
70.158
21
-94.8062
0
LINE
8
Black
10
70.158
20
-94.8062
11
71.828
21
-94.8062
0
LINE
8
Black
10
71.828
20
-94.8062
11
71.828
21
-97.7462
0
LINE
8
Black
10
71.131
20
-32.4674
11
72.4184
21
-33.2107
0
LINE
8
Black
10
72.4184
20
-33.2107
11
73.3739
21
-34.3495
0
LINE
8
Black
10
73.3739
20
-34.3495
11
73.8824
21
-35.7463
0
LINE
8
Black
10
73.8824
20
-35.7463
11
73.8824
21
-37.2329
0
LINE
8
Black
10
73.8824
20
-37.2329
11
73.3739
21
-38.6297
0
LINE
8
Black
10
73.3739
20
-38.6297
11
72.4184
21
-39.7685
0
LINE
8
Black
10
72.4184
20
-39.7685
11
71.131
21
-40.5118
0
LINE
8
Black
10
71.131
20
-40.5118
11
69.6671
21
-40.7699
0
LINE
8
Black
10
69.6671
20
-40.7699
11
68.2032
21
-40.5118
0
LINE
8
Black
10
68.2032
20
-40.5118
11
66.9158
21
-39.7685
0
LINE
8
Black
10
66.9158
20
-39.7685
11
65.9603
21
-38.6297
0
LINE
8
Black
10
65.9603
20
-38.6297
11
65.4518
21
-37.2329
0
LINE
8
Black
10
65.4518
20
-37.2329
11
65.4518
21
-35.7463
0
LINE
8
Black
10
65.4518
20
-35.7463
11
65.9603
21
-34.3495
0
LINE
8
Black
10
65.9603
20
-34.3495
11
66.9158
21
-33.2107
0
LINE
8
Black
10
66.9158
20
-33.2107
11
68.2032
21
-32.4674
0
LINE
8
Black
10
68.2032
20
-32.4674
11
69.6671
21
-32.2093
0
LINE
8
Black
10
69.6671
20
-32.2093
11
71.131
21
-32.4674
0
LINE
8
Black
10
71.131
20
-70.029
11
72.4184
21
-70.7723
0
LINE
8
Black
10
72.4184
20
-70.7723
11
73.3739
21
-71.9111
0
LINE
8
Black
10
73.3739
20
-71.9111
11
73.8824
21
-73.3079
0
LINE
8
Black
10
73.8824
20
-73.3079
11
73.8824
21
-74.7945
0
LINE
8
Black
10
73.8824
20
-74.7945
11
73.3739
21
-76.1913
0
LINE
8
Black
10
73.3739
20
-76.1913
11
72.4184
21
-77.3301
0
LINE
8
Black
10
72.4184
20
-77.3301
11
71.131
21
-78.0734
0
LINE
8
Black
10
71.131
20
-78.0734
11
69.6671
21
-78.3315
0
LINE
8
Black
10
69.6671
20
-78.3315
11
68.2032
21
-78.0734
0
LINE
8
Black
10
68.2032
20
-78.0734
11
66.9158
21
-77.3301
0
LINE
8
Black
10
66.9158
20
-77.3301
11
65.9603
21
-76.1913
0
LINE
8
Black
10
65.9603
20
-76.1913
11
65.4518
21
-74.7945
0
LINE
8
Black
10
65.4518
20
-74.7945
11
65.4518
21
-73.3079
0
LINE
8
Black
10
65.4518
20
-73.3079
11
65.9603
21
-71.9111
0
LINE
8
Black
10
65.9603
20
-71.9111
11
66.9158
21
-70.7723
0
LINE
8
Black
10
66.9158
20
-70.7723
11
68.2032
21
-70.029
0
LINE
8
Black
10
68.2032
20
-70.029
11
69.6671
21
-69.7709
0
LINE
8
Black
10
69.6671
20
-69.7709
11
71.131
21
-70.029
0
LINE
8
Black
10
71.131
20
-107.591
11
72.4184
21
-108.334
0
LINE
8
Black
10
72.4184
20
-108.334
11
73.3739
21
-109.473
0
LINE
8
Black
10
73.3739
20
-109.473
11
73.8824
21
-110.87
0
LINE
8
Black
10
73.8824
20
-110.87
11
73.8824
21
-112.356
0
LINE
8
Black
10
73.8824
20
-112.356
11
73.3739
21
-113.753
0
LINE
8
Black
10
73.3739
20
-113.753
11
72.4184
21
-114.892
0
LINE
8
Black
10
72.4184
20
-114.892
11
71.131
21
-115.635
0
LINE
8
Black
10
71.131
20
-115.635
11
69.6671
21
-115.893
0
LINE
8
Black
10
69.6671
20
-115.893
11
68.2032
21
-115.635
0
LINE
8
Black
10
68.2032
20
-115.635
11
66.9158
21
-114.892
0
LINE
8
Black
10
66.9158
20
-114.892
11
65.9603
21
-113.753
0
LINE
8
Black
10
65.9603
20
-113.753
11
65.4518
21
-112.356
0
LINE
8
Black
10
65.4518
20
-112.356
11
65.4518
21
-110.87
0
LINE
8
Black
10
65.4518
20
-110.87
11
65.9603
21
-109.473
0
LINE
8
Black
10
65.9603
20
-109.473
11
66.9158
21
-108.334
0
LINE
8
Black
10
66.9158
20
-108.334
11
68.2032
21
-107.591
0
LINE
8
Black
10
68.2032
20
-107.591
11
69.6671
21
-107.333
0
LINE
8
Black
10
69.6671
20
-107.333
11
71.131
21
-107.591
0
LINE
8
Black
10
77.035
20
-36.1512
11
75.365
21
-36.1512
0
LINE
8
Black
10
75.365
20
-36.1512
11
75.365
21
-33.2112
0
LINE
8
Black
10
75.365
20
-33.2112
11
77.035
21
-33.2112
0
LINE
8
Black
10
77.035
20
-33.2112
11
77.035
21
-36.1512
0
LINE
8
Black
10
77.035
20
-39.3262
11
75.365
21
-39.3262
0
LINE
8
Black
10
75.365
20
-39.3262
11
75.365
21
-36.3862
0
LINE
8
Black
10
75.365
20
-36.3862
11
77.035
21
-36.3862
0
LINE
8
Black
10
77.035
20
-36.3862
11
77.035
21
-39.3262
0
LINE
8
Black
10
77.035
20
-73.6162
11
75.365
21
-73.6162
0
LINE
8
Black
10
75.365
20
-73.6162
11
75.365
21
-70.6762
0
LINE
8
Black
10
75.365
20
-70.6762
11
77.035
21
-70.6762
0
LINE
8
Black
10
77.035
20
-70.6762
11
77.035
21
-73.6162
0
LINE
8
Black
10
77.035
20
-76.7912
11
75.365
21
-76.7912
0
LINE
8
Black
10
75.365
20
-76.7912
11
75.365
21
-73.8512
0
LINE
8
Black
10
75.365
20
-73.8512
11
77.035
21
-73.8512
0
LINE
8
Black
10
77.035
20
-73.8512
11
77.035
21
-76.7912
0
LINE
8
Black
10
77.035
20
-111.081
11
75.365
21
-111.081
0
LINE
8
Black
10
75.365
20
-111.081
11
75.365
21
-108.141
0
LINE
8
Black
10
75.365
20
-108.141
11
77.035
21
-108.141
0
LINE
8
Black
10
77.035
20
-108.141
11
77.035
21
-111.081
0
LINE
8
Black
10
77.035
20
-114.256
11
75.365
21
-114.256
0
LINE
8
Black
10
75.365
20
-114.256
11
75.365
21
-111.316
0
LINE
8
Black
10
75.365
20
-111.316
11
77.035
21
-111.316
0
LINE
8
Black
10
77.035
20
-111.316
11
77.035
21
-114.256
0
LINE
8
Black
10
80.083
20
-36.1512
11
78.413
21
-36.1512
0
LINE
8
Black
10
78.413
20
-36.1512
11
78.413
21
-33.2112
0
LINE
8
Black
10
78.413
20
-33.2112
11
80.083
21
-33.2112
0
LINE
8
Black
10
80.083
20
-33.2112
11
80.083
21
-36.1512
0
LINE
8
Black
10
80.083
20
-39.3262
11
78.413
21
-39.3262
0
LINE
8
Black
10
78.413
20
-39.3262
11
78.413
21
-36.3862
0
LINE
8
Black
10
78.413
20
-36.3862
11
80.083
21
-36.3862
0
LINE
8
Black
10
80.083
20
-36.3862
11
80.083
21
-39.3262
0
LINE
8
Black
10
80.083
20
-73.6162
11
78.413
21
-73.6162
0
LINE
8
Black
10
78.413
20
-73.6162
11
78.413
21
-70.6762
0
LINE
8
Black
10
78.413
20
-70.6762
11
80.083
21
-70.6762
0
LINE
8
Black
10
80.083
20
-70.6762
11
80.083
21
-73.6162
0
LINE
8
Black
10
80.083
20
-76.7912
11
78.413
21
-76.7912
0
LINE
8
Black
10
78.413
20
-76.7912
11
78.413
21
-73.8512
0
LINE
8
Black
10
78.413
20
-73.8512
11
80.083
21
-73.8512
0
LINE
8
Black
10
80.083
20
-73.8512
11
80.083
21
-76.7912
0
LINE
8
Black
10
80.083
20
-111.081
11
78.413
21
-111.081
0
LINE
8
Black
10
78.413
20
-111.081
11
78.413
21
-108.141
0
LINE
8
Black
10
78.413
20
-108.141
11
80.083
21
-108.141
0
LINE
8
Black
10
80.083
20
-108.141
11
80.083
21
-111.081
0
LINE
8
Black
10
80.083
20
-114.256
11
78.413
21
-114.256
0
LINE
8
Black
10
78.413
20
-114.256
11
78.413
21
-111.316
0
LINE
8
Black
10
78.413
20
-111.316
11
80.083
21
-111.316
0
LINE
8
Black
10
80.083
20
-111.316
11
80.083
21
-114.256
0
LINE
8
Black
10
86.9747
20
-31.4173
11
86.2533
21
-31.4173
0
LINE
8
Black
10
86.2533
20
-31.4173
11
86.2533
21
-30.6959
0
LINE
8
Black
10
86.2533
20
-30.6959
11
86.9747
21
-30.6959
0
LINE
8
Black
10
86.9747
20
-30.6959
11
86.9747
21
-31.4173
0
LINE
8
Black
10
86.9747
20
-32.3165
11
86.2533
21
-32.3165
0
LINE
8
Black
10
86.2533
20
-32.3165
11
86.2533
21
-31.5951
0
LINE
8
Black
10
86.2533
20
-31.5951
11
86.9747
21
-31.5951
0
LINE
8
Black
10
86.9747
20
-31.5951
11
86.9747
21
-32.3165
0
LINE
8
Black
10
86.9747
20
-49.8323
11
86.2533
21
-49.8323
0
LINE
8
Black
10
86.2533
20
-49.8323
11
86.2533
21
-49.1109
0
LINE
8
Black
10
86.2533
20
-49.1109
11
86.9747
21
-49.1109
0
LINE
8
Black
10
86.9747
20
-49.1109
11
86.9747
21
-49.8323
0
LINE
8
Black
10
86.9747
20
-50.7315
11
86.2533
21
-50.7315
0
LINE
8
Black
10
86.2533
20
-50.7315
11
86.2533
21
-50.0101
0
LINE
8
Black
10
86.2533
20
-50.0101
11
86.9747
21
-50.0101
0
LINE
8
Black
10
86.9747
20
-50.0101
11
86.9747
21
-50.7315
0
LINE
8
Black
10
86.9747
20
-68.2473
11
86.2533
21
-68.2473
0
LINE
8
Black
10
86.2533
20
-68.2473
11
86.2533
21
-67.5259
0
LINE
8
Black
10
86.2533
20
-67.5259
11
86.9747
21
-67.5259
0
LINE
8
Black
10
86.9747
20
-67.5259
11
86.9747
21
-68.2473
0
LINE
8
Black
10
86.9747
20
-69.1465
11
86.2533
21
-69.1465
0
LINE
8
Black
10
86.2533
20
-69.1465
11
86.2533
21
-68.4251
0
LINE
8
Black
10
86.2533
20
-68.4251
11
86.9747
21
-68.4251
0
LINE
8
Black
10
86.9747
20
-68.4251
11
86.9747
21
-69.1465
0
LINE
8
Black
10
86.9791
20
-39.3135
11
84.9789
21
-39.3135
0
LINE
8
Black
10
84.9789
20
-39.3135
11
84.9789
21
-38.1261
0
LINE
8
Black
10
84.9789
20
-38.1261
11
86.9791
21
-38.1261
0
LINE
8
Black
10
86.9791
20
-38.1261
11
86.9791
21
-39.3135
0
LINE
8
Black
10
86.9791
20
-41.3963
11
84.9789
21
-41.3963
0
LINE
8
Black
10
84.9789
20
-41.3963
11
84.9789
21
-40.2089
0
LINE
8
Black
10
84.9789
20
-40.2089
11
86.9791
21
-40.2089
0
LINE
8
Black
10
86.9791
20
-40.2089
11
86.9791
21
-41.3963
0
LINE
8
Black
10
86.9791
20
-57.7285
11
84.9789
21
-57.7285
0
LINE
8
Black
10
84.9789
20
-57.7285
11
84.9789
21
-56.5411
0
LINE
8
Black
10
84.9789
20
-56.5411
11
86.9791
21
-56.5411
0
LINE
8
Black
10
86.9791
20
-56.5411
11
86.9791
21
-57.7285
0
LINE
8
Black
10
86.9791
20
-59.8113
11
84.9789
21
-59.8113
0
LINE
8
Black
10
84.9789
20
-59.8113
11
84.9789
21
-58.6239
0
LINE
8
Black
10
84.9789
20
-58.6239
11
86.9791
21
-58.6239
0
LINE
8
Black
10
86.9791
20
-58.6239
11
86.9791
21
-59.8113
0
LINE
8
Black
10
86.9791
20
-76.1435
11
84.9789
21
-76.1435
0
LINE
8
Black
10
84.9789
20
-76.1435
11
84.9789
21
-74.9561
0
LINE
8
Black
10
84.9789
20
-74.9561
11
86.9791
21
-74.9561
0
LINE
8
Black
10
86.9791
20
-74.9561
11
86.9791
21
-76.1435
0
LINE
8
Black
10
86.9791
20
-78.2263
11
84.9789
21
-78.2263
0
LINE
8
Black
10
84.9789
20
-78.2263
11
84.9789
21
-77.0389
0
LINE
8
Black
10
84.9789
20
-77.0389
11
86.9791
21
-77.0389
0
LINE
8
Black
10
86.9791
20
-77.0389
11
86.9791
21
-78.2263
0
LINE
8
Black
10
88.8797
20
-31.4173
11
88.1583
21
-31.4173
0
LINE
8
Black
10
88.1583
20
-31.4173
11
88.1583
21
-30.6959
0
LINE
8
Black
10
88.1583
20
-30.6959
11
88.8797
21
-30.6959
0
LINE
8
Black
10
88.8797
20
-30.6959
11
88.8797
21
-31.4173
0
LINE
8
Black
10
88.8797
20
-32.3165
11
88.1583
21
-32.3165
0
LINE
8
Black
10
88.1583
20
-32.3165
11
88.1583
21
-31.5951
0
LINE
8
Black
10
88.1583
20
-31.5951
11
88.8797
21
-31.5951
0
LINE
8
Black
10
88.8797
20
-31.5951
11
88.8797
21
-32.3165
0
LINE
8
Black
10
88.8797
20
-49.8323
11
88.1583
21
-49.8323
0
LINE
8
Black
10
88.1583
20
-49.8323
11
88.1583
21
-49.1109
0
LINE
8
Black
10
88.1583
20
-49.1109
11
88.8797
21
-49.1109
0
LINE
8
Black
10
88.8797
20
-49.1109
11
88.8797
21
-49.8323
0
LINE
8
Black
10
88.8797
20
-50.7315
11
88.1583
21
-50.7315
0
LINE
8
Black
10
88.1583
20
-50.7315
11
88.1583
21
-50.0101
0
LINE
8
Black
10
88.1583
20
-50.0101
11
88.8797
21
-50.0101
0
LINE
8
Black
10
88.8797
20
-50.0101
11
88.8797
21
-50.7315
0
LINE
8
Black
10
88.8797
20
-68.2473
11
88.1583
21
-68.2473
0
LINE
8
Black
10
88.1583
20
-68.2473
11
88.1583
21
-67.5259
0
LINE
8
Black
10
88.1583
20
-67.5259
11
88.8797
21
-67.5259
0
LINE
8
Black
10
88.8797
20
-67.5259
11
88.8797
21
-68.2473
0
LINE
8
Black
10
88.8797
20
-69.1465
11
88.1583
21
-69.1465
0
LINE
8
Black
10
88.1583
20
-69.1465
11
88.1583
21
-68.4251
0
LINE
8
Black
10
88.1583
20
-68.4251
11
88.8797
21
-68.4251
0
LINE
8
Black
10
88.8797
20
-68.4251
11
88.8797
21
-69.1465
0
LINE
8
Black
10
89.8525
20
-39.5021
11
88.1507
21
-39.5021
0
LINE
8
Black
10
88.1507
20
-39.5021
11
88.1507
21
-38.7503
0
LINE
8
Black
10
88.1507
20
-38.7503
11
89.8525
21
-38.7503
0
LINE
8
Black
10
89.8525
20
-38.7503
11
89.8525
21
-39.5021
0
LINE
8
Black
10
89.8525
20
-40.7721
11
88.1507
21
-40.7721
0
LINE
8
Black
10
88.1507
20
-40.7721
11
88.1507
21
-40.0203
0
LINE
8
Black
10
88.1507
20
-40.0203
11
89.8525
21
-40.0203
0
LINE
8
Black
10
89.8525
20
-40.0203
11
89.8525
21
-40.7721
0
LINE
8
Black
10
89.8525
20
-42.0421
11
88.1507
21
-42.0421
0
LINE
8
Black
10
88.1507
20
-42.0421
11
88.1507
21
-41.2903
0
LINE
8
Black
10
88.1507
20
-41.2903
11
89.8525
21
-41.2903
0
LINE
8
Black
10
89.8525
20
-41.2903
11
89.8525
21
-42.0421
0
LINE
8
Black
10
89.8525
20
-43.3121
11
88.1507
21
-43.3121
0
LINE
8
Black
10
88.1507
20
-43.3121
11
88.1507
21
-42.5603
0
LINE
8
Black
10
88.1507
20
-42.5603
11
89.8525
21
-42.5603
0
LINE
8
Black
10
89.8525
20
-42.5603
11
89.8525
21
-43.3121
0
LINE
8
Black
10
89.8525
20
-57.9171
11
88.1507
21
-57.9171
0
LINE
8
Black
10
88.1507
20
-57.9171
11
88.1507
21
-57.1653
0
LINE
8
Black
10
88.1507
20
-57.1653
11
89.8525
21
-57.1653
0
LINE
8
Black
10
89.8525
20
-57.1653
11
89.8525
21
-57.9171
0
LINE
8
Black
10
89.8525
20
-59.1871
11
88.1507
21
-59.1871
0
LINE
8
Black
10
88.1507
20
-59.1871
11
88.1507
21
-58.4353
0
LINE
8
Black
10
88.1507
20
-58.4353
11
89.8525
21
-58.4353
0
LINE
8
Black
10
89.8525
20
-58.4353
11
89.8525
21
-59.1871
0
LINE
8
Black
10
89.8525
20
-60.4571
11
88.1507
21
-60.4571
0
LINE
8
Black
10
88.1507
20
-60.4571
11
88.1507
21
-59.7053
0
LINE
8
Black
10
88.1507
20
-59.7053
11
89.8525
21
-59.7053
0
LINE
8
Black
10
89.8525
20
-59.7053
11
89.8525
21
-60.4571
0
LINE
8
Black
10
89.8525
20
-61.7271
11
88.1507
21
-61.7271
0
LINE
8
Black
10
88.1507
20
-61.7271
11
88.1507
21
-60.9753
0
LINE
8
Black
10
88.1507
20
-60.9753
11
89.8525
21
-60.9753
0
LINE
8
Black
10
89.8525
20
-60.9753
11
89.8525
21
-61.7271
0
LINE
8
Black
10
89.8525
20
-76.3321
11
88.1507
21
-76.3321
0
LINE
8
Black
10
88.1507
20
-76.3321
11
88.1507
21
-75.5803
0
LINE
8
Black
10
88.1507
20
-75.5803
11
89.8525
21
-75.5803
0
LINE
8
Black
10
89.8525
20
-75.5803
11
89.8525
21
-76.3321
0
LINE
8
Black
10
89.8525
20
-77.6021
11
88.1507
21
-77.6021
0
LINE
8
Black
10
88.1507
20
-77.6021
11
88.1507
21
-76.8503
0
LINE
8
Black
10
88.1507
20
-76.8503
11
89.8525
21
-76.8503
0
LINE
8
Black
10
89.8525
20
-76.8503
11
89.8525
21
-77.6021
0
LINE
8
Black
10
89.8525
20
-78.8721
11
88.1507
21
-78.8721
0
LINE
8
Black
10
88.1507
20
-78.8721
11
88.1507
21
-78.1203
0
LINE
8
Black
10
88.1507
20
-78.1203
11
89.8525
21
-78.1203
0
LINE
8
Black
10
89.8525
20
-78.1203
11
89.8525
21
-78.8721
0
LINE
8
Black
10
89.8525
20
-80.1421
11
88.1507
21
-80.1421
0
LINE
8
Black
10
88.1507
20
-80.1421
11
88.1507
21
-79.3903
0
LINE
8
Black
10
88.1507
20
-79.3903
11
89.8525
21
-79.3903
0
LINE
8
Black
10
89.8525
20
-79.3903
11
89.8525
21
-80.1421
0
LINE
8
Black
10
90.1541
20
-104.083
11
88.1539
21
-104.083
0
LINE
8
Black
10
88.1539
20
-104.083
11
88.1539
21
-102.896
0
LINE
8
Black
10
88.1539
20
-102.896
11
90.1541
21
-102.896
0
LINE
8
Black
10
90.1541
20
-102.896
11
90.1541
21
-104.083
0
LINE
8
Black
10
90.1541
20
-106.166
11
88.1539
21
-106.166
0
LINE
8
Black
10
88.1539
20
-106.166
11
88.1539
21
-104.979
0
LINE
8
Black
10
88.1539
20
-104.979
11
90.1541
21
-104.979
0
LINE
8
Black
10
90.1541
20
-104.979
11
90.1541
21
-106.166
0
LINE
8
Black
10
90.7847
20
-31.4173
11
90.0633
21
-31.4173
0
LINE
8
Black
10
90.0633
20
-31.4173
11
90.0633
21
-30.6959
0
LINE
8
Black
10
90.0633
20
-30.6959
11
90.7847
21
-30.6959
0
LINE
8
Black
10
90.7847
20
-30.6959
11
90.7847
21
-31.4173
0
LINE
8
Black
10
90.7847
20
-32.3165
11
90.0633
21
-32.3165
0
LINE
8
Black
10
90.0633
20
-32.3165
11
90.0633
21
-31.5951
0
LINE
8
Black
10
90.0633
20
-31.5951
11
90.7847
21
-31.5951
0
LINE
8
Black
10
90.7847
20
-31.5951
11
90.7847
21
-32.3165
0
LINE
8
Black
10
90.7847
20
-49.8323
11
90.0633
21
-49.8323
0
LINE
8
Black
10
90.0633
20
-49.8323
11
90.0633
21
-49.1109
0
LINE
8
Black
10
90.0633
20
-49.1109
11
90.7847
21
-49.1109
0
LINE
8
Black
10
90.7847
20
-49.1109
11
90.7847
21
-49.8323
0
LINE
8
Black
10
90.7847
20
-50.7315
11
90.0633
21
-50.7315
0
LINE
8
Black
10
90.0633
20
-50.7315
11
90.0633
21
-50.0101
0
LINE
8
Black
10
90.0633
20
-50.0101
11
90.7847
21
-50.0101
0
LINE
8
Black
10
90.7847
20
-50.0101
11
90.7847
21
-50.7315
0
LINE
8
Black
10
90.7847
20
-68.2473
11
90.0633
21
-68.2473
0
LINE
8
Black
10
90.0633
20
-68.2473
11
90.0633
21
-67.5259
0
LINE
8
Black
10
90.0633
20
-67.5259
11
90.7847
21
-67.5259
0
LINE
8
Black
10
90.7847
20
-67.5259
11
90.7847
21
-68.2473
0
LINE
8
Black
10
90.7847
20
-69.1465
11
90.0633
21
-69.1465
0
LINE
8
Black
10
90.0633
20
-69.1465
11
90.0633
21
-68.4251
0
LINE
8
Black
10
90.0633
20
-68.4251
11
90.7847
21
-68.4251
0
LINE
8
Black
10
90.7847
20
-68.4251
11
90.7847
21
-69.1465
0
LINE
8
Black
10
91.2463
20
-37.5863
11
90.0589
21
-37.5863
0
LINE
8
Black
10
90.0589
20
-37.5863
11
90.0589
21
-35.5861
0
LINE
8
Black
10
90.0589
20
-35.5861
11
91.2463
21
-35.5861
0
LINE
8
Black
10
91.2463
20
-35.5861
11
91.2463
21
-37.5863
0
LINE
8
Black
10
91.2463
20
-56.0013
11
90.0589
21
-56.0013
0
LINE
8
Black
10
90.0589
20
-56.0013
11
90.0589
21
-54.0011
0
LINE
8
Black
10
90.0589
20
-54.0011
11
91.2463
21
-54.0011
0
LINE
8
Black
10
91.2463
20
-54.0011
11
91.2463
21
-56.0013
0
LINE
8
Black
10
91.2463
20
-74.4163
11
90.0589
21
-74.4163
0
LINE
8
Black
10
90.0589
20
-74.4163
11
90.0589
21
-72.4161
0
LINE
8
Black
10
90.0589
20
-72.4161
11
91.2463
21
-72.4161
0
LINE
8
Black
10
91.2463
20
-72.4161
11
91.2463
21
-74.4163
0
LINE
8
Black
10
91.6051
20
-96.0019
11
90.8837
21
-96.0019
0
LINE
8
Black
10
90.8837
20
-96.0019
11
90.8837
21
-95.2805
0
LINE
8
Black
10
90.8837
20
-95.2805
11
91.6051
21
-95.2805
0
LINE
8
Black
10
91.6051
20
-95.2805
11
91.6051
21
-96.0019
0
LINE
8
Black
10
91.6051
20
-97.9069
11
90.8837
21
-97.9069
0
LINE
8
Black
10
90.8837
20
-97.9069
11
90.8837
21
-97.1855
0
LINE
8
Black
10
90.8837
20
-97.1855
11
91.6051
21
-97.1855
0
LINE
8
Black
10
91.6051
20
-97.1855
11
91.6051
21
-97.9069
0
LINE
8
Black
10
91.6051
20
-99.8119
11
90.8837
21
-99.8119
0
LINE
8
Black
10
90.8837
20
-99.8119
11
90.8837
21
-99.0905
0
LINE
8
Black
10
90.8837
20
-99.0905
11
91.6051
21
-99.0905
0
LINE
8
Black
10
91.6051
20
-99.0905
11
91.6051
21
-99.8119
0
LINE
8
Black
10
91.8813
20
-110.611
11
90.6939
21
-110.611
0
LINE
8
Black
10
90.6939
20
-110.611
11
90.6939
21
-108.611
0
LINE
8
Black
10
90.6939
20
-108.611
11
91.8813
21
-108.611
0
LINE
8
Black
10
91.8813
20
-108.611
11
91.8813
21
-110.611
0
LINE
8
Black
10
92.0591
20
-90.7485
11
90.0589
21
-90.7485
0
LINE
8
Black
10
90.0589
20
-90.7485
11
90.0589
21
-89.5611
0
LINE
8
Black
10
90.0589
20
-89.5611
11
92.0591
21
-89.5611
0
LINE
8
Black
10
92.0591
20
-89.5611
11
92.0591
21
-90.7485
0
LINE
8
Black
10
92.0591
20
-92.8313
11
90.0589
21
-92.8313
0
LINE
8
Black
10
90.0589
20
-92.8313
11
90.0589
21
-91.6439
0
LINE
8
Black
10
90.0589
20
-91.6439
11
92.0591
21
-91.6439
0
LINE
8
Black
10
92.0591
20
-91.6439
11
92.0591
21
-92.8313
0
LINE
8
Black
10
92.0699
20
-102.689
11
91.3181
21
-102.689
0
LINE
8
Black
10
91.3181
20
-102.689
11
91.3181
21
-100.988
0
LINE
8
Black
10
91.3181
20
-100.988
11
92.0699
21
-100.988
0
LINE
8
Black
10
92.0699
20
-100.988
11
92.0699
21
-102.689
0
LINE
8
Black
10
92.0699
20
-108.074
11
91.3181
21
-108.074
0
LINE
8
Black
10
91.3181
20
-108.074
11
91.3181
21
-106.373
0
LINE
8
Black
10
91.3181
20
-106.373
11
92.0699
21
-106.373
0
LINE
8
Black
10
92.0699
20
-106.373
11
92.0699
21
-108.074
0
LINE
8
Black
10
92.5043
20
-96.0019
11
91.7829
21
-96.0019
0
LINE
8
Black
10
91.7829
20
-96.0019
11
91.7829
21
-95.2805
0
LINE
8
Black
10
91.7829
20
-95.2805
11
92.5043
21
-95.2805
0
LINE
8
Black
10
92.5043
20
-95.2805
11
92.5043
21
-96.0019
0
LINE
8
Black
10
92.5043
20
-97.9069
11
91.7829
21
-97.9069
0
LINE
8
Black
10
91.7829
20
-97.9069
11
91.7829
21
-97.1855
0
LINE
8
Black
10
91.7829
20
-97.1855
11
92.5043
21
-97.1855
0
LINE
8
Black
10
92.5043
20
-97.1855
11
92.5043
21
-97.9069
0
LINE
8
Black
10
92.5043
20
-99.8119
11
91.7829
21
-99.8119
0
LINE
8
Black
10
91.7829
20
-99.8119
11
91.7829
21
-99.0905
0
LINE
8
Black
10
91.7829
20
-99.0905
11
92.5043
21
-99.0905
0
LINE
8
Black
10
92.5043
20
-99.0905
11
92.5043
21
-99.8119
0
LINE
8
Black
10
92.91
20
-126.956
11
91.24
21
-126.956
0
LINE
8
Black
10
91.24
20
-126.956
11
91.24
21
-124.016
0
LINE
8
Black
10
91.24
20
-124.016
11
92.91
21
-124.016
0
LINE
8
Black
10
92.91
20
-124.016
11
92.91
21
-126.956
0
LINE
8
Black
10
92.91
20
-139.021
11
91.24
21
-139.021
0
LINE
8
Black
10
91.24
20
-139.021
11
91.24
21
-136.081
0
LINE
8
Black
10
91.24
20
-136.081
11
92.91
21
-136.081
0
LINE
8
Black
10
92.91
20
-136.081
11
92.91
21
-139.021
0
LINE
8
Black
10
93.0148
20
-144.902
11
91.6432
21
-144.902
0
LINE
8
Black
10
91.6432
20
-144.902
11
91.6432
21
-142.707
0
LINE
8
Black
10
91.6432
20
-142.707
11
93.0148
21
-142.707
0
LINE
8
Black
10
93.0148
20
-142.707
11
93.0148
21
-144.902
0
LINE
8
Black
10
93.3291
20
-37.5863
11
92.1417
21
-37.5863
0
LINE
8
Black
10
92.1417
20
-37.5863
11
92.1417
21
-35.5861
0
LINE
8
Black
10
92.1417
20
-35.5861
11
93.3291
21
-35.5861
0
LINE
8
Black
10
93.3291
20
-35.5861
11
93.3291
21
-37.5863
0
LINE
8
Black
10
93.3291
20
-56.0013
11
92.1417
21
-56.0013
0
LINE
8
Black
10
92.1417
20
-56.0013
11
92.1417
21
-54.0011
0
LINE
8
Black
10
92.1417
20
-54.0011
11
93.3291
21
-54.0011
0
LINE
8
Black
10
93.3291
20
-54.0011
11
93.3291
21
-56.0013
0
LINE
8
Black
10
93.3291
20
-74.4163
11
92.1417
21
-74.4163
0
LINE
8
Black
10
92.1417
20
-74.4163
11
92.1417
21
-72.4161
0
LINE
8
Black
10
92.1417
20
-72.4161
11
93.3291
21
-72.4161
0
LINE
8
Black
10
93.3291
20
-72.4161
11
93.3291
21
-74.4163
0
LINE
8
Black
10
93.3399
20
-102.689
11
92.5881
21
-102.689
0
LINE
8
Black
10
92.5881
20
-102.689
11
92.5881
21
-100.988
0
LINE
8
Black
10
92.5881
20
-100.988
11
93.3399
21
-100.988
0
LINE
8
Black
10
93.3399
20
-100.988
11
93.3399
21
-102.689
0
LINE
8
Black
10
93.3399
20
-108.074
11
92.5881
21
-108.074
0
LINE
8
Black
10
92.5881
20
-108.074
11
92.5881
21
-106.373
0
LINE
8
Black
10
92.5881
20
-106.373
11
93.3399
21
-106.373
0
LINE
8
Black
10
93.3399
20
-106.373
11
93.3399
21
-108.074
0
LINE
8
Black
10
92.7476
20
-139.353
11
93.1157
21
-139.565
0
LINE
8
Black
10
93.1157
20
-139.565
11
93.3889
21
-139.891
0
LINE
8
Black
10
93.3889
20
-139.891
11
93.5343
21
-140.29
0
LINE
8
Black
10
93.5343
20
-140.29
11
93.5343
21
-140.716
0
LINE
8
Black
10
93.5343
20
-140.716
11
93.3889
21
-141.115
0
LINE
8
Black
10
93.3889
20
-141.115
11
93.1157
21
-141.441
0
LINE
8
Black
10
93.1157
20
-141.441
11
92.7476
21
-141.653
0
LINE
8
Black
10
92.7476
20
-141.653
11
92.329
21
-141.727
0
LINE
8
Black
10
92.329
20
-141.727
11
91.9104
21
-141.653
0
LINE
8
Black
10
91.9104
20
-141.653
11
91.5423
21
-141.441
0
LINE
8
Black
10
91.5423
20
-141.441
11
91.2691
21
-141.115
0
LINE
8
Black
10
91.2691
20
-141.115
11
91.1237
21
-140.716
0
LINE
8
Black
10
91.1237
20
-140.716
11
91.1237
21
-140.29
0
LINE
8
Black
10
91.1237
20
-140.29
11
91.2691
21
-139.891
0
LINE
8
Black
10
91.2691
20
-139.891
11
91.5423
21
-139.565
0
LINE
8
Black
10
91.5423
20
-139.565
11
91.9104
21
-139.353
0
LINE
8
Black
10
91.9104
20
-139.353
11
92.329
21
-139.279
0
LINE
8
Black
10
92.329
20
-139.279
11
92.7476
21
-139.353
0
LINE
8
Black
10
93.6625
20
-28.7071
11
91.9607
21
-28.7071
0
LINE
8
Black
10
91.9607
20
-28.7071
11
91.9607
21
-27.9553
0
LINE
8
Black
10
91.9607
20
-27.9553
11
93.6625
21
-27.9553
0
LINE
8
Black
10
93.6625
20
-27.9553
11
93.6625
21
-28.7071
0
LINE
8
Black
10
93.6625
20
-29.9771
11
91.9607
21
-29.9771
0
LINE
8
Black
10
91.9607
20
-29.9771
11
91.9607
21
-29.2253
0
LINE
8
Black
10
91.9607
20
-29.2253
11
93.6625
21
-29.2253
0
LINE
8
Black
10
93.6625
20
-29.2253
11
93.6625
21
-29.9771
0
LINE
8
Black
10
93.6625
20
-31.2471
11
91.9607
21
-31.2471
0
LINE
8
Black
10
91.9607
20
-31.2471
11
91.9607
21
-30.4953
0
LINE
8
Black
10
91.9607
20
-30.4953
11
93.6625
21
-30.4953
0
LINE
8
Black
10
93.6625
20
-30.4953
11
93.6625
21
-31.2471
0
LINE
8
Black
10
93.6625
20
-32.5171
11
91.9607
21
-32.5171
0
LINE
8
Black
10
91.9607
20
-32.5171
11
91.9607
21
-31.7653
0
LINE
8
Black
10
91.9607
20
-31.7653
11
93.6625
21
-31.7653
0
LINE
8
Black
10
93.6625
20
-31.7653
11
93.6625
21
-32.5171
0
LINE
8
Black
10
93.6625
20
-47.1221
11
91.9607
21
-47.1221
0
LINE
8
Black
10
91.9607
20
-47.1221
11
91.9607
21
-46.3703
0
LINE
8
Black
10
91.9607
20
-46.3703
11
93.6625
21
-46.3703
0
LINE
8
Black
10
93.6625
20
-46.3703
11
93.6625
21
-47.1221
0
LINE
8
Black
10
93.6625
20
-48.3921
11
91.9607
21
-48.3921
0
LINE
8
Black
10
91.9607
20
-48.3921
11
91.9607
21
-47.6403
0
LINE
8
Black
10
91.9607
20
-47.6403
11
93.6625
21
-47.6403
0
LINE
8
Black
10
93.6625
20
-47.6403
11
93.6625
21
-48.3921
0
LINE
8
Black
10
93.6625
20
-49.6621
11
91.9607
21
-49.6621
0
LINE
8
Black
10
91.9607
20
-49.6621
11
91.9607
21
-48.9103
0
LINE
8
Black
10
91.9607
20
-48.9103
11
93.6625
21
-48.9103
0
LINE
8
Black
10
93.6625
20
-48.9103
11
93.6625
21
-49.6621
0
LINE
8
Black
10
93.6625
20
-50.9321
11
91.9607
21
-50.9321
0
LINE
8
Black
10
91.9607
20
-50.9321
11
91.9607
21
-50.1803
0
LINE
8
Black
10
91.9607
20
-50.1803
11
93.6625
21
-50.1803
0
LINE
8
Black
10
93.6625
20
-50.1803
11
93.6625
21
-50.9321
0
LINE
8
Black
10
93.6625
20
-65.5371
11
91.9607
21
-65.5371
0
LINE
8
Black
10
91.9607
20
-65.5371
11
91.9607
21
-64.7853
0
LINE
8
Black
10
91.9607
20
-64.7853
11
93.6625
21
-64.7853
0
LINE
8
Black
10
93.6625
20
-64.7853
11
93.6625
21
-65.5371
0
LINE
8
Black
10
93.6625
20
-66.8071
11
91.9607
21
-66.8071
0
LINE
8
Black
10
91.9607
20
-66.8071
11
91.9607
21
-66.0553
0
LINE
8
Black
10
91.9607
20
-66.0553
11
93.6625
21
-66.0553
0
LINE
8
Black
10
93.6625
20
-66.0553
11
93.6625
21
-66.8071
0
LINE
8
Black
10
93.6625
20
-68.0771
11
91.9607
21
-68.0771
0
LINE
8
Black
10
91.9607
20
-68.0771
11
91.9607
21
-67.3253
0
LINE
8
Black
10
91.9607
20
-67.3253
11
93.6625
21
-67.3253
0
LINE
8
Black
10
93.6625
20
-67.3253
11
93.6625
21
-68.0771
0
LINE
8
Black
10
93.6625
20
-69.3471
11
91.9607
21
-69.3471
0
LINE
8
Black
10
91.9607
20
-69.3471
11
91.9607
21
-68.5953
0
LINE
8
Black
10
91.9607
20
-68.5953
11
93.6625
21
-68.5953
0
LINE
8
Black
10
93.6625
20
-68.5953
11
93.6625
21
-69.3471
0
LINE
8
Black
10
93.9641
20
-110.611
11
92.7767
21
-110.611
0
LINE
8
Black
10
92.7767
20
-110.611
11
92.7767
21
-108.611
0
LINE
8
Black
10
92.7767
20
-108.611
11
93.9641
21
-108.611
0
LINE
8
Black
10
93.9641
20
-108.611
11
93.9641
21
-110.611
0
LINE
8
Black
10
93.9749
20
-89.3547
11
93.2231
21
-89.3547
0
LINE
8
Black
10
93.2231
20
-89.3547
11
93.2231
21
-87.6529
0
LINE
8
Black
10
93.2231
20
-87.6529
11
93.9749
21
-87.6529
0
LINE
8
Black
10
93.9749
20
-87.6529
11
93.9749
21
-89.3547
0
LINE
8
Black
10
93.9749
20
-94.7395
11
93.2231
21
-94.7395
0
LINE
8
Black
10
93.2231
20
-94.7395
11
93.2231
21
-93.0377
0
LINE
8
Black
10
93.2231
20
-93.0377
11
93.9749
21
-93.0377
0
LINE
8
Black
10
93.9749
20
-93.0377
11
93.9749
21
-94.7395
0
LINE
8
Black
10
94.1451
20
-82.6669
11
93.4237
21
-82.6669
0
LINE
8
Black
10
93.4237
20
-82.6669
11
93.4237
21
-81.9455
0
LINE
8
Black
10
93.4237
20
-81.9455
11
94.1451
21
-81.9455
0
LINE
8
Black
10
94.1451
20
-81.9455
11
94.1451
21
-82.6669
0
LINE
8
Black
10
94.1451
20
-84.5719
11
93.4237
21
-84.5719
0
LINE
8
Black
10
93.4237
20
-84.5719
11
93.4237
21
-83.8505
0
LINE
8
Black
10
93.4237
20
-83.8505
11
94.1451
21
-83.8505
0
LINE
8
Black
10
94.1451
20
-83.8505
11
94.1451
21
-84.5719
0
LINE
8
Black
10
94.1451
20
-86.4769
11
93.4237
21
-86.4769
0
LINE
8
Black
10
93.4237
20
-86.4769
11
93.4237
21
-85.7555
0
LINE
8
Black
10
93.4237
20
-85.7555
11
94.1451
21
-85.7555
0
LINE
8
Black
10
94.1451
20
-85.7555
11
94.1451
21
-86.4769
0
LINE
8
Black
10
94.6099
20
-102.689
11
93.8581
21
-102.689
0
LINE
8
Black
10
93.8581
20
-102.689
11
93.8581
21
-100.988
0
LINE
8
Black
10
93.8581
20
-100.988
11
94.6099
21
-100.988
0
LINE
8
Black
10
94.6099
20
-100.988
11
94.6099
21
-102.689
0
LINE
8
Black
10
94.6099
20
-108.074
11
93.8581
21
-108.074
0
LINE
8
Black
10
93.8581
20
-108.074
11
93.8581
21
-106.373
0
LINE
8
Black
10
93.8581
20
-106.373
11
94.6099
21
-106.373
0
LINE
8
Black
10
94.6099
20
-106.373
11
94.6099
21
-108.074
0
LINE
8
Black
10
95.0443
20
-82.6669
11
94.3229
21
-82.6669
0
LINE
8
Black
10
94.3229
20
-82.6669
11
94.3229
21
-81.9455
0
LINE
8
Black
10
94.3229
20
-81.9455
11
95.0443
21
-81.9455
0
LINE
8
Black
10
95.0443
20
-81.9455
11
95.0443
21
-82.6669
0
LINE
8
Black
10
95.0443
20
-84.5719
11
94.3229
21
-84.5719
0
LINE
8
Black
10
94.3229
20
-84.5719
11
94.3229
21
-83.8505
0
LINE
8
Black
10
94.3229
20
-83.8505
11
95.0443
21
-83.8505
0
LINE
8
Black
10
95.0443
20
-83.8505
11
95.0443
21
-84.5719
0
LINE
8
Black
10
95.0443
20
-86.4769
11
94.3229
21
-86.4769
0
LINE
8
Black
10
94.3229
20
-86.4769
11
94.3229
21
-85.7555
0
LINE
8
Black
10
94.3229
20
-85.7555
11
95.0443
21
-85.7555
0
LINE
8
Black
10
95.0443
20
-85.7555
11
95.0443
21
-86.4769
0
LINE
8
Black
10
95.0563
20
-35.6813
11
93.8689
21
-35.6813
0
LINE
8
Black
10
93.8689
20
-35.6813
11
93.8689
21
-33.6811
0
LINE
8
Black
10
93.8689
20
-33.6811
11
95.0563
21
-33.6811
0
LINE
8
Black
10
95.0563
20
-33.6811
11
95.0563
21
-35.6813
0
LINE
8
Black
10
95.0563
20
-54.0963
11
93.8689
21
-54.0963
0
LINE
8
Black
10
93.8689
20
-54.0963
11
93.8689
21
-52.0961
0
LINE
8
Black
10
93.8689
20
-52.0961
11
95.0563
21
-52.0961
0
LINE
8
Black
10
95.0563
20
-52.0961
11
95.0563
21
-54.0963
0
LINE
8
Black
10
95.0563
20
-72.5113
11
93.8689
21
-72.5113
0
LINE
8
Black
10
93.8689
20
-72.5113
11
93.8689
21
-70.5111
0
LINE
8
Black
10
93.8689
20
-70.5111
11
95.0563
21
-70.5111
0
LINE
8
Black
10
95.0563
20
-70.5111
11
95.0563
21
-72.5113
0
LINE
8
Black
10
95.0563
20
-97.9113
11
93.8689
21
-97.9113
0
LINE
8
Black
10
93.8689
20
-97.9113
11
93.8689
21
-95.9111
0
LINE
8
Black
10
93.8689
20
-95.9111
11
95.0563
21
-95.9111
0
LINE
8
Black
10
95.0563
20
-95.9111
11
95.0563
21
-97.9113
0
LINE
8
Black
10
95.2373
20
-39.5021
11
93.5355
21
-39.5021
0
LINE
8
Black
10
93.5355
20
-39.5021
11
93.5355
21
-38.7503
0
LINE
8
Black
10
93.5355
20
-38.7503
11
95.2373
21
-38.7503
0
LINE
8
Black
10
95.2373
20
-38.7503
11
95.2373
21
-39.5021
0
LINE
8
Black
10
95.2373
20
-40.7721
11
93.5355
21
-40.7721
0
LINE
8
Black
10
93.5355
20
-40.7721
11
93.5355
21
-40.0203
0
LINE
8
Black
10
93.5355
20
-40.0203
11
95.2373
21
-40.0203
0
LINE
8
Black
10
95.2373
20
-40.0203
11
95.2373
21
-40.7721
0
LINE
8
Black
10
95.2373
20
-42.0421
11
93.5355
21
-42.0421
0
LINE
8
Black
10
93.5355
20
-42.0421
11
93.5355
21
-41.2903
0
LINE
8
Black
10
93.5355
20
-41.2903
11
95.2373
21
-41.2903
0
LINE
8
Black
10
95.2373
20
-41.2903
11
95.2373
21
-42.0421
0
LINE
8
Black
10
95.2373
20
-43.3121
11
93.5355
21
-43.3121
0
LINE
8
Black
10
93.5355
20
-43.3121
11
93.5355
21
-42.5603
0
LINE
8
Black
10
93.5355
20
-42.5603
11
95.2373
21
-42.5603
0
LINE
8
Black
10
95.2373
20
-42.5603
11
95.2373
21
-43.3121
0
LINE
8
Black
10
95.2373
20
-57.9171
11
93.5355
21
-57.9171
0
LINE
8
Black
10
93.5355
20
-57.9171
11
93.5355
21
-57.1653
0
LINE
8
Black
10
93.5355
20
-57.1653
11
95.2373
21
-57.1653
0
LINE
8
Black
10
95.2373
20
-57.1653
11
95.2373
21
-57.9171
0
LINE
8
Black
10
95.2373
20
-59.1871
11
93.5355
21
-59.1871
0
LINE
8
Black
10
93.5355
20
-59.1871
11
93.5355
21
-58.4353
0
LINE
8
Black
10
93.5355
20
-58.4353
11
95.2373
21
-58.4353
0
LINE
8
Black
10
95.2373
20
-58.4353
11
95.2373
21
-59.1871
0
LINE
8
Black
10
95.2373
20
-60.4571
11
93.5355
21
-60.4571
0
LINE
8
Black
10
93.5355
20
-60.4571
11
93.5355
21
-59.7053
0
LINE
8
Black
10
93.5355
20
-59.7053
11
95.2373
21
-59.7053
0
LINE
8
Black
10
95.2373
20
-59.7053
11
95.2373
21
-60.4571
0
LINE
8
Black
10
95.2373
20
-61.7271
11
93.5355
21
-61.7271
0
LINE
8
Black
10
93.5355
20
-61.7271
11
93.5355
21
-60.9753
0
LINE
8
Black
10
93.5355
20
-60.9753
11
95.2373
21
-60.9753
0
LINE
8
Black
10
95.2373
20
-60.9753
11
95.2373
21
-61.7271
0
LINE
8
Black
10
95.2373
20
-76.3321
11
93.5355
21
-76.3321
0
LINE
8
Black
10
93.5355
20
-76.3321
11
93.5355
21
-75.5803
0
LINE
8
Black
10
93.5355
20
-75.5803
11
95.2373
21
-75.5803
0
LINE
8
Black
10
95.2373
20
-75.5803
11
95.2373
21
-76.3321
0
LINE
8
Black
10
95.2373
20
-77.6021
11
93.5355
21
-77.6021
0
LINE
8
Black
10
93.5355
20
-77.6021
11
93.5355
21
-76.8503
0
LINE
8
Black
10
93.5355
20
-76.8503
11
95.2373
21
-76.8503
0
LINE
8
Black
10
95.2373
20
-76.8503
11
95.2373
21
-77.6021
0
LINE
8
Black
10
95.2373
20
-78.8721
11
93.5355
21
-78.8721
0
LINE
8
Black
10
93.5355
20
-78.8721
11
93.5355
21
-78.1203
0
LINE
8
Black
10
93.5355
20
-78.1203
11
95.2373
21
-78.1203
0
LINE
8
Black
10
95.2373
20
-78.1203
11
95.2373
21
-78.8721
0
LINE
8
Black
10
95.2373
20
-80.1421
11
93.5355
21
-80.1421
0
LINE
8
Black
10
93.5355
20
-80.1421
11
93.5355
21
-79.3903
0
LINE
8
Black
10
93.5355
20
-79.3903
11
95.2373
21
-79.3903
0
LINE
8
Black
10
95.2373
20
-79.3903
11
95.2373
21
-80.1421
0
LINE
8
Black
10
95.2449
20
-89.3547
11
94.4931
21
-89.3547
0
LINE
8
Black
10
94.4931
20
-89.3547
11
94.4931
21
-87.6529
0
LINE
8
Black
10
94.4931
20
-87.6529
11
95.2449
21
-87.6529
0
LINE
8
Black
10
95.2449
20
-87.6529
11
95.2449
21
-89.3547
0
LINE
8
Black
10
95.2449
20
-94.7395
11
94.4931
21
-94.7395
0
LINE
8
Black
10
94.4931
20
-94.7395
11
94.4931
21
-93.0377
0
LINE
8
Black
10
94.4931
20
-93.0377
11
95.2449
21
-93.0377
0
LINE
8
Black
10
95.2449
20
-93.0377
11
95.2449
21
-94.7395
0
LINE
8
Black
10
95.5548
20
-147.635
11
94.1832
21
-147.635
0
LINE
8
Black
10
94.1832
20
-147.635
11
94.1832
21
-145.44
0
LINE
8
Black
10
94.1832
20
-145.44
11
95.5548
21
-145.44
0
LINE
8
Black
10
95.5548
20
-145.44
11
95.5548
21
-147.635
0
LINE
8
Black
10
95.8799
20
-102.689
11
95.1281
21
-102.689
0
LINE
8
Black
10
95.1281
20
-102.689
11
95.1281
21
-100.988
0
LINE
8
Black
10
95.1281
20
-100.988
11
95.8799
21
-100.988
0
LINE
8
Black
10
95.8799
20
-100.988
11
95.8799
21
-102.689
0
LINE
8
Black
10
95.8799
20
-108.074
11
95.1281
21
-108.074
0
LINE
8
Black
10
95.1281
20
-108.074
11
95.1281
21
-106.373
0
LINE
8
Black
10
95.1281
20
-106.373
11
95.8799
21
-106.373
0
LINE
8
Black
10
95.8799
20
-106.373
11
95.8799
21
-108.074
0
LINE
8
Black
10
95.958
20
-126.956
11
94.288
21
-126.956
0
LINE
8
Black
10
94.288
20
-126.956
11
94.288
21
-124.016
0
LINE
8
Black
10
94.288
20
-124.016
11
95.958
21
-124.016
0
LINE
8
Black
10
95.958
20
-124.016
11
95.958
21
-126.956
0
LINE
8
Black
10
95.958
20
-139.021
11
94.288
21
-139.021
0
LINE
8
Black
10
94.288
20
-139.021
11
94.288
21
-136.081
0
LINE
8
Black
10
94.288
20
-136.081
11
95.958
21
-136.081
0
LINE
8
Black
10
95.958
20
-136.081
11
95.958
21
-139.021
0
LINE
8
Black
10
95.2876
20
-139.353
11
95.6557
21
-139.565
0
LINE
8
Black
10
95.6557
20
-139.565
11
95.9289
21
-139.891
0
LINE
8
Black
10
95.9289
20
-139.891
11
96.0743
21
-140.29
0
LINE
8
Black
10
96.0743
20
-140.29
11
96.0743
21
-140.716
0
LINE
8
Black
10
96.0743
20
-140.716
11
95.9289
21
-141.115
0
LINE
8
Black
10
95.9289
20
-141.115
11
95.6557
21
-141.441
0
LINE
8
Black
10
95.6557
20
-141.441
11
95.2876
21
-141.653
0
LINE
8
Black
10
95.2876
20
-141.653
11
94.869
21
-141.727
0
LINE
8
Black
10
94.869
20
-141.727
11
94.4504
21
-141.653
0
LINE
8
Black
10
94.4504
20
-141.653
11
94.0823
21
-141.441
0
LINE
8
Black
10
94.0823
20
-141.441
11
93.8091
21
-141.115
0
LINE
8
Black
10
93.8091
20
-141.115
11
93.6637
21
-140.716
0
LINE
8
Black
10
93.6637
20
-140.716
11
93.6637
21
-140.29
0
LINE
8
Black
10
93.6637
20
-140.29
11
93.8091
21
-139.891
0
LINE
8
Black
10
93.8091
20
-139.891
11
94.0823
21
-139.565
0
LINE
8
Black
10
94.0823
20
-139.565
11
94.4504
21
-139.353
0
LINE
8
Black
10
94.4504
20
-139.353
11
94.869
21
-139.279
0
LINE
8
Black
10
94.869
20
-139.279
11
95.2876
21
-139.353
0
LINE
8
Black
10
96.5149
20
-89.3547
11
95.7631
21
-89.3547
0
LINE
8
Black
10
95.7631
20
-89.3547
11
95.7631
21
-87.6529
0
LINE
8
Black
10
95.7631
20
-87.6529
11
96.5149
21
-87.6529
0
LINE
8
Black
10
96.5149
20
-87.6529
11
96.5149
21
-89.3547
0
LINE
8
Black
10
96.5149
20
-94.7395
11
95.7631
21
-94.7395
0
LINE
8
Black
10
95.7631
20
-94.7395
11
95.7631
21
-93.0377
0
LINE
8
Black
10
95.7631
20
-93.0377
11
96.5149
21
-93.0377
0
LINE
8
Black
10
96.5149
20
-93.0377
11
96.5149
21
-94.7395
0
LINE
8
Black
10
97.1347
20
-39.6723
11
96.4133
21
-39.6723
0
LINE
8
Black
10
96.4133
20
-39.6723
11
96.4133
21
-38.9509
0
LINE
8
Black
10
96.4133
20
-38.9509
11
97.1347
21
-38.9509
0
LINE
8
Black
10
97.1347
20
-38.9509
11
97.1347
21
-39.6723
0
LINE
8
Black
10
97.1347
20
-40.5715
11
96.4133
21
-40.5715
0
LINE
8
Black
10
96.4133
20
-40.5715
11
96.4133
21
-39.8501
0
LINE
8
Black
10
96.4133
20
-39.8501
11
97.1347
21
-39.8501
0
LINE
8
Black
10
97.1347
20
-39.8501
11
97.1347
21
-40.5715
0
LINE
8
Black
10
97.1347
20
-58.0873
11
96.4133
21
-58.0873
0
LINE
8
Black
10
96.4133
20
-58.0873
11
96.4133
21
-57.3659
0
LINE
8
Black
10
96.4133
20
-57.3659
11
97.1347
21
-57.3659
0
LINE
8
Black
10
97.1347
20
-57.3659
11
97.1347
21
-58.0873
0
LINE
8
Black
10
97.1347
20
-58.9865
11
96.4133
21
-58.9865
0
LINE
8
Black
10
96.4133
20
-58.9865
11
96.4133
21
-58.2651
0
LINE
8
Black
10
96.4133
20
-58.2651
11
97.1347
21
-58.2651
0
LINE
8
Black
10
97.1347
20
-58.2651
11
97.1347
21
-58.9865
0
LINE
8
Black
10
97.1347
20
-76.5023
11
96.4133
21
-76.5023
0
LINE
8
Black
10
96.4133
20
-76.5023
11
96.4133
21
-75.7809
0
LINE
8
Black
10
96.4133
20
-75.7809
11
97.1347
21
-75.7809
0
LINE
8
Black
10
97.1347
20
-75.7809
11
97.1347
21
-76.5023
0
LINE
8
Black
10
97.1347
20
-77.4015
11
96.4133
21
-77.4015
0
LINE
8
Black
10
96.4133
20
-77.4015
11
96.4133
21
-76.6801
0
LINE
8
Black
10
96.4133
20
-76.6801
11
97.1347
21
-76.6801
0
LINE
8
Black
10
97.1347
20
-76.6801
11
97.1347
21
-77.4015
0
LINE
8
Black
10
97.1391
20
-35.6813
11
95.9517
21
-35.6813
0
LINE
8
Black
10
95.9517
20
-35.6813
11
95.9517
21
-33.6811
0
LINE
8
Black
10
95.9517
20
-33.6811
11
97.1391
21
-33.6811
0
LINE
8
Black
10
97.1391
20
-33.6811
11
97.1391
21
-35.6813
0
LINE
8
Black
10
97.1391
20
-54.0963
11
95.9517
21
-54.0963
0
LINE
8
Black
10
95.9517
20
-54.0963
11
95.9517
21
-52.0961
0
LINE
8
Black
10
95.9517
20
-52.0961
11
97.1391
21
-52.0961
0
LINE
8
Black
10
97.1391
20
-52.0961
11
97.1391
21
-54.0963
0
LINE
8
Black
10
97.1391
20
-72.5113
11
95.9517
21
-72.5113
0
LINE
8
Black
10
95.9517
20
-72.5113
11
95.9517
21
-70.5111
0
LINE
8
Black
10
95.9517
20
-70.5111
11
97.1391
21
-70.5111
0
LINE
8
Black
10
97.1391
20
-70.5111
11
97.1391
21
-72.5113
0
LINE
8
Black
10
97.1391
20
-97.9113
11
95.9517
21
-97.9113
0
LINE
8
Black
10
95.9517
20
-97.9113
11
95.9517
21
-95.9111
0
LINE
8
Black
10
95.9517
20
-95.9111
11
97.1391
21
-95.9111
0
LINE
8
Black
10
97.1391
20
-95.9111
11
97.1391
21
-97.9113
0
LINE
8
Black
10
97.7849
20
-89.3547
11
97.0331
21
-89.3547
0
LINE
8
Black
10
97.0331
20
-89.3547
11
97.0331
21
-87.6529
0
LINE
8
Black
10
97.0331
20
-87.6529
11
97.7849
21
-87.6529
0
LINE
8
Black
10
97.7849
20
-87.6529
11
97.7849
21
-89.3547
0
LINE
8
Black
10
97.7849
20
-94.7395
11
97.0331
21
-94.7395
0
LINE
8
Black
10
97.0331
20
-94.7395
11
97.0331
21
-93.0377
0
LINE
8
Black
10
97.0331
20
-93.0377
11
97.7849
21
-93.0377
0
LINE
8
Black
10
97.7849
20
-93.0377
11
97.7849
21
-94.7395
0
LINE
8
Black
10
95.0629
20
-147.936
11
96.3503
21
-148.679
0
LINE
8
Black
10
96.3503
20
-148.679
11
97.3058
21
-149.818
0
LINE
8
Black
10
97.3058
20
-149.818
11
97.8143
21
-151.215
0
LINE
8
Black
10
97.8143
20
-151.215
11
97.8143
21
-152.701
0
LINE
8
Black
10
97.8143
20
-152.701
11
97.3058
21
-154.098
0
LINE
8
Black
10
97.3058
20
-154.098
11
96.3503
21
-155.237
0
LINE
8
Black
10
96.3503
20
-155.237
11
95.0629
21
-155.98
0
LINE
8
Black
10
95.0629
20
-155.98
11
93.599
21
-156.238
0
LINE
8
Black
10
93.599
20
-156.238
11
92.1351
21
-155.98
0
LINE
8
Black
10
92.1351
20
-155.98
11
90.8477
21
-155.237
0
LINE
8
Black
10
90.8477
20
-155.237
11
89.8922
21
-154.098
0
LINE
8
Black
10
89.8922
20
-154.098
11
89.3837
21
-152.701
0
LINE
8
Black
10
89.3837
20
-152.701
11
89.3837
21
-151.215
0
LINE
8
Black
10
89.3837
20
-151.215
11
89.8922
21
-149.818
0
LINE
8
Black
10
89.8922
20
-149.818
11
90.8477
21
-148.679
0
LINE
8
Black
10
90.8477
20
-148.679
11
92.1351
21
-147.936
0
LINE
8
Black
10
92.1351
20
-147.936
11
93.599
21
-147.678
0
LINE
8
Black
10
93.599
20
-147.678
11
95.0629
21
-147.936
0
LINE
8
Black
10
99.0397
20
-39.6723
11
98.3183
21
-39.6723
0
LINE
8
Black
10
98.3183
20
-39.6723
11
98.3183
21
-38.9509
0
LINE
8
Black
10
98.3183
20
-38.9509
11
99.0397
21
-38.9509
0
LINE
8
Black
10
99.0397
20
-38.9509
11
99.0397
21
-39.6723
0
LINE
8
Black
10
99.0397
20
-40.5715
11
98.3183
21
-40.5715
0
LINE
8
Black
10
98.3183
20
-40.5715
11
98.3183
21
-39.8501
0
LINE
8
Black
10
98.3183
20
-39.8501
11
99.0397
21
-39.8501
0
LINE
8
Black
10
99.0397
20
-39.8501
11
99.0397
21
-40.5715
0
LINE
8
Black
10
99.0397
20
-58.0873
11
98.3183
21
-58.0873
0
LINE
8
Black
10
98.3183
20
-58.0873
11
98.3183
21
-57.3659
0
LINE
8
Black
10
98.3183
20
-57.3659
11
99.0397
21
-57.3659
0
LINE
8
Black
10
99.0397
20
-57.3659
11
99.0397
21
-58.0873
0
LINE
8
Black
10
99.0397
20
-58.9865
11
98.3183
21
-58.9865
0
LINE
8
Black
10
98.3183
20
-58.9865
11
98.3183
21
-58.2651
0
LINE
8
Black
10
98.3183
20
-58.2651
11
99.0397
21
-58.2651
0
LINE
8
Black
10
99.0397
20
-58.2651
11
99.0397
21
-58.9865
0
LINE
8
Black
10
99.0397
20
-76.5023
11
98.3183
21
-76.5023
0
LINE
8
Black
10
98.3183
20
-76.5023
11
98.3183
21
-75.7809
0
LINE
8
Black
10
98.3183
20
-75.7809
11
99.0397
21
-75.7809
0
LINE
8
Black
10
99.0397
20
-75.7809
11
99.0397
21
-76.5023
0
LINE
8
Black
10
99.0397
20
-77.4015
11
98.3183
21
-77.4015
0
LINE
8
Black
10
98.3183
20
-77.4015
11
98.3183
21
-76.6801
0
LINE
8
Black
10
98.3183
20
-76.6801
11
99.0397
21
-76.6801
0
LINE
8
Black
10
99.0397
20
-76.6801
11
99.0397
21
-77.4015
0
LINE
8
Black
10
99.0473
20
-28.7071
11
97.3455
21
-28.7071
0
LINE
8
Black
10
97.3455
20
-28.7071
11
97.3455
21
-27.9553
0
LINE
8
Black
10
97.3455
20
-27.9553
11
99.0473
21
-27.9553
0
LINE
8
Black
10
99.0473
20
-27.9553
11
99.0473
21
-28.7071
0
LINE
8
Black
10
99.0473
20
-29.9771
11
97.3455
21
-29.9771
0
LINE
8
Black
10
97.3455
20
-29.9771
11
97.3455
21
-29.2253
0
LINE
8
Black
10
97.3455
20
-29.2253
11
99.0473
21
-29.2253
0
LINE
8
Black
10
99.0473
20
-29.2253
11
99.0473
21
-29.9771
0
LINE
8
Black
10
99.0473
20
-31.2471
11
97.3455
21
-31.2471
0
LINE
8
Black
10
97.3455
20
-31.2471
11
97.3455
21
-30.4953
0
LINE
8
Black
10
97.3455
20
-30.4953
11
99.0473
21
-30.4953
0
LINE
8
Black
10
99.0473
20
-30.4953
11
99.0473
21
-31.2471
0
LINE
8
Black
10
99.0473
20
-32.5171
11
97.3455
21
-32.5171
0
LINE
8
Black
10
97.3455
20
-32.5171
11
97.3455
21
-31.7653
0
LINE
8
Black
10
97.3455
20
-31.7653
11
99.0473
21
-31.7653
0
LINE
8
Black
10
99.0473
20
-31.7653
11
99.0473
21
-32.5171
0
LINE
8
Black
10
99.0473
20
-47.1221
11
97.3455
21
-47.1221
0
LINE
8
Black
10
97.3455
20
-47.1221
11
97.3455
21
-46.3703
0
LINE
8
Black
10
97.3455
20
-46.3703
11
99.0473
21
-46.3703
0
LINE
8
Black
10
99.0473
20
-46.3703
11
99.0473
21
-47.1221
0
LINE
8
Black
10
99.0473
20
-48.3921
11
97.3455
21
-48.3921
0
LINE
8
Black
10
97.3455
20
-48.3921
11
97.3455
21
-47.6403
0
LINE
8
Black
10
97.3455
20
-47.6403
11
99.0473
21
-47.6403
0
LINE
8
Black
10
99.0473
20
-47.6403
11
99.0473
21
-48.3921
0
LINE
8
Black
10
99.0473
20
-49.6621
11
97.3455
21
-49.6621
0
LINE
8
Black
10
97.3455
20
-49.6621
11
97.3455
21
-48.9103
0
LINE
8
Black
10
97.3455
20
-48.9103
11
99.0473
21
-48.9103
0
LINE
8
Black
10
99.0473
20
-48.9103
11
99.0473
21
-49.6621
0
LINE
8
Black
10
99.0473
20
-50.9321
11
97.3455
21
-50.9321
0
LINE
8
Black
10
97.3455
20
-50.9321
11
97.3455
21
-50.1803
0
LINE
8
Black
10
97.3455
20
-50.1803
11
99.0473
21
-50.1803
0
LINE
8
Black
10
99.0473
20
-50.1803
11
99.0473
21
-50.9321
0
LINE
8
Black
10
99.0473
20
-65.5371
11
97.3455
21
-65.5371
0
LINE
8
Black
10
97.3455
20
-65.5371
11
97.3455
21
-64.7853
0
LINE
8
Black
10
97.3455
20
-64.7853
11
99.0473
21
-64.7853
0
LINE
8
Black
10
99.0473
20
-64.7853
11
99.0473
21
-65.5371
0
LINE
8
Black
10
99.0473
20
-66.8071
11
97.3455
21
-66.8071
0
LINE
8
Black
10
97.3455
20
-66.8071
11
97.3455
21
-66.0553
0
LINE
8
Black
10
97.3455
20
-66.0553
11
99.0473
21
-66.0553
0
LINE
8
Black
10
99.0473
20
-66.0553
11
99.0473
21
-66.8071
0
LINE
8
Black
10
99.0473
20
-68.0771
11
97.3455
21
-68.0771
0
LINE
8
Black
10
97.3455
20
-68.0771
11
97.3455
21
-67.3253
0
LINE
8
Black
10
97.3455
20
-67.3253
11
99.0473
21
-67.3253
0
LINE
8
Black
10
99.0473
20
-67.3253
11
99.0473
21
-68.0771
0
LINE
8
Black
10
99.0473
20
-69.3471
11
97.3455
21
-69.3471
0
LINE
8
Black
10
97.3455
20
-69.3471
11
97.3455
21
-68.5953
0
LINE
8
Black
10
97.3455
20
-68.5953
11
99.0473
21
-68.5953
0
LINE
8
Black
10
99.0473
20
-68.5953
11
99.0473
21
-69.3471
0
LINE
8
Black
10
100.945
20
-39.6723
11
100.223
21
-39.6723
0
LINE
8
Black
10
100.223
20
-39.6723
11
100.223
21
-38.9509
0
LINE
8
Black
10
100.223
20
-38.9509
11
100.945
21
-38.9509
0
LINE
8
Black
10
100.945
20
-38.9509
11
100.945
21
-39.6723
0
LINE
8
Black
10
100.945
20
-40.5715
11
100.223
21
-40.5715
0
LINE
8
Black
10
100.223
20
-40.5715
11
100.223
21
-39.8501
0
LINE
8
Black
10
100.223
20
-39.8501
11
100.945
21
-39.8501
0
LINE
8
Black
10
100.945
20
-39.8501
11
100.945
21
-40.5715
0
LINE
8
Black
10
100.945
20
-58.0873
11
100.223
21
-58.0873
0
LINE
8
Black
10
100.223
20
-58.0873
11
100.223
21
-57.3659
0
LINE
8
Black
10
100.223
20
-57.3659
11
100.945
21
-57.3659
0
LINE
8
Black
10
100.945
20
-57.3659
11
100.945
21
-58.0873
0
LINE
8
Black
10
100.945
20
-58.9865
11
100.223
21
-58.9865
0
LINE
8
Black
10
100.223
20
-58.9865
11
100.223
21
-58.2651
0
LINE
8
Black
10
100.223
20
-58.2651
11
100.945
21
-58.2651
0
LINE
8
Black
10
100.945
20
-58.2651
11
100.945
21
-58.9865
0
LINE
8
Black
10
100.945
20
-76.5023
11
100.223
21
-76.5023
0
LINE
8
Black
10
100.223
20
-76.5023
11
100.223
21
-75.7809
0
LINE
8
Black
10
100.223
20
-75.7809
11
100.945
21
-75.7809
0
LINE
8
Black
10
100.945
20
-75.7809
11
100.945
21
-76.5023
0
LINE
8
Black
10
100.945
20
-77.4015
11
100.223
21
-77.4015
0
LINE
8
Black
10
100.223
20
-77.4015
11
100.223
21
-76.6801
0
LINE
8
Black
10
100.223
20
-76.6801
11
100.945
21
-76.6801
0
LINE
8
Black
10
100.945
20
-76.6801
11
100.945
21
-77.4015
0
LINE
8
Black
10
102.219
20
-31.0585
11
100.219
21
-31.0585
0
LINE
8
Black
10
100.219
20
-31.0585
11
100.219
21
-29.8711
0
LINE
8
Black
10
100.219
20
-29.8711
11
102.219
21
-29.8711
0
LINE
8
Black
10
102.219
20
-29.8711
11
102.219
21
-31.0585
0
LINE
8
Black
10
102.219
20
-33.1413
11
100.219
21
-33.1413
0
LINE
8
Black
10
100.219
20
-33.1413
11
100.219
21
-31.9539
0
LINE
8
Black
10
100.219
20
-31.9539
11
102.219
21
-31.9539
0
LINE
8
Black
10
102.219
20
-31.9539
11
102.219
21
-33.1413
0
LINE
8
Black
10
102.219
20
-49.4735
11
100.219
21
-49.4735
0
LINE
8
Black
10
100.219
20
-49.4735
11
100.219
21
-48.2861
0
LINE
8
Black
10
100.219
20
-48.2861
11
102.219
21
-48.2861
0
LINE
8
Black
10
102.219
20
-48.2861
11
102.219
21
-49.4735
0
LINE
8
Black
10
102.219
20
-51.5563
11
100.219
21
-51.5563
0
LINE
8
Black
10
100.219
20
-51.5563
11
100.219
21
-50.3689
0
LINE
8
Black
10
100.219
20
-50.3689
11
102.219
21
-50.3689
0
LINE
8
Black
10
102.219
20
-50.3689
11
102.219
21
-51.5563
0
LINE
8
Black
10
102.219
20
-67.8885
11
100.219
21
-67.8885
0
LINE
8
Black
10
100.219
20
-67.8885
11
100.219
21
-66.7011
0
LINE
8
Black
10
100.219
20
-66.7011
11
102.219
21
-66.7011
0
LINE
8
Black
10
102.219
20
-66.7011
11
102.219
21
-67.8885
0
LINE
8
Black
10
102.219
20
-69.9713
11
100.219
21
-69.9713
0
LINE
8
Black
10
100.219
20
-69.9713
11
100.219
21
-68.7839
0
LINE
8
Black
10
100.219
20
-68.7839
11
102.219
21
-68.7839
0
LINE
8
Black
10
102.219
20
-68.7839
11
102.219
21
-69.9713
0
LINE
8
Black
10
108.785
20
-36.1512
11
107.115
21
-36.1512
0
LINE
8
Black
10
107.115
20
-36.1512
11
107.115
21
-33.2112
0
LINE
8
Black
10
107.115
20
-33.2112
11
108.785
21
-33.2112
0
LINE
8
Black
10
108.785
20
-33.2112
11
108.785
21
-36.1512
0
LINE
8
Black
10
108.785
20
-39.3262
11
107.115
21
-39.3262
0
LINE
8
Black
10
107.115
20
-39.3262
11
107.115
21
-36.3862
0
LINE
8
Black
10
107.115
20
-36.3862
11
108.785
21
-36.3862
0
LINE
8
Black
10
108.785
20
-36.3862
11
108.785
21
-39.3262
0
LINE
8
Black
10
108.785
20
-73.6162
11
107.115
21
-73.6162
0
LINE
8
Black
10
107.115
20
-73.6162
11
107.115
21
-70.6762
0
LINE
8
Black
10
107.115
20
-70.6762
11
108.785
21
-70.6762
0
LINE
8
Black
10
108.785
20
-70.6762
11
108.785
21
-73.6162
0
LINE
8
Black
10
108.785
20
-76.7912
11
107.115
21
-76.7912
0
LINE
8
Black
10
107.115
20
-76.7912
11
107.115
21
-73.8512
0
LINE
8
Black
10
107.115
20
-73.8512
11
108.785
21
-73.8512
0
LINE
8
Black
10
108.785
20
-73.8512
11
108.785
21
-76.7912
0
LINE
8
Black
10
108.785
20
-111.081
11
107.115
21
-111.081
0
LINE
8
Black
10
107.115
20
-111.081
11
107.115
21
-108.141
0
LINE
8
Black
10
107.115
20
-108.141
11
108.785
21
-108.141
0
LINE
8
Black
10
108.785
20
-108.141
11
108.785
21
-111.081
0
LINE
8
Black
10
108.785
20
-114.256
11
107.115
21
-114.256
0
LINE
8
Black
10
107.115
20
-114.256
11
107.115
21
-111.316
0
LINE
8
Black
10
107.115
20
-111.316
11
108.785
21
-111.316
0
LINE
8
Black
10
108.785
20
-111.316
11
108.785
21
-114.256
0
LINE
8
Black
10
111.833
20
-36.1512
11
110.163
21
-36.1512
0
LINE
8
Black
10
110.163
20
-36.1512
11
110.163
21
-33.2112
0
LINE
8
Black
10
110.163
20
-33.2112
11
111.833
21
-33.2112
0
LINE
8
Black
10
111.833
20
-33.2112
11
111.833
21
-36.1512
0
LINE
8
Black
10
111.833
20
-39.3262
11
110.163
21
-39.3262
0
LINE
8
Black
10
110.163
20
-39.3262
11
110.163
21
-36.3862
0
LINE
8
Black
10
110.163
20
-36.3862
11
111.833
21
-36.3862
0
LINE
8
Black
10
111.833
20
-36.3862
11
111.833
21
-39.3262
0
LINE
8
Black
10
111.833
20
-73.6162
11
110.163
21
-73.6162
0
LINE
8
Black
10
110.163
20
-73.6162
11
110.163
21
-70.6762
0
LINE
8
Black
10
110.163
20
-70.6762
11
111.833
21
-70.6762
0
LINE
8
Black
10
111.833
20
-70.6762
11
111.833
21
-73.6162
0
LINE
8
Black
10
111.833
20
-76.7912
11
110.163
21
-76.7912
0
LINE
8
Black
10
110.163
20
-76.7912
11
110.163
21
-73.8512
0
LINE
8
Black
10
110.163
20
-73.8512
11
111.833
21
-73.8512
0
LINE
8
Black
10
111.833
20
-73.8512
11
111.833
21
-76.7912
0
LINE
8
Black
10
111.833
20
-111.081
11
110.163
21
-111.081
0
LINE
8
Black
10
110.163
20
-111.081
11
110.163
21
-108.141
0
LINE
8
Black
10
110.163
20
-108.141
11
111.833
21
-108.141
0
LINE
8
Black
10
111.833
20
-108.141
11
111.833
21
-111.081
0
LINE
8
Black
10
111.833
20
-114.256
11
110.163
21
-114.256
0
LINE
8
Black
10
110.163
20
-114.256
11
110.163
21
-111.316
0
LINE
8
Black
10
110.163
20
-111.316
11
111.833
21
-111.316
0
LINE
8
Black
10
111.833
20
-111.316
11
111.833
21
-114.256
0
LINE
8
Black
10
117.04
20
-91.3962
11
115.37
21
-91.3962
0
LINE
8
Black
10
115.37
20
-91.3962
11
115.37
21
-88.4562
0
LINE
8
Black
10
115.37
20
-88.4562
11
117.04
21
-88.4562
0
LINE
8
Black
10
117.04
20
-88.4562
11
117.04
21
-91.3962
0
LINE
8
Black
10
117.04
20
-97.7462
11
115.37
21
-97.7462
0
LINE
8
Black
10
115.37
20
-97.7462
11
115.37
21
-94.8062
0
LINE
8
Black
10
115.37
20
-94.8062
11
117.04
21
-94.8062
0
LINE
8
Black
10
117.04
20
-94.8062
11
117.04
21
-97.7462
0
LINE
8
Black
10
117.294
20
-44.7237
11
115.624
21
-44.7237
0
LINE
8
Black
10
115.624
20
-44.7237
11
115.624
21
-41.3519
0
LINE
8
Black
10
115.624
20
-41.3519
11
117.294
21
-41.3519
0
LINE
8
Black
10
117.294
20
-41.3519
11
117.294
21
-44.7237
0
LINE
8
Black
10
117.294
20
-82.8237
11
115.624
21
-82.8237
0
LINE
8
Black
10
115.624
20
-82.8237
11
115.624
21
-79.4519
0
LINE
8
Black
10
115.624
20
-79.4519
11
117.294
21
-79.4519
0
LINE
8
Black
10
117.294
20
-79.4519
11
117.294
21
-82.8237
0
LINE
8
Black
10
117.294
20
-103.143
11
115.624
21
-103.143
0
LINE
8
Black
10
115.624
20
-103.143
11
115.624
21
-99.7717
0
LINE
8
Black
10
115.624
20
-99.7717
11
117.294
21
-99.7717
0
LINE
8
Black
10
117.294
20
-99.7717
11
117.294
21
-103.143
0
LINE
8
Black
10
119.834
20
-48.3305
11
118.164
21
-48.3305
0
LINE
8
Black
10
118.164
20
-48.3305
11
118.164
21
-44.9587
0
LINE
8
Black
10
118.164
20
-44.9587
11
119.834
21
-44.9587
0
LINE
8
Black
10
119.834
20
-44.9587
11
119.834
21
-48.3305
0
LINE
8
Black
10
119.834
20
-86.4305
11
118.164
21
-86.4305
0
LINE
8
Black
10
118.164
20
-86.4305
11
118.164
21
-83.0587
0
LINE
8
Black
10
118.164
20
-83.0587
11
119.834
21
-83.0587
0
LINE
8
Black
10
119.834
20
-83.0587
11
119.834
21
-86.4305
0
LINE
8
Black
10
119.834
20
-106.75
11
118.164
21
-106.75
0
LINE
8
Black
10
118.164
20
-106.75
11
118.164
21
-103.378
0
LINE
8
Black
10
118.164
20
-103.378
11
119.834
21
-103.378
0
LINE
8
Black
10
119.834
20
-103.378
11
119.834
21
-106.75
0
LINE
8
Black
10
120.088
20
-91.3962
11
118.418
21
-91.3962
0
LINE
8
Black
10
118.418
20
-91.3962
11
118.418
21
-88.4562
0
LINE
8
Black
10
118.418
20
-88.4562
11
120.088
21
-88.4562
0
LINE
8
Black
10
120.088
20
-88.4562
11
120.088
21
-91.3962
0
LINE
8
Black
10
120.088
20
-97.7462
11
118.418
21
-97.7462
0
LINE
8
Black
10
118.418
20
-97.7462
11
118.418
21
-94.8062
0
LINE
8
Black
10
118.418
20
-94.8062
11
120.088
21
-94.8062
0
LINE
8
Black
10
120.088
20
-94.8062
11
120.088
21
-97.7462
0
LINE
8
Black
10
118.997
20
-32.4674
11
120.284
21
-33.2107
0
LINE
8
Black
10
120.284
20
-33.2107
11
121.24
21
-34.3495
0
LINE
8
Black
10
121.24
20
-34.3495
11
121.748
21
-35.7463
0
LINE
8
Black
10
121.748
20
-35.7463
11
121.748
21
-37.2329
0
LINE
8
Black
10
121.748
20
-37.2329
11
121.24
21
-38.6297
0
LINE
8
Black
10
121.24
20
-38.6297
11
120.284
21
-39.7685
0
LINE
8
Black
10
120.284
20
-39.7685
11
118.997
21
-40.5118
0
LINE
8
Black
10
118.997
20
-40.5118
11
117.533
21
-40.7699
0
LINE
8
Black
10
117.533
20
-40.7699
11
116.069
21
-40.5118
0
LINE
8
Black
10
116.069
20
-40.5118
11
114.782
21
-39.7685
0
LINE
8
Black
10
114.782
20
-39.7685
11
113.826
21
-38.6297
0
LINE
8
Black
10
113.826
20
-38.6297
11
113.318
21
-37.2329
0
LINE
8
Black
10
113.318
20
-37.2329
11
113.318
21
-35.7463
0
LINE
8
Black
10
113.318
20
-35.7463
11
113.826
21
-34.3495
0
LINE
8
Black
10
113.826
20
-34.3495
11
114.782
21
-33.2107
0
LINE
8
Black
10
114.782
20
-33.2107
11
116.069
21
-32.4674
0
LINE
8
Black
10
116.069
20
-32.4674
11
117.533
21
-32.2093
0
LINE
8
Black
10
117.533
20
-32.2093
11
118.997
21
-32.4674
0
LINE
8
Black
10
118.997
20
-70.029
11
120.284
21
-70.7723
0
LINE
8
Black
10
120.284
20
-70.7723
11
121.24
21
-71.9111
0
LINE
8
Black
10
121.24
20
-71.9111
11
121.748
21
-73.3079
0
LINE
8
Black
10
121.748
20
-73.3079
11
121.748
21
-74.7945
0
LINE
8
Black
10
121.748
20
-74.7945
11
121.24
21
-76.1913
0
LINE
8
Black
10
121.24
20
-76.1913
11
120.284
21
-77.3301
0
LINE
8
Black
10
120.284
20
-77.3301
11
118.997
21
-78.0734
0
LINE
8
Black
10
118.997
20
-78.0734
11
117.533
21
-78.3315
0
LINE
8
Black
10
117.533
20
-78.3315
11
116.069
21
-78.0734
0
LINE
8
Black
10
116.069
20
-78.0734
11
114.782
21
-77.3301
0
LINE
8
Black
10
114.782
20
-77.3301
11
113.826
21
-76.1913
0
LINE
8
Black
10
113.826
20
-76.1913
11
113.318
21
-74.7945
0
LINE
8
Black
10
113.318
20
-74.7945
11
113.318
21
-73.3079
0
LINE
8
Black
10
113.318
20
-73.3079
11
113.826
21
-71.9111
0
LINE
8
Black
10
113.826
20
-71.9111
11
114.782
21
-70.7723
0
LINE
8
Black
10
114.782
20
-70.7723
11
116.069
21
-70.029
0
LINE
8
Black
10
116.069
20
-70.029
11
117.533
21
-69.7709
0
LINE
8
Black
10
117.533
20
-69.7709
11
118.997
21
-70.029
0
LINE
8
Black
10
118.997
20
-107.591
11
120.284
21
-108.334
0
LINE
8
Black
10
120.284
20
-108.334
11
121.24
21
-109.473
0
LINE
8
Black
10
121.24
20
-109.473
11
121.748
21
-110.87
0
LINE
8
Black
10
121.748
20
-110.87
11
121.748
21
-112.356
0
LINE
8
Black
10
121.748
20
-112.356
11
121.24
21
-113.753
0
LINE
8
Black
10
121.24
20
-113.753
11
120.284
21
-114.892
0
LINE
8
Black
10
120.284
20
-114.892
11
118.997
21
-115.635
0
LINE
8
Black
10
118.997
20
-115.635
11
117.533
21
-115.893
0
LINE
8
Black
10
117.533
20
-115.893
11
116.069
21
-115.635
0
LINE
8
Black
10
116.069
20
-115.635
11
114.782
21
-114.892
0
LINE
8
Black
10
114.782
20
-114.892
11
113.826
21
-113.753
0
LINE
8
Black
10
113.826
20
-113.753
11
113.318
21
-112.356
0
LINE
8
Black
10
113.318
20
-112.356
11
113.318
21
-110.87
0
LINE
8
Black
10
113.318
20
-110.87
11
113.826
21
-109.473
0
LINE
8
Black
10
113.826
20
-109.473
11
114.782
21
-108.334
0
LINE
8
Black
10
114.782
20
-108.334
11
116.069
21
-107.591
0
LINE
8
Black
10
116.069
20
-107.591
11
117.533
21
-107.333
0
LINE
8
Black
10
117.533
20
-107.333
11
118.997
21
-107.591
0
LINE
8
Black
10
121.113
20
-26.3155
11
121.71
21
-26.6603
0
LINE
8
Black
10
121.71
20
-26.6603
11
122.154
21
-27.1885
0
LINE
8
Black
10
122.154
20
-27.1885
11
122.389
21
-27.8365
0
LINE
8
Black
10
122.389
20
-27.8365
11
122.389
21
-28.5261
0
LINE
8
Black
10
122.389
20
-28.5261
11
122.154
21
-29.1741
0
LINE
8
Black
10
122.154
20
-29.1741
11
121.71
21
-29.7023
0
LINE
8
Black
10
121.71
20
-29.7023
11
121.113
21
-30.0471
0
LINE
8
Black
10
121.113
20
-30.0471
11
120.434
21
-30.1669
0
LINE
8
Black
10
120.434
20
-30.1669
11
119.755
21
-30.0471
0
LINE
8
Black
10
119.755
20
-30.0471
11
119.158
21
-29.7023
0
LINE
8
Black
10
119.158
20
-29.7023
11
118.714
21
-29.1741
0
LINE
8
Black
10
118.714
20
-29.1741
11
118.479
21
-28.5261
0
LINE
8
Black
10
118.479
20
-28.5261
11
118.479
21
-27.8365
0
LINE
8
Black
10
118.479
20
-27.8365
11
118.714
21
-27.1885
0
LINE
8
Black
10
118.714
20
-27.1885
11
119.158
21
-26.6603
0
LINE
8
Black
10
119.158
20
-26.6603
11
119.755
21
-26.3155
0
LINE
8
Black
10
119.755
20
-26.3155
11
120.434
21
-26.1957
0
LINE
8
Black
10
120.434
20
-26.1957
11
121.113
21
-26.3155
0
LINE
8
Black
10
121.113
20
-63.877
11
121.71
21
-64.2218
0
LINE
8
Black
10
121.71
20
-64.2218
11
122.154
21
-64.75
0
LINE
8
Black
10
122.154
20
-64.75
11
122.389
21
-65.398
0
LINE
8
Black
10
122.389
20
-65.398
11
122.389
21
-66.0876
0
LINE
8
Black
10
122.389
20
-66.0876
11
122.154
21
-66.7356
0
LINE
8
Black
10
122.154
20
-66.7356
11
121.71
21
-67.2638
0
LINE
8
Black
10
121.71
20
-67.2638
11
121.113
21
-67.6086
0
LINE
8
Black
10
121.113
20
-67.6086
11
120.434
21
-67.7284
0
LINE
8
Black
10
120.434
20
-67.7284
11
119.755
21
-67.6086
0
LINE
8
Black
10
119.755
20
-67.6086
11
119.158
21
-67.2638
0
LINE
8
Black
10
119.158
20
-67.2638
11
118.714
21
-66.7356
0
LINE
8
Black
10
118.714
20
-66.7356
11
118.479
21
-66.0876
0
LINE
8
Black
10
118.479
20
-66.0876
11
118.479
21
-65.398
0
LINE
8
Black
10
118.479
20
-65.398
11
118.714
21
-64.75
0
LINE
8
Black
10
118.714
20
-64.75
11
119.158
21
-64.2218
0
LINE
8
Black
10
119.158
20
-64.2218
11
119.755
21
-63.877
0
LINE
8
Black
10
119.755
20
-63.877
11
120.434
21
-63.7572
0
LINE
8
Black
10
120.434
20
-63.7572
11
121.113
21
-63.877
0
LINE
8
Black
10
121.113
20
-118.055
11
121.71
21
-118.4
0
LINE
8
Black
10
121.71
20
-118.4
11
122.154
21
-118.928
0
LINE
8
Black
10
122.154
20
-118.928
11
122.389
21
-119.576
0
LINE
8
Black
10
122.389
20
-119.576
11
122.389
21
-120.266
0
LINE
8
Black
10
122.389
20
-120.266
11
122.154
21
-120.914
0
LINE
8
Black
10
122.154
20
-120.914
11
121.71
21
-121.442
0
LINE
8
Black
10
121.71
20
-121.442
11
121.113
21
-121.787
0
LINE
8
Black
10
121.113
20
-121.787
11
120.434
21
-121.907
0
LINE
8
Black
10
120.434
20
-121.907
11
119.755
21
-121.787
0
LINE
8
Black
10
119.755
20
-121.787
11
119.158
21
-121.442
0
LINE
8
Black
10
119.158
20
-121.442
11
118.714
21
-120.914
0
LINE
8
Black
10
118.714
20
-120.914
11
118.479
21
-120.266
0
LINE
8
Black
10
118.479
20
-120.266
11
118.479
21
-119.576
0
LINE
8
Black
10
118.479
20
-119.576
11
118.714
21
-118.928
0
LINE
8
Black
10
118.714
20
-118.928
11
119.158
21
-118.4
0
LINE
8
Black
10
119.158
20
-118.4
11
119.755
21
-118.055
0
LINE
8
Black
10
119.755
20
-118.055
11
120.434
21
-117.935
0
LINE
8
Black
10
120.434
20
-117.935
11
121.113
21
-118.055
0
LINE
8
Black
10
123.536
20
-33.3223
11
122.814
21
-33.3223
0
LINE
8
Black
10
122.814
20
-33.3223
11
122.814
21
-32.6009
0
LINE
8
Black
10
122.814
20
-32.6009
11
123.536
21
-32.6009
0
LINE
8
Black
10
123.536
20
-32.6009
11
123.536
21
-33.3223
0
LINE
8
Black
10
123.536
20
-34.2215
11
122.814
21
-34.2215
0
LINE
8
Black
10
122.814
20
-34.2215
11
122.814
21
-33.5001
0
LINE
8
Black
10
122.814
20
-33.5001
11
123.536
21
-33.5001
0
LINE
8
Black
10
123.536
20
-33.5001
11
123.536
21
-34.2215
0
LINE
8
Black
10
123.536
20
-70.7873
11
122.814
21
-70.7873
0
LINE
8
Black
10
122.814
20
-70.7873
11
122.814
21
-70.0659
0
LINE
8
Black
10
122.814
20
-70.0659
11
123.536
21
-70.0659
0
LINE
8
Black
10
123.536
20
-70.0659
11
123.536
21
-70.7873
0
LINE
8
Black
10
123.536
20
-71.6865
11
122.814
21
-71.6865
0
LINE
8
Black
10
122.814
20
-71.6865
11
122.814
21
-70.9651
0
LINE
8
Black
10
122.814
20
-70.9651
11
123.536
21
-70.9651
0
LINE
8
Black
10
123.536
20
-70.9651
11
123.536
21
-71.6865
0
LINE
8
Black
10
123.536
20
-108.252
11
122.814
21
-108.252
0
LINE
8
Black
10
122.814
20
-108.252
11
122.814
21
-107.531
0
LINE
8
Black
10
122.814
20
-107.531
11
123.536
21
-107.531
0
LINE
8
Black
10
123.536
20
-107.531
11
123.536
21
-108.252
0
LINE
8
Black
10
123.536
20
-109.151
11
122.814
21
-109.151
0
LINE
8
Black
10
122.814
20
-109.151
11
122.814
21
-108.43
0
LINE
8
Black
10
122.814
20
-108.43
11
123.536
21
-108.43
0
LINE
8
Black
10
123.536
20
-108.43
11
123.536
21
-109.151
0
LINE
8
Black
10
123.823
20
-36.0832
11
122.527
21
-36.0832
0
LINE
8
Black
10
122.527
20
-36.0832
11
122.527
21
-34.7878
0
LINE
8
Black
10
122.527
20
-34.7878
11
123.823
21
-34.7878
0
LINE
8
Black
10
123.823
20
-34.7878
11
123.823
21
-36.0832
0
LINE
8
Black
10
123.823
20
-38.1914
11
122.527
21
-38.1914
0
LINE
8
Black
10
122.527
20
-38.1914
11
122.527
21
-36.896
0
LINE
8
Black
10
122.527
20
-36.896
11
123.823
21
-36.896
0
LINE
8
Black
10
123.823
20
-36.896
11
123.823
21
-38.1914
0
LINE
8
Black
10
123.823
20
-73.6448
11
122.527
21
-73.6448
0
LINE
8
Black
10
122.527
20
-73.6448
11
122.527
21
-72.3494
0
LINE
8
Black
10
122.527
20
-72.3494
11
123.823
21
-72.3494
0
LINE
8
Black
10
123.823
20
-72.3494
11
123.823
21
-73.6448
0
LINE
8
Black
10
123.823
20
-75.753
11
122.527
21
-75.753
0
LINE
8
Black
10
122.527
20
-75.753
11
122.527
21
-74.4576
0
LINE
8
Black
10
122.527
20
-74.4576
11
123.823
21
-74.4576
0
LINE
8
Black
10
123.823
20
-74.4576
11
123.823
21
-75.753
0
LINE
8
Black
10
123.823
20
-111.207
11
122.527
21
-111.207
0
LINE
8
Black
10
122.527
20
-111.207
11
122.527
21
-109.911
0
LINE
8
Black
10
122.527
20
-109.911
11
123.823
21
-109.911
0
LINE
8
Black
10
123.823
20
-109.911
11
123.823
21
-111.207
0
LINE
8
Black
10
123.823
20
-113.315
11
122.527
21
-113.315
0
LINE
8
Black
10
122.527
20
-113.315
11
122.527
21
-112.019
0
LINE
8
Black
10
122.527
20
-112.019
11
123.823
21
-112.019
0
LINE
8
Black
10
123.823
20
-112.019
11
123.823
21
-113.315
0
LINE
8
Black
10
128.118
20
-119.149
11
126.822
21
-119.149
0
LINE
8
Black
10
126.822
20
-119.149
11
126.822
21
-117.853
0
LINE
8
Black
10
126.822
20
-117.853
11
128.118
21
-117.853
0
LINE
8
Black
10
128.118
20
-117.853
11
128.118
21
-119.149
0
LINE
8
Black
10
128.61
20
-50.6292
11
123.714
21
-50.6292
0
LINE
8
Black
10
123.714
20
-50.6292
11
123.714
21
-49.2132
0
LINE
8
Black
10
123.714
20
-49.2132
11
128.61
21
-49.2132
0
LINE
8
Black
10
128.61
20
-49.2132
11
128.61
21
-50.6292
0
LINE
8
Black
10
128.61
20
-53.1692
11
123.714
21
-53.1692
0
LINE
8
Black
10
123.714
20
-53.1692
11
123.714
21
-51.7532
0
LINE
8
Black
10
123.714
20
-51.7532
11
128.61
21
-51.7532
0
LINE
8
Black
10
128.61
20
-51.7532
11
128.61
21
-53.1692
0
LINE
8
Black
10
128.61
20
-55.7092
11
123.714
21
-55.7092
0
LINE
8
Black
10
123.714
20
-55.7092
11
123.714
21
-54.2932
0
LINE
8
Black
10
123.714
20
-54.2932
11
128.61
21
-54.2932
0
LINE
8
Black
10
128.61
20
-54.2932
11
128.61
21
-55.7092
0
LINE
8
Black
10
128.61
20
-58.2492
11
123.714
21
-58.2492
0
LINE
8
Black
10
123.714
20
-58.2492
11
123.714
21
-56.8332
0
LINE
8
Black
10
123.714
20
-56.8332
11
128.61
21
-56.8332
0
LINE
8
Black
10
128.61
20
-56.8332
11
128.61
21
-58.2492
0
LINE
8
Black
10
128.61
20
-60.7892
11
123.714
21
-60.7892
0
LINE
8
Black
10
123.714
20
-60.7892
11
123.714
21
-59.3732
0
LINE
8
Black
10
123.714
20
-59.3732
11
128.61
21
-59.3732
0
LINE
8
Black
10
128.61
20
-59.3732
11
128.61
21
-60.7892
0
LINE
8
Black
10
128.61
20
-88.7292
11
123.714
21
-88.7292
0
LINE
8
Black
10
123.714
20
-88.7292
11
123.714
21
-87.3132
0
LINE
8
Black
10
123.714
20
-87.3132
11
128.61
21
-87.3132
0
LINE
8
Black
10
128.61
20
-87.3132
11
128.61
21
-88.7292
0
LINE
8
Black
10
128.61
20
-91.2692
11
123.714
21
-91.2692
0
LINE
8
Black
10
123.714
20
-91.2692
11
123.714
21
-89.8532
0
LINE
8
Black
10
123.714
20
-89.8532
11
128.61
21
-89.8532
0
LINE
8
Black
10
128.61
20
-89.8532
11
128.61
21
-91.2692
0
LINE
8
Black
10
128.61
20
-93.8092
11
123.714
21
-93.8092
0
LINE
8
Black
10
123.714
20
-93.8092
11
123.714
21
-92.3932
0
LINE
8
Black
10
123.714
20
-92.3932
11
128.61
21
-92.3932
0
LINE
8
Black
10
128.61
20
-92.3932
11
128.61
21
-93.8092
0
LINE
8
Black
10
128.61
20
-96.3492
11
123.714
21
-96.3492
0
LINE
8
Black
10
123.714
20
-96.3492
11
123.714
21
-94.9332
0
LINE
8
Black
10
123.714
20
-94.9332
11
128.61
21
-94.9332
0
LINE
8
Black
10
128.61
20
-94.9332
11
128.61
21
-96.3492
0
LINE
8
Black
10
128.61
20
-98.8892
11
123.714
21
-98.8892
0
LINE
8
Black
10
123.714
20
-98.8892
11
123.714
21
-97.4732
0
LINE
8
Black
10
123.714
20
-97.4732
11
128.61
21
-97.4732
0
LINE
8
Black
10
128.61
20
-97.4732
11
128.61
21
-98.8892
0
LINE
8
Black
10
130.226
20
-119.149
11
128.93
21
-119.149
0
LINE
8
Black
10
128.93
20
-119.149
11
128.93
21
-117.853
0
LINE
8
Black
10
128.93
20
-117.853
11
130.226
21
-117.853
0
LINE
8
Black
10
130.226
20
-117.853
11
130.226
21
-119.149
0
LINE
8
Black
10
131.61
20
-118.862
11
130.889
21
-118.862
0
LINE
8
Black
10
130.889
20
-118.862
11
130.889
21
-118.14
0
LINE
8
Black
10
130.889
20
-118.14
11
131.61
21
-118.14
0
LINE
8
Black
10
131.61
20
-118.14
11
131.61
21
-118.862
0
LINE
8
Black
10
132.509
20
-118.862
11
131.788
21
-118.862
0
LINE
8
Black
10
131.788
20
-118.862
11
131.788
21
-118.14
0
LINE
8
Black
10
131.788
20
-118.14
11
132.509
21
-118.14
0
LINE
8
Black
10
132.509
20
-118.14
11
132.509
21
-118.862
0
LINE
8
Black
10
130.38
20
-32.1919
11
131.756
21
-32.9861
0
LINE
8
Black
10
131.756
20
-32.9861
11
132.777
21
-34.2028
0
LINE
8
Black
10
132.777
20
-34.2028
11
133.32
21
-35.6954
0
LINE
8
Black
10
133.32
20
-35.6954
11
133.32
21
-37.2838
0
LINE
8
Black
10
133.32
20
-37.2838
11
132.777
21
-38.7764
0
LINE
8
Black
10
132.777
20
-38.7764
11
131.756
21
-39.9931
0
LINE
8
Black
10
131.756
20
-39.9931
11
130.38
21
-40.7873
0
LINE
8
Black
10
130.38
20
-40.7873
11
128.816
21
-41.0631
0
LINE
8
Black
10
128.816
20
-41.0631
11
127.252
21
-40.7873
0
LINE
8
Black
10
127.252
20
-40.7873
11
125.876
21
-39.9931
0
LINE
8
Black
10
125.876
20
-39.9931
11
124.855
21
-38.7764
0
LINE
8
Black
10
124.855
20
-38.7764
11
124.312
21
-37.2838
0
LINE
8
Black
10
124.312
20
-37.2838
11
124.312
21
-35.6954
0
LINE
8
Black
10
124.312
20
-35.6954
11
124.855
21
-34.2028
0
LINE
8
Black
10
124.855
20
-34.2028
11
125.876
21
-32.9861
0
LINE
8
Black
10
125.876
20
-32.9861
11
127.252
21
-32.1919
0
LINE
8
Black
10
127.252
20
-32.1919
11
128.816
21
-31.9161
0
LINE
8
Black
10
128.816
20
-31.9161
11
130.38
21
-32.1919
0
LINE
8
Black
10
130.38
20
-69.7535
11
131.756
21
-70.5477
0
LINE
8
Black
10
131.756
20
-70.5477
11
132.777
21
-71.7644
0
LINE
8
Black
10
132.777
20
-71.7644
11
133.32
21
-73.257
0
LINE
8
Black
10
133.32
20
-73.257
11
133.32
21
-74.8454
0
LINE
8
Black
10
133.32
20
-74.8454
11
132.777
21
-76.338
0
LINE
8
Black
10
132.777
20
-76.338
11
131.756
21
-77.5547
0
LINE
8
Black
10
131.756
20
-77.5547
11
130.38
21
-78.3489
0
LINE
8
Black
10
130.38
20
-78.3489
11
128.816
21
-78.6247
0
LINE
8
Black
10
128.816
20
-78.6247
11
127.252
21
-78.3489
0
LINE
8
Black
10
127.252
20
-78.3489
11
125.876
21
-77.5547
0
LINE
8
Black
10
125.876
20
-77.5547
11
124.855
21
-76.338
0
LINE
8
Black
10
124.855
20
-76.338
11
124.312
21
-74.8454
0
LINE
8
Black
10
124.312
20
-74.8454
11
124.312
21
-73.257
0
LINE
8
Black
10
124.312
20
-73.257
11
124.855
21
-71.7644
0
LINE
8
Black
10
124.855
20
-71.7644
11
125.876
21
-70.5477
0
LINE
8
Black
10
125.876
20
-70.5477
11
127.252
21
-69.7535
0
LINE
8
Black
10
127.252
20
-69.7535
11
128.816
21
-69.4777
0
LINE
8
Black
10
128.816
20
-69.4777
11
130.38
21
-69.7535
0
LINE
8
Black
10
130.38
20
-107.315
11
131.756
21
-108.109
0
LINE
8
Black
10
131.756
20
-108.109
11
132.777
21
-109.326
0
LINE
8
Black
10
132.777
20
-109.326
11
133.32
21
-110.819
0
LINE
8
Black
10
133.32
20
-110.819
11
133.32
21
-112.407
0
LINE
8
Black
10
133.32
20
-112.407
11
132.777
21
-113.9
0
LINE
8
Black
10
132.777
20
-113.9
11
131.756
21
-115.117
0
LINE
8
Black
10
131.756
20
-115.117
11
130.38
21
-115.911
0
LINE
8
Black
10
130.38
20
-115.911
11
128.816
21
-116.187
0
LINE
8
Black
10
128.816
20
-116.187
11
127.252
21
-115.911
0
LINE
8
Black
10
127.252
20
-115.911
11
125.876
21
-115.117
0
LINE
8
Black
10
125.876
20
-115.117
11
124.855
21
-113.9
0
LINE
8
Black
10
124.855
20
-113.9
11
124.312
21
-112.407
0
LINE
8
Black
10
124.312
20
-112.407
11
124.312
21
-110.819
0
LINE
8
Black
10
124.312
20
-110.819
11
124.855
21
-109.326
0
LINE
8
Black
10
124.855
20
-109.326
11
125.876
21
-108.109
0
LINE
8
Black
10
125.876
20
-108.109
11
127.252
21
-107.315
0
LINE
8
Black
10
127.252
20
-107.315
11
128.816
21
-107.039
0
LINE
8
Black
10
128.816
20
-107.039
11
130.38
21
-107.315
0
LINE
8
Black
10
134.604
20
-50.6292
11
129.708
21
-50.6292
0
LINE
8
Black
10
129.708
20
-50.6292
11
129.708
21
-49.2132
0
LINE
8
Black
10
129.708
20
-49.2132
11
134.604
21
-49.2132
0
LINE
8
Black
10
134.604
20
-49.2132
11
134.604
21
-50.6292
0
LINE
8
Black
10
134.604
20
-53.1692
11
129.708
21
-53.1692
0
LINE
8
Black
10
129.708
20
-53.1692
11
129.708
21
-51.7532
0
LINE
8
Black
10
129.708
20
-51.7532
11
134.604
21
-51.7532
0
LINE
8
Black
10
134.604
20
-51.7532
11
134.604
21
-53.1692
0
LINE
8
Black
10
134.604
20
-55.7092
11
129.708
21
-55.7092
0
LINE
8
Black
10
129.708
20
-55.7092
11
129.708
21
-54.2932
0
LINE
8
Black
10
129.708
20
-54.2932
11
134.604
21
-54.2932
0
LINE
8
Black
10
134.604
20
-54.2932
11
134.604
21
-55.7092
0
LINE
8
Black
10
134.604
20
-58.2492
11
129.708
21
-58.2492
0
LINE
8
Black
10
129.708
20
-58.2492
11
129.708
21
-56.8332
0
LINE
8
Black
10
129.708
20
-56.8332
11
134.604
21
-56.8332
0
LINE
8
Black
10
134.604
20
-56.8332
11
134.604
21
-58.2492
0
LINE
8
Black
10
134.604
20
-60.7892
11
129.708
21
-60.7892
0
LINE
8
Black
10
129.708
20
-60.7892
11
129.708
21
-59.3732
0
LINE
8
Black
10
129.708
20
-59.3732
11
134.604
21
-59.3732
0
LINE
8
Black
10
134.604
20
-59.3732
11
134.604
21
-60.7892
0
LINE
8
Black
10
134.604
20
-88.7292
11
129.708
21
-88.7292
0
LINE
8
Black
10
129.708
20
-88.7292
11
129.708
21
-87.3132
0
LINE
8
Black
10
129.708
20
-87.3132
11
134.604
21
-87.3132
0
LINE
8
Black
10
134.604
20
-87.3132
11
134.604
21
-88.7292
0
LINE
8
Black
10
134.604
20
-91.2692
11
129.708
21
-91.2692
0
LINE
8
Black
10
129.708
20
-91.2692
11
129.708
21
-89.8532
0
LINE
8
Black
10
129.708
20
-89.8532
11
134.604
21
-89.8532
0
LINE
8
Black
10
134.604
20
-89.8532
11
134.604
21
-91.2692
0
LINE
8
Black
10
134.604
20
-93.8092
11
129.708
21
-93.8092
0
LINE
8
Black
10
129.708
20
-93.8092
11
129.708
21
-92.3932
0
LINE
8
Black
10
129.708
20
-92.3932
11
134.604
21
-92.3932
0
LINE
8
Black
10
134.604
20
-92.3932
11
134.604
21
-93.8092
0
LINE
8
Black
10
134.604
20
-96.3492
11
129.708
21
-96.3492
0
LINE
8
Black
10
129.708
20
-96.3492
11
129.708
21
-94.9332
0
LINE
8
Black
10
129.708
20
-94.9332
11
134.604
21
-94.9332
0
LINE
8
Black
10
134.604
20
-94.9332
11
134.604
21
-96.3492
0
LINE
8
Black
10
134.604
20
-98.8892
11
129.708
21
-98.8892
0
LINE
8
Black
10
129.708
20
-98.8892
11
129.708
21
-97.4732
0
LINE
8
Black
10
129.708
20
-97.4732
11
134.604
21
-97.4732
0
LINE
8
Black
10
134.604
20
-97.4732
11
134.604
21
-98.8892
0
LINE
8
Black
10
135.849
20
-121.766
11
135.823
21
-121.796
0
LINE
8
Black
10
135.823
20
-121.796
11
135.083
21
-122.417
0
LINE
8
Black
10
135.083
20
-122.417
11
135.049
21
-122.437
0
LINE
8
Black
10
135.049
20
-122.437
11
134.141
21
-122.767
0
LINE
8
Black
10
134.141
20
-122.767
11
134.127
21
-122.77
0
LINE
8
Black
10
134.127
20
-122.77
11
134.112
21
-122.774
0
LINE
8
Black
10
134.112
20
-122.774
11
133.629
21
-122.816
0
LINE
8
Black
10
133.629
20
-122.816
11
133.624
21
-122.816
0
LINE
8
Black
10
133.624
20
-122.816
11
133.619
21
-122.817
0
LINE
8
Black
10
133.619
20
-122.817
11
102.07
21
-122.817
0
LINE
8
Black
10
102.07
20
-122.817
11
101.607
21
-122.857
0
LINE
8
Black
10
101.607
20
-122.857
11
100.732
21
-123.175
0
LINE
8
Black
10
100.732
20
-123.175
11
100.023
21
-123.77
0
LINE
8
Black
10
100.023
20
-123.77
11
99.5603
21
-124.572
0
LINE
8
Black
10
99.5603
20
-124.572
11
99.3978
21
-125.494
0
LINE
8
Black
10
99.3978
20
-125.494
11
99.3978
21
-151.958
0
LINE
8
Black
10
99.3978
20
-151.958
11
99.3961
21
-151.968
0
LINE
8
Black
10
99.3961
20
-151.968
11
99.3961
21
-151.978
0
LINE
8
Black
10
99.3961
20
-151.978
11
99.0533
21
-153.922
0
LINE
8
Black
10
99.0533
20
-153.922
11
99.0397
21
-153.959
0
LINE
8
Black
10
99.0397
20
-153.959
11
98.0526
21
-155.669
0
LINE
8
Black
10
98.0526
20
-155.669
11
98.0271
21
-155.7
0
LINE
8
Black
10
98.0271
20
-155.7
11
98.0271
21
-155.7
0
LINE
8
Black
10
98.0271
20
-155.7
11
98.0271
21
-155.7
0
LINE
8
Black
10
98.0271
20
-155.7
11
96.5147
21
-156.969
0
LINE
8
Black
10
96.5147
20
-156.969
11
96.5147
21
-156.969
0
LINE
8
Black
10
96.5147
20
-156.969
11
96.4804
21
-156.988
0
LINE
8
Black
10
96.4804
20
-156.988
11
96.4804
21
-156.988
0
LINE
8
Black
10
96.4804
20
-156.988
11
94.6252
21
-157.664
0
LINE
8
Black
10
94.6252
20
-157.664
11
94.5861
21
-157.67
0
LINE
8
Black
10
94.5861
20
-157.67
11
92.6119
21
-157.67
0
LINE
8
Black
10
92.6119
20
-157.67
11
92.5728
21
-157.664
0
LINE
8
Black
10
92.5728
20
-157.664
11
90.7176
21
-156.988
0
LINE
8
Black
10
90.7176
20
-156.988
11
90.6833
21
-156.969
0
LINE
8
Black
10
90.6833
20
-156.969
11
89.1709
21
-155.7
0
LINE
8
Black
10
89.1709
20
-155.7
11
89.1454
21
-155.669
0
LINE
8
Black
10
89.1454
20
-155.669
11
88.1583
21
-153.959
0
LINE
8
Black
10
88.1583
20
-153.959
11
88.1447
21
-153.922
0
LINE
8
Black
10
88.1447
20
-153.922
11
88.1447
21
-153.922
0
LINE
8
Black
10
88.1447
20
-153.922
11
87.8019
21
-151.978
0
LINE
8
Black
10
87.8019
20
-151.978
11
87.8019
21
-151.938
0
LINE
8
Black
10
87.8019
20
-151.938
11
87.8027
21
-151.936
0
LINE
8
Black
10
87.8027
20
-151.936
11
87.8027
21
-125.489
0
LINE
8
Black
10
87.8027
20
-125.489
11
87.7622
21
-125.026
0
LINE
8
Black
10
87.7622
20
-125.026
11
87.4439
21
-124.151
0
LINE
8
Black
10
87.4439
20
-124.151
11
86.8489
21
-123.442
0
LINE
8
Black
10
86.8489
20
-123.442
11
86.0473
21
-122.979
0
LINE
8
Black
10
86.0473
20
-122.979
11
85.1257
21
-122.817
0
LINE
8
Black
10
85.1257
20
-122.817
11
53.5813
21
-122.817
0
LINE
8
Black
10
53.5813
20
-122.817
11
53.5715
21
-122.815
0
LINE
8
Black
10
53.5715
20
-122.815
11
53.5615
21
-122.815
0
LINE
8
Black
10
53.5615
20
-122.815
11
52.6102
21
-122.647
0
LINE
8
Black
10
52.6102
20
-122.647
11
52.5729
21
-122.634
0
LINE
8
Black
10
52.5729
20
-122.634
11
51.7364
21
-122.151
0
LINE
8
Black
10
51.7364
20
-122.151
11
51.706
21
-122.125
0
LINE
8
Black
10
51.706
20
-122.125
11
51.0851
21
-121.385
0
LINE
8
Black
10
51.0851
20
-121.385
11
51.0652
21
-121.351
0
LINE
8
Black
10
51.0652
20
-121.351
11
50.7348
21
-120.443
0
LINE
8
Black
10
50.7348
20
-120.443
11
50.7323
21
-120.428
0
LINE
8
Black
10
50.7323
20
-120.428
11
50.7284
21
-120.414
0
LINE
8
Black
10
50.7284
20
-120.414
11
50.6861
21
-119.931
0
LINE
8
Black
10
50.6861
20
-119.931
11
50.6866
21
-119.926
0
LINE
8
Black
10
50.6866
20
-119.926
11
50.6857
21
-119.921
0
LINE
8
Black
10
50.6857
20
-119.921
11
50.6857
21
-28.1813
0
LINE
8
Black
10
50.6857
20
-28.1813
11
50.6874
21
-28.1715
0
LINE
8
Black
10
50.6874
20
-28.1715
11
50.6874
21
-28.1615
0
LINE
8
Black
10
50.6874
20
-28.1615
11
50.8552
21
-27.2102
0
LINE
8
Black
10
50.8552
20
-27.2102
11
50.8552
21
-27.2102
0
LINE
8
Black
10
50.8552
20
-27.2102
11
50.8687
21
-27.1729
0
LINE
8
Black
10
50.8687
20
-27.1729
11
51.3517
21
-26.3364
0
LINE
8
Black
10
51.3517
20
-26.3364
11
51.3772
21
-26.306
0
LINE
8
Black
10
51.3772
20
-26.306
11
52.1172
21
-25.6851
0
LINE
8
Black
10
52.1172
20
-25.6851
11
52.1516
21
-25.6652
0
LINE
8
Black
10
52.1516
20
-25.6652
11
53.0592
21
-25.3348
0
LINE
8
Black
10
53.0592
20
-25.3348
11
53.0739
21
-25.3323
0
LINE
8
Black
10
53.0739
20
-25.3323
11
53.0884
21
-25.3284
0
LINE
8
Black
10
53.0884
20
-25.3284
11
53.5713
21
-25.2861
0
LINE
8
Black
10
53.5713
20
-25.2861
11
53.5763
21
-25.2866
0
LINE
8
Black
10
53.5763
20
-25.2866
11
53.5813
21
-25.2857
0
LINE
8
Black
10
53.5813
20
-25.2857
11
133.619
21
-25.2857
0
LINE
8
Black
10
133.619
20
-25.2857
11
133.629
21
-25.2874
0
LINE
8
Black
10
133.629
20
-25.2874
11
133.639
21
-25.2874
0
LINE
8
Black
10
133.639
20
-25.2874
11
134.59
21
-25.4552
0
LINE
8
Black
10
134.59
20
-25.4552
11
134.59
21
-25.4552
0
LINE
8
Black
10
134.59
20
-25.4552
11
134.628
21
-25.4687
0
LINE
8
Black
10
134.628
20
-25.4687
11
135.464
21
-25.9517
0
LINE
8
Black
10
135.464
20
-25.9517
11
135.495
21
-25.9772
0
LINE
8
Black
10
135.495
20
-25.9772
11
136.115
21
-26.7172
0
LINE
8
Black
10
136.115
20
-26.7172
11
136.135
21
-26.7516
0
LINE
8
Black
10
136.135
20
-26.7516
11
136.466
21
-27.6592
0
LINE
8
Black
10
136.466
20
-27.6592
11
136.468
21
-27.6739
0
LINE
8
Black
10
136.468
20
-27.6739
11
136.472
21
-27.6884
0
LINE
8
Black
10
136.472
20
-27.6884
11
136.514
21
-28.1713
0
LINE
8
Black
10
136.514
20
-28.1713
11
136.514
21
-28.1763
0
LINE
8
Black
10
136.514
20
-28.1763
11
136.515
21
-28.1813
0
LINE
8
Black
10
136.515
20
-28.1813
11
136.515
21
-119.921
0
LINE
8
Black
10
136.515
20
-119.921
11
136.513
21
-119.931
0
LINE
8
Black
10
136.513
20
-119.931
11
136.513
21
-119.941
0
LINE
8
Black
10
136.513
20
-119.941
11
136.345
21
-120.892
0
LINE
8
Black
10
136.345
20
-120.892
11
136.332
21
-120.929
0
LINE
8
Black
10
136.332
20
-120.929
11
136.286
21
-121.008
0
LINE
8
Black
10
136.286
20
-121.008
11
135.849
21
-121.766
0
LINE
8
Black
10
136.246
20
-27.7233
11
135.927
21
-26.8487
0
LINE
8
Black
10
135.927
20
-26.8487
11
135.332
21
-26.1396
0
LINE
8
Black
10
135.332
20
-26.1396
11
134.531
21
-25.6768
0
LINE
8
Black
10
134.531
20
-25.6768
11
133.609
21
-25.5143
0
LINE
8
Black
10
133.609
20
-25.5143
11
53.5863
21
-25.5143
0
LINE
8
Black
10
53.5863
20
-25.5143
11
53.1233
21
-25.5548
0
LINE
8
Black
10
53.1233
20
-25.5548
11
52.2487
21
-25.8731
0
LINE
8
Black
10
52.2487
20
-25.8731
11
51.5396
21
-26.4681
0
LINE
8
Black
10
51.5396
20
-26.4681
11
51.0768
21
-27.2697
0
LINE
8
Black
10
51.0768
20
-27.2697
11
50.9143
21
-28.1913
0
LINE
8
Black
10
50.9143
20
-28.1913
11
50.9143
21
-119.916
0
LINE
8
Black
10
50.9143
20
-119.916
11
50.9548
21
-120.379
0
LINE
8
Black
10
50.9548
20
-120.379
11
51.2731
21
-121.254
0
LINE
8
Black
10
51.2731
20
-121.254
11
51.8681
21
-121.963
0
LINE
8
Black
10
51.8681
20
-121.963
11
52.6697
21
-122.426
0
LINE
8
Black
10
52.6697
20
-122.426
11
53.5913
21
-122.588
0
LINE
8
Black
10
53.5913
20
-122.588
11
85.1357
21
-122.588
0
LINE
8
Black
10
85.1357
20
-122.588
11
85.1456
21
-122.59
0
LINE
8
Black
10
85.1456
20
-122.59
11
85.1556
21
-122.59
0
LINE
8
Black
10
85.1556
20
-122.59
11
86.1068
21
-122.757
0
LINE
8
Black
10
86.1068
20
-122.757
11
86.1068
21
-122.757
0
LINE
8
Black
10
86.1068
20
-122.757
11
86.1441
21
-122.771
0
LINE
8
Black
10
86.1441
20
-122.771
11
86.9807
21
-123.254
0
LINE
8
Black
10
86.9807
20
-123.254
11
87.0111
21
-123.28
0
LINE
8
Black
10
87.0111
20
-123.28
11
87.632
21
-124.019
0
LINE
8
Black
10
87.632
20
-124.019
11
87.6518
21
-124.054
0
LINE
8
Black
10
87.6518
20
-124.054
11
87.9822
21
-124.962
0
LINE
8
Black
10
87.9822
20
-124.962
11
87.9848
21
-124.976
0
LINE
8
Black
10
87.9848
20
-124.976
11
87.9886
21
-124.991
0
LINE
8
Black
10
87.9886
20
-124.991
11
88.0309
21
-125.474
0
LINE
8
Black
10
88.0309
20
-125.474
11
88.0304
21
-125.479
0
LINE
8
Black
10
88.0304
20
-125.479
11
88.0313
21
-125.484
0
LINE
8
Black
10
88.0313
20
-125.484
11
88.0313
21
-151.958
0
LINE
8
Black
10
88.0313
20
-151.958
11
88.0309
21
-151.96
0
LINE
8
Black
10
88.0309
20
-151.96
11
88.3664
21
-153.863
0
LINE
8
Black
10
88.3664
20
-153.863
11
89.3333
21
-155.537
0
LINE
8
Black
10
89.3333
20
-155.537
11
90.8148
21
-156.78
0
LINE
8
Black
10
90.8148
20
-156.78
11
92.632
21
-157.442
0
LINE
8
Black
10
92.632
20
-157.442
11
94.566
21
-157.442
0
LINE
8
Black
10
94.566
20
-157.442
11
96.3832
21
-156.78
0
LINE
8
Black
10
96.3832
20
-156.78
11
97.8647
21
-155.537
0
LINE
8
Black
10
97.8647
20
-155.537
11
98.8316
21
-153.863
0
LINE
8
Black
10
98.8316
20
-153.863
11
99.1692
21
-151.948
0
LINE
8
Black
10
99.1692
20
-151.948
11
99.1692
21
-125.484
0
LINE
8
Black
10
99.1692
20
-125.484
11
99.171
21
-125.474
0
LINE
8
Black
10
99.171
20
-125.474
11
99.171
21
-125.464
0
LINE
8
Black
10
99.171
20
-125.464
11
99.3387
21
-124.513
0
LINE
8
Black
10
99.3387
20
-124.513
11
99.3387
21
-124.513
0
LINE
8
Black
10
99.3387
20
-124.513
11
99.3523
21
-124.475
0
LINE
8
Black
10
99.3523
20
-124.475
11
99.8352
21
-123.639
0
LINE
8
Black
10
99.8352
20
-123.639
11
99.8607
21
-123.608
0
LINE
8
Black
10
99.8607
20
-123.608
11
100.601
21
-122.987
0
LINE
8
Black
10
100.601
20
-122.987
11
100.635
21
-122.968
0
LINE
8
Black
10
100.635
20
-122.968
11
101.543
21
-122.637
0
LINE
8
Black
10
101.543
20
-122.637
11
101.557
21
-122.635
0
LINE
8
Black
10
101.557
20
-122.635
11
101.572
21
-122.631
0
LINE
8
Black
10
101.572
20
-122.631
11
102.055
21
-122.588
0
LINE
8
Black
10
102.055
20
-122.588
11
102.06
21
-122.589
0
LINE
8
Black
10
102.06
20
-122.589
11
102.065
21
-122.588
0
LINE
8
Black
10
102.065
20
-122.588
11
133.614
21
-122.588
0
LINE
8
Black
10
133.614
20
-122.588
11
134.077
21
-122.548
0
LINE
8
Black
10
134.077
20
-122.548
11
134.952
21
-122.229
0
LINE
8
Black
10
134.952
20
-122.229
11
135.661
21
-121.634
0
LINE
8
Black
10
135.661
20
-121.634
11
136.124
21
-120.833
0
LINE
8
Black
10
136.124
20
-120.833
11
136.286
21
-119.911
0
LINE
8
Black
10
136.286
20
-119.911
11
136.286
21
-28.1863
0
LINE
8
Black
10
136.286
20
-28.1863
11
136.246
21
-27.7233
  0
ENDSEC
  0
EOF
